<?xml version="1.0" encoding="UTF-8" standalone="no"?>
<!DOCTYPE svg PUBLIC "-//W3C//DTD SVG 1.1//EN"
 "http://www.w3.org/Graphics/SVG/1.1/DTD/svg11.dtd">
<!-- Generated by graphviz version 2.43.0 (0)
 -->
<!-- Title: COutputInterface Pages: 1 -->
<svg width="297pt" height="140pt"
 viewBox="0.00 0.00 297.00 140.00" xmlns="http://www.w3.org/2000/svg" xmlns:xlink="http://www.w3.org/1999/xlink">
<g id="graph0" class="graph" transform="scale(1 1) rotate(0) translate(4 136)">
<title>COutputInterface</title>
<polygon fill="white" stroke="transparent" points="-4,4 -4,-136 293,-136 293,4 -4,4"/>
<!-- Node1 -->
<g id="node1" class="node">
<title>Node1</title>
<g id="a_node1"><a xlink:title=" ">
<polygon fill="#bfbfbf" stroke="black" points="126,-112.5 126,-131.5 217,-131.5 217,-112.5 126,-112.5"/>
<text text-anchor="middle" x="171.5" y="-119.5" font-family="FreeSans" font-size="10.00">COutputInterface</text>
</a>
</g>
</g>
<!-- Node2 -->
<g id="node2" class="node">
<title>Node2</title>
<g id="a_node2"><a xlink:href="../../d5/dd1/classCOutputHandler.html" target="_top" xlink:title=" ">
<polygon fill="white" stroke="black" points="41.5,-56.5 41.5,-75.5 127.5,-75.5 127.5,-56.5 41.5,-56.5"/>
<text text-anchor="middle" x="84.5" y="-63.5" font-family="FreeSans" font-size="10.00">COutputHandler</text>
</a>
</g>
</g>
<!-- Node1&#45;&gt;Node2 -->
<g id="edge1" class="edge">
<title>Node1&#45;&gt;Node2</title>
<path fill="none" stroke="midnightblue" d="M148.78,-106.9C132.83,-97 112,-84.07 98.44,-75.65"/>
<polygon fill="midnightblue" stroke="midnightblue" points="147.18,-110.02 157.52,-112.32 150.87,-104.08 147.18,-110.02"/>
</g>
<!-- Node5 -->
<g id="node5" class="node">
<title>Node5</title>
<g id="a_node5"><a xlink:href="../../db/d44/classCReport.html" target="_top" xlink:title=" ">
<polygon fill="white" stroke="black" points="145.5,-56.5 145.5,-75.5 197.5,-75.5 197.5,-56.5 145.5,-56.5"/>
<text text-anchor="middle" x="171.5" y="-63.5" font-family="FreeSans" font-size="10.00">CReport</text>
</a>
</g>
</g>
<!-- Node1&#45;&gt;Node5 -->
<g id="edge4" class="edge">
<title>Node1&#45;&gt;Node5</title>
<path fill="none" stroke="midnightblue" d="M171.5,-101.8C171.5,-92.91 171.5,-82.78 171.5,-75.75"/>
<polygon fill="midnightblue" stroke="midnightblue" points="168,-102.08 171.5,-112.08 175,-102.08 168,-102.08"/>
</g>
<!-- Node6 -->
<g id="node6" class="node">
<title>Node6</title>
<g id="a_node6"><a xlink:href="../../d9/d47/classCTimeSeries.html" target="_top" xlink:title=" ">
<polygon fill="white" stroke="black" points="216,-56.5 216,-75.5 289,-75.5 289,-56.5 216,-56.5"/>
<text text-anchor="middle" x="252.5" y="-63.5" font-family="FreeSans" font-size="10.00">CTimeSeries</text>
</a>
</g>
</g>
<!-- Node1&#45;&gt;Node6 -->
<g id="edge5" class="edge">
<title>Node1&#45;&gt;Node6</title>
<path fill="none" stroke="midnightblue" d="M193.07,-106.62C207.86,-96.76 227.01,-83.99 239.52,-75.65"/>
<polygon fill="midnightblue" stroke="midnightblue" points="190.89,-103.86 184.51,-112.32 194.78,-109.69 190.89,-103.86"/>
</g>
<!-- Node3 -->
<g id="node3" class="node">
<title>Node3</title>
<g id="a_node3"><a xlink:href="../../d7/d45/classCDataHandler.html" target="_top" xlink:title=" ">
<polygon fill="white" stroke="black" points="0,-0.5 0,-19.5 77,-19.5 77,-0.5 0,-0.5"/>
<text text-anchor="middle" x="38.5" y="-7.5" font-family="FreeSans" font-size="10.00">CDataHandler</text>
</a>
</g>
</g>
<!-- Node2&#45;&gt;Node3 -->
<g id="edge2" class="edge">
<title>Node2&#45;&gt;Node3</title>
<path fill="none" stroke="midnightblue" d="M70.39,-48.43C62.32,-38.97 52.54,-27.48 45.95,-19.75"/>
<polygon fill="midnightblue" stroke="midnightblue" points="67.75,-50.74 76.9,-56.08 73.08,-46.2 67.75,-50.74"/>
</g>
<!-- Node4 -->
<g id="node4" class="node">
<title>Node4</title>
<g id="a_node4"><a xlink:href="../../d9/d54/classCDataModel.html" target="_top" xlink:title=" ">
<polygon fill="white" stroke="black" points="95.5,-0.5 95.5,-19.5 165.5,-19.5 165.5,-0.5 95.5,-0.5"/>
<text text-anchor="middle" x="130.5" y="-7.5" font-family="FreeSans" font-size="10.00">CDataModel</text>
</a>
</g>
</g>
<!-- Node2&#45;&gt;Node4 -->
<g id="edge3" class="edge">
<title>Node2&#45;&gt;Node4</title>
<path fill="none" stroke="midnightblue" d="M98.61,-48.43C106.68,-38.97 116.46,-27.48 123.05,-19.75"/>
<polygon fill="midnightblue" stroke="midnightblue" points="95.92,-46.2 92.1,-56.08 101.25,-50.74 95.92,-46.2"/>
</g>
</g>
</svg>
