<?xml version="1.0" encoding="UTF-8" standalone="no"?>
<!DOCTYPE svg PUBLIC "-//W3C//DTD SVG 1.1//EN"
 "http://www.w3.org/Graphics/SVG/1.1/DTD/svg11.dtd">
<!-- Generated by graphviz version 2.43.0 (0)
 -->
<!-- Title: CDataVectorS&lt; CType &gt; Pages: 1 -->
<svg width="288pt" height="323pt"
 viewBox="0.00 0.00 287.50 323.00" xmlns="http://www.w3.org/2000/svg" xmlns:xlink="http://www.w3.org/1999/xlink">
<g id="graph0" class="graph" transform="scale(1 1) rotate(0) translate(4 319)">
<title>CDataVectorS&lt; CType &gt;</title>
<polygon fill="white" stroke="transparent" points="-4,4 -4,-319 283.5,-319 283.5,4 -4,4"/>
<!-- Node1 -->
<g id="node1" class="node">
<title>Node1</title>
<g id="a_node1"><a xlink:title=" ">
<polygon fill="#bfbfbf" stroke="black" points="10.5,-67.5 10.5,-86.5 133.5,-86.5 133.5,-67.5 10.5,-67.5"/>
<text text-anchor="middle" x="72" y="-74.5" font-family="FreeSans" font-size="10.00">CDataVectorS&lt; CType &gt;</text>
</a>
</g>
</g>
<!-- Node8 -->
<g id="node8" class="node">
<title>Node8</title>
<g id="a_node8"><a xlink:href="../../d2/d7f/classCDataVectorS.html" target="_top" xlink:title=" ">
<polygon fill="white" stroke="black" points="0,-0.5 0,-19.5 144,-19.5 144,-0.5 0,-0.5"/>
<text text-anchor="middle" x="72" y="-7.5" font-family="FreeSans" font-size="10.00">CDataVectorS&lt; CMetabOld &gt;</text>
</a>
</g>
</g>
<!-- Node1&#45;&gt;Node8 -->
<g id="edge7" class="edge">
<title>Node1&#45;&gt;Node8</title>
<path fill="none" stroke="orange" stroke-dasharray="5,2" d="M72,-57.04C72,-44.67 72,-29.12 72,-19.63"/>
<polygon fill="orange" stroke="orange" points="68.5,-57.23 72,-67.23 75.5,-57.23 68.5,-57.23"/>
<text text-anchor="middle" x="106" y="-41" font-family="FreeSans" font-size="10.00"> &lt; CMetabOld &gt;</text>
</g>
<!-- Node2 -->
<g id="node2" class="node">
<title>Node2</title>
<g id="a_node2"><a xlink:href="../../db/d30/classCDataVector.html" target="_top" xlink:title=" ">
<polygon fill="white" stroke="black" points="14,-124.5 14,-143.5 130,-143.5 130,-124.5 14,-124.5"/>
<text text-anchor="middle" x="72" y="-131.5" font-family="FreeSans" font-size="10.00">CDataVector&lt; CType &gt;</text>
</a>
</g>
</g>
<!-- Node2&#45;&gt;Node1 -->
<g id="edge1" class="edge">
<title>Node2&#45;&gt;Node1</title>
<path fill="none" stroke="midnightblue" d="M72,-114.12C72,-104.82 72,-94.06 72,-86.71"/>
<polygon fill="midnightblue" stroke="midnightblue" points="68.5,-114.41 72,-124.41 75.5,-114.41 68.5,-114.41"/>
</g>
<!-- Node3 -->
<g id="node3" class="node">
<title>Node3</title>
<g id="a_node3"><a xlink:title=" ">
<polygon fill="white" stroke="#bfbfbf" points="18,-181.5 18,-200.5 102,-200.5 102,-181.5 18,-181.5"/>
<text text-anchor="middle" x="60" y="-188.5" font-family="FreeSans" font-size="10.00">std::vector&lt; T &gt;</text>
</a>
</g>
</g>
<!-- Node3&#45;&gt;Node2 -->
<g id="edge2" class="edge">
<title>Node3&#45;&gt;Node2</title>
<path fill="none" stroke="darkgreen" d="M64.05,-171.42C66.1,-162.05 68.48,-151.14 70.1,-143.71"/>
<polygon fill="darkgreen" stroke="darkgreen" points="60.59,-170.89 61.88,-181.41 67.43,-172.38 60.59,-170.89"/>
</g>
<!-- Node4 -->
<g id="node4" class="node">
<title>Node4</title>
<g id="a_node4"><a xlink:href="../../d3/db9/classCDataContainer.html" target="_top" xlink:title=" ">
<polygon fill="white" stroke="black" points="120.5,-181.5 120.5,-200.5 205.5,-200.5 205.5,-181.5 120.5,-181.5"/>
<text text-anchor="middle" x="163" y="-188.5" font-family="FreeSans" font-size="10.00">CDataContainer</text>
</a>
</g>
</g>
<!-- Node4&#45;&gt;Node2 -->
<g id="edge3" class="edge">
<title>Node4&#45;&gt;Node2</title>
<path fill="none" stroke="midnightblue" d="M140.02,-176.11C123.05,-165.86 100.51,-152.23 86.12,-143.53"/>
<polygon fill="midnightblue" stroke="midnightblue" points="138.41,-179.23 148.78,-181.41 142.03,-173.24 138.41,-179.23"/>
</g>
<!-- Node5 -->
<g id="node5" class="node">
<title>Node5</title>
<g id="a_node5"><a xlink:href="../../d1/d6b/classCDataObject.html" target="_top" xlink:title=" ">
<polygon fill="white" stroke="black" points="127,-238.5 127,-257.5 199,-257.5 199,-238.5 127,-238.5"/>
<text text-anchor="middle" x="163" y="-245.5" font-family="FreeSans" font-size="10.00">CDataObject</text>
</a>
</g>
</g>
<!-- Node5&#45;&gt;Node4 -->
<g id="edge4" class="edge">
<title>Node5&#45;&gt;Node4</title>
<path fill="none" stroke="midnightblue" d="M163,-228.12C163,-218.82 163,-208.06 163,-200.71"/>
<polygon fill="midnightblue" stroke="midnightblue" points="159.5,-228.41 163,-238.41 166.5,-228.41 159.5,-228.41"/>
</g>
<!-- Node6 -->
<g id="node6" class="node">
<title>Node6</title>
<g id="a_node6"><a xlink:href="../../df/dfa/classCObjectInterface.html" target="_top" xlink:title=" ">
<polygon fill="white" stroke="black" points="58,-295.5 58,-314.5 148,-314.5 148,-295.5 58,-295.5"/>
<text text-anchor="middle" x="103" y="-302.5" font-family="FreeSans" font-size="10.00">CObjectInterface</text>
</a>
</g>
</g>
<!-- Node6&#45;&gt;Node5 -->
<g id="edge5" class="edge">
<title>Node6&#45;&gt;Node5</title>
<path fill="none" stroke="midnightblue" d="M120,-288.42C130.85,-278.47 144.52,-265.94 153.49,-257.71"/>
<polygon fill="midnightblue" stroke="midnightblue" points="117.38,-286.07 112.38,-295.41 122.11,-291.23 117.38,-286.07"/>
</g>
<!-- Node7 -->
<g id="node7" class="node">
<title>Node7</title>
<g id="a_node7"><a xlink:href="../../d8/d53/classCUndoObjectInterface.html" target="_top" xlink:title=" ">
<polygon fill="white" stroke="black" points="166.5,-295.5 166.5,-314.5 279.5,-314.5 279.5,-295.5 166.5,-295.5"/>
<text text-anchor="middle" x="223" y="-302.5" font-family="FreeSans" font-size="10.00">CUndoObjectInterface</text>
</a>
</g>
</g>
<!-- Node7&#45;&gt;Node5 -->
<g id="edge6" class="edge">
<title>Node7&#45;&gt;Node5</title>
<path fill="none" stroke="midnightblue" d="M206,-288.42C195.15,-278.47 181.48,-265.94 172.51,-257.71"/>
<polygon fill="midnightblue" stroke="midnightblue" points="203.89,-291.23 213.62,-295.41 208.62,-286.07 203.89,-291.23"/>
</g>
</g>
</svg>
