<?xml version="1.0" encoding="UTF-8" standalone="no"?>
<!DOCTYPE svg PUBLIC "-//W3C//DTD SVG 1.1//EN"
 "http://www.w3.org/Graphics/SVG/1.1/DTD/svg11.dtd">
<!-- Generated by graphviz version 2.43.0 (0)
 -->
<!-- Title: CLRenderInformationBase Pages: 1 -->
<svg width="313pt" height="252pt"
 viewBox="0.00 0.00 313.00 252.00" xmlns="http://www.w3.org/2000/svg" xmlns:xlink="http://www.w3.org/1999/xlink">
<g id="graph0" class="graph" transform="scale(1 1) rotate(0) translate(4 248)">
<title>CLRenderInformationBase</title>
<polygon fill="white" stroke="transparent" points="-4,4 -4,-248 309,-248 309,4 -4,4"/>
<!-- Node1 -->
<g id="node1" class="node">
<title>Node1</title>
<g id="a_node1"><a xlink:title=" ">
<polygon fill="#bfbfbf" stroke="black" points="79,-56.5 79,-75.5 210,-75.5 210,-56.5 79,-56.5"/>
<text text-anchor="middle" x="144.5" y="-63.5" font-family="FreeSans" font-size="10.00">CLRenderInformationBase</text>
</a>
</g>
</g>
<!-- Node7 -->
<g id="node7" class="node">
<title>Node7</title>
<g id="a_node7"><a xlink:href="../../d7/d2b/classCLGlobalRenderInformation.html" target="_top" xlink:title=" ">
<polygon fill="white" stroke="black" points="0,-0.5 0,-19.5 137,-19.5 137,-0.5 0,-0.5"/>
<text text-anchor="middle" x="68.5" y="-7.5" font-family="FreeSans" font-size="10.00">CLGlobalRenderInformation</text>
</a>
</g>
</g>
<!-- Node1&#45;&gt;Node7 -->
<g id="edge6" class="edge">
<title>Node1&#45;&gt;Node7</title>
<path fill="none" stroke="midnightblue" d="M123.92,-50.38C110.19,-40.62 92.57,-28.11 80.93,-19.83"/>
<polygon fill="midnightblue" stroke="midnightblue" points="122.11,-53.38 132.29,-56.32 126.16,-47.68 122.11,-53.38"/>
</g>
<!-- Node8 -->
<g id="node8" class="node">
<title>Node8</title>
<g id="a_node8"><a xlink:href="../../d0/d13/classCLLocalRenderInformation.html" target="_top" xlink:title=" ">
<polygon fill="white" stroke="black" points="155,-0.5 155,-19.5 288,-19.5 288,-0.5 155,-0.5"/>
<text text-anchor="middle" x="221.5" y="-7.5" font-family="FreeSans" font-size="10.00">CLLocalRenderInformation</text>
</a>
</g>
</g>
<!-- Node1&#45;&gt;Node8 -->
<g id="edge7" class="edge">
<title>Node1&#45;&gt;Node8</title>
<path fill="none" stroke="midnightblue" d="M165.4,-50.34C179.41,-40.52 197.38,-27.91 209.16,-19.65"/>
<polygon fill="midnightblue" stroke="midnightblue" points="163.05,-47.72 156.87,-56.32 167.07,-53.45 163.05,-47.72"/>
</g>
<!-- Node2 -->
<g id="node2" class="node">
<title>Node2</title>
<g id="a_node2"><a xlink:href="../../d7/df9/classCLBase.html" target="_top" xlink:title=" ">
<polygon fill="white" stroke="black" points="75.5,-112.5 75.5,-131.5 127.5,-131.5 127.5,-112.5 75.5,-112.5"/>
<text text-anchor="middle" x="101.5" y="-119.5" font-family="FreeSans" font-size="10.00">CLBase</text>
</a>
</g>
</g>
<!-- Node2&#45;&gt;Node1 -->
<g id="edge1" class="edge">
<title>Node2&#45;&gt;Node1</title>
<path fill="none" stroke="midnightblue" d="M114.92,-104.14C122.41,-94.74 131.44,-83.4 137.53,-75.75"/>
<polygon fill="midnightblue" stroke="midnightblue" points="112.09,-102.08 108.6,-112.08 117.57,-106.44 112.09,-102.08"/>
</g>
<!-- Node3 -->
<g id="node3" class="node">
<title>Node3</title>
<g id="a_node3"><a xlink:href="../../d3/db9/classCDataContainer.html" target="_top" xlink:title=" ">
<polygon fill="white" stroke="black" points="146,-112.5 146,-131.5 231,-131.5 231,-112.5 146,-112.5"/>
<text text-anchor="middle" x="188.5" y="-119.5" font-family="FreeSans" font-size="10.00">CDataContainer</text>
</a>
</g>
</g>
<!-- Node3&#45;&gt;Node1 -->
<g id="edge2" class="edge">
<title>Node3&#45;&gt;Node1</title>
<path fill="none" stroke="midnightblue" d="M174.77,-104.14C167.1,-94.74 157.87,-83.4 151.63,-75.75"/>
<polygon fill="midnightblue" stroke="midnightblue" points="172.2,-106.54 181.23,-112.08 177.63,-102.12 172.2,-106.54"/>
</g>
<!-- Node4 -->
<g id="node4" class="node">
<title>Node4</title>
<g id="a_node4"><a xlink:href="../../d1/d6b/classCDataObject.html" target="_top" xlink:title=" ">
<polygon fill="white" stroke="black" points="152.5,-168.5 152.5,-187.5 224.5,-187.5 224.5,-168.5 152.5,-168.5"/>
<text text-anchor="middle" x="188.5" y="-175.5" font-family="FreeSans" font-size="10.00">CDataObject</text>
</a>
</g>
</g>
<!-- Node4&#45;&gt;Node3 -->
<g id="edge3" class="edge">
<title>Node4&#45;&gt;Node3</title>
<path fill="none" stroke="midnightblue" d="M188.5,-157.8C188.5,-148.91 188.5,-138.78 188.5,-131.75"/>
<polygon fill="midnightblue" stroke="midnightblue" points="185,-158.08 188.5,-168.08 192,-158.08 185,-158.08"/>
</g>
<!-- Node5 -->
<g id="node5" class="node">
<title>Node5</title>
<g id="a_node5"><a xlink:href="../../df/dfa/classCObjectInterface.html" target="_top" xlink:title=" ">
<polygon fill="white" stroke="black" points="83.5,-224.5 83.5,-243.5 173.5,-243.5 173.5,-224.5 83.5,-224.5"/>
<text text-anchor="middle" x="128.5" y="-231.5" font-family="FreeSans" font-size="10.00">CObjectInterface</text>
</a>
</g>
</g>
<!-- Node5&#45;&gt;Node4 -->
<g id="edge4" class="edge">
<title>Node5&#45;&gt;Node4</title>
<path fill="none" stroke="midnightblue" d="M145.68,-217.54C156.38,-207.91 169.76,-195.87 178.68,-187.83"/>
<polygon fill="midnightblue" stroke="midnightblue" points="143.23,-215.03 138.14,-224.32 147.91,-220.24 143.23,-215.03"/>
</g>
<!-- Node6 -->
<g id="node6" class="node">
<title>Node6</title>
<g id="a_node6"><a xlink:href="../../d8/d53/classCUndoObjectInterface.html" target="_top" xlink:title=" ">
<polygon fill="white" stroke="black" points="192,-224.5 192,-243.5 305,-243.5 305,-224.5 192,-224.5"/>
<text text-anchor="middle" x="248.5" y="-231.5" font-family="FreeSans" font-size="10.00">CUndoObjectInterface</text>
</a>
</g>
</g>
<!-- Node6&#45;&gt;Node4 -->
<g id="edge5" class="edge">
<title>Node6&#45;&gt;Node4</title>
<path fill="none" stroke="midnightblue" d="M231.32,-217.54C220.62,-207.91 207.24,-195.87 198.32,-187.83"/>
<polygon fill="midnightblue" stroke="midnightblue" points="229.09,-220.24 238.86,-224.32 233.77,-215.03 229.09,-220.24"/>
</g>
</g>
</svg>
