<?xml version="1.0" encoding="UTF-8" standalone="no"?>
<!DOCTYPE svg PUBLIC "-//W3C//DTD SVG 1.1//EN"
 "http://www.w3.org/Graphics/SVG/1.1/DTD/svg11.dtd">
<!-- Generated by graphviz version 2.43.0 (0)
 -->
<!-- Title: CModelParameter Pages: 1 -->
<svg width="612pt" height="142pt"
 viewBox="0.00 0.00 612.00 142.00" xmlns="http://www.w3.org/2000/svg" xmlns:xlink="http://www.w3.org/1999/xlink">
<g id="graph0" class="graph" transform="scale(1 1) rotate(0) translate(4 138)">
<title>CModelParameter</title>
<polygon fill="white" stroke="transparent" points="-4,4 -4,-138 608,-138 608,4 -4,4"/>
<!-- Node1 -->
<g id="node1" class="node">
<title>Node1</title>
<g id="a_node1"><a xlink:title=" ">
<polygon fill="#bfbfbf" stroke="black" points="149,-57.5 149,-76.5 244,-76.5 244,-57.5 149,-57.5"/>
<text text-anchor="middle" x="196.5" y="-64.5" font-family="FreeSans" font-size="10.00">CModelParameter</text>
</a>
</g>
</g>
<!-- Node3 -->
<g id="node3" class="node">
<title>Node3</title>
<g id="a_node3"><a xlink:href="../../d6/de2/classCModelParameterCompartment.html" target="_top" xlink:title=" ">
<polygon fill="white" stroke="black" points="292.5,-114.5 292.5,-133.5 445.5,-133.5 445.5,-114.5 292.5,-114.5"/>
<text text-anchor="middle" x="369" y="-121.5" font-family="FreeSans" font-size="10.00">CModelParameterCompartment</text>
</a>
</g>
</g>
<!-- Node1&#45;&gt;Node3 -->
<g id="edge2" class="edge">
<title>Node1&#45;&gt;Node3</title>
<path fill="none" stroke="midnightblue" d="M224.56,-81.29C240.38,-89.18 260.92,-98.63 280,-105 290.97,-108.66 302.95,-111.79 314.44,-114.4"/>
<polygon fill="midnightblue" stroke="midnightblue" points="225.88,-78.04 215.38,-76.63 222.71,-84.28 225.88,-78.04"/>
</g>
<!-- Node4 -->
<g id="node4" class="node">
<title>Node4</title>
<g id="a_node4"><a xlink:href="../../df/dd2/classCModelParameterGroup.html" target="_top" xlink:title=" ">
<polygon fill="white" stroke="black" points="308.5,-76.5 308.5,-95.5 429.5,-95.5 429.5,-76.5 308.5,-76.5"/>
<text text-anchor="middle" x="369" y="-83.5" font-family="FreeSans" font-size="10.00">CModelParameterGroup</text>
</a>
</g>
</g>
<!-- Node1&#45;&gt;Node4 -->
<g id="edge3" class="edge">
<title>Node1&#45;&gt;Node4</title>
<path fill="none" stroke="midnightblue" d="M254.1,-73.31C271.51,-75.25 290.72,-77.39 308.32,-79.35"/>
<polygon fill="midnightblue" stroke="midnightblue" points="254.42,-69.82 244.09,-72.19 253.64,-76.78 254.42,-69.82"/>
</g>
<!-- Node6 -->
<g id="node6" class="node">
<title>Node6</title>
<g id="a_node6"><a xlink:href="../../db/db5/classCModelParameterReactionParameter.html" target="_top" xlink:title=" ">
<polygon fill="white" stroke="black" points="280,-38.5 280,-57.5 458,-57.5 458,-38.5 280,-38.5"/>
<text text-anchor="middle" x="369" y="-45.5" font-family="FreeSans" font-size="10.00">CModelParameterReactionParameter</text>
</a>
</g>
</g>
<!-- Node1&#45;&gt;Node6 -->
<g id="edge5" class="edge">
<title>Node1&#45;&gt;Node6</title>
<path fill="none" stroke="midnightblue" d="M254.14,-60.69C263.25,-59.67 272.85,-58.6 282.45,-57.53"/>
<polygon fill="midnightblue" stroke="midnightblue" points="253.64,-57.22 244.09,-61.81 254.42,-64.18 253.64,-57.22"/>
</g>
<!-- Node7 -->
<g id="node7" class="node">
<title>Node7</title>
<g id="a_node7"><a xlink:href="../../d2/d7a/classCModelParameterSpecies.html" target="_top" xlink:title=" ">
<polygon fill="white" stroke="black" points="304,-0.5 304,-19.5 434,-19.5 434,-0.5 304,-0.5"/>
<text text-anchor="middle" x="369" y="-7.5" font-family="FreeSans" font-size="10.00">CModelParameterSpecies</text>
</a>
</g>
</g>
<!-- Node1&#45;&gt;Node7 -->
<g id="edge6" class="edge">
<title>Node1&#45;&gt;Node7</title>
<path fill="none" stroke="midnightblue" d="M224.56,-52.71C240.38,-44.82 260.92,-35.37 280,-29 290.97,-25.34 302.95,-22.21 314.44,-19.6"/>
<polygon fill="midnightblue" stroke="midnightblue" points="222.71,-49.72 215.38,-57.37 225.88,-55.96 222.71,-49.72"/>
</g>
<!-- Node2 -->
<g id="node2" class="node">
<title>Node2</title>
<g id="a_node2"><a xlink:href="../../d8/d53/classCUndoObjectInterface.html" target="_top" xlink:title=" ">
<polygon fill="white" stroke="black" points="0,-57.5 0,-76.5 113,-76.5 113,-57.5 0,-57.5"/>
<text text-anchor="middle" x="56.5" y="-64.5" font-family="FreeSans" font-size="10.00">CUndoObjectInterface</text>
</a>
</g>
</g>
<!-- Node2&#45;&gt;Node1 -->
<g id="edge1" class="edge">
<title>Node2&#45;&gt;Node1</title>
<path fill="none" stroke="midnightblue" d="M123.3,-67C131.93,-67 140.63,-67 148.85,-67"/>
<polygon fill="midnightblue" stroke="midnightblue" points="123.23,-63.5 113.23,-67 123.23,-70.5 123.23,-63.5"/>
</g>
<!-- Node5 -->
<g id="node5" class="node">
<title>Node5</title>
<g id="a_node5"><a xlink:href="../../d6/de0/classCModelParameterSet.html" target="_top" xlink:title=" ">
<polygon fill="white" stroke="black" points="494,-76.5 494,-95.5 604,-95.5 604,-76.5 494,-76.5"/>
<text text-anchor="middle" x="549" y="-83.5" font-family="FreeSans" font-size="10.00">CModelParameterSet</text>
</a>
</g>
</g>
<!-- Node4&#45;&gt;Node5 -->
<g id="edge4" class="edge">
<title>Node4&#45;&gt;Node5</title>
<path fill="none" stroke="midnightblue" d="M439.88,-86C457.79,-86 476.79,-86 493.78,-86"/>
<polygon fill="midnightblue" stroke="midnightblue" points="439.77,-82.5 429.77,-86 439.77,-89.5 439.77,-82.5"/>
</g>
</g>
</svg>
