<?xml version="1.0" encoding="UTF-8" standalone="no"?>
<!DOCTYPE svg PUBLIC "-//W3C//DTD SVG 1.1//EN"
 "http://www.w3.org/Graphics/SVG/1.1/DTD/svg11.dtd">
<!-- Generated by graphviz version 2.43.0 (0)
 -->
<!-- Title: CEFMMethod Pages: 1 -->
<svg width="347pt" height="476pt"
 viewBox="0.00 0.00 347.00 476.00" xmlns="http://www.w3.org/2000/svg" xmlns:xlink="http://www.w3.org/1999/xlink">
<g id="graph0" class="graph" transform="scale(1 1) rotate(0) translate(4 472)">
<title>CEFMMethod</title>
<polygon fill="white" stroke="transparent" points="-4,4 -4,-472 343,-472 343,4 -4,4"/>
<!-- Node1 -->
<g id="node1" class="node">
<title>Node1</title>
<g id="a_node1"><a xlink:title=" ">
<polygon fill="#bfbfbf" stroke="black" points="138.5,-112.5 138.5,-131.5 214.5,-131.5 214.5,-112.5 138.5,-112.5"/>
<text text-anchor="middle" x="176.5" y="-119.5" font-family="FreeSans" font-size="10.00">CEFMMethod</text>
</a>
</g>
</g>
<!-- Node9 -->
<g id="node9" class="node">
<title>Node9</title>
<g id="a_node9"><a xlink:href="../../de/d1c/classCBitPatternMethod.html" target="_top" xlink:title=" ">
<polygon fill="white" stroke="black" points="0,-56.5 0,-75.5 99,-75.5 99,-56.5 0,-56.5"/>
<text text-anchor="middle" x="49.5" y="-63.5" font-family="FreeSans" font-size="10.00">CBitPatternMethod</text>
</a>
</g>
</g>
<!-- Node1&#45;&gt;Node9 -->
<g id="edge8" class="edge">
<title>Node1&#45;&gt;Node9</title>
<path fill="none" stroke="midnightblue" d="M147.11,-108.5C123.3,-98.38 90.39,-84.39 69.53,-75.52"/>
<polygon fill="midnightblue" stroke="midnightblue" points="145.8,-111.75 156.38,-112.44 148.54,-105.31 145.8,-111.75"/>
</g>
<!-- Node10 -->
<g id="node10" class="node">
<title>Node10</title>
<g id="a_node10"><a xlink:href="../../db/de0/classCBitPatternTreeMethod.html" target="_top" xlink:title=" ">
<polygon fill="white" stroke="black" points="117,-56.5 117,-75.5 236,-75.5 236,-56.5 117,-56.5"/>
<text text-anchor="middle" x="176.5" y="-63.5" font-family="FreeSans" font-size="10.00">CBitPatternTreeMethod</text>
</a>
</g>
</g>
<!-- Node1&#45;&gt;Node10 -->
<g id="edge9" class="edge">
<title>Node1&#45;&gt;Node10</title>
<path fill="none" stroke="midnightblue" d="M176.5,-101.8C176.5,-92.91 176.5,-82.78 176.5,-75.75"/>
<polygon fill="midnightblue" stroke="midnightblue" points="173,-102.08 176.5,-112.08 180,-102.08 173,-102.08"/>
</g>
<!-- Node11 -->
<g id="node11" class="node">
<title>Node11</title>
<g id="a_node11"><a xlink:href="../../db/d50/classCEFMAlgorithm.html" target="_top" xlink:title=" ">
<polygon fill="white" stroke="black" points="254,-56.5 254,-75.5 339,-75.5 339,-56.5 254,-56.5"/>
<text text-anchor="middle" x="296.5" y="-63.5" font-family="FreeSans" font-size="10.00">CEFMAlgorithm</text>
</a>
</g>
</g>
<!-- Node1&#45;&gt;Node11 -->
<g id="edge10" class="edge">
<title>Node1&#45;&gt;Node11</title>
<path fill="none" stroke="midnightblue" d="M204.87,-108.23C227.32,-98.13 258.04,-84.31 277.57,-75.52"/>
<polygon fill="midnightblue" stroke="midnightblue" points="203.2,-105.15 195.51,-112.44 206.07,-111.53 203.2,-105.15"/>
</g>
<!-- Node2 -->
<g id="node2" class="node">
<title>Node2</title>
<g id="a_node2"><a xlink:href="../../df/d49/classCCopasiMethod.html" target="_top" xlink:title=" ">
<polygon fill="white" stroke="black" points="133.5,-168.5 133.5,-187.5 219.5,-187.5 219.5,-168.5 133.5,-168.5"/>
<text text-anchor="middle" x="176.5" y="-175.5" font-family="FreeSans" font-size="10.00">CCopasiMethod</text>
</a>
</g>
</g>
<!-- Node2&#45;&gt;Node1 -->
<g id="edge1" class="edge">
<title>Node2&#45;&gt;Node1</title>
<path fill="none" stroke="midnightblue" d="M176.5,-157.8C176.5,-148.91 176.5,-138.78 176.5,-131.75"/>
<polygon fill="midnightblue" stroke="midnightblue" points="173,-158.08 176.5,-168.08 180,-158.08 173,-158.08"/>
</g>
<!-- Node3 -->
<g id="node3" class="node">
<title>Node3</title>
<g id="a_node3"><a xlink:href="../../df/d89/classCCopasiParameterGroup.html" target="_top" xlink:title=" ">
<polygon fill="white" stroke="black" points="114,-224.5 114,-243.5 239,-243.5 239,-224.5 114,-224.5"/>
<text text-anchor="middle" x="176.5" y="-231.5" font-family="FreeSans" font-size="10.00">CCopasiParameterGroup</text>
</a>
</g>
</g>
<!-- Node3&#45;&gt;Node2 -->
<g id="edge2" class="edge">
<title>Node3&#45;&gt;Node2</title>
<path fill="none" stroke="midnightblue" d="M176.5,-213.8C176.5,-204.91 176.5,-194.78 176.5,-187.75"/>
<polygon fill="midnightblue" stroke="midnightblue" points="173,-214.08 176.5,-224.08 180,-214.08 173,-214.08"/>
</g>
<!-- Node4 -->
<g id="node4" class="node">
<title>Node4</title>
<g id="a_node4"><a xlink:href="../../d5/db6/classCCopasiParameter.html" target="_top" xlink:title=" ">
<polygon fill="white" stroke="black" points="127.5,-280.5 127.5,-299.5 225.5,-299.5 225.5,-280.5 127.5,-280.5"/>
<text text-anchor="middle" x="176.5" y="-287.5" font-family="FreeSans" font-size="10.00">CCopasiParameter</text>
</a>
</g>
</g>
<!-- Node4&#45;&gt;Node3 -->
<g id="edge3" class="edge">
<title>Node4&#45;&gt;Node3</title>
<path fill="none" stroke="midnightblue" d="M176.5,-269.8C176.5,-260.91 176.5,-250.78 176.5,-243.75"/>
<polygon fill="midnightblue" stroke="midnightblue" points="173,-270.08 176.5,-280.08 180,-270.08 173,-270.08"/>
</g>
<!-- Node5 -->
<g id="node5" class="node">
<title>Node5</title>
<g id="a_node5"><a xlink:href="../../d3/db9/classCDataContainer.html" target="_top" xlink:title=" ">
<polygon fill="white" stroke="black" points="134,-336.5 134,-355.5 219,-355.5 219,-336.5 134,-336.5"/>
<text text-anchor="middle" x="176.5" y="-343.5" font-family="FreeSans" font-size="10.00">CDataContainer</text>
</a>
</g>
</g>
<!-- Node5&#45;&gt;Node4 -->
<g id="edge4" class="edge">
<title>Node5&#45;&gt;Node4</title>
<path fill="none" stroke="midnightblue" d="M176.5,-325.8C176.5,-316.91 176.5,-306.78 176.5,-299.75"/>
<polygon fill="midnightblue" stroke="midnightblue" points="173,-326.08 176.5,-336.08 180,-326.08 173,-326.08"/>
</g>
<!-- Node6 -->
<g id="node6" class="node">
<title>Node6</title>
<g id="a_node6"><a xlink:href="../../d1/d6b/classCDataObject.html" target="_top" xlink:title=" ">
<polygon fill="white" stroke="black" points="140.5,-392.5 140.5,-411.5 212.5,-411.5 212.5,-392.5 140.5,-392.5"/>
<text text-anchor="middle" x="176.5" y="-399.5" font-family="FreeSans" font-size="10.00">CDataObject</text>
</a>
</g>
</g>
<!-- Node6&#45;&gt;Node5 -->
<g id="edge5" class="edge">
<title>Node6&#45;&gt;Node5</title>
<path fill="none" stroke="midnightblue" d="M176.5,-381.8C176.5,-372.91 176.5,-362.78 176.5,-355.75"/>
<polygon fill="midnightblue" stroke="midnightblue" points="173,-382.08 176.5,-392.08 180,-382.08 173,-382.08"/>
</g>
<!-- Node7 -->
<g id="node7" class="node">
<title>Node7</title>
<g id="a_node7"><a xlink:href="../../df/dfa/classCObjectInterface.html" target="_top" xlink:title=" ">
<polygon fill="white" stroke="black" points="71.5,-448.5 71.5,-467.5 161.5,-467.5 161.5,-448.5 71.5,-448.5"/>
<text text-anchor="middle" x="116.5" y="-455.5" font-family="FreeSans" font-size="10.00">CObjectInterface</text>
</a>
</g>
</g>
<!-- Node7&#45;&gt;Node6 -->
<g id="edge6" class="edge">
<title>Node7&#45;&gt;Node6</title>
<path fill="none" stroke="midnightblue" d="M133.68,-441.54C144.38,-431.91 157.76,-419.87 166.68,-411.83"/>
<polygon fill="midnightblue" stroke="midnightblue" points="131.23,-439.03 126.14,-448.32 135.91,-444.24 131.23,-439.03"/>
</g>
<!-- Node8 -->
<g id="node8" class="node">
<title>Node8</title>
<g id="a_node8"><a xlink:href="../../d8/d53/classCUndoObjectInterface.html" target="_top" xlink:title=" ">
<polygon fill="white" stroke="black" points="180,-448.5 180,-467.5 293,-467.5 293,-448.5 180,-448.5"/>
<text text-anchor="middle" x="236.5" y="-455.5" font-family="FreeSans" font-size="10.00">CUndoObjectInterface</text>
</a>
</g>
</g>
<!-- Node8&#45;&gt;Node6 -->
<g id="edge7" class="edge">
<title>Node8&#45;&gt;Node6</title>
<path fill="none" stroke="midnightblue" d="M219.32,-441.54C208.62,-431.91 195.24,-419.87 186.32,-411.83"/>
<polygon fill="midnightblue" stroke="midnightblue" points="217.09,-444.24 226.86,-448.32 221.77,-439.03 217.09,-444.24"/>
</g>
<!-- Node12 -->
<g id="node12" class="node">
<title>Node12</title>
<g id="a_node12"><a xlink:href="../../d7/dd8/classCSSAMethod.html" target="_top" xlink:title=" ">
<polygon fill="white" stroke="black" points="258.5,-0.5 258.5,-19.5 334.5,-19.5 334.5,-0.5 258.5,-0.5"/>
<text text-anchor="middle" x="296.5" y="-7.5" font-family="FreeSans" font-size="10.00">CSSAMethod</text>
</a>
</g>
</g>
<!-- Node11&#45;&gt;Node12 -->
<g id="edge11" class="edge">
<title>Node11&#45;&gt;Node12</title>
<path fill="none" stroke="midnightblue" d="M296.5,-45.8C296.5,-36.91 296.5,-26.78 296.5,-19.75"/>
<polygon fill="midnightblue" stroke="midnightblue" points="293,-46.08 296.5,-56.08 300,-46.08 293,-46.08"/>
</g>
</g>
</svg>
