<?xml version="1.0" encoding="UTF-8" standalone="no"?>
<!DOCTYPE svg PUBLIC "-//W3C//DTD SVG 1.1//EN"
 "http://www.w3.org/Graphics/SVG/1.1/DTD/svg11.dtd">
<!-- Generated by graphviz version 2.43.0 (0)
 -->
<!-- Title: CKeyFactory::CDecisionVector Pages: 1 -->
<svg width="230pt" height="219pt"
 viewBox="0.00 0.00 229.50 219.00" xmlns="http://www.w3.org/2000/svg" xmlns:xlink="http://www.w3.org/1999/xlink">
<g id="graph0" class="graph" transform="scale(1 1) rotate(0) translate(4 215)">
<title>CKeyFactory::CDecisionVector</title>
<polygon fill="white" stroke="transparent" points="-4,4 -4,-215 225.5,-215 225.5,4 -4,4"/>
<!-- Node1 -->
<g id="node1" class="node">
<title>Node1</title>
<g id="a_node1"><a xlink:title=" ">
<polygon fill="#bfbfbf" stroke="black" points="38,-0.5 38,-19.5 187,-19.5 187,-0.5 38,-0.5"/>
<text text-anchor="middle" x="112.5" y="-7.5" font-family="FreeSans" font-size="10.00">CKeyFactory::CDecisionVector</text>
</a>
</g>
</g>
<!-- Node2 -->
<g id="node2" class="node">
<title>Node2</title>
<g id="a_node2"><a xlink:href="../../dd/de4/classCVector.html" target="_top" xlink:title=" ">
<polygon fill="white" stroke="black" points="69.5,-57.5 69.5,-76.5 155.5,-76.5 155.5,-57.5 69.5,-57.5"/>
<text text-anchor="middle" x="112.5" y="-64.5" font-family="FreeSans" font-size="10.00">CVector&lt; bool &gt;</text>
</a>
</g>
</g>
<!-- Node2&#45;&gt;Node1 -->
<g id="edge1" class="edge">
<title>Node2&#45;&gt;Node1</title>
<path fill="none" stroke="#8b1a1a" d="M112.5,-47.12C112.5,-37.82 112.5,-27.06 112.5,-19.71"/>
<polygon fill="#8b1a1a" stroke="#8b1a1a" points="109,-47.41 112.5,-57.41 116,-47.41 109,-47.41"/>
</g>
<!-- Node3 -->
<g id="node3" class="node">
<title>Node3</title>
<g id="a_node3"><a xlink:href="../../d5/d46/classCVectorCore.html" target="_top" xlink:title=" ">
<polygon fill="white" stroke="black" points="0,-124.5 0,-143.5 107,-143.5 107,-124.5 0,-124.5"/>
<text text-anchor="middle" x="53.5" y="-131.5" font-family="FreeSans" font-size="10.00">CVectorCore&lt; bool &gt;</text>
</a>
</g>
</g>
<!-- Node3&#45;&gt;Node2 -->
<g id="edge2" class="edge">
<title>Node3&#45;&gt;Node2</title>
<path fill="none" stroke="midnightblue" d="M68.35,-116.63C79.89,-103.92 95.44,-86.8 104.67,-76.63"/>
<polygon fill="midnightblue" stroke="midnightblue" points="65.59,-114.48 61.46,-124.23 70.77,-119.18 65.59,-114.48"/>
</g>
<!-- Node4 -->
<g id="node4" class="node">
<title>Node4</title>
<g id="a_node4"><a xlink:href="../../d5/d46/classCVectorCore.html" target="_top" xlink:title=" ">
<polygon fill="white" stroke="black" points="55.5,-191.5 55.5,-210.5 171.5,-210.5 171.5,-191.5 55.5,-191.5"/>
<text text-anchor="middle" x="113.5" y="-198.5" font-family="FreeSans" font-size="10.00">CVectorCore&lt; CType &gt;</text>
</a>
</g>
</g>
<!-- Node4&#45;&gt;Node3 -->
<g id="edge3" class="edge">
<title>Node4&#45;&gt;Node3</title>
<path fill="none" stroke="orange" stroke-dasharray="5,2" d="M98.39,-183.63C86.66,-170.92 70.85,-153.8 61.46,-143.63"/>
<polygon fill="orange" stroke="orange" points="96.05,-186.26 105.41,-191.23 101.2,-181.51 96.05,-186.26"/>
<text text-anchor="middle" x="106" y="-165" font-family="FreeSans" font-size="10.00"> &lt; bool &gt;</text>
</g>
<!-- Node5 -->
<g id="node5" class="node">
<title>Node5</title>
<g id="a_node5"><a xlink:href="../../dd/de4/classCVector.html" target="_top" xlink:title=" ">
<polygon fill="white" stroke="black" points="125.5,-124.5 125.5,-143.5 221.5,-143.5 221.5,-124.5 125.5,-124.5"/>
<text text-anchor="middle" x="173.5" y="-131.5" font-family="FreeSans" font-size="10.00">CVector&lt; CType &gt;</text>
</a>
</g>
</g>
<!-- Node4&#45;&gt;Node5 -->
<g id="edge5" class="edge">
<title>Node4&#45;&gt;Node5</title>
<path fill="none" stroke="midnightblue" d="M128.61,-183.63C140.34,-170.92 156.15,-153.8 165.54,-143.63"/>
<polygon fill="midnightblue" stroke="midnightblue" points="125.8,-181.51 121.59,-191.23 130.95,-186.26 125.8,-181.51"/>
</g>
<!-- Node5&#45;&gt;Node2 -->
<g id="edge4" class="edge">
<title>Node5&#45;&gt;Node2</title>
<path fill="none" stroke="orange" stroke-dasharray="5,2" d="M158.14,-116.63C146.21,-103.92 130.14,-86.8 120.6,-76.63"/>
<polygon fill="orange" stroke="orange" points="155.88,-119.34 165.27,-124.23 160.98,-114.55 155.88,-119.34"/>
<text text-anchor="middle" x="165" y="-98" font-family="FreeSans" font-size="10.00"> &lt; bool &gt;</text>
</g>
</g>
</svg>
