<?xml version="1.0" encoding="UTF-8" standalone="no"?>
<!DOCTYPE svg PUBLIC "-//W3C//DTD SVG 1.1//EN"
 "http://www.w3.org/Graphics/SVG/1.1/DTD/svg11.dtd">
<!-- Generated by graphviz version 2.43.0 (0)
 -->
<!-- Title: CMetab Pages: 1 -->
<svg width="244pt" height="252pt"
 viewBox="0.00 0.00 244.00 252.00" xmlns="http://www.w3.org/2000/svg" xmlns:xlink="http://www.w3.org/1999/xlink">
<g id="graph0" class="graph" transform="scale(1 1) rotate(0) translate(4 248)">
<title>CMetab</title>
<polygon fill="white" stroke="transparent" points="-4,4 -4,-248 240,-248 240,4 -4,4"/>
<!-- Node1 -->
<g id="node1" class="node">
<title>Node1</title>
<g id="a_node1"><a xlink:title=" ">
<polygon fill="#bfbfbf" stroke="black" points="128,-0.5 128,-19.5 178,-19.5 178,-0.5 128,-0.5"/>
<text text-anchor="middle" x="153" y="-7.5" font-family="FreeSans" font-size="10.00">CMetab</text>
</a>
</g>
</g>
<!-- Node2 -->
<g id="node2" class="node">
<title>Node2</title>
<g id="a_node2"><a xlink:href="../../d0/da0/classCModelEntity.html" target="_top" xlink:title=" ">
<polygon fill="white" stroke="black" points="116,-56.5 116,-75.5 190,-75.5 190,-56.5 116,-56.5"/>
<text text-anchor="middle" x="153" y="-63.5" font-family="FreeSans" font-size="10.00">CModelEntity</text>
</a>
</g>
</g>
<!-- Node2&#45;&gt;Node1 -->
<g id="edge1" class="edge">
<title>Node2&#45;&gt;Node1</title>
<path fill="none" stroke="midnightblue" d="M153,-45.8C153,-36.91 153,-26.78 153,-19.75"/>
<polygon fill="midnightblue" stroke="midnightblue" points="149.5,-46.08 153,-56.08 156.5,-46.08 149.5,-46.08"/>
</g>
<!-- Node3 -->
<g id="node3" class="node">
<title>Node3</title>
<g id="a_node3"><a xlink:href="../../d3/db9/classCDataContainer.html" target="_top" xlink:title=" ">
<polygon fill="white" stroke="black" points="62.5,-112.5 62.5,-131.5 147.5,-131.5 147.5,-112.5 62.5,-112.5"/>
<text text-anchor="middle" x="105" y="-119.5" font-family="FreeSans" font-size="10.00">CDataContainer</text>
</a>
</g>
</g>
<!-- Node3&#45;&gt;Node2 -->
<g id="edge2" class="edge">
<title>Node3&#45;&gt;Node2</title>
<path fill="none" stroke="midnightblue" d="M119.73,-104.43C128.14,-94.97 138.35,-83.48 145.22,-75.75"/>
<polygon fill="midnightblue" stroke="midnightblue" points="116.95,-102.28 112.93,-112.08 122.19,-106.93 116.95,-102.28"/>
</g>
<!-- Node4 -->
<g id="node4" class="node">
<title>Node4</title>
<g id="a_node4"><a xlink:href="../../d1/d6b/classCDataObject.html" target="_top" xlink:title=" ">
<polygon fill="white" stroke="black" points="69,-168.5 69,-187.5 141,-187.5 141,-168.5 69,-168.5"/>
<text text-anchor="middle" x="105" y="-175.5" font-family="FreeSans" font-size="10.00">CDataObject</text>
</a>
</g>
</g>
<!-- Node4&#45;&gt;Node3 -->
<g id="edge3" class="edge">
<title>Node4&#45;&gt;Node3</title>
<path fill="none" stroke="midnightblue" d="M105,-157.8C105,-148.91 105,-138.78 105,-131.75"/>
<polygon fill="midnightblue" stroke="midnightblue" points="101.5,-158.08 105,-168.08 108.5,-158.08 101.5,-158.08"/>
</g>
<!-- Node5 -->
<g id="node5" class="node">
<title>Node5</title>
<g id="a_node5"><a xlink:href="../../df/dfa/classCObjectInterface.html" target="_top" xlink:title=" ">
<polygon fill="white" stroke="black" points="0,-224.5 0,-243.5 90,-243.5 90,-224.5 0,-224.5"/>
<text text-anchor="middle" x="45" y="-231.5" font-family="FreeSans" font-size="10.00">CObjectInterface</text>
</a>
</g>
</g>
<!-- Node5&#45;&gt;Node4 -->
<g id="edge4" class="edge">
<title>Node5&#45;&gt;Node4</title>
<path fill="none" stroke="midnightblue" d="M62.18,-217.54C72.88,-207.91 86.26,-195.87 95.18,-187.83"/>
<polygon fill="midnightblue" stroke="midnightblue" points="59.73,-215.03 54.64,-224.32 64.41,-220.24 59.73,-215.03"/>
</g>
<!-- Node6 -->
<g id="node6" class="node">
<title>Node6</title>
<g id="a_node6"><a xlink:href="../../d8/d53/classCUndoObjectInterface.html" target="_top" xlink:title=" ">
<polygon fill="white" stroke="black" points="108.5,-224.5 108.5,-243.5 221.5,-243.5 221.5,-224.5 108.5,-224.5"/>
<text text-anchor="middle" x="165" y="-231.5" font-family="FreeSans" font-size="10.00">CUndoObjectInterface</text>
</a>
</g>
</g>
<!-- Node6&#45;&gt;Node4 -->
<g id="edge5" class="edge">
<title>Node6&#45;&gt;Node4</title>
<path fill="none" stroke="midnightblue" d="M147.82,-217.54C137.12,-207.91 123.74,-195.87 114.82,-187.83"/>
<polygon fill="midnightblue" stroke="midnightblue" points="145.59,-220.24 155.36,-224.32 150.27,-215.03 145.59,-220.24"/>
</g>
<!-- Node7 -->
<g id="node7" class="node">
<title>Node7</title>
<g id="a_node7"><a xlink:href="../../d8/dfc/classCAnnotation.html" target="_top" xlink:title=" ">
<polygon fill="white" stroke="black" points="166,-112.5 166,-131.5 236,-131.5 236,-112.5 166,-112.5"/>
<text text-anchor="middle" x="201" y="-119.5" font-family="FreeSans" font-size="10.00">CAnnotation</text>
</a>
</g>
</g>
<!-- Node7&#45;&gt;Node2 -->
<g id="edge6" class="edge">
<title>Node7&#45;&gt;Node2</title>
<path fill="none" stroke="midnightblue" d="M186.27,-104.43C177.86,-94.97 167.65,-83.48 160.78,-75.75"/>
<polygon fill="midnightblue" stroke="midnightblue" points="183.81,-106.93 193.07,-112.08 189.05,-102.28 183.81,-106.93"/>
</g>
</g>
</svg>
