<?xml version="1.0" encoding="UTF-8" standalone="no"?>
<!DOCTYPE svg PUBLIC "-//W3C//DTD SVG 1.1//EN"
 "http://www.w3.org/Graphics/SVG/1.1/DTD/svg11.dtd">
<!-- Generated by graphviz version 2.43.0 (0)
 -->
<!-- Title: COptMethod Pages: 1 -->
<svg width="1206pt" height="522pt"
 viewBox="0.00 0.00 1206.00 522.00" xmlns="http://www.w3.org/2000/svg" xmlns:xlink="http://www.w3.org/1999/xlink">
<g id="graph0" class="graph" transform="scale(1 1) rotate(0) translate(4 518)">
<title>COptMethod</title>
<polygon fill="white" stroke="transparent" points="-4,4 -4,-518 1202,-518 1202,4 -4,4"/>
<!-- Node1 -->
<g id="node1" class="node">
<title>Node1</title>
<g id="a_node1"><a xlink:title=" ">
<polygon fill="#bfbfbf" stroke="black" points="795,-285.5 795,-304.5 866,-304.5 866,-285.5 795,-285.5"/>
<text text-anchor="middle" x="830.5" y="-292.5" font-family="FreeSans" font-size="10.00">COptMethod</text>
</a>
</g>
</g>
<!-- Node9 -->
<g id="node9" class="node">
<title>Node9</title>
<g id="a_node9"><a xlink:href="../../d5/d1e/classCOptMethodCoranaWalk.html" target="_top" xlink:title=" ">
<polygon fill="white" stroke="black" points="920.5,-494.5 920.5,-513.5 1044.5,-513.5 1044.5,-494.5 920.5,-494.5"/>
<text text-anchor="middle" x="982.5" y="-501.5" font-family="FreeSans" font-size="10.00">COptMethodCoranaWalk</text>
</a>
</g>
</g>
<!-- Node1&#45;&gt;Node9 -->
<g id="edge8" class="edge">
<title>Node1&#45;&gt;Node9</title>
<path fill="none" stroke="midnightblue" d="M832.87,-314.61C836.66,-353.28 850.71,-439.55 902,-485 907.31,-489.71 913.58,-493.3 920.23,-496.03"/>
<polygon fill="midnightblue" stroke="midnightblue" points="836.35,-314.3 832.02,-304.63 829.38,-314.89 836.35,-314.3"/>
</g>
<!-- Node10 -->
<g id="node10" class="node">
<title>Node10</title>
<g id="a_node10"><a xlink:href="../../d1/d81/classCOptMethodHookeJeeves.html" target="_top" xlink:title=" ">
<polygon fill="white" stroke="black" points="917,-456.5 917,-475.5 1048,-475.5 1048,-456.5 917,-456.5"/>
<text text-anchor="middle" x="982.5" y="-463.5" font-family="FreeSans" font-size="10.00">COptMethodHookeJeeves</text>
</a>
</g>
</g>
<!-- Node1&#45;&gt;Node10 -->
<g id="edge9" class="edge">
<title>Node1&#45;&gt;Node10</title>
<path fill="none" stroke="midnightblue" d="M834.93,-314.69C841.69,-347.36 859.9,-412.57 902,-447 906.72,-450.86 912.1,-453.96 917.79,-456.45"/>
<polygon fill="midnightblue" stroke="midnightblue" points="838.32,-313.76 833,-304.6 831.44,-315.08 838.32,-313.76"/>
</g>
<!-- Node11 -->
<g id="node11" class="node">
<title>Node11</title>
<g id="a_node11"><a xlink:href="../../d3/dda/classCOptMethodLevenbergMarquardt.html" target="_top" xlink:title=" ">
<polygon fill="white" stroke="black" points="902,-418.5 902,-437.5 1063,-437.5 1063,-418.5 902,-418.5"/>
<text text-anchor="middle" x="982.5" y="-425.5" font-family="FreeSans" font-size="10.00">COptMethodLevenbergMarquardt</text>
</a>
</g>
</g>
<!-- Node1&#45;&gt;Node11 -->
<g id="edge10" class="edge">
<title>Node1&#45;&gt;Node11</title>
<path fill="none" stroke="midnightblue" d="M838.15,-314.47C847.96,-340.19 868.83,-385.03 902,-409 907.41,-412.91 913.51,-416.02 919.86,-418.5"/>
<polygon fill="midnightblue" stroke="midnightblue" points="841.32,-312.94 834.61,-304.73 834.74,-315.33 841.32,-312.94"/>
</g>
<!-- Node12 -->
<g id="node12" class="node">
<title>Node12</title>
<g id="a_node12"><a xlink:href="../../d1/d6a/classCOptMethodNL2SOL.html" target="_top" xlink:title=" ">
<polygon fill="white" stroke="black" points="927.5,-380.5 927.5,-399.5 1037.5,-399.5 1037.5,-380.5 927.5,-380.5"/>
<text text-anchor="middle" x="982.5" y="-387.5" font-family="FreeSans" font-size="10.00">COptMethodNL2SOL</text>
</a>
</g>
</g>
<!-- Node1&#45;&gt;Node12 -->
<g id="edge11" class="edge">
<title>Node1&#45;&gt;Node12</title>
<path fill="none" stroke="midnightblue" d="M843.3,-312.89C855.79,-330.39 877.12,-356.47 902,-371 909.72,-375.51 918.45,-378.95 927.24,-381.58"/>
<polygon fill="midnightblue" stroke="midnightblue" points="846.16,-310.87 837.6,-304.63 840.39,-314.84 846.16,-310.87"/>
</g>
<!-- Node13 -->
<g id="node13" class="node">
<title>Node13</title>
<g id="a_node13"><a xlink:href="../../d5/dbd/classCOptMethodNelderMead.html" target="_top" xlink:title=" ">
<polygon fill="white" stroke="black" points="920.5,-342.5 920.5,-361.5 1044.5,-361.5 1044.5,-342.5 920.5,-342.5"/>
<text text-anchor="middle" x="982.5" y="-349.5" font-family="FreeSans" font-size="10.00">COptMethodNelderMead</text>
</a>
</g>
</g>
<!-- Node1&#45;&gt;Node13 -->
<g id="edge12" class="edge">
<title>Node1&#45;&gt;Node13</title>
<path fill="none" stroke="midnightblue" d="M855.58,-310C868.87,-317.76 885.9,-326.86 902,-333 911.68,-336.69 922.3,-339.82 932.54,-342.41"/>
<polygon fill="midnightblue" stroke="midnightblue" points="857.01,-306.78 846.63,-304.66 853.42,-312.79 857.01,-306.78"/>
</g>
<!-- Node14 -->
<g id="node14" class="node">
<title>Node14</title>
<g id="a_node14"><a xlink:href="../../d6/dca/classCOptMethodPraxis.html" target="_top" xlink:title=" ">
<polygon fill="white" stroke="black" points="933.5,-304.5 933.5,-323.5 1031.5,-323.5 1031.5,-304.5 933.5,-304.5"/>
<text text-anchor="middle" x="982.5" y="-311.5" font-family="FreeSans" font-size="10.00">COptMethodPraxis</text>
</a>
</g>
</g>
<!-- Node1&#45;&gt;Node14 -->
<g id="edge13" class="edge">
<title>Node1&#45;&gt;Node14</title>
<path fill="none" stroke="midnightblue" d="M876.23,-300.67C894.2,-302.94 914.96,-305.57 933.27,-307.89"/>
<polygon fill="midnightblue" stroke="midnightblue" points="876.65,-297.19 866.29,-299.41 875.77,-304.14 876.65,-297.19"/>
</g>
<!-- Node15 -->
<g id="node15" class="node">
<title>Node15</title>
<g id="a_node15"><a xlink:href="../../dc/d57/classCOptMethodSA.html" target="_top" xlink:title=" ">
<polygon fill="white" stroke="black" points="940,-266.5 940,-285.5 1025,-285.5 1025,-266.5 940,-266.5"/>
<text text-anchor="middle" x="982.5" y="-273.5" font-family="FreeSans" font-size="10.00">COptMethodSA</text>
</a>
</g>
</g>
<!-- Node1&#45;&gt;Node15 -->
<g id="edge14" class="edge">
<title>Node1&#45;&gt;Node15</title>
<path fill="none" stroke="midnightblue" d="M876.47,-289.3C896.62,-286.75 920.24,-283.76 939.97,-281.26"/>
<polygon fill="midnightblue" stroke="midnightblue" points="875.77,-285.86 866.29,-290.59 876.65,-292.81 875.77,-285.86"/>
</g>
<!-- Node16 -->
<g id="node16" class="node">
<title>Node16</title>
<g id="a_node16"><a xlink:href="../../df/d56/classCOptMethodStatistics.html" target="_top" xlink:title=" ">
<polygon fill="white" stroke="black" points="926,-228.5 926,-247.5 1039,-247.5 1039,-228.5 926,-228.5"/>
<text text-anchor="middle" x="982.5" y="-235.5" font-family="FreeSans" font-size="10.00">COptMethodStatistics</text>
</a>
</g>
</g>
<!-- Node1&#45;&gt;Node16 -->
<g id="edge15" class="edge">
<title>Node1&#45;&gt;Node16</title>
<path fill="none" stroke="midnightblue" d="M855.58,-280C868.87,-272.24 885.9,-263.14 902,-257 911.68,-253.31 922.3,-250.18 932.54,-247.59"/>
<polygon fill="midnightblue" stroke="midnightblue" points="853.42,-277.21 846.63,-285.34 857.01,-283.22 853.42,-277.21"/>
</g>
<!-- Node17 -->
<g id="node17" class="node">
<title>Node17</title>
<g id="a_node17"><a xlink:href="../../d2/d28/classCOptMethodSteepestDescent.html" target="_top" xlink:title=" ">
<polygon fill="white" stroke="black" points="909.5,-190.5 909.5,-209.5 1055.5,-209.5 1055.5,-190.5 909.5,-190.5"/>
<text text-anchor="middle" x="982.5" y="-197.5" font-family="FreeSans" font-size="10.00">COptMethodSteepestDescent</text>
</a>
</g>
</g>
<!-- Node1&#45;&gt;Node17 -->
<g id="edge16" class="edge">
<title>Node1&#45;&gt;Node17</title>
<path fill="none" stroke="midnightblue" d="M843.3,-277.11C855.79,-259.61 877.12,-233.53 902,-219 908.62,-215.13 915.98,-212.05 923.48,-209.6"/>
<polygon fill="midnightblue" stroke="midnightblue" points="840.39,-275.16 837.6,-285.37 846.16,-279.13 840.39,-275.16"/>
</g>
<!-- Node18 -->
<g id="node18" class="node">
<title>Node18</title>
<g id="a_node18"><a xlink:href="../../d1/dfc/classCOptMethodTruncatedNewton.html" target="_top" xlink:title=" ">
<polygon fill="white" stroke="black" points="908,-152.5 908,-171.5 1057,-171.5 1057,-152.5 908,-152.5"/>
<text text-anchor="middle" x="982.5" y="-159.5" font-family="FreeSans" font-size="10.00">COptMethodTruncatedNewton</text>
</a>
</g>
</g>
<!-- Node1&#45;&gt;Node18 -->
<g id="edge17" class="edge">
<title>Node1&#45;&gt;Node18</title>
<path fill="none" stroke="midnightblue" d="M838.15,-275.53C847.96,-249.81 868.83,-204.97 902,-181 907.41,-177.09 913.51,-173.98 919.86,-171.5"/>
<polygon fill="midnightblue" stroke="midnightblue" points="834.74,-274.67 834.61,-285.27 841.32,-277.06 834.74,-274.67"/>
</g>
<!-- Node19 -->
<g id="node19" class="node">
<title>Node19</title>
<g id="a_node19"><a xlink:href="../../de/d9c/classCOptPopulationMethod.html" target="_top" xlink:title=" ">
<polygon fill="white" stroke="black" points="924,-114.5 924,-133.5 1041,-133.5 1041,-114.5 924,-114.5"/>
<text text-anchor="middle" x="982.5" y="-121.5" font-family="FreeSans" font-size="10.00">COptPopulationMethod</text>
</a>
</g>
</g>
<!-- Node1&#45;&gt;Node19 -->
<g id="edge18" class="edge">
<title>Node1&#45;&gt;Node19</title>
<path fill="none" stroke="midnightblue" d="M834.93,-275.31C841.69,-242.64 859.9,-177.43 902,-143 908.37,-137.79 915.94,-133.96 923.83,-131.16"/>
<polygon fill="midnightblue" stroke="midnightblue" points="831.44,-274.92 833,-285.4 838.32,-276.24 831.44,-274.92"/>
</g>
<!-- Node27 -->
<g id="node27" class="node">
<title>Node27</title>
<g id="a_node27"><a xlink:href="../../db/d28/classCRandomSearch.html" target="_top" xlink:title=" ">
<polygon fill="white" stroke="black" points="937.5,-76.5 937.5,-95.5 1027.5,-95.5 1027.5,-76.5 937.5,-76.5"/>
<text text-anchor="middle" x="982.5" y="-83.5" font-family="FreeSans" font-size="10.00">CRandomSearch</text>
</a>
</g>
</g>
<!-- Node1&#45;&gt;Node27 -->
<g id="edge26" class="edge">
<title>Node1&#45;&gt;Node27</title>
<path fill="none" stroke="midnightblue" d="M832.87,-275.39C836.66,-236.72 850.71,-150.45 902,-105 911.77,-96.34 924.79,-91.45 937.45,-88.74"/>
<polygon fill="midnightblue" stroke="midnightblue" points="829.38,-275.11 832.02,-285.37 836.35,-275.7 829.38,-275.11"/>
</g>
<!-- Node2 -->
<g id="node2" class="node">
<title>Node2</title>
<g id="a_node2"><a xlink:href="../../df/d49/classCCopasiMethod.html" target="_top" xlink:title=" ">
<polygon fill="white" stroke="black" points="673,-285.5 673,-304.5 759,-304.5 759,-285.5 673,-285.5"/>
<text text-anchor="middle" x="716" y="-292.5" font-family="FreeSans" font-size="10.00">CCopasiMethod</text>
</a>
</g>
</g>
<!-- Node2&#45;&gt;Node1 -->
<g id="edge1" class="edge">
<title>Node2&#45;&gt;Node1</title>
<path fill="none" stroke="midnightblue" d="M769.26,-295C777.91,-295 786.68,-295 794.76,-295"/>
<polygon fill="midnightblue" stroke="midnightblue" points="769.21,-291.5 759.21,-295 769.21,-298.5 769.21,-291.5"/>
</g>
<!-- Node3 -->
<g id="node3" class="node">
<title>Node3</title>
<g id="a_node3"><a xlink:href="../../df/d89/classCCopasiParameterGroup.html" target="_top" xlink:title=" ">
<polygon fill="white" stroke="black" points="512,-285.5 512,-304.5 637,-304.5 637,-285.5 512,-285.5"/>
<text text-anchor="middle" x="574.5" y="-292.5" font-family="FreeSans" font-size="10.00">CCopasiParameterGroup</text>
</a>
</g>
</g>
<!-- Node3&#45;&gt;Node2 -->
<g id="edge2" class="edge">
<title>Node3&#45;&gt;Node2</title>
<path fill="none" stroke="midnightblue" d="M647.36,-295C656.12,-295 664.83,-295 672.95,-295"/>
<polygon fill="midnightblue" stroke="midnightblue" points="647.09,-291.5 637.09,-295 647.09,-298.5 647.09,-291.5"/>
</g>
<!-- Node4 -->
<g id="node4" class="node">
<title>Node4</title>
<g id="a_node4"><a xlink:href="../../d5/db6/classCCopasiParameter.html" target="_top" xlink:title=" ">
<polygon fill="white" stroke="black" points="378,-285.5 378,-304.5 476,-304.5 476,-285.5 378,-285.5"/>
<text text-anchor="middle" x="427" y="-292.5" font-family="FreeSans" font-size="10.00">CCopasiParameter</text>
</a>
</g>
</g>
<!-- Node4&#45;&gt;Node3 -->
<g id="edge3" class="edge">
<title>Node4&#45;&gt;Node3</title>
<path fill="none" stroke="midnightblue" d="M486.15,-295C494.57,-295 503.26,-295 511.75,-295"/>
<polygon fill="midnightblue" stroke="midnightblue" points="486.05,-291.5 476.05,-295 486.05,-298.5 486.05,-291.5"/>
</g>
<!-- Node5 -->
<g id="node5" class="node">
<title>Node5</title>
<g id="a_node5"><a xlink:href="../../d3/db9/classCDataContainer.html" target="_top" xlink:title=" ">
<polygon fill="white" stroke="black" points="257,-285.5 257,-304.5 342,-304.5 342,-285.5 257,-285.5"/>
<text text-anchor="middle" x="299.5" y="-292.5" font-family="FreeSans" font-size="10.00">CDataContainer</text>
</a>
</g>
</g>
<!-- Node5&#45;&gt;Node4 -->
<g id="edge4" class="edge">
<title>Node5&#45;&gt;Node4</title>
<path fill="none" stroke="midnightblue" d="M352.4,-295C360.84,-295 369.54,-295 377.88,-295"/>
<polygon fill="midnightblue" stroke="midnightblue" points="352.29,-291.5 342.29,-295 352.29,-298.5 352.29,-291.5"/>
</g>
<!-- Node6 -->
<g id="node6" class="node">
<title>Node6</title>
<g id="a_node6"><a xlink:href="../../d1/d6b/classCDataObject.html" target="_top" xlink:title=" ">
<polygon fill="white" stroke="black" points="149,-285.5 149,-304.5 221,-304.5 221,-285.5 149,-285.5"/>
<text text-anchor="middle" x="185" y="-292.5" font-family="FreeSans" font-size="10.00">CDataObject</text>
</a>
</g>
</g>
<!-- Node6&#45;&gt;Node5 -->
<g id="edge5" class="edge">
<title>Node6&#45;&gt;Node5</title>
<path fill="none" stroke="midnightblue" d="M231.56,-295C239.85,-295 248.46,-295 256.64,-295"/>
<polygon fill="midnightblue" stroke="midnightblue" points="231.29,-291.5 221.29,-295 231.29,-298.5 231.29,-291.5"/>
</g>
<!-- Node7 -->
<g id="node7" class="node">
<title>Node7</title>
<g id="a_node7"><a xlink:href="../../df/dfa/classCObjectInterface.html" target="_top" xlink:title=" ">
<polygon fill="white" stroke="black" points="11.5,-304.5 11.5,-323.5 101.5,-323.5 101.5,-304.5 11.5,-304.5"/>
<text text-anchor="middle" x="56.5" y="-311.5" font-family="FreeSans" font-size="10.00">CObjectInterface</text>
</a>
</g>
</g>
<!-- Node7&#45;&gt;Node6 -->
<g id="edge6" class="edge">
<title>Node7&#45;&gt;Node6</title>
<path fill="none" stroke="midnightblue" d="M111.66,-305.86C124.21,-303.98 137.25,-302.02 148.74,-300.3"/>
<polygon fill="midnightblue" stroke="midnightblue" points="111.11,-302.41 101.74,-307.35 112.15,-309.33 111.11,-302.41"/>
</g>
<!-- Node8 -->
<g id="node8" class="node">
<title>Node8</title>
<g id="a_node8"><a xlink:href="../../d8/d53/classCUndoObjectInterface.html" target="_top" xlink:title=" ">
<polygon fill="white" stroke="black" points="0,-266.5 0,-285.5 113,-285.5 113,-266.5 0,-266.5"/>
<text text-anchor="middle" x="56.5" y="-273.5" font-family="FreeSans" font-size="10.00">CUndoObjectInterface</text>
</a>
</g>
</g>
<!-- Node8&#45;&gt;Node6 -->
<g id="edge7" class="edge">
<title>Node8&#45;&gt;Node6</title>
<path fill="none" stroke="midnightblue" d="M123.28,-285.88C132.08,-287.2 140.81,-288.51 148.8,-289.71"/>
<polygon fill="midnightblue" stroke="midnightblue" points="123.76,-282.41 113.35,-284.39 122.72,-289.34 123.76,-282.41"/>
</g>
<!-- Node20 -->
<g id="node20" class="node">
<title>Node20</title>
<g id="a_node20"><a xlink:href="../../d8/d76/classCOptMethodDE.html" target="_top" xlink:title=" ">
<polygon fill="white" stroke="black" points="1106.5,-228.5 1106.5,-247.5 1190.5,-247.5 1190.5,-228.5 1106.5,-228.5"/>
<text text-anchor="middle" x="1148.5" y="-235.5" font-family="FreeSans" font-size="10.00">COptMethodDE</text>
</a>
</g>
</g>
<!-- Node19&#45;&gt;Node20 -->
<g id="edge19" class="edge">
<title>Node19&#45;&gt;Node20</title>
<path fill="none" stroke="midnightblue" d="M1050.54,-135.14C1054.99,-137.33 1059.2,-139.92 1063,-143 1092.03,-166.55 1071.68,-193.5 1099,-219 1103.1,-222.83 1108.06,-225.91 1113.22,-228.39"/>
<polygon fill="midnightblue" stroke="midnightblue" points="1051.71,-131.84 1041.14,-131.21 1049.01,-138.3 1051.71,-131.84"/>
</g>
<!-- Node21 -->
<g id="node21" class="node">
<title>Node21</title>
<g id="a_node21"><a xlink:href="../../d6/d28/classCOptMethodEP.html" target="_top" xlink:title=" ">
<polygon fill="white" stroke="black" points="1106.5,-190.5 1106.5,-209.5 1190.5,-209.5 1190.5,-190.5 1106.5,-190.5"/>
<text text-anchor="middle" x="1148.5" y="-197.5" font-family="FreeSans" font-size="10.00">COptMethodEP</text>
</a>
</g>
</g>
<!-- Node19&#45;&gt;Node21 -->
<g id="edge20" class="edge">
<title>Node19&#45;&gt;Node21</title>
<path fill="none" stroke="midnightblue" d="M1050.63,-137C1054.93,-138.76 1059.09,-140.74 1063,-143 1083.15,-154.63 1079.71,-168 1099,-181 1104.47,-184.69 1110.77,-187.82 1116.97,-190.41"/>
<polygon fill="midnightblue" stroke="midnightblue" points="1051.66,-133.65 1041.07,-133.53 1049.27,-140.23 1051.66,-133.65"/>
</g>
<!-- Node22 -->
<g id="node22" class="node">
<title>Node22</title>
<g id="a_node22"><a xlink:href="../../df/d4b/classCOptMethodGA.html" target="_top" xlink:title=" ">
<polygon fill="white" stroke="black" points="1105.5,-152.5 1105.5,-171.5 1191.5,-171.5 1191.5,-152.5 1105.5,-152.5"/>
<text text-anchor="middle" x="1148.5" y="-159.5" font-family="FreeSans" font-size="10.00">COptMethodGA</text>
</a>
</g>
</g>
<!-- Node19&#45;&gt;Node22 -->
<g id="edge21" class="edge">
<title>Node19&#45;&gt;Node22</title>
<path fill="none" stroke="midnightblue" d="M1034.84,-135.9C1057.89,-141.24 1084.72,-147.45 1106.41,-152.48"/>
<polygon fill="midnightblue" stroke="midnightblue" points="1035.42,-132.44 1024.88,-133.59 1033.84,-139.26 1035.42,-132.44"/>
</g>
<!-- Node23 -->
<g id="node23" class="node">
<title>Node23</title>
<g id="a_node23"><a xlink:href="../../df/d09/classCOptMethodGASR.html" target="_top" xlink:title=" ">
<polygon fill="white" stroke="black" points="1099,-114.5 1099,-133.5 1198,-133.5 1198,-114.5 1099,-114.5"/>
<text text-anchor="middle" x="1148.5" y="-121.5" font-family="FreeSans" font-size="10.00">COptMethodGASR</text>
</a>
</g>
</g>
<!-- Node19&#45;&gt;Node23 -->
<g id="edge22" class="edge">
<title>Node19&#45;&gt;Node23</title>
<path fill="none" stroke="midnightblue" d="M1051.62,-124C1067.48,-124 1084.06,-124 1098.88,-124"/>
<polygon fill="midnightblue" stroke="midnightblue" points="1051.32,-120.5 1041.32,-124 1051.32,-127.5 1051.32,-120.5"/>
</g>
<!-- Node24 -->
<g id="node24" class="node">
<title>Node24</title>
<g id="a_node24"><a xlink:href="../../d6/dd4/classCOptMethodPS.html" target="_top" xlink:title=" ">
<polygon fill="white" stroke="black" points="1106,-76.5 1106,-95.5 1191,-95.5 1191,-76.5 1106,-76.5"/>
<text text-anchor="middle" x="1148.5" y="-83.5" font-family="FreeSans" font-size="10.00">COptMethodPS</text>
</a>
</g>
</g>
<!-- Node19&#45;&gt;Node24 -->
<g id="edge23" class="edge">
<title>Node19&#45;&gt;Node24</title>
<path fill="none" stroke="midnightblue" d="M1034.84,-112.1C1057.89,-106.76 1084.72,-100.55 1106.41,-95.52"/>
<polygon fill="midnightblue" stroke="midnightblue" points="1033.84,-108.74 1024.88,-114.41 1035.42,-115.56 1033.84,-108.74"/>
</g>
<!-- Node25 -->
<g id="node25" class="node">
<title>Node25</title>
<g id="a_node25"><a xlink:href="../../da/d80/classCOptMethodSRES.html" target="_top" xlink:title=" ">
<polygon fill="white" stroke="black" points="1099.5,-38.5 1099.5,-57.5 1197.5,-57.5 1197.5,-38.5 1099.5,-38.5"/>
<text text-anchor="middle" x="1148.5" y="-45.5" font-family="FreeSans" font-size="10.00">COptMethodSRES</text>
</a>
</g>
</g>
<!-- Node19&#45;&gt;Node25 -->
<g id="edge24" class="edge">
<title>Node19&#45;&gt;Node25</title>
<path fill="none" stroke="midnightblue" d="M1050.63,-111C1054.93,-109.24 1059.09,-107.26 1063,-105 1083.15,-93.37 1079.71,-80 1099,-67 1104.47,-63.31 1110.77,-60.18 1116.97,-57.59"/>
<polygon fill="midnightblue" stroke="midnightblue" points="1049.27,-107.77 1041.07,-114.47 1051.66,-114.35 1049.27,-107.77"/>
</g>
<!-- Node26 -->
<g id="node26" class="node">
<title>Node26</title>
<g id="a_node26"><a xlink:href="../../d3/da8/classCOptMethodSS.html" target="_top" xlink:title=" ">
<polygon fill="white" stroke="black" points="1106,-0.5 1106,-19.5 1191,-19.5 1191,-0.5 1106,-0.5"/>
<text text-anchor="middle" x="1148.5" y="-7.5" font-family="FreeSans" font-size="10.00">COptMethodSS</text>
</a>
</g>
</g>
<!-- Node19&#45;&gt;Node26 -->
<g id="edge25" class="edge">
<title>Node19&#45;&gt;Node26</title>
<path fill="none" stroke="midnightblue" d="M1050.54,-112.86C1054.99,-110.67 1059.2,-108.08 1063,-105 1092.03,-81.45 1071.68,-54.5 1099,-29 1103.1,-25.17 1108.06,-22.09 1113.22,-19.61"/>
<polygon fill="midnightblue" stroke="midnightblue" points="1049.01,-109.7 1041.14,-116.79 1051.71,-116.16 1049.01,-109.7"/>
</g>
</g>
</svg>
