<?xml version="1.0" encoding="UTF-8" standalone="no"?>
<!DOCTYPE svg PUBLIC "-//W3C//DTD SVG 1.1//EN"
 "http://www.w3.org/Graphics/SVG/1.1/DTD/svg11.dtd">
<!-- Generated by graphviz version 2.43.0 (0)
 -->
<!-- Title: CEvaluationTree Pages: 1 -->
<svg width="269pt" height="308pt"
 viewBox="0.00 0.00 268.50 308.00" xmlns="http://www.w3.org/2000/svg" xmlns:xlink="http://www.w3.org/1999/xlink">
<g id="graph0" class="graph" transform="scale(1 1) rotate(0) translate(4 304)">
<title>CEvaluationTree</title>
<polygon fill="white" stroke="transparent" points="-4,4 -4,-304 264.5,-304 264.5,4 -4,4"/>
<!-- Node1 -->
<g id="node1" class="node">
<title>Node1</title>
<g id="a_node1"><a xlink:title=" ">
<polygon fill="#bfbfbf" stroke="black" points="75.5,-112.5 75.5,-131.5 163.5,-131.5 163.5,-112.5 75.5,-112.5"/>
<text text-anchor="middle" x="119.5" y="-119.5" font-family="FreeSans" font-size="10.00">CEvaluationTree</text>
</a>
</g>
</g>
<!-- Node6 -->
<g id="node6" class="node">
<title>Node6</title>
<g id="a_node6"><a xlink:href="../../dc/dbd/classCExpression.html" target="_top" xlink:title=" ">
<polygon fill="white" stroke="black" points="0,-56.5 0,-75.5 71,-75.5 71,-56.5 0,-56.5"/>
<text text-anchor="middle" x="35.5" y="-63.5" font-family="FreeSans" font-size="10.00">CExpression</text>
</a>
</g>
</g>
<!-- Node1&#45;&gt;Node6 -->
<g id="edge5" class="edge">
<title>Node1&#45;&gt;Node6</title>
<path fill="none" stroke="midnightblue" d="M97.57,-106.9C82.16,-97 62.05,-84.07 48.96,-75.65"/>
<polygon fill="midnightblue" stroke="midnightblue" points="95.7,-109.86 106,-112.32 99.48,-103.97 95.7,-109.86"/>
</g>
<!-- Node7 -->
<g id="node7" class="node">
<title>Node7</title>
<g id="a_node7"><a xlink:href="../../d9/d86/classCFunction.html" target="_top" xlink:title="The class for handling a chemical kinetic function.">
<polygon fill="white" stroke="black" points="89,-56.5 89,-75.5 150,-75.5 150,-56.5 89,-56.5"/>
<text text-anchor="middle" x="119.5" y="-63.5" font-family="FreeSans" font-size="10.00">CFunction</text>
</a>
</g>
</g>
<!-- Node1&#45;&gt;Node7 -->
<g id="edge6" class="edge">
<title>Node1&#45;&gt;Node7</title>
<path fill="none" stroke="midnightblue" d="M119.5,-101.8C119.5,-92.91 119.5,-82.78 119.5,-75.75"/>
<polygon fill="midnightblue" stroke="midnightblue" points="116,-102.08 119.5,-112.08 123,-102.08 116,-102.08"/>
</g>
<!-- Node10 -->
<g id="node10" class="node">
<title>Node10</title>
<g id="a_node10"><a xlink:href="../../d3/d15/classCMathExpression.html" target="_top" xlink:title=" ">
<polygon fill="white" stroke="black" points="168.5,-56.5 168.5,-75.5 260.5,-75.5 260.5,-56.5 168.5,-56.5"/>
<text text-anchor="middle" x="214.5" y="-63.5" font-family="FreeSans" font-size="10.00">CMathExpression</text>
</a>
</g>
</g>
<!-- Node1&#45;&gt;Node10 -->
<g id="edge9" class="edge">
<title>Node1&#45;&gt;Node10</title>
<path fill="none" stroke="midnightblue" d="M143.82,-107.18C161.3,-97.24 184.33,-84.15 199.27,-75.65"/>
<polygon fill="midnightblue" stroke="midnightblue" points="141.73,-104.34 134.76,-112.32 145.19,-110.43 141.73,-104.34"/>
</g>
<!-- Node2 -->
<g id="node2" class="node">
<title>Node2</title>
<g id="a_node2"><a xlink:href="../../d3/db9/classCDataContainer.html" target="_top" xlink:title=" ">
<polygon fill="white" stroke="black" points="77,-168.5 77,-187.5 162,-187.5 162,-168.5 77,-168.5"/>
<text text-anchor="middle" x="119.5" y="-175.5" font-family="FreeSans" font-size="10.00">CDataContainer</text>
</a>
</g>
</g>
<!-- Node2&#45;&gt;Node1 -->
<g id="edge1" class="edge">
<title>Node2&#45;&gt;Node1</title>
<path fill="none" stroke="midnightblue" d="M119.5,-157.8C119.5,-148.91 119.5,-138.78 119.5,-131.75"/>
<polygon fill="midnightblue" stroke="midnightblue" points="116,-158.08 119.5,-168.08 123,-158.08 116,-158.08"/>
</g>
<!-- Node3 -->
<g id="node3" class="node">
<title>Node3</title>
<g id="a_node3"><a xlink:href="../../d1/d6b/classCDataObject.html" target="_top" xlink:title=" ">
<polygon fill="white" stroke="black" points="83.5,-224.5 83.5,-243.5 155.5,-243.5 155.5,-224.5 83.5,-224.5"/>
<text text-anchor="middle" x="119.5" y="-231.5" font-family="FreeSans" font-size="10.00">CDataObject</text>
</a>
</g>
</g>
<!-- Node3&#45;&gt;Node2 -->
<g id="edge2" class="edge">
<title>Node3&#45;&gt;Node2</title>
<path fill="none" stroke="midnightblue" d="M119.5,-213.8C119.5,-204.91 119.5,-194.78 119.5,-187.75"/>
<polygon fill="midnightblue" stroke="midnightblue" points="116,-214.08 119.5,-224.08 123,-214.08 116,-214.08"/>
</g>
<!-- Node4 -->
<g id="node4" class="node">
<title>Node4</title>
<g id="a_node4"><a xlink:href="../../df/dfa/classCObjectInterface.html" target="_top" xlink:title=" ">
<polygon fill="white" stroke="black" points="14.5,-280.5 14.5,-299.5 104.5,-299.5 104.5,-280.5 14.5,-280.5"/>
<text text-anchor="middle" x="59.5" y="-287.5" font-family="FreeSans" font-size="10.00">CObjectInterface</text>
</a>
</g>
</g>
<!-- Node4&#45;&gt;Node3 -->
<g id="edge3" class="edge">
<title>Node4&#45;&gt;Node3</title>
<path fill="none" stroke="midnightblue" d="M76.68,-273.54C87.38,-263.91 100.76,-251.87 109.68,-243.83"/>
<polygon fill="midnightblue" stroke="midnightblue" points="74.23,-271.03 69.14,-280.32 78.91,-276.24 74.23,-271.03"/>
</g>
<!-- Node5 -->
<g id="node5" class="node">
<title>Node5</title>
<g id="a_node5"><a xlink:href="../../d8/d53/classCUndoObjectInterface.html" target="_top" xlink:title=" ">
<polygon fill="white" stroke="black" points="123,-280.5 123,-299.5 236,-299.5 236,-280.5 123,-280.5"/>
<text text-anchor="middle" x="179.5" y="-287.5" font-family="FreeSans" font-size="10.00">CUndoObjectInterface</text>
</a>
</g>
</g>
<!-- Node5&#45;&gt;Node3 -->
<g id="edge4" class="edge">
<title>Node5&#45;&gt;Node3</title>
<path fill="none" stroke="midnightblue" d="M162.32,-273.54C151.62,-263.91 138.24,-251.87 129.32,-243.83"/>
<polygon fill="midnightblue" stroke="midnightblue" points="160.09,-276.24 169.86,-280.32 164.77,-271.03 160.09,-276.24"/>
</g>
<!-- Node8 -->
<g id="node8" class="node">
<title>Node8</title>
<g id="a_node8"><a xlink:href="../../d1/de4/classCKinFunction.html" target="_top" xlink:title=" ">
<polygon fill="white" stroke="black" points="36,-0.5 36,-19.5 111,-19.5 111,-0.5 36,-0.5"/>
<text text-anchor="middle" x="73.5" y="-7.5" font-family="FreeSans" font-size="10.00">CKinFunction</text>
</a>
</g>
</g>
<!-- Node7&#45;&gt;Node8 -->
<g id="edge7" class="edge">
<title>Node7&#45;&gt;Node8</title>
<path fill="none" stroke="midnightblue" d="M105.39,-48.43C97.32,-38.97 87.54,-27.48 80.95,-19.75"/>
<polygon fill="midnightblue" stroke="midnightblue" points="102.75,-50.74 111.9,-56.08 108.08,-46.2 102.75,-50.74"/>
</g>
<!-- Node9 -->
<g id="node9" class="node">
<title>Node9</title>
<g id="a_node9"><a xlink:href="../../d9/d88/classCMassAction.html" target="_top" xlink:title=" ">
<polygon fill="white" stroke="black" points="129,-0.5 129,-19.5 204,-19.5 204,-0.5 129,-0.5"/>
<text text-anchor="middle" x="166.5" y="-7.5" font-family="FreeSans" font-size="10.00">CMassAction</text>
</a>
</g>
</g>
<!-- Node7&#45;&gt;Node9 -->
<g id="edge8" class="edge">
<title>Node7&#45;&gt;Node9</title>
<path fill="none" stroke="midnightblue" d="M133.92,-48.43C142.16,-38.97 152.15,-27.48 158.88,-19.75"/>
<polygon fill="midnightblue" stroke="midnightblue" points="131.19,-46.24 127.26,-56.08 136.47,-50.84 131.19,-46.24"/>
</g>
</g>
</svg>
