<?xml version="1.0" encoding="UTF-8" standalone="no"?>
<!DOCTYPE svg PUBLIC "-//W3C//DTD SVG 1.1//EN"
 "http://www.w3.org/Graphics/SVG/1.1/DTD/svg11.dtd">
<!-- Generated by graphviz version 2.43.0 (0)
 -->
<!-- Title: CLRectangle Pages: 1 -->
<svg width="369pt" height="308pt"
 viewBox="0.00 0.00 369.00 308.00" xmlns="http://www.w3.org/2000/svg" xmlns:xlink="http://www.w3.org/1999/xlink">
<g id="graph0" class="graph" transform="scale(1 1) rotate(0) translate(4 304)">
<title>CLRectangle</title>
<polygon fill="white" stroke="transparent" points="-4,4 -4,-304 365,-304 365,4 -4,4"/>
<!-- Node1 -->
<g id="node1" class="node">
<title>Node1</title>
<g id="a_node1"><a xlink:title=" ">
<polygon fill="#bfbfbf" stroke="black" points="86,-0.5 86,-19.5 159,-19.5 159,-0.5 86,-0.5"/>
<text text-anchor="middle" x="122.5" y="-7.5" font-family="FreeSans" font-size="10.00">CLRectangle</text>
</a>
</g>
</g>
<!-- Node2 -->
<g id="node2" class="node">
<title>Node2</title>
<g id="a_node2"><a xlink:href="../../dc/d2d/classCLGraphicalPrimitive2D.html" target="_top" xlink:title=" ">
<polygon fill="white" stroke="black" points="5,-56.5 5,-75.5 126,-75.5 126,-56.5 5,-56.5"/>
<text text-anchor="middle" x="65.5" y="-63.5" font-family="FreeSans" font-size="10.00">CLGraphicalPrimitive2D</text>
</a>
</g>
</g>
<!-- Node2&#45;&gt;Node1 -->
<g id="edge1" class="edge">
<title>Node2&#45;&gt;Node1</title>
<path fill="none" stroke="midnightblue" d="M82.12,-49.25C92.23,-39.67 104.78,-27.79 113.18,-19.83"/>
<polygon fill="midnightblue" stroke="midnightblue" points="79.51,-46.91 74.66,-56.32 84.32,-51.99 79.51,-46.91"/>
</g>
<!-- Node3 -->
<g id="node3" class="node">
<title>Node3</title>
<g id="a_node3"><a xlink:href="../../de/db3/classCLGraphicalPrimitive1D.html" target="_top" xlink:title=" ">
<polygon fill="white" stroke="black" points="0,-112.5 0,-131.5 121,-131.5 121,-112.5 0,-112.5"/>
<text text-anchor="middle" x="60.5" y="-119.5" font-family="FreeSans" font-size="10.00">CLGraphicalPrimitive1D</text>
</a>
</g>
</g>
<!-- Node3&#45;&gt;Node2 -->
<g id="edge2" class="edge">
<title>Node3&#45;&gt;Node2</title>
<path fill="none" stroke="midnightblue" d="M62.25,-102.1C63.08,-93.14 64.03,-82.86 64.69,-75.75"/>
<polygon fill="midnightblue" stroke="midnightblue" points="58.76,-101.8 61.33,-112.08 65.73,-102.45 58.76,-101.8"/>
</g>
<!-- Node4 -->
<g id="node4" class="node">
<title>Node4</title>
<g id="a_node4"><a xlink:href="../../d4/d0b/classCLTransformation2D.html" target="_top" xlink:title=" ">
<polygon fill="white" stroke="black" points="7,-168.5 7,-187.5 114,-187.5 114,-168.5 7,-168.5"/>
<text text-anchor="middle" x="60.5" y="-175.5" font-family="FreeSans" font-size="10.00">CLTransformation2D</text>
</a>
</g>
</g>
<!-- Node4&#45;&gt;Node3 -->
<g id="edge3" class="edge">
<title>Node4&#45;&gt;Node3</title>
<path fill="none" stroke="midnightblue" d="M60.5,-157.8C60.5,-148.91 60.5,-138.78 60.5,-131.75"/>
<polygon fill="midnightblue" stroke="midnightblue" points="57,-158.08 60.5,-168.08 64,-158.08 57,-158.08"/>
</g>
<!-- Node5 -->
<g id="node5" class="node">
<title>Node5</title>
<g id="a_node5"><a xlink:href="../../dd/d1f/classCLTransformation.html" target="_top" xlink:title=" ">
<polygon fill="white" stroke="black" points="13,-224.5 13,-243.5 108,-243.5 108,-224.5 13,-224.5"/>
<text text-anchor="middle" x="60.5" y="-231.5" font-family="FreeSans" font-size="10.00">CLTransformation</text>
</a>
</g>
</g>
<!-- Node5&#45;&gt;Node4 -->
<g id="edge4" class="edge">
<title>Node5&#45;&gt;Node4</title>
<path fill="none" stroke="midnightblue" d="M60.5,-213.8C60.5,-204.91 60.5,-194.78 60.5,-187.75"/>
<polygon fill="midnightblue" stroke="midnightblue" points="57,-214.08 60.5,-224.08 64,-214.08 57,-214.08"/>
</g>
<!-- Node6 -->
<g id="node6" class="node">
<title>Node6</title>
<g id="a_node6"><a xlink:href="../../d7/df9/classCLBase.html" target="_top" xlink:title=" ">
<polygon fill="white" stroke="black" points="34.5,-280.5 34.5,-299.5 86.5,-299.5 86.5,-280.5 34.5,-280.5"/>
<text text-anchor="middle" x="60.5" y="-287.5" font-family="FreeSans" font-size="10.00">CLBase</text>
</a>
</g>
</g>
<!-- Node6&#45;&gt;Node5 -->
<g id="edge5" class="edge">
<title>Node6&#45;&gt;Node5</title>
<path fill="none" stroke="midnightblue" d="M60.5,-269.8C60.5,-260.91 60.5,-250.78 60.5,-243.75"/>
<polygon fill="midnightblue" stroke="midnightblue" points="57,-270.08 60.5,-280.08 64,-270.08 57,-270.08"/>
</g>
<!-- Node7 -->
<g id="node7" class="node">
<title>Node7</title>
<g id="a_node7"><a xlink:href="../../d1/d6b/classCDataObject.html" target="_top" xlink:title=" ">
<polygon fill="white" stroke="black" points="148.5,-56.5 148.5,-75.5 220.5,-75.5 220.5,-56.5 148.5,-56.5"/>
<text text-anchor="middle" x="184.5" y="-63.5" font-family="FreeSans" font-size="10.00">CDataObject</text>
</a>
</g>
</g>
<!-- Node7&#45;&gt;Node1 -->
<g id="edge6" class="edge">
<title>Node7&#45;&gt;Node1</title>
<path fill="none" stroke="midnightblue" d="M166.75,-49.54C155.69,-39.91 141.87,-27.87 132.64,-19.83"/>
<polygon fill="midnightblue" stroke="midnightblue" points="164.7,-52.4 174.54,-56.32 169.3,-47.12 164.7,-52.4"/>
</g>
<!-- Node8 -->
<g id="node8" class="node">
<title>Node8</title>
<g id="a_node8"><a xlink:href="../../df/dfa/classCObjectInterface.html" target="_top" xlink:title=" ">
<polygon fill="white" stroke="black" points="139.5,-112.5 139.5,-131.5 229.5,-131.5 229.5,-112.5 139.5,-112.5"/>
<text text-anchor="middle" x="184.5" y="-119.5" font-family="FreeSans" font-size="10.00">CObjectInterface</text>
</a>
</g>
</g>
<!-- Node8&#45;&gt;Node7 -->
<g id="edge7" class="edge">
<title>Node8&#45;&gt;Node7</title>
<path fill="none" stroke="midnightblue" d="M184.5,-101.8C184.5,-92.91 184.5,-82.78 184.5,-75.75"/>
<polygon fill="midnightblue" stroke="midnightblue" points="181,-102.08 184.5,-112.08 188,-102.08 181,-102.08"/>
</g>
<!-- Node9 -->
<g id="node9" class="node">
<title>Node9</title>
<g id="a_node9"><a xlink:href="../../d8/d53/classCUndoObjectInterface.html" target="_top" xlink:title=" ">
<polygon fill="white" stroke="black" points="248,-112.5 248,-131.5 361,-131.5 361,-112.5 248,-112.5"/>
<text text-anchor="middle" x="304.5" y="-119.5" font-family="FreeSans" font-size="10.00">CUndoObjectInterface</text>
</a>
</g>
</g>
<!-- Node9&#45;&gt;Node7 -->
<g id="edge8" class="edge">
<title>Node9&#45;&gt;Node7</title>
<path fill="none" stroke="midnightblue" d="M276.13,-108.23C253.68,-98.13 222.96,-84.31 203.43,-75.52"/>
<polygon fill="midnightblue" stroke="midnightblue" points="274.93,-111.53 285.49,-112.44 277.8,-105.15 274.93,-111.53"/>
</g>
</g>
</svg>
