<?xml version="1.0" encoding="UTF-8" standalone="no"?>
<!DOCTYPE svg PUBLIC "-//W3C//DTD SVG 1.1//EN"
 "http://www.w3.org/Graphics/SVG/1.1/DTD/svg11.dtd">
<!-- Generated by graphviz version 2.43.0 (0)
 -->
<!-- Title: CCopasiParameter Pages: 1 -->
<!--zoomable 1142 -->
<svg id="main" version="1.1" xmlns="http://www.w3.org/2000/svg" xmlns:xlink="http://www.w3.org/1999/xlink" xml:space="preserve" onload="init(evt)">
<style type="text/css"><![CDATA[
.edge:hover path { stroke: red; }
.edge:hover polygon { stroke: red; fill: red; }
]]></style>
<script type="text/javascript"><![CDATA[
var edges = document.getElementsByTagName('g');
if (edges && edges.length) {
  for (var i=0;i<edges.length;i++) {
    if (edges[i].id.substr(0,4)=='edge') {
      edges[i].setAttribute('class','edge');
    }
  }
}
]]></script>
        <defs>
                <circle id="rim" cx="0" cy="0" r="7"/>
                <circle id="rim2" cx="0" cy="0" r="3.5"/>
                <g id="zoomPlus">
                        <use xlink:href="#rim" fill="#404040">
                                <set attributeName="fill" to="#808080" begin="zoomplus.mouseover" end="zoomplus.mouseout"/>
                        </use>
                        <path d="M-4,0h8M0,-4v8" fill="none" stroke="white" stroke-width="1.5" pointer-events="none"/>
                </g>
                <g id="zoomMin">
                        <use xlink:href="#rim" fill="#404040">
                                <set attributeName="fill" to="#808080" begin="zoomminus.mouseover" end="zoomminus.mouseout"/>
                        </use>
                        <path d="M-4,0h8" fill="none" stroke="white" stroke-width="1.5" pointer-events="none"/>
                </g>
                <g id="dirArrow">
                        <path fill="none" stroke="white" stroke-width="1.5" d="M0,-3.0v7 M-2.5,-0.5L0,-3.0L2.5,-0.5"/>
                </g>
               <g id="resetDef">
                       <use xlink:href="#rim2" fill="#404040">
                               <set attributeName="fill" to="#808080" begin="reset.mouseover" end="reset.mouseout"/>
                       </use>
               </g>
        </defs>

<script type="text/javascript">
var viewWidth = 950;
var viewHeight = 1142;
var sectionId = 'dynsection-0';
</script>
<script xlink:href="../../svgpan.js"/>
<svg id="graph" class="graph">
<g id="viewport">
<title>CCopasiParameter</title>
<polygon fill="white" stroke="transparent" points="-4,4 -4,-1138 946,-1138 946,4 -4,4"/>
<!-- Node1 -->
<g id="node1" class="node">
<title>Node1</title>
<g id="a_node1"><a xlink:title=" ">
<polygon fill="#bfbfbf" stroke="black" points="378,-215.5 378,-234.5 476,-234.5 476,-215.5 378,-215.5"/>
<text text-anchor="middle" x="427" y="-222.5" font-family="FreeSans" font-size="10.00">CCopasiParameter</text>
</a>
</g>
</g>
<!-- Node6 -->
<g id="node6" class="node">
<title>Node6</title>
<g id="a_node6"><a xlink:href="../../df/d89/classCCopasiParameterGroup.html" target="_top" xlink:title=" ">
<polygon fill="white" stroke="black" points="512,-234.5 512,-253.5 637,-253.5 637,-234.5 512,-234.5"/>
<text text-anchor="middle" x="574.5" y="-241.5" font-family="FreeSans" font-size="10.00">CCopasiParameterGroup</text>
</a>
</g>
</g>
<!-- Node1&#45;&gt;Node6 -->
<g id="edge5" class="edge">
<title>Node1&#45;&gt;Node6</title>
<path fill="none" stroke="midnightblue" d="M486.15,-232.59C494.57,-233.69 503.26,-234.83 511.75,-235.94"/>
<polygon fill="midnightblue" stroke="midnightblue" points="486.41,-229.1 476.05,-231.27 485.51,-236.04 486.41,-229.1"/>
</g>
<!-- Node101 -->
<g id="node49" class="node">
<title>Node101</title>
<g id="a_node49"><a xlink:href="../../d9/d72/classCProcessReportItem.html" target="_top" xlink:title=" ">
<polygon fill="white" stroke="black" points="521,-196.5 521,-215.5 628,-215.5 628,-196.5 521,-196.5"/>
<text text-anchor="middle" x="574.5" y="-203.5" font-family="FreeSans" font-size="10.00">CProcessReportItem</text>
</a>
</g>
</g>
<!-- Node1&#45;&gt;Node101 -->
<g id="edge48" class="edge">
<title>Node1&#45;&gt;Node101</title>
<path fill="none" stroke="midnightblue" d="M486.03,-217.42C497.58,-215.91 509.64,-214.34 520.99,-212.86"/>
<polygon fill="midnightblue" stroke="midnightblue" points="485.51,-213.96 476.05,-218.73 486.41,-220.9 485.51,-213.96"/>
</g>
<!-- Node2 -->
<g id="node2" class="node">
<title>Node2</title>
<g id="a_node2"><a xlink:href="../../d3/db9/classCDataContainer.html" target="_top" xlink:title=" ">
<polygon fill="white" stroke="black" points="257,-215.5 257,-234.5 342,-234.5 342,-215.5 257,-215.5"/>
<text text-anchor="middle" x="299.5" y="-222.5" font-family="FreeSans" font-size="10.00">CDataContainer</text>
</a>
</g>
</g>
<!-- Node2&#45;&gt;Node1 -->
<g id="edge1" class="edge">
<title>Node2&#45;&gt;Node1</title>
<path fill="none" stroke="midnightblue" d="M352.4,-225C360.84,-225 369.54,-225 377.88,-225"/>
<polygon fill="midnightblue" stroke="midnightblue" points="352.29,-221.5 342.29,-225 352.29,-228.5 352.29,-221.5"/>
</g>
<!-- Node3 -->
<g id="node3" class="node">
<title>Node3</title>
<g id="a_node3"><a xlink:href="../../d1/d6b/classCDataObject.html" target="_top" xlink:title=" ">
<polygon fill="white" stroke="black" points="149,-215.5 149,-234.5 221,-234.5 221,-215.5 149,-215.5"/>
<text text-anchor="middle" x="185" y="-222.5" font-family="FreeSans" font-size="10.00">CDataObject</text>
</a>
</g>
</g>
<!-- Node3&#45;&gt;Node2 -->
<g id="edge2" class="edge">
<title>Node3&#45;&gt;Node2</title>
<path fill="none" stroke="midnightblue" d="M231.56,-225C239.85,-225 248.46,-225 256.64,-225"/>
<polygon fill="midnightblue" stroke="midnightblue" points="231.29,-221.5 221.29,-225 231.29,-228.5 231.29,-221.5"/>
</g>
<!-- Node4 -->
<g id="node4" class="node">
<title>Node4</title>
<g id="a_node4"><a xlink:href="../../df/dfa/classCObjectInterface.html" target="_top" xlink:title=" ">
<polygon fill="white" stroke="black" points="11.5,-234.5 11.5,-253.5 101.5,-253.5 101.5,-234.5 11.5,-234.5"/>
<text text-anchor="middle" x="56.5" y="-241.5" font-family="FreeSans" font-size="10.00">CObjectInterface</text>
</a>
</g>
</g>
<!-- Node4&#45;&gt;Node3 -->
<g id="edge3" class="edge">
<title>Node4&#45;&gt;Node3</title>
<path fill="none" stroke="midnightblue" d="M111.66,-235.86C124.21,-233.98 137.25,-232.02 148.74,-230.3"/>
<polygon fill="midnightblue" stroke="midnightblue" points="111.11,-232.41 101.74,-237.35 112.15,-239.33 111.11,-232.41"/>
</g>
<!-- Node5 -->
<g id="node5" class="node">
<title>Node5</title>
<g id="a_node5"><a xlink:href="../../d8/d53/classCUndoObjectInterface.html" target="_top" xlink:title=" ">
<polygon fill="white" stroke="black" points="0,-196.5 0,-215.5 113,-215.5 113,-196.5 0,-196.5"/>
<text text-anchor="middle" x="56.5" y="-203.5" font-family="FreeSans" font-size="10.00">CUndoObjectInterface</text>
</a>
</g>
</g>
<!-- Node5&#45;&gt;Node3 -->
<g id="edge4" class="edge">
<title>Node5&#45;&gt;Node3</title>
<path fill="none" stroke="midnightblue" d="M123.28,-215.88C132.08,-217.2 140.81,-218.51 148.8,-219.71"/>
<polygon fill="midnightblue" stroke="midnightblue" points="123.76,-212.41 113.35,-214.39 122.72,-219.34 123.76,-212.41"/>
</g>
<!-- Node7 -->
<g id="node7" class="node">
<title>Node7</title>
<g id="a_node7"><a xlink:href="../../d7/da1/classCCheckForUpdates.html" target="_top" xlink:title=" ">
<polygon fill="white" stroke="black" points="681.5,-867.5 681.5,-886.5 783.5,-886.5 783.5,-867.5 681.5,-867.5"/>
<text text-anchor="middle" x="732.5" y="-874.5" font-family="FreeSans" font-size="10.00">CCheckForUpdates</text>
</a>
</g>
</g>
<!-- Node6&#45;&gt;Node7 -->
<g id="edge6" class="edge">
<title>Node6&#45;&gt;Node7</title>
<path fill="none" stroke="midnightblue" d="M575.95,-264.01C578.5,-359.22 593.91,-765.45 673,-858 676.33,-861.9 680.47,-865 684.99,-867.47"/>
<polygon fill="midnightblue" stroke="midnightblue" points="579.45,-263.68 575.7,-253.77 572.45,-263.85 579.45,-263.68"/>
</g>
<!-- Node8 -->
<g id="node8" class="node">
<title>Node8</title>
<g id="a_node8"><a xlink:href="../../df/dcf/classCConfigurationFile.html" target="_top" xlink:title=" ">
<polygon fill="white" stroke="black" points="685,-829.5 685,-848.5 780,-848.5 780,-829.5 685,-829.5"/>
<text text-anchor="middle" x="732.5" y="-836.5" font-family="FreeSans" font-size="10.00">CConfigurationFile</text>
</a>
</g>
</g>
<!-- Node6&#45;&gt;Node8 -->
<g id="edge7" class="edge">
<title>Node6&#45;&gt;Node8</title>
<path fill="none" stroke="midnightblue" d="M576.17,-263.64C579.64,-354.54 598.47,-733.68 673,-820 676.35,-823.88 680.5,-826.97 685.03,-829.44"/>
<polygon fill="midnightblue" stroke="midnightblue" points="579.66,-263.47 575.8,-253.6 572.67,-263.72 579.66,-263.47"/>
</g>
<!-- Node9 -->
<g id="node9" class="node">
<title>Node9</title>
<g id="a_node9"><a xlink:href="../../df/d49/classCCopasiMethod.html" target="_top" xlink:title=" ">
<polygon fill="white" stroke="black" points="689.5,-791.5 689.5,-810.5 775.5,-810.5 775.5,-791.5 689.5,-791.5"/>
<text text-anchor="middle" x="732.5" y="-798.5" font-family="FreeSans" font-size="10.00">CCopasiMethod</text>
</a>
</g>
</g>
<!-- Node6&#45;&gt;Node9 -->
<g id="edge8" class="edge">
<title>Node6&#45;&gt;Node9</title>
<path fill="none" stroke="midnightblue" d="M580.92,-263.35C605.99,-352.88 710.31,-725.33 728.72,-791.07"/>
<polygon fill="midnightblue" stroke="midnightblue" points="584.27,-262.35 578.21,-253.67 577.53,-264.24 584.27,-262.35"/>
</g>
<!-- Node70 -->
<g id="node25" class="node">
<title>Node70</title>
<g id="a_node25"><a xlink:href="../../d1/d05/classCCopasiProblem.html" target="_top" xlink:title=" ">
<polygon fill="white" stroke="black" points="688,-354.5 688,-373.5 777,-373.5 777,-354.5 688,-354.5"/>
<text text-anchor="middle" x="732.5" y="-361.5" font-family="FreeSans" font-size="10.00">CCopasiProblem</text>
</a>
</g>
</g>
<!-- Node6&#45;&gt;Node70 -->
<g id="edge24" class="edge">
<title>Node6&#45;&gt;Node70</title>
<path fill="none" stroke="midnightblue" d="M588.28,-261.86C605.23,-284.32 637.21,-322.64 673,-345 679.07,-348.79 685.97,-351.9 692.84,-354.42"/>
<polygon fill="midnightblue" stroke="midnightblue" points="590.91,-259.54 582.16,-253.57 585.28,-263.69 590.91,-259.54"/>
</g>
<!-- Node88 -->
<g id="node38" class="node">
<title>Node88</title>
<g id="a_node38"><a xlink:href="../../d6/d74/classCExperiment.html" target="_top" xlink:title=" ">
<polygon fill="white" stroke="black" points="697,-316.5 697,-335.5 768,-335.5 768,-316.5 697,-316.5"/>
<text text-anchor="middle" x="732.5" y="-323.5" font-family="FreeSans" font-size="10.00">CExperiment</text>
</a>
</g>
</g>
<!-- Node6&#45;&gt;Node88 -->
<g id="edge37" class="edge">
<title>Node6&#45;&gt;Node88</title>
<path fill="none" stroke="midnightblue" d="M596.38,-259.78C615.51,-273.67 645.03,-293.7 673,-307 680.52,-310.58 688.89,-313.74 696.89,-316.4"/>
<polygon fill="midnightblue" stroke="midnightblue" points="598.24,-256.81 588.12,-253.69 594.09,-262.44 598.24,-256.81"/>
</g>
<!-- Node89 -->
<g id="node39" class="node">
<title>Node89</title>
<g id="a_node39"><a xlink:href="../../d8/db0/classCExperimentObjectMap.html" target="_top" xlink:title=" ">
<polygon fill="white" stroke="black" points="673,-278.5 673,-297.5 792,-297.5 792,-278.5 673,-278.5"/>
<text text-anchor="middle" x="732.5" y="-285.5" font-family="FreeSans" font-size="10.00">CExperimentObjectMap</text>
</a>
</g>
</g>
<!-- Node6&#45;&gt;Node89 -->
<g id="edge38" class="edge">
<title>Node6&#45;&gt;Node89</title>
<path fill="none" stroke="midnightblue" d="M619.26,-256.34C644.1,-263.35 674.73,-271.99 697.72,-278.47"/>
<polygon fill="midnightblue" stroke="midnightblue" points="619.92,-252.89 609.35,-253.55 618.02,-259.63 619.92,-252.89"/>
</g>
<!-- Node90 -->
<g id="node40" class="node">
<title>Node90</title>
<g id="a_node40"><a xlink:href="../../d2/db2/classCExperimentObjectMap_1_1CDataColumn.html" target="_top" xlink:title=" ">
<polygon fill="white" stroke="black" points="673,-229 673,-259 792,-259 792,-229 673,-229"/>
<text text-anchor="start" x="681" y="-247" font-family="FreeSans" font-size="10.00">CExperimentObjectMap</text>
<text text-anchor="middle" x="732.5" y="-236" font-family="FreeSans" font-size="10.00">::CDataColumn</text>
</a>
</g>
</g>
<!-- Node6&#45;&gt;Node90 -->
<g id="edge39" class="edge">
<title>Node6&#45;&gt;Node90</title>
<path fill="none" stroke="midnightblue" d="M647.17,-244C655.76,-244 664.46,-244 672.84,-244"/>
<polygon fill="midnightblue" stroke="midnightblue" points="647.16,-240.5 637.16,-244 647.16,-247.5 647.16,-240.5"/>
</g>
<!-- Node91 -->
<g id="node41" class="node">
<title>Node91</title>
<g id="a_node41"><a xlink:href="../../de/d70/classCExperimentSet.html" target="_top" xlink:title=" ">
<polygon fill="white" stroke="black" points="689.5,-190.5 689.5,-209.5 775.5,-209.5 775.5,-190.5 689.5,-190.5"/>
<text text-anchor="middle" x="732.5" y="-197.5" font-family="FreeSans" font-size="10.00">CExperimentSet</text>
</a>
</g>
</g>
<!-- Node6&#45;&gt;Node91 -->
<g id="edge40" class="edge">
<title>Node6&#45;&gt;Node91</title>
<path fill="none" stroke="midnightblue" d="M619.26,-231.66C644.1,-224.65 674.73,-216.01 697.72,-209.53"/>
<polygon fill="midnightblue" stroke="midnightblue" points="618.02,-228.37 609.35,-234.45 619.92,-235.11 618.02,-228.37"/>
</g>
<!-- Node93 -->
<g id="node43" class="node">
<title>Node93</title>
<g id="a_node43"><a xlink:href="../../df/d1a/classCMIRIAMResource.html" target="_top" xlink:title=" ">
<polygon fill="white" stroke="black" points="682,-152.5 682,-171.5 783,-171.5 783,-152.5 682,-152.5"/>
<text text-anchor="middle" x="732.5" y="-159.5" font-family="FreeSans" font-size="10.00">CMIRIAMResource</text>
</a>
</g>
</g>
<!-- Node6&#45;&gt;Node93 -->
<g id="edge42" class="edge">
<title>Node6&#45;&gt;Node93</title>
<path fill="none" stroke="midnightblue" d="M627.25,-230.54C630.66,-228.9 633.95,-227.06 637,-225 657.96,-210.89 652.14,-195.26 673,-181 678.64,-177.14 685.12,-174.03 691.66,-171.52"/>
<polygon fill="midnightblue" stroke="midnightblue" points="625.86,-227.33 618.02,-234.47 628.59,-233.78 625.86,-227.33"/>
</g>
<!-- Node94 -->
<g id="node44" class="node">
<title>Node94</title>
<g id="a_node44"><a xlink:href="../../d4/de9/classCMIRIAMResources.html" target="_top" xlink:title=" ">
<polygon fill="white" stroke="black" points="679.5,-114.5 679.5,-133.5 785.5,-133.5 785.5,-114.5 679.5,-114.5"/>
<text text-anchor="middle" x="732.5" y="-121.5" font-family="FreeSans" font-size="10.00">CMIRIAMResources</text>
</a>
</g>
</g>
<!-- Node6&#45;&gt;Node94 -->
<g id="edge43" class="edge">
<title>Node6&#45;&gt;Node94</title>
<path fill="none" stroke="midnightblue" d="M631.36,-229.34C633.35,-228.01 635.24,-226.57 637,-225 666.7,-198.51 643.49,-169.71 673,-143 677.28,-139.13 682.35,-136.05 687.7,-133.59"/>
<polygon fill="midnightblue" stroke="midnightblue" points="629.23,-226.51 622.16,-234.4 632.61,-232.65 629.23,-226.51"/>
</g>
<!-- Node95 -->
<g id="node45" class="node">
<title>Node95</title>
<g id="a_node45"><a xlink:href="../../d2/d15/classCOptItem.html" target="_top" xlink:title=" ">
<polygon fill="white" stroke="black" points="703,-76.5 703,-95.5 762,-95.5 762,-76.5 703,-76.5"/>
<text text-anchor="middle" x="732.5" y="-83.5" font-family="FreeSans" font-size="10.00">COptItem</text>
</a>
</g>
</g>
<!-- Node6&#45;&gt;Node95 -->
<g id="edge44" class="edge">
<title>Node6&#45;&gt;Node95</title>
<path fill="none" stroke="midnightblue" d="M632.36,-229.05C634,-227.8 635.55,-226.46 637,-225 676.21,-185.47 634.07,-144.81 673,-105 680.91,-96.91 692.3,-92.26 702.93,-89.59"/>
<polygon fill="midnightblue" stroke="midnightblue" points="630.24,-226.24 623.54,-234.45 633.9,-232.21 630.24,-226.24"/>
</g>
<!-- Node98 -->
<g id="node47" class="node">
<title>Node98</title>
<g id="a_node47"><a xlink:href="../../d8/d8b/classCPlotItem.html" target="_top" xlink:title=" ">
<polygon fill="white" stroke="red" points="702.5,-38.5 702.5,-57.5 762.5,-57.5 762.5,-38.5 702.5,-38.5"/>
<text text-anchor="middle" x="732.5" y="-45.5" font-family="FreeSans" font-size="10.00">CPlotItem</text>
</a>
</g>
</g>
<!-- Node6&#45;&gt;Node98 -->
<g id="edge46" class="edge">
<title>Node6&#45;&gt;Node98</title>
<path fill="none" stroke="midnightblue" d="M633.06,-228.7C634.46,-227.56 635.77,-226.32 637,-225 685.97,-172.18 624.42,-120.17 673,-67 680.56,-58.72 691.76,-54.04 702.35,-51.39"/>
<polygon fill="midnightblue" stroke="midnightblue" points="630.84,-225.98 624.4,-234.39 634.68,-231.83 630.84,-225.98"/>
</g>
<!-- Node100 -->
<g id="node48" class="node">
<title>Node100</title>
<g id="a_node48"><a xlink:href="../../d5/d1a/classCRecentFiles.html" target="_top" xlink:title=" ">
<polygon fill="white" stroke="black" points="695,-0.5 695,-19.5 770,-19.5 770,-0.5 695,-0.5"/>
<text text-anchor="middle" x="732.5" y="-7.5" font-family="FreeSans" font-size="10.00">CRecentFiles</text>
</a>
</g>
</g>
<!-- Node6&#45;&gt;Node100 -->
<g id="edge47" class="edge">
<title>Node6&#45;&gt;Node100</title>
<path fill="none" stroke="midnightblue" d="M633.23,-228.7C634.56,-227.55 635.83,-226.32 637,-225 695.83,-158.79 614.65,-95.63 673,-29 678.7,-22.49 686.65,-18.2 694.85,-15.37"/>
<polygon fill="midnightblue" stroke="midnightblue" points="631.17,-225.86 624.86,-234.38 635.1,-231.65 631.17,-225.86"/>
</g>
<!-- Node10 -->
<g id="node10" class="node">
<title>Node10</title>
<g id="a_node10"><a xlink:href="../../d2/dbe/classCAnalyticsMethod.html" target="_top" xlink:title=" ">
<polygon fill="white" stroke="black" points="837.5,-1114.5 837.5,-1133.5 932.5,-1133.5 932.5,-1114.5 837.5,-1114.5"/>
<text text-anchor="middle" x="885" y="-1121.5" font-family="FreeSans" font-size="10.00">CAnalyticsMethod</text>
</a>
</g>
</g>
<!-- Node9&#45;&gt;Node10 -->
<g id="edge9" class="edge">
<title>Node9&#45;&gt;Node10</title>
<path fill="none" stroke="midnightblue" d="M784.48,-813.14C787.27,-815.1 789.82,-817.37 792,-820 873.39,-918.37 747.26,-1006.1 828,-1105 831.18,-1108.9 835.2,-1112 839.61,-1114.47"/>
<polygon fill="midnightblue" stroke="midnightblue" points="785.95,-809.95 775.51,-808.15 782.55,-816.06 785.95,-809.95"/>
</g>
<!-- Node11 -->
<g id="node11" class="node">
<title>Node11</title>
<g id="a_node11"><a xlink:href="../../d4/d6d/classCCrossSectionMethod.html" target="_top" xlink:title=" ">
<polygon fill="white" stroke="black" points="828,-1076.5 828,-1095.5 942,-1095.5 942,-1076.5 828,-1076.5"/>
<text text-anchor="middle" x="885" y="-1083.5" font-family="FreeSans" font-size="10.00">CCrossSectionMethod</text>
</a>
</g>
</g>
<!-- Node9&#45;&gt;Node11 -->
<g id="edge10" class="edge">
<title>Node9&#45;&gt;Node11</title>
<path fill="none" stroke="midnightblue" d="M784.56,-813.28C787.31,-815.2 789.83,-817.43 792,-820 863.53,-904.8 757.02,-981.74 828,-1067 831.22,-1070.87 835.26,-1073.95 839.68,-1076.41"/>
<polygon fill="midnightblue" stroke="midnightblue" points="786.16,-810.16 775.72,-808.35 782.75,-816.27 786.16,-810.16"/>
</g>
<!-- Node12 -->
<g id="node12" class="node">
<title>Node12</title>
<g id="a_node12"><a xlink:href="../../d4/d31/classCEFMMethod.html" target="_top" xlink:title=" ">
<polygon fill="white" stroke="red" points="847,-1038.5 847,-1057.5 923,-1057.5 923,-1038.5 847,-1038.5"/>
<text text-anchor="middle" x="885" y="-1045.5" font-family="FreeSans" font-size="10.00">CEFMMethod</text>
</a>
</g>
</g>
<!-- Node9&#45;&gt;Node12 -->
<g id="edge11" class="edge">
<title>Node9&#45;&gt;Node12</title>
<path fill="none" stroke="midnightblue" d="M784.48,-813.34C787.25,-815.25 789.8,-817.46 792,-820 853.7,-891.26 766.77,-957.34 828,-1029 832.94,-1034.78 839.7,-1038.8 846.82,-1041.6"/>
<polygon fill="midnightblue" stroke="midnightblue" points="786.05,-810.21 775.61,-808.44 782.67,-816.34 786.05,-810.21"/>
</g>
<!-- Node17 -->
<g id="node13" class="node">
<title>Node17</title>
<g id="a_node13"><a xlink:href="../../d6/d0a/classCLNAMethod.html" target="_top" xlink:title=" ">
<polygon fill="white" stroke="black" points="847,-1000.5 847,-1019.5 923,-1019.5 923,-1000.5 847,-1000.5"/>
<text text-anchor="middle" x="885" y="-1007.5" font-family="FreeSans" font-size="10.00">CLNAMethod</text>
</a>
</g>
</g>
<!-- Node9&#45;&gt;Node17 -->
<g id="edge12" class="edge">
<title>Node9&#45;&gt;Node17</title>
<path fill="none" stroke="midnightblue" d="M784.76,-813.7C787.41,-815.53 789.86,-817.61 792,-820 843.92,-877.76 776.46,-932.9 828,-991 833.04,-996.68 839.85,-1000.67 846.98,-1003.46"/>
<polygon fill="midnightblue" stroke="midnightblue" points="786.19,-810.49 775.74,-808.71 782.8,-816.62 786.19,-810.49"/>
</g>
<!-- Node18 -->
<g id="node14" class="node">
<title>Node18</title>
<g id="a_node14"><a xlink:href="../../dd/ded/classCLyapMethod.html" target="_top" xlink:title=" ">
<polygon fill="white" stroke="red" points="846.5,-962.5 846.5,-981.5 923.5,-981.5 923.5,-962.5 846.5,-962.5"/>
<text text-anchor="middle" x="885" y="-969.5" font-family="FreeSans" font-size="10.00">CLyapMethod</text>
</a>
</g>
</g>
<!-- Node9&#45;&gt;Node18 -->
<g id="edge13" class="edge">
<title>Node9&#45;&gt;Node18</title>
<path fill="none" stroke="midnightblue" d="M784.35,-813.67C787.13,-815.51 789.72,-817.6 792,-820 834.21,-864.36 786.08,-908.36 828,-953 832.99,-958.31 839.52,-962.14 846.35,-964.9"/>
<polygon fill="midnightblue" stroke="midnightblue" points="785.97,-810.57 775.51,-808.93 782.66,-816.74 785.97,-810.57"/>
</g>
<!-- Node20 -->
<g id="node15" class="node">
<title>Node20</title>
<g id="a_node15"><a xlink:href="../../d4/d57/classCMCAMethod.html" target="_top" xlink:title=" ">
<polygon fill="white" stroke="black" points="846.5,-924.5 846.5,-943.5 923.5,-943.5 923.5,-924.5 846.5,-924.5"/>
<text text-anchor="middle" x="885" y="-931.5" font-family="FreeSans" font-size="10.00">CMCAMethod</text>
</a>
</g>
</g>
<!-- Node9&#45;&gt;Node20 -->
<g id="edge14" class="edge">
<title>Node9&#45;&gt;Node20</title>
<path fill="none" stroke="midnightblue" d="M784.61,-814.27C787.26,-815.96 789.75,-817.86 792,-820 824.69,-851.15 795.52,-883.64 828,-915 833.17,-919.99 839.7,-923.67 846.46,-926.39"/>
<polygon fill="midnightblue" stroke="midnightblue" points="786.19,-811.15 775.71,-809.59 782.93,-817.34 786.19,-811.15"/>
</g>
<!-- Node21 -->
<g id="node16" class="node">
<title>Node21</title>
<g id="a_node16"><a xlink:href="../../da/d88/classCMoietiesMethod.html" target="_top" xlink:title=" ">
<polygon fill="white" stroke="black" points="839,-886.5 839,-905.5 931,-905.5 931,-886.5 839,-886.5"/>
<text text-anchor="middle" x="885" y="-893.5" font-family="FreeSans" font-size="10.00">CMoietiesMethod</text>
</a>
</g>
</g>
<!-- Node9&#45;&gt;Node21 -->
<g id="edge15" class="edge">
<title>Node9&#45;&gt;Node21</title>
<path fill="none" stroke="midnightblue" d="M784.53,-815.06C787.16,-816.54 789.67,-818.19 792,-820 815.66,-838.39 804.46,-858.46 828,-877 832.92,-880.88 838.67,-883.98 844.59,-886.47"/>
<polygon fill="midnightblue" stroke="midnightblue" points="785.8,-811.78 775.27,-810.57 782.75,-818.08 785.8,-811.78"/>
</g>
<!-- Node22 -->
<g id="node17" class="node">
<title>Node22</title>
<g id="a_node17"><a xlink:href="../../dc/d24/classCOptMethod.html" target="_top" xlink:title=" ">
<polygon fill="white" stroke="red" points="849.5,-848.5 849.5,-867.5 920.5,-867.5 920.5,-848.5 849.5,-848.5"/>
<text text-anchor="middle" x="885" y="-855.5" font-family="FreeSans" font-size="10.00">COptMethod</text>
</a>
</g>
</g>
<!-- Node9&#45;&gt;Node22 -->
<g id="edge16" class="edge">
<title>Node9&#45;&gt;Node22</title>
<path fill="none" stroke="midnightblue" d="M776.03,-813.86C781.46,-815.78 786.9,-817.84 792,-820 808.66,-827.04 811.38,-831.85 828,-839 835.92,-842.41 844.67,-845.63 852.86,-848.41"/>
<polygon fill="midnightblue" stroke="midnightblue" points="776.95,-810.48 766.35,-810.58 774.7,-817.11 776.95,-810.48"/>
</g>
<!-- Node42 -->
<g id="node18" class="node">
<title>Node42</title>
<g id="a_node18"><a xlink:href="../../de/d18/classCOscillationMethod.html" target="_top" xlink:title=" ">
<polygon fill="white" stroke="red" points="834.5,-810.5 834.5,-829.5 935.5,-829.5 935.5,-810.5 834.5,-810.5"/>
<text text-anchor="middle" x="885" y="-817.5" font-family="FreeSans" font-size="10.00">COscillationMethod</text>
</a>
</g>
</g>
<!-- Node9&#45;&gt;Node42 -->
<g id="edge17" class="edge">
<title>Node9&#45;&gt;Node42</title>
<path fill="none" stroke="midnightblue" d="M785.89,-807.61C801.59,-809.6 818.76,-811.76 834.28,-813.72"/>
<polygon fill="midnightblue" stroke="midnightblue" points="786.18,-804.12 775.82,-806.34 785.31,-811.07 786.18,-804.12"/>
</g>
<!-- Node44 -->
<g id="node19" class="node">
<title>Node44</title>
<g id="a_node19"><a xlink:href="../../dd/d87/classCScanMethod.html" target="_top" xlink:title=" ">
<polygon fill="white" stroke="black" points="846,-772.5 846,-791.5 924,-791.5 924,-772.5 846,-772.5"/>
<text text-anchor="middle" x="885" y="-779.5" font-family="FreeSans" font-size="10.00">CScanMethod</text>
</a>
</g>
</g>
<!-- Node9&#45;&gt;Node44 -->
<g id="edge18" class="edge">
<title>Node9&#45;&gt;Node44</title>
<path fill="none" stroke="midnightblue" d="M785.89,-794.39C805.62,-791.9 827.66,-789.11 845.85,-786.82"/>
<polygon fill="midnightblue" stroke="midnightblue" points="785.31,-790.93 775.82,-795.66 786.18,-797.88 785.31,-790.93"/>
</g>
<!-- Node45 -->
<g id="node20" class="node">
<title>Node45</title>
<g id="a_node20"><a xlink:href="../../d3/d0f/classCSensMethod.html" target="_top" xlink:title=" ">
<polygon fill="white" stroke="black" points="846,-734.5 846,-753.5 924,-753.5 924,-734.5 846,-734.5"/>
<text text-anchor="middle" x="885" y="-741.5" font-family="FreeSans" font-size="10.00">CSensMethod</text>
</a>
</g>
</g>
<!-- Node9&#45;&gt;Node45 -->
<g id="edge19" class="edge">
<title>Node9&#45;&gt;Node45</title>
<path fill="none" stroke="midnightblue" d="M765.56,-787.59C783.78,-780.11 807.06,-770.76 828,-763 836.66,-759.79 846.16,-756.49 854.83,-753.56"/>
<polygon fill="midnightblue" stroke="midnightblue" points="764.18,-784.38 756.28,-791.43 766.86,-790.85 764.18,-784.38"/>
</g>
<!-- Node46 -->
<g id="node21" class="node">
<title>Node46</title>
<g id="a_node21"><a xlink:href="../../dd/dbc/classCSteadyStateMethod.html" target="_top" xlink:title=" ">
<polygon fill="white" stroke="red" points="830.5,-696.5 830.5,-715.5 939.5,-715.5 939.5,-696.5 830.5,-696.5"/>
<text text-anchor="middle" x="885" y="-703.5" font-family="FreeSans" font-size="10.00">CSteadyStateMethod</text>
</a>
</g>
</g>
<!-- Node9&#45;&gt;Node46 -->
<g id="edge20" class="edge">
<title>Node9&#45;&gt;Node46</title>
<path fill="none" stroke="midnightblue" d="M750.51,-784.2C768.46,-767.26 798.23,-741.35 828,-725 834.75,-721.29 842.35,-718.13 849.72,-715.5"/>
<polygon fill="midnightblue" stroke="midnightblue" points="747.92,-781.84 743.13,-791.29 752.77,-786.89 747.92,-781.84"/>
</g>
<!-- Node48 -->
<g id="node22" class="node">
<title>Node48</title>
<g id="a_node22"><a xlink:href="../../dc/d45/classCTSSAMethod.html" target="_top" xlink:title="The CTSSAMethod class is the base class for all time scale separation analysis methods.">
<polygon fill="white" stroke="red" points="844,-658.5 844,-677.5 926,-677.5 926,-658.5 844,-658.5"/>
<text text-anchor="middle" x="885" y="-665.5" font-family="FreeSans" font-size="10.00">CTSSAMethod</text>
</a>
</g>
</g>
<!-- Node9&#45;&gt;Node48 -->
<g id="edge21" class="edge">
<title>Node9&#45;&gt;Node48</title>
<path fill="none" stroke="midnightblue" d="M744.35,-782.32C759.84,-757.2 790.61,-712.74 828,-687 833.58,-683.16 840.01,-680.03 846.47,-677.51"/>
<polygon fill="midnightblue" stroke="midnightblue" points="741.16,-780.83 739.01,-791.21 747.16,-784.44 741.16,-780.83"/>
</g>
<!-- Node52 -->
<g id="node23" class="node">
<title>Node52</title>
<g id="a_node23"><a xlink:href="../../d3/dd9/classCTimeSensMethod.html" target="_top" xlink:title=" ">
<polygon fill="white" stroke="red" points="835,-620.5 835,-639.5 935,-639.5 935,-620.5 835,-620.5"/>
<text text-anchor="middle" x="885" y="-627.5" font-family="FreeSans" font-size="10.00">CTimeSensMethod</text>
</a>
</g>
</g>
<!-- Node9&#45;&gt;Node52 -->
<g id="edge22" class="edge">
<title>Node9&#45;&gt;Node52</title>
<path fill="none" stroke="midnightblue" d="M740.5,-781.63C753.08,-749.49 782.52,-685.1 828,-649 832.91,-645.11 838.65,-641.99 844.56,-639.5"/>
<polygon fill="midnightblue" stroke="midnightblue" points="737.14,-780.62 736.88,-791.21 743.69,-783.09 737.14,-780.62"/>
</g>
<!-- Node54 -->
<g id="node24" class="node">
<title>Node54</title>
<g id="a_node24"><a xlink:href="../../d0/dc9/classCTrajectoryMethod.html" target="_top" xlink:title=" ">
<polygon fill="white" stroke="red" points="836,-582.5 836,-601.5 934,-601.5 934,-582.5 836,-582.5"/>
<text text-anchor="middle" x="885" y="-589.5" font-family="FreeSans" font-size="10.00">CTrajectoryMethod</text>
</a>
</g>
</g>
<!-- Node9&#45;&gt;Node54 -->
<g id="edge23" class="edge">
<title>Node9&#45;&gt;Node54</title>
<path fill="none" stroke="midnightblue" d="M737.99,-781.16C747.7,-742.77 774.22,-658 828,-611 832.41,-607.15 837.63,-604.07 843.08,-601.61"/>
<polygon fill="midnightblue" stroke="midnightblue" points="734.54,-780.55 735.6,-791.09 741.35,-782.19 734.54,-780.55"/>
</g>
<!-- Node71 -->
<g id="node26" class="node">
<title>Node71</title>
<g id="a_node26"><a xlink:href="../../dc/d4c/classCEFMProblem.html" target="_top" xlink:title=" ">
<polygon fill="white" stroke="black" points="845,-544.5 845,-563.5 925,-563.5 925,-544.5 845,-544.5"/>
<text text-anchor="middle" x="885" y="-551.5" font-family="FreeSans" font-size="10.00">CEFMProblem</text>
</a>
</g>
</g>
<!-- Node70&#45;&gt;Node71 -->
<g id="edge25" class="edge">
<title>Node70&#45;&gt;Node71</title>
<path fill="none" stroke="midnightblue" d="M739.03,-383.31C750.1,-418.53 778.25,-493.39 828,-535 832.96,-539.15 838.87,-542.41 844.97,-544.96"/>
<polygon fill="midnightblue" stroke="midnightblue" points="742.38,-382.3 736.14,-373.74 735.68,-384.32 742.38,-382.3"/>
</g>
<!-- Node72 -->
<g id="node27" class="node">
<title>Node72</title>
<g id="a_node27"><a xlink:href="../../d1/d23/classCLNAProblem.html" target="_top" xlink:title=" ">
<polygon fill="white" stroke="black" points="845,-506.5 845,-525.5 925,-525.5 925,-506.5 845,-506.5"/>
<text text-anchor="middle" x="885" y="-513.5" font-family="FreeSans" font-size="10.00">CLNAProblem</text>
</a>
</g>
</g>
<!-- Node70&#45;&gt;Node72 -->
<g id="edge26" class="edge">
<title>Node70&#45;&gt;Node72</title>
<path fill="none" stroke="midnightblue" d="M742.13,-382.92C756.14,-411.63 786.52,-466.11 828,-497 833.19,-500.86 839.21,-503.98 845.35,-506.47"/>
<polygon fill="midnightblue" stroke="midnightblue" points="745.16,-381.14 737.71,-373.6 738.83,-384.14 745.16,-381.14"/>
</g>
<!-- Node73 -->
<g id="node28" class="node">
<title>Node73</title>
<g id="a_node28"><a xlink:href="../../d4/dc3/classCLyapProblem.html" target="_top" xlink:title=" ">
<polygon fill="white" stroke="black" points="845,-468.5 845,-487.5 925,-487.5 925,-468.5 845,-468.5"/>
<text text-anchor="middle" x="885" y="-475.5" font-family="FreeSans" font-size="10.00">CLyapProblem</text>
</a>
</g>
</g>
<!-- Node70&#45;&gt;Node73 -->
<g id="edge27" class="edge">
<title>Node70&#45;&gt;Node73</title>
<path fill="none" stroke="midnightblue" d="M746.78,-381.64C763.56,-402.79 794.32,-438 828,-459 834.01,-462.75 840.85,-465.86 847.63,-468.4"/>
<polygon fill="midnightblue" stroke="midnightblue" points="749.38,-379.28 740.48,-373.52 743.85,-383.57 749.38,-379.28"/>
</g>
<!-- Node74 -->
<g id="node29" class="node">
<title>Node74</title>
<g id="a_node29"><a xlink:href="../../dc/dc2/classCMCAProblem.html" target="_top" xlink:title=" ">
<polygon fill="white" stroke="black" points="844.5,-430.5 844.5,-449.5 925.5,-449.5 925.5,-430.5 844.5,-430.5"/>
<text text-anchor="middle" x="885" y="-437.5" font-family="FreeSans" font-size="10.00">CMCAProblem</text>
</a>
</g>
</g>
<!-- Node70&#45;&gt;Node74 -->
<g id="edge28" class="edge">
<title>Node70&#45;&gt;Node74</title>
<path fill="none" stroke="midnightblue" d="M755.78,-379.33C774.47,-391.71 802.17,-409 828,-421 835.54,-424.5 843.92,-427.69 851.84,-430.41"/>
<polygon fill="midnightblue" stroke="midnightblue" points="757.63,-376.35 747.38,-373.69 753.73,-382.17 757.63,-376.35"/>
</g>
<!-- Node75 -->
<g id="node30" class="node">
<title>Node75</title>
<g id="a_node30"><a xlink:href="../../dd/da5/classCMoietiesProblem.html" target="_top" xlink:title=" ">
<polygon fill="white" stroke="black" points="837,-392.5 837,-411.5 933,-411.5 933,-392.5 837,-392.5"/>
<text text-anchor="middle" x="885" y="-399.5" font-family="FreeSans" font-size="10.00">CMoietiesProblem</text>
</a>
</g>
</g>
<!-- Node70&#45;&gt;Node75 -->
<g id="edge29" class="edge">
<title>Node70&#45;&gt;Node75</title>
<path fill="none" stroke="midnightblue" d="M781.18,-376.04C802.21,-381.35 826.57,-387.5 846.3,-392.48"/>
<polygon fill="midnightblue" stroke="midnightblue" points="782.03,-372.64 771.48,-373.59 780.32,-379.43 782.03,-372.64"/>
</g>
<!-- Node76 -->
<g id="node31" class="node">
<title>Node76</title>
<g id="a_node31"><a xlink:href="../../db/d6b/classCOptProblem.html" target="_top" xlink:title=" ">
<polygon fill="white" stroke="red" points="847.5,-354.5 847.5,-373.5 922.5,-373.5 922.5,-354.5 847.5,-354.5"/>
<text text-anchor="middle" x="885" y="-361.5" font-family="FreeSans" font-size="10.00">COptProblem</text>
</a>
</g>
</g>
<!-- Node70&#45;&gt;Node76 -->
<g id="edge30" class="edge">
<title>Node70&#45;&gt;Node76</title>
<path fill="none" stroke="midnightblue" d="M787.19,-364C807.07,-364 829.14,-364 847.18,-364"/>
<polygon fill="midnightblue" stroke="midnightblue" points="787.03,-360.5 777.03,-364 787.03,-367.5 787.03,-360.5"/>
</g>
<!-- Node79 -->
<g id="node32" class="node">
<title>Node79</title>
<g id="a_node32"><a xlink:href="../../d1/d48/classCOscillationProblem.html" target="_top" xlink:title=" ">
<polygon fill="white" stroke="black" points="832.5,-316.5 832.5,-335.5 937.5,-335.5 937.5,-316.5 832.5,-316.5"/>
<text text-anchor="middle" x="885" y="-323.5" font-family="FreeSans" font-size="10.00">COscillationProblem</text>
</a>
</g>
</g>
<!-- Node70&#45;&gt;Node79 -->
<g id="edge31" class="edge">
<title>Node70&#45;&gt;Node79</title>
<path fill="none" stroke="midnightblue" d="M781.18,-351.96C802.21,-346.65 826.57,-340.5 846.3,-335.52"/>
<polygon fill="midnightblue" stroke="midnightblue" points="780.32,-348.57 771.48,-354.41 782.03,-355.36 780.32,-348.57"/>
</g>
<!-- Node80 -->
<g id="node33" class="node">
<title>Node80</title>
<g id="a_node33"><a xlink:href="../../d1/d90/classCScanProblem.html" target="_top" xlink:title=" ">
<polygon fill="white" stroke="black" points="844,-278.5 844,-297.5 926,-297.5 926,-278.5 844,-278.5"/>
<text text-anchor="middle" x="885" y="-285.5" font-family="FreeSans" font-size="10.00">CScanProblem</text>
</a>
</g>
</g>
<!-- Node70&#45;&gt;Node80 -->
<g id="edge32" class="edge">
<title>Node70&#45;&gt;Node80</title>
<path fill="none" stroke="midnightblue" d="M781.46,-350.66C785.13,-348.97 788.69,-347.09 792,-345 811.67,-332.58 808.41,-319.55 828,-307 833.88,-303.23 840.59,-300.13 847.27,-297.6"/>
<polygon fill="midnightblue" stroke="midnightblue" points="780.1,-347.43 772.18,-354.47 782.76,-353.91 780.1,-347.43"/>
</g>
<!-- Node81 -->
<g id="node34" class="node">
<title>Node81</title>
<g id="a_node34"><a xlink:href="../../dc/dbc/classCSensProblem.html" target="_top" xlink:title=" ">
<polygon fill="white" stroke="black" points="844,-240.5 844,-259.5 926,-259.5 926,-240.5 844,-240.5"/>
<text text-anchor="middle" x="885" y="-247.5" font-family="FreeSans" font-size="10.00">CSensProblem</text>
</a>
</g>
</g>
<!-- Node70&#45;&gt;Node81 -->
<g id="edge33" class="edge">
<title>Node70&#45;&gt;Node81</title>
<path fill="none" stroke="midnightblue" d="M785.79,-349.65C787.99,-348.24 790.07,-346.7 792,-345 820.07,-320.32 800.09,-293.86 828,-269 832.6,-264.9 838.12,-261.68 843.87,-259.15"/>
<polygon fill="midnightblue" stroke="midnightblue" points="784.06,-346.61 776.9,-354.43 787.37,-352.78 784.06,-346.61"/>
</g>
<!-- Node82 -->
<g id="node35" class="node">
<title>Node82</title>
<g id="a_node35"><a xlink:href="../../d7/de1/classCSteadyStateProblem.html" target="_top" xlink:title=" ">
<polygon fill="white" stroke="black" points="828.5,-202.5 828.5,-221.5 941.5,-221.5 941.5,-202.5 828.5,-202.5"/>
<text text-anchor="middle" x="885" y="-209.5" font-family="FreeSans" font-size="10.00">CSteadyStateProblem</text>
</a>
</g>
</g>
<!-- Node70&#45;&gt;Node82 -->
<g id="edge34" class="edge">
<title>Node70&#45;&gt;Node82</title>
<path fill="none" stroke="midnightblue" d="M785.98,-350.05C788.13,-348.53 790.16,-346.86 792,-345 829.42,-307.28 790.83,-268.97 828,-231 831.81,-227.11 836.44,-224.02 841.39,-221.56"/>
<polygon fill="midnightblue" stroke="midnightblue" points="784.06,-347.11 777.12,-355.1 787.54,-353.19 784.06,-347.11"/>
</g>
<!-- Node83 -->
<g id="node36" class="node">
<title>Node83</title>
<g id="a_node36"><a xlink:href="../../db/daf/classCTSSAProblem.html" target="_top" xlink:title=" ">
<polygon fill="white" stroke="black" points="842,-164.5 842,-183.5 928,-183.5 928,-164.5 842,-164.5"/>
<text text-anchor="middle" x="885" y="-171.5" font-family="FreeSans" font-size="10.00">CTSSAProblem</text>
</a>
</g>
</g>
<!-- Node70&#45;&gt;Node83 -->
<g id="edge35" class="edge">
<title>Node70&#45;&gt;Node83</title>
<path fill="none" stroke="midnightblue" d="M786.03,-350.29C788.19,-348.72 790.2,-346.96 792,-345 839.05,-293.95 781.28,-244.36 828,-193 831.87,-188.75 836.72,-185.45 841.95,-182.88"/>
<polygon fill="midnightblue" stroke="midnightblue" points="783.97,-347.44 777.11,-355.52 787.51,-353.48 783.97,-347.44"/>
</g>
<!-- Node84 -->
<g id="node37" class="node">
<title>Node84</title>
<g id="a_node37"><a xlink:href="../../d9/d61/classCTrajectoryProblem.html" target="_top" xlink:title=" ">
<polygon fill="white" stroke="red" points="834,-126.5 834,-145.5 936,-145.5 936,-126.5 834,-126.5"/>
<text text-anchor="middle" x="885" y="-133.5" font-family="FreeSans" font-size="10.00">CTrajectoryProblem</text>
</a>
</g>
</g>
<!-- Node70&#45;&gt;Node84 -->
<g id="edge36" class="edge">
<title>Node70&#45;&gt;Node84</title>
<path fill="none" stroke="midnightblue" d="M786.03,-350.47C788.2,-348.85 790.21,-347.03 792,-345 848.8,-280.5 771.62,-219.87 828,-155 831.37,-151.13 835.56,-148.04 840.12,-145.58"/>
<polygon fill="midnightblue" stroke="midnightblue" points="783.82,-347.71 777.01,-355.83 787.39,-353.73 783.82,-347.71"/>
</g>
<!-- Node92 -->
<g id="node42" class="node">
<title>Node92</title>
<g id="a_node42"><a xlink:href="../../d6/dad/classCCrossValidationSet.html" target="_top" xlink:title=" ">
<polygon fill="white" stroke="black" points="831.5,-88.5 831.5,-107.5 938.5,-107.5 938.5,-88.5 831.5,-88.5"/>
<text text-anchor="middle" x="885" y="-95.5" font-family="FreeSans" font-size="10.00">CCrossValidationSet</text>
</a>
</g>
</g>
<!-- Node91&#45;&gt;Node92 -->
<g id="edge41" class="edge">
<title>Node91&#45;&gt;Node92</title>
<path fill="none" stroke="midnightblue" d="M784.78,-186.01C787.33,-184.5 789.75,-182.84 792,-181 817.25,-160.32 802.89,-137.84 828,-117 832.66,-113.13 838.15,-110.04 843.83,-107.57"/>
<polygon fill="midnightblue" stroke="midnightblue" points="783.13,-182.92 775.75,-190.53 786.26,-189.18 783.13,-182.92"/>
</g>
<!-- Node96 -->
<g id="node46" class="node">
<title>Node96</title>
<g id="a_node46"><a xlink:href="../../d7/d2d/classCFitItem.html" target="_top" xlink:title=" ">
<polygon fill="white" stroke="red" points="858,-50.5 858,-69.5 912,-69.5 912,-50.5 858,-50.5"/>
<text text-anchor="middle" x="885" y="-57.5" font-family="FreeSans" font-size="10.00">CFitItem</text>
</a>
</g>
</g>
<!-- Node95&#45;&gt;Node96 -->
<g id="edge45" class="edge">
<title>Node95&#45;&gt;Node96</title>
<path fill="none" stroke="midnightblue" d="M772.04,-79.34C799,-74.68 834.27,-68.59 857.96,-64.5"/>
<polygon fill="midnightblue" stroke="midnightblue" points="771.42,-75.9 762.16,-81.05 772.61,-82.79 771.42,-75.9"/>
</g>
</g>
</svg>
        <g id="navigator" transform="translate(0 0)" fill="#404254">
                <rect fill="#f2f5e9" fill-opacity="0.5" stroke="#606060" stroke-width=".5" x="0" y="0" width="60" height="60"/>
                <use id="zoomplus" xlink:href="#zoomPlus" x="17" y="9" onmousedown="handleZoom(evt,'in')"/>
                <use id="zoomminus" xlink:href="#zoomMin" x="42" y="9" onmousedown="handleZoom(evt,'out')"/>
                <use id="reset" xlink:href="#resetDef" x="30" y="36" onmousedown="handleReset()"/>
                <g id="arrowUp" xlink:href="#dirArrow" transform="translate(30 24)" onmousedown="handlePan(0,-1)">
                  <use xlink:href="#rim" fill="#404040">
                        <set attributeName="fill" to="#808080" begin="arrowUp.mouseover" end="arrowUp.mouseout"/>
                  </use>
                  <path fill="none" stroke="white" stroke-width="1.5" d="M0,-3.0v7 M-2.5,-0.5L0,-3.0L2.5,-0.5"/>
                </g>
                <g id="arrowRight" xlink:href="#dirArrow" transform="rotate(90) translate(36 -43)" onmousedown="handlePan(1,0)">
                  <use xlink:href="#rim" fill="#404040">
                        <set attributeName="fill" to="#808080" begin="arrowRight.mouseover" end="arrowRight.mouseout"/>
                  </use>
                  <path fill="none" stroke="white" stroke-width="1.5" d="M0,-3.0v7 M-2.5,-0.5L0,-3.0L2.5,-0.5"/>
                </g>
                <g id="arrowDown" xlink:href="#dirArrow" transform="rotate(180) translate(-30 -48)" onmousedown="handlePan(0,1)">
                  <use xlink:href="#rim" fill="#404040">
                        <set attributeName="fill" to="#808080" begin="arrowDown.mouseover" end="arrowDown.mouseout"/>
                  </use>
                  <path fill="none" stroke="white" stroke-width="1.5" d="M0,-3.0v7 M-2.5,-0.5L0,-3.0L2.5,-0.5"/>
                </g>
                <g id="arrowLeft" xlink:href="#dirArrow" transform="rotate(270) translate(-36 17)" onmousedown="handlePan(-1,0)">
                  <use xlink:href="#rim" fill="#404040">
                        <set attributeName="fill" to="#808080" begin="arrowLeft.mouseover" end="arrowLeft.mouseout"/>
                  </use>
                  <path fill="none" stroke="white" stroke-width="1.5" d="M0,-3.0v7 M-2.5,-0.5L0,-3.0L2.5,-0.5"/>
                </g>
        </g>
        <svg viewBox="0 0 15 15" width="100%" height="30px" preserveAspectRatio="xMaxYMin meet">
         <g id="arrow_out" transform="scale(0.3 0.3)">
          <a xlink:href="classCCopasiParameter__inherit__graph_org.svg" target="_base">
           <rect id="button" ry="5" rx="5" y="6" x="6" height="38" width="38"
                fill="#f2f5e9" fill-opacity="0.5" stroke="#606060" stroke-width="1.0"/>
           <path id="arrow"
             d="M 11.500037,31.436501 C 11.940474,20.09759 22.043105,11.32322 32.158766,21.979434 L 37.068811,17.246167 C 37.068811,17.246167 37.088388,32 37.088388,32 L 22.160133,31.978069 C 22.160133,31.978069 26.997745,27.140456 26.997745,27.140456 C 18.528582,18.264221 13.291696,25.230495 11.500037,31.436501 z"
             style="fill:#404040;"/>
          </a>
         </g>
        </svg>
</svg>
