<?xml version="1.0" encoding="UTF-8" standalone="no"?>
<!DOCTYPE svg PUBLIC "-//W3C//DTD SVG 1.1//EN"
 "http://www.w3.org/Graphics/SVG/1.1/DTD/svg11.dtd">
<!-- Generated by graphviz version 2.43.0 (0)
 -->
<!-- Title: CPointerContextWithParent&lt; Data &gt; Pages: 1 -->
<svg width="201pt" height="366pt"
 viewBox="0.00 0.00 201.00 366.00" xmlns="http://www.w3.org/2000/svg" xmlns:xlink="http://www.w3.org/1999/xlink">
<g id="graph0" class="graph" transform="scale(1 1) rotate(0) translate(4 362)">
<title>CPointerContextWithParent&lt; Data &gt;</title>
<polygon fill="white" stroke="transparent" points="-4,4 -4,-362 197,-362 197,4 -4,4"/>
<!-- Node1 -->
<g id="node1" class="node">
<title>Node1</title>
<g id="a_node1"><a xlink:title=" ">
<polygon fill="#bfbfbf" stroke="black" points="0,-146.5 0,-176.5 135,-176.5 135,-146.5 0,-146.5"/>
<text text-anchor="start" x="8" y="-164.5" font-family="FreeSans" font-size="10.00">CPointerContextWithParent</text>
<text text-anchor="middle" x="67.5" y="-153.5" font-family="FreeSans" font-size="10.00">&lt; Data &gt;</text>
</a>
</g>
</g>
<!-- Node5 -->
<g id="node5" class="node">
<title>Node5</title>
<g id="a_node5"><a xlink:href="../../d0/df3/classCPointerMathContext.html" target="_top" xlink:title=" ">
<polygon fill="white" stroke="black" points="17,-0.5 17,-30.5 126,-30.5 126,-0.5 17,-0.5"/>
<text text-anchor="start" x="25" y="-18.5" font-family="FreeSans" font-size="10.00">CPointerMathContext</text>
<text text-anchor="middle" x="71.5" y="-7.5" font-family="FreeSans" font-size="10.00">&lt; COptProblem &gt;</text>
</a>
</g>
</g>
<!-- Node1&#45;&gt;Node5 -->
<g id="edge4" class="edge">
<title>Node1&#45;&gt;Node5</title>
<path fill="none" stroke="midnightblue" d="M68.17,-136.32C69.01,-106.14 70.42,-55.49 71.1,-30.84"/>
<polygon fill="midnightblue" stroke="midnightblue" points="64.67,-136.34 67.89,-146.43 71.67,-136.53 64.67,-136.34"/>
</g>
<!-- Node6 -->
<g id="node6" class="node">
<title>Node6</title>
<g id="a_node6"><a xlink:href="../../d0/df3/classCPointerMathContext.html" target="_top" xlink:title=" ">
<polygon fill="white" stroke="black" points="84,-78.5 84,-108.5 193,-108.5 193,-78.5 84,-78.5"/>
<text text-anchor="start" x="92" y="-96.5" font-family="FreeSans" font-size="10.00">CPointerMathContext</text>
<text text-anchor="middle" x="138.5" y="-85.5" font-family="FreeSans" font-size="10.00">&lt; Data &gt;</text>
</a>
</g>
</g>
<!-- Node1&#45;&gt;Node6 -->
<g id="edge5" class="edge">
<title>Node1&#45;&gt;Node6</title>
<path fill="none" stroke="midnightblue" d="M90.33,-139.28C101.05,-129.31 113.55,-117.7 123.12,-108.79"/>
<polygon fill="midnightblue" stroke="midnightblue" points="87.85,-136.81 82.91,-146.18 92.61,-141.93 87.85,-136.81"/>
</g>
<!-- Node2 -->
<g id="node2" class="node">
<title>Node2</title>
<g id="a_node2"><a xlink:href="../../d4/d52/classCPointerContext.html" target="_top" xlink:title=" ">
<polygon fill="white" stroke="black" points="5.5,-214.5 5.5,-233.5 129.5,-233.5 129.5,-214.5 5.5,-214.5"/>
<text text-anchor="middle" x="67.5" y="-221.5" font-family="FreeSans" font-size="10.00">CPointerContext&lt; Data &gt;</text>
</a>
</g>
</g>
<!-- Node2&#45;&gt;Node1 -->
<g id="edge1" class="edge">
<title>Node2&#45;&gt;Node1</title>
<path fill="none" stroke="midnightblue" d="M67.5,-204.22C67.5,-195.36 67.5,-184.96 67.5,-176.76"/>
<polygon fill="midnightblue" stroke="midnightblue" points="64,-204.33 67.5,-214.33 71,-204.33 64,-204.33"/>
</g>
<!-- Node3 -->
<g id="node3" class="node">
<title>Node3</title>
<g id="a_node3"><a xlink:href="../../d3/d56/classCContext.html" target="_top" xlink:title=" ">
<polygon fill="white" stroke="black" points="18,-271.5 18,-290.5 117,-290.5 117,-271.5 18,-271.5"/>
<text text-anchor="middle" x="67.5" y="-278.5" font-family="FreeSans" font-size="10.00">CContext&lt; Data * &gt;</text>
</a>
</g>
</g>
<!-- Node3&#45;&gt;Node2 -->
<g id="edge2" class="edge">
<title>Node3&#45;&gt;Node2</title>
<path fill="none" stroke="midnightblue" d="M67.5,-261.12C67.5,-251.82 67.5,-241.06 67.5,-233.71"/>
<polygon fill="midnightblue" stroke="midnightblue" points="64,-261.41 67.5,-271.41 71,-261.41 64,-261.41"/>
</g>
<!-- Node4 -->
<g id="node4" class="node">
<title>Node4</title>
<g id="a_node4"><a xlink:href="../../d3/d56/classCContext.html" target="_top" xlink:title=" ">
<polygon fill="white" stroke="black" points="21,-338.5 21,-357.5 114,-357.5 114,-338.5 21,-338.5"/>
<text text-anchor="middle" x="67.5" y="-345.5" font-family="FreeSans" font-size="10.00">CContext&lt; Data &gt;</text>
</a>
</g>
</g>
<!-- Node4&#45;&gt;Node3 -->
<g id="edge3" class="edge">
<title>Node4&#45;&gt;Node3</title>
<path fill="none" stroke="orange" stroke-dasharray="5,2" d="M67.5,-328.04C67.5,-315.67 67.5,-300.12 67.5,-290.63"/>
<polygon fill="orange" stroke="orange" points="64,-328.23 67.5,-338.23 71,-328.23 64,-328.23"/>
<text text-anchor="middle" x="90.5" y="-312" font-family="FreeSans" font-size="10.00"> &lt; Data * &gt;</text>
</g>
<!-- Node6&#45;&gt;Node5 -->
<g id="edge6" class="edge">
<title>Node6&#45;&gt;Node5</title>
<path fill="none" stroke="orange" stroke-dasharray="5,2" d="M119.26,-70.67C107.94,-57.83 93.95,-41.97 84.05,-30.73"/>
<polygon fill="orange" stroke="orange" points="116.66,-73.02 125.9,-78.2 121.91,-68.39 116.66,-73.02"/>
<text text-anchor="middle" x="147.5" y="-52" font-family="FreeSans" font-size="10.00"> &lt; COptProblem &gt;</text>
</g>
</g>
</svg>
