<?xml version="1.0" encoding="UTF-8" standalone="no"?>
<!DOCTYPE svg PUBLIC "-//W3C//DTD SVG 1.1//EN"
 "http://www.w3.org/Graphics/SVG/1.1/DTD/svg11.dtd">
<!-- Generated by graphviz version 2.43.0 (0)
 -->
<!-- Title: CUnit Pages: 1 -->
<svg width="190pt" height="84pt"
 viewBox="0.00 0.00 189.50 84.00" xmlns="http://www.w3.org/2000/svg" xmlns:xlink="http://www.w3.org/1999/xlink">
<g id="graph0" class="graph" transform="scale(1 1) rotate(0) translate(4 80)">
<title>CUnit</title>
<polygon fill="white" stroke="transparent" points="-4,4 -4,-80 185.5,-80 185.5,4 -4,4"/>
<!-- Node1 -->
<g id="node1" class="node">
<title>Node1</title>
<g id="a_node1"><a xlink:title=" ">
<polygon fill="#bfbfbf" stroke="black" points="70,-56.5 70,-75.5 111,-75.5 111,-56.5 70,-56.5"/>
<text text-anchor="middle" x="90.5" y="-63.5" font-family="FreeSans" font-size="10.00">CUnit</text>
</a>
</g>
</g>
<!-- Node2 -->
<g id="node2" class="node">
<title>Node2</title>
<g id="a_node2"><a xlink:href="../../d0/db3/classCUnitDefinition.html" target="_top" xlink:title=" ">
<polygon fill="white" stroke="black" points="0,-0.5 0,-19.5 81,-19.5 81,-0.5 0,-0.5"/>
<text text-anchor="middle" x="40.5" y="-7.5" font-family="FreeSans" font-size="10.00">CUnitDefinition</text>
</a>
</g>
</g>
<!-- Node1&#45;&gt;Node2 -->
<g id="edge1" class="edge">
<title>Node1&#45;&gt;Node2</title>
<path fill="none" stroke="midnightblue" d="M75.42,-48.72C66.61,-39.2 55.83,-27.56 48.6,-19.75"/>
<polygon fill="midnightblue" stroke="midnightblue" points="72.88,-51.12 82.24,-56.08 78.02,-46.37 72.88,-51.12"/>
</g>
<!-- Node3 -->
<g id="node3" class="node">
<title>Node3</title>
<g id="a_node3"><a xlink:href="../../d2/d7d/classCValidatedUnit.html" target="_top" xlink:title=" ">
<polygon fill="white" stroke="black" points="99.5,-0.5 99.5,-19.5 181.5,-19.5 181.5,-0.5 99.5,-0.5"/>
<text text-anchor="middle" x="140.5" y="-7.5" font-family="FreeSans" font-size="10.00">CValidatedUnit</text>
</a>
</g>
</g>
<!-- Node1&#45;&gt;Node3 -->
<g id="edge2" class="edge">
<title>Node1&#45;&gt;Node3</title>
<path fill="none" stroke="midnightblue" d="M105.58,-48.72C114.39,-39.2 125.17,-27.56 132.4,-19.75"/>
<polygon fill="midnightblue" stroke="midnightblue" points="102.98,-46.37 98.76,-56.08 108.12,-51.12 102.98,-46.37"/>
</g>
</g>
</svg>
