<?xml version="1.0" encoding="UTF-8" standalone="no"?>
<!DOCTYPE svg PUBLIC "-//W3C//DTD SVG 1.1//EN"
 "http://www.w3.org/Graphics/SVG/1.1/DTD/svg11.dtd">
<!-- Generated by graphviz version 2.43.0 (0)
 -->
<!-- Title: CArrayInterface Pages: 1 -->
<svg width="545pt" height="145pt"
 viewBox="0.00 0.00 545.00 145.39" xmlns="http://www.w3.org/2000/svg" xmlns:xlink="http://www.w3.org/1999/xlink">
<g id="graph0" class="graph" transform="scale(1 1) rotate(0) translate(4 141.39)">
<title>CArrayInterface</title>
<polygon fill="white" stroke="transparent" points="-4,4 -4,-141.39 541,-141.39 541,4 -4,4"/>
<!-- Node1 -->
<g id="node1" class="node">
<title>Node1</title>
<g id="a_node1"><a xlink:title=" ">
<polygon fill="#bfbfbf" stroke="black" points="0,-86 0,-105 84,-105 84,-86 0,-86"/>
<text text-anchor="middle" x="42" y="-93" font-family="FreeSans" font-size="10.00">CArrayInterface</text>
</a>
</g>
</g>
<!-- Node2 -->
<g id="node2" class="node">
<title>Node2</title>
<g id="a_node2"><a xlink:href="../../de/d84/classCMatrixInterface.html" target="_top" xlink:title=" ">
<polygon fill="white" stroke="black" points="408,-90.5 408,-120.5 537,-120.5 537,-90.5 408,-90.5"/>
<text text-anchor="start" x="416" y="-108.5" font-family="FreeSans" font-size="10.00">CMatrixInterface&lt; CMatrix</text>
<text text-anchor="middle" x="472.5" y="-97.5" font-family="FreeSans" font-size="10.00">&lt; C_FLOAT64 &gt; &gt;</text>
</a>
</g>
</g>
<!-- Node1&#45;&gt;Node2 -->
<g id="edge1" class="edge">
<title>Node1&#45;&gt;Node2</title>
<path fill="none" stroke="midnightblue" d="M69.67,-109.47C84.38,-116.39 103.21,-123.99 121,-127.5 219.85,-146.99 337.13,-132.15 407.86,-119.18"/>
<polygon fill="midnightblue" stroke="midnightblue" points="71.18,-106.31 60.66,-105.08 68.11,-112.61 71.18,-106.31"/>
</g>
<!-- Node3 -->
<g id="node3" class="node">
<title>Node3</title>
<g id="a_node3"><a xlink:href="../../df/d47/classCArray.html" target="_top" xlink:title=" ">
<polygon fill="white" stroke="black" points="161.5,-99 161.5,-118 207.5,-118 207.5,-99 161.5,-99"/>
<text text-anchor="middle" x="184.5" y="-106" font-family="FreeSans" font-size="10.00">CArray</text>
</a>
</g>
</g>
<!-- Node1&#45;&gt;Node3 -->
<g id="edge2" class="edge">
<title>Node1&#45;&gt;Node3</title>
<path fill="none" stroke="midnightblue" d="M94.06,-100.22C117.21,-102.37 143.37,-104.79 161.39,-106.45"/>
<polygon fill="midnightblue" stroke="midnightblue" points="94.3,-96.73 84.02,-99.3 93.65,-103.7 94.3,-96.73"/>
</g>
<!-- Node4 -->
<g id="node4" class="node">
<title>Node4</title>
<g id="a_node4"><a xlink:href="../../de/d84/classCMatrixInterface.html" target="_top" xlink:title=" ">
<polygon fill="white" stroke="black" points="123.5,-49.5 123.5,-79.5 245.5,-79.5 245.5,-49.5 123.5,-49.5"/>
<text text-anchor="start" x="131.5" y="-67.5" font-family="FreeSans" font-size="10.00">CMatrixInterface&lt; Matrix</text>
<text text-anchor="middle" x="184.5" y="-56.5" font-family="FreeSans" font-size="10.00">Type &gt;</text>
</a>
</g>
</g>
<!-- Node1&#45;&gt;Node4 -->
<g id="edge3" class="edge">
<title>Node1&#45;&gt;Node4</title>
<path fill="none" stroke="midnightblue" d="M93.8,-84.29C103.39,-82.17 113.52,-79.94 123.37,-77.77"/>
<polygon fill="midnightblue" stroke="midnightblue" points="93.03,-80.88 84.02,-86.45 94.54,-87.71 93.03,-80.88"/>
</g>
<!-- Node5 -->
<g id="node5" class="node">
<title>Node5</title>
<g id="a_node5"><a xlink:href="../../d1/dfb/classCVectorInterface.html" target="_top" xlink:title=" ">
<polygon fill="white" stroke="black" points="121,-0.5 121,-30.5 248,-30.5 248,-0.5 121,-0.5"/>
<text text-anchor="start" x="129" y="-18.5" font-family="FreeSans" font-size="10.00">CVectorInterface&lt; Vector</text>
<text text-anchor="middle" x="184.5" y="-7.5" font-family="FreeSans" font-size="10.00">Type &gt;</text>
</a>
</g>
</g>
<!-- Node1&#45;&gt;Node5 -->
<g id="edge5" class="edge">
<title>Node1&#45;&gt;Node5</title>
<path fill="none" stroke="midnightblue" d="M62.4,-79.42C77.64,-67.33 99.78,-50.94 121,-39.5 126.93,-36.3 133.39,-33.32 139.82,-30.62"/>
<polygon fill="midnightblue" stroke="midnightblue" points="59.86,-76.97 54.28,-85.97 64.26,-82.42 59.86,-76.97"/>
</g>
<!-- Node4&#45;&gt;Node2 -->
<g id="edge4" class="edge">
<title>Node4&#45;&gt;Node2</title>
<path fill="none" stroke="orange" stroke-dasharray="5,2" d="M255.8,-74.58C302.28,-81.24 362.73,-89.91 407.81,-96.37"/>
<polygon fill="orange" stroke="orange" points="256.2,-71.1 245.8,-73.14 255.21,-78.03 256.2,-71.1"/>
<text text-anchor="middle" x="328" y="-95.5" font-family="FreeSans" font-size="10.00"> &lt; CMatrix&lt; C_FLOAT64 &gt; &gt;</text>
</g>
</g>
</svg>
