<?xml version="1.0" encoding="UTF-8" standalone="no"?>
<!DOCTYPE svg PUBLIC "-//W3C//DTD SVG 1.1//EN"
 "http://www.w3.org/Graphics/SVG/1.1/DTD/svg11.dtd">
<!-- Generated by graphviz version 2.43.0 (0)
 -->
<!-- Title: CAnalyticsMethod Pages: 1 -->
<svg width="230pt" height="364pt"
 viewBox="0.00 0.00 229.50 364.00" xmlns="http://www.w3.org/2000/svg" xmlns:xlink="http://www.w3.org/1999/xlink">
<g id="graph0" class="graph" transform="scale(1 1) rotate(0) translate(4 360)">
<title>CAnalyticsMethod</title>
<polygon fill="white" stroke="transparent" points="-4,4 -4,-360 225.5,-360 225.5,4 -4,4"/>
<!-- Node1 -->
<g id="node1" class="node">
<title>Node1</title>
<g id="a_node1"><a xlink:title=" ">
<polygon fill="#bfbfbf" stroke="black" points="57.5,-0.5 57.5,-19.5 152.5,-19.5 152.5,-0.5 57.5,-0.5"/>
<text text-anchor="middle" x="105" y="-7.5" font-family="FreeSans" font-size="10.00">CAnalyticsMethod</text>
</a>
</g>
</g>
<!-- Node2 -->
<g id="node2" class="node">
<title>Node2</title>
<g id="a_node2"><a xlink:href="../../df/d49/classCCopasiMethod.html" target="_top" xlink:title=" ">
<polygon fill="white" stroke="black" points="62,-56.5 62,-75.5 148,-75.5 148,-56.5 62,-56.5"/>
<text text-anchor="middle" x="105" y="-63.5" font-family="FreeSans" font-size="10.00">CCopasiMethod</text>
</a>
</g>
</g>
<!-- Node2&#45;&gt;Node1 -->
<g id="edge1" class="edge">
<title>Node2&#45;&gt;Node1</title>
<path fill="none" stroke="midnightblue" d="M105,-45.8C105,-36.91 105,-26.78 105,-19.75"/>
<polygon fill="midnightblue" stroke="midnightblue" points="101.5,-46.08 105,-56.08 108.5,-46.08 101.5,-46.08"/>
</g>
<!-- Node3 -->
<g id="node3" class="node">
<title>Node3</title>
<g id="a_node3"><a xlink:href="../../df/d89/classCCopasiParameterGroup.html" target="_top" xlink:title=" ">
<polygon fill="white" stroke="black" points="42.5,-112.5 42.5,-131.5 167.5,-131.5 167.5,-112.5 42.5,-112.5"/>
<text text-anchor="middle" x="105" y="-119.5" font-family="FreeSans" font-size="10.00">CCopasiParameterGroup</text>
</a>
</g>
</g>
<!-- Node3&#45;&gt;Node2 -->
<g id="edge2" class="edge">
<title>Node3&#45;&gt;Node2</title>
<path fill="none" stroke="midnightblue" d="M105,-101.8C105,-92.91 105,-82.78 105,-75.75"/>
<polygon fill="midnightblue" stroke="midnightblue" points="101.5,-102.08 105,-112.08 108.5,-102.08 101.5,-102.08"/>
</g>
<!-- Node4 -->
<g id="node4" class="node">
<title>Node4</title>
<g id="a_node4"><a xlink:href="../../d5/db6/classCCopasiParameter.html" target="_top" xlink:title=" ">
<polygon fill="white" stroke="black" points="56,-168.5 56,-187.5 154,-187.5 154,-168.5 56,-168.5"/>
<text text-anchor="middle" x="105" y="-175.5" font-family="FreeSans" font-size="10.00">CCopasiParameter</text>
</a>
</g>
</g>
<!-- Node4&#45;&gt;Node3 -->
<g id="edge3" class="edge">
<title>Node4&#45;&gt;Node3</title>
<path fill="none" stroke="midnightblue" d="M105,-157.8C105,-148.91 105,-138.78 105,-131.75"/>
<polygon fill="midnightblue" stroke="midnightblue" points="101.5,-158.08 105,-168.08 108.5,-158.08 101.5,-158.08"/>
</g>
<!-- Node5 -->
<g id="node5" class="node">
<title>Node5</title>
<g id="a_node5"><a xlink:href="../../d3/db9/classCDataContainer.html" target="_top" xlink:title=" ">
<polygon fill="white" stroke="black" points="62.5,-224.5 62.5,-243.5 147.5,-243.5 147.5,-224.5 62.5,-224.5"/>
<text text-anchor="middle" x="105" y="-231.5" font-family="FreeSans" font-size="10.00">CDataContainer</text>
</a>
</g>
</g>
<!-- Node5&#45;&gt;Node4 -->
<g id="edge4" class="edge">
<title>Node5&#45;&gt;Node4</title>
<path fill="none" stroke="midnightblue" d="M105,-213.8C105,-204.91 105,-194.78 105,-187.75"/>
<polygon fill="midnightblue" stroke="midnightblue" points="101.5,-214.08 105,-224.08 108.5,-214.08 101.5,-214.08"/>
</g>
<!-- Node6 -->
<g id="node6" class="node">
<title>Node6</title>
<g id="a_node6"><a xlink:href="../../d1/d6b/classCDataObject.html" target="_top" xlink:title=" ">
<polygon fill="white" stroke="black" points="69,-280.5 69,-299.5 141,-299.5 141,-280.5 69,-280.5"/>
<text text-anchor="middle" x="105" y="-287.5" font-family="FreeSans" font-size="10.00">CDataObject</text>
</a>
</g>
</g>
<!-- Node6&#45;&gt;Node5 -->
<g id="edge5" class="edge">
<title>Node6&#45;&gt;Node5</title>
<path fill="none" stroke="midnightblue" d="M105,-269.8C105,-260.91 105,-250.78 105,-243.75"/>
<polygon fill="midnightblue" stroke="midnightblue" points="101.5,-270.08 105,-280.08 108.5,-270.08 101.5,-270.08"/>
</g>
<!-- Node7 -->
<g id="node7" class="node">
<title>Node7</title>
<g id="a_node7"><a xlink:href="../../df/dfa/classCObjectInterface.html" target="_top" xlink:title=" ">
<polygon fill="white" stroke="black" points="0,-336.5 0,-355.5 90,-355.5 90,-336.5 0,-336.5"/>
<text text-anchor="middle" x="45" y="-343.5" font-family="FreeSans" font-size="10.00">CObjectInterface</text>
</a>
</g>
</g>
<!-- Node7&#45;&gt;Node6 -->
<g id="edge6" class="edge">
<title>Node7&#45;&gt;Node6</title>
<path fill="none" stroke="midnightblue" d="M62.18,-329.54C72.88,-319.91 86.26,-307.87 95.18,-299.83"/>
<polygon fill="midnightblue" stroke="midnightblue" points="59.73,-327.03 54.64,-336.32 64.41,-332.24 59.73,-327.03"/>
</g>
<!-- Node8 -->
<g id="node8" class="node">
<title>Node8</title>
<g id="a_node8"><a xlink:href="../../d8/d53/classCUndoObjectInterface.html" target="_top" xlink:title=" ">
<polygon fill="white" stroke="black" points="108.5,-336.5 108.5,-355.5 221.5,-355.5 221.5,-336.5 108.5,-336.5"/>
<text text-anchor="middle" x="165" y="-343.5" font-family="FreeSans" font-size="10.00">CUndoObjectInterface</text>
</a>
</g>
</g>
<!-- Node8&#45;&gt;Node6 -->
<g id="edge7" class="edge">
<title>Node8&#45;&gt;Node6</title>
<path fill="none" stroke="midnightblue" d="M147.82,-329.54C137.12,-319.91 123.74,-307.87 114.82,-299.83"/>
<polygon fill="midnightblue" stroke="midnightblue" points="145.59,-332.24 155.36,-336.32 150.27,-327.03 145.59,-332.24"/>
</g>
</g>
</svg>
