<?xml version="1.0" encoding="UTF-8" standalone="no"?>
<!DOCTYPE svg PUBLIC "-//W3C//DTD SVG 1.1//EN"
 "http://www.w3.org/Graphics/SVG/1.1/DTD/svg11.dtd">
<!-- Generated by graphviz version 2.43.0 (0)
 -->
<!-- Title: CLGroup Pages: 1 -->
<svg width="364pt" height="308pt"
 viewBox="0.00 0.00 364.00 308.00" xmlns="http://www.w3.org/2000/svg" xmlns:xlink="http://www.w3.org/1999/xlink">
<g id="graph0" class="graph" transform="scale(1 1) rotate(0) translate(4 304)">
<title>CLGroup</title>
<polygon fill="white" stroke="transparent" points="-4,4 -4,-304 360,-304 360,4 -4,4"/>
<!-- Node1 -->
<g id="node1" class="node">
<title>Node1</title>
<g id="a_node1"><a xlink:title=" ">
<polygon fill="#bfbfbf" stroke="black" points="92.5,-0.5 92.5,-19.5 148.5,-19.5 148.5,-0.5 92.5,-0.5"/>
<text text-anchor="middle" x="120.5" y="-7.5" font-family="FreeSans" font-size="10.00">CLGroup</text>
</a>
</g>
</g>
<!-- Node2 -->
<g id="node2" class="node">
<title>Node2</title>
<g id="a_node2"><a xlink:href="../../dc/d2d/classCLGraphicalPrimitive2D.html" target="_top" xlink:title=" ">
<polygon fill="white" stroke="black" points="0,-56.5 0,-75.5 121,-75.5 121,-56.5 0,-56.5"/>
<text text-anchor="middle" x="60.5" y="-63.5" font-family="FreeSans" font-size="10.00">CLGraphicalPrimitive2D</text>
</a>
</g>
</g>
<!-- Node2&#45;&gt;Node1 -->
<g id="edge1" class="edge">
<title>Node2&#45;&gt;Node1</title>
<path fill="none" stroke="midnightblue" d="M77.68,-49.54C88.38,-39.91 101.76,-27.87 110.68,-19.83"/>
<polygon fill="midnightblue" stroke="midnightblue" points="75.23,-47.03 70.14,-56.32 79.91,-52.24 75.23,-47.03"/>
</g>
<!-- Node3 -->
<g id="node3" class="node">
<title>Node3</title>
<g id="a_node3"><a xlink:href="../../de/db3/classCLGraphicalPrimitive1D.html" target="_top" xlink:title=" ">
<polygon fill="white" stroke="black" points="0,-112.5 0,-131.5 121,-131.5 121,-112.5 0,-112.5"/>
<text text-anchor="middle" x="60.5" y="-119.5" font-family="FreeSans" font-size="10.00">CLGraphicalPrimitive1D</text>
</a>
</g>
</g>
<!-- Node3&#45;&gt;Node2 -->
<g id="edge2" class="edge">
<title>Node3&#45;&gt;Node2</title>
<path fill="none" stroke="midnightblue" d="M60.5,-101.8C60.5,-92.91 60.5,-82.78 60.5,-75.75"/>
<polygon fill="midnightblue" stroke="midnightblue" points="57,-102.08 60.5,-112.08 64,-102.08 57,-102.08"/>
</g>
<!-- Node4 -->
<g id="node4" class="node">
<title>Node4</title>
<g id="a_node4"><a xlink:href="../../d4/d0b/classCLTransformation2D.html" target="_top" xlink:title=" ">
<polygon fill="white" stroke="black" points="7,-168.5 7,-187.5 114,-187.5 114,-168.5 7,-168.5"/>
<text text-anchor="middle" x="60.5" y="-175.5" font-family="FreeSans" font-size="10.00">CLTransformation2D</text>
</a>
</g>
</g>
<!-- Node4&#45;&gt;Node3 -->
<g id="edge3" class="edge">
<title>Node4&#45;&gt;Node3</title>
<path fill="none" stroke="midnightblue" d="M60.5,-157.8C60.5,-148.91 60.5,-138.78 60.5,-131.75"/>
<polygon fill="midnightblue" stroke="midnightblue" points="57,-158.08 60.5,-168.08 64,-158.08 57,-158.08"/>
</g>
<!-- Node5 -->
<g id="node5" class="node">
<title>Node5</title>
<g id="a_node5"><a xlink:href="../../dd/d1f/classCLTransformation.html" target="_top" xlink:title=" ">
<polygon fill="white" stroke="black" points="13,-224.5 13,-243.5 108,-243.5 108,-224.5 13,-224.5"/>
<text text-anchor="middle" x="60.5" y="-231.5" font-family="FreeSans" font-size="10.00">CLTransformation</text>
</a>
</g>
</g>
<!-- Node5&#45;&gt;Node4 -->
<g id="edge4" class="edge">
<title>Node5&#45;&gt;Node4</title>
<path fill="none" stroke="midnightblue" d="M60.5,-213.8C60.5,-204.91 60.5,-194.78 60.5,-187.75"/>
<polygon fill="midnightblue" stroke="midnightblue" points="57,-214.08 60.5,-224.08 64,-214.08 57,-214.08"/>
</g>
<!-- Node6 -->
<g id="node6" class="node">
<title>Node6</title>
<g id="a_node6"><a xlink:href="../../d7/df9/classCLBase.html" target="_top" xlink:title=" ">
<polygon fill="white" stroke="black" points="34.5,-280.5 34.5,-299.5 86.5,-299.5 86.5,-280.5 34.5,-280.5"/>
<text text-anchor="middle" x="60.5" y="-287.5" font-family="FreeSans" font-size="10.00">CLBase</text>
</a>
</g>
</g>
<!-- Node6&#45;&gt;Node5 -->
<g id="edge5" class="edge">
<title>Node6&#45;&gt;Node5</title>
<path fill="none" stroke="midnightblue" d="M60.5,-269.8C60.5,-260.91 60.5,-250.78 60.5,-243.75"/>
<polygon fill="midnightblue" stroke="midnightblue" points="57,-270.08 60.5,-280.08 64,-270.08 57,-270.08"/>
</g>
<!-- Node7 -->
<g id="node7" class="node">
<title>Node7</title>
<g id="a_node7"><a xlink:href="../../d3/db9/classCDataContainer.html" target="_top" xlink:title=" ">
<polygon fill="white" stroke="black" points="139,-56.5 139,-75.5 224,-75.5 224,-56.5 139,-56.5"/>
<text text-anchor="middle" x="181.5" y="-63.5" font-family="FreeSans" font-size="10.00">CDataContainer</text>
</a>
</g>
</g>
<!-- Node7&#45;&gt;Node1 -->
<g id="edge6" class="edge">
<title>Node7&#45;&gt;Node1</title>
<path fill="none" stroke="midnightblue" d="M164.03,-49.54C153.16,-39.91 139.56,-27.87 130.48,-19.83"/>
<polygon fill="midnightblue" stroke="midnightblue" points="161.89,-52.32 171.7,-56.32 166.53,-47.07 161.89,-52.32"/>
</g>
<!-- Node8 -->
<g id="node8" class="node">
<title>Node8</title>
<g id="a_node8"><a xlink:href="../../d1/d6b/classCDataObject.html" target="_top" xlink:title=" ">
<polygon fill="white" stroke="black" points="145.5,-112.5 145.5,-131.5 217.5,-131.5 217.5,-112.5 145.5,-112.5"/>
<text text-anchor="middle" x="181.5" y="-119.5" font-family="FreeSans" font-size="10.00">CDataObject</text>
</a>
</g>
</g>
<!-- Node8&#45;&gt;Node7 -->
<g id="edge7" class="edge">
<title>Node8&#45;&gt;Node7</title>
<path fill="none" stroke="midnightblue" d="M181.5,-101.8C181.5,-92.91 181.5,-82.78 181.5,-75.75"/>
<polygon fill="midnightblue" stroke="midnightblue" points="178,-102.08 181.5,-112.08 185,-102.08 178,-102.08"/>
</g>
<!-- Node9 -->
<g id="node9" class="node">
<title>Node9</title>
<g id="a_node9"><a xlink:href="../../df/dfa/classCObjectInterface.html" target="_top" xlink:title=" ">
<polygon fill="white" stroke="black" points="134.5,-168.5 134.5,-187.5 224.5,-187.5 224.5,-168.5 134.5,-168.5"/>
<text text-anchor="middle" x="179.5" y="-175.5" font-family="FreeSans" font-size="10.00">CObjectInterface</text>
</a>
</g>
</g>
<!-- Node9&#45;&gt;Node8 -->
<g id="edge8" class="edge">
<title>Node9&#45;&gt;Node8</title>
<path fill="none" stroke="midnightblue" d="M180.21,-157.8C180.54,-148.91 180.92,-138.78 181.18,-131.75"/>
<polygon fill="midnightblue" stroke="midnightblue" points="176.7,-157.96 179.83,-168.08 183.7,-158.22 176.7,-157.96"/>
</g>
<!-- Node10 -->
<g id="node10" class="node">
<title>Node10</title>
<g id="a_node10"><a xlink:href="../../d8/d53/classCUndoObjectInterface.html" target="_top" xlink:title=" ">
<polygon fill="white" stroke="black" points="243,-168.5 243,-187.5 356,-187.5 356,-168.5 243,-168.5"/>
<text text-anchor="middle" x="299.5" y="-175.5" font-family="FreeSans" font-size="10.00">CUndoObjectInterface</text>
</a>
</g>
</g>
<!-- Node10&#45;&gt;Node8 -->
<g id="edge9" class="edge">
<title>Node10&#45;&gt;Node8</title>
<path fill="none" stroke="midnightblue" d="M271.6,-164.23C249.53,-154.13 219.32,-140.31 200.11,-131.52"/>
<polygon fill="midnightblue" stroke="midnightblue" points="270.25,-167.46 280.8,-168.44 273.17,-161.1 270.25,-167.46"/>
</g>
</g>
</svg>
