<?xml version="1.0" encoding="UTF-8" standalone="no"?>
<!DOCTYPE svg PUBLIC "-//W3C//DTD SVG 1.1//EN"
 "http://www.w3.org/Graphics/SVG/1.1/DTD/svg11.dtd">
<!-- Generated by graphviz version 2.43.0 (0)
 -->
<!-- Title: CDataVectorN&lt; CType &gt; Pages: 1 -->
<!--zoomable 666 -->
<svg id="main" version="1.1" xmlns="http://www.w3.org/2000/svg" xmlns:xlink="http://www.w3.org/1999/xlink" xml:space="preserve" onload="init(evt)">
<style type="text/css"><![CDATA[
.edge:hover path { stroke: red; }
.edge:hover polygon { stroke: red; fill: red; }
]]></style>
<script type="text/javascript"><![CDATA[
var edges = document.getElementsByTagName('g');
if (edges && edges.length) {
  for (var i=0;i<edges.length;i++) {
    if (edges[i].id.substr(0,4)=='edge') {
      edges[i].setAttribute('class','edge');
    }
  }
}
]]></script>
        <defs>
                <circle id="rim" cx="0" cy="0" r="7"/>
                <circle id="rim2" cx="0" cy="0" r="3.5"/>
                <g id="zoomPlus">
                        <use xlink:href="#rim" fill="#404040">
                                <set attributeName="fill" to="#808080" begin="zoomplus.mouseover" end="zoomplus.mouseout"/>
                        </use>
                        <path d="M-4,0h8M0,-4v8" fill="none" stroke="white" stroke-width="1.5" pointer-events="none"/>
                </g>
                <g id="zoomMin">
                        <use xlink:href="#rim" fill="#404040">
                                <set attributeName="fill" to="#808080" begin="zoomminus.mouseover" end="zoomminus.mouseout"/>
                        </use>
                        <path d="M-4,0h8" fill="none" stroke="white" stroke-width="1.5" pointer-events="none"/>
                </g>
                <g id="dirArrow">
                        <path fill="none" stroke="white" stroke-width="1.5" d="M0,-3.0v7 M-2.5,-0.5L0,-3.0L2.5,-0.5"/>
                </g>
               <g id="resetDef">
                       <use xlink:href="#rim2" fill="#404040">
                               <set attributeName="fill" to="#808080" begin="reset.mouseover" end="reset.mouseout"/>
                       </use>
               </g>
        </defs>

<script type="text/javascript">
var viewWidth = 1306;
var viewHeight = 666;
var sectionId = 'dynsection-0';
</script>
<script xlink:href="../../svgpan.js"/>
<svg id="graph" class="graph">
<g id="viewport">
<title>CDataVectorN&lt; CType &gt;</title>
<polygon fill="white" stroke="transparent" points="-4,4 -4,-662.1 1302,-662.1 1302,4 -4,4"/>
<!-- Node1 -->
<g id="node1" class="node">
<title>Node1</title>
<g id="a_node1"><a xlink:title=" ">
<polygon fill="#bfbfbf" stroke="black" points="534,-290.08 534,-309.08 658,-309.08 658,-290.08 534,-290.08"/>
<text text-anchor="middle" x="596" y="-297.08" font-family="FreeSans" font-size="10.00">CDataVectorN&lt; CType &gt;</text>
</a>
</g>
</g>
<!-- Node8 -->
<g id="node8" class="node">
<title>Node8</title>
<g id="a_node8"><a xlink:href="../../d7/d34/classCDataVectorNS.html" target="_top" xlink:title=" ">
<polygon fill="white" stroke="black" points="1140,-544.08 1140,-563.08 1288,-563.08 1288,-544.08 1140,-544.08"/>
<text text-anchor="middle" x="1214" y="-551.08" font-family="FreeSans" font-size="10.00">CDataVectorNS&lt; CReaction &gt;</text>
</a>
</g>
</g>
<!-- Node1&#45;&gt;Node8 -->
<g id="edge7" class="edge">
<title>Node1&#45;&gt;Node8</title>
<path fill="none" stroke="midnightblue" d="M598.98,-319.35C604.09,-359.59 621.4,-451.34 676,-500.58 823,-633.16 917.24,-627.01 1112,-591.58 1141.68,-586.18 1173.97,-572.54 1193.86,-563.17"/>
<polygon fill="midnightblue" stroke="midnightblue" points="602.44,-318.78 597.82,-309.24 595.49,-319.58 602.44,-318.78"/>
</g>
<!-- Node9 -->
<g id="node9" class="node">
<title>Node9</title>
<g id="a_node9"><a xlink:href="../../d7/d34/classCDataVectorNS.html" target="_top" xlink:title=" ">
<polygon fill="white" stroke="black" points="1144.5,-609.58 1144.5,-639.58 1283.5,-639.58 1283.5,-609.58 1144.5,-609.58"/>
<text text-anchor="start" x="1152.5" y="-627.58" font-family="FreeSans" font-size="10.00">CDataVectorNS&lt; CFunction</text>
<text text-anchor="middle" x="1214" y="-616.58" font-family="FreeSans" font-size="10.00">Parameter &gt;</text>
</a>
</g>
</g>
<!-- Node1&#45;&gt;Node9 -->
<g id="edge8" class="edge">
<title>Node1&#45;&gt;Node9</title>
<path fill="none" stroke="midnightblue" d="M597.89,-319.41C600.97,-365.89 614.75,-483.29 676,-553.58 793.54,-688.46 1032.96,-662.08 1148.19,-639.63"/>
<polygon fill="midnightblue" stroke="midnightblue" points="601.37,-318.97 597.31,-309.19 594.38,-319.37 601.37,-318.97"/>
</g>
<!-- Node10 -->
<g id="node10" class="node">
<title>Node10</title>
<g id="a_node10"><a xlink:href="../../d7/d34/classCDataVectorNS.html" target="_top" xlink:title=" ">
<polygon fill="white" stroke="black" points="1130,-431.08 1130,-450.08 1298,-450.08 1298,-431.08 1130,-431.08"/>
<text text-anchor="middle" x="1214" y="-438.08" font-family="FreeSans" font-size="10.00">CDataVectorNS&lt; CCompartment &gt;</text>
</a>
</g>
</g>
<!-- Node1&#45;&gt;Node10 -->
<g id="edge9" class="edge">
<title>Node1&#45;&gt;Node10</title>
<path fill="none" stroke="midnightblue" d="M608.57,-317.58C622.15,-337.02 646.59,-367.13 676,-381.58 686.07,-386.53 981.57,-417.09 1129.83,-432.17"/>
<polygon fill="midnightblue" stroke="midnightblue" points="611.45,-315.59 602.96,-309.25 605.64,-319.5 611.45,-315.59"/>
</g>
<!-- Node11 -->
<g id="node11" class="node">
<title>Node11</title>
<g id="a_node11"><a xlink:href="../../d7/d34/classCDataVectorNS.html" target="_top" xlink:title=" ">
<polygon fill="white" stroke="black" points="1145.5,-494.08 1145.5,-513.08 1282.5,-513.08 1282.5,-494.08 1145.5,-494.08"/>
<text text-anchor="middle" x="1214" y="-501.08" font-family="FreeSans" font-size="10.00">CDataVectorNS&lt; CMetab &gt;</text>
</a>
</g>
</g>
<!-- Node1&#45;&gt;Node11 -->
<g id="edge10" class="edge">
<title>Node1&#45;&gt;Node11</title>
<path fill="none" stroke="midnightblue" d="M605.69,-318.35C617.81,-342.22 642.16,-382.72 676,-402.58 844.49,-501.48 923.69,-406.52 1112,-458.58 1142.71,-467.07 1176.06,-483.47 1195.72,-493.95"/>
<polygon fill="midnightblue" stroke="midnightblue" points="608.78,-316.71 601.25,-309.25 602.49,-319.77 608.78,-316.71"/>
</g>
<!-- Node12 -->
<g id="node12" class="node">
<title>Node12</title>
<g id="a_node12"><a xlink:href="../../d7/d34/classCDataVectorNS.html" target="_top" xlink:title=" ">
<polygon fill="white" stroke="black" points="830,-502.08 830,-521.08 961,-521.08 961,-502.08 830,-502.08"/>
<text text-anchor="middle" x="895.5" y="-509.08" font-family="FreeSans" font-size="10.00">CDataVectorNS&lt; CType &gt;</text>
</a>
</g>
</g>
<!-- Node1&#45;&gt;Node12 -->
<g id="edge11" class="edge">
<title>Node1&#45;&gt;Node12</title>
<path fill="none" stroke="midnightblue" d="M600.5,-319.29C607.83,-354.49 628.26,-427.99 676,-465.58 719.55,-499.88 782.63,-510.21 829.82,-512.65"/>
<polygon fill="midnightblue" stroke="midnightblue" points="603.9,-318.45 598.56,-309.3 597.03,-319.79 603.9,-318.45"/>
</g>
<!-- Node13 -->
<g id="node13" class="node">
<title>Node13</title>
<g id="a_node13"><a xlink:href="../../dd/d24/classCDataVectorN.html" target="_top" xlink:title=" ">
<polygon fill="white" stroke="black" points="806,-366.08 806,-385.08 985,-385.08 985,-366.08 806,-366.08"/>
<text text-anchor="middle" x="895.5" y="-373.08" font-family="FreeSans" font-size="10.00">CDataVectorN&lt; CEventAssignment &gt;</text>
</a>
</g>
</g>
<!-- Node1&#45;&gt;Node13 -->
<g id="edge16" class="edge">
<title>Node1&#45;&gt;Node13</title>
<path fill="none" stroke="orange" stroke-dasharray="5,2" d="M619.6,-314.65C634.89,-324.14 655.9,-335.83 676,-342.58 717.55,-356.54 765.53,-364.61 805.93,-369.27"/>
<polygon fill="orange" stroke="orange" points="621.18,-311.51 610.87,-309.09 617.42,-317.41 621.18,-311.51"/>
<text text-anchor="middle" x="732" y="-369.58" font-family="FreeSans" font-size="10.00"> &lt; CEventAssignment &gt;</text>
</g>
<!-- Node14 -->
<g id="node14" class="node">
<title>Node14</title>
<g id="a_node14"><a xlink:href="../../dd/d24/classCDataVectorN.html" target="_top" xlink:title=" ">
<polygon fill="white" stroke="black" points="818,-328.08 818,-347.08 973,-347.08 973,-328.08 818,-328.08"/>
<text text-anchor="middle" x="895.5" y="-335.08" font-family="FreeSans" font-size="10.00">CDataVectorN&lt; CCopasiTask &gt;</text>
</a>
</g>
</g>
<!-- Node1&#45;&gt;Node14 -->
<g id="edge17" class="edge">
<title>Node1&#45;&gt;Node14</title>
<path fill="none" stroke="orange" stroke-dasharray="5,2" d="M653.76,-310.94C661.22,-312.26 668.78,-313.52 676,-314.58 722.98,-321.5 775.94,-327.13 817.96,-331.09"/>
<polygon fill="orange" stroke="orange" points="654.14,-307.45 643.68,-309.11 652.89,-314.34 654.14,-307.45"/>
<text text-anchor="middle" x="732" y="-330.58" font-family="FreeSans" font-size="10.00"> &lt; CCopasiTask &gt;</text>
</g>
<!-- Node15 -->
<g id="node15" class="node">
<title>Node15</title>
<g id="a_node15"><a xlink:href="../../dd/d24/classCDataVectorN.html" target="_top" xlink:title=" ">
<polygon fill="white" stroke="black" points="829.5,-290.08 829.5,-309.08 961.5,-309.08 961.5,-290.08 829.5,-290.08"/>
<text text-anchor="middle" x="895.5" y="-297.08" font-family="FreeSans" font-size="10.00">CDataVectorN&lt; CLayout &gt;</text>
</a>
</g>
</g>
<!-- Node1&#45;&gt;Node15 -->
<g id="edge18" class="edge">
<title>Node1&#45;&gt;Node15</title>
<path fill="none" stroke="orange" stroke-dasharray="5,2" d="M668.49,-299.58C717.46,-299.58 781.9,-299.58 829.43,-299.58"/>
<polygon fill="orange" stroke="orange" points="668.28,-296.08 658.28,-299.58 668.28,-303.08 668.28,-296.08"/>
<text text-anchor="middle" x="732" y="-302.58" font-family="FreeSans" font-size="10.00"> &lt; CLayout &gt;</text>
</g>
<!-- Node17 -->
<g id="node17" class="node">
<title>Node17</title>
<g id="a_node17"><a xlink:href="../../dd/d24/classCDataVectorN.html" target="_top" xlink:title=" ">
<polygon fill="white" stroke="black" points="815,-252.08 815,-271.08 976,-271.08 976,-252.08 815,-252.08"/>
<text text-anchor="middle" x="895.5" y="-259.08" font-family="FreeSans" font-size="10.00">CDataVectorN&lt; CUnitDefinition &gt;</text>
</a>
</g>
</g>
<!-- Node1&#45;&gt;Node17 -->
<g id="edge20" class="edge">
<title>Node1&#45;&gt;Node17</title>
<path fill="none" stroke="orange" stroke-dasharray="5,2" d="M653.76,-288.22C661.22,-286.9 668.78,-285.64 676,-284.58 721.85,-277.83 773.4,-272.3 814.9,-268.36"/>
<polygon fill="orange" stroke="orange" points="652.89,-284.82 643.68,-290.06 654.14,-291.71 652.89,-284.82"/>
<text text-anchor="middle" x="732" y="-287.58" font-family="FreeSans" font-size="10.00"> &lt; CUnitDefinition &gt;</text>
</g>
<!-- Node19 -->
<g id="node19" class="node">
<title>Node19</title>
<g id="a_node19"><a xlink:href="../../dd/d24/classCDataVectorN.html" target="_top" xlink:title=" ">
<polygon fill="white" stroke="black" points="807.5,-214.08 807.5,-233.08 983.5,-233.08 983.5,-214.08 807.5,-214.08"/>
<text text-anchor="middle" x="895.5" y="-221.08" font-family="FreeSans" font-size="10.00">CDataVectorN&lt; CPlotSpecification &gt;</text>
</a>
</g>
</g>
<!-- Node1&#45;&gt;Node19 -->
<g id="edge22" class="edge">
<title>Node1&#45;&gt;Node19</title>
<path fill="none" stroke="orange" stroke-dasharray="5,2" d="M619.6,-284.51C634.89,-275.03 655.9,-263.34 676,-256.58 718,-242.47 766.58,-234.37 807.25,-229.74"/>
<polygon fill="orange" stroke="orange" points="617.42,-281.75 610.87,-290.07 621.18,-287.65 617.42,-281.75"/>
<text text-anchor="middle" x="732" y="-259.58" font-family="FreeSans" font-size="10.00"> &lt; CPlotSpecification &gt;</text>
</g>
<!-- Node21 -->
<g id="node21" class="node">
<title>Node21</title>
<g id="a_node21"><a xlink:href="../../dd/d24/classCDataVectorN.html" target="_top" xlink:title=" ">
<polygon fill="white" stroke="black" points="812.5,-164.58 812.5,-194.58 978.5,-194.58 978.5,-164.58 812.5,-164.58"/>
<text text-anchor="start" x="820.5" y="-182.58" font-family="FreeSans" font-size="10.00">CDataVectorN&lt; CModelParameter</text>
<text text-anchor="middle" x="895.5" y="-171.58" font-family="FreeSans" font-size="10.00">Set &gt;</text>
</a>
</g>
</g>
<!-- Node1&#45;&gt;Node21 -->
<g id="edge24" class="edge">
<title>Node1&#45;&gt;Node21</title>
<path fill="none" stroke="orange" stroke-dasharray="5,2" d="M608.96,-281.62C622.73,-262.48 647.21,-232.87 676,-217.58 717.74,-195.42 769.69,-185.77 812.46,-181.73"/>
<polygon fill="orange" stroke="orange" points="606.08,-279.62 603.24,-289.83 611.83,-283.62 606.08,-279.62"/>
<text text-anchor="middle" x="732" y="-220.58" font-family="FreeSans" font-size="10.00"> &lt; CModelParameterSet &gt;</text>
</g>
<!-- Node22 -->
<g id="node22" class="node">
<title>Node22</title>
<g id="a_node22"><a xlink:href="../../dd/d24/classCDataVectorN.html" target="_top" xlink:title=" ">
<polygon fill="white" stroke="black" points="831.5,-126.08 831.5,-145.08 959.5,-145.08 959.5,-126.08 831.5,-126.08"/>
<text text-anchor="middle" x="895.5" y="-133.08" font-family="FreeSans" font-size="10.00">CDataVectorN&lt; CEvent &gt;</text>
</a>
</g>
</g>
<!-- Node1&#45;&gt;Node22 -->
<g id="edge25" class="edge">
<title>Node1&#45;&gt;Node22</title>
<path fill="none" stroke="orange" stroke-dasharray="5,2" d="M603.07,-280.04C613.17,-251.02 636.33,-197.14 676,-170.58 721.65,-140.01 784.48,-132.67 831.05,-132.15"/>
<polygon fill="orange" stroke="orange" points="599.65,-279.23 599.83,-289.83 606.29,-281.43 599.65,-279.23"/>
<text text-anchor="middle" x="732" y="-173.58" font-family="FreeSans" font-size="10.00"> &lt; CEvent &gt;</text>
</g>
<!-- Node23 -->
<g id="node23" class="node">
<title>Node23</title>
<g id="a_node23"><a xlink:href="../../dd/d24/classCDataVectorN.html" target="_top" xlink:title=" ">
<polygon fill="white" stroke="black" points="825.5,-88.08 825.5,-107.08 965.5,-107.08 965.5,-88.08 825.5,-88.08"/>
<text text-anchor="middle" x="895.5" y="-95.08" font-family="FreeSans" font-size="10.00">CDataVectorN&lt; CFunction &gt;</text>
</a>
</g>
</g>
<!-- Node1&#45;&gt;Node23 -->
<g id="edge26" class="edge">
<title>Node1&#45;&gt;Node23</title>
<path fill="none" stroke="orange" stroke-dasharray="5,2" d="M599.37,-279.43C605.02,-241.36 623.02,-159.21 676,-120.58 719.07,-89.17 780.23,-85.2 826.9,-88.07"/>
<polygon fill="orange" stroke="orange" points="595.85,-279.36 597.99,-289.73 602.79,-280.29 595.85,-279.36"/>
<text text-anchor="middle" x="732" y="-123.58" font-family="FreeSans" font-size="10.00"> &lt; CFunction &gt;</text>
</g>
<!-- Node24 -->
<g id="node24" class="node">
<title>Node24</title>
<g id="a_node24"><a xlink:href="../../dd/d24/classCDataVectorN.html" target="_top" xlink:title=" ">
<polygon fill="white" stroke="black" points="818.5,-50.08 818.5,-69.08 972.5,-69.08 972.5,-50.08 818.5,-50.08"/>
<text text-anchor="middle" x="895.5" y="-57.08" font-family="FreeSans" font-size="10.00">CDataVectorN&lt; CModelValue &gt;</text>
</a>
</g>
</g>
<!-- Node1&#45;&gt;Node24 -->
<g id="edge27" class="edge">
<title>Node1&#45;&gt;Node24</title>
<path fill="none" stroke="orange" stroke-dasharray="5,2" d="M597.16,-279.74C598.71,-234.57 609.46,-124.08 676,-73.58 727.47,-34.51 806.94,-41.16 854.52,-50.03"/>
<polygon fill="orange" stroke="orange" points="593.66,-279.67 596.93,-289.74 600.66,-279.82 593.66,-279.67"/>
<text text-anchor="middle" x="732" y="-76.58" font-family="FreeSans" font-size="10.00"> &lt; CModelValue &gt;</text>
</g>
<!-- Node25 -->
<g id="node25" class="node">
<title>Node25</title>
<g id="a_node25"><a xlink:href="../../dd/d24/classCDataVectorN.html" target="_top" xlink:title=" ">
<polygon fill="white" stroke="black" points="810,-12.08 810,-31.08 981,-31.08 981,-12.08 810,-12.08"/>
<text text-anchor="middle" x="895.5" y="-19.08" font-family="FreeSans" font-size="10.00">CDataVectorN&lt; CReportDefinition &gt;</text>
</a>
</g>
</g>
<!-- Node1&#45;&gt;Node25 -->
<g id="edge28" class="edge">
<title>Node1&#45;&gt;Node25</title>
<path fill="none" stroke="orange" stroke-dasharray="5,2" d="M599.74,-279.91C608.11,-223 635.25,-60.18 676,-28.58 729.99,13.28 816.08,-0.26 862.44,-12"/>
<polygon fill="orange" stroke="orange" points="596.28,-279.42 598.32,-289.81 603.2,-280.41 596.28,-279.42"/>
<text text-anchor="middle" x="732" y="-31.58" font-family="FreeSans" font-size="10.00"> &lt; CReportDefinition &gt;</text>
</g>
<!-- Node2 -->
<g id="node2" class="node">
<title>Node2</title>
<g id="a_node2"><a xlink:href="../../db/d30/classCDataVector.html" target="_top" xlink:title=" ">
<polygon fill="white" stroke="black" points="381,-290.08 381,-309.08 497,-309.08 497,-290.08 381,-290.08"/>
<text text-anchor="middle" x="439" y="-297.08" font-family="FreeSans" font-size="10.00">CDataVector&lt; CType &gt;</text>
</a>
</g>
</g>
<!-- Node2&#45;&gt;Node1 -->
<g id="edge1" class="edge">
<title>Node2&#45;&gt;Node1</title>
<path fill="none" stroke="midnightblue" d="M507.45,-299.58C516.21,-299.58 525.15,-299.58 533.8,-299.58"/>
<polygon fill="midnightblue" stroke="midnightblue" points="507.28,-296.08 497.28,-299.58 507.28,-303.08 507.28,-296.08"/>
</g>
<!-- Node3 -->
<g id="node3" class="node">
<title>Node3</title>
<g id="a_node3"><a xlink:title=" ">
<polygon fill="white" stroke="#bfbfbf" points="259.5,-306.08 259.5,-325.08 343.5,-325.08 343.5,-306.08 259.5,-306.08"/>
<text text-anchor="middle" x="301.5" y="-313.08" font-family="FreeSans" font-size="10.00">std::vector&lt; T &gt;</text>
</a>
</g>
</g>
<!-- Node3&#45;&gt;Node2 -->
<g id="edge2" class="edge">
<title>Node3&#45;&gt;Node2</title>
<path fill="none" stroke="darkgreen" d="M353.64,-309.54C362.45,-308.5 371.66,-307.41 380.62,-306.36"/>
<polygon fill="darkgreen" stroke="darkgreen" points="353.04,-306.09 343.52,-310.74 353.86,-313.04 353.04,-306.09"/>
</g>
<!-- Node4 -->
<g id="node4" class="node">
<title>Node4</title>
<g id="a_node4"><a xlink:href="../../d3/db9/classCDataContainer.html" target="_top" xlink:title=" ">
<polygon fill="white" stroke="black" points="259,-268.08 259,-287.08 344,-287.08 344,-268.08 259,-268.08"/>
<text text-anchor="middle" x="301.5" y="-275.08" font-family="FreeSans" font-size="10.00">CDataContainer</text>
</a>
</g>
</g>
<!-- Node4&#45;&gt;Node2 -->
<g id="edge3" class="edge">
<title>Node4&#45;&gt;Node2</title>
<path fill="none" stroke="midnightblue" d="M354.21,-285.98C362.87,-287.38 371.89,-288.85 380.68,-290.27"/>
<polygon fill="midnightblue" stroke="midnightblue" points="354.69,-282.51 344.26,-284.36 353.57,-289.42 354.69,-282.51"/>
</g>
<!-- Node5 -->
<g id="node5" class="node">
<title>Node5</title>
<g id="a_node5"><a xlink:href="../../d1/d6b/classCDataObject.html" target="_top" xlink:title=" ">
<polygon fill="white" stroke="black" points="150,-268.08 150,-287.08 222,-287.08 222,-268.08 150,-268.08"/>
<text text-anchor="middle" x="186" y="-275.08" font-family="FreeSans" font-size="10.00">CDataObject</text>
</a>
</g>
</g>
<!-- Node5&#45;&gt;Node4 -->
<g id="edge4" class="edge">
<title>Node5&#45;&gt;Node4</title>
<path fill="none" stroke="midnightblue" d="M232.34,-277.58C241.1,-277.58 250.23,-277.58 258.86,-277.58"/>
<polygon fill="midnightblue" stroke="midnightblue" points="232.29,-274.08 222.29,-277.58 232.29,-281.08 232.29,-274.08"/>
</g>
<!-- Node6 -->
<g id="node6" class="node">
<title>Node6</title>
<g id="a_node6"><a xlink:href="../../df/dfa/classCObjectInterface.html" target="_top" xlink:title=" ">
<polygon fill="white" stroke="black" points="11.5,-287.08 11.5,-306.08 101.5,-306.08 101.5,-287.08 11.5,-287.08"/>
<text text-anchor="middle" x="56.5" y="-294.08" font-family="FreeSans" font-size="10.00">CObjectInterface</text>
</a>
</g>
</g>
<!-- Node6&#45;&gt;Node5 -->
<g id="edge5" class="edge">
<title>Node6&#45;&gt;Node5</title>
<path fill="none" stroke="midnightblue" d="M111.85,-288.48C124.65,-286.57 137.97,-284.59 149.68,-282.84"/>
<polygon fill="midnightblue" stroke="midnightblue" points="111.11,-285.05 101.74,-289.99 112.14,-291.98 111.11,-285.05"/>
</g>
<!-- Node7 -->
<g id="node7" class="node">
<title>Node7</title>
<g id="a_node7"><a xlink:href="../../d8/d53/classCUndoObjectInterface.html" target="_top" xlink:title=" ">
<polygon fill="white" stroke="black" points="0,-249.08 0,-268.08 113,-268.08 113,-249.08 0,-249.08"/>
<text text-anchor="middle" x="56.5" y="-256.08" font-family="FreeSans" font-size="10.00">CUndoObjectInterface</text>
</a>
</g>
</g>
<!-- Node7&#45;&gt;Node5 -->
<g id="edge6" class="edge">
<title>Node7&#45;&gt;Node5</title>
<path fill="none" stroke="midnightblue" d="M123.05,-268.35C132.28,-269.72 141.46,-271.09 149.82,-272.34"/>
<polygon fill="midnightblue" stroke="midnightblue" points="123.46,-264.87 113.05,-266.86 122.43,-271.79 123.46,-264.87"/>
</g>
<!-- Node12&#45;&gt;Node8 -->
<g id="edge12" class="edge">
<title>Node12&#45;&gt;Node8</title>
<path fill="none" stroke="orange" stroke-dasharray="5,2" d="M971.37,-521.52C1022.79,-528.34 1090.67,-537.35 1141.38,-544.08"/>
<polygon fill="orange" stroke="orange" points="971.69,-518.03 961.31,-520.18 970.76,-524.97 971.69,-518.03"/>
<text text-anchor="middle" x="1057.5" y="-542.58" font-family="FreeSans" font-size="10.00"> &lt; CReaction &gt;</text>
</g>
<!-- Node12&#45;&gt;Node9 -->
<g id="edge13" class="edge">
<title>Node12&#45;&gt;Node9</title>
<path fill="none" stroke="orange" stroke-dasharray="5,2" d="M928.61,-525.15C949.64,-533.89 977.8,-545.3 1003,-554.58 1058.18,-574.89 1122.41,-595.93 1165.17,-609.57"/>
<polygon fill="orange" stroke="orange" points="929.77,-521.84 919.19,-521.22 927.07,-528.3 929.77,-521.84"/>
<text text-anchor="middle" x="1057.5" y="-594.58" font-family="FreeSans" font-size="10.00"> &lt; CFunctionParameter &gt;</text>
</g>
<!-- Node12&#45;&gt;Node10 -->
<g id="edge14" class="edge">
<title>Node12&#45;&gt;Node10</title>
<path fill="none" stroke="orange" stroke-dasharray="5,2" d="M948.84,-499.84C1010.95,-485.91 1113.28,-462.95 1170.64,-450.08"/>
<polygon fill="orange" stroke="orange" points="947.85,-496.47 938.86,-502.08 949.38,-503.31 947.85,-496.47"/>
<text text-anchor="middle" x="1057.5" y="-489.58" font-family="FreeSans" font-size="10.00"> &lt; CCompartment &gt;</text>
</g>
<!-- Node12&#45;&gt;Node11 -->
<g id="edge15" class="edge">
<title>Node12&#45;&gt;Node11</title>
<path fill="none" stroke="orange" stroke-dasharray="5,2" d="M971.62,-509.68C1024.34,-508.35 1094.26,-506.58 1145.27,-505.29"/>
<polygon fill="orange" stroke="orange" points="971.22,-506.19 961.31,-509.94 971.4,-513.19 971.22,-506.19"/>
<text text-anchor="middle" x="1057.5" y="-511.58" font-family="FreeSans" font-size="10.00"> &lt; CMetab &gt;</text>
</g>
<!-- Node16 -->
<g id="node16" class="node">
<title>Node16</title>
<g id="a_node16"><a xlink:href="../../d0/d08/classCListOfLayouts.html" target="_top" xlink:title=" ">
<polygon fill="white" stroke="black" points="1171.5,-290.08 1171.5,-309.08 1256.5,-309.08 1256.5,-290.08 1171.5,-290.08"/>
<text text-anchor="middle" x="1214" y="-297.08" font-family="FreeSans" font-size="10.00">CListOfLayouts</text>
</a>
</g>
</g>
<!-- Node15&#45;&gt;Node16 -->
<g id="edge19" class="edge">
<title>Node15&#45;&gt;Node16</title>
<path fill="none" stroke="midnightblue" d="M971.87,-299.58C1034.2,-299.58 1120.42,-299.58 1171.09,-299.58"/>
<polygon fill="midnightblue" stroke="midnightblue" points="971.7,-296.08 961.7,-299.58 971.7,-303.08 971.7,-296.08"/>
</g>
<!-- Node18 -->
<g id="node18" class="node">
<title>Node18</title>
<g id="a_node18"><a xlink:href="../../d4/d26/classCUnitDefinitionDB.html" target="_top" xlink:title=" ">
<polygon fill="white" stroke="black" points="1166.5,-252.08 1166.5,-271.08 1261.5,-271.08 1261.5,-252.08 1166.5,-252.08"/>
<text text-anchor="middle" x="1214" y="-259.08" font-family="FreeSans" font-size="10.00">CUnitDefinitionDB</text>
</a>
</g>
</g>
<!-- Node17&#45;&gt;Node18 -->
<g id="edge21" class="edge">
<title>Node17&#45;&gt;Node18</title>
<path fill="none" stroke="midnightblue" d="M986.73,-261.58C1045.21,-261.58 1118.99,-261.58 1166.1,-261.58"/>
<polygon fill="midnightblue" stroke="midnightblue" points="986.37,-258.08 976.37,-261.58 986.37,-265.08 986.37,-258.08"/>
</g>
<!-- Node20 -->
<g id="node20" class="node">
<title>Node20</title>
<g id="a_node20"><a xlink:href="../../de/d36/classCOutputDefinitionVector.html" target="_top" xlink:title=" ">
<polygon fill="white" stroke="black" points="1153.5,-214.08 1153.5,-233.08 1274.5,-233.08 1274.5,-214.08 1153.5,-214.08"/>
<text text-anchor="middle" x="1214" y="-221.08" font-family="FreeSans" font-size="10.00">COutputDefinitionVector</text>
</a>
</g>
</g>
<!-- Node19&#45;&gt;Node20 -->
<g id="edge23" class="edge">
<title>Node19&#45;&gt;Node20</title>
<path fill="none" stroke="midnightblue" d="M994.1,-223.58C1046.2,-223.58 1108.65,-223.58 1153.48,-223.58"/>
<polygon fill="midnightblue" stroke="midnightblue" points="993.82,-220.08 983.82,-223.58 993.82,-227.08 993.82,-220.08"/>
</g>
<!-- Node26 -->
<g id="node26" class="node">
<title>Node26</title>
<g id="a_node26"><a xlink:href="../../da/d86/classCReportDefinitionVector.html" target="_top" xlink:title=" ">
<polygon fill="white" stroke="black" points="1154,-12.08 1154,-31.08 1274,-31.08 1274,-12.08 1154,-12.08"/>
<text text-anchor="middle" x="1214" y="-19.08" font-family="FreeSans" font-size="10.00">CReportDefinitionVector</text>
</a>
</g>
</g>
<!-- Node25&#45;&gt;Node26 -->
<g id="edge29" class="edge">
<title>Node25&#45;&gt;Node26</title>
<path fill="none" stroke="midnightblue" d="M991.35,-21.58C1044.01,-21.58 1107.89,-21.58 1153.52,-21.58"/>
<polygon fill="midnightblue" stroke="midnightblue" points="991.32,-18.08 981.32,-21.58 991.32,-25.08 991.32,-18.08"/>
</g>
</g>
</svg>
        <g id="navigator" transform="translate(0 0)" fill="#404254">
                <rect fill="#f2f5e9" fill-opacity="0.5" stroke="#606060" stroke-width=".5" x="0" y="0" width="60" height="60"/>
                <use id="zoomplus" xlink:href="#zoomPlus" x="17" y="9" onmousedown="handleZoom(evt,'in')"/>
                <use id="zoomminus" xlink:href="#zoomMin" x="42" y="9" onmousedown="handleZoom(evt,'out')"/>
                <use id="reset" xlink:href="#resetDef" x="30" y="36" onmousedown="handleReset()"/>
                <g id="arrowUp" xlink:href="#dirArrow" transform="translate(30 24)" onmousedown="handlePan(0,-1)">
                  <use xlink:href="#rim" fill="#404040">
                        <set attributeName="fill" to="#808080" begin="arrowUp.mouseover" end="arrowUp.mouseout"/>
                  </use>
                  <path fill="none" stroke="white" stroke-width="1.5" d="M0,-3.0v7 M-2.5,-0.5L0,-3.0L2.5,-0.5"/>
                </g>
                <g id="arrowRight" xlink:href="#dirArrow" transform="rotate(90) translate(36 -43)" onmousedown="handlePan(1,0)">
                  <use xlink:href="#rim" fill="#404040">
                        <set attributeName="fill" to="#808080" begin="arrowRight.mouseover" end="arrowRight.mouseout"/>
                  </use>
                  <path fill="none" stroke="white" stroke-width="1.5" d="M0,-3.0v7 M-2.5,-0.5L0,-3.0L2.5,-0.5"/>
                </g>
                <g id="arrowDown" xlink:href="#dirArrow" transform="rotate(180) translate(-30 -48)" onmousedown="handlePan(0,1)">
                  <use xlink:href="#rim" fill="#404040">
                        <set attributeName="fill" to="#808080" begin="arrowDown.mouseover" end="arrowDown.mouseout"/>
                  </use>
                  <path fill="none" stroke="white" stroke-width="1.5" d="M0,-3.0v7 M-2.5,-0.5L0,-3.0L2.5,-0.5"/>
                </g>
                <g id="arrowLeft" xlink:href="#dirArrow" transform="rotate(270) translate(-36 17)" onmousedown="handlePan(-1,0)">
                  <use xlink:href="#rim" fill="#404040">
                        <set attributeName="fill" to="#808080" begin="arrowLeft.mouseover" end="arrowLeft.mouseout"/>
                  </use>
                  <path fill="none" stroke="white" stroke-width="1.5" d="M0,-3.0v7 M-2.5,-0.5L0,-3.0L2.5,-0.5"/>
                </g>
        </g>
        <svg viewBox="0 0 15 15" width="100%" height="30px" preserveAspectRatio="xMaxYMin meet">
         <g id="arrow_out" transform="scale(0.3 0.3)">
          <a xlink:href="classCDataVectorN__inherit__graph_org.svg" target="_base">
           <rect id="button" ry="5" rx="5" y="6" x="6" height="38" width="38"
                fill="#f2f5e9" fill-opacity="0.5" stroke="#606060" stroke-width="1.0"/>
           <path id="arrow"
             d="M 11.500037,31.436501 C 11.940474,20.09759 22.043105,11.32322 32.158766,21.979434 L 37.068811,17.246167 C 37.068811,17.246167 37.088388,32 37.088388,32 L 22.160133,31.978069 C 22.160133,31.978069 26.997745,27.140456 26.997745,27.140456 C 18.528582,18.264221 13.291696,25.230495 11.500037,31.436501 z"
             style="fill:#404040;"/>
          </a>
         </g>
        </svg>
</svg>
