<?xml version="1.0" encoding="UTF-8" standalone="no"?>
<!DOCTYPE svg PUBLIC "-//W3C//DTD SVG 1.1//EN"
 "http://www.w3.org/Graphics/SVG/1.1/DTD/svg11.dtd">
<!-- Generated by graphviz version 2.43.0 (0)
 -->
<!-- Title: CEnumAnnotation&lt; Type, Enum &gt; Pages: 1 -->
<!--zoomable 1380 -->
<svg id="main" version="1.1" xmlns="http://www.w3.org/2000/svg" xmlns:xlink="http://www.w3.org/1999/xlink" xml:space="preserve" onload="init(evt)">
<style type="text/css"><![CDATA[
.edge:hover path { stroke: red; }
.edge:hover polygon { stroke: red; fill: red; }
]]></style>
<script type="text/javascript"><![CDATA[
var edges = document.getElementsByTagName('g');
if (edges && edges.length) {
  for (var i=0;i<edges.length;i++) {
    if (edges[i].id.substr(0,4)=='edge') {
      edges[i].setAttribute('class','edge');
    }
  }
}
]]></script>
        <defs>
                <circle id="rim" cx="0" cy="0" r="7"/>
                <circle id="rim2" cx="0" cy="0" r="3.5"/>
                <g id="zoomPlus">
                        <use xlink:href="#rim" fill="#404040">
                                <set attributeName="fill" to="#808080" begin="zoomplus.mouseover" end="zoomplus.mouseout"/>
                        </use>
                        <path d="M-4,0h8M0,-4v8" fill="none" stroke="white" stroke-width="1.5" pointer-events="none"/>
                </g>
                <g id="zoomMin">
                        <use xlink:href="#rim" fill="#404040">
                                <set attributeName="fill" to="#808080" begin="zoomminus.mouseover" end="zoomminus.mouseout"/>
                        </use>
                        <path d="M-4,0h8" fill="none" stroke="white" stroke-width="1.5" pointer-events="none"/>
                </g>
                <g id="dirArrow">
                        <path fill="none" stroke="white" stroke-width="1.5" d="M0,-3.0v7 M-2.5,-0.5L0,-3.0L2.5,-0.5"/>
                </g>
               <g id="resetDef">
                       <use xlink:href="#rim2" fill="#404040">
                               <set attributeName="fill" to="#808080" begin="reset.mouseover" end="reset.mouseout"/>
                       </use>
               </g>
        </defs>

<script type="text/javascript">
var viewWidth = 589;
var viewHeight = 1380;
var sectionId = 'dynsection-0';
</script>
<script xlink:href="../../svgpan.js"/>
<svg id="graph" class="graph">
<g id="viewport">
<title>CEnumAnnotation&lt; Type, Enum &gt;</title>
<polygon fill="white" stroke="transparent" points="-4,4 -4,-1376.25 585,-1376.25 585,4 -4,4"/>
<!-- Node1 -->
<g id="node1" class="node">
<title>Node1</title>
<g id="a_node1"><a xlink:title=" ">
<polygon fill="#bfbfbf" stroke="black" points="115,-667.25 115,-697.25 242,-697.25 242,-667.25 115,-667.25"/>
<text text-anchor="start" x="123" y="-685.25" font-family="FreeSans" font-size="10.00">CEnumAnnotation&lt; Type,</text>
<text text-anchor="middle" x="178.5" y="-674.25" font-family="FreeSans" font-size="10.00"> Enum &gt;</text>
</a>
</g>
</g>
<!-- Node3 -->
<g id="node3" class="node">
<title>Node3</title>
<g id="a_node3"><a xlink:href="../../d8/db3/classCEnumAnnotation.html" target="_top" xlink:title=" ">
<polygon fill="white" stroke="black" points="433.5,-1329.25 433.5,-1359.25 561.5,-1359.25 561.5,-1329.25 433.5,-1329.25"/>
<text text-anchor="start" x="441.5" y="-1347.25" font-family="FreeSans" font-size="10.00">CEnumAnnotation&lt; std</text>
<text text-anchor="middle" x="497.5" y="-1336.25" font-family="FreeSans" font-size="10.00">::string, eTargetCriterion &gt;</text>
</a>
</g>
</g>
<!-- Node1&#45;&gt;Node3 -->
<g id="edge2" class="edge">
<title>Node1&#45;&gt;Node3</title>
<path fill="none" stroke="orange" stroke-dasharray="5,2" d="M180.84,-707.64C187.09,-821.18 214.94,-1278.62 260,-1322.25 305.03,-1365.84 379.96,-1365.43 433.41,-1357.89"/>
<polygon fill="orange" stroke="orange" points="184.33,-707.27 180.29,-697.47 177.34,-707.65 184.33,-707.27"/>
<text text-anchor="middle" x="328" y="-1364.25" font-family="FreeSans" font-size="10.00"> &lt; std::string, eTargetCriterion &gt;</text>
</g>
<!-- Node4 -->
<g id="node4" class="node">
<title>Node4</title>
<g id="a_node4"><a xlink:href="../../d8/db3/classCEnumAnnotation.html" target="_top" xlink:title=" ">
<polygon fill="white" stroke="black" points="439.5,-1280.25 439.5,-1310.25 555.5,-1310.25 555.5,-1280.25 439.5,-1280.25"/>
<text text-anchor="start" x="447.5" y="-1298.25" font-family="FreeSans" font-size="10.00">CEnumAnnotation&lt; std</text>
<text text-anchor="middle" x="497.5" y="-1287.25" font-family="FreeSans" font-size="10.00">::string, DataType &gt;</text>
</a>
</g>
</g>
<!-- Node1&#45;&gt;Node4 -->
<g id="edge3" class="edge">
<title>Node1&#45;&gt;Node4</title>
<path fill="none" stroke="orange" stroke-dasharray="5,2" d="M179.13,-707.45C178.22,-808.65 180.32,-1183.82 260,-1263.25 306.36,-1309.46 385.59,-1310.82 439.44,-1305.09"/>
<polygon fill="orange" stroke="orange" points="182.64,-707.29 179.25,-697.25 175.64,-707.21 182.64,-707.29"/>
<text text-anchor="middle" x="328" y="-1310.25" font-family="FreeSans" font-size="10.00"> &lt; std::string, DataType &gt;</text>
</g>
<!-- Node5 -->
<g id="node5" class="node">
<title>Node5</title>
<g id="a_node5"><a xlink:href="../../d8/db3/classCEnumAnnotation.html" target="_top" xlink:title=" ">
<polygon fill="white" stroke="black" points="439.5,-1231.25 439.5,-1261.25 555.5,-1261.25 555.5,-1231.25 439.5,-1231.25"/>
<text text-anchor="start" x="447.5" y="-1249.25" font-family="FreeSans" font-size="10.00">CEnumAnnotation&lt; std</text>
<text text-anchor="middle" x="497.5" y="-1238.25" font-family="FreeSans" font-size="10.00">::string, Method &gt;</text>
</a>
</g>
</g>
<!-- Node1&#45;&gt;Node5 -->
<g id="edge4" class="edge">
<title>Node1&#45;&gt;Node5</title>
<path fill="none" stroke="orange" stroke-dasharray="5,2" d="M179.32,-707.41C179.19,-804.43 184.09,-1152.38 260,-1224.25 284.97,-1247.88 377.75,-1250.06 439.41,-1248.71"/>
<polygon fill="orange" stroke="orange" points="182.82,-707.35 179.35,-697.34 175.82,-707.33 182.82,-707.35"/>
<text text-anchor="middle" x="328" y="-1251.25" font-family="FreeSans" font-size="10.00"> &lt; std::string, Method &gt;</text>
</g>
<!-- Node6 -->
<g id="node6" class="node">
<title>Node6</title>
<g id="a_node6"><a xlink:href="../../d8/db3/classCEnumAnnotation.html" target="_top" xlink:title=" ">
<polygon fill="white" stroke="black" points="430.5,-1182.25 430.5,-1212.25 564.5,-1212.25 564.5,-1182.25 430.5,-1182.25"/>
<text text-anchor="start" x="438.5" y="-1200.25" font-family="FreeSans" font-size="10.00">CEnumAnnotation&lt; QStyle</text>
<text text-anchor="middle" x="497.5" y="-1189.25" font-family="FreeSans" font-size="10.00">::StandardPixmap, IconID &gt;</text>
</a>
</g>
</g>
<!-- Node1&#45;&gt;Node6 -->
<g id="edge5" class="edge">
<title>Node1&#45;&gt;Node6</title>
<path fill="none" stroke="orange" stroke-dasharray="5,2" d="M179.75,-707.72C181.22,-799.31 191.26,-1109.85 260,-1174.25 283.9,-1196.63 369.1,-1200.1 430.39,-1199.5"/>
<polygon fill="orange" stroke="orange" points="183.25,-707.62 179.61,-697.67 176.25,-707.72 183.25,-707.62"/>
<text text-anchor="start" x="268.5" y="-1213.25" font-family="FreeSans" font-size="10.00"> &lt; QStyle::StandardPixmap,</text>
<text text-anchor="middle" x="328" y="-1202.25" font-family="FreeSans" font-size="10.00"> IconID &gt;</text>
</g>
<!-- Node7 -->
<g id="node7" class="node">
<title>Node7</title>
<g id="a_node7"><a xlink:href="../../d8/db3/classCEnumAnnotation.html" target="_top" xlink:title=" ">
<polygon fill="white" stroke="black" points="439.5,-1133.25 439.5,-1163.25 555.5,-1163.25 555.5,-1133.25 439.5,-1133.25"/>
<text text-anchor="start" x="447.5" y="-1151.25" font-family="FreeSans" font-size="10.00">CEnumAnnotation&lt; std</text>
<text text-anchor="middle" x="497.5" y="-1140.25" font-family="FreeSans" font-size="10.00">::string, Status &gt;</text>
</a>
</g>
</g>
<!-- Node1&#45;&gt;Node7 -->
<g id="edge6" class="edge">
<title>Node1&#45;&gt;Node7</title>
<path fill="none" stroke="orange" stroke-dasharray="5,2" d="M180.45,-707.88C184.13,-792.3 200.38,-1059.48 260,-1116.25 307.26,-1161.25 385.89,-1162.99 439.39,-1157.67"/>
<polygon fill="orange" stroke="orange" points="183.94,-707.49 180.03,-697.65 176.94,-707.78 183.94,-707.49"/>
<text text-anchor="middle" x="328" y="-1162.25" font-family="FreeSans" font-size="10.00"> &lt; std::string, Status &gt;</text>
</g>
<!-- Node8 -->
<g id="node8" class="node">
<title>Node8</title>
<g id="a_node8"><a xlink:href="../../d8/db3/classCEnumAnnotation.html" target="_top" xlink:title=" ">
<polygon fill="white" stroke="black" points="439.5,-1084.25 439.5,-1114.25 555.5,-1114.25 555.5,-1084.25 439.5,-1084.25"/>
<text text-anchor="start" x="447.5" y="-1102.25" font-family="FreeSans" font-size="10.00">CEnumAnnotation&lt; std</text>
<text text-anchor="middle" x="497.5" y="-1091.25" font-family="FreeSans" font-size="10.00">::string, Task &gt;</text>
</a>
</g>
</g>
<!-- Node1&#45;&gt;Node8 -->
<g id="edge7" class="edge">
<title>Node1&#45;&gt;Node8</title>
<path fill="none" stroke="orange" stroke-dasharray="5,2" d="M180.86,-707.74C185.64,-787.12 204.53,-1027.48 260,-1077.25 285.55,-1100.17 377.91,-1102.58 439.36,-1101.47"/>
<polygon fill="orange" stroke="orange" points="184.34,-707.43 180.27,-697.65 177.36,-707.83 184.34,-707.43"/>
<text text-anchor="middle" x="328" y="-1104.25" font-family="FreeSans" font-size="10.00"> &lt; std::string, Task &gt;</text>
</g>
<!-- Node9 -->
<g id="node9" class="node">
<title>Node9</title>
<g id="a_node9"><a xlink:href="../../d8/db3/classCEnumAnnotation.html" target="_top" xlink:title=" ">
<polygon fill="white" stroke="black" points="439.5,-1035.25 439.5,-1065.25 555.5,-1065.25 555.5,-1035.25 439.5,-1035.25"/>
<text text-anchor="start" x="447.5" y="-1053.25" font-family="FreeSans" font-size="10.00">CEnumAnnotation&lt; std</text>
<text text-anchor="middle" x="497.5" y="-1042.25" font-family="FreeSans" font-size="10.00">::string, ModelType &gt;</text>
</a>
</g>
</g>
<!-- Node1&#45;&gt;Node9 -->
<g id="edge8" class="edge">
<title>Node1&#45;&gt;Node9</title>
<path fill="none" stroke="orange" stroke-dasharray="5,2" d="M181.62,-707.41C188.25,-779.71 211.16,-985.63 260,-1028.25 308.7,-1070.75 386.43,-1069.45 439.38,-1062.05"/>
<polygon fill="orange" stroke="orange" points="185.1,-707.02 180.72,-697.37 178.12,-707.64 185.1,-707.02"/>
<text text-anchor="middle" x="328" y="-1068.25" font-family="FreeSans" font-size="10.00"> &lt; std::string, ModelType &gt;</text>
</g>
<!-- Node10 -->
<g id="node10" class="node">
<title>Node10</title>
<g id="a_node10"><a xlink:href="../../d8/db3/classCEnumAnnotation.html" target="_top" xlink:title=" ">
<polygon fill="white" stroke="black" points="439.5,-986.25 439.5,-1016.25 555.5,-1016.25 555.5,-986.25 439.5,-986.25"/>
<text text-anchor="start" x="447.5" y="-1004.25" font-family="FreeSans" font-size="10.00">CEnumAnnotation&lt; std</text>
<text text-anchor="middle" x="497.5" y="-993.25" font-family="FreeSans" font-size="10.00">::string, EntityType &gt;</text>
</a>
</g>
</g>
<!-- Node1&#45;&gt;Node10 -->
<g id="edge9" class="edge">
<title>Node1&#45;&gt;Node10</title>
<path fill="none" stroke="orange" stroke-dasharray="5,2" d="M182.71,-707.59C191.48,-772.63 218.07,-942.85 260,-978.25 309.33,-1019.89 386.73,-1019.22 439.45,-1012.4"/>
<polygon fill="orange" stroke="orange" points="186.14,-706.86 181.36,-697.4 179.2,-707.77 186.14,-706.86"/>
<text text-anchor="middle" x="328" y="-1018.25" font-family="FreeSans" font-size="10.00"> &lt; std::string, EntityType &gt;</text>
</g>
<!-- Node11 -->
<g id="node11" class="node">
<title>Node11</title>
<g id="a_node11"><a xlink:href="../../d8/db3/classCEnumAnnotation.html" target="_top" xlink:title=" ">
<polygon fill="white" stroke="black" points="414,-937.25 414,-967.25 581,-967.25 581,-937.25 414,-937.25"/>
<text text-anchor="start" x="422" y="-955.25" font-family="FreeSans" font-size="10.00">CEnumAnnotation&lt; CExpression</text>
<text text-anchor="middle" x="497.5" y="-944.25" font-family="FreeSans" font-size="10.00">Generator::sOperation, Operation &gt;</text>
</a>
</g>
</g>
<!-- Node1&#45;&gt;Node11 -->
<g id="edge10" class="edge">
<title>Node1&#45;&gt;Node11</title>
<path fill="none" stroke="orange" stroke-dasharray="5,2" d="M179.39,-707.63C180.69,-758.57 191.52,-873.11 260,-928.25 283.19,-946.91 355.33,-952.16 413.9,-953.19"/>
<polygon fill="orange" stroke="orange" points="182.89,-707.43 179.24,-697.49 175.89,-707.54 182.89,-707.43"/>
<text text-anchor="start" x="274" y="-966.25" font-family="FreeSans" font-size="10.00"> &lt; CExpressionGenerator</text>
<text text-anchor="middle" x="328" y="-955.25" font-family="FreeSans" font-size="10.00">::sOperation, Operation &gt;</text>
</g>
<!-- Node12 -->
<g id="node12" class="node">
<title>Node12</title>
<g id="a_node12"><a xlink:href="../../d8/db3/classCEnumAnnotation.html" target="_top" xlink:title=" ">
<polygon fill="white" stroke="black" points="439.5,-888.25 439.5,-918.25 555.5,-918.25 555.5,-888.25 439.5,-888.25"/>
<text text-anchor="start" x="447.5" y="-906.25" font-family="FreeSans" font-size="10.00">CEnumAnnotation&lt; std</text>
<text text-anchor="middle" x="497.5" y="-895.25" font-family="FreeSans" font-size="10.00">::string, LineType &gt;</text>
</a>
</g>
</g>
<!-- Node1&#45;&gt;Node12 -->
<g id="edge11" class="edge">
<title>Node1&#45;&gt;Node12</title>
<path fill="none" stroke="orange" stroke-dasharray="5,2" d="M181.96,-707.54C187.56,-750.01 205.34,-835.07 260,-876.25 311.25,-914.85 387.32,-916.56 439.25,-911.93"/>
<polygon fill="orange" stroke="orange" points="185.42,-706.98 180.76,-697.47 178.47,-707.81 185.42,-706.98"/>
<text text-anchor="middle" x="328" y="-916.25" font-family="FreeSans" font-size="10.00"> &lt; std::string, LineType &gt;</text>
</g>
<!-- Node13 -->
<g id="node13" class="node">
<title>Node13</title>
<g id="a_node13"><a xlink:href="../../d8/db3/classCEnumAnnotation.html" target="_top" xlink:title=" ">
<polygon fill="white" stroke="black" points="435,-839.25 435,-869.25 560,-869.25 560,-839.25 435,-839.25"/>
<text text-anchor="start" x="443" y="-857.25" font-family="FreeSans" font-size="10.00">CEnumAnnotation&lt; std</text>
<text text-anchor="middle" x="497.5" y="-846.25" font-family="FreeSans" font-size="10.00">::string, CompareResult &gt;</text>
</a>
</g>
</g>
<!-- Node1&#45;&gt;Node13 -->
<g id="edge12" class="edge">
<title>Node1&#45;&gt;Node13</title>
<path fill="none" stroke="orange" stroke-dasharray="5,2" d="M185.9,-707.46C195.77,-740.7 218.11,-798.23 260,-826.25 311.55,-860.72 383.89,-864.41 434.95,-861.55"/>
<polygon fill="orange" stroke="orange" points="189.2,-706.27 183.13,-697.59 182.46,-708.16 189.2,-706.27"/>
<text text-anchor="middle" x="328" y="-864.25" font-family="FreeSans" font-size="10.00"> &lt; std::string, CompareResult &gt;</text>
</g>
<!-- Node14 -->
<g id="node14" class="node">
<title>Node14</title>
<g id="a_node14"><a xlink:href="../../d8/db3/classCEnumAnnotation.html" target="_top" xlink:title=" ">
<polygon fill="white" stroke="black" points="430.5,-790.25 430.5,-820.25 564.5,-820.25 564.5,-790.25 430.5,-790.25"/>
<text text-anchor="start" x="438.5" y="-808.25" font-family="FreeSans" font-size="10.00">CEnumAnnotation&lt; std</text>
<text text-anchor="middle" x="497.5" y="-797.25" font-family="FreeSans" font-size="10.00">::string, CIssue::eSeverity &gt;</text>
</a>
</g>
</g>
<!-- Node1&#45;&gt;Node14 -->
<g id="edge13" class="edge">
<title>Node1&#45;&gt;Node14</title>
<path fill="none" stroke="orange" stroke-dasharray="5,2" d="M195.84,-705.62C210.41,-724.57 233.5,-750.34 260,-764.25 312.95,-792.03 380.85,-801.55 430.3,-804.55"/>
<polygon fill="orange" stroke="orange" points="198.54,-703.39 189.76,-697.46 192.93,-707.57 198.54,-703.39"/>
<text text-anchor="start" x="283.5" y="-814.25" font-family="FreeSans" font-size="10.00"> &lt; std::string, CIssue</text>
<text text-anchor="middle" x="328" y="-803.25" font-family="FreeSans" font-size="10.00">::eSeverity &gt;</text>
</g>
<!-- Node15 -->
<g id="node15" class="node">
<title>Node15</title>
<g id="a_node15"><a xlink:href="../../d8/db3/classCEnumAnnotation.html" target="_top" xlink:title=" ">
<polygon fill="white" stroke="black" points="439.5,-741.25 439.5,-771.25 555.5,-771.25 555.5,-741.25 439.5,-741.25"/>
<text text-anchor="start" x="447.5" y="-759.25" font-family="FreeSans" font-size="10.00">CEnumAnnotation&lt; std</text>
<text text-anchor="middle" x="497.5" y="-748.25" font-family="FreeSans" font-size="10.00">::string, Type &gt;</text>
</a>
</g>
</g>
<!-- Node1&#45;&gt;Node15 -->
<g id="edge14" class="edge">
<title>Node1&#45;&gt;Node15</title>
<path fill="none" stroke="orange" stroke-dasharray="5,2" d="M212.09,-702.54C226.31,-710.51 243.49,-719 260,-724.25 319.43,-743.13 390.72,-750.87 439.39,-754.04"/>
<polygon fill="orange" stroke="orange" points="213.62,-699.38 203.21,-697.41 210.12,-705.44 213.62,-699.38"/>
<text text-anchor="middle" x="328" y="-752.25" font-family="FreeSans" font-size="10.00"> &lt; std::string, Type &gt;</text>
</g>
<!-- Node16 -->
<g id="node16" class="node">
<title>Node16</title>
<g id="a_node16"><a xlink:href="../../d8/db3/classCEnumAnnotation.html" target="_top" xlink:title=" ">
<polygon fill="white" stroke="black" points="435,-692.25 435,-722.25 560,-722.25 560,-692.25 435,-692.25"/>
<text text-anchor="start" x="443" y="-710.25" font-family="FreeSans" font-size="10.00">CEnumAnnotation&lt; std</text>
<text text-anchor="middle" x="497.5" y="-699.25" font-family="FreeSans" font-size="10.00">::string, KineticLawUnit &gt;</text>
</a>
</g>
</g>
<!-- Node1&#45;&gt;Node16 -->
<g id="edge15" class="edge">
<title>Node1&#45;&gt;Node16</title>
<path fill="none" stroke="orange" stroke-dasharray="5,2" d="M252.2,-687.98C307.41,-692.33 382.51,-698.26 434.81,-702.38"/>
<polygon fill="orange" stroke="orange" points="252.37,-684.48 242.13,-687.19 251.82,-691.46 252.37,-684.48"/>
<text text-anchor="start" x="274.5" y="-712.25" font-family="FreeSans" font-size="10.00"> &lt; std::string, KineticLaw</text>
<text text-anchor="middle" x="328" y="-701.25" font-family="FreeSans" font-size="10.00">Unit &gt;</text>
</g>
<!-- Node17 -->
<g id="node17" class="node">
<title>Node17</title>
<g id="a_node17"><a xlink:href="../../d8/db3/classCEnumAnnotation.html" target="_top" xlink:title=" ">
<polygon fill="white" stroke="black" points="439.5,-643.25 439.5,-673.25 555.5,-673.25 555.5,-643.25 439.5,-643.25"/>
<text text-anchor="start" x="447.5" y="-661.25" font-family="FreeSans" font-size="10.00">CEnumAnnotation&lt; std</text>
<text text-anchor="middle" x="497.5" y="-650.25" font-family="FreeSans" font-size="10.00">::string, Operation &gt;</text>
</a>
</g>
</g>
<!-- Node1&#45;&gt;Node17 -->
<g id="edge16" class="edge">
<title>Node1&#45;&gt;Node17</title>
<path fill="none" stroke="orange" stroke-dasharray="5,2" d="M252.36,-674.9C254.94,-674.68 257.49,-674.46 260,-674.25 321.11,-669.14 391.2,-664.56 439.11,-661.62"/>
<polygon fill="orange" stroke="orange" points="251.97,-671.42 242.32,-675.81 252.6,-678.39 251.97,-671.42"/>
<text text-anchor="middle" x="328" y="-677.25" font-family="FreeSans" font-size="10.00"> &lt; std::string, Operation &gt;</text>
</g>
<!-- Node18 -->
<g id="node18" class="node">
<title>Node18</title>
<g id="a_node18"><a xlink:href="../../d8/db3/classCEnumAnnotation.html" target="_top" xlink:title=" ">
<polygon fill="white" stroke="black" points="438,-594.25 438,-624.25 557,-624.25 557,-594.25 438,-594.25"/>
<text text-anchor="start" x="446" y="-612.25" font-family="FreeSans" font-size="10.00">CEnumAnnotation&lt; std</text>
<text text-anchor="middle" x="497.5" y="-601.25" font-family="FreeSans" font-size="10.00">::string, CIssue::eKind &gt;</text>
</a>
</g>
</g>
<!-- Node1&#45;&gt;Node18 -->
<g id="edge17" class="edge">
<title>Node1&#45;&gt;Node18</title>
<path fill="none" stroke="orange" stroke-dasharray="5,2" d="M211.38,-661.75C225.71,-653.47 243.16,-644.61 260,-639.25 318.76,-620.53 389.24,-613.44 437.88,-610.78"/>
<polygon fill="orange" stroke="orange" points="209.25,-658.95 202.45,-667.07 212.83,-664.96 209.25,-658.95"/>
<text text-anchor="start" x="283.5" y="-653.25" font-family="FreeSans" font-size="10.00"> &lt; std::string, CIssue</text>
<text text-anchor="middle" x="328" y="-642.25" font-family="FreeSans" font-size="10.00">::eKind &gt;</text>
</g>
<!-- Node19 -->
<g id="node19" class="node">
<title>Node19</title>
<g id="a_node19"><a xlink:href="../../d8/db3/classCEnumAnnotation.html" target="_top" xlink:title=" ">
<polygon fill="white" stroke="black" points="435,-545.25 435,-575.25 560,-575.25 560,-545.25 435,-545.25"/>
<text text-anchor="start" x="443" y="-563.25" font-family="FreeSans" font-size="10.00">CEnumAnnotation&lt; std</text>
<text text-anchor="middle" x="497.5" y="-552.25" font-family="FreeSans" font-size="10.00">::string, SimulationType &gt;</text>
</a>
</g>
</g>
<!-- Node1&#45;&gt;Node19 -->
<g id="edge18" class="edge">
<title>Node1&#45;&gt;Node19</title>
<path fill="none" stroke="orange" stroke-dasharray="5,2" d="M192.82,-658.28C206.56,-636.09 230.15,-604.18 260,-588.25 314.08,-559.39 384.83,-554.56 434.82,-555.61"/>
<polygon fill="orange" stroke="orange" points="189.66,-656.74 187.55,-667.13 195.68,-660.33 189.66,-656.74"/>
<text text-anchor="start" x="276" y="-602.25" font-family="FreeSans" font-size="10.00"> &lt; std::string, Simulation</text>
<text text-anchor="middle" x="328" y="-591.25" font-family="FreeSans" font-size="10.00">Type &gt;</text>
</g>
<!-- Node20 -->
<g id="node20" class="node">
<title>Node20</title>
<g id="a_node20"><a xlink:href="../../d8/db3/classCEnumAnnotation.html" target="_top" xlink:title=" ">
<polygon fill="white" stroke="black" points="439.5,-496.25 439.5,-526.25 555.5,-526.25 555.5,-496.25 439.5,-496.25"/>
<text text-anchor="start" x="447.5" y="-514.25" font-family="FreeSans" font-size="10.00">CEnumAnnotation&lt; std</text>
<text text-anchor="middle" x="497.5" y="-503.25" font-family="FreeSans" font-size="10.00">::string, SubType &gt;</text>
</a>
</g>
</g>
<!-- Node1&#45;&gt;Node20 -->
<g id="edge19" class="edge">
<title>Node1&#45;&gt;Node20</title>
<path fill="none" stroke="orange" stroke-dasharray="5,2" d="M186.25,-657.09C196.41,-624.51 218.97,-568.66 260,-541.25 312.99,-505.83 387.81,-502.17 439.02,-504.87"/>
<polygon fill="orange" stroke="orange" points="182.86,-656.21 183.38,-666.79 189.57,-658.19 182.86,-656.21"/>
<text text-anchor="middle" x="328" y="-544.25" font-family="FreeSans" font-size="10.00"> &lt; std::string, SubType &gt;</text>
</g>
<!-- Node21 -->
<g id="node21" class="node">
<title>Node21</title>
<g id="a_node21"><a xlink:href="../../d8/db3/classCEnumAnnotation.html" target="_top" xlink:title=" ">
<polygon fill="white" stroke="black" points="439.5,-447.25 439.5,-477.25 555.5,-477.25 555.5,-447.25 439.5,-447.25"/>
<text text-anchor="start" x="447.5" y="-465.25" font-family="FreeSans" font-size="10.00">CEnumAnnotation&lt; std</text>
<text text-anchor="middle" x="497.5" y="-454.25" font-family="FreeSans" font-size="10.00">::string, ContentType &gt;</text>
</a>
</g>
</g>
<!-- Node1&#45;&gt;Node21 -->
<g id="edge20" class="edge">
<title>Node1&#45;&gt;Node21</title>
<path fill="none" stroke="orange" stroke-dasharray="5,2" d="M182.07,-657.23C187.82,-615.22 205.83,-531.07 260,-490.25 311.26,-451.61 387.33,-449.54 439.26,-453.89"/>
<polygon fill="orange" stroke="orange" points="178.59,-656.84 180.83,-667.19 185.54,-657.7 178.59,-656.84"/>
<text text-anchor="middle" x="328" y="-493.25" font-family="FreeSans" font-size="10.00"> &lt; std::string, ContentType &gt;</text>
</g>
<!-- Node22 -->
<g id="node22" class="node">
<title>Node22</title>
<g id="a_node22"><a xlink:href="../../d8/db3/classCEnumAnnotation.html" target="_top" xlink:title=" ">
<polygon fill="white" stroke="black" points="439.5,-398.25 439.5,-428.25 555.5,-428.25 555.5,-398.25 439.5,-398.25"/>
<text text-anchor="start" x="447.5" y="-416.25" font-family="FreeSans" font-size="10.00">CEnumAnnotation&lt; std</text>
<text text-anchor="middle" x="497.5" y="-405.25" font-family="FreeSans" font-size="10.00">::string, Property &gt;</text>
</a>
</g>
</g>
<!-- Node1&#45;&gt;Node22 -->
<g id="edge21" class="edge">
<title>Node1&#45;&gt;Node22</title>
<path fill="none" stroke="orange" stroke-dasharray="5,2" d="M179.49,-657.09C180.95,-606.59 192.07,-493.04 260,-438.25 310.13,-397.81 386.99,-397.37 439.38,-403.2"/>
<polygon fill="orange" stroke="orange" points="175.99,-657.08 179.3,-667.14 182.98,-657.21 175.99,-657.08"/>
<text text-anchor="middle" x="328" y="-441.25" font-family="FreeSans" font-size="10.00"> &lt; std::string, Property &gt;</text>
</g>
<!-- Node23 -->
<g id="node23" class="node">
<title>Node23</title>
<g id="a_node23"><a xlink:href="../../d8/db3/classCEnumAnnotation.html" target="_top" xlink:title=" ">
<polygon fill="white" stroke="black" points="439.5,-349.25 439.5,-379.25 555.5,-379.25 555.5,-349.25 439.5,-349.25"/>
<text text-anchor="start" x="447.5" y="-367.25" font-family="FreeSans" font-size="10.00">CEnumAnnotation&lt; std</text>
<text text-anchor="middle" x="497.5" y="-356.25" font-family="FreeSans" font-size="10.00">::string, SymbolType &gt;</text>
</a>
</g>
</g>
<!-- Node1&#45;&gt;Node23 -->
<g id="edge22" class="edge">
<title>Node1&#45;&gt;Node23</title>
<path fill="none" stroke="orange" stroke-dasharray="5,2" d="M182.7,-656.9C191.45,-591.83 218,-421.56 260,-386.25 309.4,-344.72 386.79,-345.75 439.48,-352.81"/>
<polygon fill="orange" stroke="orange" points="179.19,-656.71 181.36,-667.09 186.13,-657.63 179.19,-656.71"/>
<text text-anchor="middle" x="328" y="-389.25" font-family="FreeSans" font-size="10.00"> &lt; std::string, SymbolType &gt;</text>
</g>
<!-- Node24 -->
<g id="node24" class="node">
<title>Node24</title>
<g id="a_node24"><a xlink:href="../../d8/db3/classCEnumAnnotation.html" target="_top" xlink:title=" ">
<polygon fill="white" stroke="black" points="439.5,-300.25 439.5,-330.25 555.5,-330.25 555.5,-300.25 439.5,-300.25"/>
<text text-anchor="start" x="447.5" y="-318.25" font-family="FreeSans" font-size="10.00">CEnumAnnotation&lt; std</text>
<text text-anchor="middle" x="497.5" y="-307.25" font-family="FreeSans" font-size="10.00">::string, Role &gt;</text>
</a>
</g>
</g>
<!-- Node1&#45;&gt;Node24 -->
<g id="edge23" class="edge">
<title>Node1&#45;&gt;Node24</title>
<path fill="none" stroke="orange" stroke-dasharray="5,2" d="M181.57,-656.91C188.07,-584.12 210.65,-376.82 260,-334.25 308.89,-292.07 386.58,-294.42 439.47,-302.58"/>
<polygon fill="orange" stroke="orange" points="178.07,-656.76 180.69,-667.02 185.04,-657.36 178.07,-656.76"/>
<text text-anchor="middle" x="328" y="-337.25" font-family="FreeSans" font-size="10.00"> &lt; std::string, Role &gt;</text>
</g>
<!-- Node25 -->
<g id="node25" class="node">
<title>Node25</title>
<g id="a_node25"><a xlink:href="../../d8/db3/classCEnumAnnotation.html" target="_top" xlink:title=" ">
<polygon fill="white" stroke="black" points="439.5,-251.25 439.5,-281.25 555.5,-281.25 555.5,-251.25 439.5,-251.25"/>
<text text-anchor="start" x="447.5" y="-269.25" font-family="FreeSans" font-size="10.00">CEnumAnnotation&lt; std</text>
<text text-anchor="middle" x="497.5" y="-258.25" font-family="FreeSans" font-size="10.00">::string, MainType &gt;</text>
</a>
</g>
</g>
<!-- Node1&#45;&gt;Node25 -->
<g id="edge24" class="edge">
<title>Node1&#45;&gt;Node25</title>
<path fill="none" stroke="orange" stroke-dasharray="5,2" d="M180.74,-656.98C185.21,-577.22 203.38,-333.08 260,-283.25 308.44,-240.61 386.23,-243.82 439.26,-252.71"/>
<polygon fill="orange" stroke="orange" points="177.24,-656.94 180.2,-667.11 184.23,-657.31 177.24,-656.94"/>
<text text-anchor="middle" x="328" y="-286.25" font-family="FreeSans" font-size="10.00"> &lt; std::string, MainType &gt;</text>
</g>
<!-- Node26 -->
<g id="node26" class="node">
<title>Node26</title>
<g id="a_node26"><a xlink:href="../../d8/db3/classCEnumAnnotation.html" target="_top" xlink:title=" ">
<polygon fill="white" stroke="black" points="439.5,-202.25 439.5,-232.25 555.5,-232.25 555.5,-202.25 439.5,-202.25"/>
<text text-anchor="start" x="447.5" y="-220.25" font-family="FreeSans" font-size="10.00">CEnumAnnotation&lt; std</text>
<text text-anchor="middle" x="497.5" y="-209.25" font-family="FreeSans" font-size="10.00">::string, IconID &gt;</text>
</a>
</g>
</g>
<!-- Node1&#45;&gt;Node26 -->
<g id="edge25" class="edge">
<title>Node1&#45;&gt;Node26</title>
<path fill="none" stroke="orange" stroke-dasharray="5,2" d="M180.1,-656.94C182.7,-570.52 196.04,-289.32 260,-232.25 308.19,-189.24 386.23,-193.34 439.37,-202.95"/>
<polygon fill="orange" stroke="orange" points="176.59,-657.05 179.81,-667.14 183.59,-657.24 176.59,-657.05"/>
<text text-anchor="middle" x="328" y="-235.25" font-family="FreeSans" font-size="10.00"> &lt; std::string, IconID &gt;</text>
</g>
<!-- Node27 -->
<g id="node27" class="node">
<title>Node27</title>
<g id="a_node27"><a xlink:href="../../d8/db3/classCEnumAnnotation.html" target="_top" xlink:title=" ">
<polygon fill="white" stroke="black" points="439.5,-153.25 439.5,-183.25 555.5,-183.25 555.5,-153.25 439.5,-153.25"/>
<text text-anchor="start" x="447.5" y="-171.25" font-family="FreeSans" font-size="10.00">CEnumAnnotation&lt; std</text>
<text text-anchor="middle" x="497.5" y="-160.25" font-family="FreeSans" font-size="10.00">::string, ValueType &gt;</text>
</a>
</g>
</g>
<!-- Node1&#45;&gt;Node27 -->
<g id="edge26" class="edge">
<title>Node1&#45;&gt;Node27</title>
<path fill="none" stroke="orange" stroke-dasharray="5,2" d="M179.59,-656.88C180.51,-564.3 188.87,-246.56 260,-182.25 307.97,-138.87 386.25,-143.5 439.49,-153.52"/>
<polygon fill="orange" stroke="orange" points="176.09,-657 179.52,-667.03 183.09,-657.06 176.09,-657"/>
<text text-anchor="middle" x="328" y="-185.25" font-family="FreeSans" font-size="10.00"> &lt; std::string, ValueType &gt;</text>
</g>
<!-- Node28 -->
<g id="node28" class="node">
<title>Node28</title>
<g id="a_node28"><a xlink:href="../../d8/db3/classCEnumAnnotation.html" target="_top" xlink:title=" ">
<polygon fill="white" stroke="black" points="439.5,-104.25 439.5,-134.25 555.5,-134.25 555.5,-104.25 439.5,-104.25"/>
<text text-anchor="start" x="447.5" y="-122.25" font-family="FreeSans" font-size="10.00">CEnumAnnotation&lt; std</text>
<text text-anchor="middle" x="497.5" y="-111.25" font-family="FreeSans" font-size="10.00">::string, LineStyle &gt;</text>
</a>
</g>
</g>
<!-- Node1&#45;&gt;Node28 -->
<g id="edge27" class="edge">
<title>Node1&#45;&gt;Node28</title>
<path fill="none" stroke="orange" stroke-dasharray="5,2" d="M179.18,-656.95C178.5,-558.64 181.61,-203.85 260,-132.25 307.97,-88.43 386.82,-93.75 440.15,-104.24"/>
<polygon fill="orange" stroke="orange" points="175.68,-657.18 179.27,-667.14 182.68,-657.11 175.68,-657.18"/>
<text text-anchor="middle" x="328" y="-135.25" font-family="FreeSans" font-size="10.00"> &lt; std::string, LineStyle &gt;</text>
</g>
<!-- Node29 -->
<g id="node29" class="node">
<title>Node29</title>
<g id="a_node29"><a xlink:href="../../d8/db3/classCEnumAnnotation.html" target="_top" xlink:title=" ">
<polygon fill="white" stroke="black" points="439.5,-55.25 439.5,-85.25 555.5,-85.25 555.5,-55.25 439.5,-55.25"/>
<text text-anchor="start" x="447.5" y="-73.25" font-family="FreeSans" font-size="10.00">CEnumAnnotation&lt; std</text>
<text text-anchor="middle" x="497.5" y="-62.25" font-family="FreeSans" font-size="10.00">::string, Framework &gt;</text>
</a>
</g>
</g>
<!-- Node1&#45;&gt;Node29 -->
<g id="edge28" class="edge">
<title>Node1&#45;&gt;Node29</title>
<path fill="none" stroke="orange" stroke-dasharray="5,2" d="M181.01,-657.01C187.78,-548.1 216.87,-121.95 260,-82.25 285.18,-59.07 377.65,-60.96 439.23,-65.12"/>
<polygon fill="orange" stroke="orange" points="177.51,-656.89 180.39,-667.09 184.5,-657.32 177.51,-656.89"/>
<text text-anchor="middle" x="328" y="-85.25" font-family="FreeSans" font-size="10.00"> &lt; std::string, Framework &gt;</text>
</g>
<!-- Node30 -->
<g id="node30" class="node">
<title>Node30</title>
<g id="a_node30"><a xlink:href="../../d8/db3/classCEnumAnnotation.html" target="_top" xlink:title=" ">
<polygon fill="white" stroke="black" points="419.5,-6.25 419.5,-36.25 575.5,-36.25 575.5,-6.25 419.5,-6.25"/>
<text text-anchor="start" x="427.5" y="-24.25" font-family="FreeSans" font-size="10.00">CEnumAnnotation&lt; CTaskEnum</text>
<text text-anchor="middle" x="497.5" y="-13.25" font-family="FreeSans" font-size="10.00">::Task, SubTaskType &gt;</text>
</a>
</g>
</g>
<!-- Node1&#45;&gt;Node30 -->
<g id="edge29" class="edge">
<title>Node1&#45;&gt;Node30</title>
<path fill="none" stroke="orange" stroke-dasharray="5,2" d="M180.78,-657C186.82,-543.09 214.01,-80.7 260,-37.25 306.21,6.42 382.79,3.21 436.24,-6.2"/>
<polygon fill="orange" stroke="orange" points="177.28,-657.02 180.25,-667.19 184.27,-657.39 177.28,-657.02"/>
<text text-anchor="start" x="281" y="-51.25" font-family="FreeSans" font-size="10.00"> &lt; CTaskEnum::Task,</text>
<text text-anchor="middle" x="328" y="-40.25" font-family="FreeSans" font-size="10.00"> SubTaskType &gt;</text>
</g>
<!-- Node2 -->
<g id="node2" class="node">
<title>Node2</title>
<g id="a_node2"><a xlink:title=" ">
<polygon fill="white" stroke="#bfbfbf" points="0,-672.75 0,-691.75 78,-691.75 78,-672.75 0,-672.75"/>
<text text-anchor="middle" x="39" y="-679.75" font-family="FreeSans" font-size="10.00">std::array&lt; T &gt;</text>
</a>
</g>
</g>
<!-- Node2&#45;&gt;Node1 -->
<g id="edge1" class="edge">
<title>Node2&#45;&gt;Node1</title>
<path fill="none" stroke="midnightblue" d="M88.46,-682.25C97.02,-682.25 106.03,-682.25 114.9,-682.25"/>
<polygon fill="midnightblue" stroke="midnightblue" points="88.3,-678.75 78.3,-682.25 88.3,-685.75 88.3,-678.75"/>
</g>
</g>
</svg>
        <g id="navigator" transform="translate(0 0)" fill="#404254">
                <rect fill="#f2f5e9" fill-opacity="0.5" stroke="#606060" stroke-width=".5" x="0" y="0" width="60" height="60"/>
                <use id="zoomplus" xlink:href="#zoomPlus" x="17" y="9" onmousedown="handleZoom(evt,'in')"/>
                <use id="zoomminus" xlink:href="#zoomMin" x="42" y="9" onmousedown="handleZoom(evt,'out')"/>
                <use id="reset" xlink:href="#resetDef" x="30" y="36" onmousedown="handleReset()"/>
                <g id="arrowUp" xlink:href="#dirArrow" transform="translate(30 24)" onmousedown="handlePan(0,-1)">
                  <use xlink:href="#rim" fill="#404040">
                        <set attributeName="fill" to="#808080" begin="arrowUp.mouseover" end="arrowUp.mouseout"/>
                  </use>
                  <path fill="none" stroke="white" stroke-width="1.5" d="M0,-3.0v7 M-2.5,-0.5L0,-3.0L2.5,-0.5"/>
                </g>
                <g id="arrowRight" xlink:href="#dirArrow" transform="rotate(90) translate(36 -43)" onmousedown="handlePan(1,0)">
                  <use xlink:href="#rim" fill="#404040">
                        <set attributeName="fill" to="#808080" begin="arrowRight.mouseover" end="arrowRight.mouseout"/>
                  </use>
                  <path fill="none" stroke="white" stroke-width="1.5" d="M0,-3.0v7 M-2.5,-0.5L0,-3.0L2.5,-0.5"/>
                </g>
                <g id="arrowDown" xlink:href="#dirArrow" transform="rotate(180) translate(-30 -48)" onmousedown="handlePan(0,1)">
                  <use xlink:href="#rim" fill="#404040">
                        <set attributeName="fill" to="#808080" begin="arrowDown.mouseover" end="arrowDown.mouseout"/>
                  </use>
                  <path fill="none" stroke="white" stroke-width="1.5" d="M0,-3.0v7 M-2.5,-0.5L0,-3.0L2.5,-0.5"/>
                </g>
                <g id="arrowLeft" xlink:href="#dirArrow" transform="rotate(270) translate(-36 17)" onmousedown="handlePan(-1,0)">
                  <use xlink:href="#rim" fill="#404040">
                        <set attributeName="fill" to="#808080" begin="arrowLeft.mouseover" end="arrowLeft.mouseout"/>
                  </use>
                  <path fill="none" stroke="white" stroke-width="1.5" d="M0,-3.0v7 M-2.5,-0.5L0,-3.0L2.5,-0.5"/>
                </g>
        </g>
        <svg viewBox="0 0 15 15" width="100%" height="30px" preserveAspectRatio="xMaxYMin meet">
         <g id="arrow_out" transform="scale(0.3 0.3)">
          <a xlink:href="classCEnumAnnotation__inherit__graph_org.svg" target="_base">
           <rect id="button" ry="5" rx="5" y="6" x="6" height="38" width="38"
                fill="#f2f5e9" fill-opacity="0.5" stroke="#606060" stroke-width="1.0"/>
           <path id="arrow"
             d="M 11.500037,31.436501 C 11.940474,20.09759 22.043105,11.32322 32.158766,21.979434 L 37.068811,17.246167 C 37.068811,17.246167 37.088388,32 37.088388,32 L 22.160133,31.978069 C 22.160133,31.978069 26.997745,27.140456 26.997745,27.140456 C 18.528582,18.264221 13.291696,25.230495 11.500037,31.436501 z"
             style="fill:#404040;"/>
          </a>
         </g>
        </svg>
</svg>
