<?xml version="1.0" encoding="UTF-8" standalone="no"?>
<!DOCTYPE svg PUBLIC "-//W3C//DTD SVG 1.1//EN"
 "http://www.w3.org/Graphics/SVG/1.1/DTD/svg11.dtd">
<!-- Generated by graphviz version 2.43.0 (0)
 -->
<!-- Title: CObjectInterface Pages: 1 -->
<!--zoomable 1069 -->
<svg id="main" version="1.1" xmlns="http://www.w3.org/2000/svg" xmlns:xlink="http://www.w3.org/1999/xlink" xml:space="preserve" onload="init(evt)">
<style type="text/css"><![CDATA[
.edge:hover path { stroke: red; }
.edge:hover polygon { stroke: red; fill: red; }
]]></style>
<script type="text/javascript"><![CDATA[
var edges = document.getElementsByTagName('g');
if (edges && edges.length) {
  for (var i=0;i<edges.length;i++) {
    if (edges[i].id.substr(0,4)=='edge') {
      edges[i].setAttribute('class','edge');
    }
  }
}
]]></script>
        <defs>
                <circle id="rim" cx="0" cy="0" r="7"/>
                <circle id="rim2" cx="0" cy="0" r="3.5"/>
                <g id="zoomPlus">
                        <use xlink:href="#rim" fill="#404040">
                                <set attributeName="fill" to="#808080" begin="zoomplus.mouseover" end="zoomplus.mouseout"/>
                        </use>
                        <path d="M-4,0h8M0,-4v8" fill="none" stroke="white" stroke-width="1.5" pointer-events="none"/>
                </g>
                <g id="zoomMin">
                        <use xlink:href="#rim" fill="#404040">
                                <set attributeName="fill" to="#808080" begin="zoomminus.mouseover" end="zoomminus.mouseout"/>
                        </use>
                        <path d="M-4,0h8" fill="none" stroke="white" stroke-width="1.5" pointer-events="none"/>
                </g>
                <g id="dirArrow">
                        <path fill="none" stroke="white" stroke-width="1.5" d="M0,-3.0v7 M-2.5,-0.5L0,-3.0L2.5,-0.5"/>
                </g>
               <g id="resetDef">
                       <use xlink:href="#rim2" fill="#404040">
                               <set attributeName="fill" to="#808080" begin="reset.mouseover" end="reset.mouseout"/>
                       </use>
               </g>
        </defs>

<script type="text/javascript">
var viewWidth = 844;
var viewHeight = 1069;
var sectionId = 'dynsection-0';
</script>
<script xlink:href="../../svgpan.js"/>
<svg id="graph" class="graph">
<g id="viewport">
<title>CObjectInterface</title>
<polygon fill="white" stroke="transparent" points="-4,4 -4,-1065 840,-1065 840,4 -4,4"/>
<!-- Node1 -->
<g id="node1" class="node">
<title>Node1</title>
<g id="a_node1"><a xlink:title=" ">
<polygon fill="#bfbfbf" stroke="black" points="0,-360.5 0,-379.5 90,-379.5 90,-360.5 0,-360.5"/>
<text text-anchor="middle" x="45" y="-367.5" font-family="FreeSans" font-size="10.00">CObjectInterface</text>
</a>
</g>
</g>
<!-- Node2 -->
<g id="node2" class="node">
<title>Node2</title>
<g id="a_node2"><a xlink:href="../../d1/d6b/classCDataObject.html" target="_top" xlink:title=" ">
<polygon fill="white" stroke="black" points="128,-386.5 128,-405.5 200,-405.5 200,-386.5 128,-386.5"/>
<text text-anchor="middle" x="164" y="-393.5" font-family="FreeSans" font-size="10.00">CDataObject</text>
</a>
</g>
</g>
<!-- Node1&#45;&gt;Node2 -->
<g id="edge1" class="edge">
<title>Node1&#45;&gt;Node2</title>
<path fill="none" stroke="midnightblue" d="M98.96,-381.77C108.72,-383.94 118.69,-386.15 127.77,-388.17"/>
<polygon fill="midnightblue" stroke="midnightblue" points="99.42,-378.29 88.9,-379.53 97.9,-385.12 99.42,-378.29"/>
</g>
<!-- Node253 -->
<g id="node49" class="node">
<title>Node253</title>
<g id="a_node49"><a xlink:href="../../d7/db6/classCMathObject.html" target="_top" xlink:title=" ">
<polygon fill="white" stroke="black" points="127,-348.5 127,-367.5 201,-367.5 201,-348.5 127,-348.5"/>
<text text-anchor="middle" x="164" y="-355.5" font-family="FreeSans" font-size="10.00">CMathObject</text>
</a>
</g>
</g>
<!-- Node1&#45;&gt;Node253 -->
<g id="edge50" class="edge">
<title>Node1&#45;&gt;Node253</title>
<path fill="none" stroke="midnightblue" d="M100.25,-364.44C109.22,-363.52 118.32,-362.58 126.7,-361.72"/>
<polygon fill="midnightblue" stroke="midnightblue" points="99.82,-360.96 90.23,-365.46 100.54,-367.92 99.82,-360.96"/>
</g>
<!-- Node3 -->
<g id="node3" class="node">
<title>Node3</title>
<g id="a_node3"><a xlink:href="../../d5/dff/classCDataObjectReference.html" target="_top" xlink:title=" ">
<polygon fill="white" stroke="black" points="508.5,-1017 508.5,-1047 624.5,-1047 624.5,-1017 508.5,-1017"/>
<text text-anchor="start" x="516.5" y="-1035" font-family="FreeSans" font-size="10.00">CDataObjectReference</text>
<text text-anchor="middle" x="566.5" y="-1024" font-family="FreeSans" font-size="10.00">&lt; C_FLOAT64 &gt;</text>
</a>
</g>
</g>
<!-- Node2&#45;&gt;Node3 -->
<g id="edge2" class="edge">
<title>Node2&#45;&gt;Node3</title>
<path fill="none" stroke="midnightblue" d="M165.64,-415.54C169.15,-516.44 187.82,-975.11 238,-1010 318.24,-1065.79 437.95,-1056.7 508.24,-1044.63"/>
<polygon fill="midnightblue" stroke="midnightblue" points="169.14,-415.39 165.3,-405.51 162.14,-415.63 169.14,-415.39"/>
</g>
<!-- Node6 -->
<g id="node6" class="node">
<title>Node6</title>
<g id="a_node6"><a xlink:href="../../d5/dff/classCDataObjectReference.html" target="_top" xlink:title=" ">
<polygon fill="white" stroke="black" points="508.5,-964 508.5,-994 624.5,-994 624.5,-964 508.5,-964"/>
<text text-anchor="start" x="516.5" y="-982" font-family="FreeSans" font-size="10.00">CDataObjectReference</text>
<text text-anchor="middle" x="566.5" y="-971" font-family="FreeSans" font-size="10.00">&lt; std::string &gt;</text>
</a>
</g>
</g>
<!-- Node2&#45;&gt;Node6 -->
<g id="edge5" class="edge">
<title>Node2&#45;&gt;Node6</title>
<path fill="none" stroke="midnightblue" d="M165.99,-415.79C169.28,-466.28 183.01,-602.65 238,-699 316.06,-835.78 341.62,-885.61 483,-955 490.9,-958.88 499.54,-962.24 508.16,-965.13"/>
<polygon fill="midnightblue" stroke="midnightblue" points="169.47,-415.4 165.4,-405.62 162.48,-415.81 169.47,-415.4"/>
</g>
<!-- Node7 -->
<g id="node7" class="node">
<title>Node7</title>
<g id="a_node7"><a xlink:href="../../d1/d26/classCArrayElementReference.html" target="_top" xlink:title=" ">
<polygon fill="white" stroke="black" points="243,-670.5 243,-689.5 368,-689.5 368,-670.5 243,-670.5"/>
<text text-anchor="middle" x="305.5" y="-677.5" font-family="FreeSans" font-size="10.00">CArrayElementReference</text>
</a>
</g>
</g>
<!-- Node2&#45;&gt;Node7 -->
<g id="edge6" class="edge">
<title>Node2&#45;&gt;Node7</title>
<path fill="none" stroke="midnightblue" d="M167.63,-415.74C175.45,-471.45 200.43,-628 238,-661 242.42,-664.88 247.58,-667.98 253.05,-670.44"/>
<polygon fill="midnightblue" stroke="midnightblue" points="171.08,-415.17 166.25,-405.73 164.15,-416.12 171.08,-415.17"/>
</g>
<!-- Node8 -->
<g id="node8" class="node">
<title>Node8</title>
<g id="a_node8"><a xlink:href="../../d1/d4d/classCCopasiTask_1_1CDescription.html" target="_top" xlink:title=" ">
<polygon fill="white" stroke="black" points="238,-632.5 238,-651.5 373,-651.5 373,-632.5 238,-632.5"/>
<text text-anchor="middle" x="305.5" y="-639.5" font-family="FreeSans" font-size="10.00">CCopasiTask::CDescription</text>
</a>
</g>
</g>
<!-- Node2&#45;&gt;Node8 -->
<g id="edge7" class="edge">
<title>Node2&#45;&gt;Node8</title>
<path fill="none" stroke="midnightblue" d="M165.01,-415.63C166.18,-459.96 175.63,-568.21 238,-623 242.42,-626.88 247.58,-629.98 253.05,-632.44"/>
<polygon fill="midnightblue" stroke="midnightblue" points="168.51,-415.53 164.87,-405.58 161.51,-415.63 168.51,-415.53"/>
</g>
<!-- Node9 -->
<g id="node9" class="node">
<title>Node9</title>
<g id="a_node9"><a xlink:href="../../df/d88/classCCopasiTask_1_1CResult.html" target="_top" xlink:title=" ">
<polygon fill="white" stroke="black" points="248.5,-594.5 248.5,-613.5 362.5,-613.5 362.5,-594.5 248.5,-594.5"/>
<text text-anchor="middle" x="305.5" y="-601.5" font-family="FreeSans" font-size="10.00">CCopasiTask::CResult</text>
</a>
</g>
</g>
<!-- Node2&#45;&gt;Node9 -->
<g id="edge8" class="edge">
<title>Node2&#45;&gt;Node9</title>
<path fill="none" stroke="midnightblue" d="M166.75,-416C171.25,-454.7 186.75,-539.98 238,-585 242.42,-588.88 247.58,-591.98 253.05,-594.44"/>
<polygon fill="midnightblue" stroke="midnightblue" points="170.19,-415.17 165.68,-405.58 163.22,-415.89 170.19,-415.17"/>
</g>
<!-- Node10 -->
<g id="node10" class="node">
<title>Node10</title>
<g id="a_node10"><a xlink:href="../../d1/db9/classCCopasiTimer.html" target="_top" xlink:title=" ">
<polygon fill="white" stroke="black" points="266.5,-556.5 266.5,-575.5 344.5,-575.5 344.5,-556.5 266.5,-556.5"/>
<text text-anchor="middle" x="305.5" y="-563.5" font-family="FreeSans" font-size="10.00">CCopasiTimer</text>
</a>
</g>
</g>
<!-- Node2&#45;&gt;Node10 -->
<g id="edge9" class="edge">
<title>Node2&#45;&gt;Node10</title>
<path fill="none" stroke="midnightblue" d="M169.09,-415.84C176.79,-448.18 196.54,-512.12 238,-547 245.99,-553.72 256.23,-558.07 266.27,-560.88"/>
<polygon fill="midnightblue" stroke="midnightblue" points="172.44,-414.82 166.85,-405.82 165.61,-416.35 172.44,-414.82"/>
</g>
<!-- Node11 -->
<g id="node11" class="node">
<title>Node11</title>
<g id="a_node11"><a xlink:href="../../d3/db9/classCDataContainer.html" target="_top" xlink:title=" ">
<polygon fill="white" stroke="red" points="263,-518.5 263,-537.5 348,-537.5 348,-518.5 263,-518.5"/>
<text text-anchor="middle" x="305.5" y="-525.5" font-family="FreeSans" font-size="10.00">CDataContainer</text>
</a>
</g>
</g>
<!-- Node2&#45;&gt;Node11 -->
<g id="edge10" class="edge">
<title>Node2&#45;&gt;Node11</title>
<path fill="none" stroke="midnightblue" d="M172.28,-415.09C182.89,-440.36 205,-484.54 238,-509 245.33,-514.43 254.17,-518.32 262.98,-521.09"/>
<polygon fill="midnightblue" stroke="midnightblue" points="175.41,-413.51 168.44,-405.54 168.92,-416.12 175.41,-413.51"/>
</g>
<!-- Node238 -->
<g id="node35" class="node">
<title>Node238</title>
<g id="a_node35"><a xlink:href="../../d7/db7/classCDataMatrixReference.html" target="_top" xlink:title=" ">
<polygon fill="white" stroke="black" points="248.5,-469 248.5,-499 362.5,-499 362.5,-469 248.5,-469"/>
<text text-anchor="start" x="256.5" y="-487" font-family="FreeSans" font-size="10.00">CDataMatrixReference</text>
<text text-anchor="middle" x="305.5" y="-476" font-family="FreeSans" font-size="10.00">&lt; CType &gt;</text>
</a>
</g>
</g>
<!-- Node2&#45;&gt;Node238 -->
<g id="edge34" class="edge">
<title>Node2&#45;&gt;Node238</title>
<path fill="none" stroke="midnightblue" d="M181.41,-413.2C195.4,-427.07 216.58,-446.28 238,-459 244.26,-462.72 251.16,-466.05 258.08,-468.97"/>
<polygon fill="midnightblue" stroke="midnightblue" points="183.58,-410.41 174.07,-405.74 178.59,-415.32 183.58,-410.41"/>
</g>
<!-- Node239 -->
<g id="node36" class="node">
<title>Node239</title>
<g id="a_node36"><a xlink:href="../../d5/dff/classCDataObjectReference.html" target="_top" xlink:title=" ">
<polygon fill="white" stroke="black" points="247.5,-970 247.5,-1000 363.5,-1000 363.5,-970 247.5,-970"/>
<text text-anchor="start" x="255.5" y="-988" font-family="FreeSans" font-size="10.00">CDataObjectReference</text>
<text text-anchor="middle" x="305.5" y="-977" font-family="FreeSans" font-size="10.00">&lt; CType &gt;</text>
</a>
</g>
</g>
<!-- Node2&#45;&gt;Node239 -->
<g id="edge35" class="edge">
<title>Node2&#45;&gt;Node239</title>
<path fill="none" stroke="midnightblue" d="M165.67,-415.96C169.01,-510.63 185.08,-911.72 219,-955 226.18,-964.16 236.36,-970.53 247.19,-974.96"/>
<polygon fill="midnightblue" stroke="midnightblue" points="169.16,-415.63 165.32,-405.76 162.16,-415.87 169.16,-415.63"/>
</g>
<!-- Node240 -->
<g id="node37" class="node">
<title>Node240</title>
<g id="a_node37"><a xlink:href="../../db/dbd/classCDataString.html" target="_top" xlink:title=" ">
<polygon fill="white" stroke="red" points="271,-430.5 271,-449.5 340,-449.5 340,-430.5 271,-430.5"/>
<text text-anchor="middle" x="305.5" y="-437.5" font-family="FreeSans" font-size="10.00">CDataString</text>
</a>
</g>
</g>
<!-- Node2&#45;&gt;Node240 -->
<g id="edge38" class="edge">
<title>Node2&#45;&gt;Node240</title>
<path fill="none" stroke="midnightblue" d="M201.71,-408.99C213.28,-412.97 226.14,-417.28 238,-421 248.65,-424.34 260.34,-427.77 270.91,-430.77"/>
<polygon fill="midnightblue" stroke="midnightblue" points="202.53,-405.56 191.93,-405.59 200.23,-412.18 202.53,-405.56"/>
</g>
<!-- Node242 -->
<g id="node38" class="node">
<title>Node242</title>
<g id="a_node38"><a xlink:href="../../dd/d5a/classCDataVectorReference.html" target="_top" xlink:title=" ">
<polygon fill="white" stroke="black" points="247.5,-381 247.5,-411 363.5,-411 363.5,-381 247.5,-381"/>
<text text-anchor="start" x="255.5" y="-399" font-family="FreeSans" font-size="10.00">CDataVectorReference</text>
<text text-anchor="middle" x="305.5" y="-388" font-family="FreeSans" font-size="10.00">&lt; CType &gt;</text>
</a>
</g>
</g>
<!-- Node2&#45;&gt;Node242 -->
<g id="edge39" class="edge">
<title>Node2&#45;&gt;Node242</title>
<path fill="none" stroke="midnightblue" d="M210.27,-396C222.09,-396 234.98,-396 247.33,-396"/>
<polygon fill="midnightblue" stroke="midnightblue" points="210.2,-392.5 200.2,-396 210.2,-399.5 210.2,-392.5"/>
</g>
<!-- Node243 -->
<g id="node39" class="node">
<title>Node243</title>
<g id="a_node39"><a xlink:href="../../d9/daa/classCExpressionGenerator.html" target="_top" xlink:title=" ">
<polygon fill="white" stroke="black" points="249,-342.5 249,-361.5 362,-361.5 362,-342.5 249,-342.5"/>
<text text-anchor="middle" x="305.5" y="-349.5" font-family="FreeSans" font-size="10.00">CExpressionGenerator</text>
</a>
</g>
</g>
<!-- Node2&#45;&gt;Node243 -->
<g id="edge40" class="edge">
<title>Node2&#45;&gt;Node243</title>
<path fill="none" stroke="midnightblue" d="M202.94,-383.32C214.2,-379.62 226.58,-375.59 238,-372 249.04,-368.53 261.15,-364.84 271.98,-361.6"/>
<polygon fill="midnightblue" stroke="midnightblue" points="201.77,-380.02 193.37,-386.49 203.97,-386.67 201.77,-380.02"/>
</g>
<!-- Node244 -->
<g id="node40" class="node">
<title>Node244</title>
<g id="a_node40"><a xlink:href="../../d0/dce/classCLColorDefinition.html" target="_top" xlink:title=" ">
<polygon fill="white" stroke="black" points="259.5,-304.5 259.5,-323.5 351.5,-323.5 351.5,-304.5 259.5,-304.5"/>
<text text-anchor="middle" x="305.5" y="-311.5" font-family="FreeSans" font-size="10.00">CLColorDefinition</text>
</a>
</g>
</g>
<!-- Node2&#45;&gt;Node244 -->
<g id="edge41" class="edge">
<title>Node2&#45;&gt;Node244</title>
<path fill="none" stroke="midnightblue" d="M195.32,-381.14C197.3,-379.82 199.21,-378.44 201,-377 220.89,-360.96 216.56,-346.89 238,-333 244.45,-328.82 251.83,-325.54 259.27,-322.98"/>
<polygon fill="midnightblue" stroke="midnightblue" points="193.21,-378.32 186.41,-386.44 196.79,-384.33 193.21,-378.32"/>
</g>
<!-- Node245 -->
<g id="node41" class="node">
<title>Node245</title>
<g id="a_node41"><a xlink:href="../../d2/d64/classCLEllipse.html" target="_top" xlink:title=" ">
<polygon fill="white" stroke="black" points="276.5,-266.5 276.5,-285.5 334.5,-285.5 334.5,-266.5 276.5,-266.5"/>
<text text-anchor="middle" x="305.5" y="-273.5" font-family="FreeSans" font-size="10.00">CLEllipse</text>
</a>
</g>
</g>
<!-- Node2&#45;&gt;Node245 -->
<g id="edge42" class="edge">
<title>Node2&#45;&gt;Node245</title>
<path fill="none" stroke="midnightblue" d="M197.12,-380.62C198.5,-379.48 199.8,-378.27 201,-377 228.39,-347.87 207.75,-321.14 238,-295 248.63,-285.81 263.43,-281.06 276.38,-278.6"/>
<polygon fill="midnightblue" stroke="midnightblue" points="194.93,-377.87 188.66,-386.41 198.89,-383.65 194.93,-377.87"/>
</g>
<!-- Node246 -->
<g id="node42" class="node">
<title>Node246</title>
<g id="a_node42"><a xlink:href="../../d3/da5/classCLGradientStop.html" target="_top" xlink:title=" ">
<polygon fill="white" stroke="black" points="262.5,-228.5 262.5,-247.5 348.5,-247.5 348.5,-228.5 262.5,-228.5"/>
<text text-anchor="middle" x="305.5" y="-235.5" font-family="FreeSans" font-size="10.00">CLGradientStop</text>
</a>
</g>
</g>
<!-- Node2&#45;&gt;Node246 -->
<g id="edge43" class="edge">
<title>Node2&#45;&gt;Node246</title>
<path fill="none" stroke="midnightblue" d="M197.88,-380.29C198.99,-379.25 200.04,-378.16 201,-377 236.62,-334.03 198.13,-296.05 238,-257 244.69,-250.45 253.48,-246.12 262.46,-243.28"/>
<polygon fill="midnightblue" stroke="midnightblue" points="195.72,-377.53 189.77,-386.3 199.89,-383.16 195.72,-377.53"/>
</g>
<!-- Node247 -->
<g id="node43" class="node">
<title>Node247</title>
<g id="a_node43"><a xlink:href="../../da/d09/classCLImage.html" target="_top" xlink:title=" ">
<polygon fill="white" stroke="black" points="277.5,-190.5 277.5,-209.5 333.5,-209.5 333.5,-190.5 277.5,-190.5"/>
<text text-anchor="middle" x="305.5" y="-197.5" font-family="FreeSans" font-size="10.00">CLImage</text>
</a>
</g>
</g>
<!-- Node2&#45;&gt;Node247 -->
<g id="edge44" class="edge">
<title>Node2&#45;&gt;Node247</title>
<path fill="none" stroke="midnightblue" d="M198.44,-380C199.36,-379.05 200.22,-378.05 201,-377 244.08,-319.16 187.05,-270.05 238,-219 248.35,-208.63 263.94,-203.83 277.42,-201.65"/>
<polygon fill="midnightblue" stroke="midnightblue" points="196.12,-377.37 190.45,-386.32 200.46,-382.86 196.12,-377.37"/>
</g>
<!-- Node248 -->
<g id="node44" class="node">
<title>Node248</title>
<g id="a_node44"><a xlink:href="../../d9/dc2/classCLPolygon.html" target="_top" xlink:title=" ">
<polygon fill="white" stroke="black" points="273.5,-152.5 273.5,-171.5 337.5,-171.5 337.5,-152.5 273.5,-152.5"/>
<text text-anchor="middle" x="305.5" y="-159.5" font-family="FreeSans" font-size="10.00">CLPolygon</text>
</a>
</g>
</g>
<!-- Node2&#45;&gt;Node248 -->
<g id="edge45" class="edge">
<title>Node2&#45;&gt;Node248</title>
<path fill="none" stroke="midnightblue" d="M198.52,-380.06C199.42,-379.1 200.25,-378.08 201,-377 235.39,-327.72 206.15,-301.7 219,-243 225.16,-214.85 217.43,-201.18 238,-181 247.43,-171.75 261.03,-166.94 273.48,-164.46"/>
<polygon fill="midnightblue" stroke="midnightblue" points="196.2,-377.44 190.64,-386.46 200.61,-382.87 196.2,-377.44"/>
</g>
<!-- Node249 -->
<g id="node45" class="node">
<title>Node249</title>
<g id="a_node45"><a xlink:href="../../da/d69/classCLRectangle.html" target="_top" xlink:title=" ">
<polygon fill="white" stroke="black" points="269,-114.5 269,-133.5 342,-133.5 342,-114.5 269,-114.5"/>
<text text-anchor="middle" x="305.5" y="-121.5" font-family="FreeSans" font-size="10.00">CLRectangle</text>
</a>
</g>
</g>
<!-- Node2&#45;&gt;Node249 -->
<g id="edge46" class="edge">
<title>Node2&#45;&gt;Node249</title>
<path fill="none" stroke="midnightblue" d="M198.53,-380.07C199.43,-379.1 200.25,-378.08 201,-377 230.97,-333.72 202.19,-181.59 238,-143 246,-134.37 257.63,-129.57 268.92,-126.92"/>
<polygon fill="midnightblue" stroke="midnightblue" points="196.21,-377.45 190.67,-386.47 200.63,-382.87 196.21,-377.45"/>
</g>
<!-- Node250 -->
<g id="node46" class="node">
<title>Node250</title>
<g id="a_node46"><a xlink:href="../../d6/d2b/classCLRenderCurve.html" target="_top" xlink:title=" ">
<polygon fill="white" stroke="black" points="262.5,-76.5 262.5,-95.5 348.5,-95.5 348.5,-76.5 262.5,-76.5"/>
<text text-anchor="middle" x="305.5" y="-83.5" font-family="FreeSans" font-size="10.00">CLRenderCurve</text>
</a>
</g>
</g>
<!-- Node2&#45;&gt;Node250 -->
<g id="edge47" class="edge">
<title>Node2&#45;&gt;Node250</title>
<path fill="none" stroke="midnightblue" d="M198.93,-379.69C199.67,-378.83 200.37,-377.94 201,-377 235.09,-326.41 196.6,-149.8 238,-105 244.44,-98.03 253.23,-93.56 262.32,-90.7"/>
<polygon fill="midnightblue" stroke="midnightblue" points="196.49,-377.17 191.11,-386.3 201.01,-382.51 196.49,-377.17"/>
</g>
<!-- Node251 -->
<g id="node47" class="node">
<title>Node251</title>
<g id="a_node47"><a xlink:href="../../d1/dd9/classCLText.html" target="_top" xlink:title=" ">
<polygon fill="white" stroke="black" points="281.5,-38.5 281.5,-57.5 329.5,-57.5 329.5,-38.5 281.5,-38.5"/>
<text text-anchor="middle" x="305.5" y="-45.5" font-family="FreeSans" font-size="10.00">CLText</text>
</a>
</g>
</g>
<!-- Node2&#45;&gt;Node251 -->
<g id="edge48" class="edge">
<title>Node2&#45;&gt;Node251</title>
<path fill="none" stroke="midnightblue" d="M198.96,-379.7C199.69,-378.84 200.38,-377.94 201,-377 239.18,-319.07 190.46,-117.53 238,-67 249.11,-55.19 266.99,-50.56 281.42,-48.81"/>
<polygon fill="midnightblue" stroke="midnightblue" points="196.51,-377.19 191.18,-386.34 201.05,-382.51 196.51,-377.19"/>
</g>
<!-- Node252 -->
<g id="node48" class="node">
<title>Node252</title>
<g id="a_node48"><a xlink:href="../../da/dcc/classCReportDefinition.html" target="_top" xlink:title=" ">
<polygon fill="white" stroke="black" points="259.5,-0.5 259.5,-19.5 351.5,-19.5 351.5,-0.5 259.5,-0.5"/>
<text text-anchor="middle" x="305.5" y="-7.5" font-family="FreeSans" font-size="10.00">CReportDefinition</text>
</a>
</g>
</g>
<!-- Node2&#45;&gt;Node252 -->
<g id="edge49" class="edge">
<title>Node2&#45;&gt;Node252</title>
<path fill="none" stroke="midnightblue" d="M198.97,-379.71C199.7,-378.85 200.38,-377.95 201,-377 243.37,-311.79 184.34,-85.29 238,-29 243.8,-22.92 251.4,-18.74 259.38,-15.88"/>
<polygon fill="midnightblue" stroke="midnightblue" points="196.53,-377.2 191.22,-386.37 201.08,-382.51 196.53,-377.2"/>
</g>
<!-- Node4 -->
<g id="node4" class="node">
<title>Node4</title>
<g id="a_node4"><a xlink:href="../../d8/d2c/classCDependentNumberReference.html" target="_top" xlink:title=" ">
<polygon fill="white" stroke="black" points="687,-1041.5 687,-1060.5 836,-1060.5 836,-1041.5 687,-1041.5"/>
<text text-anchor="middle" x="761.5" y="-1048.5" font-family="FreeSans" font-size="10.00">CDependentNumberReference</text>
</a>
</g>
</g>
<!-- Node3&#45;&gt;Node4 -->
<g id="edge3" class="edge">
<title>Node3&#45;&gt;Node4</title>
<path fill="none" stroke="midnightblue" d="M634.86,-1038.63C651.6,-1040.28 669.64,-1042.06 686.67,-1043.73"/>
<polygon fill="midnightblue" stroke="midnightblue" points="634.92,-1035.12 624.62,-1037.62 634.23,-1042.09 634.92,-1035.12"/>
</g>
<!-- Node5 -->
<g id="node5" class="node">
<title>Node5</title>
<g id="a_node5"><a xlink:href="../../d9/d77/classCTotalNumberReference.html" target="_top" xlink:title=" ">
<polygon fill="white" stroke="black" points="699.5,-1003.5 699.5,-1022.5 823.5,-1022.5 823.5,-1003.5 699.5,-1003.5"/>
<text text-anchor="middle" x="761.5" y="-1010.5" font-family="FreeSans" font-size="10.00">CTotalNumberReference</text>
</a>
</g>
</g>
<!-- Node3&#45;&gt;Node5 -->
<g id="edge4" class="edge">
<title>Node3&#45;&gt;Node5</title>
<path fill="none" stroke="midnightblue" d="M634.77,-1025.38C655.81,-1023.31 678.9,-1021.03 699.49,-1019.01"/>
<polygon fill="midnightblue" stroke="midnightblue" points="634.23,-1021.91 624.62,-1026.38 634.92,-1028.88 634.23,-1021.91"/>
</g>
<!-- Node12 -->
<g id="node12" class="node">
<title>Node12</title>
<g id="a_node12"><a xlink:href="../../db/d30/classCDataVector.html" target="_top" xlink:title=" ">
<polygon fill="white" stroke="red" points="490.5,-915 490.5,-945 642.5,-945 642.5,-915 490.5,-915"/>
<text text-anchor="start" x="498.5" y="-933" font-family="FreeSans" font-size="10.00">CDataVector&lt; CLGlobalRender</text>
<text text-anchor="middle" x="566.5" y="-922" font-family="FreeSans" font-size="10.00">Information &gt;</text>
</a>
</g>
</g>
<!-- Node11&#45;&gt;Node12 -->
<g id="edge11" class="edge">
<title>Node11&#45;&gt;Node12</title>
<path fill="none" stroke="midnightblue" d="M357.64,-535.3C363.54,-538.11 368.91,-541.9 373,-547 414.53,-598.74 357.66,-787.65 391,-845 412.34,-881.71 454.95,-902.87 492.71,-914.9"/>
<polygon fill="midnightblue" stroke="midnightblue" points="358.61,-531.93 348.01,-531.66 356.12,-538.47 358.61,-531.93"/>
</g>
<!-- Node13 -->
<g id="node13" class="node">
<title>Node13</title>
<g id="a_node13"><a xlink:href="../../db/d30/classCDataVector.html" target="_top" xlink:title=" ">
<polygon fill="white" stroke="red" points="493,-876.5 493,-895.5 640,-895.5 640,-876.5 493,-876.5"/>
<text text-anchor="middle" x="566.5" y="-883.5" font-family="FreeSans" font-size="10.00">CDataVector&lt; CModification &gt;</text>
</a>
</g>
</g>
<!-- Node11&#45;&gt;Node13 -->
<g id="edge12" class="edge">
<title>Node11&#45;&gt;Node13</title>
<path fill="none" stroke="midnightblue" d="M357.8,-535.44C363.63,-538.23 368.93,-541.98 373,-547 408.92,-591.3 362.83,-753.41 391,-803 414.94,-845.15 467.45,-866.16 508.65,-876.47"/>
<polygon fill="midnightblue" stroke="midnightblue" points="358.9,-532.11 348.31,-531.8 356.39,-538.65 358.9,-532.11"/>
</g>
<!-- Node14 -->
<g id="node14" class="node">
<title>Node14</title>
<g id="a_node14"><a xlink:href="../../db/d30/classCDataVector.html" target="_top" xlink:title=" ">
<polygon fill="white" stroke="red" points="490,-838.5 490,-857.5 643,-857.5 643,-838.5 490,-838.5"/>
<text text-anchor="middle" x="566.5" y="-845.5" font-family="FreeSans" font-size="10.00">CDataVector&lt; CLMetabGlyph &gt;</text>
</a>
</g>
</g>
<!-- Node11&#45;&gt;Node14 -->
<g id="edge13" class="edge">
<title>Node11&#45;&gt;Node14</title>
<path fill="none" stroke="midnightblue" d="M357.73,-535.5C363.57,-538.28 368.89,-542.01 373,-547 402.91,-583.33 368.47,-716.69 391,-758 415.73,-803.34 436.31,-806.92 483,-829 491.1,-832.83 500.03,-835.92 508.93,-838.4"/>
<polygon fill="midnightblue" stroke="midnightblue" points="358.82,-532.17 348.23,-531.87 356.32,-538.71 358.82,-532.17"/>
</g>
<!-- Node15 -->
<g id="node15" class="node">
<title>Node15</title>
<g id="a_node15"><a xlink:href="../../db/d30/classCDataVector.html" target="_top" xlink:title=" ">
<polygon fill="white" stroke="red" points="490.5,-789 490.5,-819 642.5,-819 642.5,-789 490.5,-789"/>
<text text-anchor="start" x="498.5" y="-807" font-family="FreeSans" font-size="10.00">CDataVector&lt; CLCompartment</text>
<text text-anchor="middle" x="566.5" y="-796" font-family="FreeSans" font-size="10.00">Glyph &gt;</text>
</a>
</g>
</g>
<!-- Node11&#45;&gt;Node15 -->
<g id="edge14" class="edge">
<title>Node11&#45;&gt;Node15</title>
<path fill="none" stroke="midnightblue" d="M357.63,-535.58C363.49,-538.35 368.84,-542.06 373,-547 397.18,-575.73 371.86,-682.7 391,-715 413.97,-753.77 459.91,-776.25 498.89,-788.91"/>
<polygon fill="midnightblue" stroke="midnightblue" points="358.71,-532.25 348.12,-531.96 356.22,-538.79 358.71,-532.25"/>
</g>
<!-- Node16 -->
<g id="node16" class="node">
<title>Node16</title>
<g id="a_node16"><a xlink:href="../../db/d30/classCDataVector.html" target="_top" xlink:title=" ">
<polygon fill="white" stroke="red" points="506.5,-750.5 506.5,-769.5 626.5,-769.5 626.5,-750.5 506.5,-750.5"/>
<text text-anchor="middle" x="566.5" y="-757.5" font-family="FreeSans" font-size="10.00">CDataVector&lt; CSlider &gt;</text>
</a>
</g>
</g>
<!-- Node11&#45;&gt;Node16 -->
<g id="edge15" class="edge">
<title>Node11&#45;&gt;Node16</title>
<path fill="none" stroke="midnightblue" d="M357.68,-535.83C363.48,-538.57 368.8,-542.19 373,-547 409.65,-588.93 362.74,-623.02 391,-671 417.07,-715.27 436.48,-719.19 483,-741 491.25,-744.87 500.34,-747.98 509.39,-750.47"/>
<polygon fill="midnightblue" stroke="midnightblue" points="358.86,-532.54 348.27,-532.23 356.36,-539.07 358.86,-532.54"/>
</g>
<!-- Node17 -->
<g id="node17" class="node">
<title>Node17</title>
<g id="a_node17"><a xlink:href="../../db/d30/classCDataVector.html" target="_top" xlink:title=" ">
<polygon fill="white" stroke="red" points="498,-701 498,-731 635,-731 635,-701 498,-701"/>
<text text-anchor="start" x="506" y="-719" font-family="FreeSans" font-size="10.00">CDataVector&lt; CLReference</text>
<text text-anchor="middle" x="566.5" y="-708" font-family="FreeSans" font-size="10.00">Glyph &gt;</text>
</a>
</g>
</g>
<!-- Node11&#45;&gt;Node17 -->
<g id="edge16" class="edge">
<title>Node11&#45;&gt;Node17</title>
<path fill="none" stroke="midnightblue" d="M358.01,-536.39C363.61,-539.05 368.8,-542.5 373,-547 399.08,-574.89 369.5,-599.45 391,-631 418.63,-671.54 438.49,-671.36 483,-692 490.17,-695.33 497.91,-698.3 505.67,-700.94"/>
<polygon fill="midnightblue" stroke="midnightblue" points="358.86,-532.97 348.27,-532.64 356.35,-539.51 358.86,-532.97"/>
</g>
<!-- Node18 -->
<g id="node18" class="node">
<title>Node18</title>
<g id="a_node18"><a xlink:href="../../db/d30/classCDataVector.html" target="_top" xlink:title=" ">
<polygon fill="white" stroke="red" points="502,-652 502,-682 631,-682 631,-652 502,-652"/>
<text text-anchor="start" x="510" y="-670" font-family="FreeSans" font-size="10.00">CDataVector&lt; CBiological</text>
<text text-anchor="middle" x="566.5" y="-659" font-family="FreeSans" font-size="10.00">Description &gt;</text>
</a>
</g>
</g>
<!-- Node11&#45;&gt;Node18 -->
<g id="edge17" class="edge">
<title>Node11&#45;&gt;Node18</title>
<path fill="none" stroke="midnightblue" d="M357.71,-537C363.32,-539.55 368.59,-542.82 373,-547 390.76,-563.81 374.63,-580.83 391,-599 421.21,-632.53 440.85,-625.86 483,-642 492.22,-645.53 502.18,-648.91 511.87,-651.97"/>
<polygon fill="midnightblue" stroke="midnightblue" points="358.62,-533.6 348.03,-533.34 356.14,-540.15 358.62,-533.6"/>
</g>
<!-- Node19 -->
<g id="node19" class="node">
<title>Node19</title>
<g id="a_node19"><a xlink:href="../../db/d30/classCDataVector.html" target="_top" xlink:title=" ">
<polygon fill="white" stroke="red" points="491,-613.5 491,-632.5 642,-632.5 642,-613.5 491,-613.5"/>
<text text-anchor="middle" x="566.5" y="-620.5" font-family="FreeSans" font-size="10.00">CDataVector&lt; CLGlobalStyle &gt;</text>
</a>
</g>
</g>
<!-- Node11&#45;&gt;Node19 -->
<g id="edge18" class="edge">
<title>Node11&#45;&gt;Node19</title>
<path fill="none" stroke="midnightblue" d="M357.85,-538.93C363.2,-541.15 368.36,-543.81 373,-547 383.98,-554.56 380.27,-563.08 391,-571 425.95,-596.8 441.32,-591.77 483,-604 494.71,-607.43 507.49,-610.64 519.43,-613.4"/>
<polygon fill="midnightblue" stroke="midnightblue" points="358.69,-535.52 348.1,-535.41 356.31,-542.1 358.69,-535.52"/>
</g>
<!-- Node20 -->
<g id="node20" class="node">
<title>Node20</title>
<g id="a_node20"><a xlink:href="../../db/d30/classCDataVector.html" target="_top" xlink:title=" ">
<polygon fill="white" stroke="red" points="496.5,-575.5 496.5,-594.5 636.5,-594.5 636.5,-575.5 496.5,-575.5"/>
<text text-anchor="middle" x="566.5" y="-582.5" font-family="FreeSans" font-size="10.00">CDataVector&lt; CReference &gt;</text>
</a>
</g>
</g>
<!-- Node11&#45;&gt;Node20 -->
<g id="edge19" class="edge">
<title>Node11&#45;&gt;Node20</title>
<path fill="none" stroke="midnightblue" d="M351.3,-540.17C364.08,-543.5 378.06,-547.02 391,-550 432.1,-559.46 478.98,-568.79 513.8,-575.43"/>
<polygon fill="midnightblue" stroke="midnightblue" points="351.9,-536.71 341.34,-537.54 350.11,-543.48 351.9,-536.71"/>
</g>
<!-- Node21 -->
<g id="node21" class="node">
<title>Node21</title>
<g id="a_node21"><a xlink:href="../../db/d30/classCDataVector.html" target="_top" xlink:title=" ">
<polygon fill="white" stroke="red" points="487.5,-537.5 487.5,-556.5 645.5,-556.5 645.5,-537.5 487.5,-537.5"/>
<text text-anchor="middle" x="566.5" y="-544.5" font-family="FreeSans" font-size="10.00">CDataVector&lt; CLGradientStop &gt;</text>
</a>
</g>
</g>
<!-- Node11&#45;&gt;Node21 -->
<g id="edge20" class="edge">
<title>Node11&#45;&gt;Node21</title>
<path fill="none" stroke="midnightblue" d="M358.17,-531.79C395.13,-534.5 445.56,-538.2 487.42,-541.27"/>
<polygon fill="midnightblue" stroke="midnightblue" points="358.34,-528.29 348.11,-531.05 357.83,-535.28 358.34,-528.29"/>
</g>
<!-- Node22 -->
<g id="node22" class="node">
<title>Node22</title>
<g id="a_node22"><a xlink:href="../../db/d30/classCDataVector.html" target="_top" xlink:title=" ">
<polygon fill="white" stroke="red" points="504.5,-499.5 504.5,-518.5 628.5,-518.5 628.5,-499.5 504.5,-499.5"/>
<text text-anchor="middle" x="566.5" y="-506.5" font-family="FreeSans" font-size="10.00">CDataVector&lt; CMoiety &gt;</text>
</a>
</g>
</g>
<!-- Node11&#45;&gt;Node22 -->
<g id="edge21" class="edge">
<title>Node11&#45;&gt;Node22</title>
<path fill="none" stroke="midnightblue" d="M358.14,-524.21C400.21,-521.13 459.7,-516.76 504.18,-513.5"/>
<polygon fill="midnightblue" stroke="midnightblue" points="357.83,-520.72 348.11,-524.95 358.34,-527.71 357.83,-520.72"/>
</g>
<!-- Node23 -->
<g id="node23" class="node">
<title>Node23</title>
<g id="a_node23"><a xlink:href="../../db/d30/classCDataVector.html" target="_top" xlink:title=" ">
<polygon fill="white" stroke="red" points="484.5,-450 484.5,-480 648.5,-480 648.5,-450 484.5,-450"/>
<text text-anchor="start" x="492.5" y="-468" font-family="FreeSans" font-size="10.00">CDataVector&lt; CLMetabReference</text>
<text text-anchor="middle" x="566.5" y="-457" font-family="FreeSans" font-size="10.00">Glyph &gt;</text>
</a>
</g>
</g>
<!-- Node11&#45;&gt;Node23 -->
<g id="edge22" class="edge">
<title>Node11&#45;&gt;Node23</title>
<path fill="none" stroke="midnightblue" d="M355.56,-516.07C397.55,-505.85 458.23,-491.09 503.57,-480.07"/>
<polygon fill="midnightblue" stroke="midnightblue" points="354.73,-512.67 345.84,-518.43 356.38,-519.47 354.73,-512.67"/>
</g>
<!-- Node24 -->
<g id="node24" class="node">
<title>Node24</title>
<g id="a_node24"><a xlink:href="../../db/d30/classCDataVector.html" target="_top" xlink:title=" ">
<polygon fill="white" stroke="red" points="495.5,-411.5 495.5,-430.5 637.5,-430.5 637.5,-411.5 495.5,-411.5"/>
<text text-anchor="middle" x="566.5" y="-418.5" font-family="FreeSans" font-size="10.00">CDataVector&lt; CDataModel &gt;</text>
</a>
</g>
</g>
<!-- Node11&#45;&gt;Node24 -->
<g id="edge23" class="edge">
<title>Node11&#45;&gt;Node24</title>
<path fill="none" stroke="midnightblue" d="M357.78,-516.97C363.14,-514.77 368.33,-512.14 373,-509 383.77,-501.75 380.91,-494.17 391,-486 426.37,-457.35 440.19,-456.45 483,-441 494.23,-436.95 506.61,-433.46 518.29,-430.58"/>
<polygon fill="midnightblue" stroke="midnightblue" points="356.25,-513.8 348.02,-520.48 358.61,-520.39 356.25,-513.8"/>
</g>
<!-- Node25 -->
<g id="node25" class="node">
<title>Node25</title>
<g id="a_node25"><a xlink:href="../../db/d30/classCDataVector.html" target="_top" xlink:title=" ">
<polygon fill="white" stroke="red" points="483,-373.5 483,-392.5 650,-392.5 650,-373.5 483,-373.5"/>
<text text-anchor="middle" x="566.5" y="-380.5" font-family="FreeSans" font-size="10.00">CDataVector&lt; CChemEqElement &gt;</text>
</a>
</g>
</g>
<!-- Node11&#45;&gt;Node25 -->
<g id="edge24" class="edge">
<title>Node11&#45;&gt;Node25</title>
<path fill="none" stroke="midnightblue" d="M357.77,-519.38C363.42,-516.76 368.68,-513.38 373,-509 394.37,-487.37 371.21,-466.08 391,-443 420.14,-409.02 440.55,-416.2 483,-402 493.87,-398.36 505.78,-395.18 517.08,-392.51"/>
<polygon fill="midnightblue" stroke="midnightblue" points="356.11,-516.27 348,-523.1 358.59,-522.81 356.11,-516.27"/>
</g>
<!-- Node26 -->
<g id="node26" class="node">
<title>Node26</title>
<g id="a_node26"><a xlink:href="../../db/d30/classCDataVector.html" target="_top" xlink:title=" ">
<polygon fill="white" stroke="red" points="506.5,-335.5 506.5,-354.5 626.5,-354.5 626.5,-335.5 506.5,-335.5"/>
<text text-anchor="middle" x="566.5" y="-342.5" font-family="FreeSans" font-size="10.00">CDataVector&lt; CEvent &gt;</text>
</a>
</g>
</g>
<!-- Node11&#45;&gt;Node26 -->
<g id="edge25" class="edge">
<title>Node11&#45;&gt;Node26</title>
<path fill="none" stroke="midnightblue" d="M357.57,-520.07C363.39,-517.35 368.74,-513.75 373,-509 404.88,-473.4 361.36,-440.48 391,-403 418.42,-368.32 467.25,-354.18 506.29,-348.52"/>
<polygon fill="midnightblue" stroke="midnightblue" points="356.25,-516.83 348.14,-523.66 358.74,-523.37 356.25,-516.83"/>
</g>
<!-- Node28 -->
<g id="node27" class="node">
<title>Node28</title>
<g id="a_node27"><a xlink:href="../../db/d30/classCDataVector.html" target="_top" xlink:title=" ">
<polygon fill="white" stroke="red" points="484.5,-297.5 484.5,-316.5 648.5,-316.5 648.5,-297.5 484.5,-297.5"/>
<text text-anchor="middle" x="566.5" y="-304.5" font-family="FreeSans" font-size="10.00">CDataVector&lt; CLReactionGlyph &gt;</text>
</a>
</g>
</g>
<!-- Node11&#45;&gt;Node28 -->
<g id="edge26" class="edge">
<title>Node11&#45;&gt;Node28</title>
<path fill="none" stroke="midnightblue" d="M357.6,-520.38C363.46,-517.62 368.82,-513.93 373,-509 418.16,-455.79 346.03,-406.38 391,-353 413.81,-325.92 450.48,-313.79 484.34,-308.68"/>
<polygon fill="midnightblue" stroke="midnightblue" points="356.18,-517.18 348.07,-524 358.66,-523.72 356.18,-517.18"/>
</g>
<!-- Node29 -->
<g id="node28" class="node">
<title>Node29</title>
<g id="a_node28"><a xlink:href="../../db/d30/classCDataVector.html" target="_top" xlink:title=" ">
<polygon fill="white" stroke="red" points="484.5,-259.5 484.5,-278.5 648.5,-278.5 648.5,-259.5 484.5,-259.5"/>
<text text-anchor="middle" x="566.5" y="-266.5" font-family="FreeSans" font-size="10.00">CDataVector&lt; CLColorDefinition &gt;</text>
</a>
</g>
</g>
<!-- Node11&#45;&gt;Node29 -->
<g id="edge27" class="edge">
<title>Node11&#45;&gt;Node29</title>
<path fill="none" stroke="midnightblue" d="M357.71,-520.48C363.55,-517.7 368.88,-513.98 373,-509 401.31,-474.79 361.95,-343.58 391,-310 413.9,-283.52 450.38,-272.4 484.07,-268.25"/>
<polygon fill="midnightblue" stroke="midnightblue" points="356.3,-517.27 348.2,-524.11 358.79,-523.81 356.3,-517.27"/>
</g>
<!-- Node30 -->
<g id="node29" class="node">
<title>Node30</title>
<g id="a_node29"><a xlink:href="../../db/d30/classCDataVector.html" target="_top" xlink:title=" ">
<polygon fill="white" stroke="red" points="505.5,-221.5 505.5,-240.5 627.5,-240.5 627.5,-221.5 505.5,-221.5"/>
<text text-anchor="middle" x="566.5" y="-228.5" font-family="FreeSans" font-size="10.00">CDataVector&lt; CMetab &gt;</text>
</a>
</g>
</g>
<!-- Node11&#45;&gt;Node30 -->
<g id="edge28" class="edge">
<title>Node11&#45;&gt;Node30</title>
<path fill="none" stroke="midnightblue" d="M357.78,-520.54C363.61,-517.75 368.92,-514.01 373,-509 406.78,-467.54 355.91,-309.36 391,-269 418.77,-237.06 466.53,-228.38 505.08,-227.23"/>
<polygon fill="midnightblue" stroke="midnightblue" points="356.37,-517.33 348.28,-524.18 358.87,-523.87 356.37,-517.33"/>
</g>
<!-- Node31 -->
<g id="node30" class="node">
<title>Node31</title>
<g id="a_node30"><a xlink:href="../../db/d30/classCDataVector.html" target="_top" xlink:title=" ">
<polygon fill="white" stroke="red" points="492.5,-172 492.5,-202 640.5,-202 640.5,-172 492.5,-172"/>
<text text-anchor="start" x="500.5" y="-190" font-family="FreeSans" font-size="10.00">CDataVector&lt; CLLocalRender</text>
<text text-anchor="middle" x="566.5" y="-179" font-family="FreeSans" font-size="10.00">Information &gt;</text>
</a>
</g>
</g>
<!-- Node11&#45;&gt;Node31 -->
<g id="edge29" class="edge">
<title>Node11&#45;&gt;Node31</title>
<path fill="none" stroke="midnightblue" d="M357.83,-520.58C363.66,-517.79 368.95,-514.03 373,-509 412.13,-460.45 350.86,-276.71 391,-229 415.47,-199.91 456.25,-189.01 492.24,-185.56"/>
<polygon fill="midnightblue" stroke="midnightblue" points="356.42,-517.37 348.34,-524.22 358.93,-523.91 356.42,-517.37"/>
</g>
<!-- Node32 -->
<g id="node31" class="node">
<title>Node32</title>
<g id="a_node31"><a xlink:href="../../db/d30/classCDataVector.html" target="_top" xlink:title=" ">
<polygon fill="white" stroke="red" points="486,-133.5 486,-152.5 647,-152.5 647,-133.5 486,-133.5"/>
<text text-anchor="middle" x="566.5" y="-140.5" font-family="FreeSans" font-size="10.00">CDataVector&lt; CLGradientBase &gt;</text>
</a>
</g>
</g>
<!-- Node11&#45;&gt;Node32 -->
<g id="edge30" class="edge">
<title>Node11&#45;&gt;Node32</title>
<path fill="none" stroke="midnightblue" d="M357.66,-520.71C363.56,-517.9 368.92,-514.11 373,-509 417.74,-453.01 345.9,-242.7 391,-187 413.61,-159.08 451.12,-147.36 485.58,-142.93"/>
<polygon fill="midnightblue" stroke="midnightblue" points="356.15,-517.54 348.04,-524.36 358.63,-524.09 356.15,-517.54"/>
</g>
<!-- Node33 -->
<g id="node32" class="node">
<title>Node33</title>
<g id="a_node32"><a xlink:href="../../db/d30/classCDataVector.html" target="_top" xlink:title=" ">
<polygon fill="white" stroke="red" points="500.5,-95.5 500.5,-114.5 632.5,-114.5 632.5,-95.5 500.5,-95.5"/>
<text text-anchor="middle" x="566.5" y="-102.5" font-family="FreeSans" font-size="10.00">CDataVector&lt; CPlotItem &gt;</text>
</a>
</g>
</g>
<!-- Node11&#45;&gt;Node33 -->
<g id="edge31" class="edge">
<title>Node11&#45;&gt;Node33</title>
<path fill="none" stroke="midnightblue" d="M357.69,-520.74C363.59,-517.93 368.93,-514.12 373,-509 423.62,-445.21 338.37,-205.14 391,-143 417.25,-112.01 462.33,-102.78 500.09,-101.16"/>
<polygon fill="midnightblue" stroke="midnightblue" points="356.18,-517.57 348.07,-524.39 358.67,-524.11 356.18,-517.57"/>
</g>
<!-- Node34 -->
<g id="node33" class="node">
<title>Node34</title>
<g id="a_node33"><a xlink:href="../../db/d30/classCDataVector.html" target="_top" xlink:title=" ">
<polygon fill="white" stroke="red" points="494.5,-57.5 494.5,-76.5 638.5,-76.5 638.5,-57.5 494.5,-57.5"/>
<text text-anchor="middle" x="566.5" y="-64.5" font-family="FreeSans" font-size="10.00">CDataVector&lt; CDataObject &gt;</text>
</a>
</g>
</g>
<!-- Node11&#45;&gt;Node34 -->
<g id="edge32" class="edge">
<title>Node11&#45;&gt;Node34</title>
<path fill="none" stroke="midnightblue" d="M357.71,-520.76C363.61,-517.94 368.95,-514.13 373,-509 401.05,-473.47 361.54,-136.37 391,-102 416.03,-72.79 457.99,-63.71 494.49,-62.1"/>
<polygon fill="midnightblue" stroke="midnightblue" points="356.2,-517.59 348.1,-524.41 358.69,-524.13 356.2,-517.59"/>
</g>
<!-- Node35 -->
<g id="node34" class="node">
<title>Node35</title>
<g id="a_node34"><a xlink:href="../../db/d30/classCDataVector.html" target="_top" xlink:title=" ">
<polygon fill="white" stroke="red" points="494,-19.5 494,-38.5 639,-38.5 639,-19.5 494,-19.5"/>
<text text-anchor="middle" x="566.5" y="-26.5" font-family="FreeSans" font-size="10.00">CDataVector&lt; CLTextGlyph &gt;</text>
</a>
</g>
</g>
<!-- Node11&#45;&gt;Node35 -->
<g id="edge33" class="edge">
<title>Node11&#45;&gt;Node35</title>
<path fill="none" stroke="midnightblue" d="M357.73,-520.77C363.62,-517.95 368.96,-514.14 373,-509 403.73,-469.93 358.52,-99.63 391,-62 415.88,-33.17 457.37,-24.48 493.65,-23.2"/>
<polygon fill="midnightblue" stroke="midnightblue" points="356.22,-517.6 348.12,-524.43 358.71,-524.14 356.22,-517.6"/>
</g>
<!-- Node239&#45;&gt;Node3 -->
<g id="edge36" class="edge">
<title>Node239&#45;&gt;Node3</title>
<path fill="none" stroke="orange" stroke-dasharray="5,2" d="M373.98,-995.41C402.16,-999.92 435.21,-1005.45 465,-1011 479.11,-1013.63 494.28,-1016.68 508.45,-1019.63"/>
<polygon fill="orange" stroke="orange" points="374.25,-991.91 363.83,-993.79 373.15,-998.82 374.25,-991.91"/>
<text text-anchor="middle" x="428" y="-1014" font-family="FreeSans" font-size="10.00"> &lt; C_FLOAT64 &gt;</text>
</g>
<!-- Node239&#45;&gt;Node6 -->
<g id="edge37" class="edge">
<title>Node239&#45;&gt;Node6</title>
<path fill="none" stroke="orange" stroke-dasharray="5,2" d="M374.03,-978.03C379.76,-977.62 385.48,-977.26 391,-977 430.19,-975.15 474.39,-975.68 508.49,-976.66"/>
<polygon fill="orange" stroke="orange" points="373.41,-974.57 363.72,-978.85 373.96,-981.55 373.41,-974.57"/>
<text text-anchor="middle" x="428" y="-980" font-family="FreeSans" font-size="10.00"> &lt; std::string &gt;</text>
</g>
</g>
</svg>
        <g id="navigator" transform="translate(0 0)" fill="#404254">
                <rect fill="#f2f5e9" fill-opacity="0.5" stroke="#606060" stroke-width=".5" x="0" y="0" width="60" height="60"/>
                <use id="zoomplus" xlink:href="#zoomPlus" x="17" y="9" onmousedown="handleZoom(evt,'in')"/>
                <use id="zoomminus" xlink:href="#zoomMin" x="42" y="9" onmousedown="handleZoom(evt,'out')"/>
                <use id="reset" xlink:href="#resetDef" x="30" y="36" onmousedown="handleReset()"/>
                <g id="arrowUp" xlink:href="#dirArrow" transform="translate(30 24)" onmousedown="handlePan(0,-1)">
                  <use xlink:href="#rim" fill="#404040">
                        <set attributeName="fill" to="#808080" begin="arrowUp.mouseover" end="arrowUp.mouseout"/>
                  </use>
                  <path fill="none" stroke="white" stroke-width="1.5" d="M0,-3.0v7 M-2.5,-0.5L0,-3.0L2.5,-0.5"/>
                </g>
                <g id="arrowRight" xlink:href="#dirArrow" transform="rotate(90) translate(36 -43)" onmousedown="handlePan(1,0)">
                  <use xlink:href="#rim" fill="#404040">
                        <set attributeName="fill" to="#808080" begin="arrowRight.mouseover" end="arrowRight.mouseout"/>
                  </use>
                  <path fill="none" stroke="white" stroke-width="1.5" d="M0,-3.0v7 M-2.5,-0.5L0,-3.0L2.5,-0.5"/>
                </g>
                <g id="arrowDown" xlink:href="#dirArrow" transform="rotate(180) translate(-30 -48)" onmousedown="handlePan(0,1)">
                  <use xlink:href="#rim" fill="#404040">
                        <set attributeName="fill" to="#808080" begin="arrowDown.mouseover" end="arrowDown.mouseout"/>
                  </use>
                  <path fill="none" stroke="white" stroke-width="1.5" d="M0,-3.0v7 M-2.5,-0.5L0,-3.0L2.5,-0.5"/>
                </g>
                <g id="arrowLeft" xlink:href="#dirArrow" transform="rotate(270) translate(-36 17)" onmousedown="handlePan(-1,0)">
                  <use xlink:href="#rim" fill="#404040">
                        <set attributeName="fill" to="#808080" begin="arrowLeft.mouseover" end="arrowLeft.mouseout"/>
                  </use>
                  <path fill="none" stroke="white" stroke-width="1.5" d="M0,-3.0v7 M-2.5,-0.5L0,-3.0L2.5,-0.5"/>
                </g>
        </g>
        <svg viewBox="0 0 15 15" width="100%" height="30px" preserveAspectRatio="xMaxYMin meet">
         <g id="arrow_out" transform="scale(0.3 0.3)">
          <a xlink:href="classCObjectInterface__inherit__graph_org.svg" target="_base">
           <rect id="button" ry="5" rx="5" y="6" x="6" height="38" width="38"
                fill="#f2f5e9" fill-opacity="0.5" stroke="#606060" stroke-width="1.0"/>
           <path id="arrow"
             d="M 11.500037,31.436501 C 11.940474,20.09759 22.043105,11.32322 32.158766,21.979434 L 37.068811,17.246167 C 37.068811,17.246167 37.088388,32 37.088388,32 L 22.160133,31.978069 C 22.160133,31.978069 26.997745,27.140456 26.997745,27.140456 C 18.528582,18.264221 13.291696,25.230495 11.500037,31.436501 z"
             style="fill:#404040;"/>
          </a>
         </g>
        </svg>
</svg>
