<?xml version="1.0" encoding="UTF-8" standalone="no"?>
<!DOCTYPE svg PUBLIC "-//W3C//DTD SVG 1.1//EN"
 "http://www.w3.org/Graphics/SVG/1.1/DTD/svg11.dtd">
<!-- Generated by graphviz version 2.43.0 (0)
 -->
<!-- Title: CStepMatrix Pages: 1 -->
<svg width="234pt" height="209pt"
 viewBox="0.00 0.00 233.50 209.00" xmlns="http://www.w3.org/2000/svg" xmlns:xlink="http://www.w3.org/1999/xlink">
<g id="graph0" class="graph" transform="scale(1 1) rotate(0) translate(4 205)">
<title>CStepMatrix</title>
<polygon fill="white" stroke="transparent" points="-4,4 -4,-205 229.5,-205 229.5,4 -4,4"/>
<!-- Node1 -->
<g id="node1" class="node">
<title>Node1</title>
<g id="a_node1"><a xlink:title=" ">
<polygon fill="#bfbfbf" stroke="black" points="45.5,-0.5 45.5,-19.5 115.5,-19.5 115.5,-0.5 45.5,-0.5"/>
<text text-anchor="middle" x="80.5" y="-7.5" font-family="FreeSans" font-size="10.00">CStepMatrix</text>
</a>
</g>
</g>
<!-- Node2 -->
<g id="node2" class="node">
<title>Node2</title>
<g id="a_node2"><a xlink:href="../../dd/de4/classCVector.html" target="_top" xlink:title=" ">
<polygon fill="white" stroke="black" points="0,-57.5 0,-76.5 161,-76.5 161,-57.5 0,-57.5"/>
<text text-anchor="middle" x="80.5" y="-64.5" font-family="FreeSans" font-size="10.00">CVector&lt; CStepMatrixColumn * &gt;</text>
</a>
</g>
</g>
<!-- Node2&#45;&gt;Node1 -->
<g id="edge1" class="edge">
<title>Node2&#45;&gt;Node1</title>
<path fill="none" stroke="#8b1a1a" d="M80.5,-47.12C80.5,-37.82 80.5,-27.06 80.5,-19.71"/>
<polygon fill="#8b1a1a" stroke="#8b1a1a" points="77,-47.41 80.5,-57.41 84,-47.41 77,-47.41"/>
</g>
<!-- Node3 -->
<g id="node3" class="node">
<title>Node3</title>
<g id="a_node3"><a xlink:href="../../d5/d46/classCVectorCore.html" target="_top" xlink:title=" ">
<polygon fill="white" stroke="black" points="18.5,-181.5 18.5,-200.5 134.5,-200.5 134.5,-181.5 18.5,-181.5"/>
<text text-anchor="middle" x="76.5" y="-188.5" font-family="FreeSans" font-size="10.00">CVectorCore&lt; CType &gt;</text>
</a>
</g>
</g>
<!-- Node3&#45;&gt;Node2 -->
<g id="edge2" class="edge">
<title>Node3&#45;&gt;Node2</title>
<path fill="none" stroke="midnightblue" d="M77.12,-171.19C78,-144.4 79.57,-96.31 80.21,-76.69"/>
<polygon fill="midnightblue" stroke="midnightblue" points="73.62,-171.12 76.79,-181.23 80.61,-171.35 73.62,-171.12"/>
</g>
<!-- Node4 -->
<g id="node4" class="node">
<title>Node4</title>
<g id="a_node4"><a xlink:href="../../dd/de4/classCVector.html" target="_top" xlink:title=" ">
<polygon fill="white" stroke="black" points="92.5,-124.5 92.5,-143.5 188.5,-143.5 188.5,-124.5 92.5,-124.5"/>
<text text-anchor="middle" x="140.5" y="-131.5" font-family="FreeSans" font-size="10.00">CVector&lt; CType &gt;</text>
</a>
</g>
</g>
<!-- Node3&#45;&gt;Node4 -->
<g id="edge4" class="edge">
<title>Node3&#45;&gt;Node4</title>
<path fill="none" stroke="midnightblue" d="M94.29,-174.71C105.92,-164.72 120.69,-152.02 130.36,-143.71"/>
<polygon fill="midnightblue" stroke="midnightblue" points="91.8,-172.23 86.5,-181.41 96.37,-177.54 91.8,-172.23"/>
</g>
<!-- Node4&#45;&gt;Node2 -->
<g id="edge3" class="edge">
<title>Node4&#45;&gt;Node2</title>
<path fill="none" stroke="orange" stroke-dasharray="5,2" d="M125.39,-116.63C113.66,-103.92 97.85,-86.8 88.46,-76.63"/>
<polygon fill="orange" stroke="orange" points="123.05,-119.26 132.41,-124.23 128.2,-114.51 123.05,-119.26"/>
<text text-anchor="middle" x="169.5" y="-98" font-family="FreeSans" font-size="10.00"> &lt; CStepMatrixColumn * &gt;</text>
</g>
</g>
</svg>
