<?xml version="1.0" encoding="UTF-8" standalone="no"?>
<!DOCTYPE svg PUBLIC "-//W3C//DTD SVG 1.1//EN"
 "http://www.w3.org/Graphics/SVG/1.1/DTD/svg11.dtd">
<!-- Generated by graphviz version 2.43.0 (0)
 -->
<!-- Title: CQBarChart Pages: 1 -->
<svg width="178pt" height="140pt"
 viewBox="0.00 0.00 178.00 140.00" xmlns="http://www.w3.org/2000/svg" xmlns:xlink="http://www.w3.org/1999/xlink">
<g id="graph0" class="graph" transform="scale(1 1) rotate(0) translate(4 136)">
<title>CQBarChart</title>
<polygon fill="white" stroke="transparent" points="-4,4 -4,-136 174,-136 174,4 -4,4"/>
<!-- Node1 -->
<g id="node1" class="node">
<title>Node1</title>
<g id="a_node1"><a xlink:title=" ">
<polygon fill="#bfbfbf" stroke="black" points="39.5,-0.5 39.5,-19.5 108.5,-19.5 108.5,-0.5 39.5,-0.5"/>
<text text-anchor="middle" x="74" y="-7.5" font-family="FreeSans" font-size="10.00">CQBarChart</text>
</a>
</g>
</g>
<!-- Node2 -->
<g id="node2" class="node">
<title>Node2</title>
<g id="a_node2"><a xlink:href="../../dc/d1a/classCQBaseWidget.html" target="_top" xlink:title=" ">
<polygon fill="white" stroke="black" points="32.5,-56.5 32.5,-75.5 115.5,-75.5 115.5,-56.5 32.5,-56.5"/>
<text text-anchor="middle" x="74" y="-63.5" font-family="FreeSans" font-size="10.00">CQBaseWidget</text>
</a>
</g>
</g>
<!-- Node2&#45;&gt;Node1 -->
<g id="edge1" class="edge">
<title>Node2&#45;&gt;Node1</title>
<path fill="none" stroke="midnightblue" d="M74,-45.8C74,-36.91 74,-26.78 74,-19.75"/>
<polygon fill="midnightblue" stroke="midnightblue" points="70.5,-46.08 74,-56.08 77.5,-46.08 70.5,-46.08"/>
</g>
<!-- Node3 -->
<g id="node3" class="node">
<title>Node3</title>
<g id="a_node3"><a xlink:title=" ">
<polygon fill="white" stroke="#bfbfbf" points="0,-112.5 0,-131.5 54,-131.5 54,-112.5 0,-112.5"/>
<text text-anchor="middle" x="27" y="-119.5" font-family="FreeSans" font-size="10.00">QWidget</text>
</a>
</g>
</g>
<!-- Node3&#45;&gt;Node2 -->
<g id="edge2" class="edge">
<title>Node3&#45;&gt;Node2</title>
<path fill="none" stroke="midnightblue" d="M41.42,-104.43C49.66,-94.97 59.65,-83.48 66.38,-75.75"/>
<polygon fill="midnightblue" stroke="midnightblue" points="38.69,-102.24 34.76,-112.08 43.97,-106.84 38.69,-102.24"/>
</g>
<!-- Node4 -->
<g id="node4" class="node">
<title>Node4</title>
<g id="a_node4"><a xlink:title=" ">
<polygon fill="white" stroke="#bfbfbf" points="72,-112.5 72,-131.5 170,-131.5 170,-112.5 72,-112.5"/>
<text text-anchor="middle" x="121" y="-119.5" font-family="FreeSans" font-size="10.00">Ui::CQBaseWidget</text>
</a>
</g>
</g>
<!-- Node4&#45;&gt;Node2 -->
<g id="edge3" class="edge">
<title>Node4&#45;&gt;Node2</title>
<path fill="none" stroke="midnightblue" d="M106.58,-104.43C98.34,-94.97 88.35,-83.48 81.62,-75.75"/>
<polygon fill="midnightblue" stroke="midnightblue" points="104.03,-106.84 113.24,-112.08 109.31,-102.24 104.03,-106.84"/>
</g>
</g>
</svg>
