<?xml version="1.0" encoding="UTF-8" standalone="no"?>
<!DOCTYPE svg PUBLIC "-//W3C//DTD SVG 1.1//EN"
 "http://www.w3.org/Graphics/SVG/1.1/DTD/svg11.dtd">
<!-- Generated by graphviz version 2.43.0 (0)
 -->
<!-- Title: CVector&lt; CType &gt; Pages: 1 -->
<!--zoomable 1104 -->
<svg id="main" version="1.1" xmlns="http://www.w3.org/2000/svg" xmlns:xlink="http://www.w3.org/1999/xlink" xml:space="preserve" onload="init(evt)">
<style type="text/css"><![CDATA[
.edge:hover path { stroke: red; }
.edge:hover polygon { stroke: red; fill: red; }
]]></style>
<script type="text/javascript"><![CDATA[
var edges = document.getElementsByTagName('g');
if (edges && edges.length) {
  for (var i=0;i<edges.length;i++) {
    if (edges[i].id.substr(0,4)=='edge') {
      edges[i].setAttribute('class','edge');
    }
  }
}
]]></script>
        <defs>
                <circle id="rim" cx="0" cy="0" r="7"/>
                <circle id="rim2" cx="0" cy="0" r="3.5"/>
                <g id="zoomPlus">
                        <use xlink:href="#rim" fill="#404040">
                                <set attributeName="fill" to="#808080" begin="zoomplus.mouseover" end="zoomplus.mouseout"/>
                        </use>
                        <path d="M-4,0h8M0,-4v8" fill="none" stroke="white" stroke-width="1.5" pointer-events="none"/>
                </g>
                <g id="zoomMin">
                        <use xlink:href="#rim" fill="#404040">
                                <set attributeName="fill" to="#808080" begin="zoomminus.mouseover" end="zoomminus.mouseout"/>
                        </use>
                        <path d="M-4,0h8" fill="none" stroke="white" stroke-width="1.5" pointer-events="none"/>
                </g>
                <g id="dirArrow">
                        <path fill="none" stroke="white" stroke-width="1.5" d="M0,-3.0v7 M-2.5,-0.5L0,-3.0L2.5,-0.5"/>
                </g>
               <g id="resetDef">
                       <use xlink:href="#rim2" fill="#404040">
                               <set attributeName="fill" to="#808080" begin="reset.mouseover" end="reset.mouseout"/>
                       </use>
               </g>
        </defs>

<script type="text/javascript">
var viewWidth = 789;
var viewHeight = 1104;
var sectionId = 'dynsection-0';
</script>
<script xlink:href="../../svgpan.js"/>
<svg id="graph" class="graph">
<g id="viewport">
<title>CVector&lt; CType &gt;</title>
<polygon fill="white" stroke="transparent" points="-4,4 -4,-1099.88 785,-1099.88 785,4 -4,4"/>
<!-- Node1 -->
<g id="node1" class="node">
<title>Node1</title>
<g id="a_node1"><a xlink:title=" ">
<polygon fill="#bfbfbf" stroke="black" points="153,-541.38 153,-560.38 249,-560.38 249,-541.38 153,-541.38"/>
<text text-anchor="middle" x="201" y="-548.38" font-family="FreeSans" font-size="10.00">CVector&lt; CType &gt;</text>
</a>
</g>
</g>
<!-- Node3 -->
<g id="node3" class="node">
<title>Node3</title>
<g id="a_node3"><a xlink:href="../../dd/de4/classCVector.html" target="_top" xlink:title=" ">
<polygon fill="white" stroke="black" points="430.5,-1058.38 430.5,-1077.38 585.5,-1077.38 585.5,-1058.38 430.5,-1058.38"/>
<text text-anchor="middle" x="508" y="-1065.38" font-family="FreeSans" font-size="10.00">CVector&lt; const C_FLOAT64 * &gt;</text>
</a>
</g>
</g>
<!-- Node1&#45;&gt;Node3 -->
<g id="edge2" class="edge">
<title>Node1&#45;&gt;Node3</title>
<path fill="none" stroke="orange" stroke-dasharray="5,2" d="M203.16,-570.64C208.5,-658.66 232.02,-1012.25 267,-1045.88 320.53,-1097.36 415.21,-1088.03 468.24,-1077.47"/>
<polygon fill="orange" stroke="orange" points="206.64,-570.22 202.55,-560.44 199.65,-570.63 206.64,-570.22"/>
<text text-anchor="middle" x="335" y="-1087.88" font-family="FreeSans" font-size="10.00"> &lt; const C_FLOAT64 * &gt;</text>
</g>
<!-- Node4 -->
<g id="node4" class="node">
<title>Node4</title>
<g id="a_node4"><a xlink:href="../../dd/de4/classCVector.html" target="_top" xlink:title=" ">
<polygon fill="white" stroke="black" points="459.5,-1020.38 459.5,-1039.38 556.5,-1039.38 556.5,-1020.38 459.5,-1020.38"/>
<text text-anchor="middle" x="508" y="-1027.38" font-family="FreeSans" font-size="10.00">CVector&lt; C_INT &gt;</text>
</a>
</g>
</g>
<!-- Node1&#45;&gt;Node4 -->
<g id="edge3" class="edge">
<title>Node1&#45;&gt;Node4</title>
<path fill="none" stroke="orange" stroke-dasharray="5,2" d="M201.72,-570.62C201.01,-650.28 202.81,-946.81 267,-1007.88 293.71,-1033.3 397.4,-1034.15 459.42,-1032.21"/>
<polygon fill="orange" stroke="orange" points="205.22,-570.53 201.83,-560.49 198.22,-570.45 205.22,-570.53"/>
<text text-anchor="middle" x="335" y="-1034.88" font-family="FreeSans" font-size="10.00"> &lt; C_INT &gt;</text>
</g>
<!-- Node5 -->
<g id="node5" class="node">
<title>Node5</title>
<g id="a_node5"><a xlink:href="../../dd/de4/classCVector.html" target="_top" xlink:title=" ">
<polygon fill="white" stroke="black" points="446.5,-982.38 446.5,-1001.38 569.5,-1001.38 569.5,-982.38 446.5,-982.38"/>
<text text-anchor="middle" x="508" y="-989.38" font-family="FreeSans" font-size="10.00">CVector&lt; C_FLOAT64 &gt;</text>
</a>
</g>
</g>
<!-- Node1&#45;&gt;Node5 -->
<g id="edge4" class="edge">
<title>Node1&#45;&gt;Node5</title>
<path fill="none" stroke="orange" stroke-dasharray="5,2" d="M202.01,-570.82C202.5,-646.37 208.42,-913.64 267,-968.88 292.01,-992.47 383.72,-995.25 446.25,-994.22"/>
<polygon fill="orange" stroke="orange" points="205.51,-570.38 201.97,-560.4 198.51,-570.41 205.51,-570.38"/>
<text text-anchor="middle" x="335" y="-996.88" font-family="FreeSans" font-size="10.00"> &lt; C_FLOAT64 &gt;</text>
</g>
<!-- Node6 -->
<g id="node6" class="node">
<title>Node6</title>
<g id="a_node6"><a xlink:href="../../dd/de4/classCVector.html" target="_top" xlink:title=" ">
<polygon fill="white" stroke="black" points="434,-944.38 434,-963.38 582,-963.38 582,-944.38 434,-944.38"/>
<text text-anchor="middle" x="508" y="-951.38" font-family="FreeSans" font-size="10.00">CVector&lt; CObjectInterface * &gt;</text>
</a>
</g>
</g>
<!-- Node1&#45;&gt;Node6 -->
<g id="edge5" class="edge">
<title>Node1&#45;&gt;Node6</title>
<path fill="none" stroke="orange" stroke-dasharray="5,2" d="M202.4,-570.64C204.25,-641.1 214.37,-878.46 267,-927.88 290.49,-949.94 372.33,-954.88 433.96,-955.31"/>
<polygon fill="orange" stroke="orange" points="205.89,-570.4 202.16,-560.49 198.9,-570.57 205.89,-570.4"/>
<text text-anchor="middle" x="335" y="-956.88" font-family="FreeSans" font-size="10.00"> &lt; CObjectInterface * &gt;</text>
</g>
<!-- Node8 -->
<g id="node8" class="node">
<title>Node8</title>
<g id="a_node8"><a xlink:href="../../dd/de4/classCVector.html" target="_top" xlink:title=" ">
<polygon fill="white" stroke="black" points="440,-906.38 440,-925.38 576,-925.38 576,-906.38 440,-906.38"/>
<text text-anchor="middle" x="508" y="-913.38" font-family="FreeSans" font-size="10.00">CVector&lt; CXMLHandler * &gt;</text>
</a>
</g>
</g>
<!-- Node1&#45;&gt;Node8 -->
<g id="edge7" class="edge">
<title>Node1&#45;&gt;Node8</title>
<path fill="none" stroke="orange" stroke-dasharray="5,2" d="M202.87,-570.55C206.17,-635.78 220.25,-843.33 267,-886.88 291.38,-909.59 377.81,-915.29 439.96,-916.34"/>
<polygon fill="orange" stroke="orange" points="206.36,-570.23 202.38,-560.41 199.36,-570.56 206.36,-570.23"/>
<text text-anchor="middle" x="335" y="-917.88" font-family="FreeSans" font-size="10.00"> &lt; CXMLHandler * &gt;</text>
</g>
<!-- Node10 -->
<g id="node10" class="node">
<title>Node10</title>
<g id="a_node10"><a xlink:href="../../dd/de4/classCVector.html" target="_top" xlink:title=" ">
<polygon fill="white" stroke="black" points="451.5,-856.88 451.5,-886.88 564.5,-886.88 564.5,-856.88 451.5,-856.88"/>
<text text-anchor="start" x="459.5" y="-874.88" font-family="FreeSans" font-size="10.00">CVector&lt; CMathEvent</text>
<text text-anchor="middle" x="508" y="-863.88" font-family="FreeSans" font-size="10.00">::CAssignment &gt;</text>
</a>
</g>
</g>
<!-- Node1&#45;&gt;Node10 -->
<g id="edge9" class="edge">
<title>Node1&#45;&gt;Node10</title>
<path fill="none" stroke="orange" stroke-dasharray="5,2" d="M203.39,-570.55C208.08,-630.58 225.35,-809.67 267,-846.88 293.32,-870.4 388.97,-873.79 451.28,-873.36"/>
<polygon fill="orange" stroke="orange" points="206.88,-570.2 202.64,-560.49 199.9,-570.73 206.88,-570.2"/>
<text text-anchor="middle" x="335" y="-874.88" font-family="FreeSans" font-size="10.00"> &lt; CMathEvent::CAssignment &gt;</text>
</g>
<!-- Node11 -->
<g id="node11" class="node">
<title>Node11</title>
<g id="a_node11"><a xlink:href="../../dd/de4/classCVector.html" target="_top" xlink:title=" ">
<polygon fill="white" stroke="black" points="437,-807.88 437,-837.88 579,-837.88 579,-807.88 437,-807.88"/>
<text text-anchor="start" x="445" y="-825.88" font-family="FreeSans" font-size="10.00">CVector&lt; CMathEvent</text>
<text text-anchor="middle" x="508" y="-814.88" font-family="FreeSans" font-size="10.00">::CTrigger::CRootProcessor &gt;</text>
</a>
</g>
</g>
<!-- Node1&#45;&gt;Node11 -->
<g id="edge10" class="edge">
<title>Node1&#45;&gt;Node11</title>
<path fill="none" stroke="orange" stroke-dasharray="5,2" d="M204.45,-570.7C211.37,-623.27 232.82,-764.21 267,-793.88 291.68,-815.31 375.17,-821.4 436.77,-822.88"/>
<polygon fill="orange" stroke="orange" points="207.9,-570.12 203.16,-560.64 200.96,-571 207.9,-570.12"/>
<text text-anchor="start" x="282" y="-834.88" font-family="FreeSans" font-size="10.00"> &lt; CMathEvent::CTrigger</text>
<text text-anchor="middle" x="335" y="-823.88" font-family="FreeSans" font-size="10.00">::CRootProcessor &gt;</text>
</g>
<!-- Node12 -->
<g id="node12" class="node">
<title>Node12</title>
<g id="a_node12"><a xlink:href="../../dd/de4/classCVector.html" target="_top" xlink:title=" ">
<polygon fill="white" stroke="black" points="422,-769.38 422,-788.38 594,-788.38 594,-769.38 422,-769.38"/>
<text text-anchor="middle" x="508" y="-776.38" font-family="FreeSans" font-size="10.00">CVector&lt; CMathUpdateSequence &gt;</text>
</a>
</g>
</g>
<!-- Node1&#45;&gt;Node12 -->
<g id="edge11" class="edge">
<title>Node1&#45;&gt;Node12</title>
<path fill="none" stroke="orange" stroke-dasharray="5,2" d="M201.75,-570.66C202.39,-612.06 210.3,-707.81 267,-753.88 290.29,-772.8 362.66,-778.38 421.9,-779.62"/>
<polygon fill="orange" stroke="orange" points="205.25,-570.5 201.72,-560.51 198.25,-570.52 205.25,-570.5"/>
<text text-anchor="middle" x="335" y="-781.88" font-family="FreeSans" font-size="10.00"> &lt; CMathUpdateSequence &gt;</text>
</g>
<!-- Node13 -->
<g id="node13" class="node">
<title>Node13</title>
<g id="a_node13"><a xlink:href="../../dd/de4/classCVector.html" target="_top" xlink:title=" ">
<polygon fill="white" stroke="black" points="443.5,-731.38 443.5,-750.38 572.5,-750.38 572.5,-731.38 443.5,-731.38"/>
<text text-anchor="middle" x="508" y="-738.38" font-family="FreeSans" font-size="10.00">CVector&lt; C_FLOAT64 * &gt;</text>
</a>
</g>
</g>
<!-- Node1&#45;&gt;Node13 -->
<g id="edge12" class="edge">
<title>Node1&#45;&gt;Node13</title>
<path fill="none" stroke="orange" stroke-dasharray="5,2" d="M203.48,-570.72C207.27,-606.07 220.6,-679.56 267,-714.88 293.84,-735.32 381.85,-740.33 443.47,-741.24"/>
<polygon fill="orange" stroke="orange" points="206.95,-570.31 202.55,-560.67 199.98,-570.95 206.95,-570.31"/>
<text text-anchor="middle" x="335" y="-741.88" font-family="FreeSans" font-size="10.00"> &lt; C_FLOAT64 * &gt;</text>
</g>
<!-- Node14 -->
<g id="node14" class="node">
<title>Node14</title>
<g id="a_node14"><a xlink:href="../../dd/de4/classCVector.html" target="_top" xlink:title=" ">
<polygon fill="white" stroke="black" points="444,-693.38 444,-712.38 572,-712.38 572,-693.38 444,-693.38"/>
<text text-anchor="middle" x="508" y="-700.38" font-family="FreeSans" font-size="10.00">CVector&lt; unsigned char &gt;</text>
</a>
</g>
</g>
<!-- Node1&#45;&gt;Node14 -->
<g id="edge13" class="edge">
<title>Node1&#45;&gt;Node14</title>
<path fill="none" stroke="orange" stroke-dasharray="5,2" d="M206.07,-570.34C213.13,-598.73 230.51,-650.83 267,-675.88 294.83,-694.99 382.58,-700.74 443.87,-702.38"/>
<polygon fill="orange" stroke="orange" points="209.44,-569.37 203.79,-560.41 202.62,-570.94 209.44,-569.37"/>
<text text-anchor="middle" x="335" y="-702.88" font-family="FreeSans" font-size="10.00"> &lt; unsigned char &gt;</text>
</g>
<!-- Node15 -->
<g id="node15" class="node">
<title>Node15</title>
<g id="a_node15"><a xlink:href="../../dd/de4/classCVector.html" target="_top" xlink:title=" ">
<polygon fill="white" stroke="black" points="430,-655.38 430,-674.38 586,-674.38 586,-655.38 430,-655.38"/>
<text text-anchor="middle" x="508" y="-662.38" font-family="FreeSans" font-size="10.00">CVector&lt; const CDataObject * &gt;</text>
</a>
</g>
</g>
<!-- Node1&#45;&gt;Node15 -->
<g id="edge14" class="edge">
<title>Node1&#45;&gt;Node15</title>
<path fill="none" stroke="orange" stroke-dasharray="5,2" d="M210.18,-569.77C220.28,-590.56 239.54,-623.11 267,-638.88 293.99,-654.38 370.42,-660.65 429.86,-663.18"/>
<polygon fill="orange" stroke="orange" points="213.34,-568.25 205.97,-560.64 206.98,-571.18 213.34,-568.25"/>
<text text-anchor="middle" x="335" y="-663.88" font-family="FreeSans" font-size="10.00"> &lt; const CDataObject * &gt;</text>
</g>
<!-- Node16 -->
<g id="node16" class="node">
<title>Node16</title>
<g id="a_node16"><a xlink:href="../../dd/de4/classCVector.html" target="_top" xlink:title=" ">
<polygon fill="white" stroke="black" points="461,-617.38 461,-636.38 555,-636.38 555,-617.38 461,-617.38"/>
<text text-anchor="middle" x="508" y="-624.38" font-family="FreeSans" font-size="10.00">CVector&lt; size_t &gt;</text>
</a>
</g>
</g>
<!-- Node1&#45;&gt;Node16 -->
<g id="edge15" class="edge">
<title>Node1&#45;&gt;Node16</title>
<path fill="none" stroke="orange" stroke-dasharray="5,2" d="M219.77,-567.13C232.1,-577.43 249.41,-590.06 267,-596.88 331.01,-621.72 411.15,-627.07 460.71,-627.69"/>
<polygon fill="orange" stroke="orange" points="221.93,-564.38 212.09,-560.47 217.35,-569.67 221.93,-564.38"/>
<text text-anchor="middle" x="335" y="-626.88" font-family="FreeSans" font-size="10.00"> &lt; size_t &gt;</text>
</g>
<!-- Node17 -->
<g id="node17" class="node">
<title>Node17</title>
<g id="a_node17"><a xlink:href="../../dd/de4/classCVector.html" target="_top" xlink:title=" ">
<polygon fill="white" stroke="black" points="443,-579.38 443,-598.38 573,-598.38 573,-579.38 443,-579.38"/>
<text text-anchor="middle" x="508" y="-586.38" font-family="FreeSans" font-size="10.00">CVector&lt; CDataObject * &gt;</text>
</a>
</g>
</g>
<!-- Node1&#45;&gt;Node17 -->
<g id="edge16" class="edge">
<title>Node1&#45;&gt;Node17</title>
<path fill="none" stroke="orange" stroke-dasharray="5,2" d="M249.44,-562.59C255.33,-563.82 261.29,-564.95 267,-565.88 326.18,-575.5 394.28,-581.56 442.79,-585.03"/>
<polygon fill="orange" stroke="orange" points="250.16,-559.16 239.64,-560.45 248.67,-566 250.16,-559.16"/>
<text text-anchor="middle" x="335" y="-584.88" font-family="FreeSans" font-size="10.00"> &lt; CDataObject * &gt;</text>
</g>
<!-- Node18 -->
<g id="node18" class="node">
<title>Node18</title>
<g id="a_node18"><a xlink:href="../../dd/de4/classCVector.html" target="_top" xlink:title=" ">
<polygon fill="white" stroke="black" points="446,-541.38 446,-560.38 570,-560.38 570,-541.38 446,-541.38"/>
<text text-anchor="middle" x="508" y="-548.38" font-family="FreeSans" font-size="10.00">CVector&lt; metabStatus &gt;</text>
</a>
</g>
</g>
<!-- Node1&#45;&gt;Node18 -->
<g id="edge17" class="edge">
<title>Node1&#45;&gt;Node18</title>
<path fill="none" stroke="orange" stroke-dasharray="5,2" d="M259.61,-550.88C312.81,-550.88 391.58,-550.88 445.87,-550.88"/>
<polygon fill="orange" stroke="orange" points="259.32,-547.38 249.32,-550.88 259.32,-554.38 259.32,-547.38"/>
<text text-anchor="middle" x="335" y="-553.88" font-family="FreeSans" font-size="10.00"> &lt; metabStatus &gt;</text>
</g>
<!-- Node19 -->
<g id="node19" class="node">
<title>Node19</title>
<g id="a_node19"><a xlink:href="../../dd/de4/classCVector.html" target="_top" xlink:title=" ">
<polygon fill="white" stroke="black" points="437.5,-503.38 437.5,-522.38 578.5,-522.38 578.5,-503.38 437.5,-503.38"/>
<text text-anchor="middle" x="508" y="-510.38" font-family="FreeSans" font-size="10.00">CVector&lt; CMathReaction * &gt;</text>
</a>
</g>
</g>
<!-- Node1&#45;&gt;Node19 -->
<g id="edge18" class="edge">
<title>Node1&#45;&gt;Node19</title>
<path fill="none" stroke="orange" stroke-dasharray="5,2" d="M249.44,-539.18C255.33,-537.95 261.29,-536.81 267,-535.88 324.01,-526.61 389.3,-520.65 437.37,-517.13"/>
<polygon fill="orange" stroke="orange" points="248.67,-535.76 239.64,-541.31 250.16,-542.6 248.67,-535.76"/>
<text text-anchor="middle" x="335" y="-538.88" font-family="FreeSans" font-size="10.00"> &lt; CMathReaction * &gt;</text>
</g>
<!-- Node20 -->
<g id="node20" class="node">
<title>Node20</title>
<g id="a_node20"><a xlink:href="../../dd/de4/classCVector.html" target="_top" xlink:title=" ">
<polygon fill="white" stroke="black" points="442.5,-465.38 442.5,-484.38 573.5,-484.38 573.5,-465.38 442.5,-465.38"/>
<text text-anchor="middle" x="508" y="-472.38" font-family="FreeSans" font-size="10.00">CVector&lt; CMathObject * &gt;</text>
</a>
</g>
</g>
<!-- Node1&#45;&gt;Node20 -->
<g id="edge19" class="edge">
<title>Node1&#45;&gt;Node20</title>
<path fill="none" stroke="orange" stroke-dasharray="5,2" d="M220.28,-534.65C232.61,-524.66 249.72,-512.52 267,-505.88 323.67,-484.1 392.83,-477.03 442.32,-475.01"/>
<polygon fill="orange" stroke="orange" points="217.97,-532.02 212.57,-541.14 222.47,-537.38 217.97,-532.02"/>
<text text-anchor="middle" x="335" y="-508.88" font-family="FreeSans" font-size="10.00"> &lt; CMathObject * &gt;</text>
</g>
<!-- Node21 -->
<g id="node21" class="node">
<title>Node21</title>
<g id="a_node21"><a xlink:href="../../dd/de4/classCVector.html" target="_top" xlink:title=" ">
<polygon fill="white" stroke="black" points="433.5,-427.38 433.5,-446.38 582.5,-446.38 582.5,-427.38 433.5,-427.38"/>
<text text-anchor="middle" x="508" y="-434.38" font-family="FreeSans" font-size="10.00">CVector&lt; CEvaluationNode * &gt;</text>
</a>
</g>
</g>
<!-- Node1&#45;&gt;Node21 -->
<g id="edge20" class="edge">
<title>Node1&#45;&gt;Node21</title>
<path fill="none" stroke="orange" stroke-dasharray="5,2" d="M210.18,-531.99C220.28,-511.2 239.54,-478.65 267,-462.88 317.25,-434.03 383.22,-428.76 433.27,-430.01"/>
<polygon fill="orange" stroke="orange" points="206.98,-530.58 205.97,-541.13 213.34,-533.51 206.98,-530.58"/>
<text text-anchor="middle" x="335" y="-465.88" font-family="FreeSans" font-size="10.00"> &lt; CEvaluationNode * &gt;</text>
</g>
<!-- Node22 -->
<g id="node22" class="node">
<title>Node22</title>
<g id="a_node22"><a xlink:href="../../dd/de4/classCVector.html" target="_top" xlink:title=" ">
<polygon fill="white" stroke="black" points="465,-389.38 465,-408.38 551,-408.38 551,-389.38 465,-389.38"/>
<text text-anchor="middle" x="508" y="-396.38" font-family="FreeSans" font-size="10.00">CVector&lt; bool &gt;</text>
</a>
</g>
</g>
<!-- Node1&#45;&gt;Node22 -->
<g id="edge21" class="edge">
<title>Node1&#45;&gt;Node22</title>
<path fill="none" stroke="orange" stroke-dasharray="5,2" d="M205.1,-531.41C211.08,-500.97 227.32,-442.82 267,-415.88 326.1,-375.76 413.33,-381.66 464.74,-389.99"/>
<polygon fill="orange" stroke="orange" points="201.65,-530.8 203.34,-541.26 208.54,-532.04 201.65,-530.8"/>
<text text-anchor="middle" x="335" y="-418.88" font-family="FreeSans" font-size="10.00"> &lt; bool &gt;</text>
</g>
<!-- Node24 -->
<g id="node24" class="node">
<title>Node24</title>
<g id="a_node24"><a xlink:href="../../dd/de4/classCVector.html" target="_top" xlink:title=" ">
<polygon fill="white" stroke="black" points="454,-339.88 454,-369.88 562,-369.88 562,-339.88 454,-339.88"/>
<text text-anchor="start" x="462" y="-357.88" font-family="FreeSans" font-size="10.00">CVector&lt; CMatrix&lt; C</text>
<text text-anchor="middle" x="508" y="-346.88" font-family="FreeSans" font-size="10.00">_FLOAT64 &gt; &gt;</text>
</a>
</g>
</g>
<!-- Node1&#45;&gt;Node24 -->
<g id="edge23" class="edge">
<title>Node1&#45;&gt;Node24</title>
<path fill="none" stroke="orange" stroke-dasharray="5,2" d="M202.48,-530.98C204.59,-492.62 215.23,-408.77 267,-369.88 320.41,-329.77 400.81,-333.94 453.59,-342.7"/>
<polygon fill="orange" stroke="orange" points="198.97,-531.2 202.06,-541.33 205.96,-531.48 198.97,-531.2"/>
<text text-anchor="middle" x="335" y="-372.88" font-family="FreeSans" font-size="10.00"> &lt; CMatrix&lt; C_FLOAT64 &gt; &gt;</text>
</g>
<!-- Node25 -->
<g id="node25" class="node">
<title>Node25</title>
<g id="a_node25"><a xlink:href="../../dd/de4/classCVector.html" target="_top" xlink:title=" ">
<polygon fill="white" stroke="black" points="427,-290.88 427,-320.88 589,-320.88 589,-290.88 427,-290.88"/>
<text text-anchor="start" x="435" y="-308.88" font-family="FreeSans" font-size="10.00">CVector&lt; std::pair</text>
<text text-anchor="middle" x="508" y="-297.88" font-family="FreeSans" font-size="10.00">&lt; C_FLOAT64 *, C_FLOAT64 &gt; &gt;</text>
</a>
</g>
</g>
<!-- Node1&#45;&gt;Node25 -->
<g id="edge24" class="edge">
<title>Node1&#45;&gt;Node25</title>
<path fill="none" stroke="orange" stroke-dasharray="5,2" d="M204.34,-531.12C210.97,-478.73 231.75,-338.44 267,-310.88 291.17,-291.98 366.94,-293.17 426.95,-297.59"/>
<polygon fill="orange" stroke="orange" points="200.85,-530.8 203.1,-541.15 207.8,-531.65 200.85,-530.8"/>
<text text-anchor="start" x="281" y="-324.88" font-family="FreeSans" font-size="10.00"> &lt; std::pair&lt; C_FLOAT64</text>
<text text-anchor="middle" x="335" y="-313.88" font-family="FreeSans" font-size="10.00"> *, C_FLOAT64 &gt; &gt;</text>
</g>
<!-- Node26 -->
<g id="node26" class="node">
<title>Node26</title>
<g id="a_node26"><a xlink:href="../../dd/de4/classCVector.html" target="_top" xlink:title=" ">
<polygon fill="white" stroke="black" points="434,-241.88 434,-271.88 582,-271.88 582,-241.88 434,-241.88"/>
<text text-anchor="start" x="442" y="-259.88" font-family="FreeSans" font-size="10.00">CVector&lt; CMathEvent</text>
<text text-anchor="middle" x="508" y="-248.88" font-family="FreeSans" font-size="10.00">::CTrigger::CRootProcessor * &gt;</text>
</a>
</g>
</g>
<!-- Node1&#45;&gt;Node26 -->
<g id="edge25" class="edge">
<title>Node1&#45;&gt;Node26</title>
<path fill="none" stroke="orange" stroke-dasharray="5,2" d="M203.52,-531.3C208.49,-473.07 226.28,-302.98 267,-268.88 316.98,-227.03 395.35,-231.8 448.85,-241.87"/>
<polygon fill="orange" stroke="orange" points="200.03,-531.12 202.7,-541.38 207,-531.7 200.03,-531.12"/>
<text text-anchor="start" x="282" y="-282.88" font-family="FreeSans" font-size="10.00"> &lt; CMathEvent::CTrigger</text>
<text text-anchor="middle" x="335" y="-271.88" font-family="FreeSans" font-size="10.00">::CRootProcessor * &gt;</text>
</g>
<!-- Node27 -->
<g id="node27" class="node">
<title>Node27</title>
<g id="a_node27"><a xlink:href="../../dd/de4/classCVector.html" target="_top" xlink:title=" ">
<polygon fill="white" stroke="black" points="427.5,-203.38 427.5,-222.38 588.5,-222.38 588.5,-203.38 427.5,-203.38"/>
<text text-anchor="middle" x="508" y="-210.38" font-family="FreeSans" font-size="10.00">CVector&lt; CStepMatrixColumn * &gt;</text>
</a>
</g>
</g>
<!-- Node1&#45;&gt;Node27 -->
<g id="edge26" class="edge">
<title>Node1&#45;&gt;Node27</title>
<path fill="none" stroke="orange" stroke-dasharray="5,2" d="M202.8,-530.98C205.89,-465.94 219.27,-261.48 267,-220.88 290.5,-200.89 367.04,-201.34 427.44,-205.28"/>
<polygon fill="orange" stroke="orange" points="199.3,-530.98 202.36,-541.12 206.29,-531.29 199.3,-530.98"/>
<text text-anchor="middle" x="335" y="-223.88" font-family="FreeSans" font-size="10.00"> &lt; CStepMatrixColumn * &gt;</text>
</g>
<!-- Node29 -->
<g id="node29" class="node">
<title>Node29</title>
<g id="a_node29"><a xlink:href="../../dd/de4/classCVector.html" target="_top" xlink:title=" ">
<polygon fill="white" stroke="black" points="429,-165.38 429,-184.38 587,-184.38 587,-165.38 429,-165.38"/>
<text text-anchor="middle" x="508" y="-172.38" font-family="FreeSans" font-size="10.00">CVector&lt; const CModelEntity * &gt;</text>
</a>
</g>
</g>
<!-- Node1&#45;&gt;Node29 -->
<g id="edge28" class="edge">
<title>Node1&#45;&gt;Node29</title>
<path fill="none" stroke="orange" stroke-dasharray="5,2" d="M202.47,-530.94C204.56,-461.9 215.3,-234.75 267,-188.88 290.3,-168.21 368.01,-166.89 428.76,-169.37"/>
<polygon fill="orange" stroke="orange" points="198.97,-531.18 202.19,-541.27 205.96,-531.37 198.97,-531.18"/>
<text text-anchor="middle" x="335" y="-191.88" font-family="FreeSans" font-size="10.00"> &lt; const CModelEntity * &gt;</text>
</g>
<!-- Node30 -->
<g id="node30" class="node">
<title>Node30</title>
<g id="a_node30"><a xlink:href="../../dd/de4/classCVector.html" target="_top" xlink:title=" ">
<polygon fill="white" stroke="black" points="454.5,-127.38 454.5,-146.38 561.5,-146.38 561.5,-127.38 454.5,-127.38"/>
<text text-anchor="middle" x="508" y="-134.38" font-family="FreeSans" font-size="10.00">CVector&lt; C_INT32 &gt;</text>
</a>
</g>
</g>
<!-- Node1&#45;&gt;Node30 -->
<g id="edge29" class="edge">
<title>Node1&#45;&gt;Node30</title>
<path fill="none" stroke="orange" stroke-dasharray="5,2" d="M202.15,-530.95C203.15,-457.74 210.68,-205.27 267,-153.88 323.01,-102.78 420.24,-115.6 472.08,-127.38"/>
<polygon fill="orange" stroke="orange" points="198.65,-531.07 202.04,-541.1 205.65,-531.14 198.65,-531.07"/>
<text text-anchor="middle" x="335" y="-156.88" font-family="FreeSans" font-size="10.00"> &lt; C_INT32 &gt;</text>
</g>
<!-- Node31 -->
<g id="node31" class="node">
<title>Node31</title>
<g id="a_node31"><a xlink:href="../../dd/de4/classCVector.html" target="_top" xlink:title=" ">
<polygon fill="white" stroke="black" points="424.5,-89.38 424.5,-108.38 591.5,-108.38 591.5,-89.38 424.5,-89.38"/>
<text text-anchor="middle" x="508" y="-96.38" font-family="FreeSans" font-size="10.00">CVector&lt; const CMathReaction * &gt;</text>
</a>
</g>
</g>
<!-- Node1&#45;&gt;Node31 -->
<g id="edge30" class="edge">
<title>Node1&#45;&gt;Node31</title>
<path fill="none" stroke="orange" stroke-dasharray="5,2" d="M201.64,-531.35C200.66,-452.52 201.52,-159.29 267,-101.88 290.46,-81.32 368.6,-83.78 429.42,-89.38"/>
<polygon fill="orange" stroke="orange" points="198.15,-531.43 201.8,-541.37 205.14,-531.32 198.15,-531.43"/>
<text text-anchor="middle" x="335" y="-104.88" font-family="FreeSans" font-size="10.00"> &lt; const CMathReaction * &gt;</text>
</g>
<!-- Node32 -->
<g id="node32" class="node">
<title>Node32</title>
<g id="a_node32"><a xlink:href="../../dd/de4/classCVector.html" target="_top" xlink:title=" ">
<polygon fill="white" stroke="black" points="425.5,-51.38 425.5,-70.38 590.5,-70.38 590.5,-51.38 425.5,-51.38"/>
<text text-anchor="middle" x="508" y="-58.38" font-family="FreeSans" font-size="10.00">CVector&lt; CProcessReportItem * &gt;</text>
</a>
</g>
</g>
<!-- Node1&#45;&gt;Node32 -->
<g id="edge31" class="edge">
<title>Node1&#45;&gt;Node32</title>
<path fill="none" stroke="orange" stroke-dasharray="5,2" d="M203.2,-531.13C208.64,-444.68 232.27,-102.52 267,-70.88 289.58,-50.31 364.91,-50.01 425.23,-53.51"/>
<polygon fill="orange" stroke="orange" points="199.7,-530.98 202.58,-541.18 206.69,-531.41 199.7,-530.98"/>
<text text-anchor="middle" x="335" y="-73.88" font-family="FreeSans" font-size="10.00"> &lt; CProcessReportItem * &gt;</text>
</g>
<!-- Node33 -->
<g id="node33" class="node">
<title>Node33</title>
<g id="a_node33"><a xlink:href="../../dd/de4/classCVector.html" target="_top" xlink:title=" ">
<polygon fill="white" stroke="black" points="421,-13.38 421,-32.38 595,-32.38 595,-13.38 421,-13.38"/>
<text text-anchor="middle" x="508" y="-20.38" font-family="FreeSans" font-size="10.00">CVector&lt; const CObjectInterface * &gt;</text>
</a>
</g>
</g>
<!-- Node1&#45;&gt;Node33 -->
<g id="edge32" class="edge">
<title>Node1&#45;&gt;Node33</title>
<path fill="none" stroke="orange" stroke-dasharray="5,2" d="M203.03,-531.2C207.91,-441.16 230.09,-71.38 267,-36.88 323.41,15.84 423.63,-0.33 474.88,-13.35"/>
<polygon fill="orange" stroke="orange" points="199.52,-531.21 202.48,-541.38 206.51,-531.58 199.52,-531.21"/>
<text text-anchor="middle" x="335" y="-39.88" font-family="FreeSans" font-size="10.00"> &lt; const CObjectInterface * &gt;</text>
</g>
<!-- Node2 -->
<g id="node2" class="node">
<title>Node2</title>
<g id="a_node2"><a xlink:href="../../d5/d46/classCVectorCore.html" target="_top" xlink:title=" ">
<polygon fill="white" stroke="black" points="0,-541.38 0,-560.38 116,-560.38 116,-541.38 0,-541.38"/>
<text text-anchor="middle" x="58" y="-548.38" font-family="FreeSans" font-size="10.00">CVectorCore&lt; CType &gt;</text>
</a>
</g>
</g>
<!-- Node2&#45;&gt;Node1 -->
<g id="edge1" class="edge">
<title>Node2&#45;&gt;Node1</title>
<path fill="none" stroke="midnightblue" d="M126.61,-550.88C135.4,-550.88 144.25,-550.88 152.61,-550.88"/>
<polygon fill="midnightblue" stroke="midnightblue" points="126.35,-547.38 116.35,-550.88 126.35,-554.38 126.35,-547.38"/>
</g>
<!-- Node7 -->
<g id="node7" class="node">
<title>Node7</title>
<g id="a_node7"><a xlink:href="../../d5/dac/classCMathUpdateSequence.html" target="_top" xlink:title=" ">
<polygon fill="white" stroke="black" points="646.5,-944.38 646.5,-963.38 766.5,-963.38 766.5,-944.38 646.5,-944.38"/>
<text text-anchor="middle" x="706.5" y="-951.38" font-family="FreeSans" font-size="10.00">CMathUpdateSequence</text>
</a>
</g>
</g>
<!-- Node6&#45;&gt;Node7 -->
<g id="edge6" class="edge">
<title>Node6&#45;&gt;Node7</title>
<path fill="none" stroke="darkgreen" d="M592.2,-953.88C610.41,-953.88 629.33,-953.88 646.37,-953.88"/>
<polygon fill="darkgreen" stroke="darkgreen" points="592.17,-950.38 582.17,-953.88 592.17,-957.38 592.17,-950.38"/>
</g>
<!-- Node9 -->
<g id="node9" class="node">
<title>Node9</title>
<g id="a_node9"><a xlink:href="../../d6/d3c/classCXMLHandlerFactory.html" target="_top" xlink:title=" ">
<polygon fill="white" stroke="black" points="651.5,-906.38 651.5,-925.38 761.5,-925.38 761.5,-906.38 651.5,-906.38"/>
<text text-anchor="middle" x="706.5" y="-913.38" font-family="FreeSans" font-size="10.00">CXMLHandlerFactory</text>
</a>
</g>
</g>
<!-- Node8&#45;&gt;Node9 -->
<g id="edge8" class="edge">
<title>Node8&#45;&gt;Node9</title>
<path fill="none" stroke="#8b1a1a" d="M586.3,-915.88C608.08,-915.88 631.3,-915.88 651.41,-915.88"/>
<polygon fill="#8b1a1a" stroke="#8b1a1a" points="586.07,-912.38 576.07,-915.88 586.07,-919.38 586.07,-912.38"/>
</g>
<!-- Node23 -->
<g id="node23" class="node">
<title>Node23</title>
<g id="a_node23"><a xlink:href="../../d9/d4e/classCKeyFactory_1_1CDecisionVector.html" target="_top" xlink:title=" ">
<polygon fill="white" stroke="black" points="632,-389.38 632,-408.38 781,-408.38 781,-389.38 632,-389.38"/>
<text text-anchor="middle" x="706.5" y="-396.38" font-family="FreeSans" font-size="10.00">CKeyFactory::CDecisionVector</text>
</a>
</g>
</g>
<!-- Node22&#45;&gt;Node23 -->
<g id="edge22" class="edge">
<title>Node22&#45;&gt;Node23</title>
<path fill="none" stroke="#8b1a1a" d="M561.41,-398.88C582.96,-398.88 608.31,-398.88 631.68,-398.88"/>
<polygon fill="#8b1a1a" stroke="#8b1a1a" points="561.15,-395.38 551.15,-398.88 561.15,-402.38 561.15,-395.38"/>
</g>
<!-- Node28 -->
<g id="node28" class="node">
<title>Node28</title>
<g id="a_node28"><a xlink:href="../../d8/d4b/classCStepMatrix.html" target="_top" xlink:title=" ">
<polygon fill="white" stroke="black" points="671.5,-203.38 671.5,-222.38 741.5,-222.38 741.5,-203.38 671.5,-203.38"/>
<text text-anchor="middle" x="706.5" y="-210.38" font-family="FreeSans" font-size="10.00">CStepMatrix</text>
</a>
</g>
</g>
<!-- Node27&#45;&gt;Node28 -->
<g id="edge27" class="edge">
<title>Node27&#45;&gt;Node28</title>
<path fill="none" stroke="#8b1a1a" d="M598.85,-212.88C624.64,-212.88 651.2,-212.88 671.36,-212.88"/>
<polygon fill="#8b1a1a" stroke="#8b1a1a" points="598.64,-209.38 588.64,-212.88 598.64,-216.38 598.64,-209.38"/>
</g>
</g>
</svg>
        <g id="navigator" transform="translate(0 0)" fill="#404254">
                <rect fill="#f2f5e9" fill-opacity="0.5" stroke="#606060" stroke-width=".5" x="0" y="0" width="60" height="60"/>
                <use id="zoomplus" xlink:href="#zoomPlus" x="17" y="9" onmousedown="handleZoom(evt,'in')"/>
                <use id="zoomminus" xlink:href="#zoomMin" x="42" y="9" onmousedown="handleZoom(evt,'out')"/>
                <use id="reset" xlink:href="#resetDef" x="30" y="36" onmousedown="handleReset()"/>
                <g id="arrowUp" xlink:href="#dirArrow" transform="translate(30 24)" onmousedown="handlePan(0,-1)">
                  <use xlink:href="#rim" fill="#404040">
                        <set attributeName="fill" to="#808080" begin="arrowUp.mouseover" end="arrowUp.mouseout"/>
                  </use>
                  <path fill="none" stroke="white" stroke-width="1.5" d="M0,-3.0v7 M-2.5,-0.5L0,-3.0L2.5,-0.5"/>
                </g>
                <g id="arrowRight" xlink:href="#dirArrow" transform="rotate(90) translate(36 -43)" onmousedown="handlePan(1,0)">
                  <use xlink:href="#rim" fill="#404040">
                        <set attributeName="fill" to="#808080" begin="arrowRight.mouseover" end="arrowRight.mouseout"/>
                  </use>
                  <path fill="none" stroke="white" stroke-width="1.5" d="M0,-3.0v7 M-2.5,-0.5L0,-3.0L2.5,-0.5"/>
                </g>
                <g id="arrowDown" xlink:href="#dirArrow" transform="rotate(180) translate(-30 -48)" onmousedown="handlePan(0,1)">
                  <use xlink:href="#rim" fill="#404040">
                        <set attributeName="fill" to="#808080" begin="arrowDown.mouseover" end="arrowDown.mouseout"/>
                  </use>
                  <path fill="none" stroke="white" stroke-width="1.5" d="M0,-3.0v7 M-2.5,-0.5L0,-3.0L2.5,-0.5"/>
                </g>
                <g id="arrowLeft" xlink:href="#dirArrow" transform="rotate(270) translate(-36 17)" onmousedown="handlePan(-1,0)">
                  <use xlink:href="#rim" fill="#404040">
                        <set attributeName="fill" to="#808080" begin="arrowLeft.mouseover" end="arrowLeft.mouseout"/>
                  </use>
                  <path fill="none" stroke="white" stroke-width="1.5" d="M0,-3.0v7 M-2.5,-0.5L0,-3.0L2.5,-0.5"/>
                </g>
        </g>
        <svg viewBox="0 0 15 15" width="100%" height="30px" preserveAspectRatio="xMaxYMin meet">
         <g id="arrow_out" transform="scale(0.3 0.3)">
          <a xlink:href="classCVector__inherit__graph_org.svg" target="_base">
           <rect id="button" ry="5" rx="5" y="6" x="6" height="38" width="38"
                fill="#f2f5e9" fill-opacity="0.5" stroke="#606060" stroke-width="1.0"/>
           <path id="arrow"
             d="M 11.500037,31.436501 C 11.940474,20.09759 22.043105,11.32322 32.158766,21.979434 L 37.068811,17.246167 C 37.068811,17.246167 37.088388,32 37.088388,32 L 22.160133,31.978069 C 22.160133,31.978069 26.997745,27.140456 26.997745,27.140456 C 18.528582,18.264221 13.291696,25.230495 11.500037,31.436501 z"
             style="fill:#404040;"/>
          </a>
         </g>
        </svg>
</svg>
