<?xml version="1.0" encoding="UTF-8" standalone="no"?>
<!DOCTYPE svg PUBLIC "-//W3C//DTD SVG 1.1//EN"
 "http://www.w3.org/Graphics/SVG/1.1/DTD/svg11.dtd">
<!-- Generated by graphviz version 2.43.0 (0)
 -->
<!-- Title: CCopasiProblem Pages: 1 -->
<!--zoomable 484 -->
<svg id="main" version="1.1" xmlns="http://www.w3.org/2000/svg" xmlns:xlink="http://www.w3.org/1999/xlink" xml:space="preserve" onload="init(evt)">
<style type="text/css"><![CDATA[
.edge:hover path { stroke: red; }
.edge:hover polygon { stroke: red; fill: red; }
]]></style>
<script type="text/javascript"><![CDATA[
var edges = document.getElementsByTagName('g');
if (edges && edges.length) {
  for (var i=0;i<edges.length;i++) {
    if (edges[i].id.substr(0,4)=='edge') {
      edges[i].setAttribute('class','edge');
    }
  }
}
]]></script>
        <defs>
                <circle id="rim" cx="0" cy="0" r="7"/>
                <circle id="rim2" cx="0" cy="0" r="3.5"/>
                <g id="zoomPlus">
                        <use xlink:href="#rim" fill="#404040">
                                <set attributeName="fill" to="#808080" begin="zoomplus.mouseover" end="zoomplus.mouseout"/>
                        </use>
                        <path d="M-4,0h8M0,-4v8" fill="none" stroke="white" stroke-width="1.5" pointer-events="none"/>
                </g>
                <g id="zoomMin">
                        <use xlink:href="#rim" fill="#404040">
                                <set attributeName="fill" to="#808080" begin="zoomminus.mouseover" end="zoomminus.mouseout"/>
                        </use>
                        <path d="M-4,0h8" fill="none" stroke="white" stroke-width="1.5" pointer-events="none"/>
                </g>
                <g id="dirArrow">
                        <path fill="none" stroke="white" stroke-width="1.5" d="M0,-3.0v7 M-2.5,-0.5L0,-3.0L2.5,-0.5"/>
                </g>
               <g id="resetDef">
                       <use xlink:href="#rim2" fill="#404040">
                               <set attributeName="fill" to="#808080" begin="reset.mouseover" end="reset.mouseout"/>
                       </use>
               </g>
        </defs>

<script type="text/javascript">
var viewWidth = 1073;
var viewHeight = 484;
var sectionId = 'dynsection-0';
</script>
<script xlink:href="../../svgpan.js"/>
<svg id="graph" class="graph">
<g id="viewport">
<title>CCopasiProblem</title>
<polygon fill="white" stroke="transparent" points="-4,4 -4,-480 1069,-480 1069,4 -4,4"/>
<!-- Node1 -->
<g id="node1" class="node">
<title>Node1</title>
<g id="a_node1"><a xlink:title=" ">
<polygon fill="#bfbfbf" stroke="black" points="673,-247.5 673,-266.5 762,-266.5 762,-247.5 673,-247.5"/>
<text text-anchor="middle" x="717.5" y="-254.5" font-family="FreeSans" font-size="10.00">CCopasiProblem</text>
</a>
</g>
</g>
<!-- Node8 -->
<g id="node8" class="node">
<title>Node8</title>
<g id="a_node8"><a xlink:href="../../dc/d4c/classCEFMProblem.html" target="_top" xlink:title=" ">
<polygon fill="white" stroke="black" points="814.5,-456.5 814.5,-475.5 894.5,-475.5 894.5,-456.5 814.5,-456.5"/>
<text text-anchor="middle" x="854.5" y="-463.5" font-family="FreeSans" font-size="10.00">CEFMProblem</text>
</a>
</g>
</g>
<!-- Node1&#45;&gt;Node8 -->
<g id="edge7" class="edge">
<title>Node1&#45;&gt;Node8</title>
<path fill="none" stroke="midnightblue" d="M721.33,-276.78C727.84,-315.05 747.38,-399.64 798,-447 802.69,-451.38 808.43,-454.76 814.42,-457.36"/>
<polygon fill="midnightblue" stroke="midnightblue" points="724.78,-276.21 719.77,-266.88 717.87,-277.3 724.78,-276.21"/>
</g>
<!-- Node9 -->
<g id="node9" class="node">
<title>Node9</title>
<g id="a_node9"><a xlink:href="../../d1/d23/classCLNAProblem.html" target="_top" xlink:title=" ">
<polygon fill="white" stroke="black" points="814.5,-418.5 814.5,-437.5 894.5,-437.5 894.5,-418.5 814.5,-418.5"/>
<text text-anchor="middle" x="854.5" y="-425.5" font-family="FreeSans" font-size="10.00">CLNAProblem</text>
</a>
</g>
</g>
<!-- Node1&#45;&gt;Node9 -->
<g id="edge8" class="edge">
<title>Node1&#45;&gt;Node9</title>
<path fill="none" stroke="midnightblue" d="M723.64,-276.75C733.03,-308.99 755.96,-372.91 798,-409 802.79,-413.11 808.52,-416.35 814.44,-418.89"/>
<polygon fill="midnightblue" stroke="midnightblue" points="726.92,-275.47 720.88,-266.77 720.18,-277.34 726.92,-275.47"/>
</g>
<!-- Node10 -->
<g id="node10" class="node">
<title>Node10</title>
<g id="a_node10"><a xlink:href="../../d4/dc3/classCLyapProblem.html" target="_top" xlink:title=" ">
<polygon fill="white" stroke="black" points="814.5,-380.5 814.5,-399.5 894.5,-399.5 894.5,-380.5 814.5,-380.5"/>
<text text-anchor="middle" x="854.5" y="-387.5" font-family="FreeSans" font-size="10.00">CLyapProblem</text>
</a>
</g>
</g>
<!-- Node1&#45;&gt;Node10 -->
<g id="edge9" class="edge">
<title>Node1&#45;&gt;Node10</title>
<path fill="none" stroke="midnightblue" d="M727.05,-276.05C739.29,-301.25 764.13,-345.47 798,-371 803.12,-374.86 809.09,-377.97 815.17,-380.47"/>
<polygon fill="midnightblue" stroke="midnightblue" points="730.13,-274.38 722.72,-266.81 723.79,-277.35 730.13,-274.38"/>
</g>
<!-- Node11 -->
<g id="node11" class="node">
<title>Node11</title>
<g id="a_node11"><a xlink:href="../../dc/dc2/classCMCAProblem.html" target="_top" xlink:title=" ">
<polygon fill="white" stroke="black" points="814,-342.5 814,-361.5 895,-361.5 895,-342.5 814,-342.5"/>
<text text-anchor="middle" x="854.5" y="-349.5" font-family="FreeSans" font-size="10.00">CMCAProblem</text>
</a>
</g>
</g>
<!-- Node1&#45;&gt;Node11 -->
<g id="edge10" class="edge">
<title>Node1&#45;&gt;Node11</title>
<path fill="none" stroke="midnightblue" d="M732.85,-274.59C747.6,-291.65 772.02,-317.2 798,-333 804.18,-336.76 811.2,-339.89 818.12,-342.46"/>
<polygon fill="midnightblue" stroke="midnightblue" points="735.19,-271.93 726.06,-266.54 729.84,-276.44 735.19,-271.93"/>
</g>
<!-- Node12 -->
<g id="node12" class="node">
<title>Node12</title>
<g id="a_node12"><a xlink:href="../../dd/da5/classCMoietiesProblem.html" target="_top" xlink:title=" ">
<polygon fill="white" stroke="black" points="806.5,-304.5 806.5,-323.5 902.5,-323.5 902.5,-304.5 806.5,-304.5"/>
<text text-anchor="middle" x="854.5" y="-311.5" font-family="FreeSans" font-size="10.00">CMoietiesProblem</text>
</a>
</g>
</g>
<!-- Node1&#45;&gt;Node12 -->
<g id="edge11" class="edge">
<title>Node1&#45;&gt;Node12</title>
<path fill="none" stroke="midnightblue" d="M746.16,-271.19C761.28,-278.71 780.46,-287.83 798,-295 806.2,-298.35 815.24,-301.62 823.6,-304.47"/>
<polygon fill="midnightblue" stroke="midnightblue" points="747.37,-267.88 736.86,-266.52 744.23,-274.14 747.37,-267.88"/>
</g>
<!-- Node13 -->
<g id="node13" class="node">
<title>Node13</title>
<g id="a_node13"><a xlink:href="../../db/d6b/classCOptProblem.html" target="_top" xlink:title=" ">
<polygon fill="white" stroke="black" points="817,-266.5 817,-285.5 892,-285.5 892,-266.5 817,-266.5"/>
<text text-anchor="middle" x="854.5" y="-273.5" font-family="FreeSans" font-size="10.00">COptProblem</text>
</a>
</g>
</g>
<!-- Node1&#45;&gt;Node13 -->
<g id="edge12" class="edge">
<title>Node1&#45;&gt;Node13</title>
<path fill="none" stroke="midnightblue" d="M772.43,-264.59C787.27,-266.68 803.03,-268.9 816.67,-270.82"/>
<polygon fill="midnightblue" stroke="midnightblue" points="772.72,-261.1 762.33,-263.17 771.75,-268.03 772.72,-261.1"/>
</g>
<!-- Node16 -->
<g id="node16" class="node">
<title>Node16</title>
<g id="a_node16"><a xlink:href="../../d1/d48/classCOscillationProblem.html" target="_top" xlink:title=" ">
<polygon fill="white" stroke="black" points="802,-228.5 802,-247.5 907,-247.5 907,-228.5 802,-228.5"/>
<text text-anchor="middle" x="854.5" y="-235.5" font-family="FreeSans" font-size="10.00">COscillationProblem</text>
</a>
</g>
</g>
<!-- Node1&#45;&gt;Node16 -->
<g id="edge15" class="edge">
<title>Node1&#45;&gt;Node16</title>
<path fill="none" stroke="midnightblue" d="M772.31,-249.43C782.06,-248.05 792.21,-246.63 801.9,-245.26"/>
<polygon fill="midnightblue" stroke="midnightblue" points="771.75,-245.97 762.33,-250.83 772.72,-252.9 771.75,-245.97"/>
</g>
<!-- Node17 -->
<g id="node17" class="node">
<title>Node17</title>
<g id="a_node17"><a xlink:href="../../d1/d90/classCScanProblem.html" target="_top" xlink:title=" ">
<polygon fill="white" stroke="black" points="813.5,-190.5 813.5,-209.5 895.5,-209.5 895.5,-190.5 813.5,-190.5"/>
<text text-anchor="middle" x="854.5" y="-197.5" font-family="FreeSans" font-size="10.00">CScanProblem</text>
</a>
</g>
</g>
<!-- Node1&#45;&gt;Node17 -->
<g id="edge16" class="edge">
<title>Node1&#45;&gt;Node17</title>
<path fill="none" stroke="midnightblue" d="M746.16,-242.81C761.28,-235.29 780.46,-226.17 798,-219 806.2,-215.65 815.24,-212.38 823.6,-209.53"/>
<polygon fill="midnightblue" stroke="midnightblue" points="744.23,-239.86 736.86,-247.48 747.37,-246.12 744.23,-239.86"/>
</g>
<!-- Node18 -->
<g id="node18" class="node">
<title>Node18</title>
<g id="a_node18"><a xlink:href="../../dc/dbc/classCSensProblem.html" target="_top" xlink:title=" ">
<polygon fill="white" stroke="black" points="813.5,-152.5 813.5,-171.5 895.5,-171.5 895.5,-152.5 813.5,-152.5"/>
<text text-anchor="middle" x="854.5" y="-159.5" font-family="FreeSans" font-size="10.00">CSensProblem</text>
</a>
</g>
</g>
<!-- Node1&#45;&gt;Node18 -->
<g id="edge17" class="edge">
<title>Node1&#45;&gt;Node18</title>
<path fill="none" stroke="midnightblue" d="M732.85,-239.41C747.6,-222.35 772.02,-196.8 798,-181 804.18,-177.24 811.2,-174.11 818.12,-171.54"/>
<polygon fill="midnightblue" stroke="midnightblue" points="729.84,-237.56 726.06,-247.46 735.19,-242.07 729.84,-237.56"/>
</g>
<!-- Node19 -->
<g id="node19" class="node">
<title>Node19</title>
<g id="a_node19"><a xlink:href="../../d7/de1/classCSteadyStateProblem.html" target="_top" xlink:title=" ">
<polygon fill="white" stroke="black" points="798,-114.5 798,-133.5 911,-133.5 911,-114.5 798,-114.5"/>
<text text-anchor="middle" x="854.5" y="-121.5" font-family="FreeSans" font-size="10.00">CSteadyStateProblem</text>
</a>
</g>
</g>
<!-- Node1&#45;&gt;Node19 -->
<g id="edge18" class="edge">
<title>Node1&#45;&gt;Node19</title>
<path fill="none" stroke="midnightblue" d="M727.05,-237.95C739.29,-212.75 764.13,-168.53 798,-143 803.12,-139.14 809.09,-136.03 815.17,-133.53"/>
<polygon fill="midnightblue" stroke="midnightblue" points="723.79,-236.65 722.72,-247.19 730.13,-239.62 723.79,-236.65"/>
</g>
<!-- Node20 -->
<g id="node20" class="node">
<title>Node20</title>
<g id="a_node20"><a xlink:href="../../db/daf/classCTSSAProblem.html" target="_top" xlink:title=" ">
<polygon fill="white" stroke="black" points="811.5,-76.5 811.5,-95.5 897.5,-95.5 897.5,-76.5 811.5,-76.5"/>
<text text-anchor="middle" x="854.5" y="-83.5" font-family="FreeSans" font-size="10.00">CTSSAProblem</text>
</a>
</g>
</g>
<!-- Node1&#45;&gt;Node20 -->
<g id="edge19" class="edge">
<title>Node1&#45;&gt;Node20</title>
<path fill="none" stroke="midnightblue" d="M723.64,-237.25C733.03,-205.01 755.96,-141.09 798,-105 802.48,-101.15 807.78,-98.07 813.3,-95.61"/>
<polygon fill="midnightblue" stroke="midnightblue" points="720.18,-236.66 720.88,-247.23 726.92,-238.53 720.18,-236.66"/>
</g>
<!-- Node21 -->
<g id="node21" class="node">
<title>Node21</title>
<g id="a_node21"><a xlink:href="../../d9/d61/classCTrajectoryProblem.html" target="_top" xlink:title=" ">
<polygon fill="white" stroke="black" points="803.5,-38.5 803.5,-57.5 905.5,-57.5 905.5,-38.5 803.5,-38.5"/>
<text text-anchor="middle" x="854.5" y="-45.5" font-family="FreeSans" font-size="10.00">CTrajectoryProblem</text>
</a>
</g>
</g>
<!-- Node1&#45;&gt;Node21 -->
<g id="edge20" class="edge">
<title>Node1&#45;&gt;Node21</title>
<path fill="none" stroke="midnightblue" d="M721.33,-237.22C727.84,-198.95 747.38,-114.36 798,-67 802.16,-63.1 807.16,-60 812.43,-57.54"/>
<polygon fill="midnightblue" stroke="midnightblue" points="717.87,-236.7 719.77,-247.12 724.78,-237.79 717.87,-236.7"/>
</g>
<!-- Node2 -->
<g id="node2" class="node">
<title>Node2</title>
<g id="a_node2"><a xlink:href="../../df/d89/classCCopasiParameterGroup.html" target="_top" xlink:title=" ">
<polygon fill="white" stroke="black" points="512,-247.5 512,-266.5 637,-266.5 637,-247.5 512,-247.5"/>
<text text-anchor="middle" x="574.5" y="-254.5" font-family="FreeSans" font-size="10.00">CCopasiParameterGroup</text>
</a>
</g>
</g>
<!-- Node2&#45;&gt;Node1 -->
<g id="edge1" class="edge">
<title>Node2&#45;&gt;Node1</title>
<path fill="none" stroke="midnightblue" d="M647.51,-257C656.18,-257 664.82,-257 672.91,-257"/>
<polygon fill="midnightblue" stroke="midnightblue" points="647.34,-253.5 637.34,-257 647.34,-260.5 647.34,-253.5"/>
</g>
<!-- Node3 -->
<g id="node3" class="node">
<title>Node3</title>
<g id="a_node3"><a xlink:href="../../d5/db6/classCCopasiParameter.html" target="_top" xlink:title=" ">
<polygon fill="white" stroke="black" points="378,-247.5 378,-266.5 476,-266.5 476,-247.5 378,-247.5"/>
<text text-anchor="middle" x="427" y="-254.5" font-family="FreeSans" font-size="10.00">CCopasiParameter</text>
</a>
</g>
</g>
<!-- Node3&#45;&gt;Node2 -->
<g id="edge2" class="edge">
<title>Node3&#45;&gt;Node2</title>
<path fill="none" stroke="midnightblue" d="M486.15,-257C494.57,-257 503.26,-257 511.75,-257"/>
<polygon fill="midnightblue" stroke="midnightblue" points="486.05,-253.5 476.05,-257 486.05,-260.5 486.05,-253.5"/>
</g>
<!-- Node4 -->
<g id="node4" class="node">
<title>Node4</title>
<g id="a_node4"><a xlink:href="../../d3/db9/classCDataContainer.html" target="_top" xlink:title=" ">
<polygon fill="white" stroke="black" points="257,-247.5 257,-266.5 342,-266.5 342,-247.5 257,-247.5"/>
<text text-anchor="middle" x="299.5" y="-254.5" font-family="FreeSans" font-size="10.00">CDataContainer</text>
</a>
</g>
</g>
<!-- Node4&#45;&gt;Node3 -->
<g id="edge3" class="edge">
<title>Node4&#45;&gt;Node3</title>
<path fill="none" stroke="midnightblue" d="M352.4,-257C360.84,-257 369.54,-257 377.88,-257"/>
<polygon fill="midnightblue" stroke="midnightblue" points="352.29,-253.5 342.29,-257 352.29,-260.5 352.29,-253.5"/>
</g>
<!-- Node5 -->
<g id="node5" class="node">
<title>Node5</title>
<g id="a_node5"><a xlink:href="../../d1/d6b/classCDataObject.html" target="_top" xlink:title=" ">
<polygon fill="white" stroke="black" points="149,-247.5 149,-266.5 221,-266.5 221,-247.5 149,-247.5"/>
<text text-anchor="middle" x="185" y="-254.5" font-family="FreeSans" font-size="10.00">CDataObject</text>
</a>
</g>
</g>
<!-- Node5&#45;&gt;Node4 -->
<g id="edge4" class="edge">
<title>Node5&#45;&gt;Node4</title>
<path fill="none" stroke="midnightblue" d="M231.56,-257C239.85,-257 248.46,-257 256.64,-257"/>
<polygon fill="midnightblue" stroke="midnightblue" points="231.29,-253.5 221.29,-257 231.29,-260.5 231.29,-253.5"/>
</g>
<!-- Node6 -->
<g id="node6" class="node">
<title>Node6</title>
<g id="a_node6"><a xlink:href="../../df/dfa/classCObjectInterface.html" target="_top" xlink:title=" ">
<polygon fill="white" stroke="black" points="11.5,-266.5 11.5,-285.5 101.5,-285.5 101.5,-266.5 11.5,-266.5"/>
<text text-anchor="middle" x="56.5" y="-273.5" font-family="FreeSans" font-size="10.00">CObjectInterface</text>
</a>
</g>
</g>
<!-- Node6&#45;&gt;Node5 -->
<g id="edge5" class="edge">
<title>Node6&#45;&gt;Node5</title>
<path fill="none" stroke="midnightblue" d="M111.66,-267.86C124.21,-265.98 137.25,-264.02 148.74,-262.3"/>
<polygon fill="midnightblue" stroke="midnightblue" points="111.11,-264.41 101.74,-269.35 112.15,-271.33 111.11,-264.41"/>
</g>
<!-- Node7 -->
<g id="node7" class="node">
<title>Node7</title>
<g id="a_node7"><a xlink:href="../../d8/d53/classCUndoObjectInterface.html" target="_top" xlink:title=" ">
<polygon fill="white" stroke="black" points="0,-228.5 0,-247.5 113,-247.5 113,-228.5 0,-228.5"/>
<text text-anchor="middle" x="56.5" y="-235.5" font-family="FreeSans" font-size="10.00">CUndoObjectInterface</text>
</a>
</g>
</g>
<!-- Node7&#45;&gt;Node5 -->
<g id="edge6" class="edge">
<title>Node7&#45;&gt;Node5</title>
<path fill="none" stroke="midnightblue" d="M123.28,-247.88C132.08,-249.2 140.81,-250.51 148.8,-251.71"/>
<polygon fill="midnightblue" stroke="midnightblue" points="123.76,-244.41 113.35,-246.39 122.72,-251.34 123.76,-244.41"/>
</g>
<!-- Node14 -->
<g id="node14" class="node">
<title>Node14</title>
<g id="a_node14"><a xlink:href="../../db/d58/classCFitProblem.html" target="_top" xlink:title=" ">
<polygon fill="white" stroke="black" points="970.5,-285.5 970.5,-304.5 1041.5,-304.5 1041.5,-285.5 970.5,-285.5"/>
<text text-anchor="middle" x="1006" y="-292.5" font-family="FreeSans" font-size="10.00">CFitProblem</text>
</a>
</g>
</g>
<!-- Node13&#45;&gt;Node14 -->
<g id="edge13" class="edge">
<title>Node13&#45;&gt;Node14</title>
<path fill="none" stroke="midnightblue" d="M902.22,-281.94C924.25,-284.74 950.09,-288.02 970.35,-290.6"/>
<polygon fill="midnightblue" stroke="midnightblue" points="902.43,-278.44 892.07,-280.65 901.55,-285.38 902.43,-278.44"/>
</g>
<!-- Node15 -->
<g id="node15" class="node">
<title>Node15</title>
<g id="a_node15"><a xlink:href="../../da/d8a/classCRealProblem.html" target="_top" xlink:title=" ">
<polygon fill="white" stroke="black" points="966.5,-247.5 966.5,-266.5 1045.5,-266.5 1045.5,-247.5 966.5,-247.5"/>
<text text-anchor="middle" x="1006" y="-254.5" font-family="FreeSans" font-size="10.00">CRealProblem</text>
</a>
</g>
</g>
<!-- Node13&#45;&gt;Node15 -->
<g id="edge14" class="edge">
<title>Node13&#45;&gt;Node15</title>
<path fill="none" stroke="midnightblue" d="M902.21,-270.06C922.86,-267.44 946.85,-264.39 966.46,-261.9"/>
<polygon fill="midnightblue" stroke="midnightblue" points="901.55,-266.62 892.07,-271.35 902.43,-273.56 901.55,-266.62"/>
</g>
<!-- Node22 -->
<g id="node22" class="node">
<title>Node22</title>
<g id="a_node22"><a xlink:href="../../d3/daa/classCAnalyticsProblem.html" target="_top" xlink:title=" ">
<polygon fill="white" stroke="black" points="956.5,-76.5 956.5,-95.5 1055.5,-95.5 1055.5,-76.5 956.5,-76.5"/>
<text text-anchor="middle" x="1006" y="-83.5" font-family="FreeSans" font-size="10.00">CAnalyticsProblem</text>
</a>
</g>
</g>
<!-- Node21&#45;&gt;Node22 -->
<g id="edge21" class="edge">
<title>Node21&#45;&gt;Node22</title>
<path fill="none" stroke="midnightblue" d="M903.15,-60.11C923.97,-65.4 948.04,-71.52 967.55,-76.48"/>
<polygon fill="midnightblue" stroke="midnightblue" points="903.78,-56.66 893.23,-57.59 902.05,-63.44 903.78,-56.66"/>
</g>
<!-- Node23 -->
<g id="node23" class="node">
<title>Node23</title>
<g id="a_node23"><a xlink:href="../../d1/d21/classCCrossSectionProblem.html" target="_top" xlink:title=" ">
<polygon fill="white" stroke="black" points="947,-38.5 947,-57.5 1065,-57.5 1065,-38.5 947,-38.5"/>
<text text-anchor="middle" x="1006" y="-45.5" font-family="FreeSans" font-size="10.00">CCrossSectionProblem</text>
</a>
</g>
</g>
<!-- Node21&#45;&gt;Node23 -->
<g id="edge22" class="edge">
<title>Node21&#45;&gt;Node23</title>
<path fill="none" stroke="midnightblue" d="M915.81,-48C926.08,-48 936.72,-48 946.93,-48"/>
<polygon fill="midnightblue" stroke="midnightblue" points="915.7,-44.5 905.7,-48 915.7,-51.5 915.7,-44.5"/>
</g>
<!-- Node24 -->
<g id="node24" class="node">
<title>Node24</title>
<g id="a_node24"><a xlink:href="../../d5/dfa/classCTimeSensProblem.html" target="_top" xlink:title=" ">
<polygon fill="white" stroke="black" points="954,-0.5 954,-19.5 1058,-19.5 1058,-0.5 954,-0.5"/>
<text text-anchor="middle" x="1006" y="-7.5" font-family="FreeSans" font-size="10.00">CTimeSensProblem</text>
</a>
</g>
</g>
<!-- Node21&#45;&gt;Node24 -->
<g id="edge23" class="edge">
<title>Node21&#45;&gt;Node24</title>
<path fill="none" stroke="midnightblue" d="M903.15,-35.89C923.97,-30.6 948.04,-24.48 967.55,-19.52"/>
<polygon fill="midnightblue" stroke="midnightblue" points="902.05,-32.56 893.23,-38.41 903.78,-39.34 902.05,-32.56"/>
</g>
</g>
</svg>
        <g id="navigator" transform="translate(0 0)" fill="#404254">
                <rect fill="#f2f5e9" fill-opacity="0.5" stroke="#606060" stroke-width=".5" x="0" y="0" width="60" height="60"/>
                <use id="zoomplus" xlink:href="#zoomPlus" x="17" y="9" onmousedown="handleZoom(evt,'in')"/>
                <use id="zoomminus" xlink:href="#zoomMin" x="42" y="9" onmousedown="handleZoom(evt,'out')"/>
                <use id="reset" xlink:href="#resetDef" x="30" y="36" onmousedown="handleReset()"/>
                <g id="arrowUp" xlink:href="#dirArrow" transform="translate(30 24)" onmousedown="handlePan(0,-1)">
                  <use xlink:href="#rim" fill="#404040">
                        <set attributeName="fill" to="#808080" begin="arrowUp.mouseover" end="arrowUp.mouseout"/>
                  </use>
                  <path fill="none" stroke="white" stroke-width="1.5" d="M0,-3.0v7 M-2.5,-0.5L0,-3.0L2.5,-0.5"/>
                </g>
                <g id="arrowRight" xlink:href="#dirArrow" transform="rotate(90) translate(36 -43)" onmousedown="handlePan(1,0)">
                  <use xlink:href="#rim" fill="#404040">
                        <set attributeName="fill" to="#808080" begin="arrowRight.mouseover" end="arrowRight.mouseout"/>
                  </use>
                  <path fill="none" stroke="white" stroke-width="1.5" d="M0,-3.0v7 M-2.5,-0.5L0,-3.0L2.5,-0.5"/>
                </g>
                <g id="arrowDown" xlink:href="#dirArrow" transform="rotate(180) translate(-30 -48)" onmousedown="handlePan(0,1)">
                  <use xlink:href="#rim" fill="#404040">
                        <set attributeName="fill" to="#808080" begin="arrowDown.mouseover" end="arrowDown.mouseout"/>
                  </use>
                  <path fill="none" stroke="white" stroke-width="1.5" d="M0,-3.0v7 M-2.5,-0.5L0,-3.0L2.5,-0.5"/>
                </g>
                <g id="arrowLeft" xlink:href="#dirArrow" transform="rotate(270) translate(-36 17)" onmousedown="handlePan(-1,0)">
                  <use xlink:href="#rim" fill="#404040">
                        <set attributeName="fill" to="#808080" begin="arrowLeft.mouseover" end="arrowLeft.mouseout"/>
                  </use>
                  <path fill="none" stroke="white" stroke-width="1.5" d="M0,-3.0v7 M-2.5,-0.5L0,-3.0L2.5,-0.5"/>
                </g>
        </g>
        <svg viewBox="0 0 15 15" width="100%" height="30px" preserveAspectRatio="xMaxYMin meet">
         <g id="arrow_out" transform="scale(0.3 0.3)">
          <a xlink:href="classCCopasiProblem__inherit__graph_org.svg" target="_base">
           <rect id="button" ry="5" rx="5" y="6" x="6" height="38" width="38"
                fill="#f2f5e9" fill-opacity="0.5" stroke="#606060" stroke-width="1.0"/>
           <path id="arrow"
             d="M 11.500037,31.436501 C 11.940474,20.09759 22.043105,11.32322 32.158766,21.979434 L 37.068811,17.246167 C 37.068811,17.246167 37.088388,32 37.088388,32 L 22.160133,31.978069 C 22.160133,31.978069 26.997745,27.140456 26.997745,27.140456 C 18.528582,18.264221 13.291696,25.230495 11.500037,31.436501 z"
             style="fill:#404040;"/>
          </a>
         </g>
        </svg>
</svg>
