<?xml version="1.0" encoding="UTF-8" standalone="no"?>
<!DOCTYPE svg PUBLIC "-//W3C//DTD SVG 1.1//EN"
 "http://www.w3.org/Graphics/SVG/1.1/DTD/svg11.dtd">
<!-- Generated by graphviz version 2.43.0 (0)
 -->
<!-- Title: CCopasiParameterGroup Pages: 1 -->
<svg width="950pt" height="1155pt"
 viewBox="0.00 0.00 950.00 1155.00" xmlns="http://www.w3.org/2000/svg" xmlns:xlink="http://www.w3.org/1999/xlink">
<g id="graph0" class="graph" transform="scale(1 1) rotate(0) translate(4 1151)">
<title>CCopasiParameterGroup</title>
<polygon fill="white" stroke="transparent" points="-4,4 -4,-1151 946,-1151 946,4 -4,4"/>
<!-- Node1 -->
<g id="node1" class="node">
<title>Node1</title>
<g id="a_node1"><a xlink:title=" ">
<polygon fill="#bfbfbf" stroke="black" points="512,-234.5 512,-253.5 637,-253.5 637,-234.5 512,-234.5"/>
<text text-anchor="middle" x="574.5" y="-241.5" font-family="FreeSans" font-size="10.00">CCopasiParameterGroup</text>
</a>
</g>
</g>
<!-- Node7 -->
<g id="node7" class="node">
<title>Node7</title>
<g id="a_node7"><a xlink:href="../../d7/da1/classCCheckForUpdates.html" target="_top" xlink:title=" ">
<polygon fill="white" stroke="black" points="681.5,-880.5 681.5,-899.5 783.5,-899.5 783.5,-880.5 681.5,-880.5"/>
<text text-anchor="middle" x="732.5" y="-887.5" font-family="FreeSans" font-size="10.00">CCheckForUpdates</text>
</a>
</g>
</g>
<!-- Node1&#45;&gt;Node7 -->
<g id="edge6" class="edge">
<title>Node1&#45;&gt;Node7</title>
<path fill="none" stroke="midnightblue" d="M575.87,-263.53C578.06,-359.02 592.17,-776.11 673,-871 676.32,-874.9 680.46,-878.01 684.98,-880.48"/>
<polygon fill="midnightblue" stroke="midnightblue" points="579.37,-263.44 575.66,-253.52 572.37,-263.59 579.37,-263.44"/>
</g>
<!-- Node8 -->
<g id="node8" class="node">
<title>Node8</title>
<g id="a_node8"><a xlink:href="../../df/dcf/classCConfigurationFile.html" target="_top" xlink:title=" ">
<polygon fill="white" stroke="black" points="685,-842.5 685,-861.5 780,-861.5 780,-842.5 685,-842.5"/>
<text text-anchor="middle" x="732.5" y="-849.5" font-family="FreeSans" font-size="10.00">CConfigurationFile</text>
</a>
</g>
</g>
<!-- Node1&#45;&gt;Node8 -->
<g id="edge7" class="edge">
<title>Node1&#45;&gt;Node8</title>
<path fill="none" stroke="midnightblue" d="M576.1,-264.08C579.29,-357.01 597,-744.65 673,-833 676.34,-836.89 680.49,-839.98 685.02,-842.45"/>
<polygon fill="midnightblue" stroke="midnightblue" points="579.59,-263.7 575.77,-253.82 572.6,-263.92 579.59,-263.7"/>
</g>
<!-- Node9 -->
<g id="node9" class="node">
<title>Node9</title>
<g id="a_node9"><a xlink:href="../../df/d49/classCCopasiMethod.html" target="_top" xlink:title=" ">
<polygon fill="white" stroke="black" points="689.5,-804.5 689.5,-823.5 775.5,-823.5 775.5,-804.5 689.5,-804.5"/>
<text text-anchor="middle" x="732.5" y="-811.5" font-family="FreeSans" font-size="10.00">CCopasiMethod</text>
</a>
</g>
</g>
<!-- Node1&#45;&gt;Node9 -->
<g id="edge8" class="edge">
<title>Node1&#45;&gt;Node9</title>
<path fill="none" stroke="midnightblue" d="M580.85,-263.55C605.86,-354.91 710.76,-738.2 728.84,-804.28"/>
<polygon fill="midnightblue" stroke="midnightblue" points="584.22,-262.61 578.21,-253.89 577.47,-264.46 584.22,-262.61"/>
</g>
<!-- Node70 -->
<g id="node25" class="node">
<title>Node70</title>
<g id="a_node25"><a xlink:href="../../d1/d05/classCCopasiProblem.html" target="_top" xlink:title=" ">
<polygon fill="white" stroke="black" points="688,-354.5 688,-373.5 777,-373.5 777,-354.5 688,-354.5"/>
<text text-anchor="middle" x="732.5" y="-361.5" font-family="FreeSans" font-size="10.00">CCopasiProblem</text>
</a>
</g>
</g>
<!-- Node1&#45;&gt;Node70 -->
<g id="edge24" class="edge">
<title>Node1&#45;&gt;Node70</title>
<path fill="none" stroke="midnightblue" d="M588.28,-261.86C605.23,-284.32 637.21,-322.64 673,-345 679.07,-348.79 685.97,-351.9 692.84,-354.42"/>
<polygon fill="midnightblue" stroke="midnightblue" points="590.91,-259.54 582.16,-253.57 585.28,-263.69 590.91,-259.54"/>
</g>
<!-- Node88 -->
<g id="node38" class="node">
<title>Node88</title>
<g id="a_node38"><a xlink:href="../../d6/d74/classCExperiment.html" target="_top" xlink:title=" ">
<polygon fill="white" stroke="black" points="697,-316.5 697,-335.5 768,-335.5 768,-316.5 697,-316.5"/>
<text text-anchor="middle" x="732.5" y="-323.5" font-family="FreeSans" font-size="10.00">CExperiment</text>
</a>
</g>
</g>
<!-- Node1&#45;&gt;Node88 -->
<g id="edge37" class="edge">
<title>Node1&#45;&gt;Node88</title>
<path fill="none" stroke="midnightblue" d="M596.38,-259.78C615.51,-273.67 645.03,-293.7 673,-307 680.52,-310.58 688.89,-313.74 696.89,-316.4"/>
<polygon fill="midnightblue" stroke="midnightblue" points="598.24,-256.81 588.12,-253.69 594.09,-262.44 598.24,-256.81"/>
</g>
<!-- Node89 -->
<g id="node39" class="node">
<title>Node89</title>
<g id="a_node39"><a xlink:href="../../d8/db0/classCExperimentObjectMap.html" target="_top" xlink:title=" ">
<polygon fill="white" stroke="black" points="673,-278.5 673,-297.5 792,-297.5 792,-278.5 673,-278.5"/>
<text text-anchor="middle" x="732.5" y="-285.5" font-family="FreeSans" font-size="10.00">CExperimentObjectMap</text>
</a>
</g>
</g>
<!-- Node1&#45;&gt;Node89 -->
<g id="edge38" class="edge">
<title>Node1&#45;&gt;Node89</title>
<path fill="none" stroke="midnightblue" d="M619.26,-256.34C644.1,-263.35 674.73,-271.99 697.72,-278.47"/>
<polygon fill="midnightblue" stroke="midnightblue" points="619.92,-252.89 609.35,-253.55 618.02,-259.63 619.92,-252.89"/>
</g>
<!-- Node90 -->
<g id="node40" class="node">
<title>Node90</title>
<g id="a_node40"><a xlink:href="../../d2/db2/classCExperimentObjectMap_1_1CDataColumn.html" target="_top" xlink:title=" ">
<polygon fill="white" stroke="black" points="673,-229 673,-259 792,-259 792,-229 673,-229"/>
<text text-anchor="start" x="681" y="-247" font-family="FreeSans" font-size="10.00">CExperimentObjectMap</text>
<text text-anchor="middle" x="732.5" y="-236" font-family="FreeSans" font-size="10.00">::CDataColumn</text>
</a>
</g>
</g>
<!-- Node1&#45;&gt;Node90 -->
<g id="edge39" class="edge">
<title>Node1&#45;&gt;Node90</title>
<path fill="none" stroke="midnightblue" d="M647.17,-244C655.76,-244 664.46,-244 672.84,-244"/>
<polygon fill="midnightblue" stroke="midnightblue" points="647.16,-240.5 637.16,-244 647.16,-247.5 647.16,-240.5"/>
</g>
<!-- Node91 -->
<g id="node41" class="node">
<title>Node91</title>
<g id="a_node41"><a xlink:href="../../de/d70/classCExperimentSet.html" target="_top" xlink:title=" ">
<polygon fill="white" stroke="black" points="689.5,-190.5 689.5,-209.5 775.5,-209.5 775.5,-190.5 689.5,-190.5"/>
<text text-anchor="middle" x="732.5" y="-197.5" font-family="FreeSans" font-size="10.00">CExperimentSet</text>
</a>
</g>
</g>
<!-- Node1&#45;&gt;Node91 -->
<g id="edge40" class="edge">
<title>Node1&#45;&gt;Node91</title>
<path fill="none" stroke="midnightblue" d="M619.26,-231.66C644.1,-224.65 674.73,-216.01 697.72,-209.53"/>
<polygon fill="midnightblue" stroke="midnightblue" points="618.02,-228.37 609.35,-234.45 619.92,-235.11 618.02,-228.37"/>
</g>
<!-- Node93 -->
<g id="node43" class="node">
<title>Node93</title>
<g id="a_node43"><a xlink:href="../../df/d1a/classCMIRIAMResource.html" target="_top" xlink:title=" ">
<polygon fill="white" stroke="black" points="682,-152.5 682,-171.5 783,-171.5 783,-152.5 682,-152.5"/>
<text text-anchor="middle" x="732.5" y="-159.5" font-family="FreeSans" font-size="10.00">CMIRIAMResource</text>
</a>
</g>
</g>
<!-- Node1&#45;&gt;Node93 -->
<g id="edge42" class="edge">
<title>Node1&#45;&gt;Node93</title>
<path fill="none" stroke="midnightblue" d="M596.38,-228.22C615.51,-214.33 645.03,-194.3 673,-181 680.52,-177.42 688.89,-174.26 696.89,-171.6"/>
<polygon fill="midnightblue" stroke="midnightblue" points="594.09,-225.56 588.12,-234.31 598.24,-231.19 594.09,-225.56"/>
</g>
<!-- Node94 -->
<g id="node44" class="node">
<title>Node94</title>
<g id="a_node44"><a xlink:href="../../d4/de9/classCMIRIAMResources.html" target="_top" xlink:title=" ">
<polygon fill="white" stroke="black" points="679.5,-114.5 679.5,-133.5 785.5,-133.5 785.5,-114.5 679.5,-114.5"/>
<text text-anchor="middle" x="732.5" y="-121.5" font-family="FreeSans" font-size="10.00">CMIRIAMResources</text>
</a>
</g>
</g>
<!-- Node1&#45;&gt;Node94 -->
<g id="edge43" class="edge">
<title>Node1&#45;&gt;Node94</title>
<path fill="none" stroke="midnightblue" d="M588.28,-226.14C605.23,-203.68 637.21,-165.36 673,-143 679.07,-139.21 685.97,-136.1 692.84,-133.58"/>
<polygon fill="midnightblue" stroke="midnightblue" points="585.28,-224.31 582.16,-234.43 590.91,-228.46 585.28,-224.31"/>
</g>
<!-- Node95 -->
<g id="node45" class="node">
<title>Node95</title>
<g id="a_node45"><a xlink:href="../../d2/d15/classCOptItem.html" target="_top" xlink:title=" ">
<polygon fill="white" stroke="black" points="703,-76.5 703,-95.5 762,-95.5 762,-76.5 703,-76.5"/>
<text text-anchor="middle" x="732.5" y="-83.5" font-family="FreeSans" font-size="10.00">COptItem</text>
</a>
</g>
</g>
<!-- Node1&#45;&gt;Node95 -->
<g id="edge44" class="edge">
<title>Node1&#45;&gt;Node95</title>
<path fill="none" stroke="midnightblue" d="M583.89,-224.98C598.01,-195.11 629.32,-137.29 673,-105 681.76,-98.53 692.82,-94.19 702.97,-91.33"/>
<polygon fill="midnightblue" stroke="midnightblue" points="580.6,-223.75 579.62,-234.29 586.97,-226.66 580.6,-223.75"/>
</g>
<!-- Node98 -->
<g id="node47" class="node">
<title>Node98</title>
<g id="a_node47"><a xlink:href="../../d8/d8b/classCPlotItem.html" target="_top" xlink:title=" ">
<polygon fill="white" stroke="black" points="702.5,-38.5 702.5,-57.5 762.5,-57.5 762.5,-38.5 702.5,-38.5"/>
<text text-anchor="middle" x="732.5" y="-45.5" font-family="FreeSans" font-size="10.00">CPlotItem</text>
</a>
</g>
</g>
<!-- Node1&#45;&gt;Node98 -->
<g id="edge46" class="edge">
<title>Node1&#45;&gt;Node98</title>
<path fill="none" stroke="midnightblue" d="M580.98,-224.46C592.16,-188.12 621.04,-109.94 673,-67 681.31,-60.13 692.17,-55.72 702.28,-52.9"/>
<polygon fill="midnightblue" stroke="midnightblue" points="577.54,-223.73 578.07,-234.31 584.26,-225.71 577.54,-223.73"/>
</g>
<!-- Node100 -->
<g id="node49" class="node">
<title>Node100</title>
<g id="a_node49"><a xlink:href="../../d5/d1a/classCRecentFiles.html" target="_top" xlink:title=" ">
<polygon fill="white" stroke="black" points="695,-0.5 695,-19.5 770,-19.5 770,-0.5 695,-0.5"/>
<text text-anchor="middle" x="732.5" y="-7.5" font-family="FreeSans" font-size="10.00">CRecentFiles</text>
</a>
</g>
</g>
<!-- Node1&#45;&gt;Node100 -->
<g id="edge48" class="edge">
<title>Node1&#45;&gt;Node100</title>
<path fill="none" stroke="midnightblue" d="M578.95,-224.13C587.3,-181.98 612.55,-83.05 673,-29 679.21,-23.45 687.07,-19.52 694.99,-16.73"/>
<polygon fill="midnightblue" stroke="midnightblue" points="575.46,-223.74 577.06,-234.22 582.34,-225.03 575.46,-223.74"/>
</g>
<!-- Node2 -->
<g id="node2" class="node">
<title>Node2</title>
<g id="a_node2"><a xlink:href="../../d5/db6/classCCopasiParameter.html" target="_top" xlink:title=" ">
<polygon fill="white" stroke="black" points="378,-234.5 378,-253.5 476,-253.5 476,-234.5 378,-234.5"/>
<text text-anchor="middle" x="427" y="-241.5" font-family="FreeSans" font-size="10.00">CCopasiParameter</text>
</a>
</g>
</g>
<!-- Node2&#45;&gt;Node1 -->
<g id="edge1" class="edge">
<title>Node2&#45;&gt;Node1</title>
<path fill="none" stroke="midnightblue" d="M486.15,-244C494.57,-244 503.26,-244 511.75,-244"/>
<polygon fill="midnightblue" stroke="midnightblue" points="486.05,-240.5 476.05,-244 486.05,-247.5 486.05,-240.5"/>
</g>
<!-- Node3 -->
<g id="node3" class="node">
<title>Node3</title>
<g id="a_node3"><a xlink:href="../../d3/db9/classCDataContainer.html" target="_top" xlink:title=" ">
<polygon fill="white" stroke="black" points="257,-234.5 257,-253.5 342,-253.5 342,-234.5 257,-234.5"/>
<text text-anchor="middle" x="299.5" y="-241.5" font-family="FreeSans" font-size="10.00">CDataContainer</text>
</a>
</g>
</g>
<!-- Node3&#45;&gt;Node2 -->
<g id="edge2" class="edge">
<title>Node3&#45;&gt;Node2</title>
<path fill="none" stroke="midnightblue" d="M352.4,-244C360.84,-244 369.54,-244 377.88,-244"/>
<polygon fill="midnightblue" stroke="midnightblue" points="352.29,-240.5 342.29,-244 352.29,-247.5 352.29,-240.5"/>
</g>
<!-- Node4 -->
<g id="node4" class="node">
<title>Node4</title>
<g id="a_node4"><a xlink:href="../../d1/d6b/classCDataObject.html" target="_top" xlink:title=" ">
<polygon fill="white" stroke="black" points="149,-234.5 149,-253.5 221,-253.5 221,-234.5 149,-234.5"/>
<text text-anchor="middle" x="185" y="-241.5" font-family="FreeSans" font-size="10.00">CDataObject</text>
</a>
</g>
</g>
<!-- Node4&#45;&gt;Node3 -->
<g id="edge3" class="edge">
<title>Node4&#45;&gt;Node3</title>
<path fill="none" stroke="midnightblue" d="M231.56,-244C239.85,-244 248.46,-244 256.64,-244"/>
<polygon fill="midnightblue" stroke="midnightblue" points="231.29,-240.5 221.29,-244 231.29,-247.5 231.29,-240.5"/>
</g>
<!-- Node5 -->
<g id="node5" class="node">
<title>Node5</title>
<g id="a_node5"><a xlink:href="../../df/dfa/classCObjectInterface.html" target="_top" xlink:title=" ">
<polygon fill="white" stroke="black" points="11.5,-253.5 11.5,-272.5 101.5,-272.5 101.5,-253.5 11.5,-253.5"/>
<text text-anchor="middle" x="56.5" y="-260.5" font-family="FreeSans" font-size="10.00">CObjectInterface</text>
</a>
</g>
</g>
<!-- Node5&#45;&gt;Node4 -->
<g id="edge4" class="edge">
<title>Node5&#45;&gt;Node4</title>
<path fill="none" stroke="midnightblue" d="M111.66,-254.86C124.21,-252.98 137.25,-251.02 148.74,-249.3"/>
<polygon fill="midnightblue" stroke="midnightblue" points="111.11,-251.41 101.74,-256.35 112.15,-258.33 111.11,-251.41"/>
</g>
<!-- Node6 -->
<g id="node6" class="node">
<title>Node6</title>
<g id="a_node6"><a xlink:href="../../d8/d53/classCUndoObjectInterface.html" target="_top" xlink:title=" ">
<polygon fill="white" stroke="black" points="0,-215.5 0,-234.5 113,-234.5 113,-215.5 0,-215.5"/>
<text text-anchor="middle" x="56.5" y="-222.5" font-family="FreeSans" font-size="10.00">CUndoObjectInterface</text>
</a>
</g>
</g>
<!-- Node6&#45;&gt;Node4 -->
<g id="edge5" class="edge">
<title>Node6&#45;&gt;Node4</title>
<path fill="none" stroke="midnightblue" d="M123.28,-234.88C132.08,-236.2 140.81,-237.51 148.8,-238.71"/>
<polygon fill="midnightblue" stroke="midnightblue" points="123.76,-231.41 113.35,-233.39 122.72,-238.34 123.76,-231.41"/>
</g>
<!-- Node10 -->
<g id="node10" class="node">
<title>Node10</title>
<g id="a_node10"><a xlink:href="../../d2/dbe/classCAnalyticsMethod.html" target="_top" xlink:title=" ">
<polygon fill="white" stroke="black" points="837.5,-1127.5 837.5,-1146.5 932.5,-1146.5 932.5,-1127.5 837.5,-1127.5"/>
<text text-anchor="middle" x="885" y="-1134.5" font-family="FreeSans" font-size="10.00">CAnalyticsMethod</text>
</a>
</g>
</g>
<!-- Node9&#45;&gt;Node10 -->
<g id="edge9" class="edge">
<title>Node9&#45;&gt;Node10</title>
<path fill="none" stroke="midnightblue" d="M784.48,-826.14C787.27,-828.1 789.82,-830.37 792,-833 873.39,-931.37 747.26,-1019.1 828,-1118 831.18,-1121.9 835.2,-1125 839.61,-1127.47"/>
<polygon fill="midnightblue" stroke="midnightblue" points="785.95,-822.95 775.51,-821.15 782.55,-829.06 785.95,-822.95"/>
</g>
<!-- Node11 -->
<g id="node11" class="node">
<title>Node11</title>
<g id="a_node11"><a xlink:href="../../d4/d6d/classCCrossSectionMethod.html" target="_top" xlink:title=" ">
<polygon fill="white" stroke="black" points="828,-1089.5 828,-1108.5 942,-1108.5 942,-1089.5 828,-1089.5"/>
<text text-anchor="middle" x="885" y="-1096.5" font-family="FreeSans" font-size="10.00">CCrossSectionMethod</text>
</a>
</g>
</g>
<!-- Node9&#45;&gt;Node11 -->
<g id="edge10" class="edge">
<title>Node9&#45;&gt;Node11</title>
<path fill="none" stroke="midnightblue" d="M784.56,-826.28C787.31,-828.2 789.83,-830.43 792,-833 863.53,-917.8 757.02,-994.74 828,-1080 831.22,-1083.87 835.26,-1086.95 839.68,-1089.41"/>
<polygon fill="midnightblue" stroke="midnightblue" points="786.16,-823.16 775.72,-821.35 782.75,-829.27 786.16,-823.16"/>
</g>
<!-- Node12 -->
<g id="node12" class="node">
<title>Node12</title>
<g id="a_node12"><a xlink:href="../../d4/d31/classCEFMMethod.html" target="_top" xlink:title=" ">
<polygon fill="white" stroke="red" points="847,-1051.5 847,-1070.5 923,-1070.5 923,-1051.5 847,-1051.5"/>
<text text-anchor="middle" x="885" y="-1058.5" font-family="FreeSans" font-size="10.00">CEFMMethod</text>
</a>
</g>
</g>
<!-- Node9&#45;&gt;Node12 -->
<g id="edge11" class="edge">
<title>Node9&#45;&gt;Node12</title>
<path fill="none" stroke="midnightblue" d="M784.48,-826.34C787.25,-828.25 789.8,-830.46 792,-833 853.7,-904.26 766.77,-970.34 828,-1042 832.94,-1047.78 839.7,-1051.8 846.82,-1054.6"/>
<polygon fill="midnightblue" stroke="midnightblue" points="786.05,-823.21 775.61,-821.44 782.67,-829.34 786.05,-823.21"/>
</g>
<!-- Node17 -->
<g id="node13" class="node">
<title>Node17</title>
<g id="a_node13"><a xlink:href="../../d6/d0a/classCLNAMethod.html" target="_top" xlink:title=" ">
<polygon fill="white" stroke="black" points="847,-1013.5 847,-1032.5 923,-1032.5 923,-1013.5 847,-1013.5"/>
<text text-anchor="middle" x="885" y="-1020.5" font-family="FreeSans" font-size="10.00">CLNAMethod</text>
</a>
</g>
</g>
<!-- Node9&#45;&gt;Node17 -->
<g id="edge12" class="edge">
<title>Node9&#45;&gt;Node17</title>
<path fill="none" stroke="midnightblue" d="M784.76,-826.7C787.41,-828.53 789.86,-830.61 792,-833 843.92,-890.76 776.46,-945.9 828,-1004 833.04,-1009.68 839.85,-1013.67 846.98,-1016.46"/>
<polygon fill="midnightblue" stroke="midnightblue" points="786.19,-823.49 775.74,-821.71 782.8,-829.62 786.19,-823.49"/>
</g>
<!-- Node18 -->
<g id="node14" class="node">
<title>Node18</title>
<g id="a_node14"><a xlink:href="../../dd/ded/classCLyapMethod.html" target="_top" xlink:title=" ">
<polygon fill="white" stroke="red" points="846.5,-975.5 846.5,-994.5 923.5,-994.5 923.5,-975.5 846.5,-975.5"/>
<text text-anchor="middle" x="885" y="-982.5" font-family="FreeSans" font-size="10.00">CLyapMethod</text>
</a>
</g>
</g>
<!-- Node9&#45;&gt;Node18 -->
<g id="edge13" class="edge">
<title>Node9&#45;&gt;Node18</title>
<path fill="none" stroke="midnightblue" d="M784.35,-826.67C787.13,-828.51 789.72,-830.6 792,-833 834.21,-877.36 786.08,-921.36 828,-966 832.99,-971.31 839.52,-975.14 846.35,-977.9"/>
<polygon fill="midnightblue" stroke="midnightblue" points="785.97,-823.57 775.51,-821.93 782.66,-829.74 785.97,-823.57"/>
</g>
<!-- Node20 -->
<g id="node15" class="node">
<title>Node20</title>
<g id="a_node15"><a xlink:href="../../d4/d57/classCMCAMethod.html" target="_top" xlink:title=" ">
<polygon fill="white" stroke="black" points="846.5,-937.5 846.5,-956.5 923.5,-956.5 923.5,-937.5 846.5,-937.5"/>
<text text-anchor="middle" x="885" y="-944.5" font-family="FreeSans" font-size="10.00">CMCAMethod</text>
</a>
</g>
</g>
<!-- Node9&#45;&gt;Node20 -->
<g id="edge14" class="edge">
<title>Node9&#45;&gt;Node20</title>
<path fill="none" stroke="midnightblue" d="M784.61,-827.27C787.26,-828.96 789.75,-830.86 792,-833 824.69,-864.15 795.52,-896.64 828,-928 833.17,-932.99 839.7,-936.67 846.46,-939.39"/>
<polygon fill="midnightblue" stroke="midnightblue" points="786.19,-824.15 775.71,-822.59 782.93,-830.34 786.19,-824.15"/>
</g>
<!-- Node21 -->
<g id="node16" class="node">
<title>Node21</title>
<g id="a_node16"><a xlink:href="../../da/d88/classCMoietiesMethod.html" target="_top" xlink:title=" ">
<polygon fill="white" stroke="black" points="839,-899.5 839,-918.5 931,-918.5 931,-899.5 839,-899.5"/>
<text text-anchor="middle" x="885" y="-906.5" font-family="FreeSans" font-size="10.00">CMoietiesMethod</text>
</a>
</g>
</g>
<!-- Node9&#45;&gt;Node21 -->
<g id="edge15" class="edge">
<title>Node9&#45;&gt;Node21</title>
<path fill="none" stroke="midnightblue" d="M784.53,-828.06C787.16,-829.54 789.67,-831.19 792,-833 815.66,-851.39 804.46,-871.46 828,-890 832.92,-893.88 838.67,-896.98 844.59,-899.47"/>
<polygon fill="midnightblue" stroke="midnightblue" points="785.8,-824.78 775.27,-823.57 782.75,-831.08 785.8,-824.78"/>
</g>
<!-- Node22 -->
<g id="node17" class="node">
<title>Node22</title>
<g id="a_node17"><a xlink:href="../../dc/d24/classCOptMethod.html" target="_top" xlink:title=" ">
<polygon fill="white" stroke="red" points="849.5,-861.5 849.5,-880.5 920.5,-880.5 920.5,-861.5 849.5,-861.5"/>
<text text-anchor="middle" x="885" y="-868.5" font-family="FreeSans" font-size="10.00">COptMethod</text>
</a>
</g>
</g>
<!-- Node9&#45;&gt;Node22 -->
<g id="edge16" class="edge">
<title>Node9&#45;&gt;Node22</title>
<path fill="none" stroke="midnightblue" d="M776.03,-826.86C781.46,-828.78 786.9,-830.84 792,-833 808.66,-840.04 811.38,-844.85 828,-852 835.92,-855.41 844.67,-858.63 852.86,-861.41"/>
<polygon fill="midnightblue" stroke="midnightblue" points="776.95,-823.48 766.35,-823.58 774.7,-830.11 776.95,-823.48"/>
</g>
<!-- Node42 -->
<g id="node18" class="node">
<title>Node42</title>
<g id="a_node18"><a xlink:href="../../de/d18/classCOscillationMethod.html" target="_top" xlink:title=" ">
<polygon fill="white" stroke="red" points="834.5,-823.5 834.5,-842.5 935.5,-842.5 935.5,-823.5 834.5,-823.5"/>
<text text-anchor="middle" x="885" y="-830.5" font-family="FreeSans" font-size="10.00">COscillationMethod</text>
</a>
</g>
</g>
<!-- Node9&#45;&gt;Node42 -->
<g id="edge17" class="edge">
<title>Node9&#45;&gt;Node42</title>
<path fill="none" stroke="midnightblue" d="M785.89,-820.61C801.59,-822.6 818.76,-824.76 834.28,-826.72"/>
<polygon fill="midnightblue" stroke="midnightblue" points="786.18,-817.12 775.82,-819.34 785.31,-824.07 786.18,-817.12"/>
</g>
<!-- Node44 -->
<g id="node19" class="node">
<title>Node44</title>
<g id="a_node19"><a xlink:href="../../dd/d87/classCScanMethod.html" target="_top" xlink:title=" ">
<polygon fill="white" stroke="black" points="846,-785.5 846,-804.5 924,-804.5 924,-785.5 846,-785.5"/>
<text text-anchor="middle" x="885" y="-792.5" font-family="FreeSans" font-size="10.00">CScanMethod</text>
</a>
</g>
</g>
<!-- Node9&#45;&gt;Node44 -->
<g id="edge18" class="edge">
<title>Node9&#45;&gt;Node44</title>
<path fill="none" stroke="midnightblue" d="M785.89,-807.39C805.62,-804.9 827.66,-802.11 845.85,-799.82"/>
<polygon fill="midnightblue" stroke="midnightblue" points="785.31,-803.93 775.82,-808.66 786.18,-810.88 785.31,-803.93"/>
</g>
<!-- Node45 -->
<g id="node20" class="node">
<title>Node45</title>
<g id="a_node20"><a xlink:href="../../d3/d0f/classCSensMethod.html" target="_top" xlink:title=" ">
<polygon fill="white" stroke="black" points="846,-747.5 846,-766.5 924,-766.5 924,-747.5 846,-747.5"/>
<text text-anchor="middle" x="885" y="-754.5" font-family="FreeSans" font-size="10.00">CSensMethod</text>
</a>
</g>
</g>
<!-- Node9&#45;&gt;Node45 -->
<g id="edge19" class="edge">
<title>Node9&#45;&gt;Node45</title>
<path fill="none" stroke="midnightblue" d="M765.56,-800.59C783.78,-793.11 807.06,-783.76 828,-776 836.66,-772.79 846.16,-769.49 854.83,-766.56"/>
<polygon fill="midnightblue" stroke="midnightblue" points="764.18,-797.38 756.28,-804.43 766.86,-803.85 764.18,-797.38"/>
</g>
<!-- Node46 -->
<g id="node21" class="node">
<title>Node46</title>
<g id="a_node21"><a xlink:href="../../dd/dbc/classCSteadyStateMethod.html" target="_top" xlink:title=" ">
<polygon fill="white" stroke="red" points="830.5,-709.5 830.5,-728.5 939.5,-728.5 939.5,-709.5 830.5,-709.5"/>
<text text-anchor="middle" x="885" y="-716.5" font-family="FreeSans" font-size="10.00">CSteadyStateMethod</text>
</a>
</g>
</g>
<!-- Node9&#45;&gt;Node46 -->
<g id="edge20" class="edge">
<title>Node9&#45;&gt;Node46</title>
<path fill="none" stroke="midnightblue" d="M750.51,-797.2C768.46,-780.26 798.23,-754.35 828,-738 834.75,-734.29 842.35,-731.13 849.72,-728.5"/>
<polygon fill="midnightblue" stroke="midnightblue" points="747.92,-794.84 743.13,-804.29 752.77,-799.89 747.92,-794.84"/>
</g>
<!-- Node48 -->
<g id="node22" class="node">
<title>Node48</title>
<g id="a_node22"><a xlink:href="../../dc/d45/classCTSSAMethod.html" target="_top" xlink:title="The CTSSAMethod class is the base class for all time scale separation analysis methods.">
<polygon fill="white" stroke="red" points="844,-671.5 844,-690.5 926,-690.5 926,-671.5 844,-671.5"/>
<text text-anchor="middle" x="885" y="-678.5" font-family="FreeSans" font-size="10.00">CTSSAMethod</text>
</a>
</g>
</g>
<!-- Node9&#45;&gt;Node48 -->
<g id="edge21" class="edge">
<title>Node9&#45;&gt;Node48</title>
<path fill="none" stroke="midnightblue" d="M744.35,-795.32C759.84,-770.2 790.61,-725.74 828,-700 833.58,-696.16 840.01,-693.03 846.47,-690.51"/>
<polygon fill="midnightblue" stroke="midnightblue" points="741.16,-793.83 739.01,-804.21 747.16,-797.44 741.16,-793.83"/>
</g>
<!-- Node52 -->
<g id="node23" class="node">
<title>Node52</title>
<g id="a_node23"><a xlink:href="../../d3/dd9/classCTimeSensMethod.html" target="_top" xlink:title=" ">
<polygon fill="white" stroke="red" points="835,-633.5 835,-652.5 935,-652.5 935,-633.5 835,-633.5"/>
<text text-anchor="middle" x="885" y="-640.5" font-family="FreeSans" font-size="10.00">CTimeSensMethod</text>
</a>
</g>
</g>
<!-- Node9&#45;&gt;Node52 -->
<g id="edge22" class="edge">
<title>Node9&#45;&gt;Node52</title>
<path fill="none" stroke="midnightblue" d="M740.5,-794.63C753.08,-762.49 782.52,-698.1 828,-662 832.91,-658.11 838.65,-654.99 844.56,-652.5"/>
<polygon fill="midnightblue" stroke="midnightblue" points="737.14,-793.62 736.88,-804.21 743.69,-796.09 737.14,-793.62"/>
</g>
<!-- Node54 -->
<g id="node24" class="node">
<title>Node54</title>
<g id="a_node24"><a xlink:href="../../d0/dc9/classCTrajectoryMethod.html" target="_top" xlink:title=" ">
<polygon fill="white" stroke="red" points="836,-595.5 836,-614.5 934,-614.5 934,-595.5 836,-595.5"/>
<text text-anchor="middle" x="885" y="-602.5" font-family="FreeSans" font-size="10.00">CTrajectoryMethod</text>
</a>
</g>
</g>
<!-- Node9&#45;&gt;Node54 -->
<g id="edge23" class="edge">
<title>Node9&#45;&gt;Node54</title>
<path fill="none" stroke="midnightblue" d="M737.99,-794.16C747.7,-755.77 774.22,-671 828,-624 832.41,-620.15 837.63,-617.07 843.08,-614.61"/>
<polygon fill="midnightblue" stroke="midnightblue" points="734.54,-793.55 735.6,-804.09 741.35,-795.19 734.54,-793.55"/>
</g>
<!-- Node71 -->
<g id="node26" class="node">
<title>Node71</title>
<g id="a_node26"><a xlink:href="../../dc/d4c/classCEFMProblem.html" target="_top" xlink:title=" ">
<polygon fill="white" stroke="black" points="845,-557.5 845,-576.5 925,-576.5 925,-557.5 845,-557.5"/>
<text text-anchor="middle" x="885" y="-564.5" font-family="FreeSans" font-size="10.00">CEFMProblem</text>
</a>
</g>
</g>
<!-- Node70&#45;&gt;Node71 -->
<g id="edge25" class="edge">
<title>Node70&#45;&gt;Node71</title>
<path fill="none" stroke="midnightblue" d="M738.31,-383.7C748.45,-421.11 775.51,-502.72 828,-548 832.9,-552.22 838.78,-555.52 844.86,-558.09"/>
<polygon fill="midnightblue" stroke="midnightblue" points="741.59,-382.41 735.7,-373.6 734.82,-384.16 741.59,-382.41"/>
</g>
<!-- Node72 -->
<g id="node27" class="node">
<title>Node72</title>
<g id="a_node27"><a xlink:href="../../d1/d23/classCLNAProblem.html" target="_top" xlink:title=" ">
<polygon fill="white" stroke="black" points="845,-519.5 845,-538.5 925,-538.5 925,-519.5 845,-519.5"/>
<text text-anchor="middle" x="885" y="-526.5" font-family="FreeSans" font-size="10.00">CLNAProblem</text>
</a>
</g>
</g>
<!-- Node70&#45;&gt;Node72 -->
<g id="edge26" class="edge">
<title>Node70&#45;&gt;Node72</title>
<path fill="none" stroke="midnightblue" d="M740.9,-383.05C753.89,-414.07 783.7,-475.5 828,-510 833.02,-513.91 838.9,-517.04 844.91,-519.54"/>
<polygon fill="midnightblue" stroke="midnightblue" points="744.14,-381.73 737.14,-373.78 737.65,-384.36 744.14,-381.73"/>
</g>
<!-- Node73 -->
<g id="node28" class="node">
<title>Node73</title>
<g id="a_node28"><a xlink:href="../../d4/dc3/classCLyapProblem.html" target="_top" xlink:title=" ">
<polygon fill="white" stroke="black" points="845,-481.5 845,-500.5 925,-500.5 925,-481.5 845,-481.5"/>
<text text-anchor="middle" x="885" y="-488.5" font-family="FreeSans" font-size="10.00">CLyapProblem</text>
</a>
</g>
</g>
<!-- Node70&#45;&gt;Node73 -->
<g id="edge27" class="edge">
<title>Node70&#45;&gt;Node73</title>
<path fill="none" stroke="midnightblue" d="M744.83,-382.04C760.67,-405.87 791.62,-447.67 828,-472 833.72,-475.82 840.28,-478.95 846.85,-481.48"/>
<polygon fill="midnightblue" stroke="midnightblue" points="747.72,-380.06 739.34,-373.58 741.85,-383.87 747.72,-380.06"/>
</g>
<!-- Node74 -->
<g id="node29" class="node">
<title>Node74</title>
<g id="a_node29"><a xlink:href="../../dc/dc2/classCMCAProblem.html" target="_top" xlink:title=" ">
<polygon fill="white" stroke="black" points="844.5,-443.5 844.5,-462.5 925.5,-462.5 925.5,-443.5 844.5,-443.5"/>
<text text-anchor="middle" x="885" y="-450.5" font-family="FreeSans" font-size="10.00">CMCAProblem</text>
</a>
</g>
</g>
<!-- Node70&#45;&gt;Node74 -->
<g id="edge28" class="edge">
<title>Node70&#45;&gt;Node74</title>
<path fill="none" stroke="midnightblue" d="M752.13,-380.56C770.39,-396.09 799.55,-419.11 828,-434 834.91,-437.62 842.66,-440.76 850.13,-443.4"/>
<polygon fill="midnightblue" stroke="midnightblue" points="753.95,-377.5 744.1,-373.6 749.37,-382.79 753.95,-377.5"/>
</g>
<!-- Node75 -->
<g id="node30" class="node">
<title>Node75</title>
<g id="a_node30"><a xlink:href="../../dd/da5/classCMoietiesProblem.html" target="_top" xlink:title=" ">
<polygon fill="white" stroke="black" points="837,-405.5 837,-424.5 933,-424.5 933,-405.5 837,-405.5"/>
<text text-anchor="middle" x="885" y="-412.5" font-family="FreeSans" font-size="10.00">CMoietiesProblem</text>
</a>
</g>
</g>
<!-- Node70&#45;&gt;Node75 -->
<g id="edge29" class="edge">
<title>Node70&#45;&gt;Node75</title>
<path fill="none" stroke="midnightblue" d="M771.43,-376.85C797.66,-385.74 832,-397.38 855.82,-405.45"/>
<polygon fill="midnightblue" stroke="midnightblue" points="772.4,-373.49 761.81,-373.59 770.16,-380.12 772.4,-373.49"/>
</g>
<!-- Node76 -->
<g id="node31" class="node">
<title>Node76</title>
<g id="a_node31"><a xlink:href="../../db/d6b/classCOptProblem.html" target="_top" xlink:title=" ">
<polygon fill="white" stroke="red" points="847.5,-367.5 847.5,-386.5 922.5,-386.5 922.5,-367.5 847.5,-367.5"/>
<text text-anchor="middle" x="885" y="-374.5" font-family="FreeSans" font-size="10.00">COptProblem</text>
</a>
</g>
</g>
<!-- Node70&#45;&gt;Node76 -->
<g id="edge30" class="edge">
<title>Node70&#45;&gt;Node76</title>
<path fill="none" stroke="midnightblue" d="M787.19,-368.64C807.07,-370.36 829.14,-372.26 847.18,-373.82"/>
<polygon fill="midnightblue" stroke="midnightblue" points="787.29,-365.13 777.03,-367.76 786.69,-372.11 787.29,-365.13"/>
</g>
<!-- Node79 -->
<g id="node32" class="node">
<title>Node79</title>
<g id="a_node32"><a xlink:href="../../d1/d48/classCOscillationProblem.html" target="_top" xlink:title=" ">
<polygon fill="white" stroke="black" points="832.5,-329.5 832.5,-348.5 937.5,-348.5 937.5,-329.5 832.5,-329.5"/>
<text text-anchor="middle" x="885" y="-336.5" font-family="FreeSans" font-size="10.00">COscillationProblem</text>
</a>
</g>
</g>
<!-- Node70&#45;&gt;Node79 -->
<g id="edge31" class="edge">
<title>Node70&#45;&gt;Node79</title>
<path fill="none" stroke="midnightblue" d="M787.01,-355.11C801.74,-352.66 817.69,-350.02 832.32,-347.59"/>
<polygon fill="midnightblue" stroke="midnightblue" points="786.32,-351.68 777.03,-356.77 787.47,-358.58 786.32,-351.68"/>
</g>
<!-- Node80 -->
<g id="node33" class="node">
<title>Node80</title>
<g id="a_node33"><a xlink:href="../../d1/d90/classCScanProblem.html" target="_top" xlink:title=" ">
<polygon fill="white" stroke="black" points="844,-291.5 844,-310.5 926,-310.5 926,-291.5 844,-291.5"/>
<text text-anchor="middle" x="885" y="-298.5" font-family="FreeSans" font-size="10.00">CScanProblem</text>
</a>
</g>
</g>
<!-- Node70&#45;&gt;Node80 -->
<g id="edge32" class="edge">
<title>Node70&#45;&gt;Node80</title>
<path fill="none" stroke="midnightblue" d="M778.22,-350.99C782.95,-349.17 787.63,-347.17 792,-345 809.45,-336.34 810.61,-328.77 828,-320 835.15,-316.39 843.14,-313.22 850.8,-310.55"/>
<polygon fill="midnightblue" stroke="midnightblue" points="776.73,-347.81 768.5,-354.48 779.1,-354.4 776.73,-347.81"/>
</g>
<!-- Node81 -->
<g id="node34" class="node">
<title>Node81</title>
<g id="a_node34"><a xlink:href="../../dc/dbc/classCSensProblem.html" target="_top" xlink:title=" ">
<polygon fill="white" stroke="black" points="844,-253.5 844,-272.5 926,-272.5 926,-253.5 844,-253.5"/>
<text text-anchor="middle" x="885" y="-260.5" font-family="FreeSans" font-size="10.00">CSensProblem</text>
</a>
</g>
</g>
<!-- Node70&#45;&gt;Node81 -->
<g id="edge33" class="edge">
<title>Node70&#45;&gt;Node81</title>
<path fill="none" stroke="midnightblue" d="M784.76,-349.99C787.31,-348.49 789.75,-346.83 792,-345 817.02,-324.65 803.12,-302.51 828,-282 832.67,-278.15 838.17,-275.06 843.86,-272.59"/>
<polygon fill="midnightblue" stroke="midnightblue" points="783.11,-346.9 775.73,-354.5 786.24,-353.16 783.11,-346.9"/>
</g>
<!-- Node82 -->
<g id="node35" class="node">
<title>Node82</title>
<g id="a_node35"><a xlink:href="../../d7/de1/classCSteadyStateProblem.html" target="_top" xlink:title=" ">
<polygon fill="white" stroke="black" points="828.5,-215.5 828.5,-234.5 941.5,-234.5 941.5,-215.5 828.5,-215.5"/>
<text text-anchor="middle" x="885" y="-222.5" font-family="FreeSans" font-size="10.00">CSteadyStateProblem</text>
</a>
</g>
</g>
<!-- Node70&#45;&gt;Node82 -->
<g id="edge34" class="edge">
<title>Node70&#45;&gt;Node82</title>
<path fill="none" stroke="midnightblue" d="M786.01,-349.88C788.14,-348.41 790.16,-346.79 792,-345 826.17,-311.78 794.05,-277.44 828,-244 831.95,-240.11 836.73,-237.02 841.8,-234.55"/>
<polygon fill="midnightblue" stroke="midnightblue" points="784.25,-346.86 777.27,-354.83 787.7,-352.95 784.25,-346.86"/>
</g>
<!-- Node83 -->
<g id="node36" class="node">
<title>Node83</title>
<g id="a_node36"><a xlink:href="../../db/daf/classCTSSAProblem.html" target="_top" xlink:title=" ">
<polygon fill="white" stroke="black" points="842,-177.5 842,-196.5 928,-196.5 928,-177.5 842,-177.5"/>
<text text-anchor="middle" x="885" y="-184.5" font-family="FreeSans" font-size="10.00">CTSSAProblem</text>
</a>
</g>
</g>
<!-- Node70&#45;&gt;Node83 -->
<g id="edge35" class="edge">
<title>Node70&#45;&gt;Node83</title>
<path fill="none" stroke="midnightblue" d="M785.98,-350.25C788.15,-348.68 790.17,-346.94 792,-345 835.74,-298.53 784.57,-252.76 828,-206 831.84,-201.86 836.62,-198.63 841.75,-196.09"/>
<polygon fill="midnightblue" stroke="midnightblue" points="783.92,-347.39 777.03,-355.44 787.43,-353.45 783.92,-347.39"/>
</g>
<!-- Node84 -->
<g id="node37" class="node">
<title>Node84</title>
<g id="a_node37"><a xlink:href="../../d9/d61/classCTrajectoryProblem.html" target="_top" xlink:title=" ">
<polygon fill="white" stroke="red" points="834,-139.5 834,-158.5 936,-158.5 936,-139.5 834,-139.5"/>
<text text-anchor="middle" x="885" y="-146.5" font-family="FreeSans" font-size="10.00">CTrajectoryProblem</text>
</a>
</g>
</g>
<!-- Node70&#45;&gt;Node84 -->
<g id="edge36" class="edge">
<title>Node70&#45;&gt;Node84</title>
<path fill="none" stroke="midnightblue" d="M786.11,-350.36C788.24,-348.77 790.23,-346.99 792,-345 845.46,-285.11 774.94,-228.24 828,-168 831.39,-164.15 835.6,-161.08 840.17,-158.63"/>
<polygon fill="midnightblue" stroke="midnightblue" points="784.05,-347.52 777.24,-355.64 787.63,-353.53 784.05,-347.52"/>
</g>
<!-- Node92 -->
<g id="node42" class="node">
<title>Node92</title>
<g id="a_node42"><a xlink:href="../../d6/dad/classCCrossValidationSet.html" target="_top" xlink:title=" ">
<polygon fill="white" stroke="black" points="831.5,-101.5 831.5,-120.5 938.5,-120.5 938.5,-101.5 831.5,-101.5"/>
<text text-anchor="middle" x="885" y="-108.5" font-family="FreeSans" font-size="10.00">CCrossValidationSet</text>
</a>
</g>
</g>
<!-- Node91&#45;&gt;Node92 -->
<g id="edge41" class="edge">
<title>Node91&#45;&gt;Node92</title>
<path fill="none" stroke="midnightblue" d="M783.6,-186.24C786.55,-184.67 789.38,-182.93 792,-181 814.34,-164.54 805.77,-146.61 828,-130 833.18,-126.13 839.2,-123.01 845.34,-120.51"/>
<polygon fill="midnightblue" stroke="midnightblue" points="782.1,-183.08 774.49,-190.45 785.04,-189.44 782.1,-183.08"/>
</g>
<!-- Node96 -->
<g id="node46" class="node">
<title>Node96</title>
<g id="a_node46"><a xlink:href="../../d7/d2d/classCFitItem.html" target="_top" xlink:title=" ">
<polygon fill="white" stroke="red" points="858,-63.5 858,-82.5 912,-82.5 912,-63.5 858,-63.5"/>
<text text-anchor="middle" x="885" y="-70.5" font-family="FreeSans" font-size="10.00">CFitItem</text>
</a>
</g>
</g>
<!-- Node95&#45;&gt;Node96 -->
<g id="edge45" class="edge">
<title>Node95&#45;&gt;Node96</title>
<path fill="none" stroke="midnightblue" d="M772.4,-82.64C799.31,-80.32 834.38,-77.29 857.96,-75.25"/>
<polygon fill="midnightblue" stroke="midnightblue" points="771.82,-79.18 762.16,-83.52 772.43,-86.15 771.82,-79.18"/>
</g>
<!-- Node99 -->
<g id="node48" class="node">
<title>Node99</title>
<g id="a_node48"><a xlink:href="../../d4/def/classCPlotSpecification.html" target="_top" xlink:title=" ">
<polygon fill="white" stroke="black" points="837,-25.5 837,-44.5 933,-44.5 933,-25.5 837,-25.5"/>
<text text-anchor="middle" x="885" y="-32.5" font-family="FreeSans" font-size="10.00">CPlotSpecification</text>
</a>
</g>
</g>
<!-- Node98&#45;&gt;Node99 -->
<g id="edge47" class="edge">
<title>Node98&#45;&gt;Node99</title>
<path fill="none" stroke="midnightblue" d="M772.62,-44.62C792.22,-42.93 816.1,-40.87 836.72,-39.08"/>
<polygon fill="midnightblue" stroke="midnightblue" points="772.18,-41.15 762.52,-45.49 772.78,-48.12 772.18,-41.15"/>
</g>
</g>
</svg>
