<?xml version="1.0" encoding="UTF-8" standalone="no"?>
<!DOCTYPE svg PUBLIC "-//W3C//DTD SVG 1.1//EN"
 "http://www.w3.org/Graphics/SVG/1.1/DTD/svg11.dtd">
<!-- Generated by graphviz version 2.43.0 (0)
 -->
<!-- Title: CNodeIterator&lt; Node &gt; Pages: 1 -->
<svg width="125pt" height="174pt"
 viewBox="0.00 0.00 125.00 174.00" xmlns="http://www.w3.org/2000/svg" xmlns:xlink="http://www.w3.org/1999/xlink">
<g id="graph0" class="graph" transform="scale(1 1) rotate(0) translate(4 170)">
<title>CNodeIterator&lt; Node &gt;</title>
<polygon fill="white" stroke="transparent" points="-4,4 -4,-170 121,-170 121,4 -4,4"/>
<!-- Node1 -->
<g id="node1" class="node">
<title>Node1</title>
<g id="a_node1"><a xlink:title=" ">
<polygon fill="#bfbfbf" stroke="black" points="0,-0.5 0,-19.5 117,-19.5 117,-0.5 0,-0.5"/>
<text text-anchor="middle" x="58.5" y="-7.5" font-family="FreeSans" font-size="10.00">CNodeIterator&lt; Node &gt;</text>
</a>
</g>
</g>
<!-- Node2 -->
<g id="node2" class="node">
<title>Node2</title>
<g id="a_node2"><a xlink:href="../../de/d8c/classCNodeContextIterator.html" target="_top" xlink:title=" ">
<polygon fill="white" stroke="black" points="3.5,-57.5 3.5,-87.5 113.5,-87.5 113.5,-57.5 3.5,-57.5"/>
<text text-anchor="start" x="11.5" y="-75.5" font-family="FreeSans" font-size="10.00">CNodeContextIterator</text>
<text text-anchor="middle" x="58.5" y="-64.5" font-family="FreeSans" font-size="10.00">&lt; Node, int &gt;</text>
</a>
</g>
</g>
<!-- Node2&#45;&gt;Node1 -->
<g id="edge1" class="edge">
<title>Node2&#45;&gt;Node1</title>
<path fill="none" stroke="midnightblue" d="M58.5,-47.35C58.5,-37.51 58.5,-26.78 58.5,-19.54"/>
<polygon fill="midnightblue" stroke="midnightblue" points="55,-47.47 58.5,-57.47 62,-47.47 55,-47.47"/>
</g>
<!-- Node3 -->
<g id="node3" class="node">
<title>Node3</title>
<g id="a_node3"><a xlink:href="../../de/d8c/classCNodeContextIterator.html" target="_top" xlink:title=" ">
<polygon fill="white" stroke="black" points="3.5,-135.5 3.5,-165.5 113.5,-165.5 113.5,-135.5 3.5,-135.5"/>
<text text-anchor="start" x="11.5" y="-153.5" font-family="FreeSans" font-size="10.00">CNodeContextIterator</text>
<text text-anchor="middle" x="58.5" y="-142.5" font-family="FreeSans" font-size="10.00">&lt; Node, Context &gt;</text>
</a>
</g>
</g>
<!-- Node3&#45;&gt;Node2 -->
<g id="edge2" class="edge">
<title>Node3&#45;&gt;Node2</title>
<path fill="none" stroke="orange" stroke-dasharray="5,2" d="M58.5,-125.09C58.5,-112.76 58.5,-98.22 58.5,-87.73"/>
<polygon fill="orange" stroke="orange" points="55,-125.2 58.5,-135.2 62,-125.21 55,-125.2"/>
<text text-anchor="middle" x="87.5" y="-109" font-family="FreeSans" font-size="10.00"> &lt; Node, int &gt;</text>
</g>
</g>
</svg>
