<?xml version="1.0" encoding="UTF-8" standalone="no"?>
<!DOCTYPE svg PUBLIC "-//W3C//DTD SVG 1.1//EN"
 "http://www.w3.org/Graphics/SVG/1.1/DTD/svg11.dtd">
<!-- Generated by graphviz version 2.43.0 (0)
 -->
<!-- Title: CKinFunction Pages: 1 -->
<svg width="245pt" height="308pt"
 viewBox="0.00 0.00 245.00 308.00" xmlns="http://www.w3.org/2000/svg" xmlns:xlink="http://www.w3.org/1999/xlink">
<g id="graph0" class="graph" transform="scale(1 1) rotate(0) translate(4 304)">
<title>CKinFunction</title>
<polygon fill="white" stroke="transparent" points="-4,4 -4,-304 241,-304 241,4 -4,4"/>
<!-- Node1 -->
<g id="node1" class="node">
<title>Node1</title>
<g id="a_node1"><a xlink:title=" ">
<polygon fill="#bfbfbf" stroke="black" points="115.5,-0.5 115.5,-19.5 190.5,-19.5 190.5,-0.5 115.5,-0.5"/>
<text text-anchor="middle" x="153" y="-7.5" font-family="FreeSans" font-size="10.00">CKinFunction</text>
</a>
</g>
</g>
<!-- Node2 -->
<g id="node2" class="node">
<title>Node2</title>
<g id="a_node2"><a xlink:href="../../d9/d86/classCFunction.html" target="_top" xlink:title="The class for handling a chemical kinetic function.">
<polygon fill="white" stroke="black" points="122.5,-56.5 122.5,-75.5 183.5,-75.5 183.5,-56.5 122.5,-56.5"/>
<text text-anchor="middle" x="153" y="-63.5" font-family="FreeSans" font-size="10.00">CFunction</text>
</a>
</g>
</g>
<!-- Node2&#45;&gt;Node1 -->
<g id="edge1" class="edge">
<title>Node2&#45;&gt;Node1</title>
<path fill="none" stroke="midnightblue" d="M153,-45.8C153,-36.91 153,-26.78 153,-19.75"/>
<polygon fill="midnightblue" stroke="midnightblue" points="149.5,-46.08 153,-56.08 156.5,-46.08 149.5,-46.08"/>
</g>
<!-- Node3 -->
<g id="node3" class="node">
<title>Node3</title>
<g id="a_node3"><a xlink:href="../../d1/d50/classCEvaluationTree.html" target="_top" xlink:title=" ">
<polygon fill="white" stroke="black" points="61,-112.5 61,-131.5 149,-131.5 149,-112.5 61,-112.5"/>
<text text-anchor="middle" x="105" y="-119.5" font-family="FreeSans" font-size="10.00">CEvaluationTree</text>
</a>
</g>
</g>
<!-- Node3&#45;&gt;Node2 -->
<g id="edge2" class="edge">
<title>Node3&#45;&gt;Node2</title>
<path fill="none" stroke="midnightblue" d="M119.73,-104.43C128.14,-94.97 138.35,-83.48 145.22,-75.75"/>
<polygon fill="midnightblue" stroke="midnightblue" points="116.95,-102.28 112.93,-112.08 122.19,-106.93 116.95,-102.28"/>
</g>
<!-- Node4 -->
<g id="node4" class="node">
<title>Node4</title>
<g id="a_node4"><a xlink:href="../../d3/db9/classCDataContainer.html" target="_top" xlink:title=" ">
<polygon fill="white" stroke="black" points="62.5,-168.5 62.5,-187.5 147.5,-187.5 147.5,-168.5 62.5,-168.5"/>
<text text-anchor="middle" x="105" y="-175.5" font-family="FreeSans" font-size="10.00">CDataContainer</text>
</a>
</g>
</g>
<!-- Node4&#45;&gt;Node3 -->
<g id="edge3" class="edge">
<title>Node4&#45;&gt;Node3</title>
<path fill="none" stroke="midnightblue" d="M105,-157.8C105,-148.91 105,-138.78 105,-131.75"/>
<polygon fill="midnightblue" stroke="midnightblue" points="101.5,-158.08 105,-168.08 108.5,-158.08 101.5,-158.08"/>
</g>
<!-- Node5 -->
<g id="node5" class="node">
<title>Node5</title>
<g id="a_node5"><a xlink:href="../../d1/d6b/classCDataObject.html" target="_top" xlink:title=" ">
<polygon fill="white" stroke="black" points="69,-224.5 69,-243.5 141,-243.5 141,-224.5 69,-224.5"/>
<text text-anchor="middle" x="105" y="-231.5" font-family="FreeSans" font-size="10.00">CDataObject</text>
</a>
</g>
</g>
<!-- Node5&#45;&gt;Node4 -->
<g id="edge4" class="edge">
<title>Node5&#45;&gt;Node4</title>
<path fill="none" stroke="midnightblue" d="M105,-213.8C105,-204.91 105,-194.78 105,-187.75"/>
<polygon fill="midnightblue" stroke="midnightblue" points="101.5,-214.08 105,-224.08 108.5,-214.08 101.5,-214.08"/>
</g>
<!-- Node6 -->
<g id="node6" class="node">
<title>Node6</title>
<g id="a_node6"><a xlink:href="../../df/dfa/classCObjectInterface.html" target="_top" xlink:title=" ">
<polygon fill="white" stroke="black" points="0,-280.5 0,-299.5 90,-299.5 90,-280.5 0,-280.5"/>
<text text-anchor="middle" x="45" y="-287.5" font-family="FreeSans" font-size="10.00">CObjectInterface</text>
</a>
</g>
</g>
<!-- Node6&#45;&gt;Node5 -->
<g id="edge5" class="edge">
<title>Node6&#45;&gt;Node5</title>
<path fill="none" stroke="midnightblue" d="M62.18,-273.54C72.88,-263.91 86.26,-251.87 95.18,-243.83"/>
<polygon fill="midnightblue" stroke="midnightblue" points="59.73,-271.03 54.64,-280.32 64.41,-276.24 59.73,-271.03"/>
</g>
<!-- Node7 -->
<g id="node7" class="node">
<title>Node7</title>
<g id="a_node7"><a xlink:href="../../d8/d53/classCUndoObjectInterface.html" target="_top" xlink:title=" ">
<polygon fill="white" stroke="black" points="108.5,-280.5 108.5,-299.5 221.5,-299.5 221.5,-280.5 108.5,-280.5"/>
<text text-anchor="middle" x="165" y="-287.5" font-family="FreeSans" font-size="10.00">CUndoObjectInterface</text>
</a>
</g>
</g>
<!-- Node7&#45;&gt;Node5 -->
<g id="edge6" class="edge">
<title>Node7&#45;&gt;Node5</title>
<path fill="none" stroke="midnightblue" d="M147.82,-273.54C137.12,-263.91 123.74,-251.87 114.82,-243.83"/>
<polygon fill="midnightblue" stroke="midnightblue" points="145.59,-276.24 155.36,-280.32 150.27,-271.03 145.59,-276.24"/>
</g>
<!-- Node8 -->
<g id="node8" class="node">
<title>Node8</title>
<g id="a_node8"><a xlink:href="../../d8/dfc/classCAnnotation.html" target="_top" xlink:title=" ">
<polygon fill="white" stroke="black" points="167,-112.5 167,-131.5 237,-131.5 237,-112.5 167,-112.5"/>
<text text-anchor="middle" x="202" y="-119.5" font-family="FreeSans" font-size="10.00">CAnnotation</text>
</a>
</g>
</g>
<!-- Node8&#45;&gt;Node2 -->
<g id="edge7" class="edge">
<title>Node8&#45;&gt;Node2</title>
<path fill="none" stroke="midnightblue" d="M186.97,-104.43C178.38,-94.97 167.96,-83.48 160.94,-75.75"/>
<polygon fill="midnightblue" stroke="midnightblue" points="184.6,-107.03 193.91,-112.08 189.78,-102.33 184.6,-107.03"/>
</g>
</g>
</svg>
