<?xml version="1.0" encoding="UTF-8" standalone="no"?>
<!DOCTYPE svg PUBLIC "-//W3C//DTD SVG 1.1//EN"
 "http://www.w3.org/Graphics/SVG/1.1/DTD/svg11.dtd">
<!-- Generated by graphviz version 2.43.0 (0)
 -->
<!-- Title: CDataVectorNS&lt; CType &gt; Pages: 1 -->
<svg width="1147pt" height="154pt"
 viewBox="0.00 0.00 1147.00 154.00" xmlns="http://www.w3.org/2000/svg" xmlns:xlink="http://www.w3.org/1999/xlink">
<g id="graph0" class="graph" transform="scale(1 1) rotate(0) translate(4 150)">
<title>CDataVectorNS&lt; CType &gt;</title>
<polygon fill="white" stroke="transparent" points="-4,4 -4,-150 1143,-150 1143,4 -4,4"/>
<!-- Node1 -->
<g id="node1" class="node">
<title>Node1</title>
<g id="a_node1"><a xlink:title=" ">
<polygon fill="#bfbfbf" stroke="black" points="695,-60.5 695,-79.5 826,-79.5 826,-60.5 695,-60.5"/>
<text text-anchor="middle" x="760.5" y="-67.5" font-family="FreeSans" font-size="10.00">CDataVectorNS&lt; CType &gt;</text>
</a>
</g>
</g>
<!-- Node9 -->
<g id="node9" class="node">
<title>Node9</title>
<g id="a_node9"><a xlink:href="../../d7/d34/classCDataVectorNS.html" target="_top" xlink:title=" ">
<polygon fill="white" stroke="black" points="981,-126.5 981,-145.5 1129,-145.5 1129,-126.5 981,-126.5"/>
<text text-anchor="middle" x="1055" y="-133.5" font-family="FreeSans" font-size="10.00">CDataVectorNS&lt; CReaction &gt;</text>
</a>
</g>
</g>
<!-- Node1&#45;&gt;Node9 -->
<g id="edge8" class="edge">
<title>Node1&#45;&gt;Node9</title>
<path fill="none" stroke="orange" stroke-dasharray="5,2" d="M795.1,-83.22C809.92,-88.68 827.65,-94.72 844,-99 889.66,-110.96 941.93,-120.19 982.9,-126.43"/>
<polygon fill="orange" stroke="orange" points="795.96,-79.8 785.36,-79.56 793.49,-86.35 795.96,-79.8"/>
<text text-anchor="middle" x="898.5" y="-124" font-family="FreeSans" font-size="10.00"> &lt; CReaction &gt;</text>
</g>
<!-- Node10 -->
<g id="node10" class="node">
<title>Node10</title>
<g id="a_node10"><a xlink:href="../../d7/d34/classCDataVectorNS.html" target="_top" xlink:title=" ">
<polygon fill="white" stroke="black" points="985.5,-77 985.5,-107 1124.5,-107 1124.5,-77 985.5,-77"/>
<text text-anchor="start" x="993.5" y="-95" font-family="FreeSans" font-size="10.00">CDataVectorNS&lt; CFunction</text>
<text text-anchor="middle" x="1055" y="-84" font-family="FreeSans" font-size="10.00">Parameter &gt;</text>
</a>
</g>
</g>
<!-- Node1&#45;&gt;Node10 -->
<g id="edge9" class="edge">
<title>Node1&#45;&gt;Node10</title>
<path fill="none" stroke="orange" stroke-dasharray="5,2" d="M836.24,-75.62C882.15,-79.07 940.53,-83.47 985.28,-86.83"/>
<polygon fill="orange" stroke="orange" points="836.29,-72.12 826.05,-74.86 835.76,-79.1 836.29,-72.12"/>
<text text-anchor="middle" x="898.5" y="-87" font-family="FreeSans" font-size="10.00"> &lt; CFunctionParameter &gt;</text>
</g>
<!-- Node11 -->
<g id="node11" class="node">
<title>Node11</title>
<g id="a_node11"><a xlink:href="../../d7/d34/classCDataVectorNS.html" target="_top" xlink:title=" ">
<polygon fill="white" stroke="black" points="971,-38.5 971,-57.5 1139,-57.5 1139,-38.5 971,-38.5"/>
<text text-anchor="middle" x="1055" y="-45.5" font-family="FreeSans" font-size="10.00">CDataVectorNS&lt; CCompartment &gt;</text>
</a>
</g>
</g>
<!-- Node1&#45;&gt;Node11 -->
<g id="edge10" class="edge">
<title>Node1&#45;&gt;Node11</title>
<path fill="none" stroke="orange" stroke-dasharray="5,2" d="M836.35,-61.68C838.93,-61.44 841.49,-61.21 844,-61 885.76,-57.43 932.28,-54.45 970.9,-52.25"/>
<polygon fill="orange" stroke="orange" points="835.94,-58.2 826.32,-62.64 836.61,-65.17 835.94,-58.2"/>
<text text-anchor="middle" x="898.5" y="-64" font-family="FreeSans" font-size="10.00"> &lt; CCompartment &gt;</text>
</g>
<!-- Node12 -->
<g id="node12" class="node">
<title>Node12</title>
<g id="a_node12"><a xlink:href="../../d7/d34/classCDataVectorNS.html" target="_top" xlink:title=" ">
<polygon fill="white" stroke="black" points="986.5,-0.5 986.5,-19.5 1123.5,-19.5 1123.5,-0.5 986.5,-0.5"/>
<text text-anchor="middle" x="1055" y="-7.5" font-family="FreeSans" font-size="10.00">CDataVectorNS&lt; CMetab &gt;</text>
</a>
</g>
</g>
<!-- Node1&#45;&gt;Node12 -->
<g id="edge11" class="edge">
<title>Node1&#45;&gt;Node12</title>
<path fill="none" stroke="orange" stroke-dasharray="5,2" d="M792.59,-56.45C807.83,-50.29 826.6,-43.41 844,-39 890.73,-27.15 944.63,-19.83 986.12,-15.51"/>
<polygon fill="orange" stroke="orange" points="791.04,-53.3 783.14,-60.36 793.71,-59.77 791.04,-53.3"/>
<text text-anchor="middle" x="898.5" y="-42" font-family="FreeSans" font-size="10.00"> &lt; CMetab &gt;</text>
</g>
<!-- Node2 -->
<g id="node2" class="node">
<title>Node2</title>
<g id="a_node2"><a xlink:href="../../dd/d24/classCDataVectorN.html" target="_top" xlink:title=" ">
<polygon fill="white" stroke="black" points="534,-60.5 534,-79.5 658,-79.5 658,-60.5 534,-60.5"/>
<text text-anchor="middle" x="596" y="-67.5" font-family="FreeSans" font-size="10.00">CDataVectorN&lt; CType &gt;</text>
</a>
</g>
</g>
<!-- Node2&#45;&gt;Node1 -->
<g id="edge1" class="edge">
<title>Node2&#45;&gt;Node1</title>
<path fill="none" stroke="midnightblue" d="M668.56,-70C677.27,-70 686.13,-70 694.73,-70"/>
<polygon fill="midnightblue" stroke="midnightblue" points="668.43,-66.5 658.43,-70 668.43,-73.5 668.43,-66.5"/>
</g>
<!-- Node3 -->
<g id="node3" class="node">
<title>Node3</title>
<g id="a_node3"><a xlink:href="../../db/d30/classCDataVector.html" target="_top" xlink:title=" ">
<polygon fill="white" stroke="black" points="381,-60.5 381,-79.5 497,-79.5 497,-60.5 381,-60.5"/>
<text text-anchor="middle" x="439" y="-67.5" font-family="FreeSans" font-size="10.00">CDataVector&lt; CType &gt;</text>
</a>
</g>
</g>
<!-- Node3&#45;&gt;Node2 -->
<g id="edge2" class="edge">
<title>Node3&#45;&gt;Node2</title>
<path fill="none" stroke="midnightblue" d="M507.45,-70C516.21,-70 525.15,-70 533.8,-70"/>
<polygon fill="midnightblue" stroke="midnightblue" points="507.28,-66.5 497.28,-70 507.28,-73.5 507.28,-66.5"/>
</g>
<!-- Node4 -->
<g id="node4" class="node">
<title>Node4</title>
<g id="a_node4"><a xlink:title=" ">
<polygon fill="white" stroke="#bfbfbf" points="259.5,-79.5 259.5,-98.5 343.5,-98.5 343.5,-79.5 259.5,-79.5"/>
<text text-anchor="middle" x="301.5" y="-86.5" font-family="FreeSans" font-size="10.00">std::vector&lt; T &gt;</text>
</a>
</g>
</g>
<!-- Node4&#45;&gt;Node3 -->
<g id="edge3" class="edge">
<title>Node4&#45;&gt;Node3</title>
<path fill="none" stroke="darkgreen" d="M353.64,-81.83C362.45,-80.59 371.66,-79.3 380.62,-78.05"/>
<polygon fill="darkgreen" stroke="darkgreen" points="352.94,-78.39 343.52,-83.25 353.91,-85.33 352.94,-78.39"/>
</g>
<!-- Node5 -->
<g id="node5" class="node">
<title>Node5</title>
<g id="a_node5"><a xlink:href="../../d3/db9/classCDataContainer.html" target="_top" xlink:title=" ">
<polygon fill="white" stroke="black" points="259,-41.5 259,-60.5 344,-60.5 344,-41.5 259,-41.5"/>
<text text-anchor="middle" x="301.5" y="-48.5" font-family="FreeSans" font-size="10.00">CDataContainer</text>
</a>
</g>
</g>
<!-- Node5&#45;&gt;Node3 -->
<g id="edge4" class="edge">
<title>Node5&#45;&gt;Node3</title>
<path fill="none" stroke="midnightblue" d="M354.21,-58.25C362.87,-59.46 371.89,-60.73 380.68,-61.96"/>
<polygon fill="midnightblue" stroke="midnightblue" points="354.65,-54.78 344.26,-56.86 353.68,-61.71 354.65,-54.78"/>
</g>
<!-- Node6 -->
<g id="node6" class="node">
<title>Node6</title>
<g id="a_node6"><a xlink:href="../../d1/d6b/classCDataObject.html" target="_top" xlink:title=" ">
<polygon fill="white" stroke="black" points="150,-41.5 150,-60.5 222,-60.5 222,-41.5 150,-41.5"/>
<text text-anchor="middle" x="186" y="-48.5" font-family="FreeSans" font-size="10.00">CDataObject</text>
</a>
</g>
</g>
<!-- Node6&#45;&gt;Node5 -->
<g id="edge5" class="edge">
<title>Node6&#45;&gt;Node5</title>
<path fill="none" stroke="midnightblue" d="M232.34,-51C241.1,-51 250.23,-51 258.86,-51"/>
<polygon fill="midnightblue" stroke="midnightblue" points="232.29,-47.5 222.29,-51 232.29,-54.5 232.29,-47.5"/>
</g>
<!-- Node7 -->
<g id="node7" class="node">
<title>Node7</title>
<g id="a_node7"><a xlink:href="../../df/dfa/classCObjectInterface.html" target="_top" xlink:title=" ">
<polygon fill="white" stroke="black" points="11.5,-60.5 11.5,-79.5 101.5,-79.5 101.5,-60.5 11.5,-60.5"/>
<text text-anchor="middle" x="56.5" y="-67.5" font-family="FreeSans" font-size="10.00">CObjectInterface</text>
</a>
</g>
</g>
<!-- Node7&#45;&gt;Node6 -->
<g id="edge6" class="edge">
<title>Node7&#45;&gt;Node6</title>
<path fill="none" stroke="midnightblue" d="M111.85,-61.9C124.65,-59.99 137.97,-58.01 149.68,-56.26"/>
<polygon fill="midnightblue" stroke="midnightblue" points="111.11,-58.47 101.74,-63.41 112.14,-65.4 111.11,-58.47"/>
</g>
<!-- Node8 -->
<g id="node8" class="node">
<title>Node8</title>
<g id="a_node8"><a xlink:href="../../d8/d53/classCUndoObjectInterface.html" target="_top" xlink:title=" ">
<polygon fill="white" stroke="black" points="0,-22.5 0,-41.5 113,-41.5 113,-22.5 0,-22.5"/>
<text text-anchor="middle" x="56.5" y="-29.5" font-family="FreeSans" font-size="10.00">CUndoObjectInterface</text>
</a>
</g>
</g>
<!-- Node8&#45;&gt;Node6 -->
<g id="edge7" class="edge">
<title>Node8&#45;&gt;Node6</title>
<path fill="none" stroke="midnightblue" d="M123.05,-41.77C132.28,-43.14 141.46,-44.51 149.82,-45.76"/>
<polygon fill="midnightblue" stroke="midnightblue" points="123.46,-38.29 113.05,-40.28 122.43,-45.21 123.46,-38.29"/>
</g>
</g>
</svg>
