<?xml version="1.0" encoding="UTF-8" standalone="no"?>
<!-- Created with Inkscape (http://www.inkscape.org/) -->

<svg
   version="1.1"
   id="svg1"
   width="853.33331"
   height="564"
   viewBox="0 0 853.33331 564"
   sodipodi:docname="BandedGraph.svg"
   inkscape:version="1.4.3 (0d15f75, 2025-12-25)"
   xmlns:inkscape="http://www.inkscape.org/namespaces/inkscape"
   xmlns:sodipodi="http://sodipodi.sourceforge.net/DTD/sodipodi-0.dtd"
   xmlns="http://www.w3.org/2000/svg"
   xmlns:svg="http://www.w3.org/2000/svg">
  <defs
     id="defs1">
    <clipPath
       clipPathUnits="userSpaceOnUse"
       id="clipPath68">
      <path
         d="m 12,396.00001 h 32.000001 v 18 H 12 Z"
         clip-rule="evenodd"
         id="path68" />
    </clipPath>
    <clipPath
       clipPathUnits="userSpaceOnUse"
       id="clipPath70">
      <path
         d="m 16,526.66667 h 409.33333 v 24 H 16 Z"
         clip-rule="evenodd"
         id="path70" />
    </clipPath>
    <clipPath
       clipPathUnits="userSpaceOnUse"
       id="clipPath72">
      <path
         d="m 429.33333,526.66667 h 409.33334 v 24 H 429.33333 Z"
         clip-rule="evenodd"
         id="path72" />
    </clipPath>
    <clipPath
       clipPathUnits="userSpaceOnUse"
       id="clipPath74">
      <path
         d="m 322.00001,395.00001 h 307.00001 v 18 H 322.00001 Z"
         clip-rule="evenodd"
         id="path74" />
    </clipPath>
  </defs>
  <sodipodi:namedview
     id="namedview1"
     pagecolor="#ffffff"
     bordercolor="#000000"
     borderopacity="0.25"
     inkscape:showpageshadow="2"
     inkscape:pageopacity="0.0"
     inkscape:pagecheckerboard="0"
     inkscape:deskcolor="#d1d1d1"
     inkscape:zoom="2.0691489"
     inkscape:cx="426.50386"
     inkscape:cy="282"
     inkscape:window-width="2560"
     inkscape:window-height="1369"
     inkscape:window-x="-8"
     inkscape:window-y="-8"
     inkscape:window-maximized="1"
     inkscape:current-layer="g1">
    <inkscape:page
       x="0"
       y="0"
       inkscape:label="1"
       id="page1"
       width="853.33331"
       height="564"
       margin="0"
       bleed="0" />
  </sodipodi:namedview>
  <g
     id="g1"
     inkscape:groupmode="layer"
     inkscape:label="1">
    <path
       id="path1"
       d="M 35.833333,338 V 42"
       style="fill:none;stroke:#c8c8c8;stroke-width:1;stroke-linecap:square;stroke-linejoin:bevel;stroke-miterlimit:10;stroke-dasharray:none;stroke-opacity:1"
       transform="scale(1.3333333)" />
    <path
       id="path2"
       d="M 152.5,338 V 42"
       style="fill:none;stroke:#c8c8c8;stroke-width:1;stroke-linecap:square;stroke-linejoin:bevel;stroke-miterlimit:10;stroke-dasharray:1, 2;stroke-dashoffset:0;stroke-opacity:1"
       transform="scale(1.3333333)" />
    <path
       id="path3"
       d="M 269.16667,338 V 42"
       style="fill:none;stroke:#c8c8c8;stroke-width:1;stroke-linecap:square;stroke-linejoin:bevel;stroke-miterlimit:10;stroke-dasharray:1, 2;stroke-dashoffset:0;stroke-opacity:1"
       transform="scale(1.3333333)" />
    <path
       id="path4"
       d="M 385.83333,338 V 42"
       style="fill:none;stroke:#c8c8c8;stroke-width:1;stroke-linecap:square;stroke-linejoin:bevel;stroke-miterlimit:10;stroke-dasharray:1, 2;stroke-dashoffset:0;stroke-opacity:1"
       transform="scale(1.3333333)" />
    <path
       id="path5"
       d="M 502.5,338 V 42"
       style="fill:none;stroke:#c8c8c8;stroke-width:1;stroke-linecap:square;stroke-linejoin:bevel;stroke-miterlimit:10;stroke-dasharray:1, 2;stroke-dashoffset:0;stroke-opacity:1"
       transform="scale(1.3333333)" />
    <path
       id="path6"
       d="M 619.16667,338 V 42"
       style="fill:none;stroke:#c8c8c8;stroke-width:1;stroke-linecap:square;stroke-linejoin:bevel;stroke-miterlimit:10;stroke-dasharray:1, 2;stroke-dashoffset:0;stroke-opacity:1"
       transform="scale(1.3333333)" />
    <path
       id="path7"
       d="M 30,308.9934 H 624"
       style="fill:none;stroke:#c8c8c8;stroke-width:1;stroke-linecap:square;stroke-linejoin:bevel;stroke-miterlimit:10;stroke-dasharray:1, 2;stroke-dashoffset:0;stroke-opacity:1"
       transform="scale(1.3333333)" />
    <path
       id="path8"
       d="M 30,233.25579 H 624"
       style="fill:none;stroke:#c8c8c8;stroke-width:1;stroke-linecap:square;stroke-linejoin:bevel;stroke-miterlimit:10;stroke-dasharray:1, 2;stroke-dashoffset:0;stroke-opacity:1"
       transform="scale(1.3333333)" />
    <path
       id="path9"
       d="M 30,157.51818 H 624"
       style="fill:none;stroke:#c8c8c8;stroke-width:1;stroke-linecap:square;stroke-linejoin:bevel;stroke-miterlimit:10;stroke-dasharray:1, 2;stroke-dashoffset:0;stroke-opacity:1"
       transform="scale(1.3333333)" />
    <path
       id="path10"
       d="M 30,81.78057 H 624"
       style="fill:none;stroke:#c8c8c8;stroke-width:1;stroke-linecap:square;stroke-linejoin:bevel;stroke-miterlimit:10;stroke-dasharray:1, 2;stroke-dashoffset:0;stroke-opacity:1"
       transform="scale(1.3333333)" />
    <path
       id="path11"
       d="M 7.640625,-8.2041016 H 4.5585937 V -9.765625e-4 H 3.328125 V -8.2041016 H 0.26953125 V -9.3056641 H 7.640625 Z M 9.9404297,-9.765625e-4 H 8.7919922 V -6.7392578 h 1.1484375 z m 0,-8.0039062375 H 8.7919922 V -9.3056641 H 9.9404297 Z M 20.80957,-9.765625e-4 H 19.661133 V -4.2548828 c 0,-0.3046875 -0.02051,-0.5742188 -0.05859,-0.8085938 -0.04687,-0.2167968 -0.158203,-0.4130859 -0.328125,-0.5859375 -0.172852,-0.1699218 -0.445312,-0.2578125 -0.820312,-0.2578125 -0.454102,0.00879 -0.840821,0.1640625 -1.160157,0.46875 -0.328125,0.3222657 -0.492187,0.8291016 -0.492187,1.5234375 V -9.765625e-4 H 15.665039 V -4.3837891 c 0,-0.5771484 -0.102539,-0.9755859 -0.304687,-1.1953125 -0.210938,-0.2167968 -0.503907,-0.328125 -0.878907,-0.328125 -0.492187,0.00879 -0.896484,0.1816407 -1.207031,0.515625 -0.322266,0.3369141 -0.480469,0.9697266 -0.480469,1.8984375 V -9.765625e-4 H 11.657227 V -6.7392578 h 1.03125 v 0.9492187 h 0.02344 c 0.451172,-0.7324218 1.125,-1.1015625 2.015625,-1.1015625 0.483399,0 0.890625,0.099609 1.21875,0.2929688 0.310547,0.2050781 0.541992,0.5009766 0.691406,0.890625 0.498047,-0.7880859 1.189453,-1.1835938 2.074219,-1.1835938 0.703125,0.00879 1.224609,0.1992188 1.570313,0.5742188 0.351562,0.375 0.527343,0.9375 0.527343,1.6875 z M 28.344727,-3.0830078 h -5.039063 c 0.03809,0.75 0.251953,1.3212891 0.644531,1.7109375 0.366211,0.39257811 0.834961,0.58593749 1.40625,0.58593749 0.436524,0.008789 0.802735,-0.10546875 1.101563,-0.33984379 0.287109,-0.234375 0.515625,-0.5800781 0.679687,-1.0429687 l 1.171875,0.140625 c -0.1875,0.7119141 -0.536133,1.25097655 -1.042968,1.61718749 -0.509766,0.38378906 -1.145508,0.57421875 -1.910157,0.57421875 -1.016601,0 -1.804687,-0.31054688 -2.367187,-0.9375 -0.571289,-0.61523434 -0.855469,-1.46484374 -0.855469,-2.54296874 0,-1.0546875 0.275391,-1.9130859 0.832031,-2.578125 0.553711,-0.6621094 1.330078,-0.9960938 2.332032,-0.9960938 0.483398,0 0.955078,0.1113282 1.417968,0.328125 0.451172,0.2197266 0.837891,0.5859375 1.160157,1.1015625 0.310546,0.515625 0.46875,1.3095704 0.46875,2.3789063 z m -1.171875,-0.9375 c -0.04687,-0.6796875 -0.257813,-1.171875 -0.632813,-1.4765625 -0.383789,-0.2958984 -0.796875,-0.4482422 -1.242187,-0.4570313 -0.539063,0 -0.981446,0.1816407 -1.324219,0.5390625 -0.351563,0.3691407 -0.556641,0.8320313 -0.609375,1.3945313 z m 14.167968,1.0664062 c -0.28125,1.0488282 -0.755859,1.8251954 -1.417968,2.33203129 -0.679688,0.52441406 -1.494141,0.78515625 -2.4375,0.78515625 -1.523438,0 -2.63086,-0.48046875 -3.316407,-1.44140624 -0.703125,-0.9521485 -1.054687,-2.0976563 -1.054687,-3.4335938 0,-1.4824218 0.410156,-2.6484375 1.230469,-3.4921875 0.811523,-0.8349609 1.863281,-1.2539062 3.152343,-1.2539062 0.905274,0 1.681641,0.2314453 2.332032,0.6914062 0.632812,0.4628907 1.081054,1.1337891 1.347656,2.015625 l -1.207031,0.2929688 c -0.205079,-0.6474609 -0.512696,-1.1367188 -0.925782,-1.4648438 -0.416015,-0.3193359 -0.93457,-0.4804687 -1.558593,-0.4804687 -1.016602,0 -1.78711,0.3339844 -2.308594,0.9960937 -0.524414,0.6650391 -0.785156,1.5585938 -0.785156,2.6835938 0,1.2978515 0.27539,2.258789 0.832031,2.8828125 0.544922,0.6328125 1.265625,0.94921874 2.15625,0.94921874 0.726562,0 1.318359,-0.19921874 1.78125,-0.59765624 0.445312,-0.3896484 0.761719,-0.9785156 0.949219,-1.7695313 z m 4.113282,-3.9375 c 0.905273,0.00879 1.658203,0.3046875 2.261718,0.890625 0.600586,0.5947266 0.902344,1.4384766 0.902344,2.53125 0,1.3300782 -0.325195,2.2617188 -0.972656,2.80078129 -0.650391,0.55664062 -1.379883,0.83203125 -2.191406,0.83203125 -0.85254,0 -1.590821,-0.28125 -2.214844,-0.84375 -0.632813,-0.56250004 -0.946289,-1.45605474 -0.9375,-2.68359374 0,-1.1865234 0.298828,-2.0683594 0.902344,-2.6484375 0.600585,-0.5771484 1.350585,-0.8701172 2.25,-0.8789063 z m 0,6.10546879 c 0.65625,0 1.151367,-0.23730469 1.488281,-0.71484379 0.333984,-0.4833984 0.503906,-1.1191406 0.503906,-1.9101562 0,-0.84375 -0.193359,-1.4765625 -0.574219,-1.8984375 -0.383789,-0.421875 -0.855468,-0.6357422 -1.417968,-0.6445313 -0.580079,0 -1.054688,0.2167969 -1.429688,0.6445313 -0.375,0.4453125 -0.55957,1.0957031 -0.550781,1.9453125 0,0.8613281 0.1875,1.5058594 0.5625,1.9335937 0.375,0.43945316 0.846679,0.65332035 1.417969,0.64453129 z m 9.925781,0.7851562475 H 54.360352 V -0.98535156 h -0.03516 c -0.515625,0.76757812 -1.21875,1.1484375 -2.109375,1.1484375 -0.46875,0 -0.902343,-0.11425782 -1.300781,-0.33984375 -0.407227,-0.2109375 -0.676758,-0.50976563 -0.808594,-0.90234379 -0.134765,-0.375 -0.199218,-0.8671875 -0.199218,-1.4765625 v -4.1835937 h 1.148437 v 3.7382812 c 0,0.5947266 0.02637,1.0195313 0.08203,1.2773438 0.05273,0.2666016 0.202149,0.4775391 0.445313,0.6328125 0.234375,0.18164061 0.521484,0.26660155 0.867187,0.25781249 0.427735,0 0.834961,-0.14648438 1.21875,-0.44531249 0.375,-0.2958984 0.5625,-0.9169922 0.5625,-1.8632813 v -3.5976562 h 1.148438 z M 60.770508,-6.5283203 60.37207,-5.4736328 c -0.28125,-0.1640625 -0.597656,-0.2460938 -0.949218,-0.2460938 -0.345704,0 -0.626954,0.1933594 -0.84375,0.5742188 -0.228516,0.3925781 -0.339844,0.9257812 -0.339844,1.6054687 V -9.765625e-4 H 57.102539 V -6.7392578 h 1.042969 v 1.0195312 h 0.02344 c 0.357422,-0.7792968 0.834961,-1.171875 1.429688,-1.171875 0.380859,0 0.773437,0.1230469 1.171875,0.3632813 z m 4.456054,1.6757812 C 65.170898,-5.21875 65.021484,-5.4970703 64.78125,-5.6845703 64.523437,-5.8632812 64.177734,-5.9541016 63.75,-5.9541016 c -0.445313,0.00879 -0.796875,0.082031 -1.054688,0.2226563 -0.28125,0.1494141 -0.418945,0.3632812 -0.410156,0.6445312 0,0.2666016 0.108399,0.4570313 0.328125,0.5742188 0.202149,0.1171875 0.621094,0.2578125 1.253906,0.421875 0.708985,0.1875 1.245118,0.3486328 1.605469,0.4804687 0.342774,0.140625 0.615235,0.3369141 0.820313,0.5859375 0.193359,0.2519532 0.292968,0.6035157 0.292968,1.0546875 0,0.6035157 -0.246093,1.10742191 -0.738281,1.51171879 -0.492187,0.41601562 -1.148437,0.62109375 -1.96875,0.62109375 -0.852539,0 -1.517578,-0.18164063 -1.992187,-0.55078125 -0.486328,-0.35742188 -0.782227,-0.90234379 -0.890625,-1.62890629 l 1.136718,-0.1640625 c 0.05273,0.46875 0.228516,0.8203125 0.527344,1.0546875 0.28125,0.23437504 0.682617,0.34863285 1.207031,0.33984379 0.498047,0 0.881836,-0.10546875 1.148438,-0.31640629 0.272461,-0.2021484 0.410156,-0.4570312 0.410156,-0.7617187 -0.0088,-0.2021485 -0.07031,-0.3632813 -0.1875,-0.4804688 -0.125976,-0.1230468 -0.27832,-0.2167968 -0.457031,-0.28125 -0.196289,-0.052734 -0.691406,-0.1787109 -1.488281,-0.375 -0.796875,-0.1933593 -1.347657,-0.4570312 -1.652344,-0.7851562 -0.313477,-0.3193359 -0.46582,-0.7060547 -0.457031,-1.1601563 -0.0088,-0.5625 0.213867,-1.0253906 0.667968,-1.3945312 0.451172,-0.3574219 1.057618,-0.5419922 1.816407,-0.5507813 0.796875,0.00879 1.420898,0.1699219 1.875,0.4804688 0.445312,0.3134766 0.708984,0.7822266 0.796875,1.40625 z m 8.586915,1.7695313 h -5.039063 c 0.03809,0.75 0.251953,1.3212891 0.644531,1.7109375 0.366211,0.39257811 0.834961,0.58593749 1.40625,0.58593749 0.436524,0.008789 0.802735,-0.10546875 1.101563,-0.33984379 0.287109,-0.234375 0.515625,-0.5800781 0.679687,-1.0429687 l 1.171875,0.140625 c -0.1875,0.7119141 -0.536133,1.25097655 -1.042968,1.61718749 -0.509766,0.38378906 -1.145508,0.57421875 -1.910157,0.57421875 -1.016601,0 -1.804687,-0.31054688 -2.367187,-0.9375 -0.571289,-0.61523434 -0.855469,-1.46484374 -0.855469,-2.54296874 0,-1.0546875 0.275391,-1.9130859 0.832031,-2.578125 0.553711,-0.6621094 1.330078,-0.9960938 2.332032,-0.9960938 0.483398,0 0.955078,0.1113282 1.417968,0.328125 0.451172,0.2197266 0.837891,0.5859375 1.160157,1.1015625 0.310546,0.515625 0.46875,1.3095704 0.46875,2.3789063 z m -1.171875,-0.9375 c -0.04687,-0.6796875 -0.257813,-1.171875 -0.632813,-1.4765625 -0.383789,-0.2958984 -0.796875,-0.4482422 -1.242187,-0.4570313 -0.539063,0 -0.981446,0.1816407 -1.324219,0.5390625 -0.351563,0.3691407 -0.556641,0.8320313 -0.609375,1.3945313 z m 12.152343,-0.035156 H 82.250977 V -1.512695 H 81.18457 V -4.0556638 H 78.641602 V -5.12207 h 2.542968 v -2.5429688 h 1.066407 V -5.12207 h 2.542968 z M 97.092773,-9.765625e-4 H 90.143555 V -9.3056641 h 6.726562 v 1.1015625 h -5.496094 v 2.8476563 h 5.144532 v 1.1015625 h -5.144532 v 3.1523437 h 5.71875 z m 5.176757,-6.5273437375 -0.39844,1.0546875 c -0.28125,-0.1640625 -0.59765,-0.2460938 -0.94921,-0.2460938 -0.34571,0 -0.62696,0.1933594 -0.84375,0.5742188 -0.228521,0.3925781 -0.339849,0.9257812 -0.339849,1.6054687 V -9.765625e-4 H 98.601562 V -6.7392578 h 1.042969 v 1.0195312 h 0.02344 c 0.357419,-0.7792968 0.834959,-1.171875 1.429689,-1.171875 0.38086,0 0.77343,0.1230469 1.17187,0.3632813 z m 4.32715,0 -0.39844,1.0546875 c -0.28125,-0.1640625 -0.59765,-0.2460938 -0.94922,-0.2460938 -0.3457,0 -0.62695,0.1933594 -0.84375,0.5742188 -0.22851,0.3925781 -0.33984,0.9257812 -0.33984,1.6054687 v 3.5390625375 h -1.13672 V -6.7392578 h 1.04297 v 1.0195312 h 0.0234 c 0.35742,-0.7792968 0.83496,-1.171875 1.42968,-1.171875 0.38086,0 0.77344,0.1230469 1.17188,0.3632813 z m 3.45117,-0.3632813 c 0.90528,0.00879 1.6582,0.3046875 2.26172,0.890625 0.60059,0.5947266 0.90234,1.4384766 0.90234,2.53125 0,1.3300782 -0.32519,2.2617188 -0.97265,2.80078129 -0.65039,0.55664062 -1.37988,0.83203125 -2.19141,0.83203125 -0.85254,0 -1.59082,-0.28125 -2.21484,-0.84375 -0.63281,-0.56250004 -0.94629,-1.45605474 -0.9375,-2.68359374 0,-1.1865234 0.29883,-2.0683594 0.90234,-2.6484375 0.60059,-0.5771484 1.35059,-0.8701172 2.25,-0.8789063 z m 0,6.10546879 c 0.65625,0 1.15137,-0.23730469 1.48828,-0.71484379 0.33399,-0.4833984 0.50391,-1.1191406 0.50391,-1.9101562 0,-0.84375 -0.19336,-1.4765625 -0.57422,-1.8984375 -0.38379,-0.421875 -0.85547,-0.6357422 -1.41797,-0.6445313 -0.58008,0 -1.05469,0.2167969 -1.42969,0.6445313 -0.375,0.4453125 -0.55957,1.0957031 -0.55078,1.9453125 0,0.8613281 0.1875,1.5058594 0.5625,1.9335937 0.375,0.43945316 0.84668,0.65332035 1.41797,0.64453129 z m 8.09766,-5.74218749 -0.39844,1.0546875 c -0.28125,-0.1640625 -0.59766,-0.2460938 -0.94922,-0.2460938 -0.3457,0 -0.62695,0.1933594 -0.84375,0.5742188 -0.22851,0.3925781 -0.33984,0.9257812 -0.33984,1.6054687 v 3.5390625375 h -1.13672 V -6.7392578 h 1.04297 v 1.0195312 h 0.0234 c 0.35742,-0.7792968 0.83496,-1.171875 1.42968,-1.171875 0.38086,0 0.77344,0.1230469 1.17188,0.3632813 z m 0,0"
       style="fill:#000000;fill-opacity:1;fill-rule:nonzero;stroke:none"
       aria-label="Time	Course	+	Error"
       transform="matrix(1.3333333,0,0,1.3333333,348,21.583333)" />
    <path
       id="path12"
       d="M 35.833333,81.78057 41.666667,85.548579 47.5,89.279095 53.333333,92.972493 59.166667,96.62914 65,100.2494 l 5.833333,3.58424 5.833334,3.54858 5.833333,3.51327 5.833333,3.47831 5.833334,3.44371 5.833333,3.40943 5.83333,3.37551 5.83334,3.34193 5.83333,3.30867 5.83333,3.27575 5.83334,3.24316 5.83333,3.21088 5.83333,3.17894 5.83334,3.1473 5.83333,3.11599 5.83333,3.08498 5.83334,3.05429 5.83333,3.0239 5.83333,2.99381 5.83334,2.96401 5.83333,2.93453 5.83333,2.90533 5.83334,2.87642 5.83333,2.8478 5.83333,2.81946 5.83334,2.79141 5.83333,2.76364 5.83333,2.73613 5.83334,2.70891 5.83333,2.68196 5.83333,2.65527 5.83334,2.62885 5.83333,2.60269 5.83333,2.5768 5.83334,2.55116 5.83333,2.52577 5.83333,2.50064 5.83334,2.47575 5.83333,2.45113 5.83333,2.42673 5.83334,2.40259 5.83333,2.37868 5.83333,2.35502 5.83334,2.33158 5.83333,2.30838 5.83333,2.28541 5.83334,2.26268 5.83333,2.24015 5.83333,2.21787 5.83334,2.1958 5.83333,2.17395 5.83333,2.15233 5.83334,2.1309 5.83333,2.1097 5.83333,2.08871 5.83334,2.06793 5.83333,2.04735 5.83333,2.02698 5.83334,2.00681 5.83333,1.98684 5.83333,1.96707 5.83334,1.9475 5.83333,1.92813 5.83333,1.90893 5.83334,1.88994 5.83333,1.87114 5.83333,1.85251 5.83334,1.83408 5.83333,1.81584 5.83333,1.79776 5.83334,1.77987 5.83333,1.76217 5.83333,1.74463 5.83334,1.72727 5.83333,1.71009 5.83333,1.69307 5.83334,1.67622 5.83333,1.65955 5.83333,1.64304 5.83334,1.62669 5.83333,1.6105 5.83333,1.59448 5.83334,1.57862 5.83333,1.56291 5.83333,1.54736 5.83334,1.53197 5.83333,1.51672 5.83333,1.50163 5.83334,1.48669 5.83333,1.4719 5.83333,1.45725 5.83334,1.44276 5.83333,1.42839 5.83333,1.41419 5.83334,1.40011"
       style="fill:none;stroke:#ff0000;stroke-width:1.2;stroke-linecap:square;stroke-linejoin:bevel;stroke-miterlimit:10;stroke-dasharray:none;stroke-opacity:1"
       transform="scale(1.3333333)" />
    <path
       id="path13"
       d="m 35.833333,43.911765 5.833334,4.14481 L 47.5,52.160143 53.333333,56.22288 59.166667,60.245193 65,64.227482 l 5.833333,3.942665 5.833334,3.903436 5.833333,3.864596 5.833333,3.826142 5.833334,3.788073 5.833333,3.75038 5.83333,3.713064 5.83334,3.676118 5.83333,3.639539 5.83333,3.603325 5.83334,3.56747 5.83333,3.53197 5.83333,3.49683 5.83334,3.46204 5.83333,3.42759 5.83333,3.39348 5.83334,3.35971 5.83333,3.32629 5.83333,3.29319 5.83334,3.26042 5.83333,3.22798 5.83333,3.19586 5.83334,3.16406 5.83333,3.13258 5.83333,3.10141 5.83334,3.07055 5.83333,3.04 5.83333,3.00975 5.83334,2.9798 5.83333,2.95015 5.83333,2.9208 5.83334,2.89174 5.83333,2.86296 5.83333,2.83447 5.83334,2.80628 5.83333,2.77834 5.83333,2.75071 5.83334,2.72333 5.83333,2.69624 5.83333,2.66941 5.83334,2.64284 5.83333,2.61655 5.83333,2.59052 5.83334,2.56474 5.83333,2.53922 5.83333,2.51395 5.83334,2.48894 5.83333,2.46417 5.83333,2.43966 5.83334,2.41538 5.83333,2.39135 5.83333,2.36755 5.83334,2.344 5.83333,2.32067 5.83333,2.29758 5.83334,2.27472 5.83333,2.25208 5.83333,2.22968 5.83334,2.20749 5.83333,2.18553 5.83333,2.16378 5.83334,2.14225 5.83333,2.12093 5.83333,2.09983 5.83334,2.07894 5.83333,2.05824 5.83333,2.03777 5.83334,2.01749 5.83333,1.99742 5.83333,1.97754 5.83334,1.95786 5.83333,1.93838 5.83333,1.91909 5.83334,1.9 5.83333,1.8811 5.83333,1.86238 5.83334,1.84384 5.83333,1.8255 5.83333,1.80735 5.83334,1.78936 5.83333,1.77155 5.83333,1.75393 5.83334,1.73648 5.83333,1.7192 5.83333,1.7021 5.83334,1.68516 5.83333,1.66839 5.83333,1.6518 5.83334,1.63536 5.83333,1.61909 5.83333,1.60297 5.83334,1.58703 5.83333,1.57124 5.83333,1.5556 5.83334,1.54013 v 27.8623 l -5.83334,-1.2601 -5.83333,-1.27276 -5.83333,-1.28556 -5.83334,-1.29848 L 590,328.6598 l -5.83333,-1.32471 -5.83334,-1.33802 -5.83333,-1.35146 -5.83333,-1.36505 -5.83334,-1.37877 -5.83333,-1.39263 -5.83333,-1.40662 -5.83334,-1.42075 -5.83333,-1.43504 -5.83333,-1.44945 -5.83334,-1.46402 -5.83333,-1.47873 -5.83333,-1.4936 -5.83334,-1.5086 -5.83333,-1.52377 -5.83333,-1.53907 -5.83334,-1.55455 L 485,302.6648 l -5.83333,-1.58595 -5.83334,-1.60189 -5.83333,-1.61799 -5.83333,-1.63425 -5.83334,-1.65067 -5.83333,-1.66726 -5.83333,-1.68402 -5.83334,-1.70095 -5.83333,-1.71804 -5.83333,-1.73531 -5.83334,-1.75275 -5.83333,-1.77037 -5.83333,-1.78816 -5.83334,-1.80612 -5.83333,-1.82429 -5.83333,-1.84261 -5.83334,-1.86114 L 380,271.5432 374.16667,269.64447 368.33333,267.72665 362.5,265.78956 356.66667,263.833 350.83333,261.85678 345,259.8607 l -5.83333,-2.01614 -5.83334,-2.03641 -5.83333,-2.05687 -5.83333,-2.07754 -5.83334,-2.09842 L 310,247.4558 l -5.83333,-2.14081 -5.83334,-2.16233 -5.83333,-2.18406 -5.83333,-2.20601 -5.83334,-2.22818 -5.83333,-2.25058 -5.83333,-2.27319 -5.83334,-2.29604 -5.83333,-2.31912 -5.83333,-2.34242 -5.83334,-2.36597 -5.83333,-2.38974 -5.83333,-2.41377 -5.83334,-2.43801 -5.83333,-2.46253 -5.83333,-2.48727 -5.83334,-2.51226 -5.83333,-2.53752 -5.83333,-2.56302 -5.83334,-2.58878 -5.83333,-2.61479 -5.83333,-2.64108 -5.83334,-2.66762 -5.83333,-2.69443 -5.83333,-2.7215 -5.83334,-2.74886 -5.83333,-2.77649 -5.83333,-2.80438 -5.83334,-2.83258 -5.83333,-2.86104 -5.83333,-2.8898 -5.83334,-2.91884 -5.83333,-2.94817 -5.83333,-2.97781 -5.83334,-3.00773 L 100,155.15111 94.166667,152.08262 88.333333,148.98328 82.5,145.8528 76.666667,142.69086 70.833333,139.49714 65,136.27132 59.166667,133.01309 53.333333,129.7221 47.5,126.39805 l -5.833333,-3.35747 -5.833334,-3.39121 z"
       style="fill:#ff0000;fill-opacity:0.25098;fill-rule:evenodd;stroke:none"
       transform="scale(1.3333333)" />
    <path
       id="path14"
       d="m 35.833333,43.911765 5.833334,4.14481 L 47.5,52.160143 53.333333,56.22288 59.166667,60.245193 65,64.227482 l 5.833333,3.942665 5.833334,3.903436 5.833333,3.864596 5.833333,3.826142 5.833334,3.788073 5.833333,3.75038 5.83333,3.713064 5.83334,3.676118 5.83333,3.639539 5.83333,3.603325 5.83334,3.56747 5.83333,3.53197 5.83333,3.49683 5.83334,3.46204 5.83333,3.42759 5.83333,3.39348 5.83334,3.35971 5.83333,3.32629 5.83333,3.29319 5.83334,3.26042 5.83333,3.22798 5.83333,3.19586 5.83334,3.16406 5.83333,3.13258 5.83333,3.10141 5.83334,3.07055 5.83333,3.04 5.83333,3.00975 5.83334,2.9798 5.83333,2.95015 5.83333,2.9208 5.83334,2.89174 5.83333,2.86296 5.83333,2.83447 5.83334,2.80628 5.83333,2.77834 5.83333,2.75071 5.83334,2.72333 5.83333,2.69624 5.83333,2.66941 5.83334,2.64284 5.83333,2.61655 5.83333,2.59052 5.83334,2.56474 5.83333,2.53922 5.83333,2.51395 5.83334,2.48894 5.83333,2.46417 5.83333,2.43966 5.83334,2.41538 5.83333,2.39135 5.83333,2.36755 5.83334,2.344 5.83333,2.32067 5.83333,2.29758 5.83334,2.27472 5.83333,2.25208 5.83333,2.22968 5.83334,2.20749 5.83333,2.18553 5.83333,2.16378 5.83334,2.14225 5.83333,2.12093 5.83333,2.09983 5.83334,2.07894 5.83333,2.05824 5.83333,2.03777 5.83334,2.01749 5.83333,1.99742 5.83333,1.97754 5.83334,1.95786 5.83333,1.93838 5.83333,1.91909 5.83334,1.9 5.83333,1.8811 5.83333,1.86238 5.83334,1.84384 5.83333,1.8255 5.83333,1.80735 5.83334,1.78936 5.83333,1.77155 5.83333,1.75393 5.83334,1.73648 5.83333,1.7192 5.83333,1.7021 5.83334,1.68516 5.83333,1.66839 5.83333,1.6518 5.83334,1.63536 5.83333,1.61909 5.83333,1.60297 5.83334,1.58703 5.83333,1.57124 5.83333,1.5556 5.83334,1.54013"
       style="fill:none;stroke:#ff0000;stroke-width:1.2;stroke-linecap:square;stroke-linejoin:bevel;stroke-miterlimit:10;stroke-dasharray:none;stroke-opacity:1"
       transform="scale(1.3333333)" />
    <path
       id="path15"
       d="m 35.833333,119.64937 5.833334,3.39121 5.833333,3.35747 5.833333,3.32405 5.833334,3.29099 5.833333,3.25823 5.833333,3.22582 5.833334,3.19372 5.833333,3.16194 5.833333,3.13048 5.833334,3.09934 5.833333,3.06849 5.83333,3.03796 5.83334,3.00773 5.83333,2.97781 5.83333,2.94817 5.83334,2.91884 5.83333,2.8898 5.83333,2.86104 5.83334,2.83258 5.83333,2.80438 5.83333,2.77649 5.83334,2.74886 5.83333,2.7215 5.83333,2.69443 5.83334,2.66762 5.83333,2.64108 5.83333,2.61479 5.83334,2.58878 5.83333,2.56302 5.83333,2.53752 5.83334,2.51226 5.83333,2.48727 5.83333,2.46253 5.83334,2.43801 5.83333,2.41377 5.83333,2.38974 5.83334,2.36597 5.83333,2.34242 5.83333,2.31912 5.83334,2.29604 5.83333,2.27319 5.83333,2.25058 5.83334,2.22818 5.83333,2.20601 5.83333,2.18406 5.83334,2.16233 5.83333,2.14081 5.83333,2.11952 5.83334,2.09842 5.83333,2.07754 5.83333,2.05687 5.83334,2.03641 5.83333,2.01614 5.83333,1.99608 5.83334,1.97622 5.83333,1.95656 5.83333,1.93709 5.83334,1.91782 5.83333,1.89873 5.83333,1.87983 5.83334,1.86114 5.83333,1.84261 5.83333,1.82429 5.83334,1.80612 5.83333,1.78816 5.83333,1.77037 5.83334,1.75275 5.83333,1.73531 5.83333,1.71804 5.83334,1.70095 5.83333,1.68402 5.83333,1.66726 5.83334,1.65067 5.83333,1.63425 5.83333,1.61799 5.83334,1.60189 5.83333,1.58595 5.83333,1.57016 5.83334,1.55455 5.83333,1.53907 5.83333,1.52377 5.83334,1.5086 5.83333,1.4936 5.83333,1.47873 5.83334,1.46402 5.83333,1.44945 5.83333,1.43504 5.83334,1.42075 5.83333,1.40662 5.83333,1.39263 5.83334,1.37877 5.83333,1.36505 5.83333,1.35146 5.83334,1.33802 5.83333,1.32471 5.83333,1.31153 5.83334,1.29848 5.83333,1.28556 5.83333,1.27276 5.83334,1.2601"
       style="fill:none;stroke:#ff0000;stroke-width:1.2;stroke-linecap:square;stroke-linejoin:bevel;stroke-miterlimit:10;stroke-dasharray:none;stroke-opacity:1"
       transform="scale(1.3333333)" />
    <path
       id="path16"
       d="M 30,338 H 625"
       style="fill:none;stroke:#000000;stroke-width:1;stroke-linecap:square;stroke-linejoin:bevel;stroke-miterlimit:10;stroke-dasharray:none;stroke-opacity:1"
       transform="scale(1.3333333)" />
    <path
       id="path17"
       d="m 35.833333,338 v -5"
       style="fill:none;stroke:#000000;stroke-width:1;stroke-linecap:square;stroke-linejoin:bevel;stroke-miterlimit:10;stroke-dasharray:none;stroke-opacity:1"
       transform="scale(1.3333333)" />
    <path
       id="path18"
       d="m 152.5,338 v -5"
       style="fill:none;stroke:#000000;stroke-width:1;stroke-linecap:square;stroke-linejoin:bevel;stroke-miterlimit:10;stroke-dasharray:none;stroke-opacity:1"
       transform="scale(1.3333333)" />
    <path
       id="path19"
       d="m 269.16667,338 v -5"
       style="fill:none;stroke:#000000;stroke-width:1;stroke-linecap:square;stroke-linejoin:bevel;stroke-miterlimit:10;stroke-dasharray:none;stroke-opacity:1"
       transform="scale(1.3333333)" />
    <path
       id="path20"
       d="m 385.83333,338 v -5"
       style="fill:none;stroke:#000000;stroke-width:1;stroke-linecap:square;stroke-linejoin:bevel;stroke-miterlimit:10;stroke-dasharray:none;stroke-opacity:1"
       transform="scale(1.3333333)" />
    <path
       id="path21"
       d="m 502.5,338 v -5"
       style="fill:none;stroke:#000000;stroke-width:1;stroke-linecap:square;stroke-linejoin:bevel;stroke-miterlimit:10;stroke-dasharray:none;stroke-opacity:1"
       transform="scale(1.3333333)" />
    <path
       id="path22"
       d="m 619.16667,338 v -5"
       style="fill:none;stroke:#000000;stroke-width:1;stroke-linecap:square;stroke-linejoin:bevel;stroke-miterlimit:10;stroke-dasharray:none;stroke-opacity:1"
       transform="scale(1.3333333)" />
    <path
       id="path23"
       d="m 65,338 v -2"
       style="fill:none;stroke:#000000;stroke-width:1;stroke-linecap:square;stroke-linejoin:bevel;stroke-miterlimit:10;stroke-dasharray:none;stroke-opacity:1"
       transform="scale(1.3333333)" />
    <path
       id="path24"
       d="m 94.166667,338 v -2"
       style="fill:none;stroke:#000000;stroke-width:1;stroke-linecap:square;stroke-linejoin:bevel;stroke-miterlimit:10;stroke-dasharray:none;stroke-opacity:1"
       transform="scale(1.3333333)" />
    <path
       id="path25"
       d="m 123.33333,338 v -2"
       style="fill:none;stroke:#000000;stroke-width:1;stroke-linecap:square;stroke-linejoin:bevel;stroke-miterlimit:10;stroke-dasharray:none;stroke-opacity:1"
       transform="scale(1.3333333)" />
    <path
       id="path26"
       d="m 181.66667,338 v -2"
       style="fill:none;stroke:#000000;stroke-width:1;stroke-linecap:square;stroke-linejoin:bevel;stroke-miterlimit:10;stroke-dasharray:none;stroke-opacity:1"
       transform="scale(1.3333333)" />
    <path
       id="path27"
       d="m 210.83333,338 v -2"
       style="fill:none;stroke:#000000;stroke-width:1;stroke-linecap:square;stroke-linejoin:bevel;stroke-miterlimit:10;stroke-dasharray:none;stroke-opacity:1"
       transform="scale(1.3333333)" />
    <path
       id="path28"
       d="m 240,338 v -2"
       style="fill:none;stroke:#000000;stroke-width:1;stroke-linecap:square;stroke-linejoin:bevel;stroke-miterlimit:10;stroke-dasharray:none;stroke-opacity:1"
       transform="scale(1.3333333)" />
    <path
       id="path29"
       d="m 298.33333,338 v -2"
       style="fill:none;stroke:#000000;stroke-width:1;stroke-linecap:square;stroke-linejoin:bevel;stroke-miterlimit:10;stroke-dasharray:none;stroke-opacity:1"
       transform="scale(1.3333333)" />
    <path
       id="path30"
       d="m 327.5,338 v -2"
       style="fill:none;stroke:#000000;stroke-width:1;stroke-linecap:square;stroke-linejoin:bevel;stroke-miterlimit:10;stroke-dasharray:none;stroke-opacity:1"
       transform="scale(1.3333333)" />
    <path
       id="path31"
       d="m 356.66667,338 v -2"
       style="fill:none;stroke:#000000;stroke-width:1;stroke-linecap:square;stroke-linejoin:bevel;stroke-miterlimit:10;stroke-dasharray:none;stroke-opacity:1"
       transform="scale(1.3333333)" />
    <path
       id="path32"
       d="m 415,338 v -2"
       style="fill:none;stroke:#000000;stroke-width:1;stroke-linecap:square;stroke-linejoin:bevel;stroke-miterlimit:10;stroke-dasharray:none;stroke-opacity:1"
       transform="scale(1.3333333)" />
    <path
       id="path33"
       d="m 444.16667,338 v -2"
       style="fill:none;stroke:#000000;stroke-width:1;stroke-linecap:square;stroke-linejoin:bevel;stroke-miterlimit:10;stroke-dasharray:none;stroke-opacity:1"
       transform="scale(1.3333333)" />
    <path
       id="path34"
       d="m 473.33333,338 v -2"
       style="fill:none;stroke:#000000;stroke-width:1;stroke-linecap:square;stroke-linejoin:bevel;stroke-miterlimit:10;stroke-dasharray:none;stroke-opacity:1"
       transform="scale(1.3333333)" />
    <path
       id="path35"
       d="m 531.66667,338 v -2"
       style="fill:none;stroke:#000000;stroke-width:1;stroke-linecap:square;stroke-linejoin:bevel;stroke-miterlimit:10;stroke-dasharray:none;stroke-opacity:1"
       transform="scale(1.3333333)" />
    <path
       id="path36"
       d="m 560.83333,338 v -2"
       style="fill:none;stroke:#000000;stroke-width:1;stroke-linecap:square;stroke-linejoin:bevel;stroke-miterlimit:10;stroke-dasharray:none;stroke-opacity:1"
       transform="scale(1.3333333)" />
    <path
       id="path37"
       d="m 590,338 v -2"
       style="fill:none;stroke:#000000;stroke-width:1;stroke-linecap:square;stroke-linejoin:bevel;stroke-miterlimit:10;stroke-dasharray:none;stroke-opacity:1"
       transform="scale(1.3333333)" />
    <path
       id="path38"
       d="m 3.6090495,-9.3515625 c 2.0214844,0 3.0351563,1.5878906 3.0351563,4.7578125 0,1.6113281 -0.2636719,2.8007813 -0.7851563,3.5742188 -0.524414,0.79101558 -1.274414,1.1835937 -2.25,1.1835937 -2.015625,0 -3.02343749,-1.5849609 -3.02343749,-4.7578125 -0.008789,-1.5996094 0.25195313,-2.7919922 0.78515629,-3.5742187 0.5214843,-0.7792969 1.2685547,-1.1748047 2.2382812,-1.1835938 z m 0,8.56640625 c 0.6152344,0 1.0810547,-0.29589845 1.3945313,-0.89062495 C 5.3082683,-2.2617187 5.4635417,-3.234375 5.4723308,-4.59375 5.4635417,-5.53125 5.3932292,-6.2695312 5.2613933,-6.8085937 5.1207683,-7.3476562 4.9127605,-7.7490234 4.6402995,-8.015625 4.3649089,-8.2734375 3.9664714,-8.4023437 3.444987,-8.4023437 c -0.515625,0 -0.9257812,0.3017578 -1.2304687,0.9023437 -0.3134766,0.6035156 -0.46875,1.5703125 -0.46875,2.90625 0,0.9375 0.070312,1.6728516 0.2109375,2.203125 0.140625,0.5478516 0.3457031,0.9492188 0.6210937,1.2070313 0.272461,0.26660151 0.6152344,0.39843745 1.03125,0.39843745 z m 0,0"
       style="fill:#000000;fill-opacity:1;fill-rule:nonzero;stroke:none"
       aria-label="0"
       transform="matrix(1.3333333,0,0,1.3333333,42.965278,473.1875)" />
    <path
       id="path39"
       d="M 6.5498047,0 H 0.38574219 c 0,-0.52148437 0.18164062,-1.0546875 0.55078125,-1.59375 0.35742186,-0.5390625 1.04296876,-1.2099609 2.05078126,-2.015625 0.6152344,-0.4833984 1.1630859,-0.9990234 1.640625,-1.546875 0.4833984,-0.5390625 0.7265625,-1.0810547 0.7265625,-1.6289062 0,-0.459961 -0.1640625,-0.8496094 -0.4921875,-1.171875 -0.3369141,-0.2958985 -0.7587891,-0.4453125 -1.265625,-0.4453125 -0.515625,0 -0.9462891,0.1582031 -1.2890625,0.46875 -0.3515625,0.3134765 -0.5273438,0.7822265 -0.5273438,1.40625 L 0.60839844,-6.65625 c 0.0703125,-0.8671875 0.38085937,-1.5351562 0.93749996,-2.0039062 0.5390625,-0.459961 1.2304688,-0.6914063 2.0742188,-0.6914063 0.9140625,0.00879 1.6289062,0.2636719 2.1445312,0.7617188 0.506836,0.5097656 0.7617188,1.1191406 0.7617188,1.828125 -0.00879,0.6035156 -0.2226563,1.2070312 -0.6445313,1.8164062 -0.430664,0.6181641 -1.2861328,1.4355469 -2.5664062,2.4492188 -0.6738281,0.5478515 -1.1220703,1.0136718 -1.3476563,1.3945312 h 4.5820313 z m 0,0"
       style="fill:#000000;fill-opacity:1;fill-rule:nonzero;stroke:none"
       aria-label="2"
       transform="matrix(1.3333333,0,0,1.3333333,198.52083,473.1875)" />
    <path
       id="path40"
       d="M 6.6106777,-2.2265625 H 5.3567715 V 0 H 4.2200527 V -2.2265625 H 0.18880275 V -3.2695312 L 4.4192715,-9.3046875 h 0.9375 v 6.0351563 H 6.6106777 Z M 4.2200527,-3.2695312 V -7.4765625 H 4.1848965 L 1.302084,-3.2695312 Z m 0,0"
       style="fill:#000000;fill-opacity:1;fill-rule:nonzero;stroke:none"
       aria-label="4"
       transform="matrix(1.3333333,0,0,1.3333333,354.07639,473.1875)" />
    <path
       id="path41"
       d="m 1.6881514,-4.7929687 c 0.5214844,-0.8203125 1.2685547,-1.2304688 2.2382812,-1.2304688 0.7646485,0 1.4121094,0.28125 1.9453125,0.84375 0.5302735,0.5625 0.796875,1.2832031 0.796875,2.15625 0,0.8847656 -0.2636718,1.6347656 -0.7851562,2.25 -0.5390625,0.62695313 -1.2480469,0.9375 -2.1210938,0.9375 -0.899414,0 -1.6611328,-0.33105469 -2.2851562,-0.99609375 C 0.85026075,-1.4882812 0.53971388,-2.6601562 0.53971388,-4.3476562 c 0,-1.6552735 0.28417968,-2.90625 0.85546872,-3.75 0.5625,-0.8261719 1.3828125,-1.2451172 2.4609375,-1.2539063 0.703125,0.00879 1.2919922,0.2050781 1.7695313,0.5859375 0.4833984,0.3925781 0.7792969,0.9697266 0.890625,1.734375 l -1.1484375,0.1054688 c -0.2109375,-0.984375 -0.7353516,-1.4765625 -1.5703125,-1.4765625 -0.5859375,0 -1.0869141,0.290039 -1.5,0.8671875 -0.421875,0.5800781 -0.6328125,1.4941406 -0.6328125,2.7421875 z m 2.0390625,4.00781245 c 0.5302734,0.008789 0.9550781,-0.20214844 1.2773437,-0.63281245 0.319336,-0.413086 0.4833985,-0.9257813 0.4921875,-1.5351563 -0.00879,-0.6005859 -0.1728515,-1.0957031 -0.4921875,-1.4882812 -0.3222656,-0.3896485 -0.758789,-0.5859375 -1.3125,-0.5859375 -0.5097656,0 -0.9433593,0.1845703 -1.3007812,0.5507812 -0.3603516,0.375 -0.5390625,0.8642578 -0.5390625,1.4648438 -0.00879,0.618164 0.1699219,1.1455078 0.5390625,1.5820312 0.3515625,0.43945313 0.796875,0.65332031 1.3359375,0.64453125 z m 0,0"
       style="fill:#000000;fill-opacity:1;fill-rule:nonzero;stroke:none"
       aria-label="6"
       transform="matrix(1.3333333,0,0,1.3333333,509.63194,473.1875)" />
    <path
       id="path42"
       d="m 4.9101562,-5.0273437 c 1.163086,0.375 1.7460938,1.1689453 1.7460938,2.3789062 0,0.796875 -0.2871094,1.4648438 -0.8554688,2.00390625 -0.5800781,0.5390625 -1.3125,0.80859375 -2.2031249,0.80859375 -0.9082032,0 -1.6406251,-0.27246094 -2.2031251,-0.8203125 C 0.82324219,-1.1953125 0.5390625,-1.875 0.5390625,-2.6953125 0.53027344,-3.28125 0.69140625,-3.7910156 1.0195312,-4.2304687 c 0.3105469,-0.4365235 0.741211,-0.703125 1.2890626,-0.796875 V -5.0625 c -0.9375001,-0.28125 -1.40332036,-0.9052734 -1.3945313,-1.875 0,-0.6855469 0.2402344,-1.2597656 0.7265625,-1.7226562 0.4921875,-0.459961 1.1367188,-0.6914063 1.9335938,-0.6914063 0.8027343,0 1.4560546,0.2402344 1.9570312,0.7148438 0.4980469,0.477539 0.75,1.0517578 0.75,1.7226562 C 6.2724609,-6 5.8154297,-5.3818359 4.9101562,-5.0625 Z M 3.5976563,-5.484375 c 0.4218749,0 0.7792968,-0.1347656 1.0781249,-0.4101562 0.28125,-0.2636719 0.4248047,-0.6035157 0.4335938,-1.0195313 0,-0.421875 -0.1464844,-0.7763672 -0.4335938,-1.0664062 -0.3046875,-0.28125 -0.6679687,-0.421875 -1.0898437,-0.421875 -0.4394531,0 -0.796875,0.140625 -1.078125,0.421875 -0.2900391,0.290039 -0.4306641,0.6210937 -0.421875,0.9960937 0,0.46875 0.1435547,0.8320313 0.4335938,1.0898438 0.2871093,0.28125 0.6474609,0.4189453 1.078125,0.4101562 z m 0,4.69921875 c 0.5302734,0.008789 0.9785156,-0.1640625 1.3476562,-0.51562495 0.3574219,-0.3427735 0.5390625,-0.7910157 0.5390625,-1.3476563 0,-0.5537109 -0.1845703,-1.0107422 -0.5507813,-1.3710937 -0.375,-0.3515625 -0.8291015,-0.5273438 -1.3593749,-0.5273438 -0.5566407,0 -1.0048829,0.1816406 -1.3476563,0.5390625 -0.3515625,0.375 -0.5273438,0.8173828 -0.5273438,1.3242188 0,0.5478515 0.178711,1.0019531 0.5390626,1.359375 0.3515625,0.36035151 0.8027343,0.53906245 1.359375,0.53906245 z m 0,0"
       style="fill:#000000;fill-opacity:1;fill-rule:nonzero;stroke:none"
       aria-label="8"
       transform="matrix(1.3333333,0,0,1.3333333,665.1875,473.1875)" />
    <path
       id="path43"
       d="M 4.8626309,0 H 3.7141934 V -7.2773437 C 3.1429043,-6.7294922 2.3811856,-6.2724609 1.4290371,-5.90625 v -1.1015625 c 1.3125,-0.6240234 2.2089844,-1.40625 2.6953125,-2.34375 h 0.7382813 z m 5.9648441,-9.3515625 c 2.021484,0 3.035156,1.5878906 3.035156,4.7578125 0,1.6113281 -0.263672,2.8007813 -0.785156,3.5742188 -0.524414,0.79101558 -1.274414,1.1835937 -2.25,1.1835937 -2.0156254,0 -3.0234379,-1.5849609 -3.0234379,-4.7578125 -0.00879,-1.5996094 0.2519532,-2.7919922 0.7851563,-3.5742187 0.5214844,-0.7792969 1.2685547,-1.1748047 2.2382816,-1.1835938 z m 0,8.56640625 c 0.615234,0 1.081054,-0.29589845 1.394531,-0.89062495 0.304687,-0.5859375 0.459961,-1.5585938 0.46875,-2.9179688 -0.0088,-0.9375 -0.0791,-1.6757812 -0.210938,-2.2148437 -0.140625,-0.5390625 -0.348632,-0.9404297 -0.621093,-1.2070313 -0.275391,-0.2578125 -0.673828,-0.3867187 -1.195313,-0.3867187 -0.515625,0 -0.9257811,0.3017578 -1.2304686,0.9023437 -0.3134766,0.6035156 -0.46875,1.5703125 -0.46875,2.90625 0,0.9375 0.070312,1.6728516 0.2109375,2.203125 0.140625,0.5478516 0.3457031,0.9492188 0.6210937,1.2070313 0.2724614,0.26660151 0.6152344,0.39843745 1.0312504,0.39843745 z m 0,0"
       style="fill:#000000;fill-opacity:1;fill-rule:nonzero;stroke:none"
       aria-label="10"
       transform="matrix(1.3333333,0,0,1.3333333,815.93055,473.1875)" />
    <path
       id="path44"
       d="M 4.6162109,-4.8525391 C 4.5605469,-5.21875 4.4111328,-5.4970703 4.1708984,-5.6845703 3.9130859,-5.8632812 3.5673828,-5.9541016 3.1396484,-5.9541016 c -0.4453125,0.00879 -0.796875,0.082031 -1.0546875,0.2226563 -0.28125,0.1494141 -0.4189453,0.3632812 -0.4101562,0.6445312 0,0.2666016 0.1083984,0.4570313 0.328125,0.5742188 0.2021484,0.1171875 0.6210937,0.2578125 1.2539062,0.421875 0.7089844,0.1875 1.2451172,0.3486328 1.6054688,0.4804687 0.3427734,0.140625 0.6152344,0.3369141 0.8203125,0.5859375 0.1933594,0.2519532 0.2929687,0.6035157 0.2929687,1.0546875 0,0.6035157 -0.2460937,1.10742191 -0.7382812,1.51171879 -0.4921875,0.41601562 -1.1484375,0.62109375 -1.96875,0.62109375 -0.8525391,0 -1.5175781,-0.18164063 -1.9921875,-0.55078125 C 0.79003906,-0.74511719 0.49414063,-1.2900391 0.38574219,-2.0166016 L 1.5224609,-2.1806641 c 0.052734,0.46875 0.2285157,0.8203125 0.5273438,1.0546875 0.28125,0.23437504 0.6826172,0.34863285 1.2070312,0.33984379 0.4980469,0 0.881836,-0.10546875 1.1484375,-0.31640629 0.272461,-0.2021484 0.4101563,-0.4570312 0.4101563,-0.7617187 -0.00879,-0.2021485 -0.070312,-0.3632813 -0.1875,-0.4804688 -0.1259766,-0.1230468 -0.2783203,-0.2167968 -0.4570313,-0.28125 -0.196289,-0.052734 -0.6914062,-0.1787109 -1.4882812,-0.375 C 1.8857422,-3.1943359 1.3349609,-3.4580078 1.0302734,-3.7861328 0.71679687,-4.1054687 0.56445312,-4.4921875 0.57324219,-4.9462891 c -0.008789,-0.5625 0.21386718,-1.0253906 0.66796871,-1.3945312 0.4511719,-0.3574219 1.0576172,-0.5419922 1.8164063,-0.5507813 0.796875,0.00879 1.4208984,0.1699219 1.875,0.4804688 0.4453125,0.3134766 0.7089844,0.7822266 0.796875,1.40625 z m 0,0"
       style="fill:#000000;fill-opacity:1;fill-rule:nonzero;stroke:none"
       aria-label="s"
       transform="matrix(1.3333333,0,0,1.3333333,432.33333,501.58333)" />
    <path
       id="path45"
       d="M 30,338 V 41"
       style="fill:none;stroke:#000000;stroke-width:1;stroke-linecap:square;stroke-linejoin:bevel;stroke-miterlimit:10;stroke-dasharray:none;stroke-opacity:1"
       transform="scale(1.3333333)" />
    <path
       id="path46"
       d="m 30,308.9934 h 5"
       style="fill:none;stroke:#000000;stroke-width:1;stroke-linecap:square;stroke-linejoin:bevel;stroke-miterlimit:10;stroke-dasharray:none;stroke-opacity:1"
       transform="scale(1.3333333)" />
    <path
       id="path47"
       d="m 30,233.25579 h 5"
       style="fill:none;stroke:#000000;stroke-width:1;stroke-linecap:square;stroke-linejoin:bevel;stroke-miterlimit:10;stroke-dasharray:none;stroke-opacity:1"
       transform="scale(1.3333333)" />
    <path
       id="path48"
       d="m 30,157.51818 h 5"
       style="fill:none;stroke:#000000;stroke-width:1;stroke-linecap:square;stroke-linejoin:bevel;stroke-miterlimit:10;stroke-dasharray:none;stroke-opacity:1"
       transform="scale(1.3333333)" />
    <path
       id="path49"
       d="m 30,81.78057 h 5"
       style="fill:none;stroke:#000000;stroke-width:1;stroke-linecap:square;stroke-linejoin:bevel;stroke-miterlimit:10;stroke-dasharray:none;stroke-opacity:1"
       transform="scale(1.3333333)" />
    <path
       id="path50"
       d="m 30,327.9278 h 2"
       style="fill:none;stroke:#000000;stroke-width:1;stroke-linecap:square;stroke-linejoin:bevel;stroke-miterlimit:10;stroke-dasharray:none;stroke-opacity:1"
       transform="scale(1.3333333)" />
    <path
       id="path51"
       d="m 30,290.059 h 2"
       style="fill:none;stroke:#000000;stroke-width:1;stroke-linecap:square;stroke-linejoin:bevel;stroke-miterlimit:10;stroke-dasharray:none;stroke-opacity:1"
       transform="scale(1.3333333)" />
    <path
       id="path52"
       d="m 30,271.12459 h 2"
       style="fill:none;stroke:#000000;stroke-width:1;stroke-linecap:square;stroke-linejoin:bevel;stroke-miterlimit:10;stroke-dasharray:none;stroke-opacity:1"
       transform="scale(1.3333333)" />
    <path
       id="path53"
       d="m 30,252.19019 h 2"
       style="fill:none;stroke:#000000;stroke-width:1;stroke-linecap:square;stroke-linejoin:bevel;stroke-miterlimit:10;stroke-dasharray:none;stroke-opacity:1"
       transform="scale(1.3333333)" />
    <path
       id="path54"
       d="m 30,214.32139 h 2"
       style="fill:none;stroke:#000000;stroke-width:1;stroke-linecap:square;stroke-linejoin:bevel;stroke-miterlimit:10;stroke-dasharray:none;stroke-opacity:1"
       transform="scale(1.3333333)" />
    <path
       id="path55"
       d="m 30,195.38698 h 2"
       style="fill:none;stroke:#000000;stroke-width:1;stroke-linecap:square;stroke-linejoin:bevel;stroke-miterlimit:10;stroke-dasharray:none;stroke-opacity:1"
       transform="scale(1.3333333)" />
    <path
       id="path56"
       d="m 30,176.45258 h 2"
       style="fill:none;stroke:#000000;stroke-width:1;stroke-linecap:square;stroke-linejoin:bevel;stroke-miterlimit:10;stroke-dasharray:none;stroke-opacity:1"
       transform="scale(1.3333333)" />
    <path
       id="path57"
       d="m 30,138.58378 h 2"
       style="fill:none;stroke:#000000;stroke-width:1;stroke-linecap:square;stroke-linejoin:bevel;stroke-miterlimit:10;stroke-dasharray:none;stroke-opacity:1"
       transform="scale(1.3333333)" />
    <path
       id="path58"
       d="m 30,119.64937 h 2"
       style="fill:none;stroke:#000000;stroke-width:1;stroke-linecap:square;stroke-linejoin:bevel;stroke-miterlimit:10;stroke-dasharray:none;stroke-opacity:1"
       transform="scale(1.3333333)" />
    <path
       id="path59"
       d="m 30,100.71497 h 2"
       style="fill:none;stroke:#000000;stroke-width:1;stroke-linecap:square;stroke-linejoin:bevel;stroke-miterlimit:10;stroke-dasharray:none;stroke-opacity:1"
       transform="scale(1.3333333)" />
    <path
       id="path60"
       d="m 30,62.846167 h 2"
       style="fill:none;stroke:#000000;stroke-width:1;stroke-linecap:square;stroke-linejoin:bevel;stroke-miterlimit:10;stroke-dasharray:none;stroke-opacity:1"
       transform="scale(1.3333333)" />
    <path
       id="path61"
       d="m 30,43.911765 h 2"
       style="fill:none;stroke:#000000;stroke-width:1;stroke-linecap:square;stroke-linejoin:bevel;stroke-miterlimit:10;stroke-dasharray:none;stroke-opacity:1"
       transform="scale(1.3333333)" />
    <path
       id="path62"
       d="m 3.6083984,-9.3517974 c 2.0214844,0 3.0351563,1.5878906 3.0351563,4.7578125 0,1.6113281 -0.2636719,2.8007812 -0.7851563,3.5742187 -0.524414,0.79101564 -1.274414,1.18359376 -2.25,1.18359376 -2.015625,0 -3.02343746,-1.58496096 -3.02343746,-4.75781246 -0.008789,-1.5996094 0.25195312,-2.7919922 0.78515626,-3.5742188 0.5214844,-0.7792969 1.2685547,-1.1748047 2.2382812,-1.1835937 z m 0,8.56640621 c 0.6152344,0 1.0810547,-0.29589841 1.3945313,-0.89062501 0.3046875,-0.5859375 0.4599609,-1.5585937 0.46875,-2.9179687 -0.00879,-0.9375 -0.079102,-1.6757813 -0.2109375,-2.2148438 C 5.1201172,-7.3478912 4.9121094,-7.7492584 4.6396484,-8.0158599 4.3642578,-8.2736724 3.9658203,-8.4025787 3.4443359,-8.4025787 c -0.515625,0 -0.9257812,0.3017578 -1.2304687,0.9023438 -0.3134766,0.6035156 -0.46875,1.5703125 -0.46875,2.90625 0,0.9375 0.070312,1.6728515 0.2109375,2.203125 0.140625,0.5478515 0.3457031,0.9492187 0.6210937,1.2070312 0.272461,0.26660158 0.6152344,0.39843751 1.03125,0.39843751 z M 9.6669922,-2.349375e-4 H 8.3662109 V -1.3010162 H 9.6669922 Z M 17.436523,-2.2267974 H 16.182617 V -2.349375e-4 H 15.045898 V -2.2267974 h -4.03125 v -1.0429688 l 4.230469,-6.0351562 h 0.9375 v 6.0351562 h 1.253906 z m -2.390625,-1.0429688 v -4.2070312 h -0.03516 l -2.882812,4.2070312 z m 0,0"
       style="fill:#000000;fill-opacity:1;fill-rule:nonzero;stroke:none"
       aria-label="0.4"
       transform="matrix(1.3333333,0,0,1.3333333,7.9583333,418.51203)" />
    <path
       id="path63"
       d="m 3.6083984,-9.3524687 c 2.0214844,0 3.0351563,1.5878906 3.0351563,4.7578125 0,1.6113281 -0.2636719,2.8007813 -0.7851563,3.5742188 -0.524414,0.79101559 -1.274414,1.18359371 -2.25,1.18359371 -2.015625,0 -3.02343746,-1.58496091 -3.02343746,-4.75781251 -0.008789,-1.5996094 0.25195312,-2.7919922 0.78515626,-3.5742187 0.5214844,-0.7792969 1.2685547,-1.1748047 2.2382812,-1.1835938 z m 0,8.56640626 c 0.6152344,0 1.0810547,-0.29589846 1.3945313,-0.89062496 0.3046875,-0.5859375 0.4599609,-1.5585938 0.46875,-2.9179688 -0.00879,-0.9375 -0.079102,-1.6757812 -0.2109375,-2.2148437 C 5.1201172,-7.3485624 4.9121094,-7.7499296 4.6396484,-8.0165312 4.3642578,-8.2743437 3.9658203,-8.4032499 3.4443359,-8.4032499 c -0.515625,0 -0.9257812,0.3017578 -1.2304687,0.9023437 -0.3134766,0.6035156 -0.46875,1.5703125 -0.46875,2.90625 0,0.9375 0.070312,1.6728516 0.2109375,2.203125 0.140625,0.5478516 0.3457031,0.9492188 0.6210937,1.2070313 0.272461,0.26660153 0.6152344,0.39843746 1.03125,0.39843746 z M 9.6669922,-9.061875e-4 H 8.3662109 V -1.3016874 H 9.6669922 Z M 12.514648,-4.7938749 c 0.521485,-0.8203125 1.268555,-1.2304688 2.238282,-1.2304688 0.764648,0 1.412109,0.28125 1.945312,0.84375 0.530274,0.5625 0.796875,1.2832031 0.796875,2.15625 0,0.8847656 -0.263672,1.6347656 -0.785156,2.25000001 -0.539063,0.62695313 -1.248047,0.9375 -2.121094,0.9375 -0.899414,0 -1.661133,-0.33105468 -2.285156,-0.99609375 -0.626953,-0.65624996 -0.9375,-1.82812496 -0.9375,-3.51562496 0,-1.6552735 0.28418,-2.90625 0.855469,-3.75 0.5625,-0.8261719 1.382812,-1.2451172 2.460937,-1.2539063 0.703125,0.00879 1.291992,0.2050781 1.769531,0.5859375 0.483399,0.3925781 0.779297,0.9697266 0.890625,1.734375 l -1.148437,0.1054688 c -0.210938,-0.984375 -0.735352,-1.4765625 -1.570313,-1.4765625 -0.585937,0 -1.086914,0.290039 -1.5,0.8671875 -0.421875,0.5800781 -0.632812,1.4941406 -0.632812,2.7421875 z m 2.039063,4.00781246 c 0.530273,0.008789 0.955078,-0.20214843 1.277344,-0.63281246 0.319336,-0.413086 0.483398,-0.9257813 0.492187,-1.5351563 -0.0088,-0.6005859 -0.172851,-1.0957031 -0.492187,-1.4882812 -0.322266,-0.3896485 -0.758789,-0.5859375 -1.3125,-0.5859375 -0.509766,0 -0.94336,0.1845703 -1.300782,0.5507812 -0.360351,0.375 -0.539062,0.8642578 -0.539062,1.4648438 -0.0088,0.618164 0.169922,1.1455078 0.539062,1.5820312 0.351563,0.43945314 0.796875,0.65332033 1.335938,0.64453126 z m 0,0"
       style="fill:#000000;fill-opacity:1;fill-rule:nonzero;stroke:none"
       aria-label="0.6"
       transform="matrix(1.3333333,0,0,1.3333333,7.9583333,317.52855)" />
    <path
       id="path64"
       d="m 3.6083984,-9.3502103 c 2.0214844,0 3.0351563,1.5878907 3.0351563,4.7578125 0,1.6113282 -0.2636719,2.8007813 -0.7851563,3.5742188 -0.524414,0.79101562 -1.274414,1.18359375 -2.25,1.18359375 -2.015625,0 -3.02343746,-1.58496095 -3.02343746,-4.75781255 -0.008789,-1.5996093 0.25195312,-2.7919921 0.78515626,-3.5742187 0.5214844,-0.7792969 1.2685547,-1.1748047 2.2382812,-1.1835938 z m 0,8.5664063 c 0.6152344,0 1.0810547,-0.2958984 1.3945313,-0.890625 0.3046875,-0.5859375 0.4599609,-1.5585938 0.46875,-2.9179688 -0.00879,-0.9375 -0.079102,-1.6757812 -0.2109375,-2.2148437 C 5.1201172,-7.346304 4.9121094,-7.7476712 4.6396484,-8.0142728 4.3642578,-8.2720853 3.9658203,-8.4009915 3.4443359,-8.4009915 c -0.515625,0 -0.9257812,0.3017578 -1.2304687,0.9023437 -0.3134766,0.6035157 -0.46875,1.5703125 -0.46875,2.90625 0,0.9375 0.070312,1.6728516 0.2109375,2.203125 0.140625,0.5478516 0.3457031,0.9492188 0.6210937,1.2070313 0.272461,0.26660156 0.6152344,0.3984375 1.03125,0.3984375 z M 9.6669922,0.00135225 H 8.3662109 V -1.299429 H 9.6669922 Z M 15.737305,-5.0259915 c 1.163086,0.375 1.746093,1.1689453 1.746093,2.3789062 0,0.796875 -0.287109,1.4648438 -0.855468,2.0039063 -0.580078,0.5390625 -1.3125,0.80859375 -2.203125,0.80859375 -0.908203,0 -1.640625,-0.27246094 -2.203125,-0.8203125 -0.571289,-0.53906255 -0.855469,-1.21875005 -0.855469,-2.03906255 -0.0088,-0.5859375 0.152344,-1.0957031 0.480469,-1.5351562 0.310547,-0.4365234 0.741211,-0.703125 1.289062,-0.796875 v -0.035156 c -0.9375,-0.28125 -1.40332,-0.9052734 -1.394531,-1.875 0,-0.6855468 0.240234,-1.2597656 0.726562,-1.7226562 0.492188,-0.4599609 1.136719,-0.6914063 1.933594,-0.6914063 0.802735,0 1.456055,0.2402344 1.957031,0.7148438 0.498047,0.4775391 0.75,1.0517578 0.75,1.7226562 -0.0088,0.9140625 -0.46582,1.5322266 -1.371093,1.8515625 z m -1.3125,-0.4570313 c 0.421875,0 0.779297,-0.1347656 1.078125,-0.4101562 0.28125,-0.2636719 0.424804,-0.6035156 0.433593,-1.0195313 0,-0.421875 -0.146484,-0.7763671 -0.433593,-1.0664062 -0.304688,-0.28125 -0.667969,-0.421875 -1.089844,-0.421875 -0.439453,0 -0.796875,0.140625 -1.078125,0.421875 -0.290039,0.2900391 -0.430664,0.6210937 -0.421875,0.9960937 0,0.46875 0.143555,0.8320313 0.433594,1.0898438 0.287109,0.28125 0.647461,0.4189453 1.078125,0.4101562 z m 0,4.6992188 c 0.530273,0.008789 0.978515,-0.1640625 1.347656,-0.515625 0.357422,-0.3427734 0.539062,-0.7910156 0.539062,-1.3476563 0,-0.5537109 -0.18457,-1.0107421 -0.550781,-1.3710937 -0.375,-0.3515625 -0.829101,-0.5273438 -1.359375,-0.5273438 -0.55664,0 -1.004883,0.1816407 -1.347656,0.5390625 -0.351563,0.375 -0.527344,0.8173829 -0.527344,1.3242188 0,0.5478516 0.178711,1.0019531 0.539063,1.359375 0.351562,0.36035156 0.802734,0.5390625 1.359375,0.5390625 z m 0,0"
       style="fill:#000000;fill-opacity:1;fill-rule:nonzero;stroke:none"
       aria-label="0.8"
       transform="matrix(1.3333333,0,0,1.3333333,7.9583333,216.54507)" />
    <path
       id="path65"
       d="M 4.8632813,6.804e-4 H 3.7148438 v -7.2773438 c -0.5712891,0.5478516 -1.3330079,1.0048829 -2.2851563,1.3710938 v -1.1015625 c 1.3125,-0.6240234 2.2089844,-1.40625 2.6953125,-2.34375 h 0.7382813 z m 0,0"
       style="fill:#000000;fill-opacity:1;fill-rule:nonzero;stroke:none"
       aria-label="1"
       transform="matrix(1.3333333,0,0,1.3333333,23.1875,115.56159)" />
    <path
       id="path66"
       d="m 5,391 h 630 v 27 H 5 Z"
       style="fill:#ffffff;fill-opacity:1;fill-rule:nonzero;stroke:none"
       transform="scale(1.3333333)" />
    <g
       id="g66" />
    <path
       id="path67"
       d="m 3.3984375,2.5888672 h -2.53125 V -9.3056641 h 2.53125 v 0.9492188 H 2.015625 V 1.6396484 H 3.3984375 Z M 12.304688,-9.765625e-4 H 10.910156 L 9.8203125,-2.8369141 H 5.9414062 l -1.03125,2.8359375375 H 3.609375 L 7.1835937,-9.3056641 H 8.5078125 Z M 9.4453125,-3.8095703 C 8.6777344,-5.8164062 8.25,-6.9619141 8.15625,-7.2431641 8.0625,-7.515625 7.9570312,-7.8789062 7.8398437,-8.3330078 h -0.035156 c -0.1259766,0.6328125 -0.2871094,1.2128906 -0.4804688,1.734375 L 6.28125,-3.8095703 Z M 14.985352,2.5888672 H 12.46582 V 1.6396484 h 1.371094 V -8.3564453 H 12.46582 v -0.9492188 h 2.519532 z m -11.9062504,0 H 0.54785156 V -9.3056641 H 3.0791016 v 0.9492188 H 1.6962891 V 1.6396484 H 3.0791016 Z M 11.985352,-9.765625e-4 H 10.59082 L 9.5009766,-2.8369141 H 5.6220703 l -1.03125,2.8359375375 H 3.2900391 L 6.8642578,-9.3056641 H 8.1884766 Z M 9.1259766,-3.8095703 C 8.3583984,-5.8164062 7.9306641,-6.9619141 7.8369141,-7.2431641 7.7431641,-7.515625 7.6376953,-7.8789062 7.5205078,-8.3330078 H 7.4853516 C 7.359375,-7.7001953 7.1982422,-7.1201172 7.0048828,-6.5986328 L 5.9619141,-3.8095703 Z M 14.663086,2.5888672 H 12.143555 V 1.6396484 h 1.371093 v -9.9960937 h -1.371093 v -0.9492188 h 2.519531 z m 0,0"
       style="fill:#000000;fill-opacity:1;fill-rule:nonzero;stroke:none"
       aria-label="[A][A]"
       transform="matrix(1.3333333,0,0,1.3333333,68,546.52083)" />
    <g
       id="g69"
       clip-path="url(#clipPath70)">
      <path
         d="M 12,405 H 49"
         style="fill:none;stroke:#ff0000;stroke-width:1.2;stroke-linecap:square;stroke-linejoin:bevel;stroke-miterlimit:10;stroke-dasharray:none;stroke-opacity:1"
         transform="scale(1.3333333)"
         clip-path="url(#clipPath68)"
         id="path69" />
    </g>
    <g
       id="g70" />
    <path
       id="path71"
       d="M 8.5654297,-9.3056641 4.9208984,-9.765625e-4 H 3.6669922 L 0.05761719,-9.3056641 H 1.3935547 l 2.4140625,6.7617188 c 0.1787109,0.4394531 0.3398437,0.9433594 0.4804687,1.5117187 h 0.023437 C 4.4345703,-1.5244141 4.5957031,-2.0283203 4.7919922,-2.5439453 L 7.3115234,-9.3056641 Z M 15.347656,-9.765625e-4 H 14.152344 C 14.035156,-0.21191406 13.956055,-0.48730469 13.917969,-0.83300781 c -0.773438,0.66503906 -1.602539,0.99609375 -2.484375,0.99609375 -0.711914,0 -1.271485,-0.17871094 -1.6757815,-0.5390625 -0.4160156,-0.3515625 -0.6210937,-0.82031254 -0.6210937,-1.40625004 0,-0.5625 0.1992187,-1.0224609 0.5976562,-1.3828125 0.389648,-0.3574218 1.078125,-0.5976562 2.0625,-0.7148437 l 1.066406,-0.1640625 c 0.389649,-0.061523 0.714844,-0.140625 0.972657,-0.234375 0,-0.3339844 -0.0088,-0.5771484 -0.02344,-0.7265625 -0.02344,-0.140625 -0.08789,-0.2871094 -0.1875,-0.4453125 -0.111328,-0.1464844 -0.27832,-0.2695313 -0.503906,-0.3632813 -0.228516,-0.09375 -0.533203,-0.140625 -0.914063,-0.140625 -0.492187,0 -0.878906,0.09082 -1.160156,0.2695313 -0.290039,0.1875 -0.489258,0.5273437 -0.597656,1.0195312 l -1.1132815,-0.140625 c 0.1171875,-0.6855468 0.4335938,-1.2070312 0.9492185,-1.5585937 0.506836,-0.3515625 1.201172,-0.5273438 2.085938,-0.5273438 0.802734,0.00879 1.40039,0.1289063 1.792969,0.3632813 0.36621,0.2431641 0.597656,0.5332031 0.691406,0.8671875 0.07617,0.3369141 0.120117,0.7734375 0.128906,1.3125 v 1.5351562 c 0,0.9316407 0.01758,1.5556641 0.05859,1.87500004 0.0293,0.328125 0.131836,0.64160156 0.304687,0.9374999975 z M 13.835938,-2.9658203 v -0.4101563 c -0.594727,0.1962891 -1.32129,0.3515625 -2.179688,0.46875 -0.867187,0.1259766 -1.300781,0.4921875 -1.300781,1.1015625 0,0.3134766 0.117187,0.5683594 0.351562,0.7617188 0.225586,0.20507811 0.5625,0.30468749 1.007813,0.30468749 0.5625,0 1.057617,-0.16992188 1.488281,-0.51562499 0.421875,-0.328125 0.632813,-0.8964844 0.632813,-1.7109375 z m 4.042968,2.9648437375 H 16.730469 V -9.3056641 h 1.148437 z m 7.186524,0 H 24.045898 V -0.98535156 h -0.03516 c -0.515625,0.76757812 -1.21875,1.1484375 -2.109375,1.1484375 -0.46875,0 -0.902344,-0.11425781 -1.300781,-0.33984375 -0.407227,-0.2109375 -0.676758,-0.50976563 -0.808594,-0.90234379 -0.134765,-0.375 -0.199219,-0.8671875 -0.199219,-1.4765625 v -4.1835937 h 1.148438 v 3.7382812 c 0,0.5947266 0.02637,1.0195313 0.08203,1.2773438 0.05273,0.2666016 0.202149,0.4775391 0.445313,0.6328125 0.234375,0.18164061 0.521484,0.26660155 0.867187,0.25781249 0.427735,0 0.834961,-0.14648438 1.21875,-0.44531249 0.375,-0.2958984 0.5625,-0.9169922 0.5625,-1.8632813 V -6.7392578 H 25.06543 Z M 32.670898,-3.0830078 h -5.039062 c 0.03809,0.75 0.251953,1.3212891 0.644531,1.7109375 0.366211,0.39257811 0.834961,0.58593749 1.40625,0.58593749 0.436524,0.008789 0.802735,-0.10546875 1.101563,-0.33984379 0.287109,-0.234375 0.515625,-0.5800781 0.679687,-1.0429687 l 1.171875,0.140625 c -0.1875,0.7119141 -0.536133,1.25097655 -1.042969,1.61718749 -0.509765,0.38378906 -1.145507,0.57421875 -1.910156,0.57421875 -1.016601,0 -1.804687,-0.31054688 -2.367187,-0.9375 -0.571289,-0.61523434 -0.855469,-1.46484374 -0.855469,-2.54296874 0,-1.0546875 0.275391,-1.9130859 0.832031,-2.578125 0.553711,-0.6621094 1.330078,-0.9960938 2.332031,-0.9960938 0.483399,0 0.955079,0.1113282 1.417969,0.328125 0.451172,0.2197266 0.837891,0.5859375 1.160156,1.1015625 0.310547,0.515625 0.46875,1.3095704 0.46875,2.3789063 z m -1.171875,-0.9375 c -0.04687,-0.6796875 -0.257812,-1.171875 -0.632812,-1.4765625 -0.383789,-0.2958984 -0.796875,-0.4482422 -1.242188,-0.4570313 -0.539062,0 -0.981445,0.1816407 -1.324218,0.5390625 -0.351563,0.3691407 -0.556641,0.8320313 -0.609375,1.3945313 z m 6.304688,-0.8320313 c -0.05566,-0.3662109 -0.205078,-0.6445312 -0.445313,-0.8320312 -0.257812,-0.1787109 -0.603515,-0.2695313 -1.03125,-0.2695313 -0.445312,0.00879 -0.796875,0.082031 -1.054687,0.2226563 -0.28125,0.1494141 -0.418945,0.3632812 -0.410156,0.6445312 0,0.2666016 0.108398,0.4570313 0.328125,0.5742188 0.202148,0.1171875 0.621093,0.2578125 1.253906,0.421875 0.708984,0.1875 1.245117,0.3486328 1.605469,0.4804687 0.342773,0.140625 0.615234,0.3369141 0.820312,0.5859375 0.19336,0.2519532 0.292969,0.6035157 0.292969,1.0546875 0,0.6035157 -0.246094,1.10742191 -0.738281,1.51171879 -0.492188,0.41601562 -1.148438,0.62109375 -1.96875,0.62109375 -0.852539,0 -1.517578,-0.18164063 -1.992188,-0.55078125 -0.486328,-0.35742188 -0.782226,-0.90234379 -0.890625,-1.62890629 l 1.136719,-0.1640625 c 0.05273,0.46875 0.228516,0.8203125 0.527344,1.0546875 0.28125,0.23437504 0.682617,0.34863285 1.207031,0.33984379 0.498047,0 0.881836,-0.10546875 1.148437,-0.31640629 0.272461,-0.2021484 0.410157,-0.4570312 0.410157,-0.7617187 -0.0088,-0.2021484 -0.07031,-0.3632813 -0.1875,-0.4804688 -0.125977,-0.1230468 -0.278321,-0.2167968 -0.457032,-0.28125 -0.196289,-0.052734 -0.691406,-0.1787109 -1.488281,-0.375 -0.796875,-0.1933593 -1.347656,-0.4570312 -1.652344,-0.7851562 -0.313476,-0.3193359 -0.46582,-0.7060547 -0.457031,-1.1601563 -0.0088,-0.5625 0.213867,-1.0253906 0.667969,-1.3945312 0.451172,-0.3574219 1.057617,-0.5419922 1.816406,-0.5507813 0.796875,0.00879 1.420899,0.1699219 1.875,0.4804688 0.445313,0.3134766 0.708985,0.7822266 0.796875,1.40625 z m 5.282226,7.4414063 h -2.53125 V -9.3056641 h 2.53125 v 0.9492188 h -1.382812 v 9.9960937 h 1.382812 z m 8.90625,-2.5898437625 H 50.597656 L 49.507812,-2.8369141 h -3.878906 l -1.03125,2.8359375375 H 43.296875 L 46.871094,-9.3056641 h 1.324218 z M 49.132812,-3.8095703 C 48.365234,-5.8164062 47.9375,-6.9619141 47.84375,-7.2431641 47.75,-7.515625 47.644531,-7.8789062 47.527344,-8.3330078 h -0.03516 c -0.125976,0.6328125 -0.287109,1.2128906 -0.480468,1.734375 l -1.042969,2.7890625 z m 9.407227,5.4375 H 51.895508 V 0.97167969 h 6.644531 z M 64.81543,-9.765625e-4 H 63.666992 V -4.2548828 c -0.0088,-0.5449219 -0.128906,-0.9550781 -0.363281,-1.2304688 -0.234375,-0.2724609 -0.585938,-0.4130859 -1.054688,-0.421875 -0.46875,0 -0.884765,0.1640625 -1.242187,0.4921875 -0.369141,0.328125 -0.550781,0.9082032 -0.550781,1.734375 V -9.765625e-4 H 59.307617 V -9.3056641 h 1.148438 v 3.3398438 c 0.530273,-0.6152344 1.207031,-0.9257813 2.027343,-0.9257813 0.427735,0 0.84668,0.09082 1.253907,0.2695313 0.398437,0.1816406 0.673828,0.4541016 0.832031,0.8203125 0.155273,0.375 0.237305,0.8876953 0.246094,1.5351562 z m 2.859375,0 H 66.526367 V -6.7392578 h 1.148438 z m 0,-8.0039062375 h -1.148438 v -1.3007813 h 1.148438 z m 7.248047,7.10156249 c 0,0.95214844 -0.09961,1.66699219 -0.292969,2.14453121 -0.1875,0.46875 -0.524414,0.8320313 -1.007813,1.0898438 -0.492187,0.2636719 -1.075195,0.3984375 -1.746093,0.3984375 -0.767579,0 -1.403321,-0.1699219 -1.910157,-0.5039063 -0.509765,-0.336914 -0.761718,-0.890625 -0.761718,-1.66406246 l 1.113281,0.1640625 c 0.03809,0.35742186 0.190429,0.62695316 0.457031,0.80859376 0.249023,0.1699219 0.612305,0.2578125 1.089844,0.2578125 0.585937,0 1.019531,-0.1230469 1.300781,-0.3632813 0.263672,-0.234375 0.433594,-0.52734371 0.503906,-0.87890621 0.05274,-0.34570313 0.08496,-0.8203125 0.09375,-1.4296875 -0.500976,0.59472656 -1.125,0.88476562 -1.875,0.8789062475 -0.884765,0 -1.58789,-0.3222656275 -2.109375,-0.9726562475 -0.533203,-0.64746089 -0.796875,-1.46484379 -0.796875,-2.44921879 0,-0.9902343 0.257813,-1.8164062 0.773438,-2.4726562 0.506836,-0.6621094 1.221679,-0.9960938 2.144531,-0.9960938 0.788086,0 1.435547,0.3222657 1.945313,0.9609375 h 0.02344 v -0.8085937 h 1.054688 z m -2.929688,-0.0351563 c 0.483398,0 0.916992,-0.19042969 1.300781,-0.57421879 0.366211,-0.3896484 0.553711,-1.0371094 0.5625,-1.9453125 0,-0.8027344 -0.18164,-1.4208983 -0.539062,-1.8515625 -0.369141,-0.421875 -0.814453,-0.6357422 -1.335938,-0.6445312 -0.547851,0.00879 -0.990234,0.2285157 -1.324218,0.65625 -0.336915,0.4453125 -0.503907,1.0517579 -0.503907,1.8164062 -0.0088,0.8847656 0.169922,1.5292969 0.539063,1.9335937 0.351562,0.4160157 0.785156,0.61816415 1.300781,0.60937509 z M 82.129883,-9.765625e-4 H 80.981445 V -4.2548828 c -0.0088,-0.5449219 -0.128906,-0.9550781 -0.363281,-1.2304688 -0.234375,-0.2724609 -0.585937,-0.4130859 -1.054687,-0.421875 -0.46875,0 -0.884766,0.1640625 -1.242188,0.4921875 -0.369141,0.328125 -0.550781,0.9082032 -0.550781,1.734375 V -9.765625e-4 H 76.62207 V -9.3056641 h 1.148438 v 3.3398438 c 0.530273,-0.6152344 1.207031,-0.9257813 2.027344,-0.9257813 0.427734,0 0.846679,0.09082 1.253906,0.2695313 0.398437,0.1816406 0.673828,0.4541016 0.832031,0.8203125 0.155273,0.375 0.237305,0.8876953 0.246094,1.5351562 z M 85.704102,2.5888672 H 83.18457 V 1.6396484 h 1.371094 V -8.3564453 H 83.18457 v -0.9492188 h 2.519532 z m 3.058593,0 H 87.77832 V -9.3056641 h 0.984375 z M 97.610352,-8.2041016 H 94.52832 V -9.765625e-4 H 93.297852 V -8.2041016 h -3.058594 v -1.1015625 h 7.371094 z m 2.299804,8.2031250375 H 98.761719 V -6.7392578 h 1.148437 z m 0,-8.0039062375 h -1.148437 v -1.3007813 h 1.148437 z m 10.866214,8.0039062375 h -1.14844 V -4.2548828 c 0,-0.3046875 -0.0205,-0.5742188 -0.0586,-0.8085938 -0.0469,-0.2167968 -0.15821,-0.4130859 -0.32813,-0.5859375 -0.17285,-0.1699218 -0.44531,-0.2578125 -0.82031,-0.2578125 -0.4541,0.00879 -0.84082,0.1640625 -1.16016,0.46875 -0.32812,0.3222657 -0.49219,0.8291016 -0.49219,1.5234375 v 3.9140625375 h -1.13671 V -4.3837891 c 0,-0.5771484 -0.10254,-0.9755859 -0.30469,-1.1953125 -0.21094,-0.2167968 -0.50391,-0.328125 -0.87891,-0.328125 -0.49219,0.00879 -0.89648,0.1816407 -1.20703,0.515625 -0.32226,0.3369141 -0.48047,0.9697266 -0.48047,1.8984375 v 3.4921875375 h -1.13672 V -6.7392578 h 1.03125 v 0.9492187 h 0.0234 c 0.45117,-0.7324218 1.125,-1.1015625 2.01563,-1.1015625 0.48339,0 0.89062,0.099609 1.21875,0.2929688 0.31054,0.2050781 0.54199,0.5009766 0.6914,0.890625 0.49805,-0.7880859 1.18946,-1.1835938 2.07422,-1.1835938 0.70313,0.00879 1.22461,0.1992188 1.57031,0.5742188 0.35157,0.375 0.52735,0.9375 0.52735,1.6875 z M 118.31152,-3.0830078 h -5.03906 c 0.0381,0.75 0.25195,1.3212891 0.64453,1.7109375 0.36621,0.39257811 0.83496,0.58593749 1.40625,0.58593749 0.43653,0.008789 0.80274,-0.10546875 1.10156,-0.33984379 0.28711,-0.234375 0.51563,-0.5800781 0.67969,-1.0429687 l 1.17188,0.140625 c -0.1875,0.7119141 -0.53614,1.25097655 -1.04297,1.61718749 -0.50977,0.38378906 -1.14551,0.57421875 -1.91016,0.57421875 -1.0166,0 -1.80469,-0.31054688 -2.36719,-0.9375 -0.57128,-0.61523434 -0.85546,-1.46484374 -0.85546,-2.54296874 0,-1.0546875 0.27539,-1.9130859 0.83203,-2.578125 0.55371,-0.6621094 1.33008,-0.9960938 2.33203,-0.9960938 0.4834,0 0.95508,0.1113282 1.41797,0.328125 0.45117,0.2197266 0.83789,0.5859375 1.16015,1.1015625 0.31055,0.515625 0.46875,1.3095704 0.46875,2.3789063 z m -1.17187,-0.9375 c -0.0469,-0.6796875 -0.25781,-1.171875 -0.63281,-1.4765625 -0.38379,-0.2958984 -0.79688,-0.4482422 -1.24219,-0.4570313 -0.53906,0 -0.98145,0.1816407 -1.32422,0.5390625 -0.35156,0.3691407 -0.55664,0.8320313 -0.60938,1.3945313 z M 8.2460938,-9.3056641 4.6015625,-9.765625e-4 H 3.3476563 L -0.26171875,-9.3056641 H 1.0742187 l 2.4140626,6.7617188 C 3.6669922,-2.1044922 3.828125,-1.6005859 3.96875,-1.0322266 H 3.992187 C 4.1152344,-1.5244141 4.2763672,-2.0283203 4.4726562,-2.5439453 L 6.9921875,-9.3056641 Z M 15.02832,-9.765625e-4 H 13.833008 C 13.71582,-0.21191406 13.636719,-0.48730469 13.598633,-0.83300781 c -0.773438,0.66503906 -1.602539,0.99609375 -2.484375,0.99609375 -0.711914,0 -1.2714846,-0.17871094 -1.6757814,-0.5390625 -0.4160157,-0.3515625 -0.6210938,-0.82031254 -0.6210938,-1.40625004 0,-0.5625 0.1992188,-1.0224609 0.5976563,-1.3828125 0.3896484,-0.3574218 1.0781249,-0.5976562 2.0624999,-0.7148437 l 1.066406,-0.1640625 c 0.389649,-0.061523 0.714844,-0.140625 0.972657,-0.234375 0,-0.3339844 -0.0088,-0.5771484 -0.02344,-0.7265625 -0.02344,-0.140625 -0.08789,-0.2871094 -0.1875,-0.4453125 -0.111328,-0.1464844 -0.27832,-0.2695313 -0.503906,-0.3632813 -0.228516,-0.09375 -0.533203,-0.140625 -0.914063,-0.140625 -0.492187,0 -0.878906,0.09082 -1.160156,0.2695313 -0.290039,0.1875 -0.489258,0.5273437 -0.597656,1.0195312 l -1.1132814,-0.140625 c 0.1171875,-0.6855468 0.4335937,-1.2070312 0.9492187,-1.5585937 0.5068357,-0.3515625 1.2011717,-0.5273438 2.0859377,-0.5273438 0.802734,0.00879 1.40039,0.1289063 1.792969,0.3632813 0.366211,0.2431641 0.597656,0.5332031 0.691406,0.8671875 0.07617,0.3369141 0.120117,0.7734375 0.128906,1.3125 v 1.5351562 c 0,0.9316407 0.01758,1.5556641 0.05859,1.87500004 0.0293,0.328125 0.131836,0.64160156 0.304687,0.9374999975 z M 13.516602,-2.9658203 v -0.4101563 c -0.594727,0.1962891 -1.321289,0.3515625 -2.179688,0.46875 -0.867187,0.1259766 -1.300781,0.4921875 -1.300781,1.1015625 0,0.3134766 0.117187,0.5683594 0.351562,0.7617188 0.225586,0.20507811 0.5625,0.30468749 1.007813,0.30468749 0.5625,0 1.057617,-0.16992188 1.488281,-0.51562499 0.421875,-0.328125 0.632813,-0.8964844 0.632813,-1.7109375 z M 17.55957,-9.765625e-4 H 16.411133 V -9.3056641 h 1.148437 z m 7.186524,0 H 23.726562 V -0.98535156 h -0.03516 c -0.515625,0.76757812 -1.21875,1.1484375 -2.109375,1.1484375 -0.46875,0 -0.902344,-0.11425781 -1.300781,-0.33984375 -0.407227,-0.2109375 -0.676758,-0.50976563 -0.808594,-0.90234379 -0.134765,-0.375 -0.199219,-0.8671875 -0.199219,-1.4765625 v -4.1835937 h 1.148438 v 3.7382812 c 0,0.5947266 0.02637,1.0195313 0.08203,1.2773438 0.05273,0.2666016 0.202149,0.4775391 0.445313,0.6328125 0.234375,0.18164061 0.521484,0.26660155 0.867187,0.25781249 0.427735,0 0.834961,-0.14648438 1.21875,-0.44531249 0.375,-0.2958984 0.5625,-0.9169922 0.5625,-1.8632813 v -3.5976562 h 1.148438 z M 32.351562,-3.0830078 H 27.3125 c 0.03809,0.75 0.251953,1.3212891 0.644531,1.7109375 0.366211,0.39257811 0.834961,0.58593749 1.40625,0.58593749 0.436524,0.008789 0.802735,-0.10546875 1.101563,-0.33984379 0.287109,-0.234375 0.515625,-0.5800781 0.679687,-1.0429687 l 1.171875,0.140625 c -0.1875,0.7119141 -0.536133,1.25097655 -1.042969,1.61718749 -0.509765,0.38378906 -1.145507,0.57421875 -1.910156,0.57421875 -1.016601,0 -1.804687,-0.31054688 -2.367187,-0.9375 -0.571289,-0.61523434 -0.855469,-1.46484374 -0.855469,-2.54296874 0,-1.0546875 0.275391,-1.9130859 0.832031,-2.578125 0.553711,-0.6621094 1.330078,-0.9960938 2.332031,-0.9960938 0.483399,0 0.955079,0.1113282 1.417969,0.328125 0.451172,0.2197266 0.837891,0.5859375 1.160156,1.1015625 0.310547,0.515625 0.46875,1.3095704 0.46875,2.3789063 z m -1.171875,-0.9375 c -0.04687,-0.6796875 -0.257812,-1.171875 -0.632812,-1.4765625 -0.383789,-0.2958984 -0.796875,-0.4482422 -1.242188,-0.4570313 -0.539062,0 -0.981445,0.1816407 -1.324218,0.5390625 -0.351563,0.3691407 -0.556641,0.8320313 -0.609375,1.3945313 z m 6.304688,-0.8320313 c -0.05566,-0.3662109 -0.205078,-0.6445312 -0.445313,-0.8320312 -0.257812,-0.1787109 -0.603515,-0.2695313 -1.03125,-0.2695313 -0.445312,0.00879 -0.796875,0.082031 -1.054687,0.2226563 -0.28125,0.1494141 -0.418945,0.3632812 -0.410156,0.6445312 0,0.2666016 0.108398,0.4570313 0.328125,0.5742188 0.202148,0.1171875 0.621093,0.2578125 1.253906,0.421875 0.708984,0.1875 1.245117,0.3486328 1.605469,0.4804687 0.342773,0.140625 0.615234,0.3369141 0.820312,0.5859375 0.19336,0.2519532 0.292969,0.6035157 0.292969,1.0546875 0,0.6035157 -0.246094,1.10742191 -0.738281,1.51171879 -0.492188,0.41601562 -1.148438,0.62109375 -1.96875,0.62109375 -0.852539,0 -1.517578,-0.18164063 -1.992188,-0.55078125 -0.486328,-0.35742188 -0.782226,-0.90234379 -0.890625,-1.62890629 l 1.136719,-0.1640625 c 0.05273,0.46875 0.228516,0.8203125 0.527344,1.0546875 0.28125,0.23437504 0.682617,0.34863285 1.207031,0.33984379 0.498047,0 0.881836,-0.10546875 1.148437,-0.31640629 0.272461,-0.2021484 0.410157,-0.4570312 0.410157,-0.7617187 -0.0088,-0.2021484 -0.07031,-0.3632813 -0.1875,-0.4804688 -0.125977,-0.1230468 -0.278321,-0.2167968 -0.457032,-0.28125 -0.196289,-0.052734 -0.691406,-0.1787109 -1.488281,-0.375 -0.796875,-0.1933593 -1.347656,-0.4570312 -1.652344,-0.7851562 -0.313476,-0.3193359 -0.46582,-0.7060547 -0.457031,-1.1601563 -0.0088,-0.5625 0.213867,-1.0253906 0.667969,-1.3945312 0.451172,-0.3574219 1.057617,-0.5419922 1.816406,-0.5507813 0.796875,0.00879 1.420899,0.1699219 1.875,0.4804688 0.445313,0.3134766 0.708985,0.7822266 0.796875,1.40625 z m 5.282227,7.4414063 h -2.53125 V -9.3056641 h 2.53125 v 0.9492188 h -1.382813 v 9.9960937 h 1.382813 z m 8.90625,-2.5898437625 H 50.27832 L 49.188477,-2.8369141 H 45.30957 L 44.27832,-9.765625e-4 H 42.977539 L 46.551758,-9.3056641 h 1.324219 z M 48.813477,-3.8095703 c -0.767579,-2.0068359 -1.195313,-3.1523438 -1.289063,-3.4335938 -0.09375,-0.2724609 -0.199219,-0.6357421 -0.316406,-1.0898437 h -0.03516 c -0.125977,0.6328125 -0.28711,1.2128906 -0.480469,1.734375 l -1.042969,2.7890625 z m 9.404296,5.4375 H 51.573242 V 0.97167969 h 6.644531 z M 64.496094,-9.765625e-4 H 63.347656 V -4.2548828 c -0.0088,-0.5449219 -0.128906,-0.9550781 -0.363281,-1.2304688 -0.234375,-0.2724609 -0.585938,-0.4130859 -1.054688,-0.421875 -0.46875,0 -0.884765,0.1640625 -1.242187,0.4921875 -0.369141,0.328125 -0.550781,0.9082032 -0.550781,1.734375 V -9.765625e-4 H 58.988281 V -9.3056641 h 1.148438 v 3.3398438 c 0.530273,-0.6152344 1.207031,-0.9257813 2.027343,-0.9257813 0.427735,0 0.84668,0.09082 1.253907,0.2695313 0.398437,0.1816406 0.673828,0.4541016 0.832031,0.8203125 0.155273,0.375 0.237305,0.8876953 0.246094,1.5351562 z m 2.859375,0 H 66.207031 V -6.7392578 h 1.148438 z m 0,-8.0039062375 h -1.148438 v -1.3007813 h 1.148438 z m 7.245117,7.10156249 c 0,0.95214844 -0.09961,1.66699219 -0.292969,2.14453121 -0.1875,0.46875 -0.524414,0.8320313 -1.007812,1.0898438 -0.492188,0.2636719 -1.075196,0.3984375 -1.746094,0.3984375 -0.767578,0 -1.40332,-0.1699219 -1.910156,-0.5039063 -0.509766,-0.336914 -0.761719,-0.890625 -0.761719,-1.66406246 l 1.113281,0.1640625 c 0.03809,0.35742186 0.19043,0.62695316 0.457031,0.80859376 0.249024,0.1699219 0.612305,0.2578125 1.089844,0.2578125 0.585938,0 1.019531,-0.1230469 1.300781,-0.3632813 0.263672,-0.234375 0.433594,-0.52734371 0.503907,-0.87890621 0.05273,-0.34570313 0.08496,-0.8203125 0.09375,-1.4296875 -0.500977,0.59472656 -1.125,0.88476562 -1.875,0.8789062475 -0.884766,0 -1.587891,-0.3222656275 -2.109375,-0.9726562475 C 68.922852,-1.6210937 68.65918,-2.4384766 68.65918,-3.4228516 c 0,-0.9902343 0.257812,-1.8164062 0.773437,-2.4726562 0.506836,-0.6621094 1.22168,-0.9960938 2.144531,-0.9960938 0.788086,0 1.435547,0.3222657 1.945313,0.9609375 h 0.02344 v -0.8085937 h 1.054688 z m -2.929688,-0.0351563 c 0.483399,0 0.916993,-0.19042969 1.300782,-0.57421879 0.366211,-0.3896484 0.553711,-1.0371094 0.5625,-1.9453125 0,-0.8027344 -0.181641,-1.4208983 -0.539063,-1.8515625 -0.36914,-0.421875 -0.814453,-0.6357422 -1.335937,-0.6445312 -0.547852,0.00879 -0.990235,0.2285157 -1.324219,0.65625 -0.336914,0.4453125 -0.503906,1.0517579 -0.503906,1.8164062 -0.0088,0.8847656 0.169922,1.5292969 0.539062,1.9335937 0.351563,0.4160157 0.785156,0.61816415 1.300781,0.60937509 z M 81.807617,-9.765625e-4 H 80.65918 V -4.2548828 c -0.0088,-0.5449219 -0.128907,-0.9550781 -0.363282,-1.2304688 -0.234375,-0.2724609 -0.585937,-0.4130859 -1.054687,-0.421875 -0.46875,0 -0.884766,0.1640625 -1.242188,0.4921875 -0.36914,0.328125 -0.550781,0.9082032 -0.550781,1.734375 V -9.765625e-4 H 76.299805 V -9.3056641 h 1.148437 v 3.3398438 c 0.530274,-0.6152344 1.207031,-0.9257813 2.027344,-0.9257813 0.427734,0 0.84668,0.09082 1.253906,0.2695313 0.398438,0.1816406 0.673828,0.4541016 0.832031,0.8203125 0.155274,0.375 0.237305,0.8876953 0.246094,1.5351562 z M 85.381836,2.5888672 H 82.862305 V 1.6396484 h 1.371093 v -9.9960937 h -1.371093 v -0.9492188 h 2.519531 z m 3.058594,0 H 87.456055 V -9.3056641 H 88.44043 Z M 97.288086,-8.2041016 H 94.206055 V -9.765625e-4 H 92.975586 V -8.2041016 h -3.058594 v -1.1015625 h 7.371094 z M 99.59082,-9.765625e-4 H 98.442383 V -6.7392578 h 1.148437 z m 0,-8.0039062375 h -1.148437 v -1.3007813 h 1.148437 z m 10.86621,8.0039062375 h -1.14844 V -4.2548828 c 0,-0.3046875 -0.0205,-0.5742188 -0.0586,-0.8085938 -0.0469,-0.2167968 -0.1582,-0.4130859 -0.32812,-0.5859375 -0.17286,-0.1699218 -0.44532,-0.2578125 -0.82032,-0.2578125 -0.4541,0.00879 -0.84082,0.1640625 -1.16015,0.46875 -0.32813,0.3222657 -0.49219,0.8291016 -0.49219,1.5234375 V -9.765625e-4 H 105.3125 V -4.3837891 c 0,-0.5771484 -0.10254,-0.9755859 -0.30469,-1.1953125 -0.21093,-0.2167968 -0.5039,-0.328125 -0.8789,-0.328125 -0.49219,0.00879 -0.89649,0.1816407 -1.20703,0.515625 -0.32227,0.3369141 -0.48047,0.9697266 -0.48047,1.8984375 v 3.4921875375 h -1.13672 V -6.7392578 h 1.03125 v 0.9492187 h 0.0234 c 0.45117,-0.7324218 1.125,-1.1015625 2.01562,-1.1015625 0.4834,0 0.89063,0.099609 1.21875,0.2929688 0.31055,0.2050781 0.54199,0.5009766 0.69141,0.890625 0.49804,-0.7880859 1.18945,-1.1835938 2.07422,-1.1835938 0.70312,0.00879 1.2246,0.1992188 1.57031,0.5742188 0.35156,0.375 0.52734,0.9375 0.52734,1.6875 z M 117.99219,-3.0830078 h -5.03906 c 0.0381,0.75 0.25195,1.3212891 0.64453,1.7109375 0.36621,0.39257811 0.83496,0.58593749 1.40625,0.58593749 0.43652,0.008789 0.80273,-0.10546875 1.10156,-0.33984379 0.28711,-0.234375 0.51562,-0.5800781 0.67969,-1.0429687 l 1.17187,0.140625 c -0.1875,0.7119141 -0.53613,1.25097655 -1.04297,1.61718749 -0.50976,0.38378906 -1.14551,0.57421875 -1.91015,0.57421875 -1.01661,0 -1.80469,-0.31054688 -2.36719,-0.9375 -0.57129,-0.61523434 -0.85547,-1.46484374 -0.85547,-2.54296874 0,-1.0546875 0.27539,-1.9130859 0.83203,-2.578125 0.55371,-0.6621094 1.33008,-0.9960938 2.33203,-0.9960938 0.4834,0 0.95508,0.1113282 1.41797,0.328125 0.45117,0.2197266 0.83789,0.5859375 1.16016,1.1015625 0.31054,0.515625 0.46875,1.3095704 0.46875,2.3789063 z m -1.17188,-0.9375 c -0.0469,-0.6796875 -0.25781,-1.171875 -0.63281,-1.4765625 -0.38379,-0.2958984 -0.79687,-0.4482422 -1.24219,-0.4570313 -0.53906,0 -0.98144,0.1816407 -1.32422,0.5390625 -0.35156,0.3691407 -0.55664,0.8320313 -0.60937,1.3945313 z m 0,0"
       style="fill:#000000;fill-opacity:1;fill-rule:nonzero;stroke:none"
       aria-label="Values[A_high]|TimeValues[A_high]|Time"
       transform="matrix(1.3333333,0,0,1.3333333,481.33333,546.52083)" />
    <g
       id="g71"
       clip-path="url(#clipPath72)" />
    <path
       id="path73"
       d="m 322,405 h 32 v 6 h -32 z"
       style="fill:#ff0000;fill-opacity:0.25098;fill-rule:nonzero;stroke:none"
       transform="scale(1.3333333)"
       clip-path="url(#clipPath74)" />
    <path
       id="path75"
       d="m 322,405 h 37"
       style="fill:none;stroke:#ff0000;stroke-width:1.2;stroke-linecap:square;stroke-linejoin:bevel;stroke-miterlimit:10;stroke-dasharray:none;stroke-opacity:1"
       transform="scale(1.3333333)"
       clip-path="url(#clipPath74)" />
  </g>
</svg>
