<?xml version="1.0" encoding="UTF-8" standalone="no"?>
<!DOCTYPE svg PUBLIC "-//W3C//DTD SVG 1.1//EN"
 "http://www.w3.org/Graphics/SVG/1.1/DTD/svg11.dtd">
<!-- Generated by graphviz version 2.43.0 (0)
 -->
<!-- Title: CListOfLayouts Pages: 1 -->
<svg width="278pt" height="380pt"
 viewBox="0.00 0.00 277.50 380.00" xmlns="http://www.w3.org/2000/svg" xmlns:xlink="http://www.w3.org/1999/xlink">
<g id="graph0" class="graph" transform="scale(1 1) rotate(0) translate(4 376)">
<title>CListOfLayouts</title>
<polygon fill="white" stroke="transparent" points="-4,4 -4,-376 273.5,-376 273.5,4 -4,4"/>
<!-- Node1 -->
<g id="node1" class="node">
<title>Node1</title>
<g id="a_node1"><a xlink:title=" ">
<polygon fill="#bfbfbf" stroke="black" points="23.5,-0.5 23.5,-19.5 108.5,-19.5 108.5,-0.5 23.5,-0.5"/>
<text text-anchor="middle" x="66" y="-7.5" font-family="FreeSans" font-size="10.00">CListOfLayouts</text>
</a>
</g>
</g>
<!-- Node2 -->
<g id="node2" class="node">
<title>Node2</title>
<g id="a_node2"><a xlink:href="../../dd/d24/classCDataVectorN.html" target="_top" xlink:title=" ">
<polygon fill="white" stroke="black" points="0,-57.5 0,-76.5 132,-76.5 132,-57.5 0,-57.5"/>
<text text-anchor="middle" x="66" y="-64.5" font-family="FreeSans" font-size="10.00">CDataVectorN&lt; CLayout &gt;</text>
</a>
</g>
</g>
<!-- Node2&#45;&gt;Node1 -->
<g id="edge1" class="edge">
<title>Node2&#45;&gt;Node1</title>
<path fill="none" stroke="midnightblue" d="M66,-47.12C66,-37.82 66,-27.06 66,-19.71"/>
<polygon fill="midnightblue" stroke="midnightblue" points="62.5,-47.41 66,-57.41 69.5,-47.41 62.5,-47.41"/>
</g>
<!-- Node3 -->
<g id="node3" class="node">
<title>Node3</title>
<g id="a_node3"><a xlink:href="../../db/d30/classCDataVector.html" target="_top" xlink:title=" ">
<polygon fill="white" stroke="black" points="4,-181.5 4,-200.5 120,-200.5 120,-181.5 4,-181.5"/>
<text text-anchor="middle" x="62" y="-188.5" font-family="FreeSans" font-size="10.00">CDataVector&lt; CType &gt;</text>
</a>
</g>
</g>
<!-- Node3&#45;&gt;Node2 -->
<g id="edge2" class="edge">
<title>Node3&#45;&gt;Node2</title>
<path fill="none" stroke="midnightblue" d="M62.62,-171.19C63.5,-144.4 65.07,-96.31 65.71,-76.69"/>
<polygon fill="midnightblue" stroke="midnightblue" points="59.12,-171.12 62.29,-181.23 66.11,-171.35 59.12,-171.12"/>
</g>
<!-- Node9 -->
<g id="node9" class="node">
<title>Node9</title>
<g id="a_node9"><a xlink:href="../../dd/d24/classCDataVectorN.html" target="_top" xlink:title=" ">
<polygon fill="white" stroke="black" points="78,-124.5 78,-143.5 202,-143.5 202,-124.5 78,-124.5"/>
<text text-anchor="middle" x="140" y="-131.5" font-family="FreeSans" font-size="10.00">CDataVectorN&lt; CType &gt;</text>
</a>
</g>
</g>
<!-- Node3&#45;&gt;Node9 -->
<g id="edge9" class="edge">
<title>Node3&#45;&gt;Node9</title>
<path fill="none" stroke="midnightblue" d="M82.51,-175.54C96.95,-165.35 115.79,-152.07 127.9,-143.53"/>
<polygon fill="midnightblue" stroke="midnightblue" points="80.34,-172.78 74.19,-181.41 84.38,-178.5 80.34,-172.78"/>
</g>
<!-- Node4 -->
<g id="node4" class="node">
<title>Node4</title>
<g id="a_node4"><a xlink:title=" ">
<polygon fill="white" stroke="#bfbfbf" points="8,-238.5 8,-257.5 92,-257.5 92,-238.5 8,-238.5"/>
<text text-anchor="middle" x="50" y="-245.5" font-family="FreeSans" font-size="10.00">std::vector&lt; T &gt;</text>
</a>
</g>
</g>
<!-- Node4&#45;&gt;Node3 -->
<g id="edge3" class="edge">
<title>Node4&#45;&gt;Node3</title>
<path fill="none" stroke="darkgreen" d="M54.05,-228.42C56.1,-219.05 58.48,-208.14 60.1,-200.71"/>
<polygon fill="darkgreen" stroke="darkgreen" points="50.59,-227.89 51.88,-238.41 57.43,-229.38 50.59,-227.89"/>
</g>
<!-- Node5 -->
<g id="node5" class="node">
<title>Node5</title>
<g id="a_node5"><a xlink:href="../../d3/db9/classCDataContainer.html" target="_top" xlink:title=" ">
<polygon fill="white" stroke="black" points="110.5,-238.5 110.5,-257.5 195.5,-257.5 195.5,-238.5 110.5,-238.5"/>
<text text-anchor="middle" x="153" y="-245.5" font-family="FreeSans" font-size="10.00">CDataContainer</text>
</a>
</g>
</g>
<!-- Node5&#45;&gt;Node3 -->
<g id="edge4" class="edge">
<title>Node5&#45;&gt;Node3</title>
<path fill="none" stroke="midnightblue" d="M130.02,-233.11C113.05,-222.86 90.51,-209.23 76.12,-200.53"/>
<polygon fill="midnightblue" stroke="midnightblue" points="128.41,-236.23 138.78,-238.41 132.03,-230.24 128.41,-236.23"/>
</g>
<!-- Node6 -->
<g id="node6" class="node">
<title>Node6</title>
<g id="a_node6"><a xlink:href="../../d1/d6b/classCDataObject.html" target="_top" xlink:title=" ">
<polygon fill="white" stroke="black" points="117,-295.5 117,-314.5 189,-314.5 189,-295.5 117,-295.5"/>
<text text-anchor="middle" x="153" y="-302.5" font-family="FreeSans" font-size="10.00">CDataObject</text>
</a>
</g>
</g>
<!-- Node6&#45;&gt;Node5 -->
<g id="edge5" class="edge">
<title>Node6&#45;&gt;Node5</title>
<path fill="none" stroke="midnightblue" d="M153,-285.12C153,-275.82 153,-265.06 153,-257.71"/>
<polygon fill="midnightblue" stroke="midnightblue" points="149.5,-285.41 153,-295.41 156.5,-285.41 149.5,-285.41"/>
</g>
<!-- Node7 -->
<g id="node7" class="node">
<title>Node7</title>
<g id="a_node7"><a xlink:href="../../df/dfa/classCObjectInterface.html" target="_top" xlink:title=" ">
<polygon fill="white" stroke="black" points="48,-352.5 48,-371.5 138,-371.5 138,-352.5 48,-352.5"/>
<text text-anchor="middle" x="93" y="-359.5" font-family="FreeSans" font-size="10.00">CObjectInterface</text>
</a>
</g>
</g>
<!-- Node7&#45;&gt;Node6 -->
<g id="edge6" class="edge">
<title>Node7&#45;&gt;Node6</title>
<path fill="none" stroke="midnightblue" d="M110,-345.42C120.85,-335.47 134.52,-322.94 143.49,-314.71"/>
<polygon fill="midnightblue" stroke="midnightblue" points="107.38,-343.07 102.38,-352.41 112.11,-348.23 107.38,-343.07"/>
</g>
<!-- Node8 -->
<g id="node8" class="node">
<title>Node8</title>
<g id="a_node8"><a xlink:href="../../d8/d53/classCUndoObjectInterface.html" target="_top" xlink:title=" ">
<polygon fill="white" stroke="black" points="156.5,-352.5 156.5,-371.5 269.5,-371.5 269.5,-352.5 156.5,-352.5"/>
<text text-anchor="middle" x="213" y="-359.5" font-family="FreeSans" font-size="10.00">CUndoObjectInterface</text>
</a>
</g>
</g>
<!-- Node8&#45;&gt;Node6 -->
<g id="edge7" class="edge">
<title>Node8&#45;&gt;Node6</title>
<path fill="none" stroke="midnightblue" d="M196,-345.42C185.15,-335.47 171.48,-322.94 162.51,-314.71"/>
<polygon fill="midnightblue" stroke="midnightblue" points="193.89,-348.23 203.62,-352.41 198.62,-343.07 193.89,-348.23"/>
</g>
<!-- Node9&#45;&gt;Node2 -->
<g id="edge8" class="edge">
<title>Node9&#45;&gt;Node2</title>
<path fill="none" stroke="orange" stroke-dasharray="5,2" d="M122.19,-117.36C107.64,-104.58 87.62,-86.99 75.82,-76.63"/>
<polygon fill="orange" stroke="orange" points="120.2,-120.26 130.02,-124.23 124.82,-115 120.2,-120.26"/>
<text text-anchor="middle" x="135.5" y="-98" font-family="FreeSans" font-size="10.00"> &lt; CLayout &gt;</text>
</g>
</g>
</svg>
