<?xml version="1.0" encoding="UTF-8" standalone="no"?>
<!DOCTYPE svg PUBLIC "-//W3C//DTD SVG 1.1//EN"
 "http://www.w3.org/Graphics/SVG/1.1/DTD/svg11.dtd">
<!-- Generated by graphviz version 2.43.0 (0)
 -->
<!-- Title: CCopasiXMLInterface Pages: 1 -->
<svg width="196pt" height="95pt"
 viewBox="0.00 0.00 195.50 95.00" xmlns="http://www.w3.org/2000/svg" xmlns:xlink="http://www.w3.org/1999/xlink">
<g id="graph0" class="graph" transform="scale(1 1) rotate(0) translate(4 91)">
<title>CCopasiXMLInterface</title>
<polygon fill="white" stroke="transparent" points="-4,4 -4,-91 191.5,-91 191.5,4 -4,4"/>
<!-- Node1 -->
<g id="node1" class="node">
<title>Node1</title>
<g id="a_node1"><a xlink:title=" ">
<polygon fill="#bfbfbf" stroke="black" points="42,-67.5 42,-86.5 155,-86.5 155,-67.5 42,-67.5"/>
<text text-anchor="middle" x="98.5" y="-74.5" font-family="FreeSans" font-size="10.00">CCopasiXMLInterface</text>
</a>
</g>
</g>
<!-- Node2 -->
<g id="node2" class="node">
<title>Node2</title>
<g id="a_node2"><a xlink:href="../../de/dc4/classCConfigurationFile_1_1CXML.html" target="_top" xlink:title=" ">
<polygon fill="white" stroke="black" points="0,-0.5 0,-30.5 95,-30.5 95,-0.5 0,-0.5"/>
<text text-anchor="start" x="8" y="-18.5" font-family="FreeSans" font-size="10.00">CConfigurationFile</text>
<text text-anchor="middle" x="47.5" y="-7.5" font-family="FreeSans" font-size="10.00">::CXML</text>
</a>
</g>
</g>
<!-- Node1&#45;&gt;Node2 -->
<g id="edge1" class="edge">
<title>Node1&#45;&gt;Node2</title>
<path fill="none" stroke="midnightblue" d="M84.62,-59.81C76.77,-50.65 67.05,-39.3 59.52,-30.52"/>
<polygon fill="midnightblue" stroke="midnightblue" points="82.03,-62.16 91.19,-67.48 87.34,-57.6 82.03,-62.16"/>
</g>
<!-- Node3 -->
<g id="node3" class="node">
<title>Node3</title>
<g id="a_node3"><a xlink:href="../../d8/d76/classCCopasiXML.html" target="_top" xlink:title=" ">
<polygon fill="white" stroke="black" points="113.5,-6 113.5,-25 187.5,-25 187.5,-6 113.5,-6"/>
<text text-anchor="middle" x="150.5" y="-13" font-family="FreeSans" font-size="10.00">CCopasiXML</text>
</a>
</g>
</g>
<!-- Node1&#45;&gt;Node3 -->
<g id="edge2" class="edge">
<title>Node1&#45;&gt;Node3</title>
<path fill="none" stroke="midnightblue" d="M112.77,-59.67C122.58,-48.45 135.19,-34.02 143.06,-25.01"/>
<polygon fill="midnightblue" stroke="midnightblue" points="109.9,-57.64 105.95,-67.48 115.17,-62.25 109.9,-57.64"/>
</g>
</g>
</svg>
