<?xml version="1.0" encoding="UTF-8" standalone="no"?>
<!DOCTYPE svg PUBLIC "-//W3C//DTD SVG 1.1//EN"
 "http://www.w3.org/Graphics/SVG/1.1/DTD/svg11.dtd">
<!-- Generated by graphviz version 2.43.0 (0)
 -->
<!-- Title: CODEExporter Pages: 1 -->
<svg width="344pt" height="84pt"
 viewBox="0.00 0.00 343.50 84.00" xmlns="http://www.w3.org/2000/svg" xmlns:xlink="http://www.w3.org/1999/xlink">
<g id="graph0" class="graph" transform="scale(1 1) rotate(0) translate(4 80)">
<title>CODEExporter</title>
<polygon fill="white" stroke="transparent" points="-4,4 -4,-80 339.5,-80 339.5,4 -4,4"/>
<!-- Node1 -->
<g id="node1" class="node">
<title>Node1</title>
<g id="a_node1"><a xlink:title=" ">
<polygon fill="#bfbfbf" stroke="black" points="115.5,-56.5 115.5,-75.5 194.5,-75.5 194.5,-56.5 115.5,-56.5"/>
<text text-anchor="middle" x="155" y="-63.5" font-family="FreeSans" font-size="10.00">CODEExporter</text>
</a>
</g>
</g>
<!-- Node2 -->
<g id="node2" class="node">
<title>Node2</title>
<g id="a_node2"><a xlink:href="../../d7/d7c/classCODEExporterBM.html" target="_top" xlink:title=" ">
<polygon fill="white" stroke="black" points="0,-0.5 0,-19.5 94,-19.5 94,-0.5 0,-0.5"/>
<text text-anchor="middle" x="47" y="-7.5" font-family="FreeSans" font-size="10.00">CODEExporterBM</text>
</a>
</g>
</g>
<!-- Node1&#45;&gt;Node2 -->
<g id="edge1" class="edge">
<title>Node1&#45;&gt;Node2</title>
<path fill="none" stroke="midnightblue" d="M128.45,-51.73C108.45,-41.73 81.61,-28.31 64.31,-19.65"/>
<polygon fill="midnightblue" stroke="midnightblue" points="127.14,-54.98 137.65,-56.32 130.27,-48.72 127.14,-54.98"/>
</g>
<!-- Node3 -->
<g id="node3" class="node">
<title>Node3</title>
<g id="a_node3"><a xlink:href="../../da/d41/classCODEExporterC.html" target="_top" xlink:title=" ">
<polygon fill="white" stroke="black" points="112,-0.5 112,-19.5 198,-19.5 198,-0.5 112,-0.5"/>
<text text-anchor="middle" x="155" y="-7.5" font-family="FreeSans" font-size="10.00">CODEExporterC</text>
</a>
</g>
</g>
<!-- Node1&#45;&gt;Node3 -->
<g id="edge2" class="edge">
<title>Node1&#45;&gt;Node3</title>
<path fill="none" stroke="midnightblue" d="M155,-45.8C155,-36.91 155,-26.78 155,-19.75"/>
<polygon fill="midnightblue" stroke="midnightblue" points="151.5,-46.08 155,-56.08 158.5,-46.08 151.5,-46.08"/>
</g>
<!-- Node4 -->
<g id="node4" class="node">
<title>Node4</title>
<g id="a_node4"><a xlink:href="../../dc/d4e/classCODEExporterXPPAUT.html" target="_top" xlink:title=" ">
<polygon fill="white" stroke="black" points="216.5,-0.5 216.5,-19.5 335.5,-19.5 335.5,-0.5 216.5,-0.5"/>
<text text-anchor="middle" x="276" y="-7.5" font-family="FreeSans" font-size="10.00">CODEExporterXPPAUT</text>
</a>
</g>
</g>
<!-- Node1&#45;&gt;Node4 -->
<g id="edge3" class="edge">
<title>Node1&#45;&gt;Node4</title>
<path fill="none" stroke="midnightblue" d="M183.31,-52.37C205.97,-42.26 237.13,-28.35 256.92,-19.52"/>
<polygon fill="midnightblue" stroke="midnightblue" points="181.88,-49.17 174.17,-56.44 184.73,-55.56 181.88,-49.17"/>
</g>
</g>
</svg>
