<?xml version="1.0" encoding="UTF-8" standalone="no"?>
<!DOCTYPE svg PUBLIC "-//W3C//DTD SVG 1.1//EN"
 "http://www.w3.org/Graphics/SVG/1.1/DTD/svg11.dtd">
<!-- Generated by graphviz version 2.43.0 (0)
 -->
<!-- Title: CDataObject Pages: 1 -->
<svg width="865pt" height="1069pt"
 viewBox="0.00 0.00 865.00 1069.00" xmlns="http://www.w3.org/2000/svg" xmlns:xlink="http://www.w3.org/1999/xlink">
<g id="graph0" class="graph" transform="scale(1 1) rotate(0) translate(4 1065)">
<title>CDataObject</title>
<polygon fill="white" stroke="transparent" points="-4,4 -4,-1065 861,-1065 861,4 -4,4"/>
<!-- Node1 -->
<g id="node1" class="node">
<title>Node1</title>
<g id="a_node1"><a xlink:title=" ">
<polygon fill="#bfbfbf" stroke="black" points="150,-386.5 150,-405.5 222,-405.5 222,-386.5 150,-386.5"/>
<text text-anchor="middle" x="186" y="-393.5" font-family="FreeSans" font-size="10.00">CDataObject</text>
</a>
</g>
</g>
<!-- Node4 -->
<g id="node4" class="node">
<title>Node4</title>
<g id="a_node4"><a xlink:href="../../d5/dff/classCDataObjectReference.html" target="_top" xlink:title=" ">
<polygon fill="white" stroke="black" points="529.5,-1017 529.5,-1047 645.5,-1047 645.5,-1017 529.5,-1017"/>
<text text-anchor="start" x="537.5" y="-1035" font-family="FreeSans" font-size="10.00">CDataObjectReference</text>
<text text-anchor="middle" x="587.5" y="-1024" font-family="FreeSans" font-size="10.00">&lt; C_FLOAT64 &gt;</text>
</a>
</g>
</g>
<!-- Node1&#45;&gt;Node4 -->
<g id="edge3" class="edge">
<title>Node1&#45;&gt;Node4</title>
<path fill="none" stroke="midnightblue" d="M187.61,-415.54C190.94,-516.44 208.83,-975.12 259,-1010 339.24,-1065.79 458.95,-1056.7 529.24,-1044.63"/>
<polygon fill="midnightblue" stroke="midnightblue" points="191.1,-415.4 187.28,-405.51 184.11,-415.62 191.1,-415.4"/>
</g>
<!-- Node7 -->
<g id="node7" class="node">
<title>Node7</title>
<g id="a_node7"><a xlink:href="../../d5/dff/classCDataObjectReference.html" target="_top" xlink:title=" ">
<polygon fill="white" stroke="black" points="529.5,-964 529.5,-994 645.5,-994 645.5,-964 529.5,-964"/>
<text text-anchor="start" x="537.5" y="-982" font-family="FreeSans" font-size="10.00">CDataObjectReference</text>
<text text-anchor="middle" x="587.5" y="-971" font-family="FreeSans" font-size="10.00">&lt; std::string &gt;</text>
</a>
</g>
</g>
<!-- Node1&#45;&gt;Node7 -->
<g id="edge6" class="edge">
<title>Node1&#45;&gt;Node7</title>
<path fill="none" stroke="midnightblue" d="M187.89,-415.8C190.94,-466.3 204.05,-602.72 259,-699 337.06,-835.78 362.62,-885.61 504,-955 511.9,-958.88 520.54,-962.24 529.16,-965.13"/>
<polygon fill="midnightblue" stroke="midnightblue" points="191.38,-415.42 187.35,-405.62 184.39,-415.8 191.38,-415.42"/>
</g>
<!-- Node8 -->
<g id="node8" class="node">
<title>Node8</title>
<g id="a_node8"><a xlink:href="../../d1/d26/classCArrayElementReference.html" target="_top" xlink:title=" ">
<polygon fill="white" stroke="black" points="264,-670.5 264,-689.5 389,-689.5 389,-670.5 264,-670.5"/>
<text text-anchor="middle" x="326.5" y="-677.5" font-family="FreeSans" font-size="10.00">CArrayElementReference</text>
</a>
</g>
</g>
<!-- Node1&#45;&gt;Node8 -->
<g id="edge7" class="edge">
<title>Node1&#45;&gt;Node8</title>
<path fill="none" stroke="midnightblue" d="M189.54,-415.74C197.14,-471.46 221.47,-628.03 259,-661 263.42,-664.88 268.58,-667.98 274.05,-670.44"/>
<polygon fill="midnightblue" stroke="midnightblue" points="193,-415.19 188.21,-405.73 186.06,-416.11 193,-415.19"/>
</g>
<!-- Node9 -->
<g id="node9" class="node">
<title>Node9</title>
<g id="a_node9"><a xlink:href="../../d1/d4d/classCCopasiTask_1_1CDescription.html" target="_top" xlink:title=" ">
<polygon fill="white" stroke="black" points="259,-632.5 259,-651.5 394,-651.5 394,-632.5 259,-632.5"/>
<text text-anchor="middle" x="326.5" y="-639.5" font-family="FreeSans" font-size="10.00">CCopasiTask::CDescription</text>
</a>
</g>
</g>
<!-- Node1&#45;&gt;Node9 -->
<g id="edge8" class="edge">
<title>Node1&#45;&gt;Node9</title>
<path fill="none" stroke="midnightblue" d="M186.9,-415.64C187.83,-459.99 196.71,-568.28 259,-623 263.42,-626.88 268.58,-629.98 274.05,-632.44"/>
<polygon fill="midnightblue" stroke="midnightblue" points="190.4,-415.56 186.81,-405.59 183.4,-415.62 190.4,-415.56"/>
</g>
<!-- Node10 -->
<g id="node10" class="node">
<title>Node10</title>
<g id="a_node10"><a xlink:href="../../df/d88/classCCopasiTask_1_1CResult.html" target="_top" xlink:title=" ">
<polygon fill="white" stroke="black" points="269.5,-594.5 269.5,-613.5 383.5,-613.5 383.5,-594.5 269.5,-594.5"/>
<text text-anchor="middle" x="326.5" y="-601.5" font-family="FreeSans" font-size="10.00">CCopasiTask::CResult</text>
</a>
</g>
</g>
<!-- Node1&#45;&gt;Node10 -->
<g id="edge9" class="edge">
<title>Node1&#45;&gt;Node10</title>
<path fill="none" stroke="midnightblue" d="M188.62,-416.01C192.87,-454.74 207.84,-540.06 259,-585 263.42,-588.88 268.58,-591.98 274.05,-594.44"/>
<polygon fill="midnightblue" stroke="midnightblue" points="192.06,-415.21 187.62,-405.59 185.09,-415.88 192.06,-415.21"/>
</g>
<!-- Node11 -->
<g id="node11" class="node">
<title>Node11</title>
<g id="a_node11"><a xlink:href="../../d1/db9/classCCopasiTimer.html" target="_top" xlink:title=" ">
<polygon fill="white" stroke="black" points="287.5,-556.5 287.5,-575.5 365.5,-575.5 365.5,-556.5 287.5,-556.5"/>
<text text-anchor="middle" x="326.5" y="-563.5" font-family="FreeSans" font-size="10.00">CCopasiTimer</text>
</a>
</g>
</g>
<!-- Node1&#45;&gt;Node11 -->
<g id="edge10" class="edge">
<title>Node1&#45;&gt;Node11</title>
<path fill="none" stroke="midnightblue" d="M190.95,-415.84C198.42,-448.17 217.74,-512.1 259,-547 266.98,-553.75 277.21,-558.1 287.25,-560.91"/>
<polygon fill="midnightblue" stroke="midnightblue" points="194.32,-414.85 188.78,-405.82 187.47,-416.33 194.32,-414.85"/>
</g>
<!-- Node12 -->
<g id="node12" class="node">
<title>Node12</title>
<g id="a_node12"><a xlink:href="../../d3/db9/classCDataContainer.html" target="_top" xlink:title=" ">
<polygon fill="white" stroke="red" points="284,-518.5 284,-537.5 369,-537.5 369,-518.5 284,-518.5"/>
<text text-anchor="middle" x="326.5" y="-525.5" font-family="FreeSans" font-size="10.00">CDataContainer</text>
</a>
</g>
</g>
<!-- Node1&#45;&gt;Node12 -->
<g id="edge11" class="edge">
<title>Node1&#45;&gt;Node12</title>
<path fill="none" stroke="midnightblue" d="M194.11,-415.09C204.49,-440.35 226.21,-484.54 259,-509 266.31,-514.46 275.15,-518.35 283.95,-521.12"/>
<polygon fill="midnightblue" stroke="midnightblue" points="197.27,-413.56 190.35,-405.54 190.75,-416.12 197.27,-413.56"/>
</g>
<!-- Node239 -->
<g id="node36" class="node">
<title>Node239</title>
<g id="a_node36"><a xlink:href="../../d7/db7/classCDataMatrixReference.html" target="_top" xlink:title=" ">
<polygon fill="white" stroke="black" points="269.5,-469 269.5,-499 383.5,-499 383.5,-469 269.5,-469"/>
<text text-anchor="start" x="277.5" y="-487" font-family="FreeSans" font-size="10.00">CDataMatrixReference</text>
<text text-anchor="middle" x="326.5" y="-476" font-family="FreeSans" font-size="10.00">&lt; CType &gt;</text>
</a>
</g>
</g>
<!-- Node1&#45;&gt;Node239 -->
<g id="edge35" class="edge">
<title>Node1&#45;&gt;Node239</title>
<path fill="none" stroke="midnightblue" d="M203.15,-413.21C216.91,-427.09 237.79,-446.31 259,-459 265.14,-462.67 271.91,-465.97 278.71,-468.86"/>
<polygon fill="midnightblue" stroke="midnightblue" points="205.39,-410.5 195.91,-405.75 200.36,-415.37 205.39,-410.5"/>
</g>
<!-- Node240 -->
<g id="node37" class="node">
<title>Node240</title>
<g id="a_node37"><a xlink:href="../../d5/dff/classCDataObjectReference.html" target="_top" xlink:title=" ">
<polygon fill="white" stroke="black" points="268.5,-970 268.5,-1000 384.5,-1000 384.5,-970 268.5,-970"/>
<text text-anchor="start" x="276.5" y="-988" font-family="FreeSans" font-size="10.00">CDataObjectReference</text>
<text text-anchor="middle" x="326.5" y="-977" font-family="FreeSans" font-size="10.00">&lt; CType &gt;</text>
</a>
</g>
</g>
<!-- Node1&#45;&gt;Node240 -->
<g id="edge36" class="edge">
<title>Node1&#45;&gt;Node240</title>
<path fill="none" stroke="midnightblue" d="M187.63,-415.96C190.79,-510.63 206.12,-911.7 240,-955 247.17,-964.17 257.34,-970.54 268.18,-974.97"/>
<polygon fill="midnightblue" stroke="midnightblue" points="191.12,-415.64 187.3,-405.76 184.13,-415.87 191.12,-415.64"/>
</g>
<!-- Node241 -->
<g id="node38" class="node">
<title>Node241</title>
<g id="a_node38"><a xlink:href="../../db/dbd/classCDataString.html" target="_top" xlink:title=" ">
<polygon fill="white" stroke="red" points="292,-430.5 292,-449.5 361,-449.5 361,-430.5 292,-430.5"/>
<text text-anchor="middle" x="326.5" y="-437.5" font-family="FreeSans" font-size="10.00">CDataString</text>
</a>
</g>
</g>
<!-- Node1&#45;&gt;Node241 -->
<g id="edge39" class="edge">
<title>Node1&#45;&gt;Node241</title>
<path fill="none" stroke="midnightblue" d="M223.2,-409.01C234.61,-412.99 247.29,-417.3 259,-421 269.65,-424.37 281.33,-427.79 291.9,-430.8"/>
<polygon fill="midnightblue" stroke="midnightblue" points="224.15,-405.64 213.55,-405.62 221.82,-412.24 224.15,-405.64"/>
</g>
<!-- Node243 -->
<g id="node39" class="node">
<title>Node243</title>
<g id="a_node39"><a xlink:href="../../dd/d5a/classCDataVectorReference.html" target="_top" xlink:title=" ">
<polygon fill="white" stroke="black" points="268.5,-381 268.5,-411 384.5,-411 384.5,-381 268.5,-381"/>
<text text-anchor="start" x="276.5" y="-399" font-family="FreeSans" font-size="10.00">CDataVectorReference</text>
<text text-anchor="middle" x="326.5" y="-388" font-family="FreeSans" font-size="10.00">&lt; CType &gt;</text>
</a>
</g>
</g>
<!-- Node1&#45;&gt;Node243 -->
<g id="edge40" class="edge">
<title>Node1&#45;&gt;Node243</title>
<path fill="none" stroke="midnightblue" d="M232.53,-396C244.02,-396 256.49,-396 268.46,-396"/>
<polygon fill="midnightblue" stroke="midnightblue" points="232.31,-392.5 222.31,-396 232.31,-399.5 232.31,-392.5"/>
</g>
<!-- Node244 -->
<g id="node40" class="node">
<title>Node244</title>
<g id="a_node40"><a xlink:href="../../d9/daa/classCExpressionGenerator.html" target="_top" xlink:title=" ">
<polygon fill="white" stroke="black" points="270,-342.5 270,-361.5 383,-361.5 383,-342.5 270,-342.5"/>
<text text-anchor="middle" x="326.5" y="-349.5" font-family="FreeSans" font-size="10.00">CExpressionGenerator</text>
</a>
</g>
</g>
<!-- Node1&#45;&gt;Node244 -->
<g id="edge41" class="edge">
<title>Node1&#45;&gt;Node244</title>
<path fill="none" stroke="midnightblue" d="M223.2,-382.99C234.61,-379.01 247.29,-374.7 259,-371 269.19,-367.78 280.33,-364.5 290.53,-361.59"/>
<polygon fill="midnightblue" stroke="midnightblue" points="221.82,-379.76 213.55,-386.38 224.15,-386.36 221.82,-379.76"/>
</g>
<!-- Node245 -->
<g id="node41" class="node">
<title>Node245</title>
<g id="a_node41"><a xlink:href="../../d0/dce/classCLColorDefinition.html" target="_top" xlink:title=" ">
<polygon fill="white" stroke="black" points="280.5,-304.5 280.5,-323.5 372.5,-323.5 372.5,-304.5 280.5,-304.5"/>
<text text-anchor="middle" x="326.5" y="-311.5" font-family="FreeSans" font-size="10.00">CLColorDefinition</text>
</a>
</g>
</g>
<!-- Node1&#45;&gt;Node245 -->
<g id="edge42" class="edge">
<title>Node1&#45;&gt;Node245</title>
<path fill="none" stroke="midnightblue" d="M202.43,-378.8C216.03,-364.62 237.05,-344.95 259,-333 265.96,-329.21 273.75,-326.11 281.48,-323.6"/>
<polygon fill="midnightblue" stroke="midnightblue" points="199.59,-376.72 195.33,-386.42 204.71,-381.49 199.59,-376.72"/>
</g>
<!-- Node246 -->
<g id="node42" class="node">
<title>Node246</title>
<g id="a_node42"><a xlink:href="../../d2/d64/classCLEllipse.html" target="_top" xlink:title=" ">
<polygon fill="white" stroke="black" points="297.5,-266.5 297.5,-285.5 355.5,-285.5 355.5,-266.5 297.5,-266.5"/>
<text text-anchor="middle" x="326.5" y="-273.5" font-family="FreeSans" font-size="10.00">CLEllipse</text>
</a>
</g>
</g>
<!-- Node1&#45;&gt;Node246 -->
<g id="edge43" class="edge">
<title>Node1&#45;&gt;Node246</title>
<path fill="none" stroke="midnightblue" d="M195.63,-376.95C206.94,-354.1 228.95,-316.22 259,-295 270.28,-287.03 284.84,-282.39 297.47,-279.69"/>
<polygon fill="midnightblue" stroke="midnightblue" points="192.32,-375.74 191.19,-386.28 198.65,-378.75 192.32,-375.74"/>
</g>
<!-- Node247 -->
<g id="node43" class="node">
<title>Node247</title>
<g id="a_node43"><a xlink:href="../../d3/da5/classCLGradientStop.html" target="_top" xlink:title=" ">
<polygon fill="white" stroke="black" points="283.5,-228.5 283.5,-247.5 369.5,-247.5 369.5,-228.5 283.5,-228.5"/>
<text text-anchor="middle" x="326.5" y="-235.5" font-family="FreeSans" font-size="10.00">CLGradientStop</text>
</a>
</g>
</g>
<!-- Node1&#45;&gt;Node247 -->
<g id="edge44" class="edge">
<title>Node1&#45;&gt;Node247</title>
<path fill="none" stroke="midnightblue" d="M191.77,-376.45C200.15,-346.28 220.4,-288.57 259,-257 265.97,-251.3 274.56,-247.31 283.23,-244.51"/>
<polygon fill="midnightblue" stroke="midnightblue" points="188.36,-375.66 189.21,-386.22 195.13,-377.44 188.36,-375.66"/>
</g>
<!-- Node248 -->
<g id="node44" class="node">
<title>Node248</title>
<g id="a_node44"><a xlink:href="../../da/d09/classCLImage.html" target="_top" xlink:title=" ">
<polygon fill="white" stroke="black" points="298.5,-190.5 298.5,-209.5 354.5,-209.5 354.5,-190.5 298.5,-190.5"/>
<text text-anchor="middle" x="326.5" y="-197.5" font-family="FreeSans" font-size="10.00">CLImage</text>
</a>
</g>
</g>
<!-- Node1&#45;&gt;Node248 -->
<g id="edge45" class="edge">
<title>Node1&#45;&gt;Node248</title>
<path fill="none" stroke="midnightblue" d="M189.42,-375.92C194.92,-339.26 211.77,-261.39 259,-219 269.72,-209.38 285.01,-204.6 298.22,-202.24"/>
<polygon fill="midnightblue" stroke="midnightblue" points="185.89,-375.89 188.01,-386.27 192.83,-376.84 185.89,-375.89"/>
</g>
<!-- Node249 -->
<g id="node45" class="node">
<title>Node249</title>
<g id="a_node45"><a xlink:href="../../d9/dc2/classCLPolygon.html" target="_top" xlink:title=" ">
<polygon fill="white" stroke="black" points="294.5,-152.5 294.5,-171.5 358.5,-171.5 358.5,-152.5 294.5,-152.5"/>
<text text-anchor="middle" x="326.5" y="-159.5" font-family="FreeSans" font-size="10.00">CLPolygon</text>
</a>
</g>
</g>
<!-- Node1&#45;&gt;Node249 -->
<g id="edge46" class="edge">
<title>Node1&#45;&gt;Node249</title>
<path fill="none" stroke="midnightblue" d="M187.7,-376.06C190.3,-333.76 202.45,-234.56 259,-181 268.5,-172 281.97,-167.22 294.3,-164.7"/>
<polygon fill="midnightblue" stroke="midnightblue" points="184.2,-376.01 187.2,-386.18 191.19,-376.36 184.2,-376.01"/>
</g>
<!-- Node250 -->
<g id="node46" class="node">
<title>Node250</title>
<g id="a_node46"><a xlink:href="../../da/d69/classCLRectangle.html" target="_top" xlink:title=" ">
<polygon fill="white" stroke="black" points="290,-114.5 290,-133.5 363,-133.5 363,-114.5 290,-114.5"/>
<text text-anchor="middle" x="326.5" y="-121.5" font-family="FreeSans" font-size="10.00">CLRectangle</text>
</a>
</g>
</g>
<!-- Node1&#45;&gt;Node250 -->
<g id="edge47" class="edge">
<title>Node1&#45;&gt;Node250</title>
<path fill="none" stroke="midnightblue" d="M186.33,-376.33C185.84,-328.77 191.61,-206.82 259,-143 267.37,-135.07 278.81,-130.42 289.85,-127.7"/>
<polygon fill="midnightblue" stroke="midnightblue" points="182.83,-376.57 186.54,-386.5 189.83,-376.42 182.83,-376.57"/>
</g>
<!-- Node251 -->
<g id="node47" class="node">
<title>Node251</title>
<g id="a_node47"><a xlink:href="../../d6/d2b/classCLRenderCurve.html" target="_top" xlink:title=" ">
<polygon fill="white" stroke="black" points="283.5,-76.5 283.5,-95.5 369.5,-95.5 369.5,-76.5 283.5,-76.5"/>
<text text-anchor="middle" x="326.5" y="-83.5" font-family="FreeSans" font-size="10.00">CLRenderCurve</text>
</a>
</g>
</g>
<!-- Node1&#45;&gt;Node251 -->
<g id="edge48" class="edge">
<title>Node1&#45;&gt;Node251</title>
<path fill="none" stroke="midnightblue" d="M189.16,-376.03C195.98,-316.63 219.06,-142.83 259,-105 265.71,-98.64 274.4,-94.39 283.28,-91.55"/>
<polygon fill="midnightblue" stroke="midnightblue" points="185.64,-375.98 188.01,-386.31 192.6,-376.76 185.64,-375.98"/>
</g>
<!-- Node252 -->
<g id="node48" class="node">
<title>Node252</title>
<g id="a_node48"><a xlink:href="../../d1/dd9/classCLText.html" target="_top" xlink:title=" ">
<polygon fill="white" stroke="black" points="302.5,-38.5 302.5,-57.5 350.5,-57.5 350.5,-38.5 302.5,-38.5"/>
<text text-anchor="middle" x="326.5" y="-45.5" font-family="FreeSans" font-size="10.00">CLText</text>
</a>
</g>
</g>
<!-- Node1&#45;&gt;Node252 -->
<g id="edge49" class="edge">
<title>Node1&#45;&gt;Node252</title>
<path fill="none" stroke="midnightblue" d="M188.54,-376.45C193.98,-312.49 214.41,-111.14 259,-67 270.44,-55.68 288.12,-51.01 302.38,-49.12"/>
<polygon fill="midnightblue" stroke="midnightblue" points="185.05,-376.16 187.72,-386.41 192.03,-376.74 185.05,-376.16"/>
</g>
<!-- Node253 -->
<g id="node49" class="node">
<title>Node253</title>
<g id="a_node49"><a xlink:href="../../da/dcc/classCReportDefinition.html" target="_top" xlink:title=" ">
<polygon fill="white" stroke="black" points="280.5,-0.5 280.5,-19.5 372.5,-19.5 372.5,-0.5 280.5,-0.5"/>
<text text-anchor="middle" x="326.5" y="-7.5" font-family="FreeSans" font-size="10.00">CReportDefinition</text>
</a>
</g>
</g>
<!-- Node1&#45;&gt;Node253 -->
<g id="edge50" class="edge">
<title>Node1&#45;&gt;Node253</title>
<path fill="none" stroke="midnightblue" d="M188.05,-375.99C192.09,-306.69 209.05,-78.44 259,-29 264.89,-23.17 272.43,-19.11 280.31,-16.27"/>
<polygon fill="midnightblue" stroke="midnightblue" points="184.53,-376.18 187.47,-386.36 191.52,-376.57 184.53,-376.18"/>
</g>
<!-- Node2 -->
<g id="node2" class="node">
<title>Node2</title>
<g id="a_node2"><a xlink:href="../../df/dfa/classCObjectInterface.html" target="_top" xlink:title=" ">
<polygon fill="white" stroke="black" points="11.5,-405.5 11.5,-424.5 101.5,-424.5 101.5,-405.5 11.5,-405.5"/>
<text text-anchor="middle" x="56.5" y="-412.5" font-family="FreeSans" font-size="10.00">CObjectInterface</text>
</a>
</g>
</g>
<!-- Node2&#45;&gt;Node1 -->
<g id="edge1" class="edge">
<title>Node2&#45;&gt;Node1</title>
<path fill="none" stroke="midnightblue" d="M111.85,-406.9C124.65,-404.99 137.97,-403.01 149.68,-401.26"/>
<polygon fill="midnightblue" stroke="midnightblue" points="111.11,-403.47 101.74,-408.41 112.14,-410.4 111.11,-403.47"/>
</g>
<!-- Node3 -->
<g id="node3" class="node">
<title>Node3</title>
<g id="a_node3"><a xlink:href="../../d8/d53/classCUndoObjectInterface.html" target="_top" xlink:title=" ">
<polygon fill="white" stroke="black" points="0,-367.5 0,-386.5 113,-386.5 113,-367.5 0,-367.5"/>
<text text-anchor="middle" x="56.5" y="-374.5" font-family="FreeSans" font-size="10.00">CUndoObjectInterface</text>
</a>
</g>
</g>
<!-- Node3&#45;&gt;Node1 -->
<g id="edge2" class="edge">
<title>Node3&#45;&gt;Node1</title>
<path fill="none" stroke="midnightblue" d="M123.05,-386.77C132.28,-388.14 141.46,-389.51 149.82,-390.76"/>
<polygon fill="midnightblue" stroke="midnightblue" points="123.46,-383.29 113.05,-385.28 122.43,-390.21 123.46,-383.29"/>
</g>
<!-- Node5 -->
<g id="node5" class="node">
<title>Node5</title>
<g id="a_node5"><a xlink:href="../../d8/d2c/classCDependentNumberReference.html" target="_top" xlink:title=" ">
<polygon fill="white" stroke="black" points="708,-1041.5 708,-1060.5 857,-1060.5 857,-1041.5 708,-1041.5"/>
<text text-anchor="middle" x="782.5" y="-1048.5" font-family="FreeSans" font-size="10.00">CDependentNumberReference</text>
</a>
</g>
</g>
<!-- Node4&#45;&gt;Node5 -->
<g id="edge4" class="edge">
<title>Node4&#45;&gt;Node5</title>
<path fill="none" stroke="midnightblue" d="M655.86,-1038.63C672.6,-1040.28 690.64,-1042.06 707.67,-1043.73"/>
<polygon fill="midnightblue" stroke="midnightblue" points="655.92,-1035.12 645.62,-1037.62 655.23,-1042.09 655.92,-1035.12"/>
</g>
<!-- Node6 -->
<g id="node6" class="node">
<title>Node6</title>
<g id="a_node6"><a xlink:href="../../d9/d77/classCTotalNumberReference.html" target="_top" xlink:title=" ">
<polygon fill="white" stroke="black" points="720.5,-1003.5 720.5,-1022.5 844.5,-1022.5 844.5,-1003.5 720.5,-1003.5"/>
<text text-anchor="middle" x="782.5" y="-1010.5" font-family="FreeSans" font-size="10.00">CTotalNumberReference</text>
</a>
</g>
</g>
<!-- Node4&#45;&gt;Node6 -->
<g id="edge5" class="edge">
<title>Node4&#45;&gt;Node6</title>
<path fill="none" stroke="midnightblue" d="M655.77,-1025.38C676.81,-1023.31 699.9,-1021.03 720.49,-1019.01"/>
<polygon fill="midnightblue" stroke="midnightblue" points="655.23,-1021.91 645.62,-1026.38 655.92,-1028.88 655.23,-1021.91"/>
</g>
<!-- Node13 -->
<g id="node13" class="node">
<title>Node13</title>
<g id="a_node13"><a xlink:href="../../db/d30/classCDataVector.html" target="_top" xlink:title=" ">
<polygon fill="white" stroke="red" points="511.5,-915 511.5,-945 663.5,-945 663.5,-915 511.5,-915"/>
<text text-anchor="start" x="519.5" y="-933" font-family="FreeSans" font-size="10.00">CDataVector&lt; CLGlobalRender</text>
<text text-anchor="middle" x="587.5" y="-922" font-family="FreeSans" font-size="10.00">Information &gt;</text>
</a>
</g>
</g>
<!-- Node12&#45;&gt;Node13 -->
<g id="edge12" class="edge">
<title>Node12&#45;&gt;Node13</title>
<path fill="none" stroke="midnightblue" d="M378.64,-535.3C384.54,-538.11 389.91,-541.9 394,-547 435.53,-598.74 378.66,-787.65 412,-845 433.34,-881.71 475.95,-902.87 513.71,-914.9"/>
<polygon fill="midnightblue" stroke="midnightblue" points="379.61,-531.93 369.01,-531.66 377.12,-538.47 379.61,-531.93"/>
</g>
<!-- Node14 -->
<g id="node14" class="node">
<title>Node14</title>
<g id="a_node14"><a xlink:href="../../db/d30/classCDataVector.html" target="_top" xlink:title=" ">
<polygon fill="white" stroke="red" points="514,-876.5 514,-895.5 661,-895.5 661,-876.5 514,-876.5"/>
<text text-anchor="middle" x="587.5" y="-883.5" font-family="FreeSans" font-size="10.00">CDataVector&lt; CModification &gt;</text>
</a>
</g>
</g>
<!-- Node12&#45;&gt;Node14 -->
<g id="edge13" class="edge">
<title>Node12&#45;&gt;Node14</title>
<path fill="none" stroke="midnightblue" d="M378.8,-535.44C384.63,-538.23 389.93,-541.98 394,-547 429.92,-591.3 383.83,-753.41 412,-803 435.94,-845.15 488.45,-866.16 529.65,-876.47"/>
<polygon fill="midnightblue" stroke="midnightblue" points="379.9,-532.11 369.31,-531.8 377.39,-538.65 379.9,-532.11"/>
</g>
<!-- Node15 -->
<g id="node15" class="node">
<title>Node15</title>
<g id="a_node15"><a xlink:href="../../db/d30/classCDataVector.html" target="_top" xlink:title=" ">
<polygon fill="white" stroke="red" points="511,-838.5 511,-857.5 664,-857.5 664,-838.5 511,-838.5"/>
<text text-anchor="middle" x="587.5" y="-845.5" font-family="FreeSans" font-size="10.00">CDataVector&lt; CLMetabGlyph &gt;</text>
</a>
</g>
</g>
<!-- Node12&#45;&gt;Node15 -->
<g id="edge14" class="edge">
<title>Node12&#45;&gt;Node15</title>
<path fill="none" stroke="midnightblue" d="M378.73,-535.5C384.57,-538.28 389.89,-542.01 394,-547 423.91,-583.33 389.47,-716.69 412,-758 436.73,-803.34 457.31,-806.92 504,-829 512.1,-832.83 521.03,-835.92 529.93,-838.4"/>
<polygon fill="midnightblue" stroke="midnightblue" points="379.82,-532.17 369.23,-531.87 377.32,-538.71 379.82,-532.17"/>
</g>
<!-- Node16 -->
<g id="node16" class="node">
<title>Node16</title>
<g id="a_node16"><a xlink:href="../../db/d30/classCDataVector.html" target="_top" xlink:title=" ">
<polygon fill="white" stroke="red" points="511.5,-789 511.5,-819 663.5,-819 663.5,-789 511.5,-789"/>
<text text-anchor="start" x="519.5" y="-807" font-family="FreeSans" font-size="10.00">CDataVector&lt; CLCompartment</text>
<text text-anchor="middle" x="587.5" y="-796" font-family="FreeSans" font-size="10.00">Glyph &gt;</text>
</a>
</g>
</g>
<!-- Node12&#45;&gt;Node16 -->
<g id="edge15" class="edge">
<title>Node12&#45;&gt;Node16</title>
<path fill="none" stroke="midnightblue" d="M378.63,-535.58C384.49,-538.35 389.84,-542.06 394,-547 418.18,-575.73 392.86,-682.7 412,-715 434.97,-753.77 480.91,-776.25 519.89,-788.91"/>
<polygon fill="midnightblue" stroke="midnightblue" points="379.71,-532.25 369.12,-531.96 377.22,-538.79 379.71,-532.25"/>
</g>
<!-- Node17 -->
<g id="node17" class="node">
<title>Node17</title>
<g id="a_node17"><a xlink:href="../../db/d30/classCDataVector.html" target="_top" xlink:title=" ">
<polygon fill="white" stroke="red" points="527.5,-750.5 527.5,-769.5 647.5,-769.5 647.5,-750.5 527.5,-750.5"/>
<text text-anchor="middle" x="587.5" y="-757.5" font-family="FreeSans" font-size="10.00">CDataVector&lt; CSlider &gt;</text>
</a>
</g>
</g>
<!-- Node12&#45;&gt;Node17 -->
<g id="edge16" class="edge">
<title>Node12&#45;&gt;Node17</title>
<path fill="none" stroke="midnightblue" d="M378.68,-535.83C384.48,-538.57 389.8,-542.19 394,-547 430.65,-588.93 383.74,-623.02 412,-671 438.07,-715.27 457.48,-719.19 504,-741 512.25,-744.87 521.34,-747.98 530.39,-750.47"/>
<polygon fill="midnightblue" stroke="midnightblue" points="379.86,-532.54 369.27,-532.23 377.36,-539.07 379.86,-532.54"/>
</g>
<!-- Node18 -->
<g id="node18" class="node">
<title>Node18</title>
<g id="a_node18"><a xlink:href="../../db/d30/classCDataVector.html" target="_top" xlink:title=" ">
<polygon fill="white" stroke="red" points="519,-701 519,-731 656,-731 656,-701 519,-701"/>
<text text-anchor="start" x="527" y="-719" font-family="FreeSans" font-size="10.00">CDataVector&lt; CLReference</text>
<text text-anchor="middle" x="587.5" y="-708" font-family="FreeSans" font-size="10.00">Glyph &gt;</text>
</a>
</g>
</g>
<!-- Node12&#45;&gt;Node18 -->
<g id="edge17" class="edge">
<title>Node12&#45;&gt;Node18</title>
<path fill="none" stroke="midnightblue" d="M379.01,-536.39C384.61,-539.05 389.8,-542.5 394,-547 420.08,-574.89 390.5,-599.45 412,-631 439.63,-671.54 459.49,-671.36 504,-692 511.17,-695.33 518.91,-698.3 526.67,-700.94"/>
<polygon fill="midnightblue" stroke="midnightblue" points="379.86,-532.97 369.27,-532.64 377.35,-539.51 379.86,-532.97"/>
</g>
<!-- Node19 -->
<g id="node19" class="node">
<title>Node19</title>
<g id="a_node19"><a xlink:href="../../db/d30/classCDataVector.html" target="_top" xlink:title=" ">
<polygon fill="white" stroke="red" points="523,-652 523,-682 652,-682 652,-652 523,-652"/>
<text text-anchor="start" x="531" y="-670" font-family="FreeSans" font-size="10.00">CDataVector&lt; CBiological</text>
<text text-anchor="middle" x="587.5" y="-659" font-family="FreeSans" font-size="10.00">Description &gt;</text>
</a>
</g>
</g>
<!-- Node12&#45;&gt;Node19 -->
<g id="edge18" class="edge">
<title>Node12&#45;&gt;Node19</title>
<path fill="none" stroke="midnightblue" d="M378.71,-537C384.32,-539.55 389.59,-542.82 394,-547 411.76,-563.81 395.63,-580.83 412,-599 442.21,-632.53 461.85,-625.86 504,-642 513.22,-645.53 523.18,-648.91 532.87,-651.97"/>
<polygon fill="midnightblue" stroke="midnightblue" points="379.62,-533.6 369.03,-533.34 377.14,-540.15 379.62,-533.6"/>
</g>
<!-- Node20 -->
<g id="node20" class="node">
<title>Node20</title>
<g id="a_node20"><a xlink:href="../../db/d30/classCDataVector.html" target="_top" xlink:title=" ">
<polygon fill="white" stroke="red" points="512,-613.5 512,-632.5 663,-632.5 663,-613.5 512,-613.5"/>
<text text-anchor="middle" x="587.5" y="-620.5" font-family="FreeSans" font-size="10.00">CDataVector&lt; CLGlobalStyle &gt;</text>
</a>
</g>
</g>
<!-- Node12&#45;&gt;Node20 -->
<g id="edge19" class="edge">
<title>Node12&#45;&gt;Node20</title>
<path fill="none" stroke="midnightblue" d="M378.85,-538.93C384.2,-541.15 389.36,-543.81 394,-547 404.98,-554.56 401.27,-563.08 412,-571 446.95,-596.8 462.32,-591.77 504,-604 515.71,-607.43 528.49,-610.64 540.43,-613.4"/>
<polygon fill="midnightblue" stroke="midnightblue" points="379.69,-535.52 369.1,-535.41 377.31,-542.1 379.69,-535.52"/>
</g>
<!-- Node21 -->
<g id="node21" class="node">
<title>Node21</title>
<g id="a_node21"><a xlink:href="../../db/d30/classCDataVector.html" target="_top" xlink:title=" ">
<polygon fill="white" stroke="red" points="517.5,-575.5 517.5,-594.5 657.5,-594.5 657.5,-575.5 517.5,-575.5"/>
<text text-anchor="middle" x="587.5" y="-582.5" font-family="FreeSans" font-size="10.00">CDataVector&lt; CReference &gt;</text>
</a>
</g>
</g>
<!-- Node12&#45;&gt;Node21 -->
<g id="edge20" class="edge">
<title>Node12&#45;&gt;Node21</title>
<path fill="none" stroke="midnightblue" d="M372.3,-540.17C385.08,-543.5 399.06,-547.02 412,-550 453.1,-559.46 499.98,-568.79 534.8,-575.43"/>
<polygon fill="midnightblue" stroke="midnightblue" points="372.9,-536.71 362.34,-537.54 371.11,-543.48 372.9,-536.71"/>
</g>
<!-- Node22 -->
<g id="node22" class="node">
<title>Node22</title>
<g id="a_node22"><a xlink:href="../../db/d30/classCDataVector.html" target="_top" xlink:title=" ">
<polygon fill="white" stroke="red" points="508.5,-537.5 508.5,-556.5 666.5,-556.5 666.5,-537.5 508.5,-537.5"/>
<text text-anchor="middle" x="587.5" y="-544.5" font-family="FreeSans" font-size="10.00">CDataVector&lt; CLGradientStop &gt;</text>
</a>
</g>
</g>
<!-- Node12&#45;&gt;Node22 -->
<g id="edge21" class="edge">
<title>Node12&#45;&gt;Node22</title>
<path fill="none" stroke="midnightblue" d="M379.17,-531.79C416.13,-534.5 466.56,-538.2 508.42,-541.27"/>
<polygon fill="midnightblue" stroke="midnightblue" points="379.34,-528.29 369.11,-531.05 378.83,-535.28 379.34,-528.29"/>
</g>
<!-- Node23 -->
<g id="node23" class="node">
<title>Node23</title>
<g id="a_node23"><a xlink:href="../../db/d30/classCDataVector.html" target="_top" xlink:title=" ">
<polygon fill="white" stroke="red" points="525.5,-499.5 525.5,-518.5 649.5,-518.5 649.5,-499.5 525.5,-499.5"/>
<text text-anchor="middle" x="587.5" y="-506.5" font-family="FreeSans" font-size="10.00">CDataVector&lt; CMoiety &gt;</text>
</a>
</g>
</g>
<!-- Node12&#45;&gt;Node23 -->
<g id="edge22" class="edge">
<title>Node12&#45;&gt;Node23</title>
<path fill="none" stroke="midnightblue" d="M379.14,-524.21C421.21,-521.13 480.7,-516.76 525.18,-513.5"/>
<polygon fill="midnightblue" stroke="midnightblue" points="378.83,-520.72 369.11,-524.95 379.34,-527.71 378.83,-520.72"/>
</g>
<!-- Node24 -->
<g id="node24" class="node">
<title>Node24</title>
<g id="a_node24"><a xlink:href="../../db/d30/classCDataVector.html" target="_top" xlink:title=" ">
<polygon fill="white" stroke="red" points="505.5,-450 505.5,-480 669.5,-480 669.5,-450 505.5,-450"/>
<text text-anchor="start" x="513.5" y="-468" font-family="FreeSans" font-size="10.00">CDataVector&lt; CLMetabReference</text>
<text text-anchor="middle" x="587.5" y="-457" font-family="FreeSans" font-size="10.00">Glyph &gt;</text>
</a>
</g>
</g>
<!-- Node12&#45;&gt;Node24 -->
<g id="edge23" class="edge">
<title>Node12&#45;&gt;Node24</title>
<path fill="none" stroke="midnightblue" d="M376.56,-516.07C418.55,-505.85 479.23,-491.09 524.57,-480.07"/>
<polygon fill="midnightblue" stroke="midnightblue" points="375.73,-512.67 366.84,-518.43 377.38,-519.47 375.73,-512.67"/>
</g>
<!-- Node25 -->
<g id="node25" class="node">
<title>Node25</title>
<g id="a_node25"><a xlink:href="../../db/d30/classCDataVector.html" target="_top" xlink:title=" ">
<polygon fill="white" stroke="red" points="516.5,-411.5 516.5,-430.5 658.5,-430.5 658.5,-411.5 516.5,-411.5"/>
<text text-anchor="middle" x="587.5" y="-418.5" font-family="FreeSans" font-size="10.00">CDataVector&lt; CDataModel &gt;</text>
</a>
</g>
</g>
<!-- Node12&#45;&gt;Node25 -->
<g id="edge24" class="edge">
<title>Node12&#45;&gt;Node25</title>
<path fill="none" stroke="midnightblue" d="M378.78,-516.97C384.14,-514.77 389.33,-512.14 394,-509 404.77,-501.75 401.91,-494.17 412,-486 447.37,-457.35 461.19,-456.45 504,-441 515.23,-436.95 527.61,-433.46 539.29,-430.58"/>
<polygon fill="midnightblue" stroke="midnightblue" points="377.25,-513.8 369.02,-520.48 379.61,-520.39 377.25,-513.8"/>
</g>
<!-- Node26 -->
<g id="node26" class="node">
<title>Node26</title>
<g id="a_node26"><a xlink:href="../../db/d30/classCDataVector.html" target="_top" xlink:title=" ">
<polygon fill="white" stroke="red" points="504,-373.5 504,-392.5 671,-392.5 671,-373.5 504,-373.5"/>
<text text-anchor="middle" x="587.5" y="-380.5" font-family="FreeSans" font-size="10.00">CDataVector&lt; CChemEqElement &gt;</text>
</a>
</g>
</g>
<!-- Node12&#45;&gt;Node26 -->
<g id="edge25" class="edge">
<title>Node12&#45;&gt;Node26</title>
<path fill="none" stroke="midnightblue" d="M378.77,-519.38C384.42,-516.76 389.68,-513.38 394,-509 415.37,-487.37 392.21,-466.08 412,-443 441.14,-409.02 461.55,-416.2 504,-402 514.87,-398.36 526.78,-395.18 538.08,-392.51"/>
<polygon fill="midnightblue" stroke="midnightblue" points="377.11,-516.27 369,-523.1 379.59,-522.81 377.11,-516.27"/>
</g>
<!-- Node27 -->
<g id="node27" class="node">
<title>Node27</title>
<g id="a_node27"><a xlink:href="../../db/d30/classCDataVector.html" target="_top" xlink:title=" ">
<polygon fill="white" stroke="red" points="527.5,-335.5 527.5,-354.5 647.5,-354.5 647.5,-335.5 527.5,-335.5"/>
<text text-anchor="middle" x="587.5" y="-342.5" font-family="FreeSans" font-size="10.00">CDataVector&lt; CEvent &gt;</text>
</a>
</g>
</g>
<!-- Node12&#45;&gt;Node27 -->
<g id="edge26" class="edge">
<title>Node12&#45;&gt;Node27</title>
<path fill="none" stroke="midnightblue" d="M378.57,-520.07C384.39,-517.35 389.74,-513.75 394,-509 425.88,-473.4 382.36,-440.48 412,-403 439.42,-368.32 488.25,-354.18 527.29,-348.52"/>
<polygon fill="midnightblue" stroke="midnightblue" points="377.25,-516.83 369.14,-523.66 379.74,-523.37 377.25,-516.83"/>
</g>
<!-- Node29 -->
<g id="node28" class="node">
<title>Node29</title>
<g id="a_node28"><a xlink:href="../../db/d30/classCDataVector.html" target="_top" xlink:title=" ">
<polygon fill="white" stroke="red" points="505.5,-297.5 505.5,-316.5 669.5,-316.5 669.5,-297.5 505.5,-297.5"/>
<text text-anchor="middle" x="587.5" y="-304.5" font-family="FreeSans" font-size="10.00">CDataVector&lt; CLReactionGlyph &gt;</text>
</a>
</g>
</g>
<!-- Node12&#45;&gt;Node29 -->
<g id="edge27" class="edge">
<title>Node12&#45;&gt;Node29</title>
<path fill="none" stroke="midnightblue" d="M378.59,-520.38C384.45,-517.62 389.82,-513.92 394,-509 438.89,-456.14 367.56,-407.24 412,-354 434.72,-326.78 471.38,-314.43 505.25,-309.13"/>
<polygon fill="midnightblue" stroke="midnightblue" points="377.17,-517.18 369.07,-524 379.66,-523.72 377.17,-517.18"/>
</g>
<!-- Node30 -->
<g id="node29" class="node">
<title>Node30</title>
<g id="a_node29"><a xlink:href="../../db/d30/classCDataVector.html" target="_top" xlink:title=" ">
<polygon fill="white" stroke="red" points="505.5,-259.5 505.5,-278.5 669.5,-278.5 669.5,-259.5 505.5,-259.5"/>
<text text-anchor="middle" x="587.5" y="-266.5" font-family="FreeSans" font-size="10.00">CDataVector&lt; CLColorDefinition &gt;</text>
</a>
</g>
</g>
<!-- Node12&#45;&gt;Node30 -->
<g id="edge28" class="edge">
<title>Node12&#45;&gt;Node30</title>
<path fill="none" stroke="midnightblue" d="M378.71,-520.48C384.55,-517.7 389.88,-513.98 394,-509 422.31,-474.79 382.95,-343.58 412,-310 434.9,-283.52 471.38,-272.4 505.07,-268.25"/>
<polygon fill="midnightblue" stroke="midnightblue" points="377.3,-517.27 369.2,-524.11 379.79,-523.81 377.3,-517.27"/>
</g>
<!-- Node31 -->
<g id="node30" class="node">
<title>Node31</title>
<g id="a_node30"><a xlink:href="../../db/d30/classCDataVector.html" target="_top" xlink:title=" ">
<polygon fill="white" stroke="red" points="526.5,-221.5 526.5,-240.5 648.5,-240.5 648.5,-221.5 526.5,-221.5"/>
<text text-anchor="middle" x="587.5" y="-228.5" font-family="FreeSans" font-size="10.00">CDataVector&lt; CMetab &gt;</text>
</a>
</g>
</g>
<!-- Node12&#45;&gt;Node31 -->
<g id="edge29" class="edge">
<title>Node12&#45;&gt;Node31</title>
<path fill="none" stroke="midnightblue" d="M378.78,-520.54C384.61,-517.75 389.92,-514.01 394,-509 427.78,-467.54 376.91,-309.36 412,-269 439.77,-237.06 487.53,-228.38 526.08,-227.23"/>
<polygon fill="midnightblue" stroke="midnightblue" points="377.37,-517.33 369.28,-524.18 379.87,-523.87 377.37,-517.33"/>
</g>
<!-- Node32 -->
<g id="node31" class="node">
<title>Node32</title>
<g id="a_node31"><a xlink:href="../../db/d30/classCDataVector.html" target="_top" xlink:title=" ">
<polygon fill="white" stroke="red" points="513.5,-172 513.5,-202 661.5,-202 661.5,-172 513.5,-172"/>
<text text-anchor="start" x="521.5" y="-190" font-family="FreeSans" font-size="10.00">CDataVector&lt; CLLocalRender</text>
<text text-anchor="middle" x="587.5" y="-179" font-family="FreeSans" font-size="10.00">Information &gt;</text>
</a>
</g>
</g>
<!-- Node12&#45;&gt;Node32 -->
<g id="edge30" class="edge">
<title>Node12&#45;&gt;Node32</title>
<path fill="none" stroke="midnightblue" d="M378.83,-520.58C384.66,-517.79 389.95,-514.03 394,-509 433.13,-460.45 371.86,-276.71 412,-229 436.47,-199.91 477.25,-189.01 513.24,-185.56"/>
<polygon fill="midnightblue" stroke="midnightblue" points="377.42,-517.37 369.34,-524.22 379.93,-523.91 377.42,-517.37"/>
</g>
<!-- Node33 -->
<g id="node32" class="node">
<title>Node33</title>
<g id="a_node32"><a xlink:href="../../db/d30/classCDataVector.html" target="_top" xlink:title=" ">
<polygon fill="white" stroke="red" points="507,-133.5 507,-152.5 668,-152.5 668,-133.5 507,-133.5"/>
<text text-anchor="middle" x="587.5" y="-140.5" font-family="FreeSans" font-size="10.00">CDataVector&lt; CLGradientBase &gt;</text>
</a>
</g>
</g>
<!-- Node12&#45;&gt;Node33 -->
<g id="edge31" class="edge">
<title>Node12&#45;&gt;Node33</title>
<path fill="none" stroke="midnightblue" d="M378.66,-520.71C384.56,-517.9 389.92,-514.11 394,-509 438.74,-453.01 366.9,-242.7 412,-187 434.61,-159.08 472.12,-147.36 506.58,-142.93"/>
<polygon fill="midnightblue" stroke="midnightblue" points="377.15,-517.54 369.04,-524.36 379.63,-524.09 377.15,-517.54"/>
</g>
<!-- Node34 -->
<g id="node33" class="node">
<title>Node34</title>
<g id="a_node33"><a xlink:href="../../db/d30/classCDataVector.html" target="_top" xlink:title=" ">
<polygon fill="white" stroke="red" points="521.5,-95.5 521.5,-114.5 653.5,-114.5 653.5,-95.5 521.5,-95.5"/>
<text text-anchor="middle" x="587.5" y="-102.5" font-family="FreeSans" font-size="10.00">CDataVector&lt; CPlotItem &gt;</text>
</a>
</g>
</g>
<!-- Node12&#45;&gt;Node34 -->
<g id="edge32" class="edge">
<title>Node12&#45;&gt;Node34</title>
<path fill="none" stroke="midnightblue" d="M378.69,-520.74C384.59,-517.93 389.93,-514.12 394,-509 444.62,-445.21 359.37,-205.14 412,-143 438.25,-112.01 483.33,-102.78 521.09,-101.16"/>
<polygon fill="midnightblue" stroke="midnightblue" points="377.18,-517.57 369.07,-524.39 379.67,-524.11 377.18,-517.57"/>
</g>
<!-- Node35 -->
<g id="node34" class="node">
<title>Node35</title>
<g id="a_node34"><a xlink:href="../../db/d30/classCDataVector.html" target="_top" xlink:title=" ">
<polygon fill="white" stroke="red" points="515.5,-57.5 515.5,-76.5 659.5,-76.5 659.5,-57.5 515.5,-57.5"/>
<text text-anchor="middle" x="587.5" y="-64.5" font-family="FreeSans" font-size="10.00">CDataVector&lt; CDataObject &gt;</text>
</a>
</g>
</g>
<!-- Node12&#45;&gt;Node35 -->
<g id="edge33" class="edge">
<title>Node12&#45;&gt;Node35</title>
<path fill="none" stroke="midnightblue" d="M378.71,-520.76C384.61,-517.94 389.95,-514.13 394,-509 422.05,-473.47 382.54,-136.37 412,-102 437.03,-72.79 478.99,-63.71 515.49,-62.1"/>
<polygon fill="midnightblue" stroke="midnightblue" points="377.2,-517.59 369.1,-524.41 379.69,-524.13 377.2,-517.59"/>
</g>
<!-- Node36 -->
<g id="node35" class="node">
<title>Node36</title>
<g id="a_node35"><a xlink:href="../../db/d30/classCDataVector.html" target="_top" xlink:title=" ">
<polygon fill="white" stroke="red" points="515,-19.5 515,-38.5 660,-38.5 660,-19.5 515,-19.5"/>
<text text-anchor="middle" x="587.5" y="-26.5" font-family="FreeSans" font-size="10.00">CDataVector&lt; CLTextGlyph &gt;</text>
</a>
</g>
</g>
<!-- Node12&#45;&gt;Node36 -->
<g id="edge34" class="edge">
<title>Node12&#45;&gt;Node36</title>
<path fill="none" stroke="midnightblue" d="M378.73,-520.77C384.62,-517.95 389.96,-514.14 394,-509 424.73,-469.93 379.52,-99.63 412,-62 436.88,-33.17 478.37,-24.48 514.65,-23.2"/>
<polygon fill="midnightblue" stroke="midnightblue" points="377.22,-517.6 369.12,-524.43 379.71,-524.14 377.22,-517.6"/>
</g>
<!-- Node240&#45;&gt;Node4 -->
<g id="edge37" class="edge">
<title>Node240&#45;&gt;Node4</title>
<path fill="none" stroke="orange" stroke-dasharray="5,2" d="M394.98,-995.41C423.16,-999.92 456.21,-1005.45 486,-1011 500.11,-1013.63 515.28,-1016.68 529.45,-1019.63"/>
<polygon fill="orange" stroke="orange" points="395.25,-991.91 384.83,-993.79 394.15,-998.82 395.25,-991.91"/>
<text text-anchor="middle" x="449" y="-1014" font-family="FreeSans" font-size="10.00"> &lt; C_FLOAT64 &gt;</text>
</g>
<!-- Node240&#45;&gt;Node7 -->
<g id="edge38" class="edge">
<title>Node240&#45;&gt;Node7</title>
<path fill="none" stroke="orange" stroke-dasharray="5,2" d="M395.03,-978.03C400.76,-977.62 406.48,-977.26 412,-977 451.19,-975.15 495.39,-975.68 529.49,-976.66"/>
<polygon fill="orange" stroke="orange" points="394.41,-974.57 384.72,-978.85 394.96,-981.55 394.41,-974.57"/>
<text text-anchor="middle" x="449" y="-980" font-family="FreeSans" font-size="10.00"> &lt; std::string &gt;</text>
</g>
</g>
</svg>
