<?xml version="1.0" encoding="UTF-8" standalone="no"?>
<!DOCTYPE svg PUBLIC "-//W3C//DTD SVG 1.1//EN"
 "http://www.w3.org/Graphics/SVG/1.1/DTD/svg11.dtd">
<!-- Generated by graphviz version 2.43.0 (0)
 -->
<!-- Title: CTSSAMethod Pages: 1 -->
<svg width="316pt" height="420pt"
 viewBox="0.00 0.00 316.00 420.00" xmlns="http://www.w3.org/2000/svg" xmlns:xlink="http://www.w3.org/1999/xlink">
<g id="graph0" class="graph" transform="scale(1 1) rotate(0) translate(4 416)">
<title>CTSSAMethod</title>
<polygon fill="white" stroke="transparent" points="-4,4 -4,-416 312,-416 312,4 -4,4"/>
<!-- Node1 -->
<g id="node1" class="node">
<title>Node1</title>
<g id="a_node1"><a xlink:title="The CTSSAMethod class is the base class for all time scale separation analysis methods.">
<polygon fill="#bfbfbf" stroke="black" points="93,-56.5 93,-75.5 175,-75.5 175,-56.5 93,-56.5"/>
<text text-anchor="middle" x="134" y="-63.5" font-family="FreeSans" font-size="10.00">CTSSAMethod</text>
</a>
</g>
</g>
<!-- Node9 -->
<g id="node9" class="node">
<title>Node9</title>
<g id="a_node9"><a xlink:href="../../d7/deb/classCCSPMethod.html" target="_top" xlink:title="The CCSPMethod class implements the CSP method.">
<polygon fill="white" stroke="black" points="0,-0.5 0,-19.5 76,-19.5 76,-0.5 0,-0.5"/>
<text text-anchor="middle" x="38" y="-7.5" font-family="FreeSans" font-size="10.00">CCSPMethod</text>
</a>
</g>
</g>
<!-- Node1&#45;&gt;Node9 -->
<g id="edge8" class="edge">
<title>Node1&#45;&gt;Node9</title>
<path fill="none" stroke="midnightblue" d="M109.43,-51.18C91.76,-41.24 68.49,-28.15 53.39,-19.65"/>
<polygon fill="midnightblue" stroke="midnightblue" points="108.14,-54.47 118.58,-56.32 111.58,-48.37 108.14,-54.47"/>
</g>
<!-- Node10 -->
<g id="node10" class="node">
<title>Node10</title>
<g id="a_node10"><a xlink:href="../../df/df5/classCILDMMethod.html" target="_top" xlink:title="The CILDMMethod class implements the ILDM method.">
<polygon fill="white" stroke="black" points="94,-0.5 94,-19.5 174,-19.5 174,-0.5 94,-0.5"/>
<text text-anchor="middle" x="134" y="-7.5" font-family="FreeSans" font-size="10.00">CILDMMethod</text>
</a>
</g>
</g>
<!-- Node1&#45;&gt;Node10 -->
<g id="edge9" class="edge">
<title>Node1&#45;&gt;Node10</title>
<path fill="none" stroke="midnightblue" d="M134,-45.8C134,-36.91 134,-26.78 134,-19.75"/>
<polygon fill="midnightblue" stroke="midnightblue" points="130.5,-46.08 134,-56.08 137.5,-46.08 130.5,-46.08"/>
</g>
<!-- Node11 -->
<g id="node11" class="node">
<title>Node11</title>
<g id="a_node11"><a xlink:href="../../de/d88/classCILDMModifiedMethod.html" target="_top" xlink:title="The CILDMModifiedMethod class implementes the modified ILDM method.">
<polygon fill="white" stroke="black" points="192,-0.5 192,-19.5 308,-19.5 308,-0.5 192,-0.5"/>
<text text-anchor="middle" x="250" y="-7.5" font-family="FreeSans" font-size="10.00">CILDMModifiedMethod</text>
</a>
</g>
</g>
<!-- Node1&#45;&gt;Node11 -->
<g id="edge10" class="edge">
<title>Node1&#45;&gt;Node11</title>
<path fill="none" stroke="midnightblue" d="M161.72,-52.1C183.39,-42.01 212.9,-28.27 231.71,-19.52"/>
<polygon fill="midnightblue" stroke="midnightblue" points="159.97,-49.05 152.38,-56.44 162.92,-55.4 159.97,-49.05"/>
</g>
<!-- Node2 -->
<g id="node2" class="node">
<title>Node2</title>
<g id="a_node2"><a xlink:href="../../df/d49/classCCopasiMethod.html" target="_top" xlink:title=" ">
<polygon fill="white" stroke="black" points="91,-112.5 91,-131.5 177,-131.5 177,-112.5 91,-112.5"/>
<text text-anchor="middle" x="134" y="-119.5" font-family="FreeSans" font-size="10.00">CCopasiMethod</text>
</a>
</g>
</g>
<!-- Node2&#45;&gt;Node1 -->
<g id="edge1" class="edge">
<title>Node2&#45;&gt;Node1</title>
<path fill="none" stroke="midnightblue" d="M134,-101.8C134,-92.91 134,-82.78 134,-75.75"/>
<polygon fill="midnightblue" stroke="midnightblue" points="130.5,-102.08 134,-112.08 137.5,-102.08 130.5,-102.08"/>
</g>
<!-- Node3 -->
<g id="node3" class="node">
<title>Node3</title>
<g id="a_node3"><a xlink:href="../../df/d89/classCCopasiParameterGroup.html" target="_top" xlink:title=" ">
<polygon fill="white" stroke="black" points="71.5,-168.5 71.5,-187.5 196.5,-187.5 196.5,-168.5 71.5,-168.5"/>
<text text-anchor="middle" x="134" y="-175.5" font-family="FreeSans" font-size="10.00">CCopasiParameterGroup</text>
</a>
</g>
</g>
<!-- Node3&#45;&gt;Node2 -->
<g id="edge2" class="edge">
<title>Node3&#45;&gt;Node2</title>
<path fill="none" stroke="midnightblue" d="M134,-157.8C134,-148.91 134,-138.78 134,-131.75"/>
<polygon fill="midnightblue" stroke="midnightblue" points="130.5,-158.08 134,-168.08 137.5,-158.08 130.5,-158.08"/>
</g>
<!-- Node4 -->
<g id="node4" class="node">
<title>Node4</title>
<g id="a_node4"><a xlink:href="../../d5/db6/classCCopasiParameter.html" target="_top" xlink:title=" ">
<polygon fill="white" stroke="black" points="85,-224.5 85,-243.5 183,-243.5 183,-224.5 85,-224.5"/>
<text text-anchor="middle" x="134" y="-231.5" font-family="FreeSans" font-size="10.00">CCopasiParameter</text>
</a>
</g>
</g>
<!-- Node4&#45;&gt;Node3 -->
<g id="edge3" class="edge">
<title>Node4&#45;&gt;Node3</title>
<path fill="none" stroke="midnightblue" d="M134,-213.8C134,-204.91 134,-194.78 134,-187.75"/>
<polygon fill="midnightblue" stroke="midnightblue" points="130.5,-214.08 134,-224.08 137.5,-214.08 130.5,-214.08"/>
</g>
<!-- Node5 -->
<g id="node5" class="node">
<title>Node5</title>
<g id="a_node5"><a xlink:href="../../d3/db9/classCDataContainer.html" target="_top" xlink:title=" ">
<polygon fill="white" stroke="black" points="91.5,-280.5 91.5,-299.5 176.5,-299.5 176.5,-280.5 91.5,-280.5"/>
<text text-anchor="middle" x="134" y="-287.5" font-family="FreeSans" font-size="10.00">CDataContainer</text>
</a>
</g>
</g>
<!-- Node5&#45;&gt;Node4 -->
<g id="edge4" class="edge">
<title>Node5&#45;&gt;Node4</title>
<path fill="none" stroke="midnightblue" d="M134,-269.8C134,-260.91 134,-250.78 134,-243.75"/>
<polygon fill="midnightblue" stroke="midnightblue" points="130.5,-270.08 134,-280.08 137.5,-270.08 130.5,-270.08"/>
</g>
<!-- Node6 -->
<g id="node6" class="node">
<title>Node6</title>
<g id="a_node6"><a xlink:href="../../d1/d6b/classCDataObject.html" target="_top" xlink:title=" ">
<polygon fill="white" stroke="black" points="98,-336.5 98,-355.5 170,-355.5 170,-336.5 98,-336.5"/>
<text text-anchor="middle" x="134" y="-343.5" font-family="FreeSans" font-size="10.00">CDataObject</text>
</a>
</g>
</g>
<!-- Node6&#45;&gt;Node5 -->
<g id="edge5" class="edge">
<title>Node6&#45;&gt;Node5</title>
<path fill="none" stroke="midnightblue" d="M134,-325.8C134,-316.91 134,-306.78 134,-299.75"/>
<polygon fill="midnightblue" stroke="midnightblue" points="130.5,-326.08 134,-336.08 137.5,-326.08 130.5,-326.08"/>
</g>
<!-- Node7 -->
<g id="node7" class="node">
<title>Node7</title>
<g id="a_node7"><a xlink:href="../../df/dfa/classCObjectInterface.html" target="_top" xlink:title=" ">
<polygon fill="white" stroke="black" points="29,-392.5 29,-411.5 119,-411.5 119,-392.5 29,-392.5"/>
<text text-anchor="middle" x="74" y="-399.5" font-family="FreeSans" font-size="10.00">CObjectInterface</text>
</a>
</g>
</g>
<!-- Node7&#45;&gt;Node6 -->
<g id="edge6" class="edge">
<title>Node7&#45;&gt;Node6</title>
<path fill="none" stroke="midnightblue" d="M91.18,-385.54C101.88,-375.91 115.26,-363.87 124.18,-355.83"/>
<polygon fill="midnightblue" stroke="midnightblue" points="88.73,-383.03 83.64,-392.32 93.41,-388.24 88.73,-383.03"/>
</g>
<!-- Node8 -->
<g id="node8" class="node">
<title>Node8</title>
<g id="a_node8"><a xlink:href="../../d8/d53/classCUndoObjectInterface.html" target="_top" xlink:title=" ">
<polygon fill="white" stroke="black" points="137.5,-392.5 137.5,-411.5 250.5,-411.5 250.5,-392.5 137.5,-392.5"/>
<text text-anchor="middle" x="194" y="-399.5" font-family="FreeSans" font-size="10.00">CUndoObjectInterface</text>
</a>
</g>
</g>
<!-- Node8&#45;&gt;Node6 -->
<g id="edge7" class="edge">
<title>Node8&#45;&gt;Node6</title>
<path fill="none" stroke="midnightblue" d="M176.82,-385.54C166.12,-375.91 152.74,-363.87 143.82,-355.83"/>
<polygon fill="midnightblue" stroke="midnightblue" points="174.59,-388.24 184.36,-392.32 179.27,-383.03 174.59,-388.24"/>
</g>
</g>
</svg>
