<?xml version="1.0" encoding="UTF-8" standalone="no"?>
<!DOCTYPE svg PUBLIC "-//W3C//DTD SVG 1.1//EN"
 "http://www.w3.org/Graphics/SVG/1.1/DTD/svg11.dtd">
<!-- Generated by graphviz version 2.43.0 (0)
 -->
<!-- Title: CLGraphicalObject Pages: 1 -->
<svg width="479pt" height="308pt"
 viewBox="0.00 0.00 478.50 308.00" xmlns="http://www.w3.org/2000/svg" xmlns:xlink="http://www.w3.org/1999/xlink">
<g id="graph0" class="graph" transform="scale(1 1) rotate(0) translate(4 304)">
<title>CLGraphicalObject</title>
<polygon fill="white" stroke="transparent" points="-4,4 -4,-304 474.5,-304 474.5,4 -4,4"/>
<!-- Node1 -->
<g id="node1" class="node">
<title>Node1</title>
<g id="a_node1"><a xlink:title=" ">
<polygon fill="#bfbfbf" stroke="black" points="235.5,-112.5 235.5,-131.5 334.5,-131.5 334.5,-112.5 235.5,-112.5"/>
<text text-anchor="middle" x="285" y="-119.5" font-family="FreeSans" font-size="10.00">CLGraphicalObject</text>
</a>
</g>
</g>
<!-- Node7 -->
<g id="node7" class="node">
<title>Node7</title>
<g id="a_node7"><a xlink:href="../../de/d28/classCLCompartmentGlyph.html" target="_top" xlink:title=" ">
<polygon fill="white" stroke="black" points="50.5,-56.5 50.5,-75.5 163.5,-75.5 163.5,-56.5 50.5,-56.5"/>
<text text-anchor="middle" x="107" y="-63.5" font-family="FreeSans" font-size="10.00">CLCompartmentGlyph</text>
</a>
</g>
</g>
<!-- Node1&#45;&gt;Node7 -->
<g id="edge6" class="edge">
<title>Node1&#45;&gt;Node7</title>
<path fill="none" stroke="midnightblue" d="M246.88,-109.44C213.32,-99.26 165.23,-84.66 135.07,-75.52"/>
<polygon fill="midnightblue" stroke="midnightblue" points="246.21,-112.89 256.8,-112.44 248.24,-106.19 246.21,-112.89"/>
</g>
<!-- Node8 -->
<g id="node8" class="node">
<title>Node8</title>
<g id="a_node8"><a xlink:href="../../dc/dac/classCLGlyphWithCurve.html" target="_top" xlink:title=" ">
<polygon fill="white" stroke="black" points="181.5,-56.5 181.5,-75.5 280.5,-75.5 280.5,-56.5 181.5,-56.5"/>
<text text-anchor="middle" x="231" y="-63.5" font-family="FreeSans" font-size="10.00">CLGlyphWithCurve</text>
</a>
</g>
</g>
<!-- Node1&#45;&gt;Node8 -->
<g id="edge7" class="edge">
<title>Node1&#45;&gt;Node8</title>
<path fill="none" stroke="midnightblue" d="M269,-105C259.43,-95.43 247.64,-83.64 239.75,-75.75"/>
<polygon fill="midnightblue" stroke="midnightblue" points="266.54,-107.49 276.08,-112.08 271.49,-102.54 266.54,-107.49"/>
</g>
<!-- Node13 -->
<g id="node13" class="node">
<title>Node13</title>
<g id="a_node13"><a xlink:href="../../dd/d45/classCLMetabGlyph.html" target="_top" xlink:title=" ">
<polygon fill="white" stroke="black" points="298.5,-56.5 298.5,-75.5 379.5,-75.5 379.5,-56.5 298.5,-56.5"/>
<text text-anchor="middle" x="339" y="-63.5" font-family="FreeSans" font-size="10.00">CLMetabGlyph</text>
</a>
</g>
</g>
<!-- Node1&#45;&gt;Node13 -->
<g id="edge12" class="edge">
<title>Node1&#45;&gt;Node13</title>
<path fill="none" stroke="midnightblue" d="M301,-105C310.57,-95.43 322.36,-83.64 330.25,-75.75"/>
<polygon fill="midnightblue" stroke="midnightblue" points="298.51,-102.54 293.92,-112.08 303.46,-107.49 298.51,-102.54"/>
</g>
<!-- Node14 -->
<g id="node14" class="node">
<title>Node14</title>
<g id="a_node14"><a xlink:href="../../d9/d9f/classCLTextGlyph.html" target="_top" xlink:title=" ">
<polygon fill="white" stroke="black" points="397.5,-56.5 397.5,-75.5 470.5,-75.5 470.5,-56.5 397.5,-56.5"/>
<text text-anchor="middle" x="434" y="-63.5" font-family="FreeSans" font-size="10.00">CLTextGlyph</text>
</a>
</g>
</g>
<!-- Node1&#45;&gt;Node14 -->
<g id="edge13" class="edge">
<title>Node1&#45;&gt;Node14</title>
<path fill="none" stroke="midnightblue" d="M318.37,-108.91C346.38,-98.75 385.7,-84.51 410.5,-75.52"/>
<polygon fill="midnightblue" stroke="midnightblue" points="316.82,-105.75 308.61,-112.44 319.2,-112.33 316.82,-105.75"/>
</g>
<!-- Node2 -->
<g id="node2" class="node">
<title>Node2</title>
<g id="a_node2"><a xlink:href="../../d7/df9/classCLBase.html" target="_top" xlink:title=" ">
<polygon fill="white" stroke="black" points="216,-168.5 216,-187.5 268,-187.5 268,-168.5 216,-168.5"/>
<text text-anchor="middle" x="242" y="-175.5" font-family="FreeSans" font-size="10.00">CLBase</text>
</a>
</g>
</g>
<!-- Node2&#45;&gt;Node1 -->
<g id="edge1" class="edge">
<title>Node2&#45;&gt;Node1</title>
<path fill="none" stroke="midnightblue" d="M255.42,-160.14C262.91,-150.74 271.94,-139.4 278.03,-131.75"/>
<polygon fill="midnightblue" stroke="midnightblue" points="252.59,-158.08 249.1,-168.08 258.07,-162.44 252.59,-158.08"/>
</g>
<!-- Node3 -->
<g id="node3" class="node">
<title>Node3</title>
<g id="a_node3"><a xlink:href="../../d3/db9/classCDataContainer.html" target="_top" xlink:title=" ">
<polygon fill="white" stroke="black" points="286.5,-168.5 286.5,-187.5 371.5,-187.5 371.5,-168.5 286.5,-168.5"/>
<text text-anchor="middle" x="329" y="-175.5" font-family="FreeSans" font-size="10.00">CDataContainer</text>
</a>
</g>
</g>
<!-- Node3&#45;&gt;Node1 -->
<g id="edge2" class="edge">
<title>Node3&#45;&gt;Node1</title>
<path fill="none" stroke="midnightblue" d="M315.27,-160.14C307.6,-150.74 298.37,-139.4 292.13,-131.75"/>
<polygon fill="midnightblue" stroke="midnightblue" points="312.7,-162.54 321.73,-168.08 318.13,-158.12 312.7,-162.54"/>
</g>
<!-- Node4 -->
<g id="node4" class="node">
<title>Node4</title>
<g id="a_node4"><a xlink:href="../../d1/d6b/classCDataObject.html" target="_top" xlink:title=" ">
<polygon fill="white" stroke="black" points="293,-224.5 293,-243.5 365,-243.5 365,-224.5 293,-224.5"/>
<text text-anchor="middle" x="329" y="-231.5" font-family="FreeSans" font-size="10.00">CDataObject</text>
</a>
</g>
</g>
<!-- Node4&#45;&gt;Node3 -->
<g id="edge3" class="edge">
<title>Node4&#45;&gt;Node3</title>
<path fill="none" stroke="midnightblue" d="M329,-213.8C329,-204.91 329,-194.78 329,-187.75"/>
<polygon fill="midnightblue" stroke="midnightblue" points="325.5,-214.08 329,-224.08 332.5,-214.08 325.5,-214.08"/>
</g>
<!-- Node5 -->
<g id="node5" class="node">
<title>Node5</title>
<g id="a_node5"><a xlink:href="../../df/dfa/classCObjectInterface.html" target="_top" xlink:title=" ">
<polygon fill="white" stroke="black" points="224,-280.5 224,-299.5 314,-299.5 314,-280.5 224,-280.5"/>
<text text-anchor="middle" x="269" y="-287.5" font-family="FreeSans" font-size="10.00">CObjectInterface</text>
</a>
</g>
</g>
<!-- Node5&#45;&gt;Node4 -->
<g id="edge4" class="edge">
<title>Node5&#45;&gt;Node4</title>
<path fill="none" stroke="midnightblue" d="M286.18,-273.54C296.88,-263.91 310.26,-251.87 319.18,-243.83"/>
<polygon fill="midnightblue" stroke="midnightblue" points="283.73,-271.03 278.64,-280.32 288.41,-276.24 283.73,-271.03"/>
</g>
<!-- Node6 -->
<g id="node6" class="node">
<title>Node6</title>
<g id="a_node6"><a xlink:href="../../d8/d53/classCUndoObjectInterface.html" target="_top" xlink:title=" ">
<polygon fill="white" stroke="black" points="332.5,-280.5 332.5,-299.5 445.5,-299.5 445.5,-280.5 332.5,-280.5"/>
<text text-anchor="middle" x="389" y="-287.5" font-family="FreeSans" font-size="10.00">CUndoObjectInterface</text>
</a>
</g>
</g>
<!-- Node6&#45;&gt;Node4 -->
<g id="edge5" class="edge">
<title>Node6&#45;&gt;Node4</title>
<path fill="none" stroke="midnightblue" d="M371.82,-273.54C361.12,-263.91 347.74,-251.87 338.82,-243.83"/>
<polygon fill="midnightblue" stroke="midnightblue" points="369.59,-276.24 379.36,-280.32 374.27,-271.03 369.59,-276.24"/>
</g>
<!-- Node9 -->
<g id="node9" class="node">
<title>Node9</title>
<g id="a_node9"><a xlink:href="../../d8/dde/classCLGeneralGlyph.html" target="_top" xlink:title=" ">
<polygon fill="white" stroke="black" points="0,-0.5 0,-19.5 88,-19.5 88,-0.5 0,-0.5"/>
<text text-anchor="middle" x="44" y="-7.5" font-family="FreeSans" font-size="10.00">CLGeneralGlyph</text>
</a>
</g>
</g>
<!-- Node8&#45;&gt;Node9 -->
<g id="edge8" class="edge">
<title>Node8&#45;&gt;Node9</title>
<path fill="none" stroke="midnightblue" d="M191.41,-53.57C156.13,-43.38 105.31,-28.7 73.49,-19.52"/>
<polygon fill="midnightblue" stroke="midnightblue" points="190.79,-57.03 201.37,-56.44 192.73,-50.31 190.79,-57.03"/>
</g>
<!-- Node10 -->
<g id="node10" class="node">
<title>Node10</title>
<g id="a_node10"><a xlink:href="../../d6/d63/classCLMetabReferenceGlyph.html" target="_top" xlink:title=" ">
<polygon fill="white" stroke="black" points="105.5,-0.5 105.5,-19.5 230.5,-19.5 230.5,-0.5 105.5,-0.5"/>
<text text-anchor="middle" x="168" y="-7.5" font-family="FreeSans" font-size="10.00">CLMetabReferenceGlyph</text>
</a>
</g>
</g>
<!-- Node8&#45;&gt;Node10 -->
<g id="edge9" class="edge">
<title>Node8&#45;&gt;Node10</title>
<path fill="none" stroke="midnightblue" d="M212.96,-49.54C201.73,-39.91 187.68,-27.87 178.31,-19.83"/>
<polygon fill="midnightblue" stroke="midnightblue" points="211.01,-52.47 220.88,-56.32 215.56,-47.16 211.01,-52.47"/>
</g>
<!-- Node11 -->
<g id="node11" class="node">
<title>Node11</title>
<g id="a_node11"><a xlink:href="../../d8/d67/classCLReactionGlyph.html" target="_top" xlink:title=" ">
<polygon fill="white" stroke="black" points="249,-0.5 249,-19.5 341,-19.5 341,-0.5 249,-0.5"/>
<text text-anchor="middle" x="295" y="-7.5" font-family="FreeSans" font-size="10.00">CLReactionGlyph</text>
</a>
</g>
</g>
<!-- Node8&#45;&gt;Node11 -->
<g id="edge10" class="edge">
<title>Node8&#45;&gt;Node11</title>
<path fill="none" stroke="midnightblue" d="M248.99,-49.82C260.46,-40.15 274.91,-27.95 284.53,-19.83"/>
<polygon fill="midnightblue" stroke="midnightblue" points="246.67,-47.2 241.28,-56.32 251.18,-52.55 246.67,-47.2"/>
</g>
<!-- Node12 -->
<g id="node12" class="node">
<title>Node12</title>
<g id="a_node12"><a xlink:href="../../dd/de1/classCLReferenceGlyph.html" target="_top" xlink:title=" ">
<polygon fill="white" stroke="black" points="359,-0.5 359,-19.5 457,-19.5 457,-0.5 359,-0.5"/>
<text text-anchor="middle" x="408" y="-7.5" font-family="FreeSans" font-size="10.00">CLReferenceGlyph</text>
</a>
</g>
</g>
<!-- Node8&#45;&gt;Node12 -->
<g id="edge11" class="edge">
<title>Node8&#45;&gt;Node12</title>
<path fill="none" stroke="midnightblue" d="M268.9,-53.44C302.28,-43.26 350.1,-28.66 380.09,-19.52"/>
<polygon fill="midnightblue" stroke="midnightblue" points="267.59,-50.18 259.05,-56.44 269.63,-56.87 267.59,-50.18"/>
</g>
</g>
</svg>
