<?xml version="1.0" encoding="UTF-8" standalone="no"?>
<!DOCTYPE svg PUBLIC "-//W3C//DTD SVG 1.1//EN"
 "http://www.w3.org/Graphics/SVG/1.1/DTD/svg11.dtd">
<!-- Generated by graphviz version 2.43.0 (0)
 -->
<!-- Title: CCallbackInterface Pages: 1 -->
<svg width="216pt" height="84pt"
 viewBox="0.00 0.00 216.00 84.00" xmlns="http://www.w3.org/2000/svg" xmlns:xlink="http://www.w3.org/1999/xlink">
<g id="graph0" class="graph" transform="scale(1 1) rotate(0) translate(4 80)">
<title>CCallbackInterface</title>
<polygon fill="white" stroke="transparent" points="-4,4 -4,-80 212,-80 212,4 -4,4"/>
<!-- Node1 -->
<g id="node1" class="node">
<title>Node1</title>
<g id="a_node1"><a xlink:title=" ">
<polygon fill="#bfbfbf" stroke="black" points="58.5,-56.5 58.5,-75.5 157.5,-75.5 157.5,-56.5 58.5,-56.5"/>
<text text-anchor="middle" x="108" y="-63.5" font-family="FreeSans" font-size="10.00">CCallbackInterface</text>
</a>
</g>
</g>
<!-- Node2 -->
<g id="node2" class="node">
<title>Node2</title>
<g id="a_node2"><a xlink:href="../../d2/d6a/classCCallback.html" target="_top" xlink:title=" ">
<polygon fill="white" stroke="black" points="0,-0.5 0,-19.5 104,-19.5 104,-0.5 0,-0.5"/>
<text text-anchor="middle" x="52" y="-7.5" font-family="FreeSans" font-size="10.00">CCallback&lt; Callee &gt;</text>
</a>
</g>
</g>
<!-- Node1&#45;&gt;Node2 -->
<g id="edge1" class="edge">
<title>Node1&#45;&gt;Node2</title>
<path fill="none" stroke="midnightblue" d="M91.67,-49.25C81.74,-39.67 69.41,-27.79 61.16,-19.83"/>
<polygon fill="midnightblue" stroke="midnightblue" points="89.37,-51.9 99,-56.32 94.23,-46.86 89.37,-51.9"/>
</g>
<!-- Node3 -->
<g id="node3" class="node">
<title>Node3</title>
<g id="a_node3"><a xlink:href="../../d9/d46/classCStaticCallback.html" target="_top" xlink:title=" ">
<polygon fill="white" stroke="black" points="122,-0.5 122,-19.5 208,-19.5 208,-0.5 122,-0.5"/>
<text text-anchor="middle" x="165" y="-7.5" font-family="FreeSans" font-size="10.00">CStaticCallback</text>
</a>
</g>
</g>
<!-- Node1&#45;&gt;Node3 -->
<g id="edge2" class="edge">
<title>Node1&#45;&gt;Node3</title>
<path fill="none" stroke="midnightblue" d="M124.62,-49.25C134.73,-39.67 147.28,-27.79 155.68,-19.83"/>
<polygon fill="midnightblue" stroke="midnightblue" points="122.01,-46.91 117.16,-56.32 126.82,-51.99 122.01,-46.91"/>
</g>
</g>
</svg>
