<?xml version="1.0" encoding="UTF-8" standalone="no"?>
<!DOCTYPE svg PUBLIC "-//W3C//DTD SVG 1.1//EN"
 "http://www.w3.org/Graphics/SVG/1.1/DTD/svg11.dtd">
<!-- Generated by graphviz version 2.43.0 (0)
 -->
<!-- Title: CMatrix&lt; CType &gt; Pages: 1 -->
<svg width="470pt" height="199pt"
 viewBox="0.00 0.00 470.00 199.00" xmlns="http://www.w3.org/2000/svg" xmlns:xlink="http://www.w3.org/1999/xlink">
<g id="graph0" class="graph" transform="scale(1 1) rotate(0) translate(4 195)">
<title>CMatrix&lt; CType &gt;</title>
<polygon fill="white" stroke="transparent" points="-4,4 -4,-195 466,-195 466,4 -4,4"/>
<!-- Node1 -->
<g id="node1" class="node">
<title>Node1</title>
<g id="a_node1"><a xlink:title=" ">
<polygon fill="#bfbfbf" stroke="black" points="0,-76.5 0,-95.5 94,-95.5 94,-76.5 0,-76.5"/>
<text text-anchor="middle" x="47" y="-83.5" font-family="FreeSans" font-size="10.00">CMatrix&lt; CType &gt;</text>
</a>
</g>
</g>
<!-- Node2 -->
<g id="node2" class="node">
<title>Node2</title>
<g id="a_node2"><a xlink:href="../../d7/dd7/classCMatrix.html" target="_top" xlink:title=" ">
<polygon fill="white" stroke="black" points="224.5,-152.5 224.5,-171.5 345.5,-171.5 345.5,-152.5 224.5,-152.5"/>
<text text-anchor="middle" x="285" y="-159.5" font-family="FreeSans" font-size="10.00">CMatrix&lt; C_FLOAT64 &gt;</text>
</a>
</g>
</g>
<!-- Node1&#45;&gt;Node2 -->
<g id="edge1" class="edge">
<title>Node1&#45;&gt;Node2</title>
<path fill="none" stroke="orange" stroke-dasharray="5,2" d="M67.46,-102.1C79.57,-111.33 95.86,-122.36 112,-129 147.71,-143.7 190.32,-151.94 224.19,-156.51"/>
<polygon fill="orange" stroke="orange" points="69.46,-99.23 59.44,-95.8 65.13,-104.73 69.46,-99.23"/>
<text text-anchor="middle" x="156" y="-155" font-family="FreeSans" font-size="10.00"> &lt; C_FLOAT64 &gt;</text>
</g>
<!-- Node5 -->
<g id="node5" class="node">
<title>Node5</title>
<g id="a_node5"><a xlink:href="../../d7/dd7/classCMatrix.html" target="_top" xlink:title=" ">
<polygon fill="white" stroke="black" points="232.5,-114.5 232.5,-133.5 337.5,-133.5 337.5,-114.5 232.5,-114.5"/>
<text text-anchor="middle" x="285" y="-121.5" font-family="FreeSans" font-size="10.00">CMatrix&lt; C_INT64 &gt;</text>
</a>
</g>
</g>
<!-- Node1&#45;&gt;Node5 -->
<g id="edge4" class="edge">
<title>Node1&#45;&gt;Node5</title>
<path fill="none" stroke="orange" stroke-dasharray="5,2" d="M96.22,-97.83C101.53,-98.97 106.87,-100.06 112,-101 152.15,-108.37 197.98,-114.38 232.24,-118.41"/>
<polygon fill="orange" stroke="orange" points="96.64,-94.34 86.11,-95.57 95.11,-101.17 96.64,-94.34"/>
<text text-anchor="middle" x="156" y="-117" font-family="FreeSans" font-size="10.00"> &lt; C_INT64 &gt;</text>
</g>
<!-- Node6 -->
<g id="node6" class="node">
<title>Node6</title>
<g id="a_node6"><a xlink:href="../../d7/dd7/classCMatrix.html" target="_top" xlink:title=" ">
<polygon fill="white" stroke="black" points="221.5,-76.5 221.5,-95.5 348.5,-95.5 348.5,-76.5 221.5,-76.5"/>
<text text-anchor="middle" x="285" y="-83.5" font-family="FreeSans" font-size="10.00">CMatrix&lt; C_FLOAT64 * &gt;</text>
</a>
</g>
</g>
<!-- Node1&#45;&gt;Node6 -->
<g id="edge5" class="edge">
<title>Node1&#45;&gt;Node6</title>
<path fill="none" stroke="orange" stroke-dasharray="5,2" d="M104.16,-86C139.33,-86 184.71,-86 221.09,-86"/>
<polygon fill="orange" stroke="orange" points="104.06,-82.5 94.06,-86 104.06,-89.5 104.06,-82.5"/>
<text text-anchor="middle" x="156" y="-89" font-family="FreeSans" font-size="10.00"> &lt; C_FLOAT64 * &gt;</text>
</g>
<!-- Node7 -->
<g id="node7" class="node">
<title>Node7</title>
<g id="a_node7"><a xlink:href="../../d7/dd7/classCMatrix.html" target="_top" xlink:title=" ">
<polygon fill="white" stroke="black" points="232.5,-38.5 232.5,-57.5 337.5,-57.5 337.5,-38.5 232.5,-38.5"/>
<text text-anchor="middle" x="285" y="-45.5" font-family="FreeSans" font-size="10.00">CMatrix&lt; C_INT32 &gt;</text>
</a>
</g>
</g>
<!-- Node1&#45;&gt;Node7 -->
<g id="edge6" class="edge">
<title>Node1&#45;&gt;Node7</title>
<path fill="none" stroke="orange" stroke-dasharray="5,2" d="M96.22,-74.17C101.53,-73.03 106.87,-71.94 112,-71 152.15,-63.63 197.98,-57.62 232.24,-53.59"/>
<polygon fill="orange" stroke="orange" points="95.11,-70.83 86.11,-76.43 96.64,-77.66 95.11,-70.83"/>
<text text-anchor="middle" x="156" y="-74" font-family="FreeSans" font-size="10.00"> &lt; C_INT32 &gt;</text>
</g>
<!-- Node8 -->
<g id="node8" class="node">
<title>Node8</title>
<g id="a_node8"><a xlink:href="../../d7/dd7/classCMatrix.html" target="_top" xlink:title=" ">
<polygon fill="white" stroke="black" points="218,-0.5 218,-19.5 352,-19.5 352,-0.5 218,-0.5"/>
<text text-anchor="middle" x="285" y="-7.5" font-family="FreeSans" font-size="10.00">CMatrix&lt; CFitConstraint * &gt;</text>
</a>
</g>
</g>
<!-- Node1&#45;&gt;Node8 -->
<g id="edge7" class="edge">
<title>Node1&#45;&gt;Node8</title>
<path fill="none" stroke="orange" stroke-dasharray="5,2" d="M67.53,-70.32C79.66,-61.32 95.96,-50.55 112,-44 145.53,-30.3 185.05,-21.99 217.75,-17.02"/>
<polygon fill="orange" stroke="orange" points="65.31,-67.61 59.49,-76.46 69.56,-73.17 65.31,-67.61"/>
<text text-anchor="middle" x="156" y="-47" font-family="FreeSans" font-size="10.00"> &lt; CFitConstraint * &gt;</text>
</g>
<!-- Node3 -->
<g id="node3" class="node">
<title>Node3</title>
<g id="a_node3"><a xlink:href="../../d9/d6a/classCLinkMatrix.html" target="_top" xlink:title=" ">
<polygon fill="white" stroke="black" points="391.5,-171.5 391.5,-190.5 459.5,-190.5 459.5,-171.5 391.5,-171.5"/>
<text text-anchor="middle" x="425.5" y="-178.5" font-family="FreeSans" font-size="10.00">CLinkMatrix</text>
</a>
</g>
</g>
<!-- Node2&#45;&gt;Node3 -->
<g id="edge2" class="edge">
<title>Node2&#45;&gt;Node3</title>
<path fill="none" stroke="midnightblue" d="M355.53,-171.54C368.02,-173.25 380.5,-174.96 391.34,-176.45"/>
<polygon fill="midnightblue" stroke="midnightblue" points="355.92,-168.06 345.54,-170.17 354.97,-174.99 355.92,-168.06"/>
</g>
<!-- Node4 -->
<g id="node4" class="node">
<title>Node4</title>
<g id="a_node4"><a xlink:href="../../d9/d47/classCTimeSeries.html" target="_top" xlink:title=" ">
<polygon fill="white" stroke="black" points="389,-133.5 389,-152.5 462,-152.5 462,-133.5 389,-133.5"/>
<text text-anchor="middle" x="425.5" y="-140.5" font-family="FreeSans" font-size="10.00">CTimeSeries</text>
</a>
</g>
</g>
<!-- Node2&#45;&gt;Node4 -->
<g id="edge3" class="edge">
<title>Node2&#45;&gt;Node4</title>
<path fill="none" stroke="darkgreen" d="M355.57,-152.46C367.01,-150.89 378.44,-149.32 388.61,-147.92"/>
<polygon fill="darkgreen" stroke="darkgreen" points="354.97,-149.01 345.54,-153.83 355.92,-155.94 354.97,-149.01"/>
</g>
</g>
</svg>
