<?xml version="1.0" encoding="UTF-8" standalone="no"?>
<!DOCTYPE svg PUBLIC "-//W3C//DTD SVG 1.1//EN"
 "http://www.w3.org/Graphics/SVG/1.1/DTD/svg11.dtd">
<!-- Generated by graphviz version 2.43.0 (0)
 -->
<!-- Title: CCopasiNode&lt; _Data &gt; Pages: 1 -->
<!--zoomable 522 -->
<svg id="main" version="1.1" xmlns="http://www.w3.org/2000/svg" xmlns:xlink="http://www.w3.org/1999/xlink" xml:space="preserve" onload="init(evt)">
<style type="text/css"><![CDATA[
.edge:hover path { stroke: red; }
.edge:hover polygon { stroke: red; fill: red; }
]]></style>
<script type="text/javascript"><![CDATA[
var edges = document.getElementsByTagName('g');
if (edges && edges.length) {
  for (var i=0;i<edges.length;i++) {
    if (edges[i].id.substr(0,4)=='edge') {
      edges[i].setAttribute('class','edge');
    }
  }
}
]]></script>
        <defs>
                <circle id="rim" cx="0" cy="0" r="7"/>
                <circle id="rim2" cx="0" cy="0" r="3.5"/>
                <g id="zoomPlus">
                        <use xlink:href="#rim" fill="#404040">
                                <set attributeName="fill" to="#808080" begin="zoomplus.mouseover" end="zoomplus.mouseout"/>
                        </use>
                        <path d="M-4,0h8M0,-4v8" fill="none" stroke="white" stroke-width="1.5" pointer-events="none"/>
                </g>
                <g id="zoomMin">
                        <use xlink:href="#rim" fill="#404040">
                                <set attributeName="fill" to="#808080" begin="zoomminus.mouseover" end="zoomminus.mouseout"/>
                        </use>
                        <path d="M-4,0h8" fill="none" stroke="white" stroke-width="1.5" pointer-events="none"/>
                </g>
                <g id="dirArrow">
                        <path fill="none" stroke="white" stroke-width="1.5" d="M0,-3.0v7 M-2.5,-0.5L0,-3.0L2.5,-0.5"/>
                </g>
               <g id="resetDef">
                       <use xlink:href="#rim2" fill="#404040">
                               <set attributeName="fill" to="#808080" begin="reset.mouseover" end="reset.mouseout"/>
                       </use>
               </g>
        </defs>

<script type="text/javascript">
var viewWidth = 756;
var viewHeight = 522;
var sectionId = 'dynsection-0';
</script>
<script xlink:href="../../svgpan.js"/>
<svg id="graph" class="graph">
<g id="viewport">
<title>CCopasiNode&lt; _Data &gt;</title>
<polygon fill="white" stroke="transparent" points="-4,4 -4,-518 752,-518 752,4 -4,4"/>
<!-- Node1 -->
<g id="node1" class="node">
<title>Node1</title>
<g id="a_node1"><a xlink:title=" ">
<polygon fill="#bfbfbf" stroke="black" points="0,-228.5 0,-247.5 119,-247.5 119,-228.5 0,-228.5"/>
<text text-anchor="middle" x="59.5" y="-235.5" font-family="FreeSans" font-size="10.00">CCopasiNode&lt; _Data &gt;</text>
</a>
</g>
</g>
<!-- Node2 -->
<g id="node2" class="node">
<title>Node2</title>
<g id="a_node2"><a xlink:href="../../d9/d9d/classCCopasiNode.html" target="_top" xlink:title=" ">
<polygon fill="white" stroke="black" points="216,-247.5 216,-266.5 351,-266.5 351,-247.5 216,-247.5"/>
<text text-anchor="middle" x="283.5" y="-254.5" font-family="FreeSans" font-size="10.00">CCopasiNode&lt; std::string &gt;</text>
</a>
</g>
</g>
<!-- Node1&#45;&gt;Node2 -->
<g id="edge1" class="edge">
<title>Node1&#45;&gt;Node2</title>
<path fill="none" stroke="orange" stroke-dasharray="5,2" d="M129.44,-243.9C156.91,-246.25 188.43,-248.95 215.7,-251.28"/>
<polygon fill="orange" stroke="orange" points="129.38,-240.38 119.12,-243.02 128.78,-247.36 129.38,-240.38"/>
<text text-anchor="middle" x="167.5" y="-252" font-family="FreeSans" font-size="10.00"> &lt; std::string &gt;</text>
</g>
<!-- Node18 -->
<g id="node18" class="node">
<title>Node18</title>
<g id="a_node18"><a xlink:href="../../d9/d9d/classCCopasiNode.html" target="_top" xlink:title=" ">
<polygon fill="white" stroke="black" points="224,-209.5 224,-228.5 343,-228.5 343,-209.5 224,-209.5"/>
<text text-anchor="middle" x="283.5" y="-216.5" font-family="FreeSans" font-size="10.00">CCopasiNode&lt; size_t &gt;</text>
</a>
</g>
</g>
<!-- Node1&#45;&gt;Node18 -->
<g id="edge17" class="edge">
<title>Node1&#45;&gt;Node18</title>
<path fill="none" stroke="orange" stroke-dasharray="5,2" d="M129.37,-229.74C131.95,-229.48 134.5,-229.23 137,-229 165.49,-226.35 197.18,-224.09 223.69,-222.39"/>
<polygon fill="orange" stroke="orange" points="128.94,-226.27 119.36,-230.78 129.67,-233.23 128.94,-226.27"/>
<text text-anchor="middle" x="167.5" y="-232" font-family="FreeSans" font-size="10.00"> &lt; size_t &gt;</text>
</g>
<!-- Node3 -->
<g id="node3" class="node">
<title>Node3</title>
<g id="a_node3"><a xlink:href="../../d8/d9f/classCEvaluationNode.html" target="_top" xlink:title=" ">
<polygon fill="white" stroke="black" points="431.5,-247.5 431.5,-266.5 523.5,-266.5 523.5,-247.5 431.5,-247.5"/>
<text text-anchor="middle" x="477.5" y="-254.5" font-family="FreeSans" font-size="10.00">CEvaluationNode</text>
</a>
</g>
</g>
<!-- Node2&#45;&gt;Node3 -->
<g id="edge2" class="edge">
<title>Node2&#45;&gt;Node3</title>
<path fill="none" stroke="midnightblue" d="M361.2,-257C385.02,-257 410.49,-257 431.42,-257"/>
<polygon fill="midnightblue" stroke="midnightblue" points="361.11,-253.5 351.11,-257 361.11,-260.5 361.11,-253.5"/>
</g>
<!-- Node4 -->
<g id="node4" class="node">
<title>Node4</title>
<g id="a_node4"><a xlink:href="../../df/d44/classCEvaluationNodeCall.html" target="_top" xlink:title=" ">
<polygon fill="white" stroke="black" points="622,-494.5 622,-513.5 730,-513.5 730,-494.5 622,-494.5"/>
<text text-anchor="middle" x="676" y="-501.5" font-family="FreeSans" font-size="10.00">CEvaluationNodeCall</text>
</a>
</g>
</g>
<!-- Node3&#45;&gt;Node4 -->
<g id="edge3" class="edge">
<title>Node3&#45;&gt;Node4</title>
<path fill="none" stroke="midnightblue" d="M483.5,-276.31C495.92,-320.41 532.52,-429 604,-485 609.32,-489.17 615.49,-492.43 621.91,-494.97"/>
<polygon fill="midnightblue" stroke="midnightblue" points="486.85,-275.3 480.85,-266.56 480.09,-277.13 486.85,-275.3"/>
</g>
<!-- Node5 -->
<g id="node5" class="node">
<title>Node5</title>
<g id="a_node5"><a xlink:href="../../d7/ddb/classCEvaluationNodeChoice.html" target="_top" xlink:title=" ">
<polygon fill="white" stroke="black" points="615,-456.5 615,-475.5 737,-475.5 737,-456.5 615,-456.5"/>
<text text-anchor="middle" x="676" y="-463.5" font-family="FreeSans" font-size="10.00">CEvaluationNodeChoice</text>
</a>
</g>
</g>
<!-- Node3&#45;&gt;Node5 -->
<g id="edge4" class="edge">
<title>Node3&#45;&gt;Node5</title>
<path fill="none" stroke="midnightblue" d="M485.68,-276.19C501.12,-314.74 541.26,-401.8 604,-447 609.38,-450.88 615.51,-453.97 621.85,-456.42"/>
<polygon fill="midnightblue" stroke="midnightblue" points="488.87,-274.72 481.98,-266.67 482.34,-277.26 488.87,-274.72"/>
</g>
<!-- Node6 -->
<g id="node6" class="node">
<title>Node6</title>
<g id="a_node6"><a xlink:href="../../dd/d1f/classCEvaluationNodeConstant.html" target="_top" xlink:title=" ">
<polygon fill="white" stroke="black" points="610.5,-418.5 610.5,-437.5 741.5,-437.5 741.5,-418.5 610.5,-418.5"/>
<text text-anchor="middle" x="676" y="-425.5" font-family="FreeSans" font-size="10.00">CEvaluationNodeConstant</text>
</a>
</g>
</g>
<!-- Node3&#45;&gt;Node6 -->
<g id="edge5" class="edge">
<title>Node3&#45;&gt;Node6</title>
<path fill="none" stroke="midnightblue" d="M488.49,-275.39C506.93,-307.57 549.47,-373.97 604,-409 610.01,-412.86 616.79,-415.94 623.71,-418.4"/>
<polygon fill="midnightblue" stroke="midnightblue" points="491.49,-273.59 483.55,-266.58 485.39,-277.01 491.49,-273.59"/>
</g>
<!-- Node7 -->
<g id="node7" class="node">
<title>Node7</title>
<g id="a_node7"><a xlink:href="../../dd/d48/classCEvaluationNodeDelay.html" target="_top" xlink:title=" ">
<polygon fill="white" stroke="black" points="618,-380.5 618,-399.5 734,-399.5 734,-380.5 618,-380.5"/>
<text text-anchor="middle" x="676" y="-387.5" font-family="FreeSans" font-size="10.00">CEvaluationNodeDelay</text>
</a>
</g>
</g>
<!-- Node3&#45;&gt;Node7 -->
<g id="edge6" class="edge">
<title>Node3&#45;&gt;Node7</title>
<path fill="none" stroke="midnightblue" d="M492.89,-274.55C514.43,-299.68 557.54,-345.65 604,-371 611.06,-374.85 618.94,-377.96 626.82,-380.45"/>
<polygon fill="midnightblue" stroke="midnightblue" points="495.31,-272 486.2,-266.6 489.96,-276.51 495.31,-272"/>
</g>
<!-- Node8 -->
<g id="node8" class="node">
<title>Node8</title>
<g id="a_node8"><a xlink:href="../../d8/dcb/classCEvaluationNodeFunction.html" target="_top" xlink:title=" ">
<polygon fill="white" stroke="black" points="611.5,-342.5 611.5,-361.5 740.5,-361.5 740.5,-342.5 611.5,-342.5"/>
<text text-anchor="middle" x="676" y="-349.5" font-family="FreeSans" font-size="10.00">CEvaluationNodeFunction</text>
</a>
</g>
</g>
<!-- Node3&#45;&gt;Node8 -->
<g id="edge7" class="edge">
<title>Node3&#45;&gt;Node8</title>
<path fill="none" stroke="midnightblue" d="M499.79,-272.48C523.97,-289.44 565.15,-316.44 604,-333 612.69,-336.7 622.28,-339.85 631.54,-342.46"/>
<polygon fill="midnightblue" stroke="midnightblue" points="501.57,-269.45 491.39,-266.52 497.51,-275.16 501.57,-269.45"/>
</g>
<!-- Node9 -->
<g id="node9" class="node">
<title>Node9</title>
<g id="a_node9"><a xlink:href="../../de/d73/classCEvaluationNodeLogical.html" target="_top" xlink:title=" ">
<polygon fill="white" stroke="black" points="614.5,-304.5 614.5,-323.5 737.5,-323.5 737.5,-304.5 614.5,-304.5"/>
<text text-anchor="middle" x="676" y="-311.5" font-family="FreeSans" font-size="10.00">CEvaluationNodeLogical</text>
</a>
</g>
</g>
<!-- Node3&#45;&gt;Node9 -->
<g id="edge8" class="edge">
<title>Node3&#45;&gt;Node9</title>
<path fill="none" stroke="midnightblue" d="M518.8,-269.57C543.37,-277.14 575.43,-286.85 604,-295 615.17,-298.18 627.37,-301.5 638.45,-304.46"/>
<polygon fill="midnightblue" stroke="midnightblue" points="519.69,-266.18 509.11,-266.57 517.63,-272.87 519.69,-266.18"/>
</g>
<!-- Node10 -->
<g id="node10" class="node">
<title>Node10</title>
<g id="a_node10"><a xlink:href="../../d3/d2a/classCEvaluationNodeNumber.html" target="_top" xlink:title=" ">
<polygon fill="white" stroke="black" points="613,-266.5 613,-285.5 739,-285.5 739,-266.5 613,-266.5"/>
<text text-anchor="middle" x="676" y="-273.5" font-family="FreeSans" font-size="10.00">CEvaluationNodeNumber</text>
</a>
</g>
</g>
<!-- Node3&#45;&gt;Node10 -->
<g id="edge9" class="edge">
<title>Node3&#45;&gt;Node10</title>
<path fill="none" stroke="midnightblue" d="M533.8,-262.35C558.34,-264.72 587.33,-267.52 612.63,-269.97"/>
<polygon fill="midnightblue" stroke="midnightblue" points="533.87,-258.84 523.58,-261.36 533.2,-265.81 533.87,-258.84"/>
</g>
<!-- Node11 -->
<g id="node11" class="node">
<title>Node11</title>
<g id="a_node11"><a xlink:href="../../d8/d28/classCEvaluationNodeObject.html" target="_top" xlink:title=" ">
<polygon fill="white" stroke="black" points="616,-228.5 616,-247.5 736,-247.5 736,-228.5 616,-228.5"/>
<text text-anchor="middle" x="676" y="-235.5" font-family="FreeSans" font-size="10.00">CEvaluationNodeObject</text>
</a>
</g>
</g>
<!-- Node3&#45;&gt;Node11 -->
<g id="edge10" class="edge">
<title>Node3&#45;&gt;Node11</title>
<path fill="none" stroke="midnightblue" d="M533.87,-251.65C559.47,-249.17 589.92,-246.23 615.96,-243.71"/>
<polygon fill="midnightblue" stroke="midnightblue" points="533.2,-248.19 523.58,-252.64 533.87,-255.16 533.2,-248.19"/>
</g>
<!-- Node12 -->
<g id="node12" class="node">
<title>Node12</title>
<g id="a_node12"><a xlink:href="../../d5/de4/classCEvaluationNodeOperator.html" target="_top" xlink:title=" ">
<polygon fill="white" stroke="black" points="611.5,-190.5 611.5,-209.5 740.5,-209.5 740.5,-190.5 611.5,-190.5"/>
<text text-anchor="middle" x="676" y="-197.5" font-family="FreeSans" font-size="10.00">CEvaluationNodeOperator</text>
</a>
</g>
</g>
<!-- Node3&#45;&gt;Node12 -->
<g id="edge11" class="edge">
<title>Node3&#45;&gt;Node12</title>
<path fill="none" stroke="midnightblue" d="M533.8,-247.47C544.94,-244.9 556.46,-241.76 567,-238 584.41,-231.78 586.75,-225.65 604,-219 613.29,-215.42 623.51,-212.26 633.23,-209.59"/>
<polygon fill="midnightblue" stroke="midnightblue" points="532.73,-244.12 523.71,-249.68 534.22,-250.96 532.73,-244.12"/>
</g>
<!-- Node13 -->
<g id="node13" class="node">
<title>Node13</title>
<g id="a_node13"><a xlink:href="../../d4/de7/classCEvaluationNodeStructure.html" target="_top" xlink:title=" ">
<polygon fill="white" stroke="black" points="610.5,-152.5 610.5,-171.5 741.5,-171.5 741.5,-152.5 610.5,-152.5"/>
<text text-anchor="middle" x="676" y="-159.5" font-family="FreeSans" font-size="10.00">CEvaluationNodeStructure</text>
</a>
</g>
</g>
<!-- Node3&#45;&gt;Node13 -->
<g id="edge12" class="edge">
<title>Node3&#45;&gt;Node13</title>
<path fill="none" stroke="midnightblue" d="M533.38,-252.14C545.19,-249.27 557.09,-244.83 567,-238 591.87,-220.87 579.56,-198.75 604,-181 609.37,-177.1 615.49,-174 621.82,-171.54"/>
<polygon fill="midnightblue" stroke="midnightblue" points="532.6,-248.73 523.53,-254.21 534.03,-255.58 532.6,-248.73"/>
</g>
<!-- Node14 -->
<g id="node14" class="node">
<title>Node14</title>
<g id="a_node14"><a xlink:href="../../db/da7/classCEvaluationNodeUnit.html" target="_top" xlink:title=" ">
<polygon fill="white" stroke="black" points="621,-114.5 621,-133.5 731,-133.5 731,-114.5 621,-114.5"/>
<text text-anchor="middle" x="676" y="-121.5" font-family="FreeSans" font-size="10.00">CEvaluationNodeUnit</text>
</a>
</g>
</g>
<!-- Node3&#45;&gt;Node14 -->
<g id="edge13" class="edge">
<title>Node3&#45;&gt;Node14</title>
<path fill="none" stroke="midnightblue" d="M533.77,-253.76C545.77,-250.83 557.65,-245.96 567,-238 601.5,-208.62 570.25,-173.23 604,-143 608.85,-138.66 614.58,-135.29 620.66,-132.69"/>
<polygon fill="midnightblue" stroke="midnightblue" points="532.82,-250.38 523.71,-255.78 534.2,-257.24 532.82,-250.38"/>
</g>
<!-- Node15 -->
<g id="node15" class="node">
<title>Node15</title>
<g id="a_node15"><a xlink:href="../../d3/d1b/classCEvaluationNodeVariable.html" target="_top" xlink:title=" ">
<polygon fill="white" stroke="black" points="612.5,-76.5 612.5,-95.5 739.5,-95.5 739.5,-76.5 612.5,-76.5"/>
<text text-anchor="middle" x="676" y="-83.5" font-family="FreeSans" font-size="10.00">CEvaluationNodeVariable</text>
</a>
</g>
</g>
<!-- Node3&#45;&gt;Node15 -->
<g id="edge14" class="edge">
<title>Node3&#45;&gt;Node15</title>
<path fill="none" stroke="midnightblue" d="M534,-254.51C546.1,-251.57 557.97,-246.5 567,-238 589.33,-216.97 582.2,-126.59 604,-105 607.9,-101.14 612.49,-98.04 617.43,-95.55"/>
<polygon fill="midnightblue" stroke="midnightblue" points="532.97,-251.14 523.84,-256.51 534.32,-258.01 532.97,-251.14"/>
</g>
<!-- Node16 -->
<g id="node16" class="node">
<title>Node16</title>
<g id="a_node16"><a xlink:href="../../df/de0/classCEvaluationNodeVector.html" target="_top" xlink:title=" ">
<polygon fill="white" stroke="black" points="616,-38.5 616,-57.5 736,-57.5 736,-38.5 616,-38.5"/>
<text text-anchor="middle" x="676" y="-45.5" font-family="FreeSans" font-size="10.00">CEvaluationNodeVector</text>
</a>
</g>
</g>
<!-- Node3&#45;&gt;Node16 -->
<g id="edge15" class="edge">
<title>Node3&#45;&gt;Node16</title>
<path fill="none" stroke="midnightblue" d="M533.64,-255.05C545.98,-252.13 558.05,-246.94 567,-238 594.51,-210.53 577.18,-95.15 604,-67 607.61,-63.21 611.88,-60.15 616.52,-57.68"/>
<polygon fill="midnightblue" stroke="midnightblue" points="532.9,-251.63 523.73,-256.94 534.21,-258.51 532.9,-251.63"/>
</g>
<!-- Node17 -->
<g id="node17" class="node">
<title>Node17</title>
<g id="a_node17"><a xlink:href="../../d7/d6b/classCEvaluationNodeWhiteSpace.html" target="_top" xlink:title=" ">
<polygon fill="white" stroke="black" points="604,-0.5 604,-19.5 748,-19.5 748,-0.5 604,-0.5"/>
<text text-anchor="middle" x="676" y="-7.5" font-family="FreeSans" font-size="10.00">CEvaluationNodeWhiteSpace</text>
</a>
</g>
</g>
<!-- Node3&#45;&gt;Node17 -->
<g id="edge16" class="edge">
<title>Node3&#45;&gt;Node17</title>
<path fill="none" stroke="midnightblue" d="M533.51,-255.38C545.98,-252.46 558.13,-247.19 567,-238 583.37,-221.02 588.06,-46.38 604,-29 607.54,-25.14 611.76,-22.04 616.36,-19.54"/>
<polygon fill="midnightblue" stroke="midnightblue" points="532.7,-251.97 523.51,-257.24 533.98,-258.85 532.7,-251.97"/>
</g>
<!-- Node19 -->
<g id="node19" class="node">
<title>Node19</title>
<g id="a_node19"><a xlink:href="../../d7/db7/classCEFMAlgorithm_1_1CSpeciesOrderNode.html" target="_top" xlink:title=" ">
<polygon fill="white" stroke="black" points="388,-209.5 388,-228.5 567,-228.5 567,-209.5 388,-209.5"/>
<text text-anchor="middle" x="477.5" y="-216.5" font-family="FreeSans" font-size="10.00">CEFMAlgorithm::CSpeciesOrderNode</text>
</a>
</g>
</g>
<!-- Node18&#45;&gt;Node19 -->
<g id="edge18" class="edge">
<title>Node18&#45;&gt;Node19</title>
<path fill="none" stroke="midnightblue" d="M353.27,-219C364.47,-219 376.21,-219 387.81,-219"/>
<polygon fill="midnightblue" stroke="midnightblue" points="353.15,-215.5 343.15,-219 353.15,-222.5 353.15,-215.5"/>
</g>
</g>
</svg>
        <g id="navigator" transform="translate(0 0)" fill="#404254">
                <rect fill="#f2f5e9" fill-opacity="0.5" stroke="#606060" stroke-width=".5" x="0" y="0" width="60" height="60"/>
                <use id="zoomplus" xlink:href="#zoomPlus" x="17" y="9" onmousedown="handleZoom(evt,'in')"/>
                <use id="zoomminus" xlink:href="#zoomMin" x="42" y="9" onmousedown="handleZoom(evt,'out')"/>
                <use id="reset" xlink:href="#resetDef" x="30" y="36" onmousedown="handleReset()"/>
                <g id="arrowUp" xlink:href="#dirArrow" transform="translate(30 24)" onmousedown="handlePan(0,-1)">
                  <use xlink:href="#rim" fill="#404040">
                        <set attributeName="fill" to="#808080" begin="arrowUp.mouseover" end="arrowUp.mouseout"/>
                  </use>
                  <path fill="none" stroke="white" stroke-width="1.5" d="M0,-3.0v7 M-2.5,-0.5L0,-3.0L2.5,-0.5"/>
                </g>
                <g id="arrowRight" xlink:href="#dirArrow" transform="rotate(90) translate(36 -43)" onmousedown="handlePan(1,0)">
                  <use xlink:href="#rim" fill="#404040">
                        <set attributeName="fill" to="#808080" begin="arrowRight.mouseover" end="arrowRight.mouseout"/>
                  </use>
                  <path fill="none" stroke="white" stroke-width="1.5" d="M0,-3.0v7 M-2.5,-0.5L0,-3.0L2.5,-0.5"/>
                </g>
                <g id="arrowDown" xlink:href="#dirArrow" transform="rotate(180) translate(-30 -48)" onmousedown="handlePan(0,1)">
                  <use xlink:href="#rim" fill="#404040">
                        <set attributeName="fill" to="#808080" begin="arrowDown.mouseover" end="arrowDown.mouseout"/>
                  </use>
                  <path fill="none" stroke="white" stroke-width="1.5" d="M0,-3.0v7 M-2.5,-0.5L0,-3.0L2.5,-0.5"/>
                </g>
                <g id="arrowLeft" xlink:href="#dirArrow" transform="rotate(270) translate(-36 17)" onmousedown="handlePan(-1,0)">
                  <use xlink:href="#rim" fill="#404040">
                        <set attributeName="fill" to="#808080" begin="arrowLeft.mouseover" end="arrowLeft.mouseout"/>
                  </use>
                  <path fill="none" stroke="white" stroke-width="1.5" d="M0,-3.0v7 M-2.5,-0.5L0,-3.0L2.5,-0.5"/>
                </g>
        </g>
        <svg viewBox="0 0 15 15" width="100%" height="30px" preserveAspectRatio="xMaxYMin meet">
         <g id="arrow_out" transform="scale(0.3 0.3)">
          <a xlink:href="classCCopasiNode__inherit__graph_org.svg" target="_base">
           <rect id="button" ry="5" rx="5" y="6" x="6" height="38" width="38"
                fill="#f2f5e9" fill-opacity="0.5" stroke="#606060" stroke-width="1.0"/>
           <path id="arrow"
             d="M 11.500037,31.436501 C 11.940474,20.09759 22.043105,11.32322 32.158766,21.979434 L 37.068811,17.246167 C 37.068811,17.246167 37.088388,32 37.088388,32 L 22.160133,31.978069 C 22.160133,31.978069 26.997745,27.140456 26.997745,27.140456 C 18.528582,18.264221 13.291696,25.230495 11.500037,31.436501 z"
             style="fill:#404040;"/>
          </a>
         </g>
        </svg>
</svg>
