<?xml version="1.0" encoding="UTF-8" standalone="no"?>
<!DOCTYPE svg PUBLIC "-//W3C//DTD SVG 1.1//EN"
 "http://www.w3.org/Graphics/SVG/1.1/DTD/svg11.dtd">
<!-- Generated by graphviz version 2.43.0 (0)
 -->
<!-- Title: CUnitParser Pages: 1 -->
<svg width="178pt" height="84pt"
 viewBox="0.00 0.00 177.50 84.00" xmlns="http://www.w3.org/2000/svg" xmlns:xlink="http://www.w3.org/1999/xlink">
<g id="graph0" class="graph" transform="scale(1 1) rotate(0) translate(4 80)">
<title>CUnitParser</title>
<polygon fill="white" stroke="transparent" points="-4,4 -4,-80 173.5,-80 173.5,4 -4,4"/>
<!-- Node1 -->
<g id="node1" class="node">
<title>Node1</title>
<g id="a_node1"><a xlink:title=" ">
<polygon fill="#bfbfbf" stroke="black" points="41.5,-0.5 41.5,-19.5 111.5,-19.5 111.5,-0.5 41.5,-0.5"/>
<text text-anchor="middle" x="76.5" y="-7.5" font-family="FreeSans" font-size="10.00">CUnitParser</text>
</a>
</g>
</g>
<!-- Node2 -->
<g id="node2" class="node">
<title>Node2</title>
<g id="a_node2"><a xlink:href="../../dc/d78/classFlexLexer.html" target="_top" xlink:title=" ">
<polygon fill="white" stroke="black" points="0,-56.5 0,-75.5 59,-75.5 59,-56.5 0,-56.5"/>
<text text-anchor="middle" x="29.5" y="-63.5" font-family="FreeSans" font-size="10.00">FlexLexer</text>
</a>
</g>
</g>
<!-- Node2&#45;&gt;Node1 -->
<g id="edge1" class="edge">
<title>Node2&#45;&gt;Node1</title>
<path fill="none" stroke="midnightblue" d="M43.92,-48.43C52.16,-38.97 62.15,-27.48 68.88,-19.75"/>
<polygon fill="midnightblue" stroke="midnightblue" points="41.19,-46.24 37.26,-56.08 46.47,-50.84 41.19,-46.24"/>
</g>
<!-- Node3 -->
<g id="node3" class="node">
<title>Node3</title>
<g id="a_node3"><a xlink:href="../../de/d2e/classCUnitParserBase.html" target="_top" xlink:title=" ">
<polygon fill="white" stroke="black" points="77.5,-56.5 77.5,-75.5 169.5,-75.5 169.5,-56.5 77.5,-56.5"/>
<text text-anchor="middle" x="123.5" y="-63.5" font-family="FreeSans" font-size="10.00">CUnitParserBase</text>
</a>
</g>
</g>
<!-- Node3&#45;&gt;Node1 -->
<g id="edge2" class="edge">
<title>Node3&#45;&gt;Node1</title>
<path fill="none" stroke="midnightblue" d="M109.08,-48.43C100.84,-38.97 90.85,-27.48 84.12,-19.75"/>
<polygon fill="midnightblue" stroke="midnightblue" points="106.53,-50.84 115.74,-56.08 111.81,-46.24 106.53,-50.84"/>
</g>
</g>
</svg>
