<?xml version="1.0" encoding="UTF-8" standalone="no"?>
<!DOCTYPE svg PUBLIC "-//W3C//DTD SVG 1.1//EN"
 "http://www.w3.org/Graphics/SVG/1.1/DTD/svg11.dtd">
<!-- Generated by graphviz version 2.43.0 (0)
 -->
<!-- Title: CCopasiMethod Pages: 1 -->
<svg width="1114pt" height="1016pt"
 viewBox="0.00 0.00 1114.00 1016.00" xmlns="http://www.w3.org/2000/svg" xmlns:xlink="http://www.w3.org/1999/xlink">
<g id="graph0" class="graph" transform="scale(1 1) rotate(0) translate(4 1012)">
<title>CCopasiMethod</title>
<polygon fill="white" stroke="transparent" points="-4,4 -4,-1012 1110,-1012 1110,4 -4,4"/>
<!-- Node1 -->
<g id="node1" class="node">
<title>Node1</title>
<g id="a_node1"><a xlink:title=" ">
<polygon fill="#bfbfbf" stroke="black" points="673,-608.5 673,-627.5 759,-627.5 759,-608.5 673,-608.5"/>
<text text-anchor="middle" x="716" y="-615.5" font-family="FreeSans" font-size="10.00">CCopasiMethod</text>
</a>
</g>
</g>
<!-- Node8 -->
<g id="node8" class="node">
<title>Node8</title>
<g id="a_node8"><a xlink:href="../../d2/dbe/classCAnalyticsMethod.html" target="_top" xlink:title=" ">
<polygon fill="white" stroke="black" points="804.5,-931.5 804.5,-950.5 899.5,-950.5 899.5,-931.5 804.5,-931.5"/>
<text text-anchor="middle" x="852" y="-938.5" font-family="FreeSans" font-size="10.00">CAnalyticsMethod</text>
</a>
</g>
</g>
<!-- Node1&#45;&gt;Node8 -->
<g id="edge7" class="edge">
<title>Node1&#45;&gt;Node8</title>
<path fill="none" stroke="midnightblue" d="M719.6,-637.83C727.93,-698.42 755.68,-879.58 795,-922 798.63,-925.92 803.09,-929.02 807.91,-931.49"/>
<polygon fill="midnightblue" stroke="midnightblue" points="723.04,-637.13 718.24,-627.69 716.1,-638.06 723.04,-637.13"/>
</g>
<!-- Node9 -->
<g id="node9" class="node">
<title>Node9</title>
<g id="a_node9"><a xlink:href="../../d4/d6d/classCCrossSectionMethod.html" target="_top" xlink:title=" ">
<polygon fill="white" stroke="black" points="795,-893.5 795,-912.5 909,-912.5 909,-893.5 795,-893.5"/>
<text text-anchor="middle" x="852" y="-900.5" font-family="FreeSans" font-size="10.00">CCrossSectionMethod</text>
</a>
</g>
</g>
<!-- Node1&#45;&gt;Node9 -->
<g id="edge8" class="edge">
<title>Node1&#45;&gt;Node9</title>
<path fill="none" stroke="midnightblue" d="M716.93,-637.6C717.85,-686.13 727,-813.1 795,-884 798.7,-887.85 803.2,-890.92 808.03,-893.37"/>
<polygon fill="midnightblue" stroke="midnightblue" points="720.43,-637.48 716.85,-627.51 713.43,-637.54 720.43,-637.48"/>
</g>
<!-- Node10 -->
<g id="node10" class="node">
<title>Node10</title>
<g id="a_node10"><a xlink:href="../../d4/d31/classCEFMMethod.html" target="_top" xlink:title=" ">
<polygon fill="white" stroke="black" points="814,-855.5 814,-874.5 890,-874.5 890,-855.5 814,-855.5"/>
<text text-anchor="middle" x="852" y="-862.5" font-family="FreeSans" font-size="10.00">CEFMMethod</text>
</a>
</g>
</g>
<!-- Node1&#45;&gt;Node10 -->
<g id="edge9" class="edge">
<title>Node1&#45;&gt;Node10</title>
<path fill="none" stroke="midnightblue" d="M724.23,-637.17C736.75,-669.49 764.1,-736.43 795,-789 809.79,-814.15 831.08,-841.07 842.69,-855.14"/>
<polygon fill="midnightblue" stroke="midnightblue" points="727.41,-635.7 720.57,-627.61 720.88,-638.2 727.41,-635.7"/>
</g>
<!-- Node15 -->
<g id="node14" class="node">
<title>Node15</title>
<g id="a_node14"><a xlink:href="../../d6/d0a/classCLNAMethod.html" target="_top" xlink:title=" ">
<polygon fill="white" stroke="black" points="814,-760.5 814,-779.5 890,-779.5 890,-760.5 814,-760.5"/>
<text text-anchor="middle" x="852" y="-767.5" font-family="FreeSans" font-size="10.00">CLNAMethod</text>
</a>
</g>
</g>
<!-- Node1&#45;&gt;Node15 -->
<g id="edge13" class="edge">
<title>Node1&#45;&gt;Node15</title>
<path fill="none" stroke="midnightblue" d="M723.36,-637.31C733.8,-666.12 757.28,-720.26 795,-751 800.49,-755.47 807.09,-758.92 813.8,-761.56"/>
<polygon fill="midnightblue" stroke="midnightblue" points="726.57,-635.9 719.99,-627.61 719.96,-638.2 726.57,-635.9"/>
</g>
<!-- Node16 -->
<g id="node15" class="node">
<title>Node16</title>
<g id="a_node15"><a xlink:href="../../dd/ded/classCLyapMethod.html" target="_top" xlink:title=" ">
<polygon fill="white" stroke="black" points="813.5,-722.5 813.5,-741.5 890.5,-741.5 890.5,-722.5 813.5,-722.5"/>
<text text-anchor="middle" x="852" y="-729.5" font-family="FreeSans" font-size="10.00">CLyapMethod</text>
</a>
</g>
</g>
<!-- Node1&#45;&gt;Node16 -->
<g id="edge14" class="edge">
<title>Node1&#45;&gt;Node16</title>
<path fill="none" stroke="midnightblue" d="M727.6,-636.31C740.82,-657.61 765.32,-692.47 795,-713 800.57,-716.86 806.99,-719.99 813.46,-722.51"/>
<polygon fill="midnightblue" stroke="midnightblue" points="730.5,-634.34 722.35,-627.58 724.5,-637.95 730.5,-634.34"/>
</g>
<!-- Node18 -->
<g id="node17" class="node">
<title>Node18</title>
<g id="a_node17"><a xlink:href="../../d4/d57/classCMCAMethod.html" target="_top" xlink:title=" ">
<polygon fill="white" stroke="black" points="813.5,-684.5 813.5,-703.5 890.5,-703.5 890.5,-684.5 813.5,-684.5"/>
<text text-anchor="middle" x="852" y="-691.5" font-family="FreeSans" font-size="10.00">CMCAMethod</text>
</a>
</g>
</g>
<!-- Node1&#45;&gt;Node18 -->
<g id="edge16" class="edge">
<title>Node1&#45;&gt;Node18</title>
<path fill="none" stroke="midnightblue" d="M735.96,-634.42C751.12,-646.89 773.35,-663.75 795,-675 802.02,-678.64 809.88,-681.81 817.44,-684.47"/>
<polygon fill="midnightblue" stroke="midnightblue" points="737.82,-631.41 727.91,-627.66 733.32,-636.77 737.82,-631.41"/>
</g>
<!-- Node19 -->
<g id="node18" class="node">
<title>Node19</title>
<g id="a_node18"><a xlink:href="../../da/d88/classCMoietiesMethod.html" target="_top" xlink:title=" ">
<polygon fill="white" stroke="black" points="806,-646.5 806,-665.5 898,-665.5 898,-646.5 806,-646.5"/>
<text text-anchor="middle" x="852" y="-653.5" font-family="FreeSans" font-size="10.00">CMoietiesMethod</text>
</a>
</g>
</g>
<!-- Node1&#45;&gt;Node19 -->
<g id="edge17" class="edge">
<title>Node1&#45;&gt;Node19</title>
<path fill="none" stroke="midnightblue" d="M760.44,-630.32C778.85,-635.54 799.98,-641.53 817.2,-646.41"/>
<polygon fill="midnightblue" stroke="midnightblue" points="761.39,-626.95 750.81,-627.59 759.48,-633.68 761.39,-626.95"/>
</g>
<!-- Node20 -->
<g id="node19" class="node">
<title>Node20</title>
<g id="a_node19"><a xlink:href="../../dc/d24/classCOptMethod.html" target="_top" xlink:title=" ">
<polygon fill="white" stroke="black" points="816.5,-608.5 816.5,-627.5 887.5,-627.5 887.5,-608.5 816.5,-608.5"/>
<text text-anchor="middle" x="852" y="-615.5" font-family="FreeSans" font-size="10.00">COptMethod</text>
</a>
</g>
</g>
<!-- Node1&#45;&gt;Node20 -->
<g id="edge18" class="edge">
<title>Node1&#45;&gt;Node20</title>
<path fill="none" stroke="midnightblue" d="M769.21,-618C785,-618 801.95,-618 816.31,-618"/>
<polygon fill="midnightblue" stroke="midnightblue" points="769.03,-614.5 759.03,-618 769.03,-621.5 769.03,-614.5"/>
</g>
<!-- Node40 -->
<g id="node32" class="node">
<title>Node40</title>
<g id="a_node32"><a xlink:href="../../de/d18/classCOscillationMethod.html" target="_top" xlink:title=" ">
<polygon fill="white" stroke="black" points="801.5,-570.5 801.5,-589.5 902.5,-589.5 902.5,-570.5 801.5,-570.5"/>
<text text-anchor="middle" x="852" y="-577.5" font-family="FreeSans" font-size="10.00">COscillationMethod</text>
</a>
</g>
</g>
<!-- Node1&#45;&gt;Node40 -->
<g id="edge31" class="edge">
<title>Node1&#45;&gt;Node40</title>
<path fill="none" stroke="midnightblue" d="M760.44,-605.68C778.85,-600.46 799.98,-594.47 817.2,-589.59"/>
<polygon fill="midnightblue" stroke="midnightblue" points="759.48,-602.32 750.81,-608.41 761.39,-609.05 759.48,-602.32"/>
</g>
<!-- Node42 -->
<g id="node34" class="node">
<title>Node42</title>
<g id="a_node34"><a xlink:href="../../dd/d87/classCScanMethod.html" target="_top" xlink:title=" ">
<polygon fill="white" stroke="black" points="813,-532.5 813,-551.5 891,-551.5 891,-532.5 813,-532.5"/>
<text text-anchor="middle" x="852" y="-539.5" font-family="FreeSans" font-size="10.00">CScanMethod</text>
</a>
</g>
</g>
<!-- Node1&#45;&gt;Node42 -->
<g id="edge33" class="edge">
<title>Node1&#45;&gt;Node42</title>
<path fill="none" stroke="midnightblue" d="M735.96,-601.58C751.12,-589.11 773.35,-572.25 795,-561 802.02,-557.36 809.88,-554.19 817.44,-551.53"/>
<polygon fill="midnightblue" stroke="midnightblue" points="733.32,-599.23 727.91,-608.34 737.82,-604.59 733.32,-599.23"/>
</g>
<!-- Node43 -->
<g id="node35" class="node">
<title>Node43</title>
<g id="a_node35"><a xlink:href="../../d3/d0f/classCSensMethod.html" target="_top" xlink:title=" ">
<polygon fill="white" stroke="black" points="813,-494.5 813,-513.5 891,-513.5 891,-494.5 813,-494.5"/>
<text text-anchor="middle" x="852" y="-501.5" font-family="FreeSans" font-size="10.00">CSensMethod</text>
</a>
</g>
</g>
<!-- Node1&#45;&gt;Node43 -->
<g id="edge34" class="edge">
<title>Node1&#45;&gt;Node43</title>
<path fill="none" stroke="midnightblue" d="M727.6,-599.69C740.82,-578.39 765.32,-543.53 795,-523 800.49,-519.2 806.8,-516.11 813.16,-513.61"/>
<polygon fill="midnightblue" stroke="midnightblue" points="724.5,-598.05 722.35,-608.42 730.5,-601.66 724.5,-598.05"/>
</g>
<!-- Node44 -->
<g id="node36" class="node">
<title>Node44</title>
<g id="a_node36"><a xlink:href="../../dd/dbc/classCSteadyStateMethod.html" target="_top" xlink:title=" ">
<polygon fill="white" stroke="black" points="797.5,-399.5 797.5,-418.5 906.5,-418.5 906.5,-399.5 797.5,-399.5"/>
<text text-anchor="middle" x="852" y="-406.5" font-family="FreeSans" font-size="10.00">CSteadyStateMethod</text>
</a>
</g>
</g>
<!-- Node1&#45;&gt;Node44 -->
<g id="edge35" class="edge">
<title>Node1&#45;&gt;Node44</title>
<path fill="none" stroke="midnightblue" d="M726.95,-599.66C741.24,-573.67 768.75,-524.84 795,-485 811.23,-460.37 832.32,-432.8 843.42,-418.6"/>
<polygon fill="midnightblue" stroke="midnightblue" points="723.88,-597.99 722.15,-608.44 730.02,-601.35 723.88,-597.99"/>
</g>
<!-- Node46 -->
<g id="node38" class="node">
<title>Node46</title>
<g id="a_node38"><a xlink:href="../../dc/d45/classCTSSAMethod.html" target="_top" xlink:title="The CTSSAMethod class is the base class for all time scale separation analysis methods.">
<polygon fill="white" stroke="black" points="811,-285.5 811,-304.5 893,-304.5 893,-285.5 811,-285.5"/>
<text text-anchor="middle" x="852" y="-292.5" font-family="FreeSans" font-size="10.00">CTSSAMethod</text>
</a>
</g>
</g>
<!-- Node1&#45;&gt;Node46 -->
<g id="edge37" class="edge">
<title>Node1&#45;&gt;Node46</title>
<path fill="none" stroke="midnightblue" d="M722.26,-598.33C733.32,-558.19 760.8,-464.35 795,-390 810.04,-357.3 833.19,-321.39 844.43,-304.63"/>
<polygon fill="midnightblue" stroke="midnightblue" points="718.84,-597.6 719.59,-608.17 725.59,-599.44 718.84,-597.6"/>
</g>
<!-- Node50 -->
<g id="node42" class="node">
<title>Node50</title>
<g id="a_node42"><a xlink:href="../../d3/dd9/classCTimeSensMethod.html" target="_top" xlink:title=" ">
<polygon fill="white" stroke="black" points="802,-228.5 802,-247.5 902,-247.5 902,-228.5 802,-228.5"/>
<text text-anchor="middle" x="852" y="-235.5" font-family="FreeSans" font-size="10.00">CTimeSensMethod</text>
</a>
</g>
</g>
<!-- Node1&#45;&gt;Node50 -->
<g id="edge41" class="edge">
<title>Node1&#45;&gt;Node50</title>
<path fill="none" stroke="midnightblue" d="M716.66,-598C716.67,-542.01 723.31,-380.92 795,-276 803.55,-263.49 817.7,-253.93 829.64,-247.54"/>
<polygon fill="midnightblue" stroke="midnightblue" points="713.16,-598.32 716.74,-608.3 720.16,-598.27 713.16,-598.32"/>
</g>
<!-- Node52 -->
<g id="node44" class="node">
<title>Node52</title>
<g id="a_node44"><a xlink:href="../../d0/dc9/classCTrajectoryMethod.html" target="_top" xlink:title=" ">
<polygon fill="white" stroke="red" points="803,-95.5 803,-114.5 901,-114.5 901,-95.5 803,-95.5"/>
<text text-anchor="middle" x="852" y="-102.5" font-family="FreeSans" font-size="10.00">CTrajectoryMethod</text>
</a>
</g>
</g>
<!-- Node1&#45;&gt;Node52 -->
<g id="edge43" class="edge">
<title>Node1&#45;&gt;Node52</title>
<path fill="none" stroke="midnightblue" d="M718.98,-598.38C725.32,-539.57 747.48,-360.1 795,-219 808.65,-178.46 833.77,-133.89 845.14,-114.69"/>
<polygon fill="midnightblue" stroke="midnightblue" points="715.49,-598.18 717.92,-608.49 722.45,-598.9 715.49,-598.18"/>
</g>
<!-- Node2 -->
<g id="node2" class="node">
<title>Node2</title>
<g id="a_node2"><a xlink:href="../../df/d89/classCCopasiParameterGroup.html" target="_top" xlink:title=" ">
<polygon fill="white" stroke="black" points="512,-608.5 512,-627.5 637,-627.5 637,-608.5 512,-608.5"/>
<text text-anchor="middle" x="574.5" y="-615.5" font-family="FreeSans" font-size="10.00">CCopasiParameterGroup</text>
</a>
</g>
</g>
<!-- Node2&#45;&gt;Node1 -->
<g id="edge1" class="edge">
<title>Node2&#45;&gt;Node1</title>
<path fill="none" stroke="midnightblue" d="M647.36,-618C656.12,-618 664.83,-618 672.95,-618"/>
<polygon fill="midnightblue" stroke="midnightblue" points="647.09,-614.5 637.09,-618 647.09,-621.5 647.09,-614.5"/>
</g>
<!-- Node3 -->
<g id="node3" class="node">
<title>Node3</title>
<g id="a_node3"><a xlink:href="../../d5/db6/classCCopasiParameter.html" target="_top" xlink:title=" ">
<polygon fill="white" stroke="black" points="378,-608.5 378,-627.5 476,-627.5 476,-608.5 378,-608.5"/>
<text text-anchor="middle" x="427" y="-615.5" font-family="FreeSans" font-size="10.00">CCopasiParameter</text>
</a>
</g>
</g>
<!-- Node3&#45;&gt;Node2 -->
<g id="edge2" class="edge">
<title>Node3&#45;&gt;Node2</title>
<path fill="none" stroke="midnightblue" d="M486.15,-618C494.57,-618 503.26,-618 511.75,-618"/>
<polygon fill="midnightblue" stroke="midnightblue" points="486.05,-614.5 476.05,-618 486.05,-621.5 486.05,-614.5"/>
</g>
<!-- Node4 -->
<g id="node4" class="node">
<title>Node4</title>
<g id="a_node4"><a xlink:href="../../d3/db9/classCDataContainer.html" target="_top" xlink:title=" ">
<polygon fill="white" stroke="black" points="257,-608.5 257,-627.5 342,-627.5 342,-608.5 257,-608.5"/>
<text text-anchor="middle" x="299.5" y="-615.5" font-family="FreeSans" font-size="10.00">CDataContainer</text>
</a>
</g>
</g>
<!-- Node4&#45;&gt;Node3 -->
<g id="edge3" class="edge">
<title>Node4&#45;&gt;Node3</title>
<path fill="none" stroke="midnightblue" d="M352.4,-618C360.84,-618 369.54,-618 377.88,-618"/>
<polygon fill="midnightblue" stroke="midnightblue" points="352.29,-614.5 342.29,-618 352.29,-621.5 352.29,-614.5"/>
</g>
<!-- Node5 -->
<g id="node5" class="node">
<title>Node5</title>
<g id="a_node5"><a xlink:href="../../d1/d6b/classCDataObject.html" target="_top" xlink:title=" ">
<polygon fill="white" stroke="black" points="149,-608.5 149,-627.5 221,-627.5 221,-608.5 149,-608.5"/>
<text text-anchor="middle" x="185" y="-615.5" font-family="FreeSans" font-size="10.00">CDataObject</text>
</a>
</g>
</g>
<!-- Node5&#45;&gt;Node4 -->
<g id="edge4" class="edge">
<title>Node5&#45;&gt;Node4</title>
<path fill="none" stroke="midnightblue" d="M231.56,-618C239.85,-618 248.46,-618 256.64,-618"/>
<polygon fill="midnightblue" stroke="midnightblue" points="231.29,-614.5 221.29,-618 231.29,-621.5 231.29,-614.5"/>
</g>
<!-- Node6 -->
<g id="node6" class="node">
<title>Node6</title>
<g id="a_node6"><a xlink:href="../../df/dfa/classCObjectInterface.html" target="_top" xlink:title=" ">
<polygon fill="white" stroke="black" points="11.5,-627.5 11.5,-646.5 101.5,-646.5 101.5,-627.5 11.5,-627.5"/>
<text text-anchor="middle" x="56.5" y="-634.5" font-family="FreeSans" font-size="10.00">CObjectInterface</text>
</a>
</g>
</g>
<!-- Node6&#45;&gt;Node5 -->
<g id="edge5" class="edge">
<title>Node6&#45;&gt;Node5</title>
<path fill="none" stroke="midnightblue" d="M111.66,-628.86C124.21,-626.98 137.25,-625.02 148.74,-623.3"/>
<polygon fill="midnightblue" stroke="midnightblue" points="111.11,-625.41 101.74,-630.35 112.15,-632.33 111.11,-625.41"/>
</g>
<!-- Node7 -->
<g id="node7" class="node">
<title>Node7</title>
<g id="a_node7"><a xlink:href="../../d8/d53/classCUndoObjectInterface.html" target="_top" xlink:title=" ">
<polygon fill="white" stroke="black" points="0,-589.5 0,-608.5 113,-608.5 113,-589.5 0,-589.5"/>
<text text-anchor="middle" x="56.5" y="-596.5" font-family="FreeSans" font-size="10.00">CUndoObjectInterface</text>
</a>
</g>
</g>
<!-- Node7&#45;&gt;Node5 -->
<g id="edge6" class="edge">
<title>Node7&#45;&gt;Node5</title>
<path fill="none" stroke="midnightblue" d="M123.28,-608.88C132.08,-610.2 140.81,-611.51 148.8,-612.71"/>
<polygon fill="midnightblue" stroke="midnightblue" points="123.76,-605.41 113.35,-607.39 122.72,-612.34 123.76,-605.41"/>
</g>
<!-- Node11 -->
<g id="node11" class="node">
<title>Node11</title>
<g id="a_node11"><a xlink:href="../../de/d1c/classCBitPatternMethod.html" target="_top" xlink:title=" ">
<polygon fill="white" stroke="black" points="976,-988.5 976,-1007.5 1075,-1007.5 1075,-988.5 976,-988.5"/>
<text text-anchor="middle" x="1025.5" y="-995.5" font-family="FreeSans" font-size="10.00">CBitPatternMethod</text>
</a>
</g>
</g>
<!-- Node10&#45;&gt;Node11 -->
<g id="edge10" class="edge">
<title>Node10&#45;&gt;Node11</title>
<path fill="none" stroke="midnightblue" d="M899.33,-876.84C902.85,-878.87 906.13,-881.23 909,-884 941.48,-915.36 911.1,-949.17 945,-979 953.63,-986.59 964.76,-991.28 975.94,-994.15"/>
<polygon fill="midnightblue" stroke="midnightblue" points="900.78,-873.66 890.25,-872.49 897.76,-879.97 900.78,-873.66"/>
</g>
<!-- Node12 -->
<g id="node12" class="node">
<title>Node12</title>
<g id="a_node12"><a xlink:href="../../db/de0/classCBitPatternTreeMethod.html" target="_top" xlink:title=" ">
<polygon fill="white" stroke="black" points="966,-950.5 966,-969.5 1085,-969.5 1085,-950.5 966,-950.5"/>
<text text-anchor="middle" x="1025.5" y="-957.5" font-family="FreeSans" font-size="10.00">CBitPatternTreeMethod</text>
</a>
</g>
</g>
<!-- Node10&#45;&gt;Node12 -->
<g id="edge11" class="edge">
<title>Node10&#45;&gt;Node12</title>
<path fill="none" stroke="midnightblue" d="M899.37,-877.81C902.79,-879.62 906.04,-881.67 909,-884 932.54,-902.54 920.63,-923.57 945,-941 951.23,-945.46 958.37,-948.88 965.76,-951.51"/>
<polygon fill="midnightblue" stroke="midnightblue" points="900.63,-874.54 890.08,-873.59 897.73,-880.91 900.63,-874.54"/>
</g>
<!-- Node13 -->
<g id="node13" class="node">
<title>Node13</title>
<g id="a_node13"><a xlink:href="../../db/d50/classCEFMAlgorithm.html" target="_top" xlink:title=" ">
<polygon fill="white" stroke="red" points="983,-912.5 983,-931.5 1068,-931.5 1068,-912.5 983,-912.5"/>
<text text-anchor="middle" x="1025.5" y="-919.5" font-family="FreeSans" font-size="10.00">CEFMAlgorithm</text>
</a>
</g>
</g>
<!-- Node10&#45;&gt;Node13 -->
<g id="edge12" class="edge">
<title>Node10&#45;&gt;Node13</title>
<path fill="none" stroke="midnightblue" d="M893.91,-878.04C899.04,-879.92 904.17,-881.92 909,-884 925.62,-891.15 928.07,-896.62 945,-903 956.95,-907.5 970.33,-911.18 982.65,-914.07"/>
<polygon fill="midnightblue" stroke="midnightblue" points="894.74,-874.62 884.14,-874.59 892.41,-881.22 894.74,-874.62"/>
</g>
<!-- Node17 -->
<g id="node16" class="node">
<title>Node17</title>
<g id="a_node16"><a xlink:href="../../d8/d62/classCLyapWolfMethod.html" target="_top" xlink:title=" ">
<polygon fill="white" stroke="black" points="977.5,-874.5 977.5,-893.5 1073.5,-893.5 1073.5,-874.5 977.5,-874.5"/>
<text text-anchor="middle" x="1025.5" y="-881.5" font-family="FreeSans" font-size="10.00">CLyapWolfMethod</text>
</a>
</g>
</g>
<!-- Node16&#45;&gt;Node17 -->
<g id="edge15" class="edge">
<title>Node16&#45;&gt;Node17</title>
<path fill="none" stroke="midnightblue" d="M899.94,-743.93C903.25,-745.94 906.33,-748.27 909,-751 946.17,-788.97 906.11,-828.79 945,-865 953.83,-873.22 965.56,-878.08 977.29,-880.9"/>
<polygon fill="midnightblue" stroke="midnightblue" points="901.28,-740.69 890.77,-739.38 898.17,-746.96 901.28,-740.69"/>
</g>
<!-- Node21 -->
<g id="node20" class="node">
<title>Node21</title>
<g id="a_node20"><a xlink:href="../../d5/d1e/classCOptMethodCoranaWalk.html" target="_top" xlink:title=" ">
<polygon fill="white" stroke="black" points="963.5,-836.5 963.5,-855.5 1087.5,-855.5 1087.5,-836.5 963.5,-836.5"/>
<text text-anchor="middle" x="1025.5" y="-843.5" font-family="FreeSans" font-size="10.00">COptMethodCoranaWalk</text>
</a>
</g>
</g>
<!-- Node20&#45;&gt;Node21 -->
<g id="edge19" class="edge">
<title>Node20&#45;&gt;Node21</title>
<path fill="none" stroke="midnightblue" d="M897.24,-627.78C901.66,-630.2 905.72,-633.23 909,-637 965.38,-701.87 885.68,-764.81 945,-827 950.09,-832.34 956.4,-836.29 963.21,-839.21"/>
<polygon fill="midnightblue" stroke="midnightblue" points="898.35,-624.44 887.79,-623.59 895.52,-630.84 898.35,-624.44"/>
</g>
<!-- Node22 -->
<g id="node21" class="node">
<title>Node22</title>
<g id="a_node21"><a xlink:href="../../d1/d81/classCOptMethodHookeJeeves.html" target="_top" xlink:title=" ">
<polygon fill="white" stroke="black" points="960,-798.5 960,-817.5 1091,-817.5 1091,-798.5 960,-798.5"/>
<text text-anchor="middle" x="1025.5" y="-805.5" font-family="FreeSans" font-size="10.00">COptMethodHookeJeeves</text>
</a>
</g>
</g>
<!-- Node20&#45;&gt;Node22 -->
<g id="edge20" class="edge">
<title>Node20&#45;&gt;Node22</title>
<path fill="none" stroke="midnightblue" d="M897.08,-627.93C901.53,-630.32 905.64,-633.3 909,-637 955.72,-688.36 895.96,-739.86 945,-789 949.31,-793.32 954.42,-796.72 959.93,-799.4"/>
<polygon fill="midnightblue" stroke="midnightblue" points="898.16,-624.58 887.59,-623.77 895.35,-630.99 898.16,-624.58"/>
</g>
<!-- Node23 -->
<g id="node22" class="node">
<title>Node23</title>
<g id="a_node22"><a xlink:href="../../d3/dda/classCOptMethodLevenbergMarquardt.html" target="_top" xlink:title=" ">
<polygon fill="white" stroke="black" points="945,-760.5 945,-779.5 1106,-779.5 1106,-760.5 945,-760.5"/>
<text text-anchor="middle" x="1025.5" y="-767.5" font-family="FreeSans" font-size="10.00">COptMethodLevenbergMarquardt</text>
</a>
</g>
</g>
<!-- Node20&#45;&gt;Node23 -->
<g id="edge21" class="edge">
<title>Node20&#45;&gt;Node23</title>
<path fill="none" stroke="midnightblue" d="M896.98,-628.26C901.41,-630.6 905.55,-633.47 909,-637 946.17,-674.97 906.11,-714.79 945,-751 949.05,-754.77 953.71,-757.83 958.7,-760.32"/>
<polygon fill="midnightblue" stroke="midnightblue" points="898.14,-624.95 887.57,-624.17 895.35,-631.37 898.14,-624.95"/>
</g>
<!-- Node24 -->
<g id="node23" class="node">
<title>Node24</title>
<g id="a_node23"><a xlink:href="../../d1/d6a/classCOptMethodNL2SOL.html" target="_top" xlink:title=" ">
<polygon fill="white" stroke="black" points="970.5,-722.5 970.5,-741.5 1080.5,-741.5 1080.5,-722.5 970.5,-722.5"/>
<text text-anchor="middle" x="1025.5" y="-729.5" font-family="FreeSans" font-size="10.00">COptMethodNL2SOL</text>
</a>
</g>
</g>
<!-- Node20&#45;&gt;Node24 -->
<g id="edge22" class="edge">
<title>Node20&#45;&gt;Node24</title>
<path fill="none" stroke="midnightblue" d="M896.85,-628.91C901.25,-631.13 905.4,-633.8 909,-637 936.91,-661.86 915.97,-689.45 945,-713 952.27,-718.9 961.08,-723.02 970.15,-725.89"/>
<polygon fill="midnightblue" stroke="midnightblue" points="898.18,-625.67 887.61,-624.95 895.42,-632.1 898.18,-625.67"/>
</g>
<!-- Node25 -->
<g id="node24" class="node">
<title>Node25</title>
<g id="a_node24"><a xlink:href="../../d5/dbd/classCOptMethodNelderMead.html" target="_top" xlink:title=" ">
<polygon fill="white" stroke="black" points="963.5,-684.5 963.5,-703.5 1087.5,-703.5 1087.5,-684.5 963.5,-684.5"/>
<text text-anchor="middle" x="1025.5" y="-691.5" font-family="FreeSans" font-size="10.00">COptMethodNelderMead</text>
</a>
</g>
</g>
<!-- Node20&#45;&gt;Node25 -->
<g id="edge23" class="edge">
<title>Node20&#45;&gt;Node25</title>
<path fill="none" stroke="midnightblue" d="M896.97,-630.58C901.17,-632.47 905.25,-634.6 909,-637 928.59,-649.55 924.85,-663.37 945,-675 951.76,-678.9 959.28,-682 966.93,-684.47"/>
<polygon fill="midnightblue" stroke="midnightblue" points="898.26,-627.33 887.67,-626.83 895.64,-633.82 898.26,-627.33"/>
</g>
<!-- Node26 -->
<g id="node25" class="node">
<title>Node26</title>
<g id="a_node25"><a xlink:href="../../d6/dca/classCOptMethodPraxis.html" target="_top" xlink:title=" ">
<polygon fill="white" stroke="black" points="976.5,-646.5 976.5,-665.5 1074.5,-665.5 1074.5,-646.5 976.5,-646.5"/>
<text text-anchor="middle" x="1025.5" y="-653.5" font-family="FreeSans" font-size="10.00">COptMethodPraxis</text>
</a>
</g>
</g>
<!-- Node20&#45;&gt;Node26 -->
<g id="edge24" class="edge">
<title>Node20&#45;&gt;Node26</title>
<path fill="none" stroke="midnightblue" d="M897.61,-627.88C923.42,-633.6 955.75,-640.77 981.32,-646.43"/>
<polygon fill="midnightblue" stroke="midnightblue" points="898.23,-624.44 887.71,-625.69 896.71,-631.27 898.23,-624.44"/>
</g>
<!-- Node27 -->
<g id="node26" class="node">
<title>Node27</title>
<g id="a_node26"><a xlink:href="../../dc/d57/classCOptMethodSA.html" target="_top" xlink:title=" ">
<polygon fill="white" stroke="black" points="983,-608.5 983,-627.5 1068,-627.5 1068,-608.5 983,-608.5"/>
<text text-anchor="middle" x="1025.5" y="-615.5" font-family="FreeSans" font-size="10.00">COptMethodSA</text>
</a>
</g>
</g>
<!-- Node20&#45;&gt;Node27 -->
<g id="edge25" class="edge">
<title>Node20&#45;&gt;Node27</title>
<path fill="none" stroke="midnightblue" d="M897.8,-618C924.11,-618 957.14,-618 982.89,-618"/>
<polygon fill="midnightblue" stroke="midnightblue" points="897.71,-614.5 887.71,-618 897.71,-621.5 897.71,-614.5"/>
</g>
<!-- Node28 -->
<g id="node27" class="node">
<title>Node28</title>
<g id="a_node27"><a xlink:href="../../df/d56/classCOptMethodStatistics.html" target="_top" xlink:title=" ">
<polygon fill="white" stroke="black" points="969,-570.5 969,-589.5 1082,-589.5 1082,-570.5 969,-570.5"/>
<text text-anchor="middle" x="1025.5" y="-577.5" font-family="FreeSans" font-size="10.00">COptMethodStatistics</text>
</a>
</g>
</g>
<!-- Node20&#45;&gt;Node28 -->
<g id="edge26" class="edge">
<title>Node20&#45;&gt;Node28</title>
<path fill="none" stroke="midnightblue" d="M897.61,-608.12C923.42,-602.4 955.75,-595.23 981.32,-589.57"/>
<polygon fill="midnightblue" stroke="midnightblue" points="896.71,-604.73 887.71,-610.31 898.23,-611.56 896.71,-604.73"/>
</g>
<!-- Node29 -->
<g id="node28" class="node">
<title>Node29</title>
<g id="a_node28"><a xlink:href="../../d2/d28/classCOptMethodSteepestDescent.html" target="_top" xlink:title=" ">
<polygon fill="white" stroke="black" points="952.5,-532.5 952.5,-551.5 1098.5,-551.5 1098.5,-532.5 952.5,-532.5"/>
<text text-anchor="middle" x="1025.5" y="-539.5" font-family="FreeSans" font-size="10.00">COptMethodSteepestDescent</text>
</a>
</g>
</g>
<!-- Node20&#45;&gt;Node29 -->
<g id="edge27" class="edge">
<title>Node20&#45;&gt;Node29</title>
<path fill="none" stroke="midnightblue" d="M896.97,-605.42C901.17,-603.53 905.25,-601.4 909,-599 928.59,-586.45 924.85,-572.63 945,-561 951.76,-557.1 959.28,-554 966.93,-551.53"/>
<polygon fill="midnightblue" stroke="midnightblue" points="895.64,-602.18 887.67,-609.17 898.26,-608.67 895.64,-602.18"/>
</g>
<!-- Node30 -->
<g id="node29" class="node">
<title>Node30</title>
<g id="a_node29"><a xlink:href="../../d1/dfc/classCOptMethodTruncatedNewton.html" target="_top" xlink:title=" ">
<polygon fill="white" stroke="black" points="951,-494.5 951,-513.5 1100,-513.5 1100,-494.5 951,-494.5"/>
<text text-anchor="middle" x="1025.5" y="-501.5" font-family="FreeSans" font-size="10.00">COptMethodTruncatedNewton</text>
</a>
</g>
</g>
<!-- Node20&#45;&gt;Node30 -->
<g id="edge28" class="edge">
<title>Node20&#45;&gt;Node30</title>
<path fill="none" stroke="midnightblue" d="M896.85,-607.09C901.25,-604.87 905.4,-602.2 909,-599 936.91,-574.14 915.97,-546.55 945,-523 949.74,-519.16 955.13,-516.07 960.82,-513.59"/>
<polygon fill="midnightblue" stroke="midnightblue" points="895.42,-603.9 887.61,-611.05 898.18,-610.33 895.42,-603.9"/>
</g>
<!-- Node31 -->
<g id="node30" class="node">
<title>Node31</title>
<g id="a_node30"><a xlink:href="../../de/d9c/classCOptPopulationMethod.html" target="_top" xlink:title=" ">
<polygon fill="white" stroke="red" points="967,-456.5 967,-475.5 1084,-475.5 1084,-456.5 967,-456.5"/>
<text text-anchor="middle" x="1025.5" y="-463.5" font-family="FreeSans" font-size="10.00">COptPopulationMethod</text>
</a>
</g>
</g>
<!-- Node20&#45;&gt;Node31 -->
<g id="edge29" class="edge">
<title>Node20&#45;&gt;Node31</title>
<path fill="none" stroke="midnightblue" d="M896.98,-607.74C901.41,-605.4 905.55,-602.53 909,-599 946.17,-561.03 906.11,-521.21 945,-485 951.13,-479.29 958.65,-475.21 966.61,-472.3"/>
<polygon fill="midnightblue" stroke="midnightblue" points="895.35,-604.63 887.57,-611.83 898.14,-611.05 895.35,-604.63"/>
</g>
<!-- Node39 -->
<g id="node31" class="node">
<title>Node39</title>
<g id="a_node31"><a xlink:href="../../db/d28/classCRandomSearch.html" target="_top" xlink:title=" ">
<polygon fill="white" stroke="black" points="980.5,-418.5 980.5,-437.5 1070.5,-437.5 1070.5,-418.5 980.5,-418.5"/>
<text text-anchor="middle" x="1025.5" y="-425.5" font-family="FreeSans" font-size="10.00">CRandomSearch</text>
</a>
</g>
</g>
<!-- Node20&#45;&gt;Node39 -->
<g id="edge30" class="edge">
<title>Node20&#45;&gt;Node39</title>
<path fill="none" stroke="midnightblue" d="M897.08,-608.07C901.53,-605.68 905.64,-602.7 909,-599 955.72,-547.64 895.96,-496.14 945,-447 954.32,-437.66 967.36,-432.6 980.19,-429.94"/>
<polygon fill="midnightblue" stroke="midnightblue" points="895.35,-605.01 887.59,-612.23 898.16,-611.42 895.35,-605.01"/>
</g>
<!-- Node41 -->
<g id="node33" class="node">
<title>Node41</title>
<g id="a_node33"><a xlink:href="../../d8/d2a/classCOscillationMethodIntegrate.html" target="_top" xlink:title=" ">
<polygon fill="white" stroke="black" points="955.5,-380.5 955.5,-399.5 1095.5,-399.5 1095.5,-380.5 955.5,-380.5"/>
<text text-anchor="middle" x="1025.5" y="-387.5" font-family="FreeSans" font-size="10.00">COscillationMethodIntegrate</text>
</a>
</g>
</g>
<!-- Node40&#45;&gt;Node41 -->
<g id="edge32" class="edge">
<title>Node40&#45;&gt;Node41</title>
<path fill="none" stroke="midnightblue" d="M905.1,-564.72C906.48,-563.57 907.79,-562.33 909,-561 955.72,-509.64 895.96,-458.14 945,-409 948.81,-405.18 953.24,-402.08 958.02,-399.56"/>
<polygon fill="midnightblue" stroke="midnightblue" points="902.87,-561.99 896.44,-570.41 906.72,-567.84 902.87,-561.99"/>
</g>
<!-- Node45 -->
<g id="node37" class="node">
<title>Node45</title>
<g id="a_node37"><a xlink:href="../../d4/d5c/classCNewtonMethod.html" target="_top" xlink:title=" ">
<polygon fill="white" stroke="black" points="981,-342.5 981,-361.5 1070,-361.5 1070,-342.5 981,-342.5"/>
<text text-anchor="middle" x="1025.5" y="-349.5" font-family="FreeSans" font-size="10.00">CNewtonMethod</text>
</a>
</g>
</g>
<!-- Node44&#45;&gt;Node45 -->
<g id="edge36" class="edge">
<title>Node44&#45;&gt;Node45</title>
<path fill="none" stroke="midnightblue" d="M882.76,-395.31C900.56,-387.48 923.78,-377.87 945,-371 956.48,-367.28 969.1,-363.94 980.83,-361.13"/>
<polygon fill="midnightblue" stroke="midnightblue" points="881.19,-392.18 873.48,-399.45 884.04,-398.57 881.19,-392.18"/>
</g>
<!-- Node47 -->
<g id="node39" class="node">
<title>Node47</title>
<g id="a_node39"><a xlink:href="../../d7/deb/classCCSPMethod.html" target="_top" xlink:title="The CCSPMethod class implements the CSP method.">
<polygon fill="white" stroke="black" points="987.5,-304.5 987.5,-323.5 1063.5,-323.5 1063.5,-304.5 987.5,-304.5"/>
<text text-anchor="middle" x="1025.5" y="-311.5" font-family="FreeSans" font-size="10.00">CCSPMethod</text>
</a>
</g>
</g>
<!-- Node46&#45;&gt;Node47 -->
<g id="edge38" class="edge">
<title>Node46&#45;&gt;Node47</title>
<path fill="none" stroke="midnightblue" d="M903.23,-300.57C930.2,-303.55 962.85,-307.17 987.47,-309.9"/>
<polygon fill="midnightblue" stroke="midnightblue" points="903.53,-297.08 893.21,-299.45 902.76,-304.03 903.53,-297.08"/>
</g>
<!-- Node48 -->
<g id="node40" class="node">
<title>Node48</title>
<g id="a_node40"><a xlink:href="../../df/df5/classCILDMMethod.html" target="_top" xlink:title="The CILDMMethod class implements the ILDM method.">
<polygon fill="white" stroke="black" points="985.5,-266.5 985.5,-285.5 1065.5,-285.5 1065.5,-266.5 985.5,-266.5"/>
<text text-anchor="middle" x="1025.5" y="-273.5" font-family="FreeSans" font-size="10.00">CILDMMethod</text>
</a>
</g>
</g>
<!-- Node46&#45;&gt;Node48 -->
<g id="edge39" class="edge">
<title>Node46&#45;&gt;Node48</title>
<path fill="none" stroke="midnightblue" d="M903.33,-289.42C929.53,-286.52 961.09,-283.03 985.43,-280.33"/>
<polygon fill="midnightblue" stroke="midnightblue" points="902.76,-285.97 893.21,-290.55 903.53,-292.92 902.76,-285.97"/>
</g>
<!-- Node49 -->
<g id="node41" class="node">
<title>Node49</title>
<g id="a_node41"><a xlink:href="../../de/d88/classCILDMModifiedMethod.html" target="_top" xlink:title="The CILDMModifiedMethod class implementes the modified ILDM method.">
<polygon fill="white" stroke="black" points="967.5,-228.5 967.5,-247.5 1083.5,-247.5 1083.5,-228.5 967.5,-228.5"/>
<text text-anchor="middle" x="1025.5" y="-235.5" font-family="FreeSans" font-size="10.00">CILDMModifiedMethod</text>
</a>
</g>
</g>
<!-- Node46&#45;&gt;Node49 -->
<g id="edge40" class="edge">
<title>Node46&#45;&gt;Node49</title>
<path fill="none" stroke="midnightblue" d="M882.76,-281.31C900.56,-273.48 923.78,-263.87 945,-257 955.94,-253.46 967.91,-250.26 979.17,-247.53"/>
<polygon fill="midnightblue" stroke="midnightblue" points="881.19,-278.18 873.48,-285.45 884.04,-284.57 881.19,-278.18"/>
</g>
<!-- Node51 -->
<g id="node43" class="node">
<title>Node51</title>
<g id="a_node43"><a xlink:href="../../d6/d93/classCTimeSensLsodaMethod.html" target="_top" xlink:title=" ">
<polygon fill="white" stroke="black" points="962,-190.5 962,-209.5 1089,-209.5 1089,-190.5 962,-190.5"/>
<text text-anchor="middle" x="1025.5" y="-197.5" font-family="FreeSans" font-size="10.00">CTimeSensLsodaMethod</text>
</a>
</g>
</g>
<!-- Node50&#45;&gt;Node51 -->
<g id="edge42" class="edge">
<title>Node50&#45;&gt;Node51</title>
<path fill="none" stroke="midnightblue" d="M906.04,-226.25C930.29,-220.87 958.65,-214.59 981.53,-209.52"/>
<polygon fill="midnightblue" stroke="midnightblue" points="905.28,-222.83 896.28,-228.41 906.8,-229.66 905.28,-222.83"/>
</g>
<!-- Node53 -->
<g id="node45" class="node">
<title>Node53</title>
<g id="a_node45"><a xlink:href="../../d5/da3/classCHybridMethod.html" target="_top" xlink:title=" ">
<polygon fill="white" stroke="red" points="984,-152.5 984,-171.5 1067,-171.5 1067,-152.5 984,-152.5"/>
<text text-anchor="middle" x="1025.5" y="-159.5" font-family="FreeSans" font-size="10.00">CHybridMethod</text>
</a>
</g>
</g>
<!-- Node52&#45;&gt;Node53 -->
<g id="edge44" class="edge">
<title>Node52&#45;&gt;Node53</title>
<path fill="none" stroke="midnightblue" d="M882.76,-118.69C900.56,-126.52 923.78,-136.13 945,-143 957.42,-147.02 971.18,-150.61 983.71,-153.55"/>
<polygon fill="midnightblue" stroke="midnightblue" points="884.04,-115.43 873.48,-114.55 881.19,-121.82 884.04,-115.43"/>
</g>
<!-- Node56 -->
<g id="node46" class="node">
<title>Node56</title>
<g id="a_node46"><a xlink:href="../../d1/d1e/classCHybridMethodODE45.html" target="_top" xlink:title=" ">
<polygon fill="white" stroke="black" points="968.5,-114.5 968.5,-133.5 1082.5,-133.5 1082.5,-114.5 968.5,-114.5"/>
<text text-anchor="middle" x="1025.5" y="-121.5" font-family="FreeSans" font-size="10.00">CHybridMethodODE45</text>
</a>
</g>
</g>
<!-- Node52&#45;&gt;Node56 -->
<g id="edge45" class="edge">
<title>Node52&#45;&gt;Node56</title>
<path fill="none" stroke="midnightblue" d="M911.27,-111.46C929.75,-113.5 950.14,-115.76 968.45,-117.79"/>
<polygon fill="midnightblue" stroke="midnightblue" points="911.55,-107.97 901.23,-110.34 910.78,-114.92 911.55,-107.97"/>
</g>
<!-- Node57 -->
<g id="node47" class="node">
<title>Node57</title>
<g id="a_node47"><a xlink:href="../../d4/dce/classCLsodaMethod.html" target="_top" xlink:title=" ">
<polygon fill="white" stroke="red" points="984,-76.5 984,-95.5 1067,-95.5 1067,-76.5 984,-76.5"/>
<text text-anchor="middle" x="1025.5" y="-83.5" font-family="FreeSans" font-size="10.00">CLsodaMethod</text>
</a>
</g>
</g>
<!-- Node52&#45;&gt;Node57 -->
<g id="edge46" class="edge">
<title>Node52&#45;&gt;Node57</title>
<path fill="none" stroke="midnightblue" d="M911.24,-98.55C935.13,-95.9 962.2,-92.9 983.88,-90.5"/>
<polygon fill="midnightblue" stroke="midnightblue" points="910.78,-95.08 901.23,-99.66 911.55,-102.03 910.78,-95.08"/>
</g>
<!-- Node60 -->
<g id="node48" class="node">
<title>Node60</title>
<g id="a_node48"><a xlink:href="../../d2/d30/classCLsodaMethod2.html" target="_top" xlink:title=" ">
<polygon fill="white" stroke="black" points="981.5,-38.5 981.5,-57.5 1069.5,-57.5 1069.5,-38.5 981.5,-38.5"/>
<text text-anchor="middle" x="1025.5" y="-45.5" font-family="FreeSans" font-size="10.00">CLsodaMethod2</text>
</a>
</g>
</g>
<!-- Node52&#45;&gt;Node60 -->
<g id="edge47" class="edge">
<title>Node52&#45;&gt;Node60</title>
<path fill="none" stroke="midnightblue" d="M882.76,-91.31C900.56,-83.48 923.78,-73.87 945,-67 956.61,-63.24 969.39,-59.86 981.25,-57.03"/>
<polygon fill="midnightblue" stroke="midnightblue" points="881.19,-88.18 873.48,-95.45 884.04,-94.57 881.19,-88.18"/>
</g>
<!-- Node61 -->
<g id="node49" class="node">
<title>Node61</title>
<g id="a_node49"><a xlink:href="../../db/dac/classCRadau5Method.html" target="_top" xlink:title=" ">
<polygon fill="white" stroke="black" points="981,-0.5 981,-19.5 1070,-19.5 1070,-0.5 981,-0.5"/>
<text text-anchor="middle" x="1025.5" y="-7.5" font-family="FreeSans" font-size="10.00">CRadau5Method</text>
</a>
</g>
</g>
<!-- Node52&#45;&gt;Node61 -->
<g id="edge48" class="edge">
<title>Node52&#45;&gt;Node61</title>
<path fill="none" stroke="midnightblue" d="M868.63,-88.17C885.73,-70.77 914.77,-44.07 945,-29 956.05,-23.49 968.77,-19.53 980.75,-16.71"/>
<polygon fill="midnightblue" stroke="midnightblue" points="866.05,-85.8 861.65,-95.44 871.1,-90.65 866.05,-85.8"/>
</g>
</g>
</svg>
