<?xml version="1.0" encoding="UTF-8" standalone="no"?>
<!DOCTYPE svg PUBLIC "-//W3C//DTD SVG 1.1//EN"
 "http://www.w3.org/Graphics/SVG/1.1/DTD/svg11.dtd">
<!-- Generated by graphviz version 2.43.0 (0)
 -->
<!-- Title: CScanItem Pages: 1 -->
<svg width="334pt" height="84pt"
 viewBox="0.00 0.00 334.00 84.00" xmlns="http://www.w3.org/2000/svg" xmlns:xlink="http://www.w3.org/1999/xlink">
<g id="graph0" class="graph" transform="scale(1 1) rotate(0) translate(4 80)">
<title>CScanItem</title>
<polygon fill="white" stroke="transparent" points="-4,4 -4,-80 330,-80 330,4 -4,4"/>
<!-- Node1 -->
<g id="node1" class="node">
<title>Node1</title>
<g id="a_node1"><a xlink:title=" ">
<polygon fill="#bfbfbf" stroke="black" points="128.5,-56.5 128.5,-75.5 193.5,-75.5 193.5,-56.5 128.5,-56.5"/>
<text text-anchor="middle" x="161" y="-63.5" font-family="FreeSans" font-size="10.00">CScanItem</text>
</a>
</g>
</g>
<!-- Node2 -->
<g id="node2" class="node">
<title>Node2</title>
<g id="a_node2"><a xlink:href="../../de/df1/classCScanItemLinear.html" target="_top" xlink:title=" ">
<polygon fill="white" stroke="black" points="0,-0.5 0,-19.5 92,-19.5 92,-0.5 0,-0.5"/>
<text text-anchor="middle" x="46" y="-7.5" font-family="FreeSans" font-size="10.00">CScanItemLinear</text>
</a>
</g>
</g>
<!-- Node1&#45;&gt;Node2 -->
<g id="edge1" class="edge">
<title>Node1&#45;&gt;Node2</title>
<path fill="none" stroke="midnightblue" d="M133.52,-52.1C112.03,-42.01 82.78,-28.27 64.14,-19.52"/>
<polygon fill="midnightblue" stroke="midnightblue" points="132.24,-55.36 142.78,-56.44 135.21,-49.02 132.24,-55.36"/>
</g>
<!-- Node3 -->
<g id="node3" class="node">
<title>Node3</title>
<g id="a_node3"><a xlink:href="../../d1/dbb/classCScanItemRandom.html" target="_top" xlink:title=" ">
<polygon fill="white" stroke="black" points="110.5,-0.5 110.5,-19.5 211.5,-19.5 211.5,-0.5 110.5,-0.5"/>
<text text-anchor="middle" x="161" y="-7.5" font-family="FreeSans" font-size="10.00">CScanItemRandom</text>
</a>
</g>
</g>
<!-- Node1&#45;&gt;Node3 -->
<g id="edge2" class="edge">
<title>Node1&#45;&gt;Node3</title>
<path fill="none" stroke="midnightblue" d="M161,-45.8C161,-36.91 161,-26.78 161,-19.75"/>
<polygon fill="midnightblue" stroke="midnightblue" points="157.5,-46.08 161,-56.08 164.5,-46.08 157.5,-46.08"/>
</g>
<!-- Node4 -->
<g id="node4" class="node">
<title>Node4</title>
<g id="a_node4"><a xlink:href="../../db/d74/classCScanItemRepeat.html" target="_top" xlink:title=" ">
<polygon fill="white" stroke="black" points="230,-0.5 230,-19.5 326,-19.5 326,-0.5 230,-0.5"/>
<text text-anchor="middle" x="278" y="-7.5" font-family="FreeSans" font-size="10.00">CScanItemRepeat</text>
</a>
</g>
</g>
<!-- Node1&#45;&gt;Node4 -->
<g id="edge3" class="edge">
<title>Node1&#45;&gt;Node4</title>
<path fill="none" stroke="midnightblue" d="M188.66,-52.23C210.55,-42.13 240.5,-28.31 259.55,-19.52"/>
<polygon fill="midnightblue" stroke="midnightblue" points="187.15,-49.08 179.54,-56.44 190.09,-55.43 187.15,-49.08"/>
</g>
</g>
</svg>
