<?xml version="1.0" encoding="UTF-8" standalone="no"?>
<!DOCTYPE svg PUBLIC "-//W3C//DTD SVG 1.1//EN"
 "http://www.w3.org/Graphics/SVG/1.1/DTD/svg11.dtd">
<!-- Generated by graphviz version 2.43.0 (0)
 -->
<!-- Title: CRandom Pages: 1 -->
<svg width="137pt" height="140pt"
 viewBox="0.00 0.00 136.50 140.00" xmlns="http://www.w3.org/2000/svg" xmlns:xlink="http://www.w3.org/1999/xlink">
<g id="graph0" class="graph" transform="scale(1 1) rotate(0) translate(4 136)">
<title>CRandom</title>
<polygon fill="white" stroke="transparent" points="-4,4 -4,-136 132.5,-136 132.5,4 -4,4"/>
<!-- Node1 -->
<g id="node1" class="node">
<title>Node1</title>
<g id="a_node1"><a xlink:title=" ">
<polygon fill="#bfbfbf" stroke="black" points="43,-112.5 43,-131.5 102,-131.5 102,-112.5 43,-112.5"/>
<text text-anchor="middle" x="72.5" y="-119.5" font-family="FreeSans" font-size="10.00">CRandom</text>
</a>
</g>
</g>
<!-- Node2 -->
<g id="node2" class="node">
<title>Node2</title>
<g id="a_node2"><a xlink:href="../../d5/d91/classCmt19937.html" target="_top" xlink:title=" ">
<polygon fill="white" stroke="black" points="7,-56.5 7,-75.5 68,-75.5 68,-56.5 7,-56.5"/>
<text text-anchor="middle" x="37.5" y="-63.5" font-family="FreeSans" font-size="10.00">Cmt19937</text>
</a>
</g>
</g>
<!-- Node1&#45;&gt;Node2 -->
<g id="edge1" class="edge">
<title>Node1&#45;&gt;Node2</title>
<path fill="none" stroke="midnightblue" d="M61.2,-103.57C55.18,-94.27 48.03,-83.25 43.17,-75.75"/>
<polygon fill="midnightblue" stroke="midnightblue" points="58.34,-105.6 66.72,-112.08 64.22,-101.79 58.34,-105.6"/>
</g>
<!-- Node4 -->
<g id="node4" class="node">
<title>Node4</title>
<g id="a_node4"><a xlink:href="../../d6/da2/classCr250.html" target="_top" xlink:title=" ">
<polygon fill="white" stroke="black" points="86.5,-56.5 86.5,-75.5 128.5,-75.5 128.5,-56.5 86.5,-56.5"/>
<text text-anchor="middle" x="107.5" y="-63.5" font-family="FreeSans" font-size="10.00">Cr250</text>
</a>
</g>
</g>
<!-- Node1&#45;&gt;Node4 -->
<g id="edge3" class="edge">
<title>Node1&#45;&gt;Node4</title>
<path fill="none" stroke="midnightblue" d="M83.8,-103.57C89.82,-94.27 96.97,-83.25 101.83,-75.75"/>
<polygon fill="midnightblue" stroke="midnightblue" points="80.78,-101.79 78.28,-112.08 86.66,-105.6 80.78,-101.79"/>
</g>
<!-- Node3 -->
<g id="node3" class="node">
<title>Node3</title>
<g id="a_node3"><a xlink:href="../../d0/df0/classCmt19937HR.html" target="_top" xlink:title=" ">
<polygon fill="white" stroke="black" points="0,-0.5 0,-19.5 75,-19.5 75,-0.5 0,-0.5"/>
<text text-anchor="middle" x="37.5" y="-7.5" font-family="FreeSans" font-size="10.00">Cmt19937HR</text>
</a>
</g>
</g>
<!-- Node2&#45;&gt;Node3 -->
<g id="edge2" class="edge">
<title>Node2&#45;&gt;Node3</title>
<path fill="none" stroke="midnightblue" d="M37.5,-45.8C37.5,-36.91 37.5,-26.78 37.5,-19.75"/>
<polygon fill="midnightblue" stroke="midnightblue" points="34,-46.08 37.5,-56.08 41,-46.08 34,-46.08"/>
</g>
</g>
</svg>
