<?xml version="1.0" encoding="UTF-8" standalone="no"?>
<!DOCTYPE svg PUBLIC "-//W3C//DTD SVG 1.1//EN"
 "http://www.w3.org/Graphics/SVG/1.1/DTD/svg11.dtd">
<!-- Generated by graphviz version 2.43.0 (0)
 -->
<!-- Title: CLImage Pages: 1 -->
<svg width="347pt" height="196pt"
 viewBox="0.00 0.00 347.00 196.00" xmlns="http://www.w3.org/2000/svg" xmlns:xlink="http://www.w3.org/1999/xlink">
<g id="graph0" class="graph" transform="scale(1 1) rotate(0) translate(4 192)">
<title>CLImage</title>
<polygon fill="white" stroke="transparent" points="-4,4 -4,-192 343,-192 343,4 -4,4"/>
<!-- Node1 -->
<g id="node1" class="node">
<title>Node1</title>
<g id="a_node1"><a xlink:title=" ">
<polygon fill="#bfbfbf" stroke="black" points="79.5,-0.5 79.5,-19.5 135.5,-19.5 135.5,-0.5 79.5,-0.5"/>
<text text-anchor="middle" x="107.5" y="-7.5" font-family="FreeSans" font-size="10.00">CLImage</text>
</a>
</g>
</g>
<!-- Node2 -->
<g id="node2" class="node">
<title>Node2</title>
<g id="a_node2"><a xlink:href="../../d4/d0b/classCLTransformation2D.html" target="_top" xlink:title=" ">
<polygon fill="white" stroke="black" points="0,-56.5 0,-75.5 107,-75.5 107,-56.5 0,-56.5"/>
<text text-anchor="middle" x="53.5" y="-63.5" font-family="FreeSans" font-size="10.00">CLTransformation2D</text>
</a>
</g>
</g>
<!-- Node2&#45;&gt;Node1 -->
<g id="edge1" class="edge">
<title>Node2&#45;&gt;Node1</title>
<path fill="none" stroke="midnightblue" d="M69.5,-49C79.07,-39.43 90.86,-27.64 98.75,-19.75"/>
<polygon fill="midnightblue" stroke="midnightblue" points="67.01,-46.54 62.42,-56.08 71.96,-51.49 67.01,-46.54"/>
</g>
<!-- Node3 -->
<g id="node3" class="node">
<title>Node3</title>
<g id="a_node3"><a xlink:href="../../dd/d1f/classCLTransformation.html" target="_top" xlink:title=" ">
<polygon fill="white" stroke="black" points="4,-112.5 4,-131.5 99,-131.5 99,-112.5 4,-112.5"/>
<text text-anchor="middle" x="51.5" y="-119.5" font-family="FreeSans" font-size="10.00">CLTransformation</text>
</a>
</g>
</g>
<!-- Node3&#45;&gt;Node2 -->
<g id="edge2" class="edge">
<title>Node3&#45;&gt;Node2</title>
<path fill="none" stroke="midnightblue" d="M52.21,-101.8C52.54,-92.91 52.92,-82.78 53.18,-75.75"/>
<polygon fill="midnightblue" stroke="midnightblue" points="48.7,-101.96 51.83,-112.08 55.7,-102.22 48.7,-101.96"/>
</g>
<!-- Node4 -->
<g id="node4" class="node">
<title>Node4</title>
<g id="a_node4"><a xlink:href="../../d7/df9/classCLBase.html" target="_top" xlink:title=" ">
<polygon fill="white" stroke="black" points="25.5,-168.5 25.5,-187.5 77.5,-187.5 77.5,-168.5 25.5,-168.5"/>
<text text-anchor="middle" x="51.5" y="-175.5" font-family="FreeSans" font-size="10.00">CLBase</text>
</a>
</g>
</g>
<!-- Node4&#45;&gt;Node3 -->
<g id="edge3" class="edge">
<title>Node4&#45;&gt;Node3</title>
<path fill="none" stroke="midnightblue" d="M51.5,-157.8C51.5,-148.91 51.5,-138.78 51.5,-131.75"/>
<polygon fill="midnightblue" stroke="midnightblue" points="48,-158.08 51.5,-168.08 55,-158.08 48,-158.08"/>
</g>
<!-- Node5 -->
<g id="node5" class="node">
<title>Node5</title>
<g id="a_node5"><a xlink:href="../../d1/d6b/classCDataObject.html" target="_top" xlink:title=" ">
<polygon fill="white" stroke="black" points="126.5,-56.5 126.5,-75.5 198.5,-75.5 198.5,-56.5 126.5,-56.5"/>
<text text-anchor="middle" x="162.5" y="-63.5" font-family="FreeSans" font-size="10.00">CDataObject</text>
</a>
</g>
</g>
<!-- Node5&#45;&gt;Node1 -->
<g id="edge4" class="edge">
<title>Node5&#45;&gt;Node1</title>
<path fill="none" stroke="midnightblue" d="M146.21,-49C136.46,-39.43 124.45,-27.64 116.41,-19.75"/>
<polygon fill="midnightblue" stroke="midnightblue" points="143.83,-51.57 153.42,-56.08 148.73,-46.58 143.83,-51.57"/>
</g>
<!-- Node6 -->
<g id="node6" class="node">
<title>Node6</title>
<g id="a_node6"><a xlink:href="../../df/dfa/classCObjectInterface.html" target="_top" xlink:title=" ">
<polygon fill="white" stroke="black" points="117.5,-112.5 117.5,-131.5 207.5,-131.5 207.5,-112.5 117.5,-112.5"/>
<text text-anchor="middle" x="162.5" y="-119.5" font-family="FreeSans" font-size="10.00">CObjectInterface</text>
</a>
</g>
</g>
<!-- Node6&#45;&gt;Node5 -->
<g id="edge5" class="edge">
<title>Node6&#45;&gt;Node5</title>
<path fill="none" stroke="midnightblue" d="M162.5,-101.8C162.5,-92.91 162.5,-82.78 162.5,-75.75"/>
<polygon fill="midnightblue" stroke="midnightblue" points="159,-102.08 162.5,-112.08 166,-102.08 159,-102.08"/>
</g>
<!-- Node7 -->
<g id="node7" class="node">
<title>Node7</title>
<g id="a_node7"><a xlink:href="../../d8/d53/classCUndoObjectInterface.html" target="_top" xlink:title=" ">
<polygon fill="white" stroke="black" points="226,-112.5 226,-131.5 339,-131.5 339,-112.5 226,-112.5"/>
<text text-anchor="middle" x="282.5" y="-119.5" font-family="FreeSans" font-size="10.00">CUndoObjectInterface</text>
</a>
</g>
</g>
<!-- Node7&#45;&gt;Node5 -->
<g id="edge6" class="edge">
<title>Node7&#45;&gt;Node5</title>
<path fill="none" stroke="midnightblue" d="M254.13,-108.23C231.68,-98.13 200.96,-84.31 181.43,-75.52"/>
<polygon fill="midnightblue" stroke="midnightblue" points="252.93,-111.53 263.49,-112.44 255.8,-105.15 252.93,-111.53"/>
</g>
</g>
</svg>
