<?xml version="1.0" encoding="UTF-8" standalone="no"?>
<!DOCTYPE svg PUBLIC "-//W3C//DTD SVG 1.1//EN"
 "http://www.w3.org/Graphics/SVG/1.1/DTD/svg11.dtd">
<!-- Generated by graphviz version 2.43.0 (0)
 -->
<!-- Title: CLGlyphWithCurve Pages: 1 -->
<svg width="465pt" height="308pt"
 viewBox="0.00 0.00 465.00 308.00" xmlns="http://www.w3.org/2000/svg" xmlns:xlink="http://www.w3.org/1999/xlink">
<g id="graph0" class="graph" transform="scale(1 1) rotate(0) translate(4 304)">
<title>CLGlyphWithCurve</title>
<polygon fill="white" stroke="transparent" points="-4,4 -4,-304 461,-304 461,4 -4,4"/>
<!-- Node1 -->
<g id="node1" class="node">
<title>Node1</title>
<g id="a_node1"><a xlink:title=" ">
<polygon fill="#bfbfbf" stroke="black" points="181.5,-56.5 181.5,-75.5 280.5,-75.5 280.5,-56.5 181.5,-56.5"/>
<text text-anchor="middle" x="231" y="-63.5" font-family="FreeSans" font-size="10.00">CLGlyphWithCurve</text>
</a>
</g>
</g>
<!-- Node8 -->
<g id="node8" class="node">
<title>Node8</title>
<g id="a_node8"><a xlink:href="../../d8/dde/classCLGeneralGlyph.html" target="_top" xlink:title=" ">
<polygon fill="white" stroke="black" points="0,-0.5 0,-19.5 88,-19.5 88,-0.5 0,-0.5"/>
<text text-anchor="middle" x="44" y="-7.5" font-family="FreeSans" font-size="10.00">CLGeneralGlyph</text>
</a>
</g>
</g>
<!-- Node1&#45;&gt;Node8 -->
<g id="edge7" class="edge">
<title>Node1&#45;&gt;Node8</title>
<path fill="none" stroke="midnightblue" d="M191.41,-53.57C156.13,-43.38 105.31,-28.7 73.49,-19.52"/>
<polygon fill="midnightblue" stroke="midnightblue" points="190.79,-57.03 201.37,-56.44 192.73,-50.31 190.79,-57.03"/>
</g>
<!-- Node9 -->
<g id="node9" class="node">
<title>Node9</title>
<g id="a_node9"><a xlink:href="../../d6/d63/classCLMetabReferenceGlyph.html" target="_top" xlink:title=" ">
<polygon fill="white" stroke="black" points="105.5,-0.5 105.5,-19.5 230.5,-19.5 230.5,-0.5 105.5,-0.5"/>
<text text-anchor="middle" x="168" y="-7.5" font-family="FreeSans" font-size="10.00">CLMetabReferenceGlyph</text>
</a>
</g>
</g>
<!-- Node1&#45;&gt;Node9 -->
<g id="edge8" class="edge">
<title>Node1&#45;&gt;Node9</title>
<path fill="none" stroke="midnightblue" d="M212.96,-49.54C201.73,-39.91 187.68,-27.87 178.31,-19.83"/>
<polygon fill="midnightblue" stroke="midnightblue" points="211.01,-52.47 220.88,-56.32 215.56,-47.16 211.01,-52.47"/>
</g>
<!-- Node10 -->
<g id="node10" class="node">
<title>Node10</title>
<g id="a_node10"><a xlink:href="../../d8/d67/classCLReactionGlyph.html" target="_top" xlink:title=" ">
<polygon fill="white" stroke="black" points="249,-0.5 249,-19.5 341,-19.5 341,-0.5 249,-0.5"/>
<text text-anchor="middle" x="295" y="-7.5" font-family="FreeSans" font-size="10.00">CLReactionGlyph</text>
</a>
</g>
</g>
<!-- Node1&#45;&gt;Node10 -->
<g id="edge9" class="edge">
<title>Node1&#45;&gt;Node10</title>
<path fill="none" stroke="midnightblue" d="M248.99,-49.82C260.46,-40.15 274.91,-27.95 284.53,-19.83"/>
<polygon fill="midnightblue" stroke="midnightblue" points="246.67,-47.2 241.28,-56.32 251.18,-52.55 246.67,-47.2"/>
</g>
<!-- Node11 -->
<g id="node11" class="node">
<title>Node11</title>
<g id="a_node11"><a xlink:href="../../dd/de1/classCLReferenceGlyph.html" target="_top" xlink:title=" ">
<polygon fill="white" stroke="black" points="359,-0.5 359,-19.5 457,-19.5 457,-0.5 359,-0.5"/>
<text text-anchor="middle" x="408" y="-7.5" font-family="FreeSans" font-size="10.00">CLReferenceGlyph</text>
</a>
</g>
</g>
<!-- Node1&#45;&gt;Node11 -->
<g id="edge10" class="edge">
<title>Node1&#45;&gt;Node11</title>
<path fill="none" stroke="midnightblue" d="M268.9,-53.44C302.28,-43.26 350.1,-28.66 380.09,-19.52"/>
<polygon fill="midnightblue" stroke="midnightblue" points="267.59,-50.18 259.05,-56.44 269.63,-56.87 267.59,-50.18"/>
</g>
<!-- Node2 -->
<g id="node2" class="node">
<title>Node2</title>
<g id="a_node2"><a xlink:href="../../d8/d63/classCLGraphicalObject.html" target="_top" xlink:title=" ">
<polygon fill="white" stroke="black" points="181.5,-112.5 181.5,-131.5 280.5,-131.5 280.5,-112.5 181.5,-112.5"/>
<text text-anchor="middle" x="231" y="-119.5" font-family="FreeSans" font-size="10.00">CLGraphicalObject</text>
</a>
</g>
</g>
<!-- Node2&#45;&gt;Node1 -->
<g id="edge1" class="edge">
<title>Node2&#45;&gt;Node1</title>
<path fill="none" stroke="midnightblue" d="M231,-101.8C231,-92.91 231,-82.78 231,-75.75"/>
<polygon fill="midnightblue" stroke="midnightblue" points="227.5,-102.08 231,-112.08 234.5,-102.08 227.5,-102.08"/>
</g>
<!-- Node3 -->
<g id="node3" class="node">
<title>Node3</title>
<g id="a_node3"><a xlink:href="../../d7/df9/classCLBase.html" target="_top" xlink:title=" ">
<polygon fill="white" stroke="black" points="162,-168.5 162,-187.5 214,-187.5 214,-168.5 162,-168.5"/>
<text text-anchor="middle" x="188" y="-175.5" font-family="FreeSans" font-size="10.00">CLBase</text>
</a>
</g>
</g>
<!-- Node3&#45;&gt;Node2 -->
<g id="edge2" class="edge">
<title>Node3&#45;&gt;Node2</title>
<path fill="none" stroke="midnightblue" d="M201.42,-160.14C208.91,-150.74 217.94,-139.4 224.03,-131.75"/>
<polygon fill="midnightblue" stroke="midnightblue" points="198.59,-158.08 195.1,-168.08 204.07,-162.44 198.59,-158.08"/>
</g>
<!-- Node4 -->
<g id="node4" class="node">
<title>Node4</title>
<g id="a_node4"><a xlink:href="../../d3/db9/classCDataContainer.html" target="_top" xlink:title=" ">
<polygon fill="white" stroke="black" points="232.5,-168.5 232.5,-187.5 317.5,-187.5 317.5,-168.5 232.5,-168.5"/>
<text text-anchor="middle" x="275" y="-175.5" font-family="FreeSans" font-size="10.00">CDataContainer</text>
</a>
</g>
</g>
<!-- Node4&#45;&gt;Node2 -->
<g id="edge3" class="edge">
<title>Node4&#45;&gt;Node2</title>
<path fill="none" stroke="midnightblue" d="M261.27,-160.14C253.6,-150.74 244.37,-139.4 238.13,-131.75"/>
<polygon fill="midnightblue" stroke="midnightblue" points="258.7,-162.54 267.73,-168.08 264.13,-158.12 258.7,-162.54"/>
</g>
<!-- Node5 -->
<g id="node5" class="node">
<title>Node5</title>
<g id="a_node5"><a xlink:href="../../d1/d6b/classCDataObject.html" target="_top" xlink:title=" ">
<polygon fill="white" stroke="black" points="239,-224.5 239,-243.5 311,-243.5 311,-224.5 239,-224.5"/>
<text text-anchor="middle" x="275" y="-231.5" font-family="FreeSans" font-size="10.00">CDataObject</text>
</a>
</g>
</g>
<!-- Node5&#45;&gt;Node4 -->
<g id="edge4" class="edge">
<title>Node5&#45;&gt;Node4</title>
<path fill="none" stroke="midnightblue" d="M275,-213.8C275,-204.91 275,-194.78 275,-187.75"/>
<polygon fill="midnightblue" stroke="midnightblue" points="271.5,-214.08 275,-224.08 278.5,-214.08 271.5,-214.08"/>
</g>
<!-- Node6 -->
<g id="node6" class="node">
<title>Node6</title>
<g id="a_node6"><a xlink:href="../../df/dfa/classCObjectInterface.html" target="_top" xlink:title=" ">
<polygon fill="white" stroke="black" points="170,-280.5 170,-299.5 260,-299.5 260,-280.5 170,-280.5"/>
<text text-anchor="middle" x="215" y="-287.5" font-family="FreeSans" font-size="10.00">CObjectInterface</text>
</a>
</g>
</g>
<!-- Node6&#45;&gt;Node5 -->
<g id="edge5" class="edge">
<title>Node6&#45;&gt;Node5</title>
<path fill="none" stroke="midnightblue" d="M232.18,-273.54C242.88,-263.91 256.26,-251.87 265.18,-243.83"/>
<polygon fill="midnightblue" stroke="midnightblue" points="229.73,-271.03 224.64,-280.32 234.41,-276.24 229.73,-271.03"/>
</g>
<!-- Node7 -->
<g id="node7" class="node">
<title>Node7</title>
<g id="a_node7"><a xlink:href="../../d8/d53/classCUndoObjectInterface.html" target="_top" xlink:title=" ">
<polygon fill="white" stroke="black" points="278.5,-280.5 278.5,-299.5 391.5,-299.5 391.5,-280.5 278.5,-280.5"/>
<text text-anchor="middle" x="335" y="-287.5" font-family="FreeSans" font-size="10.00">CUndoObjectInterface</text>
</a>
</g>
</g>
<!-- Node7&#45;&gt;Node5 -->
<g id="edge6" class="edge">
<title>Node7&#45;&gt;Node5</title>
<path fill="none" stroke="midnightblue" d="M317.82,-273.54C307.12,-263.91 293.74,-251.87 284.82,-243.83"/>
<polygon fill="midnightblue" stroke="midnightblue" points="315.59,-276.24 325.36,-280.32 320.27,-271.03 315.59,-276.24"/>
</g>
</g>
</svg>
