<?xml version="1.0" encoding="UTF-8" standalone="no"?>
<!DOCTYPE svg PUBLIC "-//W3C//DTD SVG 1.1//EN"
 "http://www.w3.org/Graphics/SVG/1.1/DTD/svg11.dtd">
<!-- Generated by graphviz version 2.43.0 (0)
 -->
<!-- Title: CAnnotation Pages: 1 -->
<svg width="342pt" height="284pt"
 viewBox="0.00 0.00 342.00 284.00" xmlns="http://www.w3.org/2000/svg" xmlns:xlink="http://www.w3.org/1999/xlink">
<g id="graph0" class="graph" transform="scale(1 1) rotate(0) translate(4 280)">
<title>CAnnotation</title>
<polygon fill="white" stroke="transparent" points="-4,4 -4,-280 338,-280 338,4 -4,4"/>
<!-- Node1 -->
<g id="node1" class="node">
<title>Node1</title>
<g id="a_node1"><a xlink:title=" ">
<polygon fill="#bfbfbf" stroke="black" points="0,-114.5 0,-133.5 70,-133.5 70,-114.5 0,-114.5"/>
<text text-anchor="middle" x="35" y="-121.5" font-family="FreeSans" font-size="10.00">CAnnotation</text>
</a>
</g>
</g>
<!-- Node2 -->
<g id="node2" class="node">
<title>Node2</title>
<g id="a_node2"><a xlink:href="../../da/d3f/classCEvent.html" target="_top" xlink:title=" ">
<polygon fill="white" stroke="black" points="137,-237.5 137,-256.5 185,-256.5 185,-237.5 137,-237.5"/>
<text text-anchor="middle" x="161" y="-244.5" font-family="FreeSans" font-size="10.00">CEvent</text>
</a>
</g>
</g>
<!-- Node1&#45;&gt;Node2 -->
<g id="edge1" class="edge">
<title>Node1&#45;&gt;Node2</title>
<path fill="none" stroke="midnightblue" d="M44.16,-142.97C55.04,-166.16 76.44,-205.14 106,-228 114.96,-234.93 126.65,-239.46 136.86,-242.35"/>
<polygon fill="midnightblue" stroke="midnightblue" points="47.2,-141.21 39.9,-133.54 40.82,-144.09 47.2,-141.21"/>
</g>
<!-- Node3 -->
<g id="node3" class="node">
<title>Node3</title>
<g id="a_node3"><a xlink:href="../../d9/d86/classCFunction.html" target="_top" xlink:title="The class for handling a chemical kinetic function.">
<polygon fill="white" stroke="black" points="130.5,-199.5 130.5,-218.5 191.5,-218.5 191.5,-199.5 130.5,-199.5"/>
<text text-anchor="middle" x="161" y="-206.5" font-family="FreeSans" font-size="10.00">CFunction</text>
</a>
</g>
</g>
<!-- Node1&#45;&gt;Node3 -->
<g id="edge2" class="edge">
<title>Node1&#45;&gt;Node3</title>
<path fill="none" stroke="midnightblue" d="M54.09,-140.47C67.77,-152.49 87.34,-168.75 106,-181 116.51,-187.9 128.91,-194.43 139.18,-199.45"/>
<polygon fill="midnightblue" stroke="midnightblue" points="56.18,-137.64 46.39,-133.61 51.52,-142.87 56.18,-137.64"/>
</g>
<!-- Node6 -->
<g id="node6" class="node">
<title>Node6</title>
<g id="a_node6"><a xlink:href="../../d0/da0/classCModelEntity.html" target="_top" xlink:title=" ">
<polygon fill="white" stroke="black" points="124,-152.5 124,-171.5 198,-171.5 198,-152.5 124,-152.5"/>
<text text-anchor="middle" x="161" y="-159.5" font-family="FreeSans" font-size="10.00">CModelEntity</text>
</a>
</g>
</g>
<!-- Node1&#45;&gt;Node6 -->
<g id="edge5" class="edge">
<title>Node1&#45;&gt;Node6</title>
<path fill="none" stroke="midnightblue" d="M76.9,-136.54C93.77,-141.7 113.01,-147.6 128.72,-152.41"/>
<polygon fill="midnightblue" stroke="midnightblue" points="77.88,-133.17 67.29,-133.59 75.83,-139.87 77.88,-133.17"/>
</g>
<!-- Node11 -->
<g id="node11" class="node">
<title>Node11</title>
<g id="a_node11"><a xlink:href="../../d6/de0/classCModelParameterSet.html" target="_top" xlink:title=" ">
<polygon fill="white" stroke="black" points="106,-114.5 106,-133.5 216,-133.5 216,-114.5 106,-114.5"/>
<text text-anchor="middle" x="161" y="-121.5" font-family="FreeSans" font-size="10.00">CModelParameterSet</text>
</a>
</g>
</g>
<!-- Node1&#45;&gt;Node11 -->
<g id="edge10" class="edge">
<title>Node1&#45;&gt;Node11</title>
<path fill="none" stroke="midnightblue" d="M80.39,-124C88.65,-124 97.37,-124 105.89,-124"/>
<polygon fill="midnightblue" stroke="midnightblue" points="80.21,-120.5 70.21,-124 80.21,-127.5 80.21,-120.5"/>
</g>
<!-- Node12 -->
<g id="node12" class="node">
<title>Node12</title>
<g id="a_node12"><a xlink:href="../../d5/d6a/classCModelVersion.html" target="_top" xlink:title=" ">
<polygon fill="white" stroke="black" points="119.5,-76.5 119.5,-95.5 202.5,-95.5 202.5,-76.5 119.5,-76.5"/>
<text text-anchor="middle" x="161" y="-83.5" font-family="FreeSans" font-size="10.00">CModelVersion</text>
</a>
</g>
</g>
<!-- Node1&#45;&gt;Node12 -->
<g id="edge11" class="edge">
<title>Node1&#45;&gt;Node12</title>
<path fill="none" stroke="midnightblue" d="M76.9,-111.46C93.77,-106.3 113.01,-100.4 128.72,-95.59"/>
<polygon fill="midnightblue" stroke="midnightblue" points="75.83,-108.13 67.29,-114.41 77.88,-114.83 75.83,-108.13"/>
</g>
<!-- Node13 -->
<g id="node13" class="node">
<title>Node13</title>
<g id="a_node13"><a xlink:href="../../d4/dcf/classCReaction.html" target="_top" xlink:title=" ">
<polygon fill="white" stroke="black" points="130,-38.5 130,-57.5 192,-57.5 192,-38.5 130,-38.5"/>
<text text-anchor="middle" x="161" y="-45.5" font-family="FreeSans" font-size="10.00">CReaction</text>
</a>
</g>
</g>
<!-- Node1&#45;&gt;Node13 -->
<g id="edge12" class="edge">
<title>Node1&#45;&gt;Node13</title>
<path fill="none" stroke="midnightblue" d="M53.14,-107.18C66.6,-94.71 86.3,-78.04 106,-67 113.37,-62.87 121.8,-59.39 129.77,-56.58"/>
<polygon fill="midnightblue" stroke="midnightblue" points="50.47,-104.88 45.62,-114.31 55.29,-109.96 50.47,-104.88"/>
</g>
<!-- Node14 -->
<g id="node14" class="node">
<title>Node14</title>
<g id="a_node14"><a xlink:href="../../d0/db3/classCUnitDefinition.html" target="_top" xlink:title=" ">
<polygon fill="white" stroke="black" points="120.5,-0.5 120.5,-19.5 201.5,-19.5 201.5,-0.5 120.5,-0.5"/>
<text text-anchor="middle" x="161" y="-7.5" font-family="FreeSans" font-size="10.00">CUnitDefinition</text>
</a>
</g>
</g>
<!-- Node1&#45;&gt;Node14 -->
<g id="edge13" class="edge">
<title>Node1&#45;&gt;Node14</title>
<path fill="none" stroke="midnightblue" d="M45.25,-105.43C56.75,-84.13 78.28,-49.51 106,-29 111.19,-25.16 117.23,-22.04 123.35,-19.53"/>
<polygon fill="midnightblue" stroke="midnightblue" points="42.07,-103.95 40.56,-114.44 48.28,-107.18 42.07,-103.95"/>
</g>
<!-- Node4 -->
<g id="node4" class="node">
<title>Node4</title>
<g id="a_node4"><a xlink:href="../../d1/de4/classCKinFunction.html" target="_top" xlink:title=" ">
<polygon fill="white" stroke="black" points="255.5,-256.5 255.5,-275.5 330.5,-275.5 330.5,-256.5 255.5,-256.5"/>
<text text-anchor="middle" x="293" y="-263.5" font-family="FreeSans" font-size="10.00">CKinFunction</text>
</a>
</g>
</g>
<!-- Node3&#45;&gt;Node4 -->
<g id="edge3" class="edge">
<title>Node3&#45;&gt;Node4</title>
<path fill="none" stroke="midnightblue" d="M201.26,-222.05C206.26,-223.93 211.28,-225.94 216,-228 232.58,-235.24 235.83,-238.89 252,-247 258.32,-250.17 265.27,-253.51 271.57,-256.5"/>
<polygon fill="midnightblue" stroke="midnightblue" points="202.33,-218.71 191.73,-218.58 199.93,-225.29 202.33,-218.71"/>
</g>
<!-- Node5 -->
<g id="node5" class="node">
<title>Node5</title>
<g id="a_node5"><a xlink:href="../../d9/d88/classCMassAction.html" target="_top" xlink:title=" ">
<polygon fill="white" stroke="black" points="255.5,-218.5 255.5,-237.5 330.5,-237.5 330.5,-218.5 255.5,-218.5"/>
<text text-anchor="middle" x="293" y="-225.5" font-family="FreeSans" font-size="10.00">CMassAction</text>
</a>
</g>
</g>
<!-- Node3&#45;&gt;Node5 -->
<g id="edge4" class="edge">
<title>Node3&#45;&gt;Node5</title>
<path fill="none" stroke="midnightblue" d="M202.02,-214.85C219.03,-217.33 238.73,-220.21 255.35,-222.64"/>
<polygon fill="midnightblue" stroke="midnightblue" points="202.23,-211.34 191.82,-213.36 201.21,-218.27 202.23,-211.34"/>
</g>
<!-- Node7 -->
<g id="node7" class="node">
<title>Node7</title>
<g id="a_node7"><a xlink:href="../../d4/dd4/classCCompartment.html" target="_top" xlink:title=" ">
<polygon fill="white" stroke="black" points="252,-180.5 252,-199.5 334,-199.5 334,-180.5 252,-180.5"/>
<text text-anchor="middle" x="293" y="-187.5" font-family="FreeSans" font-size="10.00">CCompartment</text>
</a>
</g>
</g>
<!-- Node6&#45;&gt;Node7 -->
<g id="edge6" class="edge">
<title>Node6&#45;&gt;Node7</title>
<path fill="none" stroke="midnightblue" d="M208.3,-171.97C222.54,-175.04 238.08,-178.39 251.87,-181.36"/>
<polygon fill="midnightblue" stroke="midnightblue" points="208.73,-168.48 198.21,-169.8 207.25,-175.33 208.73,-168.48"/>
</g>
<!-- Node8 -->
<g id="node8" class="node">
<title>Node8</title>
<g id="a_node8"><a xlink:href="../../dc/d44/classCMetab.html" target="_top" xlink:title=" ">
<polygon fill="white" stroke="black" points="268,-142.5 268,-161.5 318,-161.5 318,-142.5 268,-142.5"/>
<text text-anchor="middle" x="293" y="-149.5" font-family="FreeSans" font-size="10.00">CMetab</text>
</a>
</g>
</g>
<!-- Node6&#45;&gt;Node8 -->
<g id="edge7" class="edge">
<title>Node6&#45;&gt;Node8</title>
<path fill="none" stroke="midnightblue" d="M208.44,-158.43C228.54,-156.88 251.23,-155.14 267.88,-153.86"/>
<polygon fill="midnightblue" stroke="midnightblue" points="207.91,-154.96 198.21,-159.21 208.45,-161.94 207.91,-154.96"/>
</g>
<!-- Node9 -->
<g id="node9" class="node">
<title>Node9</title>
<g id="a_node9"><a xlink:href="../../d4/d04/classCModel.html" target="_top" xlink:title=" ">
<polygon fill="white" stroke="black" points="268,-104.5 268,-123.5 318,-123.5 318,-104.5 268,-104.5"/>
<text text-anchor="middle" x="293" y="-111.5" font-family="FreeSans" font-size="10.00">CModel</text>
</a>
</g>
</g>
<!-- Node6&#45;&gt;Node9 -->
<g id="edge8" class="edge">
<title>Node6&#45;&gt;Node9</title>
<path fill="none" stroke="midnightblue" d="M198.96,-149.14C204.67,-147.11 210.5,-145.02 216,-143 233.37,-136.63 252.86,-129.19 267.76,-123.44"/>
<polygon fill="midnightblue" stroke="midnightblue" points="197.79,-145.84 189.52,-152.47 200.12,-152.44 197.79,-145.84"/>
</g>
<!-- Node10 -->
<g id="node10" class="node">
<title>Node10</title>
<g id="a_node10"><a xlink:href="../../d7/dec/classCModelValue.html" target="_top" xlink:title=" ">
<polygon fill="white" stroke="black" points="256,-66.5 256,-85.5 330,-85.5 330,-66.5 256,-66.5"/>
<text text-anchor="middle" x="293" y="-73.5" font-family="FreeSans" font-size="10.00">CModelValue</text>
</a>
</g>
</g>
<!-- Node6&#45;&gt;Node10 -->
<g id="edge9" class="edge">
<title>Node6&#45;&gt;Node10</title>
<path fill="none" stroke="midnightblue" d="M207.38,-148.35C210.41,-146.75 213.32,-144.97 216,-143 237.5,-127.23 231.36,-111.88 252,-95 256.4,-91.4 261.6,-88.29 266.77,-85.69"/>
<polygon fill="midnightblue" stroke="midnightblue" points="205.67,-145.29 198.06,-152.66 208.61,-151.64 205.67,-145.29"/>
</g>
</g>
</svg>
