<?xml version="1.0" encoding="UTF-8" standalone="no"?>
<!DOCTYPE svg PUBLIC "-//W3C//DTD SVG 1.1//EN"
 "http://www.w3.org/Graphics/SVG/1.1/DTD/svg11.dtd">
<!-- Generated by graphviz version 2.43.0 (0)
 -->
<!-- Title: CExperimentObjectMap::CDataColumn Pages: 1 -->
<svg width="230pt" height="319pt"
 viewBox="0.00 0.00 229.50 319.00" xmlns="http://www.w3.org/2000/svg" xmlns:xlink="http://www.w3.org/1999/xlink">
<g id="graph0" class="graph" transform="scale(1 1) rotate(0) translate(4 315)">
<title>CExperimentObjectMap::CDataColumn</title>
<polygon fill="white" stroke="transparent" points="-4,4 -4,-315 225.5,-315 225.5,4 -4,4"/>
<!-- Node1 -->
<g id="node1" class="node">
<title>Node1</title>
<g id="a_node1"><a xlink:title=" ">
<polygon fill="#bfbfbf" stroke="black" points="45.5,-0.5 45.5,-30.5 164.5,-30.5 164.5,-0.5 45.5,-0.5"/>
<text text-anchor="start" x="53.5" y="-18.5" font-family="FreeSans" font-size="10.00">CExperimentObjectMap</text>
<text text-anchor="middle" x="105" y="-7.5" font-family="FreeSans" font-size="10.00">::CDataColumn</text>
</a>
</g>
</g>
<!-- Node2 -->
<g id="node2" class="node">
<title>Node2</title>
<g id="a_node2"><a xlink:href="../../df/d89/classCCopasiParameterGroup.html" target="_top" xlink:title=" ">
<polygon fill="white" stroke="black" points="42.5,-67.5 42.5,-86.5 167.5,-86.5 167.5,-67.5 42.5,-67.5"/>
<text text-anchor="middle" x="105" y="-74.5" font-family="FreeSans" font-size="10.00">CCopasiParameterGroup</text>
</a>
</g>
</g>
<!-- Node2&#45;&gt;Node1 -->
<g id="edge1" class="edge">
<title>Node2&#45;&gt;Node1</title>
<path fill="none" stroke="midnightblue" d="M105,-57.23C105,-48.59 105,-38.5 105,-30.52"/>
<polygon fill="midnightblue" stroke="midnightblue" points="101.5,-57.48 105,-67.48 108.5,-57.48 101.5,-57.48"/>
</g>
<!-- Node3 -->
<g id="node3" class="node">
<title>Node3</title>
<g id="a_node3"><a xlink:href="../../d5/db6/classCCopasiParameter.html" target="_top" xlink:title=" ">
<polygon fill="white" stroke="black" points="56,-123.5 56,-142.5 154,-142.5 154,-123.5 56,-123.5"/>
<text text-anchor="middle" x="105" y="-130.5" font-family="FreeSans" font-size="10.00">CCopasiParameter</text>
</a>
</g>
</g>
<!-- Node3&#45;&gt;Node2 -->
<g id="edge2" class="edge">
<title>Node3&#45;&gt;Node2</title>
<path fill="none" stroke="midnightblue" d="M105,-112.8C105,-103.91 105,-93.78 105,-86.75"/>
<polygon fill="midnightblue" stroke="midnightblue" points="101.5,-113.08 105,-123.08 108.5,-113.08 101.5,-113.08"/>
</g>
<!-- Node4 -->
<g id="node4" class="node">
<title>Node4</title>
<g id="a_node4"><a xlink:href="../../d3/db9/classCDataContainer.html" target="_top" xlink:title=" ">
<polygon fill="white" stroke="black" points="62.5,-179.5 62.5,-198.5 147.5,-198.5 147.5,-179.5 62.5,-179.5"/>
<text text-anchor="middle" x="105" y="-186.5" font-family="FreeSans" font-size="10.00">CDataContainer</text>
</a>
</g>
</g>
<!-- Node4&#45;&gt;Node3 -->
<g id="edge3" class="edge">
<title>Node4&#45;&gt;Node3</title>
<path fill="none" stroke="midnightblue" d="M105,-168.8C105,-159.91 105,-149.78 105,-142.75"/>
<polygon fill="midnightblue" stroke="midnightblue" points="101.5,-169.08 105,-179.08 108.5,-169.08 101.5,-169.08"/>
</g>
<!-- Node5 -->
<g id="node5" class="node">
<title>Node5</title>
<g id="a_node5"><a xlink:href="../../d1/d6b/classCDataObject.html" target="_top" xlink:title=" ">
<polygon fill="white" stroke="black" points="69,-235.5 69,-254.5 141,-254.5 141,-235.5 69,-235.5"/>
<text text-anchor="middle" x="105" y="-242.5" font-family="FreeSans" font-size="10.00">CDataObject</text>
</a>
</g>
</g>
<!-- Node5&#45;&gt;Node4 -->
<g id="edge4" class="edge">
<title>Node5&#45;&gt;Node4</title>
<path fill="none" stroke="midnightblue" d="M105,-224.8C105,-215.91 105,-205.78 105,-198.75"/>
<polygon fill="midnightblue" stroke="midnightblue" points="101.5,-225.08 105,-235.08 108.5,-225.08 101.5,-225.08"/>
</g>
<!-- Node6 -->
<g id="node6" class="node">
<title>Node6</title>
<g id="a_node6"><a xlink:href="../../df/dfa/classCObjectInterface.html" target="_top" xlink:title=" ">
<polygon fill="white" stroke="black" points="0,-291.5 0,-310.5 90,-310.5 90,-291.5 0,-291.5"/>
<text text-anchor="middle" x="45" y="-298.5" font-family="FreeSans" font-size="10.00">CObjectInterface</text>
</a>
</g>
</g>
<!-- Node6&#45;&gt;Node5 -->
<g id="edge5" class="edge">
<title>Node6&#45;&gt;Node5</title>
<path fill="none" stroke="midnightblue" d="M62.18,-284.54C72.88,-274.91 86.26,-262.87 95.18,-254.83"/>
<polygon fill="midnightblue" stroke="midnightblue" points="59.73,-282.03 54.64,-291.32 64.41,-287.24 59.73,-282.03"/>
</g>
<!-- Node7 -->
<g id="node7" class="node">
<title>Node7</title>
<g id="a_node7"><a xlink:href="../../d8/d53/classCUndoObjectInterface.html" target="_top" xlink:title=" ">
<polygon fill="white" stroke="black" points="108.5,-291.5 108.5,-310.5 221.5,-310.5 221.5,-291.5 108.5,-291.5"/>
<text text-anchor="middle" x="165" y="-298.5" font-family="FreeSans" font-size="10.00">CUndoObjectInterface</text>
</a>
</g>
</g>
<!-- Node7&#45;&gt;Node5 -->
<g id="edge6" class="edge">
<title>Node7&#45;&gt;Node5</title>
<path fill="none" stroke="midnightblue" d="M147.82,-284.54C137.12,-274.91 123.74,-262.87 114.82,-254.83"/>
<polygon fill="midnightblue" stroke="midnightblue" points="145.59,-287.24 155.36,-291.32 150.27,-282.03 145.59,-287.24"/>
</g>
</g>
</svg>
