<?xml version="1.0" encoding="UTF-8" standalone="no"?>
<!DOCTYPE svg PUBLIC "-//W3C//DTD SVG 1.1//EN"
 "http://www.w3.org/Graphics/SVG/1.1/DTD/svg11.dtd">
<!-- Generated by graphviz version 2.43.0 (0)
 -->
<!-- Title: ValueScale Pages: 1 -->
<svg width="162pt" height="140pt"
 viewBox="0.00 0.00 161.50 140.00" xmlns="http://www.w3.org/2000/svg" xmlns:xlink="http://www.w3.org/1999/xlink">
<g id="graph0" class="graph" transform="scale(1 1) rotate(0) translate(4 136)">
<title>ValueScale</title>
<polygon fill="white" stroke="transparent" points="-4,4 -4,-136 157.5,-136 157.5,4 -4,4"/>
<!-- Node1 -->
<g id="node1" class="node">
<title>Node1</title>
<g id="a_node1"><a xlink:title="The standard (1:1) mapping class for axis numbering.">
<polygon fill="#bfbfbf" stroke="black" points="47,-56.5 47,-75.5 113,-75.5 113,-56.5 47,-56.5"/>
<text text-anchor="middle" x="80" y="-63.5" font-family="FreeSans" font-size="10.00">ValueScale</text>
</a>
</g>
</g>
<!-- Node3 -->
<g id="node3" class="node">
<title>Node3</title>
<g id="a_node3"><a xlink:href="../../df/d67/classColumnScale.html" target="_top" xlink:title=" ">
<polygon fill="white" stroke="black" points="0,-0.5 0,-19.5 74,-19.5 74,-0.5 0,-0.5"/>
<text text-anchor="middle" x="37" y="-7.5" font-family="FreeSans" font-size="10.00">ColumnScale</text>
</a>
</g>
</g>
<!-- Node1&#45;&gt;Node3 -->
<g id="edge2" class="edge">
<title>Node1&#45;&gt;Node3</title>
<path fill="none" stroke="midnightblue" d="M66.58,-48.14C59.09,-38.74 50.06,-27.4 43.97,-19.75"/>
<polygon fill="midnightblue" stroke="midnightblue" points="63.93,-50.44 72.9,-56.08 69.41,-46.08 63.93,-50.44"/>
</g>
<!-- Node4 -->
<g id="node4" class="node">
<title>Node4</title>
<g id="a_node4"><a xlink:href="../../dd/d13/classRowScale.html" target="_top" xlink:title=" ">
<polygon fill="white" stroke="black" points="92.5,-0.5 92.5,-19.5 153.5,-19.5 153.5,-0.5 92.5,-0.5"/>
<text text-anchor="middle" x="123" y="-7.5" font-family="FreeSans" font-size="10.00">RowScale</text>
</a>
</g>
</g>
<!-- Node1&#45;&gt;Node4 -->
<g id="edge3" class="edge">
<title>Node1&#45;&gt;Node4</title>
<path fill="none" stroke="midnightblue" d="M93.42,-48.14C100.91,-38.74 109.94,-27.4 116.03,-19.75"/>
<polygon fill="midnightblue" stroke="midnightblue" points="90.59,-46.08 87.1,-56.08 96.07,-50.44 90.59,-46.08"/>
</g>
<!-- Node2 -->
<g id="node2" class="node">
<title>Node2</title>
<g id="a_node2"><a xlink:title=" ">
<polygon fill="white" stroke="#bfbfbf" points="42,-112.5 42,-131.5 118,-131.5 118,-112.5 42,-112.5"/>
<text text-anchor="middle" x="80" y="-119.5" font-family="FreeSans" font-size="10.00">Qwt3D::Scale</text>
</a>
</g>
</g>
<!-- Node2&#45;&gt;Node1 -->
<g id="edge1" class="edge">
<title>Node2&#45;&gt;Node1</title>
<path fill="none" stroke="midnightblue" d="M80,-101.8C80,-92.91 80,-82.78 80,-75.75"/>
<polygon fill="midnightblue" stroke="midnightblue" points="76.5,-102.08 80,-112.08 83.5,-102.08 76.5,-102.08"/>
</g>
</g>
</svg>
