<?xml version="1.0" encoding="UTF-8" standalone="no"?>
<!DOCTYPE svg PUBLIC "-//W3C//DTD SVG 1.1//EN"
 "http://www.w3.org/Graphics/SVG/1.1/DTD/svg11.dtd">
<!-- Generated by graphviz version 2.43.0 (0)
 -->
<!-- Title: CEvaluationNode Pages: 1 -->
<!--zoomable 522 -->
<svg id="main" version="1.1" xmlns="http://www.w3.org/2000/svg" xmlns:xlink="http://www.w3.org/1999/xlink" xml:space="preserve" onload="init(evt)">
<style type="text/css"><![CDATA[
.edge:hover path { stroke: red; }
.edge:hover polygon { stroke: red; fill: red; }
]]></style>
<script type="text/javascript"><![CDATA[
var edges = document.getElementsByTagName('g');
if (edges && edges.length) {
  for (var i=0;i<edges.length;i++) {
    if (edges[i].id.substr(0,4)=='edge') {
      edges[i].setAttribute('class','edge');
    }
  }
}
]]></script>
        <defs>
                <circle id="rim" cx="0" cy="0" r="7"/>
                <circle id="rim2" cx="0" cy="0" r="3.5"/>
                <g id="zoomPlus">
                        <use xlink:href="#rim" fill="#404040">
                                <set attributeName="fill" to="#808080" begin="zoomplus.mouseover" end="zoomplus.mouseout"/>
                        </use>
                        <path d="M-4,0h8M0,-4v8" fill="none" stroke="white" stroke-width="1.5" pointer-events="none"/>
                </g>
                <g id="zoomMin">
                        <use xlink:href="#rim" fill="#404040">
                                <set attributeName="fill" to="#808080" begin="zoomminus.mouseover" end="zoomminus.mouseout"/>
                        </use>
                        <path d="M-4,0h8" fill="none" stroke="white" stroke-width="1.5" pointer-events="none"/>
                </g>
                <g id="dirArrow">
                        <path fill="none" stroke="white" stroke-width="1.5" d="M0,-3.0v7 M-2.5,-0.5L0,-3.0L2.5,-0.5"/>
                </g>
               <g id="resetDef">
                       <use xlink:href="#rim2" fill="#404040">
                               <set attributeName="fill" to="#808080" begin="reset.mouseover" end="reset.mouseout"/>
                       </use>
               </g>
        </defs>

<script type="text/javascript">
var viewWidth = 669;
var viewHeight = 522;
var sectionId = 'dynsection-0';
</script>
<script xlink:href="../../svgpan.js"/>
<svg id="graph" class="graph">
<g id="viewport">
<title>CEvaluationNode</title>
<polygon fill="white" stroke="transparent" points="-4,4 -4,-518 665,-518 665,4 -4,4"/>
<!-- Node1 -->
<g id="node1" class="node">
<title>Node1</title>
<g id="a_node1"><a xlink:title=" ">
<polygon fill="#bfbfbf" stroke="black" points="388,-247.5 388,-266.5 480,-266.5 480,-247.5 388,-247.5"/>
<text text-anchor="middle" x="434" y="-254.5" font-family="FreeSans" font-size="10.00">CEvaluationNode</text>
</a>
</g>
</g>
<!-- Node4 -->
<g id="node4" class="node">
<title>Node4</title>
<g id="a_node4"><a xlink:href="../../df/d44/classCEvaluationNodeCall.html" target="_top" xlink:title=" ">
<polygon fill="white" stroke="black" points="535,-494.5 535,-513.5 643,-513.5 643,-494.5 535,-494.5"/>
<text text-anchor="middle" x="589" y="-501.5" font-family="FreeSans" font-size="10.00">CEvaluationNodeCall</text>
</a>
</g>
</g>
<!-- Node1&#45;&gt;Node4 -->
<g id="edge3" class="edge">
<title>Node1&#45;&gt;Node4</title>
<path fill="none" stroke="midnightblue" d="M435.86,-276.74C438.92,-321.31 452.92,-430.13 517,-485 522.23,-489.48 528.42,-492.92 534.92,-495.55"/>
<polygon fill="midnightblue" stroke="midnightblue" points="439.34,-276.42 435.28,-266.64 432.35,-276.82 439.34,-276.42"/>
</g>
<!-- Node5 -->
<g id="node5" class="node">
<title>Node5</title>
<g id="a_node5"><a xlink:href="../../d7/ddb/classCEvaluationNodeChoice.html" target="_top" xlink:title=" ">
<polygon fill="white" stroke="black" points="528,-456.5 528,-475.5 650,-475.5 650,-456.5 528,-456.5"/>
<text text-anchor="middle" x="589" y="-463.5" font-family="FreeSans" font-size="10.00">CEvaluationNodeChoice</text>
</a>
</g>
</g>
<!-- Node1&#45;&gt;Node5 -->
<g id="edge4" class="edge">
<title>Node1&#45;&gt;Node5</title>
<path fill="none" stroke="midnightblue" d="M437.67,-276.64C444.01,-315.36 463.65,-401.72 517,-447 521.57,-450.88 526.86,-453.98 532.44,-456.45"/>
<polygon fill="midnightblue" stroke="midnightblue" points="441.12,-276.01 436.16,-266.65 434.2,-277.06 441.12,-276.01"/>
</g>
<!-- Node6 -->
<g id="node6" class="node">
<title>Node6</title>
<g id="a_node6"><a xlink:href="../../dd/d1f/classCEvaluationNodeConstant.html" target="_top" xlink:title=" ">
<polygon fill="white" stroke="black" points="523.5,-418.5 523.5,-437.5 654.5,-437.5 654.5,-418.5 523.5,-418.5"/>
<text text-anchor="middle" x="589" y="-425.5" font-family="FreeSans" font-size="10.00">CEvaluationNodeConstant</text>
</a>
</g>
</g>
<!-- Node1&#45;&gt;Node6 -->
<g id="edge5" class="edge">
<title>Node1&#45;&gt;Node6</title>
<path fill="none" stroke="midnightblue" d="M440.08,-276.62C449.54,-309.18 473.02,-374.24 517,-409 521.91,-412.88 527.53,-415.97 533.43,-418.43"/>
<polygon fill="midnightblue" stroke="midnightblue" points="443.34,-275.27 437.31,-266.56 436.59,-277.13 443.34,-275.27"/>
</g>
<!-- Node7 -->
<g id="node7" class="node">
<title>Node7</title>
<g id="a_node7"><a xlink:href="../../dd/d48/classCEvaluationNodeDelay.html" target="_top" xlink:title=" ">
<polygon fill="white" stroke="black" points="531,-380.5 531,-399.5 647,-399.5 647,-380.5 531,-380.5"/>
<text text-anchor="middle" x="589" y="-387.5" font-family="FreeSans" font-size="10.00">CEvaluationNodeDelay</text>
</a>
</g>
</g>
<!-- Node1&#45;&gt;Node7 -->
<g id="edge6" class="edge">
<title>Node1&#45;&gt;Node7</title>
<path fill="none" stroke="midnightblue" d="M443.53,-276.01C455.98,-301.54 481.56,-346.53 517,-371 522.67,-374.92 529.11,-378.02 535.74,-380.49"/>
<polygon fill="midnightblue" stroke="midnightblue" points="446.57,-274.23 439.14,-266.67 440.23,-277.21 446.57,-274.23"/>
</g>
<!-- Node8 -->
<g id="node8" class="node">
<title>Node8</title>
<g id="a_node8"><a xlink:href="../../d8/dcb/classCEvaluationNodeFunction.html" target="_top" xlink:title=" ">
<polygon fill="white" stroke="black" points="524.5,-342.5 524.5,-361.5 653.5,-361.5 653.5,-342.5 524.5,-342.5"/>
<text text-anchor="middle" x="589" y="-349.5" font-family="FreeSans" font-size="10.00">CEvaluationNodeFunction</text>
</a>
</g>
</g>
<!-- Node1&#45;&gt;Node8 -->
<g id="edge7" class="edge">
<title>Node1&#45;&gt;Node8</title>
<path fill="none" stroke="midnightblue" d="M449.04,-274.21C464.09,-291.55 489.55,-317.84 517,-333 523.93,-336.82 531.66,-339.91 539.41,-342.39"/>
<polygon fill="midnightblue" stroke="midnightblue" points="451.65,-271.88 442.52,-266.5 446.31,-276.4 451.65,-271.88"/>
</g>
<!-- Node9 -->
<g id="node9" class="node">
<title>Node9</title>
<g id="a_node9"><a xlink:href="../../de/d73/classCEvaluationNodeLogical.html" target="_top" xlink:title=" ">
<polygon fill="white" stroke="black" points="527.5,-304.5 527.5,-323.5 650.5,-323.5 650.5,-304.5 527.5,-304.5"/>
<text text-anchor="middle" x="589" y="-311.5" font-family="FreeSans" font-size="10.00">CEvaluationNodeLogical</text>
</a>
</g>
</g>
<!-- Node1&#45;&gt;Node9 -->
<g id="edge8" class="edge">
<title>Node1&#45;&gt;Node9</title>
<path fill="none" stroke="midnightblue" d="M462.32,-271.1C478.03,-278.85 498.31,-288.23 517,-295 526.72,-298.52 537.39,-301.72 547.45,-304.44"/>
<polygon fill="midnightblue" stroke="midnightblue" points="463.69,-267.88 453.18,-266.53 460.56,-274.14 463.69,-267.88"/>
</g>
<!-- Node10 -->
<g id="node10" class="node">
<title>Node10</title>
<g id="a_node10"><a xlink:href="../../d3/d2a/classCEvaluationNodeNumber.html" target="_top" xlink:title=" ">
<polygon fill="white" stroke="black" points="526,-266.5 526,-285.5 652,-285.5 652,-266.5 526,-266.5"/>
<text text-anchor="middle" x="589" y="-273.5" font-family="FreeSans" font-size="10.00">CEvaluationNodeNumber</text>
</a>
</g>
</g>
<!-- Node1&#45;&gt;Node10 -->
<g id="edge9" class="edge">
<title>Node1&#45;&gt;Node10</title>
<path fill="none" stroke="midnightblue" d="M490.09,-263.84C501.73,-265.29 514.08,-266.82 525.96,-268.3"/>
<polygon fill="midnightblue" stroke="midnightblue" points="490.43,-260.36 480.08,-262.6 489.57,-267.3 490.43,-260.36"/>
</g>
<!-- Node11 -->
<g id="node11" class="node">
<title>Node11</title>
<g id="a_node11"><a xlink:href="../../d8/d28/classCEvaluationNodeObject.html" target="_top" xlink:title=" ">
<polygon fill="white" stroke="black" points="529,-228.5 529,-247.5 649,-247.5 649,-228.5 529,-228.5"/>
<text text-anchor="middle" x="589" y="-235.5" font-family="FreeSans" font-size="10.00">CEvaluationNodeObject</text>
</a>
</g>
</g>
<!-- Node1&#45;&gt;Node11 -->
<g id="edge10" class="edge">
<title>Node1&#45;&gt;Node11</title>
<path fill="none" stroke="midnightblue" d="M490.34,-250.13C502.83,-248.58 516.13,-246.92 528.77,-245.36"/>
<polygon fill="midnightblue" stroke="midnightblue" points="489.57,-246.7 480.08,-251.4 490.43,-253.64 489.57,-246.7"/>
</g>
<!-- Node12 -->
<g id="node12" class="node">
<title>Node12</title>
<g id="a_node12"><a xlink:href="../../d5/de4/classCEvaluationNodeOperator.html" target="_top" xlink:title=" ">
<polygon fill="white" stroke="black" points="524.5,-190.5 524.5,-209.5 653.5,-209.5 653.5,-190.5 524.5,-190.5"/>
<text text-anchor="middle" x="589" y="-197.5" font-family="FreeSans" font-size="10.00">CEvaluationNodeOperator</text>
</a>
</g>
</g>
<!-- Node1&#45;&gt;Node12 -->
<g id="edge11" class="edge">
<title>Node1&#45;&gt;Node12</title>
<path fill="none" stroke="midnightblue" d="M462.32,-242.9C478.03,-235.15 498.31,-225.77 517,-219 526.72,-215.48 537.39,-212.28 547.45,-209.56"/>
<polygon fill="midnightblue" stroke="midnightblue" points="460.56,-239.86 453.18,-247.47 463.69,-246.12 460.56,-239.86"/>
</g>
<!-- Node13 -->
<g id="node13" class="node">
<title>Node13</title>
<g id="a_node13"><a xlink:href="../../d4/de7/classCEvaluationNodeStructure.html" target="_top" xlink:title=" ">
<polygon fill="white" stroke="black" points="523.5,-152.5 523.5,-171.5 654.5,-171.5 654.5,-152.5 523.5,-152.5"/>
<text text-anchor="middle" x="589" y="-159.5" font-family="FreeSans" font-size="10.00">CEvaluationNodeStructure</text>
</a>
</g>
</g>
<!-- Node1&#45;&gt;Node13 -->
<g id="edge12" class="edge">
<title>Node1&#45;&gt;Node13</title>
<path fill="none" stroke="midnightblue" d="M449.04,-239.79C464.09,-222.45 489.55,-196.16 517,-181 523.93,-177.18 531.66,-174.09 539.41,-171.61"/>
<polygon fill="midnightblue" stroke="midnightblue" points="446.31,-237.6 442.52,-247.5 451.65,-242.12 446.31,-237.6"/>
</g>
<!-- Node14 -->
<g id="node14" class="node">
<title>Node14</title>
<g id="a_node14"><a xlink:href="../../db/da7/classCEvaluationNodeUnit.html" target="_top" xlink:title=" ">
<polygon fill="white" stroke="black" points="534,-114.5 534,-133.5 644,-133.5 644,-114.5 534,-114.5"/>
<text text-anchor="middle" x="589" y="-121.5" font-family="FreeSans" font-size="10.00">CEvaluationNodeUnit</text>
</a>
</g>
</g>
<!-- Node1&#45;&gt;Node14 -->
<g id="edge13" class="edge">
<title>Node1&#45;&gt;Node14</title>
<path fill="none" stroke="midnightblue" d="M443.53,-237.99C455.98,-212.46 481.56,-167.47 517,-143 522.67,-139.08 529.11,-135.98 535.74,-133.51"/>
<polygon fill="midnightblue" stroke="midnightblue" points="440.23,-236.79 439.14,-247.33 446.57,-239.77 440.23,-236.79"/>
</g>
<!-- Node15 -->
<g id="node15" class="node">
<title>Node15</title>
<g id="a_node15"><a xlink:href="../../d3/d1b/classCEvaluationNodeVariable.html" target="_top" xlink:title=" ">
<polygon fill="white" stroke="black" points="525.5,-76.5 525.5,-95.5 652.5,-95.5 652.5,-76.5 525.5,-76.5"/>
<text text-anchor="middle" x="589" y="-83.5" font-family="FreeSans" font-size="10.00">CEvaluationNodeVariable</text>
</a>
</g>
</g>
<!-- Node1&#45;&gt;Node15 -->
<g id="edge14" class="edge">
<title>Node1&#45;&gt;Node15</title>
<path fill="none" stroke="midnightblue" d="M440.08,-237.38C449.54,-204.82 473.02,-139.76 517,-105 521.91,-101.12 527.53,-98.03 533.43,-95.57"/>
<polygon fill="midnightblue" stroke="midnightblue" points="436.59,-236.87 437.31,-247.44 443.34,-238.73 436.59,-236.87"/>
</g>
<!-- Node16 -->
<g id="node16" class="node">
<title>Node16</title>
<g id="a_node16"><a xlink:href="../../df/de0/classCEvaluationNodeVector.html" target="_top" xlink:title=" ">
<polygon fill="white" stroke="black" points="529,-38.5 529,-57.5 649,-57.5 649,-38.5 529,-38.5"/>
<text text-anchor="middle" x="589" y="-45.5" font-family="FreeSans" font-size="10.00">CEvaluationNodeVector</text>
</a>
</g>
</g>
<!-- Node1&#45;&gt;Node16 -->
<g id="edge15" class="edge">
<title>Node1&#45;&gt;Node16</title>
<path fill="none" stroke="midnightblue" d="M437.74,-237.44C444.2,-198.86 464.04,-112.74 517,-67 521.44,-63.16 526.58,-60.09 532.02,-57.63"/>
<polygon fill="midnightblue" stroke="midnightblue" points="434.27,-236.98 436.2,-247.39 441.19,-238.05 434.27,-236.98"/>
</g>
<!-- Node17 -->
<g id="node17" class="node">
<title>Node17</title>
<g id="a_node17"><a xlink:href="../../d7/d6b/classCEvaluationNodeWhiteSpace.html" target="_top" xlink:title=" ">
<polygon fill="white" stroke="black" points="517,-0.5 517,-19.5 661,-19.5 661,-0.5 517,-0.5"/>
<text text-anchor="middle" x="589" y="-7.5" font-family="FreeSans" font-size="10.00">CEvaluationNodeWhiteSpace</text>
</a>
</g>
</g>
<!-- Node1&#45;&gt;Node17 -->
<g id="edge16" class="edge">
<title>Node1&#45;&gt;Node17</title>
<path fill="none" stroke="midnightblue" d="M436.19,-236.97C439.92,-192.67 455.19,-85.84 517,-29 521.23,-25.11 526.16,-22.01 531.42,-19.52"/>
<polygon fill="midnightblue" stroke="midnightblue" points="432.69,-236.81 435.45,-247.04 439.67,-237.32 432.69,-236.81"/>
</g>
<!-- Node2 -->
<g id="node2" class="node">
<title>Node2</title>
<g id="a_node2"><a xlink:href="../../d9/d9d/classCCopasiNode.html" target="_top" xlink:title=" ">
<polygon fill="white" stroke="black" points="216,-247.5 216,-266.5 351,-266.5 351,-247.5 216,-247.5"/>
<text text-anchor="middle" x="283.5" y="-254.5" font-family="FreeSans" font-size="10.00">CCopasiNode&lt; std::string &gt;</text>
</a>
</g>
</g>
<!-- Node2&#45;&gt;Node1 -->
<g id="edge1" class="edge">
<title>Node2&#45;&gt;Node1</title>
<path fill="none" stroke="midnightblue" d="M361.5,-257C370.49,-257 379.42,-257 387.76,-257"/>
<polygon fill="midnightblue" stroke="midnightblue" points="361.36,-253.5 351.36,-257 361.36,-260.5 361.36,-253.5"/>
</g>
<!-- Node3 -->
<g id="node3" class="node">
<title>Node3</title>
<g id="a_node3"><a xlink:href="../../d9/d9d/classCCopasiNode.html" target="_top" xlink:title=" ">
<polygon fill="white" stroke="black" points="0,-247.5 0,-266.5 119,-266.5 119,-247.5 0,-247.5"/>
<text text-anchor="middle" x="59.5" y="-254.5" font-family="FreeSans" font-size="10.00">CCopasiNode&lt; _Data &gt;</text>
</a>
</g>
</g>
<!-- Node3&#45;&gt;Node2 -->
<g id="edge2" class="edge">
<title>Node3&#45;&gt;Node2</title>
<path fill="none" stroke="orange" stroke-dasharray="5,2" d="M129.44,-257C156.91,-257 188.43,-257 215.7,-257"/>
<polygon fill="orange" stroke="orange" points="129.12,-253.5 119.12,-257 129.12,-260.5 129.12,-253.5"/>
<text text-anchor="middle" x="167.5" y="-260" font-family="FreeSans" font-size="10.00"> &lt; std::string &gt;</text>
</g>
</g>
</svg>
        <g id="navigator" transform="translate(0 0)" fill="#404254">
                <rect fill="#f2f5e9" fill-opacity="0.5" stroke="#606060" stroke-width=".5" x="0" y="0" width="60" height="60"/>
                <use id="zoomplus" xlink:href="#zoomPlus" x="17" y="9" onmousedown="handleZoom(evt,'in')"/>
                <use id="zoomminus" xlink:href="#zoomMin" x="42" y="9" onmousedown="handleZoom(evt,'out')"/>
                <use id="reset" xlink:href="#resetDef" x="30" y="36" onmousedown="handleReset()"/>
                <g id="arrowUp" xlink:href="#dirArrow" transform="translate(30 24)" onmousedown="handlePan(0,-1)">
                  <use xlink:href="#rim" fill="#404040">
                        <set attributeName="fill" to="#808080" begin="arrowUp.mouseover" end="arrowUp.mouseout"/>
                  </use>
                  <path fill="none" stroke="white" stroke-width="1.5" d="M0,-3.0v7 M-2.5,-0.5L0,-3.0L2.5,-0.5"/>
                </g>
                <g id="arrowRight" xlink:href="#dirArrow" transform="rotate(90) translate(36 -43)" onmousedown="handlePan(1,0)">
                  <use xlink:href="#rim" fill="#404040">
                        <set attributeName="fill" to="#808080" begin="arrowRight.mouseover" end="arrowRight.mouseout"/>
                  </use>
                  <path fill="none" stroke="white" stroke-width="1.5" d="M0,-3.0v7 M-2.5,-0.5L0,-3.0L2.5,-0.5"/>
                </g>
                <g id="arrowDown" xlink:href="#dirArrow" transform="rotate(180) translate(-30 -48)" onmousedown="handlePan(0,1)">
                  <use xlink:href="#rim" fill="#404040">
                        <set attributeName="fill" to="#808080" begin="arrowDown.mouseover" end="arrowDown.mouseout"/>
                  </use>
                  <path fill="none" stroke="white" stroke-width="1.5" d="M0,-3.0v7 M-2.5,-0.5L0,-3.0L2.5,-0.5"/>
                </g>
                <g id="arrowLeft" xlink:href="#dirArrow" transform="rotate(270) translate(-36 17)" onmousedown="handlePan(-1,0)">
                  <use xlink:href="#rim" fill="#404040">
                        <set attributeName="fill" to="#808080" begin="arrowLeft.mouseover" end="arrowLeft.mouseout"/>
                  </use>
                  <path fill="none" stroke="white" stroke-width="1.5" d="M0,-3.0v7 M-2.5,-0.5L0,-3.0L2.5,-0.5"/>
                </g>
        </g>
        <svg viewBox="0 0 15 15" width="100%" height="30px" preserveAspectRatio="xMaxYMin meet">
         <g id="arrow_out" transform="scale(0.3 0.3)">
          <a xlink:href="classCEvaluationNode__inherit__graph_org.svg" target="_base">
           <rect id="button" ry="5" rx="5" y="6" x="6" height="38" width="38"
                fill="#f2f5e9" fill-opacity="0.5" stroke="#606060" stroke-width="1.0"/>
           <path id="arrow"
             d="M 11.500037,31.436501 C 11.940474,20.09759 22.043105,11.32322 32.158766,21.979434 L 37.068811,17.246167 C 37.068811,17.246167 37.088388,32 37.088388,32 L 22.160133,31.978069 C 22.160133,31.978069 26.997745,27.140456 26.997745,27.140456 C 18.528582,18.264221 13.291696,25.230495 11.500037,31.436501 z"
             style="fill:#404040;"/>
          </a>
         </g>
        </svg>
</svg>
