<?xml version="1.0" encoding="UTF-8" standalone="no"?>
<!DOCTYPE svg PUBLIC "-//W3C//DTD SVG 1.1//EN"
 "http://www.w3.org/Graphics/SVG/1.1/DTD/svg11.dtd">
<!-- Generated by graphviz version 2.43.0 (0)
 -->
<!-- Title: CLGradientBase Pages: 1 -->
<svg width="270pt" height="252pt"
 viewBox="0.00 0.00 270.00 252.00" xmlns="http://www.w3.org/2000/svg" xmlns:xlink="http://www.w3.org/1999/xlink">
<g id="graph0" class="graph" transform="scale(1 1) rotate(0) translate(4 248)">
<title>CLGradientBase</title>
<polygon fill="white" stroke="transparent" points="-4,4 -4,-248 266,-248 266,4 -4,4"/>
<!-- Node1 -->
<g id="node1" class="node">
<title>Node1</title>
<g id="a_node1"><a xlink:title=" ">
<polygon fill="#bfbfbf" stroke="black" points="57,-56.5 57,-75.5 146,-75.5 146,-56.5 57,-56.5"/>
<text text-anchor="middle" x="101.5" y="-63.5" font-family="FreeSans" font-size="10.00">CLGradientBase</text>
</a>
</g>
</g>
<!-- Node7 -->
<g id="node7" class="node">
<title>Node7</title>
<g id="a_node7"><a xlink:href="../../d0/d32/classCLLinearGradient.html" target="_top" xlink:title=" ">
<polygon fill="white" stroke="black" points="0,-0.5 0,-19.5 93,-19.5 93,-0.5 0,-0.5"/>
<text text-anchor="middle" x="46.5" y="-7.5" font-family="FreeSans" font-size="10.00">CLLinearGradient</text>
</a>
</g>
</g>
<!-- Node1&#45;&gt;Node7 -->
<g id="edge6" class="edge">
<title>Node1&#45;&gt;Node7</title>
<path fill="none" stroke="midnightblue" d="M85.21,-49C75.46,-39.43 63.45,-27.64 55.41,-19.75"/>
<polygon fill="midnightblue" stroke="midnightblue" points="82.83,-51.57 92.42,-56.08 87.73,-46.58 82.83,-51.57"/>
</g>
<!-- Node8 -->
<g id="node8" class="node">
<title>Node8</title>
<g id="a_node8"><a xlink:href="../../d7/d79/classCLRadialGradient.html" target="_top" xlink:title=" ">
<polygon fill="white" stroke="black" points="111,-0.5 111,-19.5 204,-19.5 204,-0.5 111,-0.5"/>
<text text-anchor="middle" x="157.5" y="-7.5" font-family="FreeSans" font-size="10.00">CLRadialGradient</text>
</a>
</g>
</g>
<!-- Node1&#45;&gt;Node8 -->
<g id="edge7" class="edge">
<title>Node1&#45;&gt;Node8</title>
<path fill="none" stroke="midnightblue" d="M117.83,-49.25C127.76,-39.67 140.09,-27.79 148.34,-19.83"/>
<polygon fill="midnightblue" stroke="midnightblue" points="115.27,-46.86 110.5,-56.32 120.13,-51.9 115.27,-46.86"/>
</g>
<!-- Node2 -->
<g id="node2" class="node">
<title>Node2</title>
<g id="a_node2"><a xlink:href="../../d7/df9/classCLBase.html" target="_top" xlink:title=" ">
<polygon fill="white" stroke="black" points="32.5,-112.5 32.5,-131.5 84.5,-131.5 84.5,-112.5 32.5,-112.5"/>
<text text-anchor="middle" x="58.5" y="-119.5" font-family="FreeSans" font-size="10.00">CLBase</text>
</a>
</g>
</g>
<!-- Node2&#45;&gt;Node1 -->
<g id="edge1" class="edge">
<title>Node2&#45;&gt;Node1</title>
<path fill="none" stroke="midnightblue" d="M71.92,-104.14C79.41,-94.74 88.44,-83.4 94.53,-75.75"/>
<polygon fill="midnightblue" stroke="midnightblue" points="69.09,-102.08 65.6,-112.08 74.57,-106.44 69.09,-102.08"/>
</g>
<!-- Node3 -->
<g id="node3" class="node">
<title>Node3</title>
<g id="a_node3"><a xlink:href="../../d3/db9/classCDataContainer.html" target="_top" xlink:title=" ">
<polygon fill="white" stroke="black" points="103,-112.5 103,-131.5 188,-131.5 188,-112.5 103,-112.5"/>
<text text-anchor="middle" x="145.5" y="-119.5" font-family="FreeSans" font-size="10.00">CDataContainer</text>
</a>
</g>
</g>
<!-- Node3&#45;&gt;Node1 -->
<g id="edge2" class="edge">
<title>Node3&#45;&gt;Node1</title>
<path fill="none" stroke="midnightblue" d="M131.77,-104.14C124.1,-94.74 114.87,-83.4 108.63,-75.75"/>
<polygon fill="midnightblue" stroke="midnightblue" points="129.2,-106.54 138.23,-112.08 134.63,-102.12 129.2,-106.54"/>
</g>
<!-- Node4 -->
<g id="node4" class="node">
<title>Node4</title>
<g id="a_node4"><a xlink:href="../../d1/d6b/classCDataObject.html" target="_top" xlink:title=" ">
<polygon fill="white" stroke="black" points="109.5,-168.5 109.5,-187.5 181.5,-187.5 181.5,-168.5 109.5,-168.5"/>
<text text-anchor="middle" x="145.5" y="-175.5" font-family="FreeSans" font-size="10.00">CDataObject</text>
</a>
</g>
</g>
<!-- Node4&#45;&gt;Node3 -->
<g id="edge3" class="edge">
<title>Node4&#45;&gt;Node3</title>
<path fill="none" stroke="midnightblue" d="M145.5,-157.8C145.5,-148.91 145.5,-138.78 145.5,-131.75"/>
<polygon fill="midnightblue" stroke="midnightblue" points="142,-158.08 145.5,-168.08 149,-158.08 142,-158.08"/>
</g>
<!-- Node5 -->
<g id="node5" class="node">
<title>Node5</title>
<g id="a_node5"><a xlink:href="../../df/dfa/classCObjectInterface.html" target="_top" xlink:title=" ">
<polygon fill="white" stroke="black" points="40.5,-224.5 40.5,-243.5 130.5,-243.5 130.5,-224.5 40.5,-224.5"/>
<text text-anchor="middle" x="85.5" y="-231.5" font-family="FreeSans" font-size="10.00">CObjectInterface</text>
</a>
</g>
</g>
<!-- Node5&#45;&gt;Node4 -->
<g id="edge4" class="edge">
<title>Node5&#45;&gt;Node4</title>
<path fill="none" stroke="midnightblue" d="M102.68,-217.54C113.38,-207.91 126.76,-195.87 135.68,-187.83"/>
<polygon fill="midnightblue" stroke="midnightblue" points="100.23,-215.03 95.14,-224.32 104.91,-220.24 100.23,-215.03"/>
</g>
<!-- Node6 -->
<g id="node6" class="node">
<title>Node6</title>
<g id="a_node6"><a xlink:href="../../d8/d53/classCUndoObjectInterface.html" target="_top" xlink:title=" ">
<polygon fill="white" stroke="black" points="149,-224.5 149,-243.5 262,-243.5 262,-224.5 149,-224.5"/>
<text text-anchor="middle" x="205.5" y="-231.5" font-family="FreeSans" font-size="10.00">CUndoObjectInterface</text>
</a>
</g>
</g>
<!-- Node6&#45;&gt;Node4 -->
<g id="edge5" class="edge">
<title>Node6&#45;&gt;Node4</title>
<path fill="none" stroke="midnightblue" d="M188.32,-217.54C177.62,-207.91 164.24,-195.87 155.32,-187.83"/>
<polygon fill="midnightblue" stroke="midnightblue" points="186.09,-220.24 195.86,-224.32 190.77,-215.03 186.09,-220.24"/>
</g>
</g>
</svg>
