<?xml version="1.0" encoding="UTF-8" standalone="no"?>
<!DOCTYPE svg PUBLIC "-//W3C//DTD SVG 1.1//EN"
 "http://www.w3.org/Graphics/SVG/1.1/DTD/svg11.dtd">
<!-- Generated by graphviz version 2.43.0 (0)
 -->
<!-- Title: CPointerContext&lt; Data &gt; Pages: 1 -->
<!--zoomable 138 -->
<svg id="main" version="1.1" xmlns="http://www.w3.org/2000/svg" xmlns:xlink="http://www.w3.org/1999/xlink" xml:space="preserve" onload="init(evt)">
<style type="text/css"><![CDATA[
.edge:hover path { stroke: red; }
.edge:hover polygon { stroke: red; fill: red; }
]]></style>
<script type="text/javascript"><![CDATA[
var edges = document.getElementsByTagName('g');
if (edges && edges.length) {
  for (var i=0;i<edges.length;i++) {
    if (edges[i].id.substr(0,4)=='edge') {
      edges[i].setAttribute('class','edge');
    }
  }
}
]]></script>
        <defs>
                <circle id="rim" cx="0" cy="0" r="7"/>
                <circle id="rim2" cx="0" cy="0" r="3.5"/>
                <g id="zoomPlus">
                        <use xlink:href="#rim" fill="#404040">
                                <set attributeName="fill" to="#808080" begin="zoomplus.mouseover" end="zoomplus.mouseout"/>
                        </use>
                        <path d="M-4,0h8M0,-4v8" fill="none" stroke="white" stroke-width="1.5" pointer-events="none"/>
                </g>
                <g id="zoomMin">
                        <use xlink:href="#rim" fill="#404040">
                                <set attributeName="fill" to="#808080" begin="zoomminus.mouseover" end="zoomminus.mouseout"/>
                        </use>
                        <path d="M-4,0h8" fill="none" stroke="white" stroke-width="1.5" pointer-events="none"/>
                </g>
                <g id="dirArrow">
                        <path fill="none" stroke="white" stroke-width="1.5" d="M0,-3.0v7 M-2.5,-0.5L0,-3.0L2.5,-0.5"/>
                </g>
               <g id="resetDef">
                       <use xlink:href="#rim2" fill="#404040">
                               <set attributeName="fill" to="#808080" begin="reset.mouseover" end="reset.mouseout"/>
                       </use>
               </g>
        </defs>

<script type="text/javascript">
var viewWidth = 1110;
var viewHeight = 138;
var sectionId = 'dynsection-0';
</script>
<script xlink:href="../../svgpan.js"/>
<svg id="graph" class="graph">
<g id="viewport">
<title>CPointerContext&lt; Data &gt;</title>
<polygon fill="white" stroke="transparent" points="-4,4 -4,-133.5 1106,-133.5 1106,4 -4,4"/>
<!-- Node1 -->
<g id="node1" class="node">
<title>Node1</title>
<g id="a_node1"><a xlink:title=" ">
<polygon fill="#bfbfbf" stroke="black" points="311,-38.5 311,-57.5 435,-57.5 435,-38.5 311,-38.5"/>
<text text-anchor="middle" x="373" y="-45.5" font-family="FreeSans" font-size="10.00">CPointerContext&lt; Data &gt;</text>
</a>
</g>
</g>
<!-- Node4 -->
<g id="node4" class="node">
<title>Node4</title>
<g id="a_node4"><a xlink:href="../../d1/da0/classCPointerContextWithParent.html" target="_top" xlink:title=" ">
<polygon fill="white" stroke="black" points="579,-77 579,-107 714,-107 714,-77 579,-77"/>
<text text-anchor="start" x="587" y="-95" font-family="FreeSans" font-size="10.00">CPointerContextWithParent</text>
<text text-anchor="middle" x="646.5" y="-84" font-family="FreeSans" font-size="10.00">&lt; Data &gt;</text>
</a>
</g>
</g>
<!-- Node1&#45;&gt;Node4 -->
<g id="edge3" class="edge">
<title>Node1&#45;&gt;Node4</title>
<path fill="none" stroke="midnightblue" d="M432.75,-59.41C439.57,-60.66 446.43,-61.88 453,-63 494.65,-70.09 541.52,-77.17 578.58,-82.56"/>
<polygon fill="midnightblue" stroke="midnightblue" points="433.3,-55.95 422.83,-57.57 432.03,-62.84 433.3,-55.95"/>
</g>
<!-- Node7 -->
<g id="node7" class="node">
<title>Node7</title>
<g id="a_node7"><a xlink:href="../../d4/d52/classCPointerContext.html" target="_top" xlink:title=" ">
<polygon fill="white" stroke="black" points="560,-38.5 560,-57.5 733,-57.5 733,-38.5 560,-38.5"/>
<text text-anchor="middle" x="646.5" y="-45.5" font-family="FreeSans" font-size="10.00">CPointerContext&lt; CMathContainer &gt;</text>
</a>
</g>
</g>
<!-- Node1&#45;&gt;Node7 -->
<g id="edge7" class="edge">
<title>Node1&#45;&gt;Node7</title>
<path fill="none" stroke="orange" stroke-dasharray="5,2" d="M445.42,-48C480.47,-48 522.96,-48 559.75,-48"/>
<polygon fill="orange" stroke="orange" points="445.27,-44.5 435.27,-48 445.27,-51.5 445.27,-44.5"/>
<text text-anchor="middle" x="497.5" y="-51" font-family="FreeSans" font-size="10.00"> &lt; CMathContainer &gt;</text>
</g>
<!-- Node9 -->
<g id="node9" class="node">
<title>Node9</title>
<g id="a_node9"><a xlink:href="../../d4/d52/classCPointerContext.html" target="_top" xlink:title=" ">
<polygon fill="white" stroke="black" points="573.5,-0.5 573.5,-19.5 719.5,-19.5 719.5,-0.5 573.5,-0.5"/>
<text text-anchor="middle" x="646.5" y="-7.5" font-family="FreeSans" font-size="10.00">CPointerContext&lt; CRandom &gt;</text>
</a>
</g>
</g>
<!-- Node1&#45;&gt;Node9 -->
<g id="edge9" class="edge">
<title>Node1&#45;&gt;Node9</title>
<path fill="none" stroke="orange" stroke-dasharray="5,2" d="M431.86,-36.54C438.97,-35.27 446.14,-34.06 453,-33 492.58,-26.88 536.96,-21.48 573.12,-17.46"/>
<polygon fill="orange" stroke="orange" points="430.74,-33.19 421.53,-38.43 432,-40.07 430.74,-33.19"/>
<text text-anchor="middle" x="497.5" y="-36" font-family="FreeSans" font-size="10.00"> &lt; CRandom &gt;</text>
</g>
<!-- Node2 -->
<g id="node2" class="node">
<title>Node2</title>
<g id="a_node2"><a xlink:href="../../d3/d56/classCContext.html" target="_top" xlink:title=" ">
<polygon fill="white" stroke="black" points="175,-38.5 175,-57.5 274,-57.5 274,-38.5 175,-38.5"/>
<text text-anchor="middle" x="224.5" y="-45.5" font-family="FreeSans" font-size="10.00">CContext&lt; Data * &gt;</text>
</a>
</g>
</g>
<!-- Node2&#45;&gt;Node1 -->
<g id="edge1" class="edge">
<title>Node2&#45;&gt;Node1</title>
<path fill="none" stroke="midnightblue" d="M284.38,-48C293.12,-48 302.14,-48 310.92,-48"/>
<polygon fill="midnightblue" stroke="midnightblue" points="284.28,-44.5 274.28,-48 284.28,-51.5 284.28,-44.5"/>
</g>
<!-- Node3 -->
<g id="node3" class="node">
<title>Node3</title>
<g id="a_node3"><a xlink:href="../../d3/d56/classCContext.html" target="_top" xlink:title=" ">
<polygon fill="white" stroke="black" points="0,-38.5 0,-57.5 93,-57.5 93,-38.5 0,-38.5"/>
<text text-anchor="middle" x="46.5" y="-45.5" font-family="FreeSans" font-size="10.00">CContext&lt; Data &gt;</text>
</a>
</g>
</g>
<!-- Node3&#45;&gt;Node2 -->
<g id="edge2" class="edge">
<title>Node3&#45;&gt;Node2</title>
<path fill="none" stroke="orange" stroke-dasharray="5,2" d="M103.56,-48C126.48,-48 152.76,-48 174.87,-48"/>
<polygon fill="orange" stroke="orange" points="103.28,-44.5 93.28,-48 103.28,-51.5 103.28,-44.5"/>
<text text-anchor="middle" x="134" y="-51" font-family="FreeSans" font-size="10.00"> &lt; Data * &gt;</text>
</g>
<!-- Node5 -->
<g id="node5" class="node">
<title>Node5</title>
<g id="a_node5"><a xlink:href="../../d0/df3/classCPointerMathContext.html" target="_top" xlink:title=" ">
<polygon fill="white" stroke="black" points="993,-99 993,-129 1102,-129 1102,-99 993,-99"/>
<text text-anchor="start" x="1001" y="-117" font-family="FreeSans" font-size="10.00">CPointerMathContext</text>
<text text-anchor="middle" x="1047.5" y="-106" font-family="FreeSans" font-size="10.00">&lt; COptProblem &gt;</text>
</a>
</g>
</g>
<!-- Node4&#45;&gt;Node5 -->
<g id="edge4" class="edge">
<title>Node4&#45;&gt;Node5</title>
<path fill="none" stroke="midnightblue" d="M720.67,-109.04C736.84,-112.22 753.93,-115.12 770,-117 860.51,-127.58 883.98,-125.44 975,-121 980.73,-120.72 986.71,-120.31 992.66,-119.84"/>
<polygon fill="midnightblue" stroke="midnightblue" points="721.24,-105.59 710.75,-107.04 719.86,-112.45 721.24,-105.59"/>
</g>
<!-- Node6 -->
<g id="node6" class="node">
<title>Node6</title>
<g id="a_node6"><a xlink:href="../../d0/df3/classCPointerMathContext.html" target="_top" xlink:title=" ">
<polygon fill="white" stroke="black" points="770,-77 770,-107 879,-107 879,-77 770,-77"/>
<text text-anchor="start" x="778" y="-95" font-family="FreeSans" font-size="10.00">CPointerMathContext</text>
<text text-anchor="middle" x="824.5" y="-84" font-family="FreeSans" font-size="10.00">&lt; Data &gt;</text>
</a>
</g>
</g>
<!-- Node4&#45;&gt;Node6 -->
<g id="edge5" class="edge">
<title>Node4&#45;&gt;Node6</title>
<path fill="none" stroke="midnightblue" d="M724.06,-92C739.46,-92 755.32,-92 769.74,-92"/>
<polygon fill="midnightblue" stroke="midnightblue" points="724.04,-88.5 714.04,-92 724.04,-95.5 724.04,-88.5"/>
</g>
<!-- Node6&#45;&gt;Node5 -->
<g id="edge6" class="edge">
<title>Node6&#45;&gt;Node5</title>
<path fill="none" stroke="orange" stroke-dasharray="5,2" d="M889.23,-98.34C922.05,-101.61 961.62,-105.55 992.86,-108.66"/>
<polygon fill="orange" stroke="orange" points="889.58,-94.86 879.28,-97.35 888.88,-101.83 889.58,-94.86"/>
<text text-anchor="middle" x="936" y="-109" font-family="FreeSans" font-size="10.00"> &lt; COptProblem &gt;</text>
</g>
<!-- Node8 -->
<g id="node8" class="node">
<title>Node8</title>
<g id="a_node8"><a xlink:href="../../d2/d0f/classCMathContext.html" target="_top" xlink:title=" ">
<polygon fill="white" stroke="black" points="785.5,-38.5 785.5,-57.5 863.5,-57.5 863.5,-38.5 785.5,-38.5"/>
<text text-anchor="middle" x="824.5" y="-45.5" font-family="FreeSans" font-size="10.00">CMathContext</text>
</a>
</g>
</g>
<!-- Node7&#45;&gt;Node8 -->
<g id="edge8" class="edge">
<title>Node7&#45;&gt;Node8</title>
<path fill="none" stroke="midnightblue" d="M743.5,-48C758.37,-48 772.92,-48 785.46,-48"/>
<polygon fill="midnightblue" stroke="midnightblue" points="743.18,-44.5 733.18,-48 743.18,-51.5 743.18,-44.5"/>
</g>
</g>
</svg>
        <g id="navigator" transform="translate(0 0)" fill="#404254">
                <rect fill="#f2f5e9" fill-opacity="0.5" stroke="#606060" stroke-width=".5" x="0" y="0" width="60" height="60"/>
                <use id="zoomplus" xlink:href="#zoomPlus" x="17" y="9" onmousedown="handleZoom(evt,'in')"/>
                <use id="zoomminus" xlink:href="#zoomMin" x="42" y="9" onmousedown="handleZoom(evt,'out')"/>
                <use id="reset" xlink:href="#resetDef" x="30" y="36" onmousedown="handleReset()"/>
                <g id="arrowUp" xlink:href="#dirArrow" transform="translate(30 24)" onmousedown="handlePan(0,-1)">
                  <use xlink:href="#rim" fill="#404040">
                        <set attributeName="fill" to="#808080" begin="arrowUp.mouseover" end="arrowUp.mouseout"/>
                  </use>
                  <path fill="none" stroke="white" stroke-width="1.5" d="M0,-3.0v7 M-2.5,-0.5L0,-3.0L2.5,-0.5"/>
                </g>
                <g id="arrowRight" xlink:href="#dirArrow" transform="rotate(90) translate(36 -43)" onmousedown="handlePan(1,0)">
                  <use xlink:href="#rim" fill="#404040">
                        <set attributeName="fill" to="#808080" begin="arrowRight.mouseover" end="arrowRight.mouseout"/>
                  </use>
                  <path fill="none" stroke="white" stroke-width="1.5" d="M0,-3.0v7 M-2.5,-0.5L0,-3.0L2.5,-0.5"/>
                </g>
                <g id="arrowDown" xlink:href="#dirArrow" transform="rotate(180) translate(-30 -48)" onmousedown="handlePan(0,1)">
                  <use xlink:href="#rim" fill="#404040">
                        <set attributeName="fill" to="#808080" begin="arrowDown.mouseover" end="arrowDown.mouseout"/>
                  </use>
                  <path fill="none" stroke="white" stroke-width="1.5" d="M0,-3.0v7 M-2.5,-0.5L0,-3.0L2.5,-0.5"/>
                </g>
                <g id="arrowLeft" xlink:href="#dirArrow" transform="rotate(270) translate(-36 17)" onmousedown="handlePan(-1,0)">
                  <use xlink:href="#rim" fill="#404040">
                        <set attributeName="fill" to="#808080" begin="arrowLeft.mouseover" end="arrowLeft.mouseout"/>
                  </use>
                  <path fill="none" stroke="white" stroke-width="1.5" d="M0,-3.0v7 M-2.5,-0.5L0,-3.0L2.5,-0.5"/>
                </g>
        </g>
        <svg viewBox="0 0 15 15" width="100%" height="30px" preserveAspectRatio="xMaxYMin meet">
         <g id="arrow_out" transform="scale(0.3 0.3)">
          <a xlink:href="classCPointerContext__inherit__graph_org.svg" target="_base">
           <rect id="button" ry="5" rx="5" y="6" x="6" height="38" width="38"
                fill="#f2f5e9" fill-opacity="0.5" stroke="#606060" stroke-width="1.0"/>
           <path id="arrow"
             d="M 11.500037,31.436501 C 11.940474,20.09759 22.043105,11.32322 32.158766,21.979434 L 37.068811,17.246167 C 37.068811,17.246167 37.088388,32 37.088388,32 L 22.160133,31.978069 C 22.160133,31.978069 26.997745,27.140456 26.997745,27.140456 C 18.528582,18.264221 13.291696,25.230495 11.500037,31.436501 z"
             style="fill:#404040;"/>
          </a>
         </g>
        </svg>
</svg>
