<?xml version="1.0" encoding="UTF-8" standalone="no"?>
<!DOCTYPE svg PUBLIC "-//W3C//DTD SVG 1.1//EN"
 "http://www.w3.org/Graphics/SVG/1.1/DTD/svg11.dtd">
<!-- Generated by graphviz version 2.43.0 (0)
 -->
<!-- Title: COutputDefinitionVector Pages: 1 -->
<svg width="300pt" height="380pt"
 viewBox="0.00 0.00 299.50 380.00" xmlns="http://www.w3.org/2000/svg" xmlns:xlink="http://www.w3.org/1999/xlink">
<g id="graph0" class="graph" transform="scale(1 1) rotate(0) translate(4 376)">
<title>COutputDefinitionVector</title>
<polygon fill="white" stroke="transparent" points="-4,4 -4,-376 295.5,-376 295.5,4 -4,4"/>
<!-- Node1 -->
<g id="node1" class="node">
<title>Node1</title>
<g id="a_node1"><a xlink:title=" ">
<polygon fill="#bfbfbf" stroke="black" points="27.5,-0.5 27.5,-19.5 148.5,-19.5 148.5,-0.5 27.5,-0.5"/>
<text text-anchor="middle" x="88" y="-7.5" font-family="FreeSans" font-size="10.00">COutputDefinitionVector</text>
</a>
</g>
</g>
<!-- Node2 -->
<g id="node2" class="node">
<title>Node2</title>
<g id="a_node2"><a xlink:href="../../dd/d24/classCDataVectorN.html" target="_top" xlink:title=" ">
<polygon fill="white" stroke="black" points="0,-57.5 0,-76.5 176,-76.5 176,-57.5 0,-57.5"/>
<text text-anchor="middle" x="88" y="-64.5" font-family="FreeSans" font-size="10.00">CDataVectorN&lt; CPlotSpecification &gt;</text>
</a>
</g>
</g>
<!-- Node2&#45;&gt;Node1 -->
<g id="edge1" class="edge">
<title>Node2&#45;&gt;Node1</title>
<path fill="none" stroke="midnightblue" d="M88,-47.12C88,-37.82 88,-27.06 88,-19.71"/>
<polygon fill="midnightblue" stroke="midnightblue" points="84.5,-47.41 88,-57.41 91.5,-47.41 84.5,-47.41"/>
</g>
<!-- Node3 -->
<g id="node3" class="node">
<title>Node3</title>
<g id="a_node3"><a xlink:href="../../db/d30/classCDataVector.html" target="_top" xlink:title=" ">
<polygon fill="white" stroke="black" points="26,-181.5 26,-200.5 142,-200.5 142,-181.5 26,-181.5"/>
<text text-anchor="middle" x="84" y="-188.5" font-family="FreeSans" font-size="10.00">CDataVector&lt; CType &gt;</text>
</a>
</g>
</g>
<!-- Node3&#45;&gt;Node2 -->
<g id="edge2" class="edge">
<title>Node3&#45;&gt;Node2</title>
<path fill="none" stroke="midnightblue" d="M84.62,-171.19C85.5,-144.4 87.07,-96.31 87.71,-76.69"/>
<polygon fill="midnightblue" stroke="midnightblue" points="81.12,-171.12 84.29,-181.23 88.11,-171.35 81.12,-171.12"/>
</g>
<!-- Node9 -->
<g id="node9" class="node">
<title>Node9</title>
<g id="a_node9"><a xlink:href="../../dd/d24/classCDataVectorN.html" target="_top" xlink:title=" ">
<polygon fill="white" stroke="black" points="100,-124.5 100,-143.5 224,-143.5 224,-124.5 100,-124.5"/>
<text text-anchor="middle" x="162" y="-131.5" font-family="FreeSans" font-size="10.00">CDataVectorN&lt; CType &gt;</text>
</a>
</g>
</g>
<!-- Node3&#45;&gt;Node9 -->
<g id="edge9" class="edge">
<title>Node3&#45;&gt;Node9</title>
<path fill="none" stroke="midnightblue" d="M104.51,-175.54C118.95,-165.35 137.79,-152.07 149.9,-143.53"/>
<polygon fill="midnightblue" stroke="midnightblue" points="102.34,-172.78 96.19,-181.41 106.38,-178.5 102.34,-172.78"/>
</g>
<!-- Node4 -->
<g id="node4" class="node">
<title>Node4</title>
<g id="a_node4"><a xlink:title=" ">
<polygon fill="white" stroke="#bfbfbf" points="30,-238.5 30,-257.5 114,-257.5 114,-238.5 30,-238.5"/>
<text text-anchor="middle" x="72" y="-245.5" font-family="FreeSans" font-size="10.00">std::vector&lt; T &gt;</text>
</a>
</g>
</g>
<!-- Node4&#45;&gt;Node3 -->
<g id="edge3" class="edge">
<title>Node4&#45;&gt;Node3</title>
<path fill="none" stroke="darkgreen" d="M76.05,-228.42C78.1,-219.05 80.48,-208.14 82.1,-200.71"/>
<polygon fill="darkgreen" stroke="darkgreen" points="72.59,-227.89 73.88,-238.41 79.43,-229.38 72.59,-227.89"/>
</g>
<!-- Node5 -->
<g id="node5" class="node">
<title>Node5</title>
<g id="a_node5"><a xlink:href="../../d3/db9/classCDataContainer.html" target="_top" xlink:title=" ">
<polygon fill="white" stroke="black" points="132.5,-238.5 132.5,-257.5 217.5,-257.5 217.5,-238.5 132.5,-238.5"/>
<text text-anchor="middle" x="175" y="-245.5" font-family="FreeSans" font-size="10.00">CDataContainer</text>
</a>
</g>
</g>
<!-- Node5&#45;&gt;Node3 -->
<g id="edge4" class="edge">
<title>Node5&#45;&gt;Node3</title>
<path fill="none" stroke="midnightblue" d="M152.02,-233.11C135.05,-222.86 112.51,-209.23 98.12,-200.53"/>
<polygon fill="midnightblue" stroke="midnightblue" points="150.41,-236.23 160.78,-238.41 154.03,-230.24 150.41,-236.23"/>
</g>
<!-- Node6 -->
<g id="node6" class="node">
<title>Node6</title>
<g id="a_node6"><a xlink:href="../../d1/d6b/classCDataObject.html" target="_top" xlink:title=" ">
<polygon fill="white" stroke="black" points="139,-295.5 139,-314.5 211,-314.5 211,-295.5 139,-295.5"/>
<text text-anchor="middle" x="175" y="-302.5" font-family="FreeSans" font-size="10.00">CDataObject</text>
</a>
</g>
</g>
<!-- Node6&#45;&gt;Node5 -->
<g id="edge5" class="edge">
<title>Node6&#45;&gt;Node5</title>
<path fill="none" stroke="midnightblue" d="M175,-285.12C175,-275.82 175,-265.06 175,-257.71"/>
<polygon fill="midnightblue" stroke="midnightblue" points="171.5,-285.41 175,-295.41 178.5,-285.41 171.5,-285.41"/>
</g>
<!-- Node7 -->
<g id="node7" class="node">
<title>Node7</title>
<g id="a_node7"><a xlink:href="../../df/dfa/classCObjectInterface.html" target="_top" xlink:title=" ">
<polygon fill="white" stroke="black" points="70,-352.5 70,-371.5 160,-371.5 160,-352.5 70,-352.5"/>
<text text-anchor="middle" x="115" y="-359.5" font-family="FreeSans" font-size="10.00">CObjectInterface</text>
</a>
</g>
</g>
<!-- Node7&#45;&gt;Node6 -->
<g id="edge6" class="edge">
<title>Node7&#45;&gt;Node6</title>
<path fill="none" stroke="midnightblue" d="M132,-345.42C142.85,-335.47 156.52,-322.94 165.49,-314.71"/>
<polygon fill="midnightblue" stroke="midnightblue" points="129.38,-343.07 124.38,-352.41 134.11,-348.23 129.38,-343.07"/>
</g>
<!-- Node8 -->
<g id="node8" class="node">
<title>Node8</title>
<g id="a_node8"><a xlink:href="../../d8/d53/classCUndoObjectInterface.html" target="_top" xlink:title=" ">
<polygon fill="white" stroke="black" points="178.5,-352.5 178.5,-371.5 291.5,-371.5 291.5,-352.5 178.5,-352.5"/>
<text text-anchor="middle" x="235" y="-359.5" font-family="FreeSans" font-size="10.00">CUndoObjectInterface</text>
</a>
</g>
</g>
<!-- Node8&#45;&gt;Node6 -->
<g id="edge7" class="edge">
<title>Node8&#45;&gt;Node6</title>
<path fill="none" stroke="midnightblue" d="M218,-345.42C207.15,-335.47 193.48,-322.94 184.51,-314.71"/>
<polygon fill="midnightblue" stroke="midnightblue" points="215.89,-348.23 225.62,-352.41 220.62,-343.07 215.89,-348.23"/>
</g>
<!-- Node9&#45;&gt;Node2 -->
<g id="edge8" class="edge">
<title>Node9&#45;&gt;Node2</title>
<path fill="none" stroke="orange" stroke-dasharray="5,2" d="M144.19,-117.36C129.64,-104.58 109.62,-86.99 97.82,-76.63"/>
<polygon fill="orange" stroke="orange" points="142.2,-120.26 152.02,-124.23 146.82,-115 142.2,-120.26"/>
<text text-anchor="middle" x="179.5" y="-98" font-family="FreeSans" font-size="10.00"> &lt; CPlotSpecification &gt;</text>
</g>
</g>
</svg>
