<?xml version="1.0" encoding="UTF-8" standalone="no"?>
<!DOCTYPE svg PUBLIC "-//W3C//DTD SVG 1.1//EN"
 "http://www.w3.org/Graphics/SVG/1.1/DTD/svg11.dtd">
<!-- Generated by graphviz version 2.43.0 (0)
 -->
<!-- Title: CModelEntity Pages: 1 -->
<svg width="318pt" height="252pt"
 viewBox="0.00 0.00 318.00 252.00" xmlns="http://www.w3.org/2000/svg" xmlns:xlink="http://www.w3.org/1999/xlink">
<g id="graph0" class="graph" transform="scale(1 1) rotate(0) translate(4 248)">
<title>CModelEntity</title>
<polygon fill="white" stroke="transparent" points="-4,4 -4,-248 314,-248 314,4 -4,4"/>
<!-- Node1 -->
<g id="node1" class="node">
<title>Node1</title>
<g id="a_node1"><a xlink:title=" ">
<polygon fill="#bfbfbf" stroke="black" points="122,-56.5 122,-75.5 196,-75.5 196,-56.5 122,-56.5"/>
<text text-anchor="middle" x="159" y="-63.5" font-family="FreeSans" font-size="10.00">CModelEntity</text>
</a>
</g>
</g>
<!-- Node7 -->
<g id="node7" class="node">
<title>Node7</title>
<g id="a_node7"><a xlink:href="../../d4/dd4/classCCompartment.html" target="_top" xlink:title=" ">
<polygon fill="white" stroke="black" points="0,-0.5 0,-19.5 82,-19.5 82,-0.5 0,-0.5"/>
<text text-anchor="middle" x="41" y="-7.5" font-family="FreeSans" font-size="10.00">CCompartment</text>
</a>
</g>
</g>
<!-- Node1&#45;&gt;Node7 -->
<g id="edge6" class="edge">
<title>Node1&#45;&gt;Node7</title>
<path fill="none" stroke="midnightblue" d="M131.1,-52.23C109.03,-42.13 78.82,-28.31 59.61,-19.52"/>
<polygon fill="midnightblue" stroke="midnightblue" points="129.75,-55.46 140.3,-56.44 132.67,-49.1 129.75,-55.46"/>
</g>
<!-- Node8 -->
<g id="node8" class="node">
<title>Node8</title>
<g id="a_node8"><a xlink:href="../../dc/d44/classCMetab.html" target="_top" xlink:title=" ">
<polygon fill="white" stroke="black" points="100,-0.5 100,-19.5 150,-19.5 150,-0.5 100,-0.5"/>
<text text-anchor="middle" x="125" y="-7.5" font-family="FreeSans" font-size="10.00">CMetab</text>
</a>
</g>
</g>
<!-- Node1&#45;&gt;Node8 -->
<g id="edge7" class="edge">
<title>Node1&#45;&gt;Node8</title>
<path fill="none" stroke="midnightblue" d="M148.02,-47.57C142.17,-38.27 135.23,-27.25 130.51,-19.75"/>
<polygon fill="midnightblue" stroke="midnightblue" points="145.1,-49.49 153.39,-56.08 151.02,-45.76 145.1,-49.49"/>
</g>
<!-- Node9 -->
<g id="node9" class="node">
<title>Node9</title>
<g id="a_node9"><a xlink:href="../../d4/d04/classCModel.html" target="_top" xlink:title=" ">
<polygon fill="white" stroke="black" points="168,-0.5 168,-19.5 218,-19.5 218,-0.5 168,-0.5"/>
<text text-anchor="middle" x="193" y="-7.5" font-family="FreeSans" font-size="10.00">CModel</text>
</a>
</g>
</g>
<!-- Node1&#45;&gt;Node9 -->
<g id="edge8" class="edge">
<title>Node1&#45;&gt;Node9</title>
<path fill="none" stroke="midnightblue" d="M169.98,-47.57C175.83,-38.27 182.77,-27.25 187.49,-19.75"/>
<polygon fill="midnightblue" stroke="midnightblue" points="166.98,-45.76 164.61,-56.08 172.9,-49.49 166.98,-45.76"/>
</g>
<!-- Node10 -->
<g id="node10" class="node">
<title>Node10</title>
<g id="a_node10"><a xlink:href="../../d7/dec/classCModelValue.html" target="_top" xlink:title=" ">
<polygon fill="white" stroke="black" points="236,-0.5 236,-19.5 310,-19.5 310,-0.5 236,-0.5"/>
<text text-anchor="middle" x="273" y="-7.5" font-family="FreeSans" font-size="10.00">CModelValue</text>
</a>
</g>
</g>
<!-- Node1&#45;&gt;Node10 -->
<g id="edge9" class="edge">
<title>Node1&#45;&gt;Node10</title>
<path fill="none" stroke="midnightblue" d="M186.24,-52.1C207.54,-42.01 236.54,-28.27 255.02,-19.52"/>
<polygon fill="midnightblue" stroke="midnightblue" points="184.6,-49 177.06,-56.44 187.6,-55.33 184.6,-49"/>
</g>
<!-- Node2 -->
<g id="node2" class="node">
<title>Node2</title>
<g id="a_node2"><a xlink:href="../../d3/db9/classCDataContainer.html" target="_top" xlink:title=" ">
<polygon fill="white" stroke="black" points="68.5,-112.5 68.5,-131.5 153.5,-131.5 153.5,-112.5 68.5,-112.5"/>
<text text-anchor="middle" x="111" y="-119.5" font-family="FreeSans" font-size="10.00">CDataContainer</text>
</a>
</g>
</g>
<!-- Node2&#45;&gt;Node1 -->
<g id="edge1" class="edge">
<title>Node2&#45;&gt;Node1</title>
<path fill="none" stroke="midnightblue" d="M125.73,-104.43C134.14,-94.97 144.35,-83.48 151.22,-75.75"/>
<polygon fill="midnightblue" stroke="midnightblue" points="122.95,-102.28 118.93,-112.08 128.19,-106.93 122.95,-102.28"/>
</g>
<!-- Node3 -->
<g id="node3" class="node">
<title>Node3</title>
<g id="a_node3"><a xlink:href="../../d1/d6b/classCDataObject.html" target="_top" xlink:title=" ">
<polygon fill="white" stroke="black" points="75,-168.5 75,-187.5 147,-187.5 147,-168.5 75,-168.5"/>
<text text-anchor="middle" x="111" y="-175.5" font-family="FreeSans" font-size="10.00">CDataObject</text>
</a>
</g>
</g>
<!-- Node3&#45;&gt;Node2 -->
<g id="edge2" class="edge">
<title>Node3&#45;&gt;Node2</title>
<path fill="none" stroke="midnightblue" d="M111,-157.8C111,-148.91 111,-138.78 111,-131.75"/>
<polygon fill="midnightblue" stroke="midnightblue" points="107.5,-158.08 111,-168.08 114.5,-158.08 107.5,-158.08"/>
</g>
<!-- Node4 -->
<g id="node4" class="node">
<title>Node4</title>
<g id="a_node4"><a xlink:href="../../df/dfa/classCObjectInterface.html" target="_top" xlink:title=" ">
<polygon fill="white" stroke="black" points="6,-224.5 6,-243.5 96,-243.5 96,-224.5 6,-224.5"/>
<text text-anchor="middle" x="51" y="-231.5" font-family="FreeSans" font-size="10.00">CObjectInterface</text>
</a>
</g>
</g>
<!-- Node4&#45;&gt;Node3 -->
<g id="edge3" class="edge">
<title>Node4&#45;&gt;Node3</title>
<path fill="none" stroke="midnightblue" d="M68.18,-217.54C78.88,-207.91 92.26,-195.87 101.18,-187.83"/>
<polygon fill="midnightblue" stroke="midnightblue" points="65.73,-215.03 60.64,-224.32 70.41,-220.24 65.73,-215.03"/>
</g>
<!-- Node5 -->
<g id="node5" class="node">
<title>Node5</title>
<g id="a_node5"><a xlink:href="../../d8/d53/classCUndoObjectInterface.html" target="_top" xlink:title=" ">
<polygon fill="white" stroke="black" points="114.5,-224.5 114.5,-243.5 227.5,-243.5 227.5,-224.5 114.5,-224.5"/>
<text text-anchor="middle" x="171" y="-231.5" font-family="FreeSans" font-size="10.00">CUndoObjectInterface</text>
</a>
</g>
</g>
<!-- Node5&#45;&gt;Node3 -->
<g id="edge4" class="edge">
<title>Node5&#45;&gt;Node3</title>
<path fill="none" stroke="midnightblue" d="M153.82,-217.54C143.12,-207.91 129.74,-195.87 120.82,-187.83"/>
<polygon fill="midnightblue" stroke="midnightblue" points="151.59,-220.24 161.36,-224.32 156.27,-215.03 151.59,-220.24"/>
</g>
<!-- Node6 -->
<g id="node6" class="node">
<title>Node6</title>
<g id="a_node6"><a xlink:href="../../d8/dfc/classCAnnotation.html" target="_top" xlink:title=" ">
<polygon fill="white" stroke="black" points="172,-112.5 172,-131.5 242,-131.5 242,-112.5 172,-112.5"/>
<text text-anchor="middle" x="207" y="-119.5" font-family="FreeSans" font-size="10.00">CAnnotation</text>
</a>
</g>
</g>
<!-- Node6&#45;&gt;Node1 -->
<g id="edge5" class="edge">
<title>Node6&#45;&gt;Node1</title>
<path fill="none" stroke="midnightblue" d="M192.27,-104.43C183.86,-94.97 173.65,-83.48 166.78,-75.75"/>
<polygon fill="midnightblue" stroke="midnightblue" points="189.81,-106.93 199.07,-112.08 195.05,-102.28 189.81,-106.93"/>
</g>
</g>
</svg>
