<?xml version="1.0" encoding="UTF-8" standalone="no"?>
<!DOCTYPE svg PUBLIC "-//W3C//DTD SVG 1.1//EN"
 "http://www.w3.org/Graphics/SVG/1.1/DTD/svg11.dtd">
<!-- Generated by graphviz version 2.43.0 (0)
 -->
<!-- Title: CContext&lt; Data &gt; Pages: 1 -->
<svg width="499pt" height="376pt"
 viewBox="0.00 0.00 498.50 376.00" xmlns="http://www.w3.org/2000/svg" xmlns:xlink="http://www.w3.org/1999/xlink">
<g id="graph0" class="graph" transform="scale(1 1) rotate(0) translate(4 372)">
<title>CContext&lt; Data &gt;</title>
<polygon fill="white" stroke="transparent" points="-4,4 -4,-372 494.5,-372 494.5,4 -4,4"/>
<!-- Node1 -->
<g id="node1" class="node">
<title>Node1</title>
<g id="a_node1"><a xlink:title=" ">
<polygon fill="#bfbfbf" stroke="black" points="212,-348.5 212,-367.5 305,-367.5 305,-348.5 212,-348.5"/>
<text text-anchor="middle" x="258.5" y="-355.5" font-family="FreeSans" font-size="10.00">CContext&lt; Data &gt;</text>
</a>
</g>
</g>
<!-- Node2 -->
<g id="node2" class="node">
<title>Node2</title>
<g id="a_node2"><a xlink:href="../../d4/d52/classCPointerContext.html" target="_top" xlink:title=" ">
<polygon fill="white" stroke="black" points="0,-152 0,-171 173,-171 173,-152 0,-152"/>
<text text-anchor="middle" x="86.5" y="-159" font-family="FreeSans" font-size="10.00">CPointerContext&lt; CMathContainer &gt;</text>
</a>
</g>
</g>
<!-- Node1&#45;&gt;Node2 -->
<g id="edge1" class="edge">
<title>Node1&#45;&gt;Node2</title>
<path fill="none" stroke="midnightblue" d="M240.93,-341.41C228.89,-330.47 212.77,-315.3 199.5,-301 156.23,-254.36 109.8,-193.6 93.02,-171.25"/>
<polygon fill="midnightblue" stroke="midnightblue" points="238.75,-344.16 248.53,-348.25 243.43,-338.95 238.75,-344.16"/>
</g>
<!-- Node4 -->
<g id="node4" class="node">
<title>Node4</title>
<g id="a_node4"><a xlink:href="../../d4/d52/classCPointerContext.html" target="_top" xlink:title=" ">
<polygon fill="white" stroke="black" points="344.5,-152 344.5,-171 490.5,-171 490.5,-152 344.5,-152"/>
<text text-anchor="middle" x="417.5" y="-159" font-family="FreeSans" font-size="10.00">CPointerContext&lt; CRandom &gt;</text>
</a>
</g>
</g>
<!-- Node1&#45;&gt;Node4 -->
<g id="edge3" class="edge">
<title>Node1&#45;&gt;Node4</title>
<path fill="none" stroke="midnightblue" d="M289.07,-343.58C295.9,-339.77 302.79,-335.22 308.5,-330 362.78,-280.36 401.91,-198.07 413.76,-171.24"/>
<polygon fill="midnightblue" stroke="midnightblue" points="287.21,-340.6 279.93,-348.3 290.42,-346.82 287.21,-340.6"/>
</g>
<!-- Node5 -->
<g id="node5" class="node">
<title>Node5</title>
<g id="a_node5"><a xlink:href="../../d3/d56/classCContext.html" target="_top" xlink:title=" ">
<polygon fill="white" stroke="black" points="209,-281.5 209,-300.5 308,-300.5 308,-281.5 209,-281.5"/>
<text text-anchor="middle" x="258.5" y="-288.5" font-family="FreeSans" font-size="10.00">CContext&lt; Data * &gt;</text>
</a>
</g>
</g>
<!-- Node1&#45;&gt;Node5 -->
<g id="edge4" class="edge">
<title>Node1&#45;&gt;Node5</title>
<path fill="none" stroke="orange" stroke-dasharray="5,2" d="M258.5,-338.04C258.5,-325.67 258.5,-310.12 258.5,-300.63"/>
<polygon fill="orange" stroke="orange" points="255,-338.23 258.5,-348.23 262,-338.23 255,-338.23"/>
<text text-anchor="middle" x="281.5" y="-322" font-family="FreeSans" font-size="10.00"> &lt; Data * &gt;</text>
</g>
<!-- Node3 -->
<g id="node3" class="node">
<title>Node3</title>
<g id="a_node3"><a xlink:href="../../d2/d0f/classCMathContext.html" target="_top" xlink:title=" ">
<polygon fill="white" stroke="black" points="47.5,-84 47.5,-103 125.5,-103 125.5,-84 47.5,-84"/>
<text text-anchor="middle" x="86.5" y="-91" font-family="FreeSans" font-size="10.00">CMathContext</text>
</a>
</g>
</g>
<!-- Node2&#45;&gt;Node3 -->
<g id="edge2" class="edge">
<title>Node2&#45;&gt;Node3</title>
<path fill="none" stroke="midnightblue" d="M86.5,-141.54C86.5,-128.97 86.5,-113.06 86.5,-103.34"/>
<polygon fill="midnightblue" stroke="midnightblue" points="83,-141.87 86.5,-151.87 90,-141.87 83,-141.87"/>
</g>
<!-- Node6 -->
<g id="node6" class="node">
<title>Node6</title>
<g id="a_node6"><a xlink:href="../../d4/d52/classCPointerContext.html" target="_top" xlink:title=" ">
<polygon fill="white" stroke="black" points="196.5,-224.5 196.5,-243.5 320.5,-243.5 320.5,-224.5 196.5,-224.5"/>
<text text-anchor="middle" x="258.5" y="-231.5" font-family="FreeSans" font-size="10.00">CPointerContext&lt; Data &gt;</text>
</a>
</g>
</g>
<!-- Node5&#45;&gt;Node6 -->
<g id="edge5" class="edge">
<title>Node5&#45;&gt;Node6</title>
<path fill="none" stroke="midnightblue" d="M258.5,-271.12C258.5,-261.82 258.5,-251.06 258.5,-243.71"/>
<polygon fill="midnightblue" stroke="midnightblue" points="255,-271.41 258.5,-281.41 262,-271.41 255,-271.41"/>
</g>
<!-- Node6&#45;&gt;Node2 -->
<g id="edge10" class="edge">
<title>Node6&#45;&gt;Node2</title>
<path fill="none" stroke="orange" stroke-dasharray="5,2" d="M212.39,-221.78C197.21,-217.52 180.41,-212.18 165.5,-206 141.49,-196.05 115.4,-180.71 100.02,-171.16"/>
<polygon fill="orange" stroke="orange" points="211.52,-225.17 222.09,-224.43 213.36,-218.42 211.52,-225.17"/>
<text text-anchor="middle" x="210" y="-198" font-family="FreeSans" font-size="10.00"> &lt; CMathContainer &gt;</text>
</g>
<!-- Node6&#45;&gt;Node4 -->
<g id="edge11" class="edge">
<title>Node6&#45;&gt;Node4</title>
<path fill="none" stroke="orange" stroke-dasharray="5,2" d="M281.93,-219.16C295.32,-211.53 312.58,-202.18 328.5,-195 349.04,-185.73 373.09,-177.08 391,-171.03"/>
<polygon fill="orange" stroke="orange" points="279.84,-216.32 272.93,-224.35 283.34,-222.38 279.84,-216.32"/>
<text text-anchor="middle" x="359.5" y="-198" font-family="FreeSans" font-size="10.00"> &lt; CRandom &gt;</text>
</g>
<!-- Node7 -->
<g id="node7" class="node">
<title>Node7</title>
<g id="a_node7"><a xlink:href="../../d1/da0/classCPointerContextWithParent.html" target="_top" xlink:title=" ">
<polygon fill="white" stroke="black" points="191,-146.5 191,-176.5 326,-176.5 326,-146.5 191,-146.5"/>
<text text-anchor="start" x="199" y="-164.5" font-family="FreeSans" font-size="10.00">CPointerContextWithParent</text>
<text text-anchor="middle" x="258.5" y="-153.5" font-family="FreeSans" font-size="10.00">&lt; Data &gt;</text>
</a>
</g>
</g>
<!-- Node6&#45;&gt;Node7 -->
<g id="edge6" class="edge">
<title>Node6&#45;&gt;Node7</title>
<path fill="none" stroke="midnightblue" d="M258.5,-214.24C258.5,-202.41 258.5,-187.38 258.5,-176.58"/>
<polygon fill="midnightblue" stroke="midnightblue" points="255,-214.36 258.5,-224.36 262,-214.36 255,-214.36"/>
</g>
<!-- Node8 -->
<g id="node8" class="node">
<title>Node8</title>
<g id="a_node8"><a xlink:href="../../d0/df3/classCPointerMathContext.html" target="_top" xlink:title=" ">
<polygon fill="white" stroke="black" points="215,-0.5 215,-30.5 324,-30.5 324,-0.5 215,-0.5"/>
<text text-anchor="start" x="223" y="-18.5" font-family="FreeSans" font-size="10.00">CPointerMathContext</text>
<text text-anchor="middle" x="269.5" y="-7.5" font-family="FreeSans" font-size="10.00">&lt; COptProblem &gt;</text>
</a>
</g>
</g>
<!-- Node7&#45;&gt;Node8 -->
<g id="edge7" class="edge">
<title>Node7&#45;&gt;Node8</title>
<path fill="none" stroke="midnightblue" d="M275.81,-138.35C281.89,-129.62 288.26,-119.25 292.5,-109 301,-88.46 300.27,-82.11 302.5,-60 302.99,-55.14 304.39,-53.51 302.5,-49 299.58,-42.03 294.36,-35.79 288.91,-30.7"/>
<polygon fill="midnightblue" stroke="midnightblue" points="272.96,-136.32 269.91,-146.47 278.62,-140.44 272.96,-136.32"/>
</g>
<!-- Node9 -->
<g id="node9" class="node">
<title>Node9</title>
<g id="a_node9"><a xlink:href="../../d0/df3/classCPointerMathContext.html" target="_top" xlink:title=" ">
<polygon fill="white" stroke="black" points="174,-78.5 174,-108.5 283,-108.5 283,-78.5 174,-78.5"/>
<text text-anchor="start" x="182" y="-96.5" font-family="FreeSans" font-size="10.00">CPointerMathContext</text>
<text text-anchor="middle" x="228.5" y="-85.5" font-family="FreeSans" font-size="10.00">&lt; Data &gt;</text>
</a>
</g>
</g>
<!-- Node7&#45;&gt;Node9 -->
<g id="edge8" class="edge">
<title>Node7&#45;&gt;Node9</title>
<path fill="none" stroke="midnightblue" d="M247.78,-136.93C243.51,-127.52 238.73,-117 235,-108.79"/>
<polygon fill="midnightblue" stroke="midnightblue" points="244.67,-138.52 251.99,-146.18 251.04,-135.63 244.67,-138.52"/>
</g>
<!-- Node9&#45;&gt;Node8 -->
<g id="edge9" class="edge">
<title>Node9&#45;&gt;Node8</title>
<path fill="none" stroke="orange" stroke-dasharray="5,2" d="M221.67,-68.55C220.99,-61.93 221.46,-54.94 224.5,-49 228.27,-41.62 234.59,-35.53 241.31,-30.7"/>
<polygon fill="orange" stroke="orange" points="218.23,-69.24 223.49,-78.44 225.12,-67.97 218.23,-69.24"/>
<text text-anchor="middle" x="263.5" y="-52" font-family="FreeSans" font-size="10.00"> &lt; COptProblem &gt;</text>
</g>
</g>
</svg>
