<?xml version="1.0" encoding="UTF-8" standalone="no"?>
<!DOCTYPE svg PUBLIC "-//W3C//DTD SVG 1.1//EN"
 "http://www.w3.org/Graphics/SVG/1.1/DTD/svg11.dtd">
<!-- Generated by graphviz version 2.43.0 (0)
 -->
<!-- Title: CDataObjectReference&lt; CType &gt; Pages: 1 -->
<svg width="352pt" height="288pt"
 viewBox="0.00 0.00 351.50 288.00" xmlns="http://www.w3.org/2000/svg" xmlns:xlink="http://www.w3.org/1999/xlink">
<g id="graph0" class="graph" transform="scale(1 1) rotate(0) translate(4 284)">
<title>CDataObjectReference&lt; CType &gt;</title>
<polygon fill="white" stroke="transparent" points="-4,4 -4,-284 347.5,-284 347.5,4 -4,4"/>
<!-- Node1 -->
<g id="node1" class="node">
<title>Node1</title>
<g id="a_node1"><a xlink:title=" ">
<polygon fill="#bfbfbf" stroke="black" points="160.5,-135.5 160.5,-165.5 276.5,-165.5 276.5,-135.5 160.5,-135.5"/>
<text text-anchor="start" x="168.5" y="-153.5" font-family="FreeSans" font-size="10.00">CDataObjectReference</text>
<text text-anchor="middle" x="218.5" y="-142.5" font-family="FreeSans" font-size="10.00">&lt; CType &gt;</text>
</a>
</g>
</g>
<!-- Node5 -->
<g id="node5" class="node">
<title>Node5</title>
<g id="a_node5"><a xlink:href="../../d5/dff/classCDataObjectReference.html" target="_top" xlink:title=" ">
<polygon fill="white" stroke="black" points="93.5,-57.5 93.5,-87.5 209.5,-87.5 209.5,-57.5 93.5,-57.5"/>
<text text-anchor="start" x="101.5" y="-75.5" font-family="FreeSans" font-size="10.00">CDataObjectReference</text>
<text text-anchor="middle" x="151.5" y="-64.5" font-family="FreeSans" font-size="10.00">&lt; C_FLOAT64 &gt;</text>
</a>
</g>
</g>
<!-- Node1&#45;&gt;Node5 -->
<g id="edge4" class="edge">
<title>Node1&#45;&gt;Node5</title>
<path fill="none" stroke="orange" stroke-dasharray="5,2" d="M199.01,-127.72C195.83,-124.15 192.57,-120.47 189.5,-117 180.87,-107.23 171.21,-96.16 163.78,-87.64"/>
<polygon fill="orange" stroke="orange" points="196.49,-130.16 205.76,-135.29 201.72,-125.5 196.49,-130.16"/>
<text text-anchor="middle" x="226.5" y="-109" font-family="FreeSans" font-size="10.00"> &lt; C_FLOAT64 &gt;</text>
</g>
<!-- Node8 -->
<g id="node8" class="node">
<title>Node8</title>
<g id="a_node8"><a xlink:href="../../d5/dff/classCDataObjectReference.html" target="_top" xlink:title=" ">
<polygon fill="white" stroke="black" points="227.5,-57.5 227.5,-87.5 343.5,-87.5 343.5,-57.5 227.5,-57.5"/>
<text text-anchor="start" x="235.5" y="-75.5" font-family="FreeSans" font-size="10.00">CDataObjectReference</text>
<text text-anchor="middle" x="285.5" y="-64.5" font-family="FreeSans" font-size="10.00">&lt; std::string &gt;</text>
</a>
</g>
</g>
<!-- Node1&#45;&gt;Node8 -->
<g id="edge7" class="edge">
<title>Node1&#45;&gt;Node8</title>
<path fill="none" stroke="orange" stroke-dasharray="5,2" d="M250.93,-129.02C255.46,-125.35 259.82,-121.31 263.5,-117 270.86,-108.38 276.55,-96.86 280.29,-87.85"/>
<polygon fill="orange" stroke="orange" points="248.58,-126.4 242.69,-135.2 252.79,-132 248.58,-126.4"/>
<text text-anchor="middle" x="301" y="-109" font-family="FreeSans" font-size="10.00"> &lt; std::string &gt;</text>
</g>
<!-- Node2 -->
<g id="node2" class="node">
<title>Node2</title>
<g id="a_node2"><a xlink:href="../../d1/d6b/classCDataObject.html" target="_top" xlink:title=" ">
<polygon fill="white" stroke="black" points="182.5,-203.5 182.5,-222.5 254.5,-222.5 254.5,-203.5 182.5,-203.5"/>
<text text-anchor="middle" x="218.5" y="-210.5" font-family="FreeSans" font-size="10.00">CDataObject</text>
</a>
</g>
</g>
<!-- Node2&#45;&gt;Node1 -->
<g id="edge1" class="edge">
<title>Node2&#45;&gt;Node1</title>
<path fill="none" stroke="midnightblue" d="M218.5,-193.22C218.5,-184.36 218.5,-173.96 218.5,-165.76"/>
<polygon fill="midnightblue" stroke="midnightblue" points="215,-193.33 218.5,-203.33 222,-193.33 215,-193.33"/>
</g>
<!-- Node3 -->
<g id="node3" class="node">
<title>Node3</title>
<g id="a_node3"><a xlink:href="../../df/dfa/classCObjectInterface.html" target="_top" xlink:title=" ">
<polygon fill="white" stroke="black" points="113.5,-260.5 113.5,-279.5 203.5,-279.5 203.5,-260.5 113.5,-260.5"/>
<text text-anchor="middle" x="158.5" y="-267.5" font-family="FreeSans" font-size="10.00">CObjectInterface</text>
</a>
</g>
</g>
<!-- Node3&#45;&gt;Node2 -->
<g id="edge2" class="edge">
<title>Node3&#45;&gt;Node2</title>
<path fill="none" stroke="midnightblue" d="M175.5,-253.42C186.35,-243.47 200.02,-230.94 208.99,-222.71"/>
<polygon fill="midnightblue" stroke="midnightblue" points="172.88,-251.07 167.88,-260.41 177.61,-256.23 172.88,-251.07"/>
</g>
<!-- Node4 -->
<g id="node4" class="node">
<title>Node4</title>
<g id="a_node4"><a xlink:href="../../d8/d53/classCUndoObjectInterface.html" target="_top" xlink:title=" ">
<polygon fill="white" stroke="black" points="222,-260.5 222,-279.5 335,-279.5 335,-260.5 222,-260.5"/>
<text text-anchor="middle" x="278.5" y="-267.5" font-family="FreeSans" font-size="10.00">CUndoObjectInterface</text>
</a>
</g>
</g>
<!-- Node4&#45;&gt;Node2 -->
<g id="edge3" class="edge">
<title>Node4&#45;&gt;Node2</title>
<path fill="none" stroke="midnightblue" d="M261.5,-253.42C250.65,-243.47 236.98,-230.94 228.01,-222.71"/>
<polygon fill="midnightblue" stroke="midnightblue" points="259.39,-256.23 269.12,-260.41 264.12,-251.07 259.39,-256.23"/>
</g>
<!-- Node6 -->
<g id="node6" class="node">
<title>Node6</title>
<g id="a_node6"><a xlink:href="../../d8/d2c/classCDependentNumberReference.html" target="_top" xlink:title=" ">
<polygon fill="white" stroke="black" points="0,-0.5 0,-19.5 149,-19.5 149,-0.5 0,-0.5"/>
<text text-anchor="middle" x="74.5" y="-7.5" font-family="FreeSans" font-size="10.00">CDependentNumberReference</text>
</a>
</g>
</g>
<!-- Node5&#45;&gt;Node6 -->
<g id="edge5" class="edge">
<title>Node5&#45;&gt;Node6</title>
<path fill="none" stroke="midnightblue" d="M125.5,-51.07C111.81,-40.31 95.75,-27.7 85.37,-19.54"/>
<polygon fill="midnightblue" stroke="midnightblue" points="123.62,-54.04 133.64,-57.47 127.94,-48.54 123.62,-54.04"/>
</g>
<!-- Node7 -->
<g id="node7" class="node">
<title>Node7</title>
<g id="a_node7"><a xlink:href="../../d9/d77/classCTotalNumberReference.html" target="_top" xlink:title=" ">
<polygon fill="white" stroke="black" points="166.5,-0.5 166.5,-19.5 290.5,-19.5 290.5,-0.5 166.5,-0.5"/>
<text text-anchor="middle" x="228.5" y="-7.5" font-family="FreeSans" font-size="10.00">CTotalNumberReference</text>
</a>
</g>
</g>
<!-- Node5&#45;&gt;Node7 -->
<g id="edge6" class="edge">
<title>Node5&#45;&gt;Node7</title>
<path fill="none" stroke="midnightblue" d="M177.5,-51.07C191.19,-40.31 207.25,-27.7 217.63,-19.54"/>
<polygon fill="midnightblue" stroke="midnightblue" points="175.06,-48.54 169.36,-57.47 179.38,-54.04 175.06,-48.54"/>
</g>
</g>
</svg>
