<?xml version="1.0" encoding="UTF-8" standalone="no"?>
<!DOCTYPE svg PUBLIC "-//W3C//DTD SVG 1.1//EN"
 "http://www.w3.org/Graphics/SVG/1.1/DTD/svg11.dtd">
<!-- Generated by graphviz version 2.43.0 (0)
 -->
<!-- Title: CDataMatrixReference&lt; CType &gt; Pages: 1 -->
<svg width="230pt" height="151pt"
 viewBox="0.00 0.00 229.50 151.00" xmlns="http://www.w3.org/2000/svg" xmlns:xlink="http://www.w3.org/1999/xlink">
<g id="graph0" class="graph" transform="scale(1 1) rotate(0) translate(4 147)">
<title>CDataMatrixReference&lt; CType &gt;</title>
<polygon fill="white" stroke="transparent" points="-4,4 -4,-147 225.5,-147 225.5,4 -4,4"/>
<!-- Node1 -->
<g id="node1" class="node">
<title>Node1</title>
<g id="a_node1"><a xlink:title=" ">
<polygon fill="#bfbfbf" stroke="black" points="48,-0.5 48,-30.5 162,-30.5 162,-0.5 48,-0.5"/>
<text text-anchor="start" x="56" y="-18.5" font-family="FreeSans" font-size="10.00">CDataMatrixReference</text>
<text text-anchor="middle" x="105" y="-7.5" font-family="FreeSans" font-size="10.00">&lt; CType &gt;</text>
</a>
</g>
</g>
<!-- Node2 -->
<g id="node2" class="node">
<title>Node2</title>
<g id="a_node2"><a xlink:href="../../d1/d6b/classCDataObject.html" target="_top" xlink:title=" ">
<polygon fill="white" stroke="black" points="69,-67.5 69,-86.5 141,-86.5 141,-67.5 69,-67.5"/>
<text text-anchor="middle" x="105" y="-74.5" font-family="FreeSans" font-size="10.00">CDataObject</text>
</a>
</g>
</g>
<!-- Node2&#45;&gt;Node1 -->
<g id="edge1" class="edge">
<title>Node2&#45;&gt;Node1</title>
<path fill="none" stroke="midnightblue" d="M105,-57.23C105,-48.59 105,-38.5 105,-30.52"/>
<polygon fill="midnightblue" stroke="midnightblue" points="101.5,-57.48 105,-67.48 108.5,-57.48 101.5,-57.48"/>
</g>
<!-- Node3 -->
<g id="node3" class="node">
<title>Node3</title>
<g id="a_node3"><a xlink:href="../../df/dfa/classCObjectInterface.html" target="_top" xlink:title=" ">
<polygon fill="white" stroke="black" points="0,-123.5 0,-142.5 90,-142.5 90,-123.5 0,-123.5"/>
<text text-anchor="middle" x="45" y="-130.5" font-family="FreeSans" font-size="10.00">CObjectInterface</text>
</a>
</g>
</g>
<!-- Node3&#45;&gt;Node2 -->
<g id="edge2" class="edge">
<title>Node3&#45;&gt;Node2</title>
<path fill="none" stroke="midnightblue" d="M62.18,-116.54C72.88,-106.91 86.26,-94.87 95.18,-86.83"/>
<polygon fill="midnightblue" stroke="midnightblue" points="59.73,-114.03 54.64,-123.32 64.41,-119.24 59.73,-114.03"/>
</g>
<!-- Node4 -->
<g id="node4" class="node">
<title>Node4</title>
<g id="a_node4"><a xlink:href="../../d8/d53/classCUndoObjectInterface.html" target="_top" xlink:title=" ">
<polygon fill="white" stroke="black" points="108.5,-123.5 108.5,-142.5 221.5,-142.5 221.5,-123.5 108.5,-123.5"/>
<text text-anchor="middle" x="165" y="-130.5" font-family="FreeSans" font-size="10.00">CUndoObjectInterface</text>
</a>
</g>
</g>
<!-- Node4&#45;&gt;Node2 -->
<g id="edge3" class="edge">
<title>Node4&#45;&gt;Node2</title>
<path fill="none" stroke="midnightblue" d="M147.82,-116.54C137.12,-106.91 123.74,-94.87 114.82,-86.83"/>
<polygon fill="midnightblue" stroke="midnightblue" points="145.59,-119.24 155.36,-123.32 150.27,-114.03 145.59,-119.24"/>
</g>
</g>
</svg>
