<?xml version="1.0" encoding="UTF-8" standalone="no"?>
<!DOCTYPE svg PUBLIC "-//W3C//DTD SVG 1.1//EN"
 "http://www.w3.org/Graphics/SVG/1.1/DTD/svg11.dtd">
<!-- Generated by graphviz version 2.43.0 (0)
 -->
<!-- Title: CCopasiTask Pages: 1 -->
<svg width="735pt" height="503pt"
 viewBox="0.00 0.00 735.00 503.00" xmlns="http://www.w3.org/2000/svg" xmlns:xlink="http://www.w3.org/1999/xlink">
<g id="graph0" class="graph" transform="scale(1 1) rotate(0) translate(4 499)">
<title>CCopasiTask</title>
<polygon fill="white" stroke="transparent" points="-4,4 -4,-499 731,-499 731,4 -4,4"/>
<!-- Node1 -->
<g id="node1" class="node">
<title>Node1</title>
<g id="a_node1"><a xlink:title=" ">
<polygon fill="#bfbfbf" stroke="black" points="378,-247.5 378,-266.5 453,-266.5 453,-247.5 378,-247.5"/>
<text text-anchor="middle" x="415.5" y="-254.5" font-family="FreeSans" font-size="10.00">CCopasiTask</text>
</a>
</g>
</g>
<!-- Node6 -->
<g id="node6" class="node">
<title>Node6</title>
<g id="a_node6"><a xlink:href="../../de/d2e/classCEFMTask.html" target="_top" xlink:title=" ">
<polygon fill="white" stroke="black" points="505.5,-475.5 505.5,-494.5 570.5,-494.5 570.5,-475.5 505.5,-475.5"/>
<text text-anchor="middle" x="538" y="-482.5" font-family="FreeSans" font-size="10.00">CEFMTask</text>
</a>
</g>
</g>
<!-- Node1&#45;&gt;Node6 -->
<g id="edge5" class="edge">
<title>Node1&#45;&gt;Node6</title>
<path fill="none" stroke="midnightblue" d="M417.97,-276.78C422.01,-317.51 436.79,-411.49 489,-466 493.46,-470.66 499.21,-474.2 505.17,-476.89"/>
<polygon fill="midnightblue" stroke="midnightblue" points="421.45,-276.43 417.09,-266.78 414.48,-277.05 421.45,-276.43"/>
</g>
<!-- Node7 -->
<g id="node7" class="node">
<title>Node7</title>
<g id="a_node7"><a xlink:href="../../d6/dde/classCLNATask.html" target="_top" xlink:title=" ">
<polygon fill="white" stroke="black" points="505.5,-437.5 505.5,-456.5 570.5,-456.5 570.5,-437.5 505.5,-437.5"/>
<text text-anchor="middle" x="538" y="-444.5" font-family="FreeSans" font-size="10.00">CLNATask</text>
</a>
</g>
</g>
<!-- Node1&#45;&gt;Node7 -->
<g id="edge6" class="edge">
<title>Node1&#45;&gt;Node7</title>
<path fill="none" stroke="midnightblue" d="M419.69,-276.49C426.38,-311.43 445.07,-385.11 489,-428 493.62,-432.51 499.43,-435.98 505.41,-438.65"/>
<polygon fill="midnightblue" stroke="midnightblue" points="423.12,-275.82 417.92,-266.59 416.23,-277.05 423.12,-275.82"/>
</g>
<!-- Node8 -->
<g id="node8" class="node">
<title>Node8</title>
<g id="a_node8"><a xlink:href="../../d7/d96/classCLyapTask.html" target="_top" xlink:title=" ">
<polygon fill="white" stroke="black" points="505,-399.5 505,-418.5 571,-418.5 571,-399.5 505,-399.5"/>
<text text-anchor="middle" x="538" y="-406.5" font-family="FreeSans" font-size="10.00">CLyapTask</text>
</a>
</g>
</g>
<!-- Node1&#45;&gt;Node8 -->
<g id="edge7" class="edge">
<title>Node1&#45;&gt;Node8</title>
<path fill="none" stroke="midnightblue" d="M422.36,-276.49C431.9,-305.1 453.37,-358.48 489,-390 493.56,-394.04 499.09,-397.27 504.75,-399.84"/>
<polygon fill="midnightblue" stroke="midnightblue" points="425.65,-275.3 419.29,-266.83 418.98,-277.42 425.65,-275.3"/>
</g>
<!-- Node9 -->
<g id="node9" class="node">
<title>Node9</title>
<g id="a_node9"><a xlink:href="../../dc/de7/classCMCATask.html" target="_top" xlink:title=" ">
<polygon fill="white" stroke="black" points="504.5,-361.5 504.5,-380.5 571.5,-380.5 571.5,-361.5 504.5,-361.5"/>
<text text-anchor="middle" x="538" y="-368.5" font-family="FreeSans" font-size="10.00">CMCATask</text>
</a>
</g>
</g>
<!-- Node1&#45;&gt;Node9 -->
<g id="edge8" class="edge">
<title>Node1&#45;&gt;Node9</title>
<path fill="none" stroke="midnightblue" d="M426.57,-275.7C438.81,-296.84 461.29,-331.03 489,-352 494,-355.79 499.86,-358.92 505.73,-361.48"/>
<polygon fill="midnightblue" stroke="midnightblue" points="429.49,-273.75 421.55,-266.74 423.39,-277.18 429.49,-273.75"/>
</g>
<!-- Node10 -->
<g id="node10" class="node">
<title>Node10</title>
<g id="a_node10"><a xlink:href="../../d5/d49/classCMoietiesTask.html" target="_top" xlink:title=" ">
<polygon fill="white" stroke="black" points="497,-323.5 497,-342.5 579,-342.5 579,-323.5 497,-323.5"/>
<text text-anchor="middle" x="538" y="-330.5" font-family="FreeSans" font-size="10.00">CMoietiesTask</text>
</a>
</g>
</g>
<!-- Node1&#45;&gt;Node10 -->
<g id="edge9" class="edge">
<title>Node1&#45;&gt;Node10</title>
<path fill="none" stroke="midnightblue" d="M434.09,-273.22C448.16,-285.58 468.81,-302.4 489,-314 495.22,-317.57 502.24,-320.77 508.95,-323.47"/>
<polygon fill="midnightblue" stroke="midnightblue" points="436.4,-270.59 426.62,-266.53 431.73,-275.8 436.4,-270.59"/>
</g>
<!-- Node11 -->
<g id="node11" class="node">
<title>Node11</title>
<g id="a_node11"><a xlink:href="../../df/dfc/classCOptTask.html" target="_top" xlink:title=" ">
<polygon fill="white" stroke="black" points="507.5,-285.5 507.5,-304.5 568.5,-304.5 568.5,-285.5 507.5,-285.5"/>
<text text-anchor="middle" x="538" y="-292.5" font-family="FreeSans" font-size="10.00">COptTask</text>
</a>
</g>
</g>
<!-- Node1&#45;&gt;Node11 -->
<g id="edge10" class="edge">
<title>Node1&#45;&gt;Node11</title>
<path fill="none" stroke="midnightblue" d="M456.87,-269.73C473.41,-274.95 492.21,-280.87 507.44,-285.68"/>
<polygon fill="midnightblue" stroke="midnightblue" points="457.5,-266.26 446.91,-266.59 455.39,-272.93 457.5,-266.26"/>
</g>
<!-- Node13 -->
<g id="node13" class="node">
<title>Node13</title>
<g id="a_node13"><a xlink:href="../../d4/dca/classCOscillationTask.html" target="_top" xlink:title=" ">
<polygon fill="white" stroke="black" points="492.5,-247.5 492.5,-266.5 583.5,-266.5 583.5,-247.5 492.5,-247.5"/>
<text text-anchor="middle" x="538" y="-254.5" font-family="FreeSans" font-size="10.00">COscillationTask</text>
</a>
</g>
</g>
<!-- Node1&#45;&gt;Node13 -->
<g id="edge12" class="edge">
<title>Node1&#45;&gt;Node13</title>
<path fill="none" stroke="midnightblue" d="M463.41,-257C472.92,-257 482.91,-257 492.35,-257"/>
<polygon fill="midnightblue" stroke="midnightblue" points="463.31,-253.5 453.31,-257 463.31,-260.5 463.31,-253.5"/>
</g>
<!-- Node14 -->
<g id="node14" class="node">
<title>Node14</title>
<g id="a_node14"><a xlink:href="../../dc/d40/classCScanTask.html" target="_top" xlink:title=" ">
<polygon fill="white" stroke="black" points="504,-209.5 504,-228.5 572,-228.5 572,-209.5 504,-209.5"/>
<text text-anchor="middle" x="538" y="-216.5" font-family="FreeSans" font-size="10.00">CScanTask</text>
</a>
</g>
</g>
<!-- Node1&#45;&gt;Node14 -->
<g id="edge13" class="edge">
<title>Node1&#45;&gt;Node14</title>
<path fill="none" stroke="midnightblue" d="M456.71,-244.32C472.99,-239.19 491.48,-233.36 506.6,-228.59"/>
<polygon fill="midnightblue" stroke="midnightblue" points="455.39,-241.07 446.91,-247.41 457.5,-247.74 455.39,-241.07"/>
</g>
<!-- Node15 -->
<g id="node15" class="node">
<title>Node15</title>
<g id="a_node15"><a xlink:href="../../de/df6/classCSensTask.html" target="_top" xlink:title=" ">
<polygon fill="white" stroke="black" points="504,-171.5 504,-190.5 572,-190.5 572,-171.5 504,-171.5"/>
<text text-anchor="middle" x="538" y="-178.5" font-family="FreeSans" font-size="10.00">CSensTask</text>
</a>
</g>
</g>
<!-- Node1&#45;&gt;Node15 -->
<g id="edge14" class="edge">
<title>Node1&#45;&gt;Node15</title>
<path fill="none" stroke="midnightblue" d="M434.09,-240.78C448.16,-228.42 468.81,-211.6 489,-200 495.22,-196.43 502.24,-193.23 508.95,-190.53"/>
<polygon fill="midnightblue" stroke="midnightblue" points="431.73,-238.2 426.62,-247.47 436.4,-243.41 431.73,-238.2"/>
</g>
<!-- Node16 -->
<g id="node16" class="node">
<title>Node16</title>
<g id="a_node16"><a xlink:href="../../d4/d02/classCSteadyStateTask.html" target="_top" xlink:title=" ">
<polygon fill="white" stroke="black" points="489,-133.5 489,-152.5 587,-152.5 587,-133.5 489,-133.5"/>
<text text-anchor="middle" x="538" y="-140.5" font-family="FreeSans" font-size="10.00">CSteadyStateTask</text>
</a>
</g>
</g>
<!-- Node1&#45;&gt;Node16 -->
<g id="edge15" class="edge">
<title>Node1&#45;&gt;Node16</title>
<path fill="none" stroke="midnightblue" d="M426.57,-238.3C438.81,-217.16 461.29,-182.97 489,-162 494,-158.21 499.86,-155.08 505.73,-152.52"/>
<polygon fill="midnightblue" stroke="midnightblue" points="423.39,-236.82 421.55,-247.26 429.49,-240.25 423.39,-236.82"/>
</g>
<!-- Node17 -->
<g id="node17" class="node">
<title>Node17</title>
<g id="a_node17"><a xlink:href="../../df/de1/classCTSSATask.html" target="_top" xlink:title=" ">
<polygon fill="white" stroke="black" points="502.5,-95.5 502.5,-114.5 573.5,-114.5 573.5,-95.5 502.5,-95.5"/>
<text text-anchor="middle" x="538" y="-102.5" font-family="FreeSans" font-size="10.00">CTSSATask</text>
</a>
</g>
</g>
<!-- Node1&#45;&gt;Node17 -->
<g id="edge16" class="edge">
<title>Node1&#45;&gt;Node17</title>
<path fill="none" stroke="midnightblue" d="M422.36,-237.51C431.9,-208.9 453.37,-155.52 489,-124 493.3,-120.2 498.44,-117.11 503.75,-114.62"/>
<polygon fill="midnightblue" stroke="midnightblue" points="418.98,-236.58 419.29,-247.17 425.65,-238.7 418.98,-236.58"/>
</g>
<!-- Node18 -->
<g id="node18" class="node">
<title>Node18</title>
<g id="a_node18"><a xlink:href="../../d9/d85/classCTimeSensTask.html" target="_top" xlink:title=" ">
<polygon fill="white" stroke="black" points="493.5,-57.5 493.5,-76.5 582.5,-76.5 582.5,-57.5 493.5,-57.5"/>
<text text-anchor="middle" x="538" y="-64.5" font-family="FreeSans" font-size="10.00">CTimeSensTask</text>
</a>
</g>
</g>
<!-- Node1&#45;&gt;Node18 -->
<g id="edge17" class="edge">
<title>Node1&#45;&gt;Node18</title>
<path fill="none" stroke="midnightblue" d="M419.69,-237.51C426.38,-202.57 445.07,-128.89 489,-86 492.98,-82.12 497.84,-79 502.93,-76.51"/>
<polygon fill="midnightblue" stroke="midnightblue" points="416.23,-236.95 417.92,-247.41 423.12,-238.18 416.23,-236.95"/>
</g>
<!-- Node19 -->
<g id="node19" class="node">
<title>Node19</title>
<g id="a_node19"><a xlink:href="../../de/d37/classCTrajectoryTask.html" target="_top" xlink:title=" ">
<polygon fill="white" stroke="black" points="494,-19.5 494,-38.5 582,-38.5 582,-19.5 494,-19.5"/>
<text text-anchor="middle" x="538" y="-26.5" font-family="FreeSans" font-size="10.00">CTrajectoryTask</text>
</a>
</g>
</g>
<!-- Node1&#45;&gt;Node19 -->
<g id="edge18" class="edge">
<title>Node1&#45;&gt;Node19</title>
<path fill="none" stroke="midnightblue" d="M417.97,-237.22C422.01,-196.49 436.79,-102.51 489,-48 492.72,-44.12 497.33,-41.01 502.22,-38.53"/>
<polygon fill="midnightblue" stroke="midnightblue" points="414.48,-236.95 417.09,-247.22 421.45,-237.57 414.48,-236.95"/>
</g>
<!-- Node2 -->
<g id="node2" class="node">
<title>Node2</title>
<g id="a_node2"><a xlink:href="../../d3/db9/classCDataContainer.html" target="_top" xlink:title=" ">
<polygon fill="white" stroke="black" points="257,-247.5 257,-266.5 342,-266.5 342,-247.5 257,-247.5"/>
<text text-anchor="middle" x="299.5" y="-254.5" font-family="FreeSans" font-size="10.00">CDataContainer</text>
</a>
</g>
</g>
<!-- Node2&#45;&gt;Node1 -->
<g id="edge1" class="edge">
<title>Node2&#45;&gt;Node1</title>
<path fill="none" stroke="midnightblue" d="M352.34,-257C360.99,-257 369.8,-257 377.97,-257"/>
<polygon fill="midnightblue" stroke="midnightblue" points="352.3,-253.5 342.3,-257 352.3,-260.5 352.3,-253.5"/>
</g>
<!-- Node3 -->
<g id="node3" class="node">
<title>Node3</title>
<g id="a_node3"><a xlink:href="../../d1/d6b/classCDataObject.html" target="_top" xlink:title=" ">
<polygon fill="white" stroke="black" points="149,-247.5 149,-266.5 221,-266.5 221,-247.5 149,-247.5"/>
<text text-anchor="middle" x="185" y="-254.5" font-family="FreeSans" font-size="10.00">CDataObject</text>
</a>
</g>
</g>
<!-- Node3&#45;&gt;Node2 -->
<g id="edge2" class="edge">
<title>Node3&#45;&gt;Node2</title>
<path fill="none" stroke="midnightblue" d="M231.56,-257C239.85,-257 248.46,-257 256.64,-257"/>
<polygon fill="midnightblue" stroke="midnightblue" points="231.29,-253.5 221.29,-257 231.29,-260.5 231.29,-253.5"/>
</g>
<!-- Node4 -->
<g id="node4" class="node">
<title>Node4</title>
<g id="a_node4"><a xlink:href="../../df/dfa/classCObjectInterface.html" target="_top" xlink:title=" ">
<polygon fill="white" stroke="black" points="11.5,-266.5 11.5,-285.5 101.5,-285.5 101.5,-266.5 11.5,-266.5"/>
<text text-anchor="middle" x="56.5" y="-273.5" font-family="FreeSans" font-size="10.00">CObjectInterface</text>
</a>
</g>
</g>
<!-- Node4&#45;&gt;Node3 -->
<g id="edge3" class="edge">
<title>Node4&#45;&gt;Node3</title>
<path fill="none" stroke="midnightblue" d="M111.66,-267.86C124.21,-265.98 137.25,-264.02 148.74,-262.3"/>
<polygon fill="midnightblue" stroke="midnightblue" points="111.11,-264.41 101.74,-269.35 112.15,-271.33 111.11,-264.41"/>
</g>
<!-- Node5 -->
<g id="node5" class="node">
<title>Node5</title>
<g id="a_node5"><a xlink:href="../../d8/d53/classCUndoObjectInterface.html" target="_top" xlink:title=" ">
<polygon fill="white" stroke="black" points="0,-228.5 0,-247.5 113,-247.5 113,-228.5 0,-228.5"/>
<text text-anchor="middle" x="56.5" y="-235.5" font-family="FreeSans" font-size="10.00">CUndoObjectInterface</text>
</a>
</g>
</g>
<!-- Node5&#45;&gt;Node3 -->
<g id="edge4" class="edge">
<title>Node5&#45;&gt;Node3</title>
<path fill="none" stroke="midnightblue" d="M123.28,-247.88C132.08,-249.2 140.81,-250.51 148.8,-251.71"/>
<polygon fill="midnightblue" stroke="midnightblue" points="123.76,-244.41 113.35,-246.39 122.72,-251.34 123.76,-244.41"/>
</g>
<!-- Node12 -->
<g id="node12" class="node">
<title>Node12</title>
<g id="a_node12"><a xlink:href="../../d8/d89/classCFitTask.html" target="_top" xlink:title=" ">
<polygon fill="white" stroke="black" points="647,-285.5 647,-304.5 703,-304.5 703,-285.5 647,-285.5"/>
<text text-anchor="middle" x="675" y="-292.5" font-family="FreeSans" font-size="10.00">CFitTask</text>
</a>
</g>
</g>
<!-- Node11&#45;&gt;Node12 -->
<g id="edge11" class="edge">
<title>Node11&#45;&gt;Node12</title>
<path fill="none" stroke="midnightblue" d="M578.63,-295C600.53,-295 627.18,-295 646.74,-295"/>
<polygon fill="midnightblue" stroke="midnightblue" points="578.63,-291.5 568.63,-295 578.63,-298.5 578.63,-291.5"/>
</g>
<!-- Node20 -->
<g id="node20" class="node">
<title>Node20</title>
<g id="a_node20"><a xlink:href="../../da/d5b/classCAnalyticsTask.html" target="_top" xlink:title=" ">
<polygon fill="white" stroke="black" points="632.5,-38.5 632.5,-57.5 717.5,-57.5 717.5,-38.5 632.5,-38.5"/>
<text text-anchor="middle" x="675" y="-45.5" font-family="FreeSans" font-size="10.00">CAnalyticsTask</text>
</a>
</g>
</g>
<!-- Node19&#45;&gt;Node20 -->
<g id="edge19" class="edge">
<title>Node19&#45;&gt;Node20</title>
<path fill="none" stroke="midnightblue" d="M592.09,-36.47C605.43,-38.35 619.55,-40.34 632.24,-42.12"/>
<polygon fill="midnightblue" stroke="midnightblue" points="592.48,-32.99 582.09,-35.06 591.5,-39.92 592.48,-32.99"/>
</g>
<!-- Node21 -->
<g id="node21" class="node">
<title>Node21</title>
<g id="a_node21"><a xlink:href="../../d1/d07/classCCrossSectionTask.html" target="_top" xlink:title=" ">
<polygon fill="white" stroke="black" points="623,-0.5 623,-19.5 727,-19.5 727,-0.5 623,-0.5"/>
<text text-anchor="middle" x="675" y="-7.5" font-family="FreeSans" font-size="10.00">CCrossSectionTask</text>
</a>
</g>
</g>
<!-- Node19&#45;&gt;Node21 -->
<g id="edge20" class="edge">
<title>Node19&#45;&gt;Node21</title>
<path fill="none" stroke="midnightblue" d="M592.03,-21.54C602.17,-20.11 612.76,-18.62 622.84,-17.2"/>
<polygon fill="midnightblue" stroke="midnightblue" points="591.5,-18.08 582.09,-22.94 592.48,-25.01 591.5,-18.08"/>
</g>
</g>
</svg>
