<?xml version="1.0" encoding="UTF-8" standalone="no"?>
<!DOCTYPE svg PUBLIC "-//W3C//DTD SVG 1.1//EN"
 "http://www.w3.org/Graphics/SVG/1.1/DTD/svg11.dtd">
<!-- Generated by graphviz version 2.43.0 (0)
 -->
<!-- Title: CInternalSolver Pages: 1 -->
<svg width="222pt" height="84pt"
 viewBox="0.00 0.00 221.50 84.00" xmlns="http://www.w3.org/2000/svg" xmlns:xlink="http://www.w3.org/1999/xlink">
<g id="graph0" class="graph" transform="scale(1 1) rotate(0) translate(4 80)">
<title>CInternalSolver</title>
<polygon fill="white" stroke="transparent" points="-4,4 -4,-80 217.5,-80 217.5,4 -4,4"/>
<!-- Node1 -->
<g id="node1" class="node">
<title>Node1</title>
<g id="a_node1"><a xlink:title=" ">
<polygon fill="#bfbfbf" stroke="black" points="66,-56.5 66,-75.5 149,-75.5 149,-56.5 66,-56.5"/>
<text text-anchor="middle" x="107.5" y="-63.5" font-family="FreeSans" font-size="10.00">CInternalSolver</text>
</a>
</g>
</g>
<!-- Node2 -->
<g id="node2" class="node">
<title>Node2</title>
<g id="a_node2"><a xlink:href="../../de/dce/classCLSODA.html" target="_top" xlink:title=" ">
<polygon fill="white" stroke="black" points="0,-0.5 0,-19.5 57,-19.5 57,-0.5 0,-0.5"/>
<text text-anchor="middle" x="28.5" y="-7.5" font-family="FreeSans" font-size="10.00">CLSODA</text>
</a>
</g>
</g>
<!-- Node1&#45;&gt;Node2 -->
<g id="edge1" class="edge">
<title>Node1&#45;&gt;Node2</title>
<path fill="none" stroke="midnightblue" d="M86.47,-50.62C72.03,-40.76 53.36,-27.99 41.16,-19.65"/>
<polygon fill="midnightblue" stroke="midnightblue" points="84.58,-53.57 94.81,-56.32 88.53,-47.79 84.58,-53.57"/>
</g>
<!-- Node3 -->
<g id="node3" class="node">
<title>Node3</title>
<g id="a_node3"><a xlink:href="../../d3/daa/classCLSODAR.html" target="_top" xlink:title=" ">
<polygon fill="white" stroke="black" points="75.5,-0.5 75.5,-19.5 139.5,-19.5 139.5,-0.5 75.5,-0.5"/>
<text text-anchor="middle" x="107.5" y="-7.5" font-family="FreeSans" font-size="10.00">CLSODAR</text>
</a>
</g>
</g>
<!-- Node1&#45;&gt;Node3 -->
<g id="edge2" class="edge">
<title>Node1&#45;&gt;Node3</title>
<path fill="none" stroke="midnightblue" d="M107.5,-45.8C107.5,-36.91 107.5,-26.78 107.5,-19.75"/>
<polygon fill="midnightblue" stroke="midnightblue" points="104,-46.08 107.5,-56.08 111,-46.08 104,-46.08"/>
</g>
<!-- Node4 -->
<g id="node4" class="node">
<title>Node4</title>
<g id="a_node4"><a xlink:href="../../d0/d82/classCRadau5.html" target="_top" xlink:title=" ">
<polygon fill="white" stroke="black" points="157.5,-0.5 157.5,-19.5 213.5,-19.5 213.5,-0.5 157.5,-0.5"/>
<text text-anchor="middle" x="185.5" y="-7.5" font-family="FreeSans" font-size="10.00">CRadau5</text>
</a>
</g>
</g>
<!-- Node1&#45;&gt;Node4 -->
<g id="edge3" class="edge">
<title>Node1&#45;&gt;Node4</title>
<path fill="none" stroke="midnightblue" d="M128.27,-50.62C142.52,-40.76 160.96,-27.99 173,-19.65"/>
<polygon fill="midnightblue" stroke="midnightblue" points="126.26,-47.75 120.03,-56.32 130.25,-53.51 126.26,-47.75"/>
</g>
</g>
</svg>
