<?xml version="1.0" encoding="UTF-8" standalone="no"?>
<!DOCTYPE svg PUBLIC "-//W3C//DTD SVG 1.1//EN"
 "http://www.w3.org/Graphics/SVG/1.1/DTD/svg11.dtd">
<!-- Generated by graphviz version 2.43.0 (0)
 -->
<!-- Title: CFlags&lt; Enum &gt; Pages: 1 -->
<svg width="512pt" height="218pt"
 viewBox="0.00 0.00 512.00 218.00" xmlns="http://www.w3.org/2000/svg" xmlns:xlink="http://www.w3.org/1999/xlink">
<g id="graph0" class="graph" transform="scale(1 1) rotate(0) translate(4 214)">
<title>CFlags&lt; Enum &gt;</title>
<polygon fill="white" stroke="transparent" points="-4,4 -4,-214 508,-214 508,4 -4,4"/>
<!-- Node1 -->
<g id="node1" class="node">
<title>Node1</title>
<g id="a_node1"><a xlink:title=" ">
<polygon fill="#bfbfbf" stroke="black" points="129,-95.5 129,-114.5 218,-114.5 218,-95.5 129,-95.5"/>
<text text-anchor="middle" x="173.5" y="-102.5" font-family="FreeSans" font-size="10.00">CFlags&lt; Enum &gt;</text>
</a>
</g>
</g>
<!-- Node3 -->
<g id="node3" class="node">
<title>Node3</title>
<g id="a_node3"><a xlink:href="../../d6/d11/classCFlags.html" target="_top" xlink:title=" ">
<polygon fill="white" stroke="black" points="368,-190.5 368,-209.5 493,-209.5 493,-190.5 368,-190.5"/>
<text text-anchor="middle" x="430.5" y="-197.5" font-family="FreeSans" font-size="10.00">CFlags&lt; eStateChange &gt;</text>
</a>
</g>
</g>
<!-- Node1&#45;&gt;Node3 -->
<g id="edge2" class="edge">
<title>Node1&#45;&gt;Node3</title>
<path fill="none" stroke="orange" stroke-dasharray="5,2" d="M187.31,-122.65C198.52,-136.71 216.09,-155.7 236,-166 276.74,-187.09 328.09,-195.4 367.65,-198.54"/>
<polygon fill="orange" stroke="orange" points="190.04,-120.46 181.19,-114.65 184.48,-124.72 190.04,-120.46"/>
<text text-anchor="middle" x="287.5" y="-198" font-family="FreeSans" font-size="10.00"> &lt; eStateChange &gt;</text>
</g>
<!-- Node4 -->
<g id="node4" class="node">
<title>Node4</title>
<g id="a_node4"><a xlink:href="../../d6/d11/classCFlags.html" target="_top" xlink:title=" ">
<polygon fill="white" stroke="black" points="357,-152.5 357,-171.5 504,-171.5 504,-152.5 357,-152.5"/>
<text text-anchor="middle" x="430.5" y="-159.5" font-family="FreeSans" font-size="10.00">CFlags&lt; eUserInterfaceFlag &gt;</text>
</a>
</g>
</g>
<!-- Node1&#45;&gt;Node4 -->
<g id="edge3" class="edge">
<title>Node1&#45;&gt;Node4</title>
<path fill="none" stroke="orange" stroke-dasharray="5,2" d="M202.99,-118.73C213.21,-123.2 224.94,-127.83 236,-131 275.24,-142.26 320.21,-149.77 356.92,-154.58"/>
<polygon fill="orange" stroke="orange" points="204.28,-115.48 193.73,-114.55 201.4,-121.86 204.28,-115.48"/>
<text text-anchor="middle" x="287.5" y="-154" font-family="FreeSans" font-size="10.00"> &lt; eUserInterfaceFlag &gt;</text>
</g>
<!-- Node5 -->
<g id="node5" class="node">
<title>Node5</title>
<g id="a_node5"><a xlink:href="../../d6/d11/classCFlags.html" target="_top" xlink:title=" ">
<polygon fill="white" stroke="black" points="368.5,-114.5 368.5,-133.5 492.5,-133.5 492.5,-114.5 368.5,-114.5"/>
<text text-anchor="middle" x="430.5" y="-121.5" font-family="FreeSans" font-size="10.00">CFlags&lt; CIssue::eKind &gt;</text>
</a>
</g>
</g>
<!-- Node1&#45;&gt;Node5 -->
<g id="edge4" class="edge">
<title>Node1&#45;&gt;Node5</title>
<path fill="none" stroke="orange" stroke-dasharray="5,2" d="M228.12,-109C269.13,-112.05 325.71,-116.27 368.46,-119.45"/>
<polygon fill="orange" stroke="orange" points="228.28,-105.5 218.05,-108.24 227.76,-112.48 228.28,-105.5"/>
<text text-anchor="middle" x="287.5" y="-119" font-family="FreeSans" font-size="10.00"> &lt; CIssue::eKind &gt;</text>
</g>
<!-- Node6 -->
<g id="node6" class="node">
<title>Node6</title>
<g id="a_node6"><a xlink:href="../../d6/d11/classCFlags.html" target="_top" xlink:title=" ">
<polygon fill="white" stroke="black" points="379,-76.5 379,-95.5 482,-95.5 482,-76.5 379,-76.5"/>
<text text-anchor="middle" x="430.5" y="-83.5" font-family="FreeSans" font-size="10.00">CFlags&lt; UnitType &gt;</text>
</a>
</g>
</g>
<!-- Node1&#45;&gt;Node6 -->
<g id="edge5" class="edge">
<title>Node1&#45;&gt;Node6</title>
<path fill="none" stroke="orange" stroke-dasharray="5,2" d="M228.23,-94.95C230.85,-94.6 233.45,-94.28 236,-94 284.3,-88.71 339.72,-86.84 378.84,-86.22"/>
<polygon fill="orange" stroke="orange" points="227.45,-91.53 218.07,-96.45 228.47,-98.46 227.45,-91.53"/>
<text text-anchor="middle" x="287.5" y="-97" font-family="FreeSans" font-size="10.00"> &lt; UnitType &gt;</text>
</g>
<!-- Node7 -->
<g id="node7" class="node">
<title>Node7</title>
<g id="a_node7"><a xlink:href="../../d6/d11/classCFlags.html" target="_top" xlink:title=" ">
<polygon fill="white" stroke="black" points="389,-38.5 389,-57.5 472,-57.5 472,-38.5 389,-38.5"/>
<text text-anchor="middle" x="430.5" y="-45.5" font-family="FreeSans" font-size="10.00">CFlags&lt; Flag &gt;</text>
</a>
</g>
</g>
<!-- Node1&#45;&gt;Node7 -->
<g id="edge6" class="edge">
<title>Node1&#45;&gt;Node7</title>
<path fill="none" stroke="orange" stroke-dasharray="5,2" d="M198.17,-90.19C209.27,-83.91 222.9,-77.11 236,-73 287.22,-56.92 349.19,-51.17 388.97,-49.12"/>
<polygon fill="orange" stroke="orange" points="196.37,-87.19 189.52,-95.27 199.92,-93.22 196.37,-87.19"/>
<text text-anchor="middle" x="287.5" y="-76" font-family="FreeSans" font-size="10.00"> &lt; Flag &gt;</text>
</g>
<!-- Node8 -->
<g id="node8" class="node">
<title>Node8</title>
<g id="a_node8"><a xlink:href="../../d6/d11/classCFlags.html" target="_top" xlink:title=" ">
<polygon fill="white" stroke="black" points="387,-0.5 387,-19.5 474,-19.5 474,-0.5 387,-0.5"/>
<text text-anchor="middle" x="430.5" y="-7.5" font-family="FreeSans" font-size="10.00">CFlags&lt; State &gt;</text>
</a>
</g>
</g>
<!-- Node1&#45;&gt;Node8 -->
<g id="edge7" class="edge">
<title>Node1&#45;&gt;Node8</title>
<path fill="none" stroke="orange" stroke-dasharray="5,2" d="M186.19,-86.78C197.12,-71.38 214.88,-50.12 236,-39 283.34,-14.07 345.67,-8.84 386.63,-8.5"/>
<polygon fill="orange" stroke="orange" points="183.02,-85.22 180.31,-95.46 188.82,-89.15 183.02,-85.22"/>
<text text-anchor="middle" x="287.5" y="-42" font-family="FreeSans" font-size="10.00"> &lt; State &gt;</text>
</g>
<!-- Node2 -->
<g id="node2" class="node">
<title>Node2</title>
<g id="a_node2"><a xlink:title=" ">
<polygon fill="white" stroke="#bfbfbf" points="0,-95.5 0,-114.5 92,-114.5 92,-95.5 0,-95.5"/>
<text text-anchor="middle" x="46" y="-102.5" font-family="FreeSans" font-size="10.00">std::bitset&lt; Bits &gt;</text>
</a>
</g>
</g>
<!-- Node2&#45;&gt;Node1 -->
<g id="edge1" class="edge">
<title>Node2&#45;&gt;Node1</title>
<path fill="none" stroke="midnightblue" d="M102.55,-105C111.39,-105 120.43,-105 128.94,-105"/>
<polygon fill="midnightblue" stroke="midnightblue" points="102.31,-101.5 92.31,-105 102.31,-108.5 102.31,-101.5"/>
</g>
</g>
</svg>
