<?xml version="1.0" encoding="UTF-8" standalone="no"?>
<!DOCTYPE svg PUBLIC "-//W3C//DTD SVG 1.1//EN"
 "http://www.w3.org/Graphics/SVG/1.1/DTD/svg11.dtd">
<!-- Generated by graphviz version 2.43.0 (0)
 -->
<!-- Title: CTimeSeries Pages: 1 -->
<svg width="252pt" height="152pt"
 viewBox="0.00 0.00 251.50 152.00" xmlns="http://www.w3.org/2000/svg" xmlns:xlink="http://www.w3.org/1999/xlink">
<g id="graph0" class="graph" transform="scale(1 1) rotate(0) translate(4 148)">
<title>CTimeSeries</title>
<polygon fill="white" stroke="transparent" points="-4,4 -4,-148 247.5,-148 247.5,4 -4,4"/>
<!-- Node1 -->
<g id="node1" class="node">
<title>Node1</title>
<g id="a_node1"><a xlink:title=" ">
<polygon fill="#bfbfbf" stroke="black" points="46,-0.5 46,-19.5 119,-19.5 119,-0.5 46,-0.5"/>
<text text-anchor="middle" x="82.5" y="-7.5" font-family="FreeSans" font-size="10.00">CTimeSeries</text>
</a>
</g>
</g>
<!-- Node2 -->
<g id="node2" class="node">
<title>Node2</title>
<g id="a_node2"><a xlink:href="../../d1/dc3/classCOutputInterface.html" target="_top" xlink:title=" ">
<polygon fill="white" stroke="black" points="0,-57.5 0,-76.5 91,-76.5 91,-57.5 0,-57.5"/>
<text text-anchor="middle" x="45.5" y="-64.5" font-family="FreeSans" font-size="10.00">COutputInterface</text>
</a>
</g>
</g>
<!-- Node2&#45;&gt;Node1 -->
<g id="edge1" class="edge">
<title>Node2&#45;&gt;Node1</title>
<path fill="none" stroke="midnightblue" d="M56.98,-48.94C63.49,-39.25 71.37,-27.54 76.64,-19.71"/>
<polygon fill="midnightblue" stroke="midnightblue" points="53.96,-47.16 51.28,-57.41 59.77,-51.06 53.96,-47.16"/>
</g>
<!-- Node3 -->
<g id="node3" class="node">
<title>Node3</title>
<g id="a_node3"><a xlink:href="../../d7/dd7/classCMatrix.html" target="_top" xlink:title=" ">
<polygon fill="white" stroke="black" points="109,-57.5 109,-76.5 230,-76.5 230,-57.5 109,-57.5"/>
<text text-anchor="middle" x="169.5" y="-64.5" font-family="FreeSans" font-size="10.00">CMatrix&lt; C_FLOAT64 &gt;</text>
</a>
</g>
</g>
<!-- Node3&#45;&gt;Node1 -->
<g id="edge2" class="edge">
<title>Node3&#45;&gt;Node1</title>
<path fill="none" stroke="darkgreen" d="M147.08,-51.82C130.91,-41.61 109.63,-28.15 96,-19.53"/>
<polygon fill="darkgreen" stroke="darkgreen" points="145.58,-55.02 155.91,-57.41 149.32,-49.1 145.58,-55.02"/>
</g>
<!-- Node4 -->
<g id="node4" class="node">
<title>Node4</title>
<g id="a_node4"><a xlink:href="../../d7/dd7/classCMatrix.html" target="_top" xlink:title=" ">
<polygon fill="white" stroke="black" points="122.5,-124.5 122.5,-143.5 216.5,-143.5 216.5,-124.5 122.5,-124.5"/>
<text text-anchor="middle" x="169.5" y="-131.5" font-family="FreeSans" font-size="10.00">CMatrix&lt; CType &gt;</text>
</a>
</g>
</g>
<!-- Node4&#45;&gt;Node3 -->
<g id="edge3" class="edge">
<title>Node4&#45;&gt;Node3</title>
<path fill="none" stroke="orange" stroke-dasharray="5,2" d="M169.5,-114.04C169.5,-101.67 169.5,-86.12 169.5,-76.63"/>
<polygon fill="orange" stroke="orange" points="166,-114.23 169.5,-124.23 173,-114.23 166,-114.23"/>
<text text-anchor="middle" x="206.5" y="-98" font-family="FreeSans" font-size="10.00"> &lt; C_FLOAT64 &gt;</text>
</g>
</g>
</svg>
