<?xml version="1.0" encoding="UTF-8" standalone="no"?>
<!DOCTYPE svg PUBLIC "-//W3C//DTD SVG 1.1//EN"
 "http://www.w3.org/Graphics/SVG/1.1/DTD/svg11.dtd">
<!-- Generated by graphviz version 2.43.0 (0)
 -->
<!-- Title: CopasiSBW Pages: 1 -->
<svg width="114pt" height="239pt"
 viewBox="0.00 0.00 114.00 239.00" xmlns="http://www.w3.org/2000/svg" xmlns:xlink="http://www.w3.org/1999/xlink">
<g id="graph0" class="graph" transform="scale(1 1) rotate(0) translate(4 235)">
<title>CopasiSBW</title>
<polygon fill="white" stroke="transparent" points="-4,4 -4,-235 110,-235 110,4 -4,4"/>
<g id="clust1" class="cluster">
<title>clusterdir_db7313a27b1cae523c7773e30bdf986c</title>
<g id="a_clust1"><a xlink:href="dir_db7313a27b1cae523c7773e30bdf986c.html" target="_top" xlink:title="copasi">
<polygon fill="#ddddee" stroke="black" points="8,-8 8,-223 98,-223 98,-8 8,-8"/>
<text text-anchor="middle" x="53" y="-211" font-family="FreeSans" font-size="10.00">copasi</text>
</a>
</g>
</g>
<!-- dir_aefcf59a6fdfc9bd7c340f12bedb31af -->
<g id="node1" class="node">
<title>dir_aefcf59a6fdfc9bd7c340f12bedb31af</title>
<g id="a_node1"><a xlink:href="dir_aefcf59a6fdfc9bd7c340f12bedb31af.html" target="_top" xlink:title="utilities">
<polygon fill="none" stroke="black" points="70,-124 16,-124 16,-88 70,-88 70,-124"/>
<text text-anchor="middle" x="43" y="-103.5" font-family="FreeSans" font-size="10.00">utilities</text>
</a>
</g>
</g>
<!-- dir_b9901e150939d9aa0c49934eef95a7bb -->
<g id="node2" class="node">
<title>dir_b9901e150939d9aa0c49934eef95a7bb</title>
<g id="a_node2"><a xlink:href="dir_b9901e150939d9aa0c49934eef95a7bb.html" target="_top" xlink:title="commandline">
<polygon fill="none" stroke="black" points="90,-52 16,-52 16,-16 90,-16 90,-52"/>
<text text-anchor="middle" x="53" y="-31.5" font-family="FreeSans" font-size="10.00">commandline</text>
</a>
</g>
</g>
<!-- dir_aefcf59a6fdfc9bd7c340f12bedb31af&#45;&gt;dir_b9901e150939d9aa0c49934eef95a7bb -->
<g id="edge1" class="edge">
<title>dir_aefcf59a6fdfc9bd7c340f12bedb31af&#45;&gt;dir_b9901e150939d9aa0c49934eef95a7bb</title>
<path fill="none" stroke="black" d="M39.56,-87.7C39.86,-79.98 40.96,-70.71 42.53,-62.11"/>
<polygon fill="black" stroke="black" points="46,-62.61 44.66,-52.1 39.16,-61.16 46,-62.61"/>
<g id="a_edge1&#45;headlabel"><a xlink:href="dir_000009_000014.html" target="_top" xlink:title="4">
<text text-anchor="middle" x="48.03" y="-64.22" font-family="FreeSans" font-size="10.00">4</text>
</a>
</g>
</g>
<!-- dir_b9901e150939d9aa0c49934eef95a7bb&#45;&gt;dir_aefcf59a6fdfc9bd7c340f12bedb31af -->
<g id="edge2" class="edge">
<title>dir_b9901e150939d9aa0c49934eef95a7bb&#45;&gt;dir_aefcf59a6fdfc9bd7c340f12bedb31af</title>
<path fill="none" stroke="black" d="M56.45,-52.1C56.16,-59.79 55.07,-69.05 53.51,-77.67"/>
<polygon fill="black" stroke="black" points="50.03,-77.19 51.39,-87.7 56.88,-78.64 50.03,-77.19"/>
<g id="a_edge2&#45;headlabel"><a xlink:href="dir_000014_000009.html" target="_top" xlink:title="7">
<text text-anchor="middle" x="48" y="-70.58" font-family="FreeSans" font-size="10.00">7</text>
</a>
</g>
</g>
<!-- dir_2c0f4036b6df0d9a2cac8b650d05e4a4 -->
<g id="node3" class="node">
<title>dir_2c0f4036b6df0d9a2cac8b650d05e4a4</title>
<g id="a_node3"><a xlink:href="dir_2c0f4036b6df0d9a2cac8b650d05e4a4.html" target="_top" xlink:title="CopasiSBW">
<polygon fill="#eeeeff" stroke="black" points="87.5,-196 18.5,-196 18.5,-160 87.5,-160 87.5,-196"/>
<text text-anchor="middle" x="53" y="-175.5" font-family="FreeSans" font-size="10.00">CopasiSBW</text>
</a>
</g>
</g>
<!-- dir_2c0f4036b6df0d9a2cac8b650d05e4a4&#45;&gt;dir_aefcf59a6fdfc9bd7c340f12bedb31af -->
<g id="edge3" class="edge">
<title>dir_2c0f4036b6df0d9a2cac8b650d05e4a4&#45;&gt;dir_aefcf59a6fdfc9bd7c340f12bedb31af</title>
<path fill="none" stroke="black" d="M50.53,-159.7C49.43,-151.98 48.1,-142.71 46.87,-134.11"/>
<polygon fill="black" stroke="black" points="50.32,-133.51 45.44,-124.1 43.39,-134.5 50.32,-133.51"/>
<g id="a_edge3&#45;headlabel"><a xlink:href="dir_000046_000009.html" target="_top" xlink:title="2">
<text text-anchor="middle" x="53.64" y="-134.17" font-family="FreeSans" font-size="10.00">2</text>
</a>
</g>
</g>
<!-- dir_2c0f4036b6df0d9a2cac8b650d05e4a4&#45;&gt;dir_b9901e150939d9aa0c49934eef95a7bb -->
<g id="edge4" class="edge">
<title>dir_2c0f4036b6df0d9a2cac8b650d05e4a4&#45;&gt;dir_b9901e150939d9aa0c49934eef95a7bb</title>
<path fill="none" stroke="black" d="M64.05,-159.61C69.74,-149.62 76.08,-136.58 79,-124 82.62,-108.41 82.62,-103.59 79,-88 76.9,-78.96 73.03,-69.68 68.91,-61.47"/>
<polygon fill="black" stroke="black" points="71.86,-59.55 64.05,-52.39 65.69,-62.86 71.86,-59.55"/>
<g id="a_edge4&#45;headlabel"><a xlink:href="dir_000046_000014.html" target="_top" xlink:title="1">
<text text-anchor="middle" x="76.06" y="-58.88" font-family="FreeSans" font-size="10.00">1</text>
</a>
</g>
</g>
</g>
</svg>
