<?xml version="1.0" encoding="UTF-8" standalone="no"?>
<!DOCTYPE svg PUBLIC "-//W3C//DTD SVG 1.1//EN"
 "http://www.w3.org/Graphics/SVG/1.1/DTD/svg11.dtd">
<!-- Generated by graphviz version 2.43.0 (0)
 -->
<!-- Title: MIRIAM Pages: 1 -->
<svg width="414pt" height="671pt"
 viewBox="0.00 0.00 414.00 671.00" xmlns="http://www.w3.org/2000/svg" xmlns:xlink="http://www.w3.org/1999/xlink">
<g id="graph0" class="graph" transform="scale(1 1) rotate(0) translate(4 667)">
<title>MIRIAM</title>
<polygon fill="white" stroke="transparent" points="-4,4 -4,-667 410,-667 410,4 -4,4"/>
<g id="clust1" class="cluster">
<title>clusterdir_db7313a27b1cae523c7773e30bdf986c</title>
<g id="a_clust1"><a xlink:href="dir_db7313a27b1cae523c7773e30bdf986c.html" target="_top" xlink:title="copasi">
<polygon fill="#ddddee" stroke="black" points="8,-8 8,-655 398,-655 398,-8 8,-8"/>
<text text-anchor="middle" x="203" y="-643" font-family="FreeSans" font-size="10.00">copasi</text>
</a>
</g>
</g>
<!-- dir_35addd29aafebb04e6caa45e6f26d04b -->
<g id="node1" class="node">
<title>dir_35addd29aafebb04e6caa45e6f26d04b</title>
<g id="a_node1"><a xlink:href="dir_35addd29aafebb04e6caa45e6f26d04b.html" target="_top" xlink:title="core">
<polygon fill="none" stroke="black" points="200,-628 146,-628 146,-592 200,-592 200,-628"/>
<text text-anchor="middle" x="173" y="-607.5" font-family="FreeSans" font-size="10.00">core</text>
</a>
</g>
</g>
<!-- dir_4ebd611d220344e85b5ba20d026188c7 -->
<g id="node2" class="node">
<title>dir_4ebd611d220344e85b5ba20d026188c7</title>
<g id="a_node2"><a xlink:href="dir_4ebd611d220344e85b5ba20d026188c7.html" target="_top" xlink:title="report">
<polygon fill="none" stroke="black" points="200,-556 146,-556 146,-520 200,-520 200,-556"/>
<text text-anchor="middle" x="173" y="-535.5" font-family="FreeSans" font-size="10.00">report</text>
</a>
</g>
</g>
<!-- dir_35addd29aafebb04e6caa45e6f26d04b&#45;&gt;dir_4ebd611d220344e85b5ba20d026188c7 -->
<g id="edge23" class="edge">
<title>dir_35addd29aafebb04e6caa45e6f26d04b&#45;&gt;dir_4ebd611d220344e85b5ba20d026188c7</title>
<path fill="none" stroke="black" d="M167.08,-591.7C166.29,-583.98 166.06,-574.71 166.4,-566.11"/>
<polygon fill="black" stroke="black" points="169.9,-566.32 167.1,-556.1 162.92,-565.84 169.9,-566.32"/>
<g id="a_edge23&#45;headlabel"><a xlink:href="dir_000008_000003.html" target="_top" xlink:title="3">
<text text-anchor="middle" x="172.48" y="-567.61" font-family="FreeSans" font-size="10.00">3</text>
</a>
</g>
</g>
<!-- dir_93b162d06b4c1cfd72a25a3b81dbdc2c -->
<g id="node3" class="node">
<title>dir_93b162d06b4c1cfd72a25a3b81dbdc2c</title>
<g id="a_node3"><a xlink:href="dir_93b162d06b4c1cfd72a25a3b81dbdc2c.html" target="_top" xlink:title="CopasiDataModel">
<polygon fill="none" stroke="black" points="239.5,-124 146.5,-124 146.5,-88 239.5,-88 239.5,-124"/>
<text text-anchor="middle" x="193" y="-103.5" font-family="FreeSans" font-size="10.00">CopasiDataModel</text>
</a>
</g>
</g>
<!-- dir_35addd29aafebb04e6caa45e6f26d04b&#45;&gt;dir_93b162d06b4c1cfd72a25a3b81dbdc2c -->
<g id="edge24" class="edge">
<title>dir_35addd29aafebb04e6caa45e6f26d04b&#45;&gt;dir_93b162d06b4c1cfd72a25a3b81dbdc2c</title>
<path fill="none" stroke="black" d="M145.89,-598.8C103.71,-579.15 28,-532.2 28,-467 28,-467 28,-467 28,-321 28,-242.43 49.54,-219.37 101,-160 111.66,-147.7 125.88,-137.21 139.99,-128.9"/>
<polygon fill="black" stroke="black" points="141.72,-131.94 148.73,-124 138.3,-125.83 141.72,-131.94"/>
<g id="a_edge24&#45;headlabel"><a xlink:href="dir_000008_000019.html" target="_top" xlink:title="5">
<text text-anchor="middle" x="139.97" y="-133.67" font-family="FreeSans" font-size="10.00">5</text>
</a>
</g>
</g>
<!-- dir_9d5eda6d4cabe7ed4bd8d4e297f3e4b6 -->
<g id="node4" class="node">
<title>dir_9d5eda6d4cabe7ed4bd8d4e297f3e4b6</title>
<g id="a_node4"><a xlink:href="dir_9d5eda6d4cabe7ed4bd8d4e297f3e4b6.html" target="_top" xlink:title="undo">
<polygon fill="none" stroke="black" points="220,-52 166,-52 166,-16 220,-16 220,-52"/>
<text text-anchor="middle" x="193" y="-31.5" font-family="FreeSans" font-size="10.00">undo</text>
</a>
</g>
</g>
<!-- dir_35addd29aafebb04e6caa45e6f26d04b&#45;&gt;dir_9d5eda6d4cabe7ed4bd8d4e297f3e4b6 -->
<g id="edge25" class="edge">
<title>dir_35addd29aafebb04e6caa45e6f26d04b&#45;&gt;dir_9d5eda6d4cabe7ed4bd8d4e297f3e4b6</title>
<path fill="none" stroke="black" d="M145.8,-604.97C116.36,-598.82 70.59,-584.67 43,-556 13.52,-525.38 8,-509.5 8,-467 8,-467 8,-467 8,-177 8,-130.5 27.89,-118.49 63,-88 89.53,-64.97 127.63,-50.52 155.89,-42.63"/>
<polygon fill="black" stroke="black" points="157.04,-45.95 165.82,-40.02 155.25,-39.18 157.04,-45.95"/>
<g id="a_edge25&#45;headlabel"><a xlink:href="dir_000008_000018.html" target="_top" xlink:title="5">
<text text-anchor="middle" x="154.28" y="-47.11" font-family="FreeSans" font-size="10.00">5</text>
</a>
</g>
</g>
<!-- dir_aefcf59a6fdfc9bd7c340f12bedb31af -->
<g id="node5" class="node">
<title>dir_aefcf59a6fdfc9bd7c340f12bedb31af</title>
<g id="a_node5"><a xlink:href="dir_aefcf59a6fdfc9bd7c340f12bedb31af.html" target="_top" xlink:title="utilities">
<polygon fill="none" stroke="black" points="296,-268 242,-268 242,-232 296,-232 296,-268"/>
<text text-anchor="middle" x="269" y="-247.5" font-family="FreeSans" font-size="10.00">utilities</text>
</a>
</g>
</g>
<!-- dir_35addd29aafebb04e6caa45e6f26d04b&#45;&gt;dir_aefcf59a6fdfc9bd7c340f12bedb31af -->
<g id="edge26" class="edge">
<title>dir_35addd29aafebb04e6caa45e6f26d04b&#45;&gt;dir_aefcf59a6fdfc9bd7c340f12bedb31af</title>
<path fill="none" stroke="black" d="M190.4,-591.92C215.42,-570.4 259.51,-530.55 277,-484 303.49,-413.5 282.61,-322.68 272.57,-278.12"/>
<polygon fill="black" stroke="black" points="275.93,-277.08 270.34,-268.08 269.09,-278.6 275.93,-277.08"/>
<g id="a_edge26&#45;headlabel"><a xlink:href="dir_000008_000009.html" target="_top" xlink:title="13">
<text text-anchor="middle" x="279.48" y="-277.47" font-family="FreeSans" font-size="10.00">13</text>
</a>
</g>
</g>
<!-- dir_b9901e150939d9aa0c49934eef95a7bb -->
<g id="node6" class="node">
<title>dir_b9901e150939d9aa0c49934eef95a7bb</title>
<g id="a_node6"><a xlink:href="dir_b9901e150939d9aa0c49934eef95a7bb.html" target="_top" xlink:title="commandline">
<polygon fill="none" stroke="black" points="230,-196 156,-196 156,-160 230,-160 230,-196"/>
<text text-anchor="middle" x="193" y="-175.5" font-family="FreeSans" font-size="10.00">commandline</text>
</a>
</g>
</g>
<!-- dir_35addd29aafebb04e6caa45e6f26d04b&#45;&gt;dir_b9901e150939d9aa0c49934eef95a7bb -->
<g id="edge27" class="edge">
<title>dir_35addd29aafebb04e6caa45e6f26d04b&#45;&gt;dir_b9901e150939d9aa0c49934eef95a7bb</title>
<path fill="none" stroke="black" d="M151.22,-591.83C122.89,-567.39 77,-519.67 77,-467 77,-467 77,-467 77,-321 77,-269.79 122.81,-226.87 156.85,-202.04"/>
<polygon fill="black" stroke="black" points="159.07,-204.75 165.22,-196.12 155.03,-199.04 159.07,-204.75"/>
<g id="a_edge27&#45;headlabel"><a xlink:href="dir_000008_000014.html" target="_top" xlink:title="2">
<text text-anchor="middle" x="157.78" y="-206.65" font-family="FreeSans" font-size="10.00">2</text>
</a>
</g>
</g>
<!-- dir_e4d5a5ad095028ae0129065cd60b3253 -->
<g id="node7" class="node">
<title>dir_e4d5a5ad095028ae0129065cd60b3253</title>
<g id="a_node7"><a xlink:href="dir_e4d5a5ad095028ae0129065cd60b3253.html" target="_top" xlink:title="model">
<polygon fill="none" stroke="black" points="277,-484 223,-484 223,-448 277,-448 277,-484"/>
<text text-anchor="middle" x="250" y="-463.5" font-family="FreeSans" font-size="10.00">model</text>
</a>
</g>
</g>
<!-- dir_35addd29aafebb04e6caa45e6f26d04b&#45;&gt;dir_e4d5a5ad095028ae0129065cd60b3253 -->
<g id="edge28" class="edge">
<title>dir_35addd29aafebb04e6caa45e6f26d04b&#45;&gt;dir_e4d5a5ad095028ae0129065cd60b3253</title>
<path fill="none" stroke="black" d="M177.87,-591.8C184,-581.65 193,-568.4 200,-556 211.51,-535.63 222.48,-511.46 231.57,-493.45"/>
<polygon fill="black" stroke="black" points="234.91,-494.63 236.42,-484.14 228.7,-491.4 234.91,-494.63"/>
<g id="a_edge28&#45;headlabel"><a xlink:href="dir_000008_000007.html" target="_top" xlink:title="2">
<text text-anchor="middle" x="235.76" y="-496.63" font-family="FreeSans" font-size="10.00">2</text>
</a>
</g>
</g>
<!-- dir_f4b573509b6a610b6536470b1c19f9ed -->
<g id="node8" class="node">
<title>dir_f4b573509b6a610b6536470b1c19f9ed</title>
<g id="a_node8"><a xlink:href="dir_f4b573509b6a610b6536470b1c19f9ed.html" target="_top" xlink:title="function">
<polygon fill="none" stroke="black" points="370,-340 316,-340 316,-304 370,-304 370,-340"/>
<text text-anchor="middle" x="343" y="-319.5" font-family="FreeSans" font-size="10.00">function</text>
</a>
</g>
</g>
<!-- dir_35addd29aafebb04e6caa45e6f26d04b&#45;&gt;dir_f4b573509b6a610b6536470b1c19f9ed -->
<g id="edge29" class="edge">
<title>dir_35addd29aafebb04e6caa45e6f26d04b&#45;&gt;dir_f4b573509b6a610b6536470b1c19f9ed</title>
<path fill="none" stroke="black" d="M200.31,-608.49C235.57,-605.91 295.34,-595.37 325,-556 370.99,-494.96 354.04,-397.23 345.58,-350.12"/>
<polygon fill="black" stroke="black" points="348.99,-349.31 343.8,-340.08 342.1,-350.54 348.99,-349.31"/>
<g id="a_edge29&#45;headlabel"><a xlink:href="dir_000008_000012.html" target="_top" xlink:title="8">
<text text-anchor="middle" x="352.42" y="-349.85" font-family="FreeSans" font-size="10.00">8</text>
</a>
</g>
</g>
<!-- dir_4578f8d57894f4e0119130e5be5cacb4 -->
<g id="node9" class="node">
<title>dir_4578f8d57894f4e0119130e5be5cacb4</title>
<g id="a_node9"><a xlink:href="dir_4578f8d57894f4e0119130e5be5cacb4.html" target="_top" xlink:title="MIRIAM">
<polygon fill="#eeeeff" stroke="black" points="190,-412 136,-412 136,-376 190,-376 190,-412"/>
<text text-anchor="middle" x="163" y="-391.5" font-family="FreeSans" font-size="10.00">MIRIAM</text>
</a>
</g>
</g>
<!-- dir_35addd29aafebb04e6caa45e6f26d04b&#45;&gt;dir_4578f8d57894f4e0119130e5be5cacb4 -->
<g id="edge22" class="edge">
<title>dir_35addd29aafebb04e6caa45e6f26d04b&#45;&gt;dir_4578f8d57894f4e0119130e5be5cacb4</title>
<path fill="none" stroke="black" d="M149.41,-591.77C140.63,-582.03 132.05,-569.18 128,-556 113.82,-509.89 130.03,-453.84 145.11,-421.51"/>
<polygon fill="black" stroke="black" points="148.39,-422.79 149.72,-412.27 142.13,-419.66 148.39,-422.79"/>
<g id="a_edge22&#45;headlabel"><a xlink:href="dir_000008_000010.html" target="_top" xlink:title="2">
<text text-anchor="middle" x="149.33" y="-424.77" font-family="FreeSans" font-size="10.00">2</text>
</a>
</g>
</g>
<!-- dir_4ebd611d220344e85b5ba20d026188c7&#45;&gt;dir_35addd29aafebb04e6caa45e6f26d04b -->
<g id="edge16" class="edge">
<title>dir_4ebd611d220344e85b5ba20d026188c7&#45;&gt;dir_35addd29aafebb04e6caa45e6f26d04b</title>
<path fill="none" stroke="black" d="M178.9,-556.1C179.7,-563.79 179.94,-573.05 179.6,-581.67"/>
<polygon fill="black" stroke="black" points="176.11,-581.48 178.92,-591.7 183.09,-581.96 176.11,-581.48"/>
<g id="a_edge16&#45;headlabel"><a xlink:href="dir_000003_000008.html" target="_top" xlink:title="21">
<text text-anchor="middle" x="173.52" y="-575.2" font-family="FreeSans" font-size="10.00">21</text>
</a>
</g>
</g>
<!-- dir_4ebd611d220344e85b5ba20d026188c7&#45;&gt;dir_93b162d06b4c1cfd72a25a3b81dbdc2c -->
<g id="edge17" class="edge">
<title>dir_4ebd611d220344e85b5ba20d026188c7&#45;&gt;dir_93b162d06b4c1cfd72a25a3b81dbdc2c</title>
<path fill="none" stroke="black" d="M150.59,-519.77C125.16,-494.53 88,-445.05 88,-395 88,-395 88,-395 88,-321 88,-247.68 86.7,-223.13 124,-160 130.64,-148.76 140.48,-138.64 150.72,-130.32"/>
<polygon fill="black" stroke="black" points="153.13,-132.89 158.97,-124.06 148.89,-127.32 153.13,-132.89"/>
<g id="a_edge17&#45;headlabel"><a xlink:href="dir_000003_000019.html" target="_top" xlink:title="3">
<text text-anchor="middle" x="151.98" y="-134.83" font-family="FreeSans" font-size="10.00">3</text>
</a>
</g>
</g>
<!-- dir_4ebd611d220344e85b5ba20d026188c7&#45;&gt;dir_9d5eda6d4cabe7ed4bd8d4e297f3e4b6 -->
<g id="edge18" class="edge">
<title>dir_4ebd611d220344e85b5ba20d026188c7&#45;&gt;dir_9d5eda6d4cabe7ed4bd8d4e297f3e4b6</title>
<path fill="none" stroke="black" d="M145.8,-520.28C111.52,-496.87 57,-450.87 57,-395 57,-395 57,-395 57,-177 57,-119.08 116.74,-75.56 157.03,-52.8"/>
<polygon fill="black" stroke="black" points="158.72,-55.86 165.81,-47.99 155.35,-49.72 158.72,-55.86"/>
<g id="a_edge18&#45;headlabel"><a xlink:href="dir_000003_000018.html" target="_top" xlink:title="1">
<text text-anchor="middle" x="156.93" y="-57.58" font-family="FreeSans" font-size="10.00">1</text>
</a>
</g>
</g>
<!-- dir_4ebd611d220344e85b5ba20d026188c7&#45;&gt;dir_aefcf59a6fdfc9bd7c340f12bedb31af -->
<g id="edge19" class="edge">
<title>dir_4ebd611d220344e85b5ba20d026188c7&#45;&gt;dir_aefcf59a6fdfc9bd7c340f12bedb31af</title>
<path fill="none" stroke="black" d="M175.3,-519.97C187.18,-472.09 232.6,-336.06 255.82,-277.9"/>
<polygon fill="black" stroke="black" points="259.2,-278.89 259.75,-268.31 252.73,-276.23 259.2,-278.89"/>
<g id="a_edge19&#45;headlabel"><a xlink:href="dir_000003_000009.html" target="_top" xlink:title="11">
<text text-anchor="middle" x="260.47" y="-280.79" font-family="FreeSans" font-size="10.00">11</text>
</a>
</g>
</g>
<!-- dir_4ebd611d220344e85b5ba20d026188c7&#45;&gt;dir_b9901e150939d9aa0c49934eef95a7bb -->
<g id="edge20" class="edge">
<title>dir_4ebd611d220344e85b5ba20d026188c7&#45;&gt;dir_b9901e150939d9aa0c49934eef95a7bb</title>
<path fill="none" stroke="black" d="M164.42,-519.75C153.2,-496.12 134.14,-452.07 127,-412 113.36,-335.42 153.9,-247.84 177.44,-205.15"/>
<polygon fill="black" stroke="black" points="180.59,-206.69 182.46,-196.26 174.5,-203.25 180.59,-206.69"/>
<g id="a_edge20&#45;headlabel"><a xlink:href="dir_000003_000014.html" target="_top" xlink:title="2">
<text text-anchor="middle" x="181.3" y="-208.71" font-family="FreeSans" font-size="10.00">2</text>
</a>
</g>
</g>
<!-- dir_4ebd611d220344e85b5ba20d026188c7&#45;&gt;dir_e4d5a5ad095028ae0129065cd60b3253 -->
<g id="edge21" class="edge">
<title>dir_4ebd611d220344e85b5ba20d026188c7&#45;&gt;dir_e4d5a5ad095028ae0129065cd60b3253</title>
<path fill="none" stroke="black" d="M186.12,-519.7C194.82,-510.97 206.45,-500.24 217.44,-490.75"/>
<polygon fill="black" stroke="black" points="219.92,-493.24 225.29,-484.1 215.4,-487.9 219.92,-493.24"/>
<g id="a_edge21&#45;headlabel"><a xlink:href="dir_000003_000007.html" target="_top" xlink:title="2">
<text text-anchor="middle" x="219.01" y="-495.23" font-family="FreeSans" font-size="10.00">2</text>
</a>
</g>
</g>
<!-- dir_93b162d06b4c1cfd72a25a3b81dbdc2c&#45;&gt;dir_35addd29aafebb04e6caa45e6f26d04b -->
<g id="edge45" class="edge">
<title>dir_93b162d06b4c1cfd72a25a3b81dbdc2c&#45;&gt;dir_35addd29aafebb04e6caa45e6f26d04b</title>
<path fill="none" stroke="black" d="M165.1,-124C149.93,-132.94 131.88,-145.14 119,-160 67.54,-219.37 46,-242.43 46,-321 46,-467 46,-467 46,-467 46,-521.83 99.54,-563.76 137.21,-587.39"/>
<polygon fill="black" stroke="black" points="135.57,-590.49 145.93,-592.72 139.22,-584.51 135.57,-590.49"/>
<g id="a_edge45&#45;headlabel"><a xlink:href="dir_000019_000008.html" target="_top" xlink:title="7">
<text text-anchor="middle" x="131.02" y="-588.54" font-family="FreeSans" font-size="10.00">7</text>
</a>
</g>
</g>
<!-- dir_93b162d06b4c1cfd72a25a3b81dbdc2c&#45;&gt;dir_4ebd611d220344e85b5ba20d026188c7 -->
<g id="edge47" class="edge">
<title>dir_93b162d06b4c1cfd72a25a3b81dbdc2c&#45;&gt;dir_4ebd611d220344e85b5ba20d026188c7</title>
<path fill="none" stroke="black" d="M175.17,-124.06C163.97,-133.31 150.41,-145.76 142,-160 104.7,-223.13 106,-247.68 106,-321 106,-395 106,-395 106,-395 106,-440.16 136.25,-484.86 156.32,-511.71"/>
<polygon fill="black" stroke="black" points="153.61,-513.91 162.43,-519.77 159.19,-509.69 153.61,-513.91"/>
<g id="a_edge47&#45;headlabel"><a xlink:href="dir_000019_000003.html" target="_top" xlink:title="2">
<text text-anchor="middle" x="149.17" y="-510.26" font-family="FreeSans" font-size="10.00">2</text>
</a>
</g>
</g>
<!-- dir_93b162d06b4c1cfd72a25a3b81dbdc2c&#45;&gt;dir_9d5eda6d4cabe7ed4bd8d4e297f3e4b6 -->
<g id="edge48" class="edge">
<title>dir_93b162d06b4c1cfd72a25a3b81dbdc2c&#45;&gt;dir_9d5eda6d4cabe7ed4bd8d4e297f3e4b6</title>
<path fill="none" stroke="black" d="M187.08,-87.7C186.29,-79.98 186.06,-70.71 186.4,-62.11"/>
<polygon fill="black" stroke="black" points="189.9,-62.32 187.1,-52.1 182.92,-61.84 189.9,-62.32"/>
<g id="a_edge48&#45;headlabel"><a xlink:href="dir_000019_000018.html" target="_top" xlink:title="2">
<text text-anchor="middle" x="192.48" y="-63.61" font-family="FreeSans" font-size="10.00">2</text>
</a>
</g>
</g>
<!-- dir_93b162d06b4c1cfd72a25a3b81dbdc2c&#45;&gt;dir_aefcf59a6fdfc9bd7c340f12bedb31af -->
<g id="edge49" class="edge">
<title>dir_93b162d06b4c1cfd72a25a3b81dbdc2c&#45;&gt;dir_aefcf59a6fdfc9bd7c340f12bedb31af</title>
<path fill="none" stroke="black" d="M228.13,-124.01C241.31,-133.17 254.9,-145.56 263,-160 273.57,-178.85 277.11,-203.22 276.71,-221.7"/>
<polygon fill="black" stroke="black" points="273.21,-221.6 276.05,-231.81 280.19,-222.06 273.21,-221.6"/>
<g id="a_edge49&#45;headlabel"><a xlink:href="dir_000019_000009.html" target="_top" xlink:title="9">
<text text-anchor="middle" x="270.61" y="-215.32" font-family="FreeSans" font-size="10.00">9</text>
</a>
</g>
</g>
<!-- dir_93b162d06b4c1cfd72a25a3b81dbdc2c&#45;&gt;dir_b9901e150939d9aa0c49934eef95a7bb -->
<g id="edge50" class="edge">
<title>dir_93b162d06b4c1cfd72a25a3b81dbdc2c&#45;&gt;dir_b9901e150939d9aa0c49934eef95a7bb</title>
<path fill="none" stroke="black" d="M198.9,-124.1C199.7,-131.79 199.94,-141.05 199.6,-149.67"/>
<polygon fill="black" stroke="black" points="196.11,-149.48 198.92,-159.7 203.09,-149.96 196.11,-149.48"/>
<g id="a_edge50&#45;headlabel"><a xlink:href="dir_000019_000014.html" target="_top" xlink:title="4">
<text text-anchor="middle" x="193.52" y="-143.2" font-family="FreeSans" font-size="10.00">4</text>
</a>
</g>
</g>
<!-- dir_93b162d06b4c1cfd72a25a3b81dbdc2c&#45;&gt;dir_e4d5a5ad095028ae0129065cd60b3253 -->
<g id="edge51" class="edge">
<title>dir_93b162d06b4c1cfd72a25a3b81dbdc2c&#45;&gt;dir_e4d5a5ad095028ae0129065cd60b3253</title>
<path fill="none" stroke="black" d="M221.63,-124.15C232.28,-133.59 242.84,-146.19 248,-160 259.23,-190.08 244.65,-200 242,-232 235.85,-306.34 247.31,-394.12 250.91,-437.66"/>
<polygon fill="black" stroke="black" points="247.43,-438.02 251.65,-447.75 254.41,-437.52 247.43,-438.02"/>
<g id="a_edge51&#45;headlabel"><a xlink:href="dir_000019_000007.html" target="_top" xlink:title="4">
<text text-anchor="middle" x="244.34" y="-432.15" font-family="FreeSans" font-size="10.00">4</text>
</a>
</g>
</g>
<!-- dir_93b162d06b4c1cfd72a25a3b81dbdc2c&#45;&gt;dir_f4b573509b6a610b6536470b1c19f9ed -->
<g id="edge52" class="edge">
<title>dir_93b162d06b4c1cfd72a25a3b81dbdc2c&#45;&gt;dir_f4b573509b6a610b6536470b1c19f9ed</title>
<path fill="none" stroke="black" d="M229.18,-124.03C244.14,-133.45 260.68,-146.05 273,-160 308.68,-200.39 332.23,-259.77 340.95,-293.99"/>
<polygon fill="black" stroke="black" points="337.55,-294.78 343.18,-303.75 344.37,-293.22 337.55,-294.78"/>
<g id="a_edge52&#45;headlabel"><a xlink:href="dir_000019_000012.html" target="_top" xlink:title="1">
<text text-anchor="middle" x="333.98" y="-289.41" font-family="FreeSans" font-size="10.00">1</text>
</a>
</g>
</g>
<!-- dir_93b162d06b4c1cfd72a25a3b81dbdc2c&#45;&gt;dir_4578f8d57894f4e0119130e5be5cacb4 -->
<g id="edge46" class="edge">
<title>dir_93b162d06b4c1cfd72a25a3b81dbdc2c&#45;&gt;dir_4578f8d57894f4e0119130e5be5cacb4</title>
<path fill="none" stroke="black" d="M180.25,-124.38C171.54,-133.8 161.11,-146.3 156,-160 129.66,-230.53 149.95,-321.33 159.65,-365.89"/>
<polygon fill="black" stroke="black" points="156.28,-366.88 161.8,-375.93 163.13,-365.42 156.28,-366.88"/>
<g id="a_edge46&#45;headlabel"><a xlink:href="dir_000019_000010.html" target="_top" xlink:title="1">
<text text-anchor="middle" x="152.75" y="-361.46" font-family="FreeSans" font-size="10.00">1</text>
</a>
</g>
</g>
<!-- dir_9d5eda6d4cabe7ed4bd8d4e297f3e4b6&#45;&gt;dir_35addd29aafebb04e6caa45e6f26d04b -->
<g id="edge41" class="edge">
<title>dir_9d5eda6d4cabe7ed4bd8d4e297f3e4b6&#45;&gt;dir_35addd29aafebb04e6caa45e6f26d04b</title>
<path fill="none" stroke="black" d="M165.76,-44.04C141.35,-52.19 106.02,-66.27 81,-88 45.89,-118.49 26,-130.5 26,-177 26,-467 26,-467 26,-467 26,-509.5 31.52,-525.38 61,-556 81.55,-577.35 112.18,-590.65 136.32,-598.58"/>
<polygon fill="black" stroke="black" points="135.29,-601.93 145.88,-601.57 137.38,-595.25 135.29,-601.93"/>
<g id="a_edge41&#45;headlabel"><a xlink:href="dir_000018_000008.html" target="_top" xlink:title="7">
<text text-anchor="middle" x="131.02" y="-601.07" font-family="FreeSans" font-size="10.00">7</text>
</a>
</g>
</g>
<!-- dir_9d5eda6d4cabe7ed4bd8d4e297f3e4b6&#45;&gt;dir_93b162d06b4c1cfd72a25a3b81dbdc2c -->
<g id="edge42" class="edge">
<title>dir_9d5eda6d4cabe7ed4bd8d4e297f3e4b6&#45;&gt;dir_93b162d06b4c1cfd72a25a3b81dbdc2c</title>
<path fill="none" stroke="black" d="M198.9,-52.1C199.7,-59.79 199.94,-69.05 199.6,-77.67"/>
<polygon fill="black" stroke="black" points="196.11,-77.48 198.92,-87.7 203.09,-77.96 196.11,-77.48"/>
<g id="a_edge42&#45;headlabel"><a xlink:href="dir_000018_000019.html" target="_top" xlink:title="2">
<text text-anchor="middle" x="193.52" y="-71.2" font-family="FreeSans" font-size="10.00">2</text>
</a>
</g>
</g>
<!-- dir_9d5eda6d4cabe7ed4bd8d4e297f3e4b6&#45;&gt;dir_aefcf59a6fdfc9bd7c340f12bedb31af -->
<g id="edge43" class="edge">
<title>dir_9d5eda6d4cabe7ed4bd8d4e297f3e4b6&#45;&gt;dir_aefcf59a6fdfc9bd7c340f12bedb31af</title>
<path fill="none" stroke="black" d="M220.18,-48.54C233.88,-58.14 249.13,-72.1 258,-88 281.54,-130.16 282.52,-188.06 277.9,-221.71"/>
<polygon fill="black" stroke="black" points="274.42,-221.29 276.22,-231.73 281.32,-222.45 274.42,-221.29"/>
<g id="a_edge43&#45;headlabel"><a xlink:href="dir_000018_000009.html" target="_top" xlink:title="4">
<text text-anchor="middle" x="272.21" y="-214.78" font-family="FreeSans" font-size="10.00">4</text>
</a>
</g>
</g>
<!-- dir_9d5eda6d4cabe7ed4bd8d4e297f3e4b6&#45;&gt;dir_e4d5a5ad095028ae0129065cd60b3253 -->
<g id="edge44" class="edge">
<title>dir_9d5eda6d4cabe7ed4bd8d4e297f3e4b6&#45;&gt;dir_e4d5a5ad095028ae0129065cd60b3253</title>
<path fill="none" stroke="black" d="M220.06,-39.96C275.97,-52.78 398,-92.12 398,-177 398,-251 398,-251 398,-251 398,-290.8 405.55,-304.27 388,-340 365.41,-385.99 318.67,-424.44 285.71,-446.08"/>
<polygon fill="black" stroke="black" points="283.8,-443.16 277.24,-451.48 287.55,-449.06 283.8,-443.16"/>
<g id="a_edge44&#45;headlabel"><a xlink:href="dir_000018_000007.html" target="_top" xlink:title="3">
<text text-anchor="middle" x="285.31" y="-436.33" font-family="FreeSans" font-size="10.00">3</text>
</a>
</g>
</g>
<!-- dir_aefcf59a6fdfc9bd7c340f12bedb31af&#45;&gt;dir_35addd29aafebb04e6caa45e6f26d04b -->
<g id="edge9" class="edge">
<title>dir_aefcf59a6fdfc9bd7c340f12bedb31af&#45;&gt;dir_35addd29aafebb04e6caa45e6f26d04b</title>
<path fill="none" stroke="black" d="M279.63,-268.08C296.84,-307.57 323.67,-407.69 295,-484 278.49,-527.93 238.3,-565.89 208.38,-588.11"/>
<polygon fill="black" stroke="black" points="206.32,-585.28 200.24,-593.95 210.4,-590.96 206.32,-585.28"/>
<g id="a_edge9&#45;headlabel"><a xlink:href="dir_000009_000008.html" target="_top" xlink:title="46">
<text text-anchor="middle" x="207.59" y="-578.37" font-family="FreeSans" font-size="10.00">46</text>
</a>
</g>
</g>
<!-- dir_aefcf59a6fdfc9bd7c340f12bedb31af&#45;&gt;dir_4ebd611d220344e85b5ba20d026188c7 -->
<g id="edge10" class="edge">
<title>dir_aefcf59a6fdfc9bd7c340f12bedb31af&#45;&gt;dir_4ebd611d220344e85b5ba20d026188c7</title>
<path fill="none" stroke="black" d="M266.63,-268.31C254.62,-316.51 209.18,-452.56 186.05,-510.43"/>
<polygon fill="black" stroke="black" points="182.69,-509.39 182.13,-519.97 189.16,-512.04 182.69,-509.39"/>
<g id="a_edge10&#45;headlabel"><a xlink:href="dir_000009_000003.html" target="_top" xlink:title="7">
<text text-anchor="middle" x="181.43" y="-502.48" font-family="FreeSans" font-size="10.00">7</text>
</a>
</g>
</g>
<!-- dir_aefcf59a6fdfc9bd7c340f12bedb31af&#45;&gt;dir_93b162d06b4c1cfd72a25a3b81dbdc2c -->
<g id="edge11" class="edge">
<title>dir_aefcf59a6fdfc9bd7c340f12bedb31af&#45;&gt;dir_93b162d06b4c1cfd72a25a3b81dbdc2c</title>
<path fill="none" stroke="black" d="M262.87,-231.81C260.22,-213 257.65,-182.55 245,-160 238.67,-148.72 228.99,-138.69 219.61,-130.48"/>
<polygon fill="black" stroke="black" points="221.8,-127.74 211.89,-124.01 217.31,-133.11 221.8,-127.74"/>
<g id="a_edge11&#45;headlabel"><a xlink:href="dir_000009_000019.html" target="_top" xlink:title="4">
<text text-anchor="middle" x="226.38" y="-125.37" font-family="FreeSans" font-size="10.00">4</text>
</a>
</g>
</g>
<!-- dir_aefcf59a6fdfc9bd7c340f12bedb31af&#45;&gt;dir_9d5eda6d4cabe7ed4bd8d4e297f3e4b6 -->
<g id="edge12" class="edge">
<title>dir_aefcf59a6fdfc9bd7c340f12bedb31af&#45;&gt;dir_9d5eda6d4cabe7ed4bd8d4e297f3e4b6</title>
<path fill="none" stroke="black" d="M265.58,-231.73C264.47,-200.78 266.09,-134.73 240,-88 233.94,-77.15 224.92,-67.2 216.3,-58.93"/>
<polygon fill="black" stroke="black" points="218.64,-56.32 208.92,-52.11 213.89,-61.46 218.64,-56.32"/>
<g id="a_edge12&#45;headlabel"><a xlink:href="dir_000009_000018.html" target="_top" xlink:title="5">
<text text-anchor="middle" x="223.21" y="-54.18" font-family="FreeSans" font-size="10.00">5</text>
</a>
</g>
</g>
<!-- dir_aefcf59a6fdfc9bd7c340f12bedb31af&#45;&gt;dir_b9901e150939d9aa0c49934eef95a7bb -->
<g id="edge13" class="edge">
<title>dir_aefcf59a6fdfc9bd7c340f12bedb31af&#45;&gt;dir_b9901e150939d9aa0c49934eef95a7bb</title>
<path fill="none" stroke="black" d="M244.3,-231.7C234.12,-223.14 222.56,-212.66 212.93,-203.3"/>
<polygon fill="black" stroke="black" points="215.24,-200.67 205.68,-196.1 210.3,-205.63 215.24,-200.67"/>
<g id="a_edge13&#45;headlabel"><a xlink:href="dir_000009_000014.html" target="_top" xlink:title="4">
<text text-anchor="middle" x="219.79" y="-198.69" font-family="FreeSans" font-size="10.00">4</text>
</a>
</g>
</g>
<!-- dir_aefcf59a6fdfc9bd7c340f12bedb31af&#45;&gt;dir_e4d5a5ad095028ae0129065cd60b3253 -->
<g id="edge14" class="edge">
<title>dir_aefcf59a6fdfc9bd7c340f12bedb31af&#45;&gt;dir_e4d5a5ad095028ae0129065cd60b3253</title>
<path fill="none" stroke="black" d="M274.46,-268.07C275.41,-285.99 273.18,-314.99 271,-340 268.06,-373.64 264.29,-412.32 259.77,-437.64"/>
<polygon fill="black" stroke="black" points="256.3,-437.13 257.79,-447.62 263.17,-438.49 256.3,-437.13"/>
<g id="a_edge14&#45;headlabel"><a xlink:href="dir_000009_000007.html" target="_top" xlink:title="11">
<text text-anchor="middle" x="254.22" y="-430.55" font-family="FreeSans" font-size="10.00">11</text>
</a>
</g>
</g>
<!-- dir_aefcf59a6fdfc9bd7c340f12bedb31af&#45;&gt;dir_f4b573509b6a610b6536470b1c19f9ed -->
<g id="edge15" class="edge">
<title>dir_aefcf59a6fdfc9bd7c340f12bedb31af&#45;&gt;dir_f4b573509b6a610b6536470b1c19f9ed</title>
<path fill="none" stroke="black" d="M292.98,-268.1C302.89,-276.64 314.15,-287.11 323.55,-296.48"/>
<polygon fill="black" stroke="black" points="321.12,-299 330.62,-303.7 326.12,-294.1 321.12,-299"/>
<g id="a_edge15&#45;headlabel"><a xlink:href="dir_000009_000012.html" target="_top" xlink:title="2">
<text text-anchor="middle" x="316.58" y="-295.92" font-family="FreeSans" font-size="10.00">2</text>
</a>
</g>
</g>
<!-- dir_b9901e150939d9aa0c49934eef95a7bb&#45;&gt;dir_93b162d06b4c1cfd72a25a3b81dbdc2c -->
<g id="edge39" class="edge">
<title>dir_b9901e150939d9aa0c49934eef95a7bb&#45;&gt;dir_93b162d06b4c1cfd72a25a3b81dbdc2c</title>
<path fill="none" stroke="black" d="M187.08,-159.7C186.29,-151.98 186.06,-142.71 186.4,-134.11"/>
<polygon fill="black" stroke="black" points="189.9,-134.32 187.1,-124.1 182.92,-133.84 189.9,-134.32"/>
<g id="a_edge39&#45;headlabel"><a xlink:href="dir_000014_000019.html" target="_top" xlink:title="1">
<text text-anchor="middle" x="192.48" y="-135.61" font-family="FreeSans" font-size="10.00">1</text>
</a>
</g>
</g>
<!-- dir_b9901e150939d9aa0c49934eef95a7bb&#45;&gt;dir_aefcf59a6fdfc9bd7c340f12bedb31af -->
<g id="edge40" class="edge">
<title>dir_b9901e150939d9aa0c49934eef95a7bb&#45;&gt;dir_aefcf59a6fdfc9bd7c340f12bedb31af</title>
<path fill="none" stroke="black" d="M217.47,-196.1C227.62,-204.64 239.19,-215.11 248.85,-224.48"/>
<polygon fill="black" stroke="black" points="246.56,-227.14 256.13,-231.7 251.49,-222.17 246.56,-227.14"/>
<g id="a_edge40&#45;headlabel"><a xlink:href="dir_000014_000009.html" target="_top" xlink:title="7">
<text text-anchor="middle" x="242.01" y="-224.13" font-family="FreeSans" font-size="10.00">7</text>
</a>
</g>
</g>
<!-- dir_b9901e150939d9aa0c49934eef95a7bb&#45;&gt;dir_4578f8d57894f4e0119130e5be5cacb4 -->
<g id="edge38" class="edge">
<title>dir_b9901e150939d9aa0c49934eef95a7bb&#45;&gt;dir_4578f8d57894f4e0119130e5be5cacb4</title>
<path fill="none" stroke="black" d="M194.47,-196.23C192.8,-233.4 180.73,-321.35 171.45,-366"/>
<polygon fill="black" stroke="black" points="168.01,-365.33 169.28,-375.85 174.85,-366.84 168.01,-365.33"/>
<g id="a_edge38&#45;headlabel"><a xlink:href="dir_000014_000010.html" target="_top" xlink:title="2">
<text text-anchor="middle" x="166.02" y="-358.71" font-family="FreeSans" font-size="10.00">2</text>
</a>
</g>
</g>
<!-- dir_e4d5a5ad095028ae0129065cd60b3253&#45;&gt;dir_35addd29aafebb04e6caa45e6f26d04b -->
<g id="edge30" class="edge">
<title>dir_e4d5a5ad095028ae0129065cd60b3253&#45;&gt;dir_35addd29aafebb04e6caa45e6f26d04b</title>
<path fill="none" stroke="black" d="M249.78,-484.14C244.53,-502.38 231.64,-531.86 218,-556 212.75,-565.3 206.37,-575.08 199.98,-583.67"/>
<polygon fill="black" stroke="black" points="197.02,-581.76 193.62,-591.8 202.54,-586.07 197.02,-581.76"/>
<g id="a_edge30&#45;headlabel"><a xlink:href="dir_000007_000008.html" target="_top" xlink:title="57">
<text text-anchor="middle" x="197" y="-574.68" font-family="FreeSans" font-size="10.00">57</text>
</a>
</g>
</g>
<!-- dir_e4d5a5ad095028ae0129065cd60b3253&#45;&gt;dir_4ebd611d220344e85b5ba20d026188c7 -->
<g id="edge32" class="edge">
<title>dir_e4d5a5ad095028ae0129065cd60b3253&#45;&gt;dir_4ebd611d220344e85b5ba20d026188c7</title>
<path fill="none" stroke="black" d="M237.08,-484.1C228.42,-492.8 216.81,-503.52 205.81,-513.03"/>
<polygon fill="black" stroke="black" points="203.31,-510.56 197.95,-519.7 207.84,-515.9 203.31,-510.56"/>
<g id="a_edge32&#45;headlabel"><a xlink:href="dir_000007_000003.html" target="_top" xlink:title="16">
<text text-anchor="middle" x="204.22" y="-503.57" font-family="FreeSans" font-size="10.00">16</text>
</a>
</g>
</g>
<!-- dir_e4d5a5ad095028ae0129065cd60b3253&#45;&gt;dir_93b162d06b4c1cfd72a25a3b81dbdc2c -->
<g id="edge33" class="edge">
<title>dir_e4d5a5ad095028ae0129065cd60b3253&#45;&gt;dir_93b162d06b4c1cfd72a25a3b81dbdc2c</title>
<path fill="none" stroke="black" d="M242.17,-447.75C231.38,-409.1 217.33,-312.64 224,-232 226.65,-200 241.23,-190.08 230,-160 226.16,-149.73 219.34,-140.13 212.49,-132"/>
<polygon fill="black" stroke="black" points="215,-129.55 205.75,-124.38 209.76,-134.19 215,-129.55"/>
<g id="a_edge33&#45;headlabel"><a xlink:href="dir_000007_000019.html" target="_top" xlink:title="10">
<text text-anchor="middle" x="219.51" y="-127.86" font-family="FreeSans" font-size="10.00">10</text>
</a>
</g>
</g>
<!-- dir_e4d5a5ad095028ae0129065cd60b3253&#45;&gt;dir_9d5eda6d4cabe7ed4bd8d4e297f3e4b6 -->
<g id="edge34" class="edge">
<title>dir_e4d5a5ad095028ae0129065cd60b3253&#45;&gt;dir_9d5eda6d4cabe7ed4bd8d4e297f3e4b6</title>
<path fill="none" stroke="black" d="M270.11,-447.89C297.99,-426.63 346.77,-387.31 370,-340 387.55,-304.27 380,-290.8 380,-251 380,-251 380,-251 380,-177 380,-101.84 284.32,-62.39 229.73,-45.44"/>
<polygon fill="black" stroke="black" points="230.63,-42.05 220.04,-42.53 228.62,-48.76 230.63,-42.05"/>
<g id="a_edge34&#45;headlabel"><a xlink:href="dir_000007_000018.html" target="_top" xlink:title="7">
<text text-anchor="middle" x="234.89" y="-37.87" font-family="FreeSans" font-size="10.00">7</text>
</a>
</g>
</g>
<!-- dir_e4d5a5ad095028ae0129065cd60b3253&#45;&gt;dir_aefcf59a6fdfc9bd7c340f12bedb31af -->
<g id="edge35" class="edge">
<title>dir_e4d5a5ad095028ae0129065cd60b3253&#45;&gt;dir_aefcf59a6fdfc9bd7c340f12bedb31af</title>
<path fill="none" stroke="black" d="M245.74,-447.62C245.19,-423.48 249.64,-378.44 253,-340 254.81,-319.29 256.64,-295.84 259.28,-278.21"/>
<polygon fill="black" stroke="black" points="262.78,-278.52 261.03,-268.07 255.88,-277.33 262.78,-278.52"/>
<g id="a_edge35&#45;headlabel"><a xlink:href="dir_000007_000009.html" target="_top" xlink:title="42">
<text text-anchor="middle" x="264.96" y="-280.04" font-family="FreeSans" font-size="10.00">42</text>
</a>
</g>
</g>
<!-- dir_e4d5a5ad095028ae0129065cd60b3253&#45;&gt;dir_b9901e150939d9aa0c49934eef95a7bb -->
<g id="edge36" class="edge">
<title>dir_e4d5a5ad095028ae0129065cd60b3253&#45;&gt;dir_b9901e150939d9aa0c49934eef95a7bb</title>
<path fill="none" stroke="black" d="M240.01,-447.87C234.51,-437.74 228.01,-424.49 224,-412 200.95,-340.18 195.02,-250.61 193.51,-206.36"/>
<polygon fill="black" stroke="black" points="197,-206.01 193.21,-196.12 190,-206.22 197,-206.01"/>
<g id="a_edge36&#45;headlabel"><a xlink:href="dir_000007_000014.html" target="_top" xlink:title="1">
<text text-anchor="middle" x="199.94" y="-207.03" font-family="FreeSans" font-size="10.00">1</text>
</a>
</g>
</g>
<!-- dir_e4d5a5ad095028ae0129065cd60b3253&#45;&gt;dir_f4b573509b6a610b6536470b1c19f9ed -->
<g id="edge37" class="edge">
<title>dir_e4d5a5ad095028ae0129065cd60b3253&#45;&gt;dir_f4b573509b6a610b6536470b1c19f9ed</title>
<path fill="none" stroke="black" d="M253.04,-447.99C261.2,-429.87 278.61,-400.48 295,-376 301.16,-366.79 308.26,-356.95 315.18,-348.28"/>
<polygon fill="black" stroke="black" points="318.04,-350.32 321.73,-340.39 312.65,-345.85 318.04,-350.32"/>
<g id="a_edge37&#45;headlabel"><a xlink:href="dir_000007_000012.html" target="_top" xlink:title="22">
<text text-anchor="middle" x="317.93" y="-352.4" font-family="FreeSans" font-size="10.00">22</text>
</a>
</g>
</g>
<!-- dir_e4d5a5ad095028ae0129065cd60b3253&#45;&gt;dir_4578f8d57894f4e0119130e5be5cacb4 -->
<g id="edge31" class="edge">
<title>dir_e4d5a5ad095028ae0129065cd60b3253&#45;&gt;dir_4578f8d57894f4e0119130e5be5cacb4</title>
<path fill="none" stroke="black" d="M222.58,-447.7C210.83,-438.97 197.33,-428.24 186.09,-418.75"/>
<polygon fill="black" stroke="black" points="188.23,-415.97 178.36,-412.1 183.66,-421.28 188.23,-415.97"/>
<g id="a_edge31&#45;headlabel"><a xlink:href="dir_000007_000010.html" target="_top" xlink:title="3">
<text text-anchor="middle" x="192.8" y="-413.66" font-family="FreeSans" font-size="10.00">3</text>
</a>
</g>
</g>
<!-- dir_f4b573509b6a610b6536470b1c19f9ed&#45;&gt;dir_35addd29aafebb04e6caa45e6f26d04b -->
<g id="edge53" class="edge">
<title>dir_f4b573509b6a610b6536470b1c19f9ed&#45;&gt;dir_35addd29aafebb04e6caa45e6f26d04b</title>
<path fill="none" stroke="black" d="M352.75,-340.08C369.02,-381.78 392.57,-490.2 343,-556 312.6,-596.34 250.58,-606.41 210.3,-608.67"/>
<polygon fill="black" stroke="black" points="209.9,-605.18 200.06,-609.1 210.2,-612.18 209.9,-605.18"/>
<g id="a_edge53&#45;headlabel"><a xlink:href="dir_000012_000008.html" target="_top" xlink:title="28">
<text text-anchor="middle" x="213.37" y="-599.69" font-family="FreeSans" font-size="10.00">28</text>
</a>
</g>
</g>
<!-- dir_f4b573509b6a610b6536470b1c19f9ed&#45;&gt;dir_4ebd611d220344e85b5ba20d026188c7 -->
<g id="edge54" class="edge">
<title>dir_f4b573509b6a610b6536470b1c19f9ed&#45;&gt;dir_4ebd611d220344e85b5ba20d026188c7</title>
<path fill="none" stroke="black" d="M341.26,-340.25C337.18,-372.34 324.23,-441.81 286,-484 265.92,-506.16 234.66,-519.83 210.1,-527.72"/>
<polygon fill="black" stroke="black" points="208.94,-524.42 200.38,-530.66 210.96,-531.12 208.94,-524.42"/>
<g id="a_edge54&#45;headlabel"><a xlink:href="dir_000012_000003.html" target="_top" xlink:title="4">
<text text-anchor="middle" x="211.55" y="-518.16" font-family="FreeSans" font-size="10.00">4</text>
</a>
</g>
</g>
<!-- dir_f4b573509b6a610b6536470b1c19f9ed&#45;&gt;dir_93b162d06b4c1cfd72a25a3b81dbdc2c -->
<g id="edge55" class="edge">
<title>dir_f4b573509b6a610b6536470b1c19f9ed&#45;&gt;dir_93b162d06b4c1cfd72a25a3b81dbdc2c</title>
<path fill="none" stroke="black" d="M332.66,-303.75C318.97,-272.25 294.37,-204.57 255,-160 245.18,-148.88 232.69,-138.62 221.4,-130.15"/>
<polygon fill="black" stroke="black" points="223.21,-127.13 213.08,-124.03 219.07,-132.78 223.21,-127.13"/>
<g id="a_edge55&#45;headlabel"><a xlink:href="dir_000012_000019.html" target="_top" xlink:title="6">
<text text-anchor="middle" x="227.79" y="-124.47" font-family="FreeSans" font-size="10.00">6</text>
</a>
</g>
</g>
<!-- dir_f4b573509b6a610b6536470b1c19f9ed&#45;&gt;dir_9d5eda6d4cabe7ed4bd8d4e297f3e4b6 -->
<g id="edge56" class="edge">
<title>dir_f4b573509b6a610b6536470b1c19f9ed&#45;&gt;dir_9d5eda6d4cabe7ed4bd8d4e297f3e4b6</title>
<path fill="none" stroke="black" d="M340.57,-303.77C334.05,-262.63 312.9,-157.01 260,-88 251.3,-76.65 239.65,-66.33 228.5,-57.88"/>
<polygon fill="black" stroke="black" points="230.28,-54.84 220.14,-51.79 226.16,-60.5 230.28,-54.84"/>
<g id="a_edge56&#45;headlabel"><a xlink:href="dir_000012_000018.html" target="_top" xlink:title="1">
<text text-anchor="middle" x="234.86" y="-52.16" font-family="FreeSans" font-size="10.00">1</text>
</a>
</g>
</g>
<!-- dir_f4b573509b6a610b6536470b1c19f9ed&#45;&gt;dir_aefcf59a6fdfc9bd7c340f12bedb31af -->
<g id="edge57" class="edge">
<title>dir_f4b573509b6a610b6536470b1c19f9ed&#45;&gt;dir_aefcf59a6fdfc9bd7c340f12bedb31af</title>
<path fill="none" stroke="black" d="M318.79,-303.7C308.86,-295.14 297.6,-284.66 288.23,-275.3"/>
<polygon fill="black" stroke="black" points="290.68,-272.8 281.19,-268.1 285.68,-277.7 290.68,-272.8"/>
<g id="a_edge57&#45;headlabel"><a xlink:href="dir_000012_000009.html" target="_top" xlink:title="53">
<text text-anchor="middle" x="295.23" y="-270.89" font-family="FreeSans" font-size="10.00">53</text>
</a>
</g>
</g>
<!-- dir_f4b573509b6a610b6536470b1c19f9ed&#45;&gt;dir_e4d5a5ad095028ae0129065cd60b3253 -->
<g id="edge58" class="edge">
<title>dir_f4b573509b6a610b6536470b1c19f9ed&#45;&gt;dir_e4d5a5ad095028ae0129065cd60b3253</title>
<path fill="none" stroke="black" d="M337.48,-340.39C330.88,-350.6 321.13,-363.85 313,-376 298.92,-397.04 284.08,-421.7 272.05,-439.72"/>
<polygon fill="black" stroke="black" points="269.15,-437.76 266.39,-447.99 274.93,-441.72 269.15,-437.76"/>
<g id="a_edge58&#45;headlabel"><a xlink:href="dir_000012_000007.html" target="_top" xlink:title="8">
<text text-anchor="middle" x="268.84" y="-430.69" font-family="FreeSans" font-size="10.00">8</text>
</a>
</g>
</g>
<!-- dir_4578f8d57894f4e0119130e5be5cacb4&#45;&gt;dir_35addd29aafebb04e6caa45e6f26d04b -->
<g id="edge1" class="edge">
<title>dir_4578f8d57894f4e0119130e5be5cacb4&#45;&gt;dir_35addd29aafebb04e6caa45e6f26d04b</title>
<path fill="none" stroke="black" d="M160.59,-412.27C151.71,-442.14 130.35,-505.12 146,-556 148.98,-565.68 154.39,-575.18 159.73,-583.4"/>
<polygon fill="black" stroke="black" points="156.88,-585.44 165.37,-591.77 162.68,-581.52 156.88,-585.44"/>
<g id="a_edge1&#45;headlabel"><a xlink:href="dir_000010_000008.html" target="_top" xlink:title="11">
<text text-anchor="middle" x="152.51" y="-581.54" font-family="FreeSans" font-size="10.00">11</text>
</a>
</g>
</g>
<!-- dir_4578f8d57894f4e0119130e5be5cacb4&#45;&gt;dir_4ebd611d220344e85b5ba20d026188c7 -->
<g id="edge2" class="edge">
<title>dir_4578f8d57894f4e0119130e5be5cacb4&#45;&gt;dir_4ebd611d220344e85b5ba20d026188c7</title>
<path fill="none" stroke="black" d="M164.21,-412.19C165.92,-436.42 169.05,-480.89 171.08,-509.68"/>
<polygon fill="black" stroke="black" points="167.6,-510.14 171.79,-519.87 174.58,-509.65 167.6,-510.14"/>
<g id="a_edge2&#45;headlabel"><a xlink:href="dir_000010_000003.html" target="_top" xlink:title="5">
<text text-anchor="middle" x="164.52" y="-504.26" font-family="FreeSans" font-size="10.00">5</text>
</a>
</g>
</g>
<!-- dir_4578f8d57894f4e0119130e5be5cacb4&#45;&gt;dir_93b162d06b4c1cfd72a25a3b81dbdc2c -->
<g id="edge3" class="edge">
<title>dir_4578f8d57894f4e0119130e5be5cacb4&#45;&gt;dir_93b162d06b4c1cfd72a25a3b81dbdc2c</title>
<path fill="none" stroke="black" d="M152.51,-375.93C135.61,-336.44 109.49,-236.35 138,-160 141.95,-149.43 149.06,-139.56 156.96,-131.28"/>
<polygon fill="black" stroke="black" points="159.59,-133.61 164.37,-124.15 154.74,-128.57 159.59,-133.61"/>
<g id="a_edge3&#45;headlabel"><a xlink:href="dir_000010_000019.html" target="_top" xlink:title="6">
<text text-anchor="middle" x="158.98" y="-135.65" font-family="FreeSans" font-size="10.00">6</text>
</a>
</g>
</g>
<!-- dir_4578f8d57894f4e0119130e5be5cacb4&#45;&gt;dir_9d5eda6d4cabe7ed4bd8d4e297f3e4b6 -->
<g id="edge4" class="edge">
<title>dir_4578f8d57894f4e0119130e5be5cacb4&#45;&gt;dir_9d5eda6d4cabe7ed4bd8d4e297f3e4b6</title>
<path fill="none" stroke="black" d="M151.94,-375.56C146.16,-365.55 139.56,-352.51 136,-340 105.35,-232.27 90.64,-189.5 138,-88 143.16,-76.94 151.72,-66.98 160.57,-58.76"/>
<polygon fill="black" stroke="black" points="163.09,-61.21 168.34,-52 158.5,-55.93 163.09,-61.21"/>
<g id="a_edge4&#45;headlabel"><a xlink:href="dir_000010_000018.html" target="_top" xlink:title="1">
<text text-anchor="middle" x="162.24" y="-63.21" font-family="FreeSans" font-size="10.00">1</text>
</a>
</g>
</g>
<!-- dir_4578f8d57894f4e0119130e5be5cacb4&#45;&gt;dir_aefcf59a6fdfc9bd7c340f12bedb31af -->
<g id="edge5" class="edge">
<title>dir_4578f8d57894f4e0119130e5be5cacb4&#45;&gt;dir_aefcf59a6fdfc9bd7c340f12bedb31af</title>
<path fill="none" stroke="black" d="M175.79,-375.87C194.25,-351.14 228.51,-305.24 249.96,-276.51"/>
<polygon fill="black" stroke="black" points="252.99,-278.3 256.17,-268.19 247.38,-274.11 252.99,-278.3"/>
<g id="a_edge5&#45;headlabel"><a xlink:href="dir_000010_000009.html" target="_top" xlink:title="10">
<text text-anchor="middle" x="253.12" y="-280.38" font-family="FreeSans" font-size="10.00">10</text>
</a>
</g>
</g>
<!-- dir_4578f8d57894f4e0119130e5be5cacb4&#45;&gt;dir_b9901e150939d9aa0c49934eef95a7bb -->
<g id="edge6" class="edge">
<title>dir_4578f8d57894f4e0119130e5be5cacb4&#45;&gt;dir_b9901e150939d9aa0c49934eef95a7bb</title>
<path fill="none" stroke="black" d="M161.53,-375.85C163.18,-338.75 175.25,-250.81 184.53,-206.1"/>
<polygon fill="black" stroke="black" points="187.97,-206.75 186.7,-196.23 181.13,-205.25 187.97,-206.75"/>
<g id="a_edge6&#45;headlabel"><a xlink:href="dir_000010_000014.html" target="_top" xlink:title="3">
<text text-anchor="middle" x="189.97" y="-208.37" font-family="FreeSans" font-size="10.00">3</text>
</a>
</g>
</g>
<!-- dir_4578f8d57894f4e0119130e5be5cacb4&#45;&gt;dir_e4d5a5ad095028ae0129065cd60b3253 -->
<g id="edge7" class="edge">
<title>dir_4578f8d57894f4e0119130e5be5cacb4&#45;&gt;dir_e4d5a5ad095028ae0129065cd60b3253</title>
<path fill="none" stroke="black" d="M190.15,-412.1C201.88,-420.8 215.38,-431.52 226.65,-441.03"/>
<polygon fill="black" stroke="black" points="224.54,-443.83 234.41,-447.7 229.11,-438.52 224.54,-443.83"/>
<g id="a_edge7&#45;headlabel"><a xlink:href="dir_000010_000007.html" target="_top" xlink:title="8">
<text text-anchor="middle" x="219.97" y="-441.14" font-family="FreeSans" font-size="10.00">8</text>
</a>
</g>
</g>
<!-- dir_4578f8d57894f4e0119130e5be5cacb4&#45;&gt;dir_f4b573509b6a610b6536470b1c19f9ed -->
<g id="edge8" class="edge">
<title>dir_4578f8d57894f4e0119130e5be5cacb4&#45;&gt;dir_f4b573509b6a610b6536470b1c19f9ed</title>
<path fill="none" stroke="black" d="M190.34,-382.37C221.31,-370.32 271.93,-350.64 306.32,-337.26"/>
<polygon fill="black" stroke="black" points="307.94,-340.39 315.99,-333.5 305.41,-333.86 307.94,-340.39"/>
<g id="a_edge8&#45;headlabel"><a xlink:href="dir_000010_000012.html" target="_top" xlink:title="2">
<text text-anchor="middle" x="305.62" y="-341.84" font-family="FreeSans" font-size="10.00">2</text>
</a>
</g>
</g>
</g>
</svg>
