<?xml version="1.0" encoding="UTF-8" standalone="no"?>
<!DOCTYPE svg PUBLIC "-//W3C//DTD SVG 1.1//EN"
 "http://www.w3.org/Graphics/SVG/1.1/DTD/svg11.dtd">
<!-- Generated by graphviz version 2.43.0 (0)
 -->
<!-- Title: commandline Pages: 1 -->
<svg width="174pt" height="383pt"
 viewBox="0.00 0.00 174.00 383.00" xmlns="http://www.w3.org/2000/svg" xmlns:xlink="http://www.w3.org/1999/xlink">
<g id="graph0" class="graph" transform="scale(1 1) rotate(0) translate(4 379)">
<title>commandline</title>
<polygon fill="white" stroke="transparent" points="-4,4 -4,-379 170,-379 170,4 -4,4"/>
<g id="clust1" class="cluster">
<title>clusterdir_db7313a27b1cae523c7773e30bdf986c</title>
<g id="a_clust1"><a xlink:href="dir_db7313a27b1cae523c7773e30bdf986c.html" target="_top" xlink:title="copasi">
<polygon fill="#ddddee" stroke="black" points="8,-8 8,-367 158,-367 158,-8 8,-8"/>
<text text-anchor="middle" x="83" y="-355" font-family="FreeSans" font-size="10.00">copasi</text>
</a>
</g>
</g>
<!-- dir_3f323b29fab3ab1f641454dc09f54ee2 -->
<g id="node1" class="node">
<title>dir_3f323b29fab3ab1f641454dc09f54ee2</title>
<g id="a_node1"><a xlink:href="dir_3f323b29fab3ab1f641454dc09f54ee2.html" target="_top" xlink:title="xml">
<polygon fill="white" stroke="red" points="150,-340 96,-340 96,-304 150,-304 150,-340"/>
<text text-anchor="middle" x="123" y="-319.5" font-family="FreeSans" font-size="10.00">xml</text>
</a>
</g>
</g>
<!-- dir_93b162d06b4c1cfd72a25a3b81dbdc2c -->
<g id="node3" class="node">
<title>dir_93b162d06b4c1cfd72a25a3b81dbdc2c</title>
<g id="a_node3"><a xlink:href="dir_93b162d06b4c1cfd72a25a3b81dbdc2c.html" target="_top" xlink:title="CopasiDataModel">
<polygon fill="none" stroke="black" points="108.5,-268 15.5,-268 15.5,-232 108.5,-232 108.5,-268"/>
<text text-anchor="middle" x="62" y="-247.5" font-family="FreeSans" font-size="10.00">CopasiDataModel</text>
</a>
</g>
</g>
<!-- dir_3f323b29fab3ab1f641454dc09f54ee2&#45;&gt;dir_93b162d06b4c1cfd72a25a3b81dbdc2c -->
<g id="edge15" class="edge">
<title>dir_3f323b29fab3ab1f641454dc09f54ee2&#45;&gt;dir_93b162d06b4c1cfd72a25a3b81dbdc2c</title>
<path fill="none" stroke="black" d="M102.01,-303.7C93.91,-295.39 84.9,-285.28 77.4,-276.14"/>
<polygon fill="black" stroke="black" points="79.97,-273.75 71.01,-268.1 74.5,-278.11 79.97,-273.75"/>
<g id="a_edge15&#45;headlabel"><a xlink:href="dir_000001_000019.html" target="_top" xlink:title="4">
<text text-anchor="middle" x="84.43" y="-272.3" font-family="FreeSans" font-size="10.00">4</text>
</a>
</g>
</g>
<!-- dir_aefcf59a6fdfc9bd7c340f12bedb31af -->
<g id="node4" class="node">
<title>dir_aefcf59a6fdfc9bd7c340f12bedb31af</title>
<g id="a_node4"><a xlink:href="dir_aefcf59a6fdfc9bd7c340f12bedb31af.html" target="_top" xlink:title="utilities">
<polygon fill="none" stroke="black" points="136,-52 82,-52 82,-16 136,-16 136,-52"/>
<text text-anchor="middle" x="109" y="-31.5" font-family="FreeSans" font-size="10.00">utilities</text>
</a>
</g>
</g>
<!-- dir_3f323b29fab3ab1f641454dc09f54ee2&#45;&gt;dir_aefcf59a6fdfc9bd7c340f12bedb31af -->
<g id="edge16" class="edge">
<title>dir_3f323b29fab3ab1f641454dc09f54ee2&#45;&gt;dir_aefcf59a6fdfc9bd7c340f12bedb31af</title>
<path fill="none" stroke="black" d="M121.71,-303.58C124.79,-274.03 136.17,-212.16 130,-160 125.94,-125.67 115.81,-87.13 110.44,-62.04"/>
<polygon fill="black" stroke="black" points="113.85,-61.27 108.46,-52.16 106.99,-62.65 113.85,-61.27"/>
<g id="a_edge16&#45;headlabel"><a xlink:href="dir_000001_000009.html" target="_top" xlink:title="116">
<text text-anchor="middle" x="117.34" y="-61.74" font-family="FreeSans" font-size="10.00">116</text>
</a>
</g>
</g>
<!-- dir_b9901e150939d9aa0c49934eef95a7bb -->
<g id="node5" class="node">
<title>dir_b9901e150939d9aa0c49934eef95a7bb</title>
<g id="a_node5"><a xlink:href="dir_b9901e150939d9aa0c49934eef95a7bb.html" target="_top" xlink:title="commandline">
<polygon fill="#eeeeff" stroke="black" points="130,-196 56,-196 56,-160 130,-160 130,-196"/>
<text text-anchor="middle" x="93" y="-175.5" font-family="FreeSans" font-size="10.00">commandline</text>
</a>
</g>
</g>
<!-- dir_3f323b29fab3ab1f641454dc09f54ee2&#45;&gt;dir_b9901e150939d9aa0c49934eef95a7bb -->
<g id="edge17" class="edge">
<title>dir_3f323b29fab3ab1f641454dc09f54ee2&#45;&gt;dir_b9901e150939d9aa0c49934eef95a7bb</title>
<path fill="none" stroke="black" d="M117.28,-303.98C115.53,-285.85 115.2,-256.45 109,-232 106.7,-222.93 102.82,-213.53 99.22,-205.21"/>
<polygon fill="black" stroke="black" points="102.42,-203.81 95.22,-196.03 96,-206.6 102.42,-203.81"/>
<g id="a_edge17&#45;headlabel"><a xlink:href="dir_000001_000014.html" target="_top" xlink:title="1">
<text text-anchor="middle" x="106.46" y="-203.47" font-family="FreeSans" font-size="10.00">1</text>
</a>
</g>
</g>
<!-- dir_4578f8d57894f4e0119130e5be5cacb4 -->
<g id="node2" class="node">
<title>dir_4578f8d57894f4e0119130e5be5cacb4</title>
<g id="a_node2"><a xlink:href="dir_4578f8d57894f4e0119130e5be5cacb4.html" target="_top" xlink:title="MIRIAM">
<polygon fill="none" stroke="black" points="90,-124 36,-124 36,-88 90,-88 90,-124"/>
<text text-anchor="middle" x="63" y="-103.5" font-family="FreeSans" font-size="10.00">MIRIAM</text>
</a>
</g>
</g>
<!-- dir_4578f8d57894f4e0119130e5be5cacb4&#45;&gt;dir_93b162d06b4c1cfd72a25a3b81dbdc2c -->
<g id="edge1" class="edge">
<title>dir_4578f8d57894f4e0119130e5be5cacb4&#45;&gt;dir_93b162d06b4c1cfd72a25a3b81dbdc2c</title>
<path fill="none" stroke="black" d="M64.22,-124.37C61.8,-134.58 57.8,-147.83 56,-160 53.66,-175.83 53.8,-180.15 56,-196 57.18,-204.52 59.39,-213.61 61.36,-221.8"/>
<polygon fill="black" stroke="black" points="57.96,-222.65 63.64,-231.59 64.78,-221.06 57.96,-222.65"/>
<g id="a_edge1&#45;headlabel"><a xlink:href="dir_000010_000019.html" target="_top" xlink:title="6">
<text text-anchor="middle" x="54.38" y="-217.29" font-family="FreeSans" font-size="10.00">6</text>
</a>
</g>
</g>
<!-- dir_4578f8d57894f4e0119130e5be5cacb4&#45;&gt;dir_aefcf59a6fdfc9bd7c340f12bedb31af -->
<g id="edge2" class="edge">
<title>dir_4578f8d57894f4e0119130e5be5cacb4&#45;&gt;dir_aefcf59a6fdfc9bd7c340f12bedb31af</title>
<path fill="none" stroke="black" d="M74.37,-87.7C79.72,-79.56 86.2,-69.69 92.11,-60.7"/>
<polygon fill="black" stroke="black" points="95.19,-62.38 97.76,-52.1 89.34,-58.54 95.19,-62.38"/>
<g id="a_edge2&#45;headlabel"><a xlink:href="dir_000010_000009.html" target="_top" xlink:title="10">
<text text-anchor="middle" x="95.59" y="-64.45" font-family="FreeSans" font-size="10.00">10</text>
</a>
</g>
</g>
<!-- dir_4578f8d57894f4e0119130e5be5cacb4&#45;&gt;dir_b9901e150939d9aa0c49934eef95a7bb -->
<g id="edge3" class="edge">
<title>dir_4578f8d57894f4e0119130e5be5cacb4&#45;&gt;dir_b9901e150939d9aa0c49934eef95a7bb</title>
<path fill="none" stroke="black" d="M76.23,-124.1C80.42,-131.96 84.72,-141.46 88.11,-150.23"/>
<polygon fill="black" stroke="black" points="84.83,-151.46 91.5,-159.7 91.42,-149.1 84.83,-151.46"/>
<g id="a_edge3&#45;headlabel"><a xlink:href="dir_000010_000014.html" target="_top" xlink:title="3">
<text text-anchor="middle" x="80.95" y="-146.54" font-family="FreeSans" font-size="10.00">3</text>
</a>
</g>
</g>
<!-- dir_93b162d06b4c1cfd72a25a3b81dbdc2c&#45;&gt;dir_3f323b29fab3ab1f641454dc09f54ee2 -->
<g id="edge11" class="edge">
<title>dir_93b162d06b4c1cfd72a25a3b81dbdc2c&#45;&gt;dir_3f323b29fab3ab1f641454dc09f54ee2</title>
<path fill="none" stroke="black" d="M82.8,-268.1C90.88,-276.38 99.9,-286.49 107.42,-295.64"/>
<polygon fill="black" stroke="black" points="104.87,-298.06 113.84,-303.7 110.34,-293.69 104.87,-298.06"/>
<g id="a_edge11&#45;headlabel"><a xlink:href="dir_000019_000001.html" target="_top" xlink:title="1">
<text text-anchor="middle" x="100.41" y="-294.51" font-family="FreeSans" font-size="10.00">1</text>
</a>
</g>
</g>
<!-- dir_93b162d06b4c1cfd72a25a3b81dbdc2c&#45;&gt;dir_4578f8d57894f4e0119130e5be5cacb4 -->
<g id="edge12" class="edge">
<title>dir_93b162d06b4c1cfd72a25a3b81dbdc2c&#45;&gt;dir_4578f8d57894f4e0119130e5be5cacb4</title>
<path fill="none" stroke="black" d="M47.89,-231.59C43.43,-221.37 39.68,-208.12 38,-196 35.8,-180.15 35.66,-175.83 38,-160 39.28,-151.35 41.67,-142.15 44.62,-133.89"/>
<polygon fill="black" stroke="black" points="47.97,-134.95 48.47,-124.37 41.48,-132.33 47.97,-134.95"/>
<g id="a_edge12&#45;headlabel"><a xlink:href="dir_000019_000010.html" target="_top" xlink:title="1">
<text text-anchor="middle" x="49.25" y="-136.85" font-family="FreeSans" font-size="10.00">1</text>
</a>
</g>
</g>
<!-- dir_93b162d06b4c1cfd72a25a3b81dbdc2c&#45;&gt;dir_aefcf59a6fdfc9bd7c340f12bedb31af -->
<g id="edge13" class="edge">
<title>dir_93b162d06b4c1cfd72a25a3b81dbdc2c&#45;&gt;dir_aefcf59a6fdfc9bd7c340f12bedb31af</title>
<path fill="none" stroke="black" d="M45.72,-231.93C23.88,-201.3 -7.98,-135.73 18,-88 29.14,-67.53 51.97,-53.76 72.11,-45.4"/>
<polygon fill="black" stroke="black" points="73.63,-48.56 81.72,-41.72 71.13,-42.02 73.63,-48.56"/>
<g id="a_edge13&#45;headlabel"><a xlink:href="dir_000019_000009.html" target="_top" xlink:title="9">
<text text-anchor="middle" x="71.29" y="-50" font-family="FreeSans" font-size="10.00">9</text>
</a>
</g>
</g>
<!-- dir_93b162d06b4c1cfd72a25a3b81dbdc2c&#45;&gt;dir_b9901e150939d9aa0c49934eef95a7bb -->
<g id="edge14" class="edge">
<title>dir_93b162d06b4c1cfd72a25a3b81dbdc2c&#45;&gt;dir_b9901e150939d9aa0c49934eef95a7bb</title>
<path fill="none" stroke="black" d="M63.75,-231.7C66.45,-223.73 70.5,-214.1 74.81,-205.26"/>
<polygon fill="black" stroke="black" points="78.06,-206.6 79.53,-196.1 71.84,-203.39 78.06,-206.6"/>
<g id="a_edge14&#45;headlabel"><a xlink:href="dir_000019_000014.html" target="_top" xlink:title="4">
<text text-anchor="middle" x="78.94" y="-208.59" font-family="FreeSans" font-size="10.00">4</text>
</a>
</g>
</g>
<!-- dir_aefcf59a6fdfc9bd7c340f12bedb31af&#45;&gt;dir_3f323b29fab3ab1f641454dc09f54ee2 -->
<g id="edge4" class="edge">
<title>dir_aefcf59a6fdfc9bd7c340f12bedb31af&#45;&gt;dir_3f323b29fab3ab1f641454dc09f54ee2</title>
<path fill="none" stroke="black" d="M120.51,-52.16C130.79,-76.03 143.36,-120.77 148,-160 153.55,-206.86 144.92,-261.56 135.79,-293.62"/>
<polygon fill="black" stroke="black" points="132.32,-293 132.7,-303.58 139.01,-295.07 132.32,-293"/>
<g id="a_edge4&#45;headlabel"><a xlink:href="dir_000009_000001.html" target="_top" xlink:title="3">
<text text-anchor="middle" x="130.68" y="-286.22" font-family="FreeSans" font-size="10.00">3</text>
</a>
</g>
</g>
<!-- dir_aefcf59a6fdfc9bd7c340f12bedb31af&#45;&gt;dir_93b162d06b4c1cfd72a25a3b81dbdc2c -->
<g id="edge5" class="edge">
<title>dir_aefcf59a6fdfc9bd7c340f12bedb31af&#45;&gt;dir_93b162d06b4c1cfd72a25a3b81dbdc2c</title>
<path fill="none" stroke="black" d="M81.67,-48.22C65.29,-56.74 45.97,-69.69 36,-88 12.35,-131.45 36.62,-189.66 52.09,-222.87"/>
<polygon fill="black" stroke="black" points="48.93,-224.38 56.36,-231.93 55.27,-221.39 48.93,-224.38"/>
<g id="a_edge5&#45;headlabel"><a xlink:href="dir_000009_000019.html" target="_top" xlink:title="4">
<text text-anchor="middle" x="44.83" y="-219.83" font-family="FreeSans" font-size="10.00">4</text>
</a>
</g>
</g>
<!-- dir_aefcf59a6fdfc9bd7c340f12bedb31af&#45;&gt;dir_b9901e150939d9aa0c49934eef95a7bb -->
<g id="edge6" class="edge">
<title>dir_aefcf59a6fdfc9bd7c340f12bedb31af&#45;&gt;dir_b9901e150939d9aa0c49934eef95a7bb</title>
<path fill="none" stroke="black" d="M113.81,-52.06C114.08,-69.98 110.82,-98.97 108,-124 107.05,-132.41 106.02,-141.57 104.67,-149.88"/>
<polygon fill="black" stroke="black" points="101.21,-149.34 102.77,-159.81 108.08,-150.65 101.21,-149.34"/>
<g id="a_edge6&#45;headlabel"><a xlink:href="dir_000009_000014.html" target="_top" xlink:title="4">
<text text-anchor="middle" x="99.09" y="-142.77" font-family="FreeSans" font-size="10.00">4</text>
</a>
</g>
</g>
<!-- dir_b9901e150939d9aa0c49934eef95a7bb&#45;&gt;dir_3f323b29fab3ab1f641454dc09f54ee2 -->
<g id="edge7" class="edge">
<title>dir_b9901e150939d9aa0c49934eef95a7bb&#45;&gt;dir_3f323b29fab3ab1f641454dc09f54ee2</title>
<path fill="none" stroke="black" d="M110.97,-196.03C117.55,-206.13 123.8,-219.38 127,-232 132.16,-252.34 133.26,-276.11 131.81,-293.96"/>
<polygon fill="black" stroke="black" points="128.32,-293.64 130.63,-303.98 135.27,-294.45 128.32,-293.64"/>
<g id="a_edge7&#45;headlabel"><a xlink:href="dir_000014_000001.html" target="_top" xlink:title="2">
<text text-anchor="middle" x="125.92" y="-287.24" font-family="FreeSans" font-size="10.00">2</text>
</a>
</g>
</g>
<!-- dir_b9901e150939d9aa0c49934eef95a7bb&#45;&gt;dir_4578f8d57894f4e0119130e5be5cacb4 -->
<g id="edge8" class="edge">
<title>dir_b9901e150939d9aa0c49934eef95a7bb&#45;&gt;dir_4578f8d57894f4e0119130e5be5cacb4</title>
<path fill="none" stroke="black" d="M79.67,-159.7C75.48,-151.81 71.18,-142.3 67.81,-133.55"/>
<polygon fill="black" stroke="black" points="71.09,-132.35 64.44,-124.1 64.5,-134.7 71.09,-132.35"/>
<g id="a_edge8&#45;headlabel"><a xlink:href="dir_000014_000010.html" target="_top" xlink:title="2">
<text text-anchor="middle" x="74.98" y="-132.28" font-family="FreeSans" font-size="10.00">2</text>
</a>
</g>
</g>
<!-- dir_b9901e150939d9aa0c49934eef95a7bb&#45;&gt;dir_93b162d06b4c1cfd72a25a3b81dbdc2c -->
<g id="edge9" class="edge">
<title>dir_b9901e150939d9aa0c49934eef95a7bb&#45;&gt;dir_93b162d06b4c1cfd72a25a3b81dbdc2c</title>
<path fill="none" stroke="black" d="M91.32,-196.1C88.61,-204.13 84.51,-213.87 80.16,-222.8"/>
<polygon fill="black" stroke="black" points="77.04,-221.2 75.58,-231.7 83.27,-224.41 77.04,-221.2"/>
<g id="a_edge9&#45;headlabel"><a xlink:href="dir_000014_000019.html" target="_top" xlink:title="1">
<text text-anchor="middle" x="76.17" y="-214.21" font-family="FreeSans" font-size="10.00">1</text>
</a>
</g>
</g>
<!-- dir_b9901e150939d9aa0c49934eef95a7bb&#45;&gt;dir_aefcf59a6fdfc9bd7c340f12bedb31af -->
<g id="edge10" class="edge">
<title>dir_b9901e150939d9aa0c49934eef95a7bb&#45;&gt;dir_aefcf59a6fdfc9bd7c340f12bedb31af</title>
<path fill="none" stroke="black" d="M87.13,-159.81C87.12,-149.44 88.65,-135.96 90,-124 92.34,-103.27 94.97,-79.83 98.24,-62.21"/>
<polygon fill="black" stroke="black" points="101.74,-62.57 100.37,-52.06 94.89,-61.13 101.74,-62.57"/>
<g id="a_edge10&#45;headlabel"><a xlink:href="dir_000014_000009.html" target="_top" xlink:title="7">
<text text-anchor="middle" x="103.79" y="-64.17" font-family="FreeSans" font-size="10.00">7</text>
</a>
</g>
</g>
</g>
</svg>
