<?xml version="1.0" encoding="UTF-8" standalone="no"?>
<!DOCTYPE svg PUBLIC "-//W3C//DTD SVG 1.1//EN"
 "http://www.w3.org/Graphics/SVG/1.1/DTD/svg11.dtd">
<!-- Generated by graphviz version 2.43.0 (0)
 -->
<!-- Title: versioning Pages: 1 -->
<svg width="193pt" height="383pt"
 viewBox="0.00 0.00 193.00 383.00" xmlns="http://www.w3.org/2000/svg" xmlns:xlink="http://www.w3.org/1999/xlink">
<g id="graph0" class="graph" transform="scale(1 1) rotate(0) translate(4 379)">
<title>versioning</title>
<polygon fill="white" stroke="transparent" points="-4,4 -4,-379 189,-379 189,4 -4,4"/>
<g id="clust1" class="cluster">
<title>clusterdir_db7313a27b1cae523c7773e30bdf986c</title>
<g id="a_clust1"><a xlink:href="dir_db7313a27b1cae523c7773e30bdf986c.html" target="_top" xlink:title="copasi">
<polygon fill="#ddddee" stroke="black" points="8,-8 8,-367 177,-367 177,-8 8,-8"/>
<text text-anchor="middle" x="92.5" y="-355" font-family="FreeSans" font-size="10.00">copasi</text>
</a>
</g>
</g>
<!-- dir_93b162d06b4c1cfd72a25a3b81dbdc2c -->
<g id="node1" class="node">
<title>dir_93b162d06b4c1cfd72a25a3b81dbdc2c</title>
<g id="a_node1"><a xlink:href="dir_93b162d06b4c1cfd72a25a3b81dbdc2c.html" target="_top" xlink:title="CopasiDataModel">
<polygon fill="none" stroke="black" points="108.5,-268 15.5,-268 15.5,-232 108.5,-232 108.5,-268"/>
<text text-anchor="middle" x="62" y="-247.5" font-family="FreeSans" font-size="10.00">CopasiDataModel</text>
</a>
</g>
</g>
<!-- dir_aefcf59a6fdfc9bd7c340f12bedb31af -->
<g id="node2" class="node">
<title>dir_aefcf59a6fdfc9bd7c340f12bedb31af</title>
<g id="a_node2"><a xlink:href="dir_aefcf59a6fdfc9bd7c340f12bedb31af.html" target="_top" xlink:title="utilities">
<polygon fill="none" stroke="black" points="103,-196 49,-196 49,-160 103,-160 103,-196"/>
<text text-anchor="middle" x="76" y="-175.5" font-family="FreeSans" font-size="10.00">utilities</text>
</a>
</g>
</g>
<!-- dir_93b162d06b4c1cfd72a25a3b81dbdc2c&#45;&gt;dir_aefcf59a6fdfc9bd7c340f12bedb31af -->
<g id="edge13" class="edge">
<title>dir_93b162d06b4c1cfd72a25a3b81dbdc2c&#45;&gt;dir_aefcf59a6fdfc9bd7c340f12bedb31af</title>
<path fill="none" stroke="black" d="M59.54,-231.7C60.3,-223.9 61.96,-214.51 64.05,-205.83"/>
<polygon fill="black" stroke="black" points="67.45,-206.67 66.68,-196.1 60.69,-204.84 67.45,-206.67"/>
<g id="a_edge13&#45;headlabel"><a xlink:href="dir_000019_000009.html" target="_top" xlink:title="9">
<text text-anchor="middle" x="69.25" y="-208.38" font-family="FreeSans" font-size="10.00">9</text>
</a>
</g>
</g>
<!-- dir_b9901e150939d9aa0c49934eef95a7bb -->
<g id="node3" class="node">
<title>dir_b9901e150939d9aa0c49934eef95a7bb</title>
<g id="a_node3"><a xlink:href="dir_b9901e150939d9aa0c49934eef95a7bb.html" target="_top" xlink:title="commandline">
<polygon fill="none" stroke="black" points="113,-52 39,-52 39,-16 113,-16 113,-52"/>
<text text-anchor="middle" x="76" y="-31.5" font-family="FreeSans" font-size="10.00">commandline</text>
</a>
</g>
</g>
<!-- dir_93b162d06b4c1cfd72a25a3b81dbdc2c&#45;&gt;dir_b9901e150939d9aa0c49934eef95a7bb -->
<g id="edge14" class="edge">
<title>dir_93b162d06b4c1cfd72a25a3b81dbdc2c&#45;&gt;dir_b9901e150939d9aa0c49934eef95a7bb</title>
<path fill="none" stroke="black" d="M44.99,-231.88C38.99,-221.76 33.49,-208.51 31,-196 21.51,-148.4 40.36,-93.27 56.8,-61.43"/>
<polygon fill="black" stroke="black" points="60.05,-62.79 61.79,-52.34 53.91,-59.42 60.05,-62.79"/>
<g id="a_edge14&#45;headlabel"><a xlink:href="dir_000019_000014.html" target="_top" xlink:title="4">
<text text-anchor="middle" x="60.81" y="-64.8" font-family="FreeSans" font-size="10.00">4</text>
</a>
</g>
</g>
<!-- dir_e4d5a5ad095028ae0129065cd60b3253 -->
<g id="node4" class="node">
<title>dir_e4d5a5ad095028ae0129065cd60b3253</title>
<g id="a_node4"><a xlink:href="dir_e4d5a5ad095028ae0129065cd60b3253.html" target="_top" xlink:title="model">
<polygon fill="none" stroke="black" points="149,-124 95,-124 95,-88 149,-88 149,-124"/>
<text text-anchor="middle" x="122" y="-103.5" font-family="FreeSans" font-size="10.00">model</text>
</a>
</g>
</g>
<!-- dir_93b162d06b4c1cfd72a25a3b81dbdc2c&#45;&gt;dir_e4d5a5ad095028ae0129065cd60b3253 -->
<g id="edge15" class="edge">
<title>dir_93b162d06b4c1cfd72a25a3b81dbdc2c&#45;&gt;dir_e4d5a5ad095028ae0129065cd60b3253</title>
<path fill="none" stroke="black" d="M75.86,-231.68C85.23,-222.28 96.62,-209.77 103,-196 111.97,-176.66 114.2,-152.51 115.72,-134.25"/>
<polygon fill="black" stroke="black" points="119.21,-134.52 116.58,-124.26 112.23,-133.92 119.21,-134.52"/>
<g id="a_edge15&#45;headlabel"><a xlink:href="dir_000019_000007.html" target="_top" xlink:title="4">
<text text-anchor="middle" x="121.73" y="-135.85" font-family="FreeSans" font-size="10.00">4</text>
</a>
</g>
</g>
<!-- dir_aefcf59a6fdfc9bd7c340f12bedb31af&#45;&gt;dir_93b162d06b4c1cfd72a25a3b81dbdc2c -->
<g id="edge1" class="edge">
<title>dir_aefcf59a6fdfc9bd7c340f12bedb31af&#45;&gt;dir_93b162d06b4c1cfd72a25a3b81dbdc2c</title>
<path fill="none" stroke="black" d="M78.47,-196.1C77.73,-203.88 76.09,-213.26 74,-221.95"/>
<polygon fill="black" stroke="black" points="70.6,-221.13 71.38,-231.7 77.36,-222.95 70.6,-221.13"/>
<g id="a_edge1&#45;headlabel"><a xlink:href="dir_000009_000019.html" target="_top" xlink:title="4">
<text text-anchor="middle" x="68.79" y="-214.42" font-family="FreeSans" font-size="10.00">4</text>
</a>
</g>
</g>
<!-- dir_aefcf59a6fdfc9bd7c340f12bedb31af&#45;&gt;dir_b9901e150939d9aa0c49934eef95a7bb -->
<g id="edge2" class="edge">
<title>dir_aefcf59a6fdfc9bd7c340f12bedb31af&#45;&gt;dir_b9901e150939d9aa0c49934eef95a7bb</title>
<path fill="none" stroke="black" d="M71.42,-159.87C68.86,-135.67 68.57,-91.21 70.54,-62.39"/>
<polygon fill="black" stroke="black" points="74.05,-62.45 71.41,-52.19 67.07,-61.86 74.05,-62.45"/>
<g id="a_edge2&#45;headlabel"><a xlink:href="dir_000009_000014.html" target="_top" xlink:title="4">
<text text-anchor="middle" x="76.57" y="-63.77" font-family="FreeSans" font-size="10.00">4</text>
</a>
</g>
</g>
<!-- dir_aefcf59a6fdfc9bd7c340f12bedb31af&#45;&gt;dir_e4d5a5ad095028ae0129065cd60b3253 -->
<g id="edge3" class="edge">
<title>dir_aefcf59a6fdfc9bd7c340f12bedb31af&#45;&gt;dir_e4d5a5ad095028ae0129065cd60b3253</title>
<path fill="none" stroke="black" d="M81.46,-159.7C86.01,-151.47 92.37,-141.48 98.77,-132.42"/>
<polygon fill="black" stroke="black" points="101.78,-134.24 104.86,-124.1 96.13,-130.1 101.78,-134.24"/>
<g id="a_edge3&#45;headlabel"><a xlink:href="dir_000009_000007.html" target="_top" xlink:title="11">
<text text-anchor="middle" x="101.95" y="-136.32" font-family="FreeSans" font-size="10.00">11</text>
</a>
</g>
</g>
<!-- dir_b9901e150939d9aa0c49934eef95a7bb&#45;&gt;dir_93b162d06b4c1cfd72a25a3b81dbdc2c -->
<g id="edge7" class="edge">
<title>dir_b9901e150939d9aa0c49934eef95a7bb&#45;&gt;dir_93b162d06b4c1cfd72a25a3b81dbdc2c</title>
<path fill="none" stroke="black" d="M72.77,-52.34C62.57,-81.78 38.53,-143.47 49,-196 50.77,-204.89 54.06,-214.16 57.17,-222.41"/>
<polygon fill="black" stroke="black" points="53.94,-223.76 60.74,-231.88 60.48,-221.29 53.94,-223.76"/>
<g id="a_edge7&#45;headlabel"><a xlink:href="dir_000014_000019.html" target="_top" xlink:title="1">
<text text-anchor="middle" x="50.01" y="-218.9" font-family="FreeSans" font-size="10.00">1</text>
</a>
</g>
</g>
<!-- dir_b9901e150939d9aa0c49934eef95a7bb&#45;&gt;dir_aefcf59a6fdfc9bd7c340f12bedb31af -->
<g id="edge8" class="edge">
<title>dir_b9901e150939d9aa0c49934eef95a7bb&#45;&gt;dir_aefcf59a6fdfc9bd7c340f12bedb31af</title>
<path fill="none" stroke="black" d="M80.59,-52.19C83.15,-76.42 83.43,-120.89 81.45,-149.68"/>
<polygon fill="black" stroke="black" points="77.95,-149.61 80.58,-159.87 84.92,-150.21 77.95,-149.61"/>
<g id="a_edge8&#45;headlabel"><a xlink:href="dir_000014_000009.html" target="_top" xlink:title="7">
<text text-anchor="middle" x="75.42" y="-143.29" font-family="FreeSans" font-size="10.00">7</text>
</a>
</g>
</g>
<!-- dir_e4d5a5ad095028ae0129065cd60b3253&#45;&gt;dir_93b162d06b4c1cfd72a25a3b81dbdc2c -->
<g id="edge4" class="edge">
<title>dir_e4d5a5ad095028ae0129065cd60b3253&#45;&gt;dir_93b162d06b4c1cfd72a25a3b81dbdc2c</title>
<path fill="none" stroke="black" d="M129.84,-124.26C132.81,-142.85 131.72,-172.87 121,-196 116.02,-206.74 108,-216.71 99.39,-225.04"/>
<polygon fill="black" stroke="black" points="96.83,-222.63 91.73,-231.91 101.51,-227.84 96.83,-222.63"/>
<g id="a_edge4&#45;headlabel"><a xlink:href="dir_000007_000019.html" target="_top" xlink:title="10">
<text text-anchor="middle" x="97.61" y="-215.62" font-family="FreeSans" font-size="10.00">10</text>
</a>
</g>
</g>
<!-- dir_e4d5a5ad095028ae0129065cd60b3253&#45;&gt;dir_aefcf59a6fdfc9bd7c340f12bedb31af -->
<g id="edge5" class="edge">
<title>dir_e4d5a5ad095028ae0129065cd60b3253&#45;&gt;dir_aefcf59a6fdfc9bd7c340f12bedb31af</title>
<path fill="none" stroke="black" d="M116.66,-124.1C112.13,-132.3 105.78,-142.28 99.38,-151.36"/>
<polygon fill="black" stroke="black" points="96.36,-149.56 93.29,-159.7 102.01,-153.69 96.36,-149.56"/>
<g id="a_edge5&#45;headlabel"><a xlink:href="dir_000007_000009.html" target="_top" xlink:title="42">
<text text-anchor="middle" x="96.19" y="-142.48" font-family="FreeSans" font-size="10.00">42</text>
</a>
</g>
</g>
<!-- dir_e4d5a5ad095028ae0129065cd60b3253&#45;&gt;dir_b9901e150939d9aa0c49934eef95a7bb -->
<g id="edge6" class="edge">
<title>dir_e4d5a5ad095028ae0129065cd60b3253&#45;&gt;dir_b9901e150939d9aa0c49934eef95a7bb</title>
<path fill="none" stroke="black" d="M110.63,-87.7C105.28,-79.56 98.8,-69.69 92.89,-60.7"/>
<polygon fill="black" stroke="black" points="95.66,-58.54 87.24,-52.1 89.81,-62.38 95.66,-58.54"/>
<g id="a_edge6&#45;headlabel"><a xlink:href="dir_000007_000014.html" target="_top" xlink:title="1">
<text text-anchor="middle" x="100" y="-57.48" font-family="FreeSans" font-size="10.00">1</text>
</a>
</g>
</g>
<!-- dir_06843f7f03ca791d0d6c894b58653f6e -->
<g id="node5" class="node">
<title>dir_06843f7f03ca791d0d6c894b58653f6e</title>
<g id="a_node5"><a xlink:href="dir_06843f7f03ca791d0d6c894b58653f6e.html" target="_top" xlink:title="versioning">
<polygon fill="#eeeeff" stroke="black" points="163.5,-340 102.5,-340 102.5,-304 163.5,-304 163.5,-340"/>
<text text-anchor="middle" x="133" y="-319.5" font-family="FreeSans" font-size="10.00">versioning</text>
</a>
</g>
</g>
<!-- dir_06843f7f03ca791d0d6c894b58653f6e&#45;&gt;dir_93b162d06b4c1cfd72a25a3b81dbdc2c -->
<g id="edge9" class="edge">
<title>dir_06843f7f03ca791d0d6c894b58653f6e&#45;&gt;dir_93b162d06b4c1cfd72a25a3b81dbdc2c</title>
<path fill="none" stroke="black" d="M115.45,-303.7C106.77,-295.14 96.14,-284.66 86.65,-275.3"/>
<polygon fill="black" stroke="black" points="88.93,-272.63 79.35,-268.1 84.01,-277.62 88.93,-272.63"/>
<g id="a_edge9&#45;headlabel"><a xlink:href="dir_000028_000019.html" target="_top" xlink:title="1">
<text text-anchor="middle" x="93.48" y="-270.63" font-family="FreeSans" font-size="10.00">1</text>
</a>
</g>
</g>
<!-- dir_06843f7f03ca791d0d6c894b58653f6e&#45;&gt;dir_aefcf59a6fdfc9bd7c340f12bedb31af -->
<g id="edge10" class="edge">
<title>dir_06843f7f03ca791d0d6c894b58653f6e&#45;&gt;dir_aefcf59a6fdfc9bd7c340f12bedb31af</title>
<path fill="none" stroke="black" d="M132.63,-303.88C131.66,-285.4 128.44,-255.48 118,-232 113.56,-222.02 106.81,-212.3 100,-203.97"/>
<polygon fill="black" stroke="black" points="102.44,-201.43 93.26,-196.13 97.13,-206 102.44,-201.43"/>
<g id="a_edge10&#45;headlabel"><a xlink:href="dir_000028_000009.html" target="_top" xlink:title="6">
<text text-anchor="middle" x="106.94" y="-199.81" font-family="FreeSans" font-size="10.00">6</text>
</a>
</g>
</g>
<!-- dir_06843f7f03ca791d0d6c894b58653f6e&#45;&gt;dir_b9901e150939d9aa0c49934eef95a7bb -->
<g id="edge11" class="edge">
<title>dir_06843f7f03ca791d0d6c894b58653f6e&#45;&gt;dir_b9901e150939d9aa0c49934eef95a7bb</title>
<path fill="none" stroke="black" d="M141.11,-303.91C159.01,-263.52 197.29,-160.18 158,-88 150.01,-73.33 136.02,-62.1 121.84,-53.83"/>
<polygon fill="black" stroke="black" points="123.49,-50.75 113.03,-49.07 120.16,-56.91 123.49,-50.75"/>
<g id="a_edge11&#45;headlabel"><a xlink:href="dir_000028_000014.html" target="_top" xlink:title="2">
<text text-anchor="middle" x="128" y="-47.46" font-family="FreeSans" font-size="10.00">2</text>
</a>
</g>
</g>
<!-- dir_06843f7f03ca791d0d6c894b58653f6e&#45;&gt;dir_e4d5a5ad095028ae0129065cd60b3253 -->
<g id="edge12" class="edge">
<title>dir_06843f7f03ca791d0d6c894b58653f6e&#45;&gt;dir_e4d5a5ad095028ae0129065cd60b3253</title>
<path fill="none" stroke="black" d="M132.12,-303.85C130.22,-266.83 125.71,-179.18 123.41,-134.39"/>
<polygon fill="black" stroke="black" points="126.89,-134.04 122.89,-124.23 119.9,-134.4 126.89,-134.04"/>
<g id="a_edge12&#45;headlabel"><a xlink:href="dir_000028_000007.html" target="_top" xlink:title="1">
<text text-anchor="middle" x="129.91" y="-134.98" font-family="FreeSans" font-size="10.00">1</text>
</a>
</g>
</g>
</g>
</svg>
