<?xml version="1.0" encoding="UTF-8" standalone="no"?>
<!DOCTYPE svg PUBLIC "-//W3C//DTD SVG 1.1//EN"
 "http://www.w3.org/Graphics/SVG/1.1/DTD/svg11.dtd">
<!-- Generated by graphviz version 2.43.0 (0)
 -->
<!-- Title: sensitivities Pages: 1 -->
<!--zoomable 527 -->
<svg id="main" version="1.1" xmlns="http://www.w3.org/2000/svg" xmlns:xlink="http://www.w3.org/1999/xlink" xml:space="preserve" onload="init(evt)">
<style type="text/css"><![CDATA[
.edge:hover path { stroke: red; }
.edge:hover polygon { stroke: red; fill: red; }
]]></style>
<script type="text/javascript"><![CDATA[
var edges = document.getElementsByTagName('g');
if (edges && edges.length) {
  for (var i=0;i<edges.length;i++) {
    if (edges[i].id.substr(0,4)=='edge') {
      edges[i].setAttribute('class','edge');
    }
  }
}
]]></script>
        <defs>
                <circle id="rim" cx="0" cy="0" r="7"/>
                <circle id="rim2" cx="0" cy="0" r="3.5"/>
                <g id="zoomPlus">
                        <use xlink:href="#rim" fill="#404040">
                                <set attributeName="fill" to="#808080" begin="zoomplus.mouseover" end="zoomplus.mouseout"/>
                        </use>
                        <path d="M-4,0h8M0,-4v8" fill="none" stroke="white" stroke-width="1.5" pointer-events="none"/>
                </g>
                <g id="zoomMin">
                        <use xlink:href="#rim" fill="#404040">
                                <set attributeName="fill" to="#808080" begin="zoomminus.mouseover" end="zoomminus.mouseout"/>
                        </use>
                        <path d="M-4,0h8" fill="none" stroke="white" stroke-width="1.5" pointer-events="none"/>
                </g>
                <g id="dirArrow">
                        <path fill="none" stroke="white" stroke-width="1.5" d="M0,-3.0v7 M-2.5,-0.5L0,-3.0L2.5,-0.5"/>
                </g>
               <g id="resetDef">
                       <use xlink:href="#rim2" fill="#404040">
                               <set attributeName="fill" to="#808080" begin="reset.mouseover" end="reset.mouseout"/>
                       </use>
               </g>
        </defs>

<script type="text/javascript">
var viewWidth = 274;
var viewHeight = 527;
var sectionId = 'dynsection-0';
</script>
<script xlink:href="svgpan.js"/>
<svg id="graph" class="graph">
<g id="viewport">
<title>sensitivities</title>
<polygon fill="white" stroke="transparent" points="-4,4 -4,-523 270,-523 270,4 -4,4"/>
<g id="clust1" class="cluster">
<title>clusterdir_db7313a27b1cae523c7773e30bdf986c</title>
<g id="a_clust1"><a xlink:href="dir_db7313a27b1cae523c7773e30bdf986c.html" target="_top" xlink:title="copasi">
<polygon fill="#ddddee" stroke="black" points="8,-8 8,-511 258,-511 258,-8 8,-8"/>
<text text-anchor="middle" x="133" y="-499" font-family="FreeSans" font-size="10.00">copasi</text>
</a>
</g>
</g>
<!-- dir_35addd29aafebb04e6caa45e6f26d04b -->
<g id="node1" class="node">
<title>dir_35addd29aafebb04e6caa45e6f26d04b</title>
<g id="a_node1"><a xlink:href="dir_35addd29aafebb04e6caa45e6f26d04b.html" target="_top" xlink:title="core">
<polygon fill="none" stroke="black" points="130,-484 76,-484 76,-448 130,-448 130,-484"/>
<text text-anchor="middle" x="103" y="-463.5" font-family="FreeSans" font-size="10.00">core</text>
</a>
</g>
</g>
<!-- dir_4ebd611d220344e85b5ba20d026188c7 -->
<g id="node2" class="node">
<title>dir_4ebd611d220344e85b5ba20d026188c7</title>
<g id="a_node2"><a xlink:href="dir_4ebd611d220344e85b5ba20d026188c7.html" target="_top" xlink:title="report">
<polygon fill="none" stroke="black" points="210,-412 156,-412 156,-376 210,-376 210,-412"/>
<text text-anchor="middle" x="183" y="-391.5" font-family="FreeSans" font-size="10.00">report</text>
</a>
</g>
</g>
<!-- dir_35addd29aafebb04e6caa45e6f26d04b&#45;&gt;dir_4ebd611d220344e85b5ba20d026188c7 -->
<g id="edge22" class="edge">
<title>dir_35addd29aafebb04e6caa45e6f26d04b&#45;&gt;dir_4ebd611d220344e85b5ba20d026188c7</title>
<path fill="none" stroke="black" d="M116.86,-447.7C126.03,-438.88 138.26,-428.03 149.76,-418.47"/>
<polygon fill="black" stroke="black" points="152.03,-421.14 157.56,-412.1 147.6,-415.72 152.03,-421.14"/>
<g id="a_edge22&#45;headlabel"><a xlink:href="dir_000008_000003.html" target="_top" xlink:title="3">
<text text-anchor="middle" x="151.04" y="-423.11" font-family="FreeSans" font-size="10.00">3</text>
</a>
</g>
</g>
<!-- dir_93b162d06b4c1cfd72a25a3b81dbdc2c -->
<g id="node3" class="node">
<title>dir_93b162d06b4c1cfd72a25a3b81dbdc2c</title>
<g id="a_node3"><a xlink:href="dir_93b162d06b4c1cfd72a25a3b81dbdc2c.html" target="_top" xlink:title="CopasiDataModel">
<polygon fill="none" stroke="black" points="142.5,-52 49.5,-52 49.5,-16 142.5,-16 142.5,-52"/>
<text text-anchor="middle" x="96" y="-31.5" font-family="FreeSans" font-size="10.00">CopasiDataModel</text>
</a>
</g>
</g>
<!-- dir_35addd29aafebb04e6caa45e6f26d04b&#45;&gt;dir_93b162d06b4c1cfd72a25a3b81dbdc2c -->
<g id="edge23" class="edge">
<title>dir_35addd29aafebb04e6caa45e6f26d04b&#45;&gt;dir_93b162d06b4c1cfd72a25a3b81dbdc2c</title>
<path fill="none" stroke="black" d="M77.94,-447.77C49.58,-422.91 8,-374.3 8,-323 8,-323 8,-323 8,-177 8,-131.04 40,-86.07 65.58,-59.44"/>
<polygon fill="black" stroke="black" points="68.33,-61.65 72.93,-52.11 63.38,-56.69 68.33,-61.65"/>
<g id="a_edge23&#45;headlabel"><a xlink:href="dir_000008_000019.html" target="_top" xlink:title="5">
<text text-anchor="middle" x="67.78" y="-63.69" font-family="FreeSans" font-size="10.00">5</text>
</a>
</g>
</g>
<!-- dir_aefcf59a6fdfc9bd7c340f12bedb31af -->
<g id="node4" class="node">
<title>dir_aefcf59a6fdfc9bd7c340f12bedb31af</title>
<g id="a_node4"><a xlink:href="dir_aefcf59a6fdfc9bd7c340f12bedb31af.html" target="_top" xlink:title="utilities">
<polygon fill="none" stroke="black" points="130,-196 76,-196 76,-160 130,-160 130,-196"/>
<text text-anchor="middle" x="103" y="-175.5" font-family="FreeSans" font-size="10.00">utilities</text>
</a>
</g>
</g>
<!-- dir_35addd29aafebb04e6caa45e6f26d04b&#45;&gt;dir_aefcf59a6fdfc9bd7c340f12bedb31af -->
<g id="edge24" class="edge">
<title>dir_35addd29aafebb04e6caa45e6f26d04b&#45;&gt;dir_aefcf59a6fdfc9bd7c340f12bedb31af</title>
<path fill="none" stroke="black" d="M90.4,-447.94C78.66,-424.18 63.59,-379.58 58,-340 51.22,-291.94 69.19,-236.95 84.73,-205.28"/>
<polygon fill="black" stroke="black" points="87.93,-206.71 89.44,-196.23 81.72,-203.48 87.93,-206.71"/>
<g id="a_edge24&#45;headlabel"><a xlink:href="dir_000008_000009.html" target="_top" xlink:title="13">
<text text-anchor="middle" x="88.78" y="-208.71" font-family="FreeSans" font-size="10.00">13</text>
</a>
</g>
</g>
<!-- dir_e4d5a5ad095028ae0129065cd60b3253 -->
<g id="node6" class="node">
<title>dir_e4d5a5ad095028ae0129065cd60b3253</title>
<g id="a_node6"><a xlink:href="dir_e4d5a5ad095028ae0129065cd60b3253.html" target="_top" xlink:title="model">
<polygon fill="none" stroke="black" points="130,-340 76,-340 76,-304 130,-304 130,-340"/>
<text text-anchor="middle" x="103" y="-319.5" font-family="FreeSans" font-size="10.00">model</text>
</a>
</g>
</g>
<!-- dir_35addd29aafebb04e6caa45e6f26d04b&#45;&gt;dir_e4d5a5ad095028ae0129065cd60b3253 -->
<g id="edge25" class="edge">
<title>dir_35addd29aafebb04e6caa45e6f26d04b&#45;&gt;dir_e4d5a5ad095028ae0129065cd60b3253</title>
<path fill="none" stroke="black" d="M98.42,-447.87C95.86,-423.67 95.57,-379.21 97.54,-350.39"/>
<polygon fill="black" stroke="black" points="101.05,-350.45 98.41,-340.19 94.07,-349.86 101.05,-350.45"/>
<g id="a_edge25&#45;headlabel"><a xlink:href="dir_000008_000007.html" target="_top" xlink:title="2">
<text text-anchor="middle" x="103.57" y="-351.77" font-family="FreeSans" font-size="10.00">2</text>
</a>
</g>
</g>
<!-- dir_4ebd611d220344e85b5ba20d026188c7&#45;&gt;dir_35addd29aafebb04e6caa45e6f26d04b -->
<g id="edge13" class="edge">
<title>dir_4ebd611d220344e85b5ba20d026188c7&#45;&gt;dir_35addd29aafebb04e6caa45e6f26d04b</title>
<path fill="none" stroke="black" d="M169.35,-412.1C160.23,-420.89 148.01,-431.73 136.5,-441.31"/>
<polygon fill="black" stroke="black" points="134.22,-438.66 128.69,-447.7 138.65,-444.08 134.22,-438.66"/>
<g id="a_edge13&#45;headlabel"><a xlink:href="dir_000003_000008.html" target="_top" xlink:title="21">
<text text-anchor="middle" x="135.2" y="-431.68" font-family="FreeSans" font-size="10.00">21</text>
</a>
</g>
</g>
<!-- dir_4ebd611d220344e85b5ba20d026188c7&#45;&gt;dir_93b162d06b4c1cfd72a25a3b81dbdc2c -->
<g id="edge14" class="edge">
<title>dir_4ebd611d220344e85b5ba20d026188c7&#45;&gt;dir_93b162d06b4c1cfd72a25a3b81dbdc2c</title>
<path fill="none" stroke="black" d="M191.13,-375.82C207.37,-350.26 240,-299.93 240,-251 240,-251 240,-251 240,-177 240,-132.06 224.21,-119.34 192,-88 178.67,-75.02 161.52,-64.57 145.38,-56.49"/>
<polygon fill="black" stroke="black" points="146.55,-53.17 136.02,-52 143.52,-59.48 146.55,-53.17"/>
<g id="a_edge14&#45;headlabel"><a xlink:href="dir_000003_000019.html" target="_top" xlink:title="3">
<text text-anchor="middle" x="151.02" y="-49.66" font-family="FreeSans" font-size="10.00">3</text>
</a>
</g>
</g>
<!-- dir_4ebd611d220344e85b5ba20d026188c7&#45;&gt;dir_aefcf59a6fdfc9bd7c340f12bedb31af -->
<g id="edge15" class="edge">
<title>dir_4ebd611d220344e85b5ba20d026188c7&#45;&gt;dir_aefcf59a6fdfc9bd7c340f12bedb31af</title>
<path fill="none" stroke="black" d="M182.04,-375.74C185.18,-344.81 195.16,-278.79 170,-232 162.89,-218.78 150.86,-208.15 138.88,-199.98"/>
<polygon fill="black" stroke="black" points="140.55,-196.9 130.24,-194.47 136.79,-202.8 140.55,-196.9"/>
<g id="a_edge15&#45;headlabel"><a xlink:href="dir_000003_000009.html" target="_top" xlink:title="11">
<text text-anchor="middle" x="145.11" y="-193.94" font-family="FreeSans" font-size="10.00">11</text>
</a>
</g>
</g>
<!-- dir_db3afc5e367a93f87ffcc764fb4101bb -->
<g id="node5" class="node">
<title>dir_db3afc5e367a93f87ffcc764fb4101bb</title>
<g id="a_node5"><a xlink:href="dir_db3afc5e367a93f87ffcc764fb4101bb.html" target="_top" xlink:title="math">
<polygon fill="none" stroke="black" points="170,-268 116,-268 116,-232 170,-232 170,-268"/>
<text text-anchor="middle" x="143" y="-247.5" font-family="FreeSans" font-size="10.00">math</text>
</a>
</g>
</g>
<!-- dir_4ebd611d220344e85b5ba20d026188c7&#45;&gt;dir_db3afc5e367a93f87ffcc764fb4101bb -->
<g id="edge16" class="edge">
<title>dir_4ebd611d220344e85b5ba20d026188c7&#45;&gt;dir_db3afc5e367a93f87ffcc764fb4101bb</title>
<path fill="none" stroke="black" d="M178.18,-375.87C171.33,-351.56 158.72,-306.82 150.61,-278.01"/>
<polygon fill="black" stroke="black" points="153.92,-276.87 147.84,-268.19 147.18,-278.76 153.92,-276.87"/>
<g id="a_edge16&#45;headlabel"><a xlink:href="dir_000003_000024.html" target="_top" xlink:title="2">
<text text-anchor="middle" x="157.63" y="-277.06" font-family="FreeSans" font-size="10.00">2</text>
</a>
</g>
</g>
<!-- dir_4ebd611d220344e85b5ba20d026188c7&#45;&gt;dir_e4d5a5ad095028ae0129065cd60b3253 -->
<g id="edge17" class="edge">
<title>dir_4ebd611d220344e85b5ba20d026188c7&#45;&gt;dir_e4d5a5ad095028ae0129065cd60b3253</title>
<path fill="none" stroke="black" d="M157.31,-375.7C146.54,-367.05 134.24,-356.45 124.01,-347.03"/>
<polygon fill="black" stroke="black" points="126.34,-344.41 116.65,-340.1 121.54,-349.5 126.34,-344.41"/>
<g id="a_edge17&#45;headlabel"><a xlink:href="dir_000003_000007.html" target="_top" xlink:title="2">
<text text-anchor="middle" x="130.9" y="-342.3" font-family="FreeSans" font-size="10.00">2</text>
</a>
</g>
</g>
<!-- dir_93b162d06b4c1cfd72a25a3b81dbdc2c&#45;&gt;dir_35addd29aafebb04e6caa45e6f26d04b -->
<g id="edge31" class="edge">
<title>dir_93b162d06b4c1cfd72a25a3b81dbdc2c&#45;&gt;dir_35addd29aafebb04e6caa45e6f26d04b</title>
<path fill="none" stroke="black" d="M84.78,-52.11C64.62,-77.2 26,-126.5 26,-177 26,-323 26,-323 26,-323 26,-369.49 60.15,-413.78 83.16,-440.17"/>
<polygon fill="black" stroke="black" points="80.64,-442.61 89.89,-447.77 85.88,-437.97 80.64,-442.61"/>
<g id="a_edge31&#45;headlabel"><a xlink:href="dir_000019_000008.html" target="_top" xlink:title="7">
<text text-anchor="middle" x="76.13" y="-439.3" font-family="FreeSans" font-size="10.00">7</text>
</a>
</g>
</g>
<!-- dir_93b162d06b4c1cfd72a25a3b81dbdc2c&#45;&gt;dir_4ebd611d220344e85b5ba20d026188c7 -->
<g id="edge32" class="edge">
<title>dir_93b162d06b4c1cfd72a25a3b81dbdc2c&#45;&gt;dir_4ebd611d220344e85b5ba20d026188c7</title>
<path fill="none" stroke="black" d="M142.59,-47.93C165.22,-56.62 191.34,-69.84 210,-88 242.21,-119.34 258,-132.06 258,-177 258,-251 258,-251 258,-251 258,-295.35 231.2,-340.83 209.43,-368"/>
<polygon fill="black" stroke="black" points="206.61,-365.91 202.87,-375.82 211.98,-370.41 206.61,-365.91"/>
<g id="a_edge32&#45;headlabel"><a xlink:href="dir_000019_000003.html" target="_top" xlink:title="2">
<text text-anchor="middle" x="206.75" y="-358.83" font-family="FreeSans" font-size="10.00">2</text>
</a>
</g>
</g>
<!-- dir_93b162d06b4c1cfd72a25a3b81dbdc2c&#45;&gt;dir_aefcf59a6fdfc9bd7c340f12bedb31af -->
<g id="edge33" class="edge">
<title>dir_93b162d06b4c1cfd72a25a3b81dbdc2c&#45;&gt;dir_aefcf59a6fdfc9bd7c340f12bedb31af</title>
<path fill="none" stroke="black" d="M101.44,-52.19C105.19,-76.42 107.67,-120.89 107.11,-149.68"/>
<polygon fill="black" stroke="black" points="103.6,-149.75 106.74,-159.87 110.6,-150 103.6,-149.75"/>
<g id="a_edge33&#45;headlabel"><a xlink:href="dir_000019_000009.html" target="_top" xlink:title="9">
<text text-anchor="middle" x="100.89" y="-143.56" font-family="FreeSans" font-size="10.00">9</text>
</a>
</g>
</g>
<!-- dir_93b162d06b4c1cfd72a25a3b81dbdc2c&#45;&gt;dir_e4d5a5ad095028ae0129065cd60b3253 -->
<g id="edge34" class="edge">
<title>dir_93b162d06b4c1cfd72a25a3b81dbdc2c&#45;&gt;dir_e4d5a5ad095028ae0129065cd60b3253</title>
<path fill="none" stroke="black" d="M91.73,-52.06C76.73,-91.53 35.03,-191.6 66,-268 70.19,-278.33 77.26,-288.05 84.21,-296.27"/>
<polygon fill="black" stroke="black" points="81.76,-298.78 91,-303.96 87,-294.15 81.76,-298.78"/>
<g id="a_edge34&#45;headlabel"><a xlink:href="dir_000019_000007.html" target="_top" xlink:title="4">
<text text-anchor="middle" x="77.25" y="-295.47" font-family="FreeSans" font-size="10.00">4</text>
</a>
</g>
</g>
<!-- dir_aefcf59a6fdfc9bd7c340f12bedb31af&#45;&gt;dir_35addd29aafebb04e6caa45e6f26d04b -->
<g id="edge7" class="edge">
<title>dir_aefcf59a6fdfc9bd7c340f12bedb31af&#45;&gt;dir_35addd29aafebb04e6caa45e6f26d04b</title>
<path fill="none" stroke="black" d="M100.42,-196.23C91.17,-225.5 68.52,-286.97 76,-340 80.89,-374.63 93.04,-413.11 99.88,-438.11"/>
<polygon fill="black" stroke="black" points="96.54,-439.15 102.45,-447.94 103.31,-437.38 96.54,-439.15"/>
<g id="a_edge7&#45;headlabel"><a xlink:href="dir_000009_000008.html" target="_top" xlink:title="46">
<text text-anchor="middle" x="92.88" y="-433.89" font-family="FreeSans" font-size="10.00">46</text>
</a>
</g>
</g>
<!-- dir_aefcf59a6fdfc9bd7c340f12bedb31af&#45;&gt;dir_4ebd611d220344e85b5ba20d026188c7 -->
<g id="edge9" class="edge">
<title>dir_aefcf59a6fdfc9bd7c340f12bedb31af&#45;&gt;dir_4ebd611d220344e85b5ba20d026188c7</title>
<path fill="none" stroke="black" d="M130.25,-186.83C150.49,-195.05 176.12,-209.9 188,-232 210.8,-274.4 204.74,-332.6 195.59,-366.16"/>
<polygon fill="black" stroke="black" points="192.23,-365.16 192.68,-375.74 198.93,-367.19 192.23,-365.16"/>
<g id="a_edge9&#45;headlabel"><a xlink:href="dir_000009_000003.html" target="_top" xlink:title="7">
<text text-anchor="middle" x="190.56" y="-358.39" font-family="FreeSans" font-size="10.00">7</text>
</a>
</g>
</g>
<!-- dir_aefcf59a6fdfc9bd7c340f12bedb31af&#45;&gt;dir_93b162d06b4c1cfd72a25a3b81dbdc2c -->
<g id="edge10" class="edge">
<title>dir_aefcf59a6fdfc9bd7c340f12bedb31af&#45;&gt;dir_93b162d06b4c1cfd72a25a3b81dbdc2c</title>
<path fill="none" stroke="black" d="M97.57,-159.87C93.82,-135.67 91.34,-91.21 91.89,-62.39"/>
<polygon fill="black" stroke="black" points="95.4,-62.31 92.26,-52.19 88.4,-62.06 95.4,-62.31"/>
<g id="a_edge10&#45;headlabel"><a xlink:href="dir_000009_000019.html" target="_top" xlink:title="4">
<text text-anchor="middle" x="98.11" y="-63.5" font-family="FreeSans" font-size="10.00">4</text>
</a>
</g>
</g>
<!-- dir_aefcf59a6fdfc9bd7c340f12bedb31af&#45;&gt;dir_db3afc5e367a93f87ffcc764fb4101bb -->
<g id="edge11" class="edge">
<title>dir_aefcf59a6fdfc9bd7c340f12bedb31af&#45;&gt;dir_db3afc5e367a93f87ffcc764fb4101bb</title>
<path fill="none" stroke="black" d="M118.67,-196.1C124.04,-204.04 129.76,-213.67 134.43,-222.51"/>
<polygon fill="black" stroke="black" points="131.42,-224.32 139.03,-231.7 137.68,-221.19 131.42,-224.32"/>
<g id="a_edge11&#45;headlabel"><a xlink:href="dir_000009_000024.html" target="_top" xlink:title="7">
<text text-anchor="middle" x="127.28" y="-219.87" font-family="FreeSans" font-size="10.00">7</text>
</a>
</g>
</g>
<!-- dir_aefcf59a6fdfc9bd7c340f12bedb31af&#45;&gt;dir_e4d5a5ad095028ae0129065cd60b3253 -->
<g id="edge12" class="edge">
<title>dir_aefcf59a6fdfc9bd7c340f12bedb31af&#45;&gt;dir_e4d5a5ad095028ae0129065cd60b3253</title>
<path fill="none" stroke="black" d="M107.59,-196.19C110.15,-220.42 110.43,-264.89 108.45,-293.68"/>
<polygon fill="black" stroke="black" points="104.95,-293.61 107.58,-303.87 111.92,-294.21 104.95,-293.61"/>
<g id="a_edge12&#45;headlabel"><a xlink:href="dir_000009_000007.html" target="_top" xlink:title="11">
<text text-anchor="middle" x="102.42" y="-287.29" font-family="FreeSans" font-size="10.00">11</text>
</a>
</g>
</g>
<!-- dir_3cc2b6582640d0f7eb104770670a2e9f -->
<g id="node7" class="node">
<title>dir_3cc2b6582640d0f7eb104770670a2e9f</title>
<g id="a_node7"><a xlink:href="dir_3cc2b6582640d0f7eb104770670a2e9f.html" target="_top" xlink:title="sensitivities">
<polygon fill="#eeeeff" stroke="black" points="183,-124 115,-124 115,-88 183,-88 183,-124"/>
<text text-anchor="middle" x="149" y="-103.5" font-family="FreeSans" font-size="10.00">sensitivities</text>
</a>
</g>
</g>
<!-- dir_aefcf59a6fdfc9bd7c340f12bedb31af&#45;&gt;dir_3cc2b6582640d0f7eb104770670a2e9f -->
<g id="edge8" class="edge">
<title>dir_aefcf59a6fdfc9bd7c340f12bedb31af&#45;&gt;dir_3cc2b6582640d0f7eb104770670a2e9f</title>
<path fill="none" stroke="black" d="M108.46,-159.7C113.01,-151.47 119.37,-141.48 125.77,-132.42"/>
<polygon fill="black" stroke="black" points="128.78,-134.24 131.86,-124.1 123.13,-130.1 128.78,-134.24"/>
<g id="a_edge8&#45;headlabel"><a xlink:href="dir_000009_000042.html" target="_top" xlink:title="3">
<text text-anchor="middle" x="128.95" y="-136.32" font-family="FreeSans" font-size="10.00">3</text>
</a>
</g>
</g>
<!-- dir_db3afc5e367a93f87ffcc764fb4101bb&#45;&gt;dir_35addd29aafebb04e6caa45e6f26d04b -->
<g id="edge18" class="edge">
<title>dir_db3afc5e367a93f87ffcc764fb4101bb&#45;&gt;dir_35addd29aafebb04e6caa45e6f26d04b</title>
<path fill="none" stroke="black" d="M143.42,-268.19C143.58,-286.2 143.06,-315.27 139,-340 133.31,-374.67 121.24,-413.36 112.65,-438.39"/>
<polygon fill="black" stroke="black" points="109.32,-437.31 109.32,-447.9 115.92,-439.62 109.32,-437.31"/>
<g id="a_edge18&#45;headlabel"><a xlink:href="dir_000024_000008.html" target="_top" xlink:title="24">
<text text-anchor="middle" x="107.82" y="-430.48" font-family="FreeSans" font-size="10.00">24</text>
</a>
</g>
</g>
<!-- dir_db3afc5e367a93f87ffcc764fb4101bb&#45;&gt;dir_93b162d06b4c1cfd72a25a3b81dbdc2c -->
<g id="edge19" class="edge">
<title>dir_db3afc5e367a93f87ffcc764fb4101bb&#45;&gt;dir_93b162d06b4c1cfd72a25a3b81dbdc2c</title>
<path fill="none" stroke="black" d="M156.72,-231.95C179.56,-201.34 220.22,-135.81 192,-88 182.94,-72.65 167.67,-61.44 151.94,-53.39"/>
<polygon fill="black" stroke="black" points="153.2,-50.12 142.67,-49.01 150.21,-56.45 153.2,-50.12"/>
<g id="a_edge19&#45;headlabel"><a xlink:href="dir_000024_000019.html" target="_top" xlink:title="1">
<text text-anchor="middle" x="157.67" y="-46.59" font-family="FreeSans" font-size="10.00">1</text>
</a>
</g>
</g>
<!-- dir_db3afc5e367a93f87ffcc764fb4101bb&#45;&gt;dir_aefcf59a6fdfc9bd7c340f12bedb31af -->
<g id="edge20" class="edge">
<title>dir_db3afc5e367a93f87ffcc764fb4101bb&#45;&gt;dir_aefcf59a6fdfc9bd7c340f12bedb31af</title>
<path fill="none" stroke="black" d="M127.2,-231.7C121.82,-223.73 116.1,-214.1 111.45,-205.26"/>
<polygon fill="black" stroke="black" points="114.47,-203.49 106.88,-196.1 108.21,-206.62 114.47,-203.49"/>
<g id="a_edge20&#45;headlabel"><a xlink:href="dir_000024_000009.html" target="_top" xlink:title="12">
<text text-anchor="middle" x="118.62" y="-202.94" font-family="FreeSans" font-size="10.00">12</text>
</a>
</g>
</g>
<!-- dir_db3afc5e367a93f87ffcc764fb4101bb&#45;&gt;dir_e4d5a5ad095028ae0129065cd60b3253 -->
<g id="edge21" class="edge">
<title>dir_db3afc5e367a93f87ffcc764fb4101bb&#45;&gt;dir_e4d5a5ad095028ae0129065cd60b3253</title>
<path fill="none" stroke="black" d="M139.12,-268.1C135.34,-276.21 129.92,-286.08 124.36,-295.08"/>
<polygon fill="black" stroke="black" points="121.28,-293.39 118.8,-303.7 127.16,-297.19 121.28,-293.39"/>
<g id="a_edge21&#45;headlabel"><a xlink:href="dir_000024_000007.html" target="_top" xlink:title="16">
<text text-anchor="middle" x="120.84" y="-286.34" font-family="FreeSans" font-size="10.00">16</text>
</a>
</g>
</g>
<!-- dir_e4d5a5ad095028ae0129065cd60b3253&#45;&gt;dir_35addd29aafebb04e6caa45e6f26d04b -->
<g id="edge26" class="edge">
<title>dir_e4d5a5ad095028ae0129065cd60b3253&#45;&gt;dir_35addd29aafebb04e6caa45e6f26d04b</title>
<path fill="none" stroke="black" d="M107.59,-340.19C110.15,-364.42 110.43,-408.89 108.45,-437.68"/>
<polygon fill="black" stroke="black" points="104.95,-437.61 107.58,-447.87 111.92,-438.21 104.95,-437.61"/>
<g id="a_edge26&#45;headlabel"><a xlink:href="dir_000007_000008.html" target="_top" xlink:title="57">
<text text-anchor="middle" x="102.42" y="-431.29" font-family="FreeSans" font-size="10.00">57</text>
</a>
</g>
</g>
<!-- dir_e4d5a5ad095028ae0129065cd60b3253&#45;&gt;dir_4ebd611d220344e85b5ba20d026188c7 -->
<g id="edge27" class="edge">
<title>dir_e4d5a5ad095028ae0129065cd60b3253&#45;&gt;dir_4ebd611d220344e85b5ba20d026188c7</title>
<path fill="none" stroke="black" d="M128.44,-340.1C139.19,-348.72 151.49,-359.32 161.75,-368.76"/>
<polygon fill="black" stroke="black" points="159.46,-371.4 169.14,-375.7 164.25,-366.3 159.46,-371.4"/>
<g id="a_edge27&#45;headlabel"><a xlink:href="dir_000007_000003.html" target="_top" xlink:title="16">
<text text-anchor="middle" x="154.89" y="-368.51" font-family="FreeSans" font-size="10.00">16</text>
</a>
</g>
</g>
<!-- dir_e4d5a5ad095028ae0129065cd60b3253&#45;&gt;dir_93b162d06b4c1cfd72a25a3b81dbdc2c -->
<g id="edge28" class="edge">
<title>dir_e4d5a5ad095028ae0129065cd60b3253&#45;&gt;dir_93b162d06b4c1cfd72a25a3b81dbdc2c</title>
<path fill="none" stroke="black" d="M76,-304.89C65,-295.29 53.77,-282.23 48,-268 19.15,-196.82 53.37,-105.11 77.36,-60.98"/>
<polygon fill="black" stroke="black" points="80.53,-62.48 82.44,-52.06 74.45,-59.02 80.53,-62.48"/>
<g id="a_edge28&#45;headlabel"><a xlink:href="dir_000007_000019.html" target="_top" xlink:title="10">
<text text-anchor="middle" x="81.21" y="-64.51" font-family="FreeSans" font-size="10.00">10</text>
</a>
</g>
</g>
<!-- dir_e4d5a5ad095028ae0129065cd60b3253&#45;&gt;dir_aefcf59a6fdfc9bd7c340f12bedb31af -->
<g id="edge29" class="edge">
<title>dir_e4d5a5ad095028ae0129065cd60b3253&#45;&gt;dir_aefcf59a6fdfc9bd7c340f12bedb31af</title>
<path fill="none" stroke="black" d="M98.42,-303.87C95.86,-279.67 95.57,-235.21 97.54,-206.39"/>
<polygon fill="black" stroke="black" points="101.05,-206.45 98.41,-196.19 94.07,-205.86 101.05,-206.45"/>
<g id="a_edge29&#45;headlabel"><a xlink:href="dir_000007_000009.html" target="_top" xlink:title="42">
<text text-anchor="middle" x="103.57" y="-207.77" font-family="FreeSans" font-size="10.00">42</text>
</a>
</g>
</g>
<!-- dir_e4d5a5ad095028ae0129065cd60b3253&#45;&gt;dir_db3afc5e367a93f87ffcc764fb4101bb -->
<g id="edge30" class="edge">
<title>dir_e4d5a5ad095028ae0129065cd60b3253&#45;&gt;dir_db3afc5e367a93f87ffcc764fb4101bb</title>
<path fill="none" stroke="black" d="M106.97,-303.7C110.78,-295.56 116.22,-285.69 121.78,-276.7"/>
<polygon fill="black" stroke="black" points="124.85,-278.4 127.33,-268.1 118.97,-274.61 124.85,-278.4"/>
<g id="a_edge30&#45;headlabel"><a xlink:href="dir_000007_000024.html" target="_top" xlink:title="5">
<text text-anchor="middle" x="125.28" y="-280.46" font-family="FreeSans" font-size="10.00">5</text>
</a>
</g>
</g>
<!-- dir_3cc2b6582640d0f7eb104770670a2e9f&#45;&gt;dir_35addd29aafebb04e6caa45e6f26d04b -->
<g id="edge1" class="edge">
<title>dir_3cc2b6582640d0f7eb104770670a2e9f&#45;&gt;dir_35addd29aafebb04e6caa45e6f26d04b</title>
<path fill="none" stroke="black" d="M166.36,-124.07C189.89,-149.11 229,-198.35 229,-249 229,-323 229,-323 229,-323 229,-362.8 242.36,-379.77 219,-412 200.48,-437.56 166.61,-451.09 140.23,-458.06"/>
<polygon fill="black" stroke="black" points="139.06,-454.74 130.17,-460.5 140.72,-461.54 139.06,-454.74"/>
<g id="a_edge1&#45;headlabel"><a xlink:href="dir_000042_000008.html" target="_top" xlink:title="3">
<text text-anchor="middle" x="141.89" y="-448.63" font-family="FreeSans" font-size="10.00">3</text>
</a>
</g>
</g>
<!-- dir_3cc2b6582640d0f7eb104770670a2e9f&#45;&gt;dir_4ebd611d220344e85b5ba20d026188c7 -->
<g id="edge2" class="edge">
<title>dir_3cc2b6582640d0f7eb104770670a2e9f&#45;&gt;dir_4ebd611d220344e85b5ba20d026188c7</title>
<path fill="none" stroke="black" d="M155.78,-124.1C164.94,-147.9 181.15,-192.56 190,-232 197.06,-263.47 197,-271.81 199,-304 199.99,-319.97 201.34,-324.17 199,-340 197.72,-348.65 195.33,-357.85 192.78,-366.11"/>
<polygon fill="black" stroke="black" points="189.45,-365.04 189.65,-375.63 196.1,-367.22 189.45,-365.04"/>
<g id="a_edge2&#45;headlabel"><a xlink:href="dir_000042_000003.html" target="_top" xlink:title="2">
<text text-anchor="middle" x="187.88" y="-358.23" font-family="FreeSans" font-size="10.00">2</text>
</a>
</g>
</g>
<!-- dir_3cc2b6582640d0f7eb104770670a2e9f&#45;&gt;dir_93b162d06b4c1cfd72a25a3b81dbdc2c -->
<g id="edge3" class="edge">
<title>dir_3cc2b6582640d0f7eb104770670a2e9f&#45;&gt;dir_93b162d06b4c1cfd72a25a3b81dbdc2c</title>
<path fill="none" stroke="black" d="M135.9,-87.7C129.61,-79.39 121.95,-69.28 115.04,-60.14"/>
<polygon fill="black" stroke="black" points="117.78,-57.96 108.95,-52.1 112.2,-62.19 117.78,-57.96"/>
<g id="a_edge3&#45;headlabel"><a xlink:href="dir_000042_000019.html" target="_top" xlink:title="2">
<text text-anchor="middle" x="122.21" y="-56.62" font-family="FreeSans" font-size="10.00">2</text>
</a>
</g>
</g>
<!-- dir_3cc2b6582640d0f7eb104770670a2e9f&#45;&gt;dir_aefcf59a6fdfc9bd7c340f12bedb31af -->
<g id="edge4" class="edge">
<title>dir_3cc2b6582640d0f7eb104770670a2e9f&#45;&gt;dir_aefcf59a6fdfc9bd7c340f12bedb31af</title>
<path fill="none" stroke="black" d="M143.66,-124.1C139.13,-132.3 132.78,-142.28 126.38,-151.36"/>
<polygon fill="black" stroke="black" points="123.36,-149.56 120.29,-159.7 129.01,-153.69 123.36,-149.56"/>
<g id="a_edge4&#45;headlabel"><a xlink:href="dir_000042_000009.html" target="_top" xlink:title="5">
<text text-anchor="middle" x="123.19" y="-142.48" font-family="FreeSans" font-size="10.00">5</text>
</a>
</g>
</g>
<!-- dir_3cc2b6582640d0f7eb104770670a2e9f&#45;&gt;dir_db3afc5e367a93f87ffcc764fb4101bb -->
<g id="edge5" class="edge">
<title>dir_3cc2b6582640d0f7eb104770670a2e9f&#45;&gt;dir_db3afc5e367a93f87ffcc764fb4101bb</title>
<path fill="none" stroke="black" d="M148.27,-124.19C147.25,-148.42 145.37,-192.89 144.15,-221.68"/>
<polygon fill="black" stroke="black" points="140.65,-221.73 143.72,-231.87 147.64,-222.03 140.65,-221.73"/>
<g id="a_edge5&#45;headlabel"><a xlink:href="dir_000042_000024.html" target="_top" xlink:title="2">
<text text-anchor="middle" x="137.96" y="-215.52" font-family="FreeSans" font-size="10.00">2</text>
</a>
</g>
</g>
<!-- dir_3cc2b6582640d0f7eb104770670a2e9f&#45;&gt;dir_e4d5a5ad095028ae0129065cd60b3253 -->
<g id="edge6" class="edge">
<title>dir_3cc2b6582640d0f7eb104770670a2e9f&#45;&gt;dir_e4d5a5ad095028ae0129065cd60b3253</title>
<path fill="none" stroke="black" d="M114.94,-119.61C97.24,-128.11 77.21,-141.24 67,-160 43.32,-203.5 68.06,-261.7 86.61,-294.89"/>
<polygon fill="black" stroke="black" points="83.82,-297.05 91.87,-303.94 89.87,-293.54 83.82,-297.05"/>
<g id="a_edge6&#45;headlabel"><a xlink:href="dir_000042_000007.html" target="_top" xlink:title="1">
<text text-anchor="middle" x="79.56" y="-292.87" font-family="FreeSans" font-size="10.00">1</text>
</a>
</g>
</g>
</g>
</svg>
        <g id="navigator" transform="translate(0 0)" fill="#404254">
                <rect fill="#f2f5e9" fill-opacity="0.5" stroke="#606060" stroke-width=".5" x="0" y="0" width="60" height="60"/>
                <use id="zoomplus" xlink:href="#zoomPlus" x="17" y="9" onmousedown="handleZoom(evt,'in')"/>
                <use id="zoomminus" xlink:href="#zoomMin" x="42" y="9" onmousedown="handleZoom(evt,'out')"/>
                <use id="reset" xlink:href="#resetDef" x="30" y="36" onmousedown="handleReset()"/>
                <g id="arrowUp" xlink:href="#dirArrow" transform="translate(30 24)" onmousedown="handlePan(0,-1)">
                  <use xlink:href="#rim" fill="#404040">
                        <set attributeName="fill" to="#808080" begin="arrowUp.mouseover" end="arrowUp.mouseout"/>
                  </use>
                  <path fill="none" stroke="white" stroke-width="1.5" d="M0,-3.0v7 M-2.5,-0.5L0,-3.0L2.5,-0.5"/>
                </g>
                <g id="arrowRight" xlink:href="#dirArrow" transform="rotate(90) translate(36 -43)" onmousedown="handlePan(1,0)">
                  <use xlink:href="#rim" fill="#404040">
                        <set attributeName="fill" to="#808080" begin="arrowRight.mouseover" end="arrowRight.mouseout"/>
                  </use>
                  <path fill="none" stroke="white" stroke-width="1.5" d="M0,-3.0v7 M-2.5,-0.5L0,-3.0L2.5,-0.5"/>
                </g>
                <g id="arrowDown" xlink:href="#dirArrow" transform="rotate(180) translate(-30 -48)" onmousedown="handlePan(0,1)">
                  <use xlink:href="#rim" fill="#404040">
                        <set attributeName="fill" to="#808080" begin="arrowDown.mouseover" end="arrowDown.mouseout"/>
                  </use>
                  <path fill="none" stroke="white" stroke-width="1.5" d="M0,-3.0v7 M-2.5,-0.5L0,-3.0L2.5,-0.5"/>
                </g>
                <g id="arrowLeft" xlink:href="#dirArrow" transform="rotate(270) translate(-36 17)" onmousedown="handlePan(-1,0)">
                  <use xlink:href="#rim" fill="#404040">
                        <set attributeName="fill" to="#808080" begin="arrowLeft.mouseover" end="arrowLeft.mouseout"/>
                  </use>
                  <path fill="none" stroke="white" stroke-width="1.5" d="M0,-3.0v7 M-2.5,-0.5L0,-3.0L2.5,-0.5"/>
                </g>
        </g>
        <svg viewBox="0 0 15 15" width="100%" height="30px" preserveAspectRatio="xMaxYMin meet">
         <g id="arrow_out" transform="scale(0.3 0.3)">
          <a xlink:href="dir_3cc2b6582640d0f7eb104770670a2e9f_dep_org.svg" target="_base">
           <rect id="button" ry="5" rx="5" y="6" x="6" height="38" width="38"
                fill="#f2f5e9" fill-opacity="0.5" stroke="#606060" stroke-width="1.0"/>
           <path id="arrow"
             d="M 11.500037,31.436501 C 11.940474,20.09759 22.043105,11.32322 32.158766,21.979434 L 37.068811,17.246167 C 37.068811,17.246167 37.088388,32 37.088388,32 L 22.160133,31.978069 C 22.160133,31.978069 26.997745,27.140456 26.997745,27.140456 C 18.528582,18.264221 13.291696,25.230495 11.500037,31.436501 z"
             style="fill:#404040;"/>
          </a>
         </g>
        </svg>
</svg>
