<?xml version="1.0" encoding="UTF-8" standalone="no"?>
<!DOCTYPE svg PUBLIC "-//W3C//DTD SVG 1.1//EN"
 "http://www.w3.org/Graphics/SVG/1.1/DTD/svg11.dtd">
<!-- Generated by graphviz version 2.43.0 (0)
 -->
<!-- Title: pvmtest Pages: 1 -->
<svg width="134pt" height="311pt"
 viewBox="0.00 0.00 134.00 311.00" xmlns="http://www.w3.org/2000/svg" xmlns:xlink="http://www.w3.org/1999/xlink">
<g id="graph0" class="graph" transform="scale(1 1) rotate(0) translate(4 307)">
<title>pvmtest</title>
<polygon fill="white" stroke="transparent" points="-4,4 -4,-307 130,-307 130,4 -4,4"/>
<g id="clust1" class="cluster">
<title>clusterdir_db7313a27b1cae523c7773e30bdf986c</title>
<g id="a_clust1"><a xlink:href="dir_db7313a27b1cae523c7773e30bdf986c.html" target="_top" xlink:title="copasi">
<polygon fill="#ddddee" stroke="black" points="8,-8 8,-295 118,-295 118,-8 8,-8"/>
<text text-anchor="middle" x="63" y="-283" font-family="FreeSans" font-size="10.00">copasi</text>
</a>
</g>
</g>
<!-- dir_35addd29aafebb04e6caa45e6f26d04b -->
<g id="node1" class="node">
<title>dir_35addd29aafebb04e6caa45e6f26d04b</title>
<g id="a_node1"><a xlink:href="dir_35addd29aafebb04e6caa45e6f26d04b.html" target="_top" xlink:title="core">
<polygon fill="none" stroke="black" points="90,-196 36,-196 36,-160 90,-160 90,-196"/>
<text text-anchor="middle" x="63" y="-175.5" font-family="FreeSans" font-size="10.00">core</text>
</a>
</g>
</g>
<!-- dir_aefcf59a6fdfc9bd7c340f12bedb31af -->
<g id="node3" class="node">
<title>dir_aefcf59a6fdfc9bd7c340f12bedb31af</title>
<g id="a_node3"><a xlink:href="dir_aefcf59a6fdfc9bd7c340f12bedb31af.html" target="_top" xlink:title="utilities">
<polygon fill="none" stroke="black" points="110,-124 56,-124 56,-88 110,-88 110,-124"/>
<text text-anchor="middle" x="83" y="-103.5" font-family="FreeSans" font-size="10.00">utilities</text>
</a>
</g>
</g>
<!-- dir_35addd29aafebb04e6caa45e6f26d04b&#45;&gt;dir_aefcf59a6fdfc9bd7c340f12bedb31af -->
<g id="edge3" class="edge">
<title>dir_35addd29aafebb04e6caa45e6f26d04b&#45;&gt;dir_aefcf59a6fdfc9bd7c340f12bedb31af</title>
<path fill="none" stroke="black" d="M62.03,-159.7C63.47,-151.81 65.97,-142.3 68.84,-133.55"/>
<polygon fill="black" stroke="black" points="72.15,-134.7 72.22,-124.1 65.56,-132.34 72.15,-134.7"/>
<g id="a_edge3&#45;headlabel"><a xlink:href="dir_000008_000009.html" target="_top" xlink:title="13">
<text text-anchor="middle" x="73.61" y="-136.54" font-family="FreeSans" font-size="10.00">13</text>
</a>
</g>
</g>
<!-- dir_902b89daf5ded75921b93acc9e867424 -->
<g id="node2" class="node">
<title>dir_902b89daf5ded75921b93acc9e867424</title>
<g id="a_node2"><a xlink:href="dir_902b89daf5ded75921b93acc9e867424.html" target="_top" xlink:title="optimization">
<polygon fill="none" stroke="black" points="97,-52 29,-52 29,-16 97,-16 97,-52"/>
<text text-anchor="middle" x="63" y="-31.5" font-family="FreeSans" font-size="10.00">optimization</text>
</a>
</g>
</g>
<!-- dir_902b89daf5ded75921b93acc9e867424&#45;&gt;dir_35addd29aafebb04e6caa45e6f26d04b -->
<g id="edge4" class="edge">
<title>dir_902b89daf5ded75921b93acc9e867424&#45;&gt;dir_35addd29aafebb04e6caa45e6f26d04b</title>
<path fill="none" stroke="black" d="M56.35,-52.37C52.8,-62.58 48.8,-75.83 47,-88 44.66,-103.83 44.66,-108.17 47,-124 48.28,-132.65 50.67,-141.85 53.22,-150.11"/>
<polygon fill="black" stroke="black" points="49.9,-151.22 56.35,-159.63 56.55,-149.04 49.9,-151.22"/>
<g id="a_edge4&#45;headlabel"><a xlink:href="dir_000031_000008.html" target="_top" xlink:title="48">
<text text-anchor="middle" x="46.08" y="-146.19" font-family="FreeSans" font-size="10.00">48</text>
</a>
</g>
</g>
<!-- dir_902b89daf5ded75921b93acc9e867424&#45;&gt;dir_aefcf59a6fdfc9bd7c340f12bedb31af -->
<g id="edge5" class="edge">
<title>dir_902b89daf5ded75921b93acc9e867424&#45;&gt;dir_aefcf59a6fdfc9bd7c340f12bedb31af</title>
<path fill="none" stroke="black" d="M73.78,-52.1C76.78,-59.79 79.67,-69.05 81.79,-77.67"/>
<polygon fill="black" stroke="black" points="78.43,-78.67 83.97,-87.7 85.27,-77.18 78.43,-78.67"/>
<g id="a_edge5&#45;headlabel"><a xlink:href="dir_000031_000009.html" target="_top" xlink:title="29">
<text text-anchor="middle" x="74.89" y="-73.26" font-family="FreeSans" font-size="10.00">29</text>
</a>
</g>
</g>
<!-- dir_aefcf59a6fdfc9bd7c340f12bedb31af&#45;&gt;dir_35addd29aafebb04e6caa45e6f26d04b -->
<g id="edge1" class="edge">
<title>dir_aefcf59a6fdfc9bd7c340f12bedb31af&#45;&gt;dir_35addd29aafebb04e6caa45e6f26d04b</title>
<path fill="none" stroke="black" d="M84.01,-124.1C82.59,-131.96 80.1,-141.46 77.23,-150.23"/>
<polygon fill="black" stroke="black" points="73.92,-149.1 73.86,-159.7 80.51,-151.45 73.92,-149.1"/>
<g id="a_edge1&#45;headlabel"><a xlink:href="dir_000009_000008.html" target="_top" xlink:title="46">
<text text-anchor="middle" x="72.45" y="-142.26" font-family="FreeSans" font-size="10.00">46</text>
</a>
</g>
</g>
<!-- dir_aefcf59a6fdfc9bd7c340f12bedb31af&#45;&gt;dir_902b89daf5ded75921b93acc9e867424 -->
<g id="edge2" class="edge">
<title>dir_aefcf59a6fdfc9bd7c340f12bedb31af&#45;&gt;dir_902b89daf5ded75921b93acc9e867424</title>
<path fill="none" stroke="black" d="M72.14,-87.7C69.14,-79.98 66.27,-70.71 64.15,-62.11"/>
<polygon fill="black" stroke="black" points="67.52,-61.14 61.99,-52.1 60.68,-62.62 67.52,-61.14"/>
<g id="a_edge2&#45;headlabel"><a xlink:href="dir_000009_000031.html" target="_top" xlink:title="23">
<text text-anchor="middle" x="71.06" y="-61.56" font-family="FreeSans" font-size="10.00">23</text>
</a>
</g>
</g>
<!-- dir_920e3011d795ab052699e99aa47c0845 -->
<g id="node4" class="node">
<title>dir_920e3011d795ab052699e99aa47c0845</title>
<g id="a_node4"><a xlink:href="dir_920e3011d795ab052699e99aa47c0845.html" target="_top" xlink:title="pvmtest">
<polygon fill="#eeeeff" stroke="black" points="90,-268 36,-268 36,-232 90,-232 90,-268"/>
<text text-anchor="middle" x="63" y="-247.5" font-family="FreeSans" font-size="10.00">pvmtest</text>
</a>
</g>
</g>
<!-- dir_920e3011d795ab052699e99aa47c0845&#45;&gt;dir_35addd29aafebb04e6caa45e6f26d04b -->
<g id="edge6" class="edge">
<title>dir_920e3011d795ab052699e99aa47c0845&#45;&gt;dir_35addd29aafebb04e6caa45e6f26d04b</title>
<path fill="none" stroke="black" d="M63,-231.7C63,-223.98 63,-214.71 63,-206.11"/>
<polygon fill="black" stroke="black" points="66.5,-206.1 63,-196.1 59.5,-206.1 66.5,-206.1"/>
<g id="a_edge6&#45;headlabel"><a xlink:href="dir_000045_000008.html" target="_top" xlink:title="1">
<text text-anchor="middle" x="69.34" y="-207.2" font-family="FreeSans" font-size="10.00">1</text>
</a>
</g>
</g>
<!-- dir_920e3011d795ab052699e99aa47c0845&#45;&gt;dir_902b89daf5ded75921b93acc9e867424 -->
<g id="edge7" class="edge">
<title>dir_920e3011d795ab052699e99aa47c0845&#45;&gt;dir_902b89daf5ded75921b93acc9e867424</title>
<path fill="none" stroke="black" d="M47.39,-231.77C39.63,-222.03 31.05,-209.18 27,-196 12.66,-149.36 33.35,-93.49 48.8,-61.33"/>
<polygon fill="black" stroke="black" points="52.05,-62.66 53.38,-52.15 45.78,-59.54 52.05,-62.66"/>
<g id="a_edge7&#45;headlabel"><a xlink:href="dir_000045_000031.html" target="_top" xlink:title="2">
<text text-anchor="middle" x="52.98" y="-64.64" font-family="FreeSans" font-size="10.00">2</text>
</a>
</g>
</g>
<!-- dir_920e3011d795ab052699e99aa47c0845&#45;&gt;dir_aefcf59a6fdfc9bd7c340f12bedb31af -->
<g id="edge8" class="edge">
<title>dir_920e3011d795ab052699e99aa47c0845&#45;&gt;dir_aefcf59a6fdfc9bd7c340f12bedb31af</title>
<path fill="none" stroke="black" d="M78.61,-231.77C86.37,-222.03 94.95,-209.18 99,-196 105.32,-175.46 100.3,-151.44 94.27,-133.53"/>
<polygon fill="black" stroke="black" points="97.51,-132.2 90.78,-124.02 90.94,-134.61 97.51,-132.2"/>
<g id="a_edge8&#45;headlabel"><a xlink:href="dir_000045_000009.html" target="_top" xlink:title="1">
<text text-anchor="middle" x="101.41" y="-132.1" font-family="FreeSans" font-size="10.00">1</text>
</a>
</g>
</g>
</g>
</svg>
