<?xml version="1.0" encoding="UTF-8" standalone="no"?>
<!DOCTYPE svg PUBLIC "-//W3C//DTD SVG 1.1//EN"
 "http://www.w3.org/Graphics/SVG/1.1/DTD/svg11.dtd">
<!-- Generated by graphviz version 2.43.0 (0)
 -->
<!-- Title: layout Pages: 1 -->
<svg width="474pt" height="743pt"
 viewBox="0.00 0.00 474.00 743.00" xmlns="http://www.w3.org/2000/svg" xmlns:xlink="http://www.w3.org/1999/xlink">
<g id="graph0" class="graph" transform="scale(1 1) rotate(0) translate(4 739)">
<title>layout</title>
<polygon fill="white" stroke="transparent" points="-4,4 -4,-739 470,-739 470,4 -4,4"/>
<g id="clust1" class="cluster">
<title>clusterdir_db7313a27b1cae523c7773e30bdf986c</title>
<g id="a_clust1"><a xlink:href="dir_db7313a27b1cae523c7773e30bdf986c.html" target="_top" xlink:title="copasi">
<polygon fill="#ddddee" stroke="black" points="8,-8 8,-727 458,-727 458,-8 8,-8"/>
<text text-anchor="middle" x="233" y="-715" font-family="FreeSans" font-size="10.00">copasi</text>
</a>
</g>
</g>
<!-- dir_154eb94708f83cb7141d9ca39c6551cd -->
<g id="node1" class="node">
<title>dir_154eb94708f83cb7141d9ca39c6551cd</title>
<g id="a_node1"><a xlink:href="dir_154eb94708f83cb7141d9ca39c6551cd.html" target="_top" xlink:title="odepack++">
<polygon fill="none" stroke="black" points="189.5,-700 124.5,-700 124.5,-664 189.5,-664 189.5,-700"/>
<text text-anchor="middle" x="157" y="-679.5" font-family="FreeSans" font-size="10.00">odepack++</text>
</a>
</g>
</g>
<!-- dir_35addd29aafebb04e6caa45e6f26d04b -->
<g id="node2" class="node">
<title>dir_35addd29aafebb04e6caa45e6f26d04b</title>
<g id="a_node2"><a xlink:href="dir_35addd29aafebb04e6caa45e6f26d04b.html" target="_top" xlink:title="core">
<polygon fill="none" stroke="black" points="264,-628 210,-628 210,-592 264,-592 264,-628"/>
<text text-anchor="middle" x="237" y="-607.5" font-family="FreeSans" font-size="10.00">core</text>
</a>
</g>
</g>
<!-- dir_154eb94708f83cb7141d9ca39c6551cd&#45;&gt;dir_35addd29aafebb04e6caa45e6f26d04b -->
<g id="edge1" class="edge">
<title>dir_154eb94708f83cb7141d9ca39c6551cd&#45;&gt;dir_35addd29aafebb04e6caa45e6f26d04b</title>
<path fill="none" stroke="black" d="M176.78,-663.7C186.75,-654.97 199.01,-644.24 209.86,-634.75"/>
<polygon fill="black" stroke="black" points="212.23,-637.32 217.45,-628.1 207.62,-632.06 212.23,-637.32"/>
<g id="a_edge1&#45;headlabel"><a xlink:href="dir_000023_000008.html" target="_top" xlink:title="1">
<text text-anchor="middle" x="211.4" y="-639.33" font-family="FreeSans" font-size="10.00">1</text>
</a>
</g>
</g>
<!-- dir_4ebd611d220344e85b5ba20d026188c7 -->
<g id="node3" class="node">
<title>dir_4ebd611d220344e85b5ba20d026188c7</title>
<g id="a_node3"><a xlink:href="dir_4ebd611d220344e85b5ba20d026188c7.html" target="_top" xlink:title="report">
<polygon fill="none" stroke="black" points="264,-556 210,-556 210,-520 264,-520 264,-556"/>
<text text-anchor="middle" x="237" y="-535.5" font-family="FreeSans" font-size="10.00">report</text>
</a>
</g>
</g>
<!-- dir_35addd29aafebb04e6caa45e6f26d04b&#45;&gt;dir_4ebd611d220344e85b5ba20d026188c7 -->
<g id="edge16" class="edge">
<title>dir_35addd29aafebb04e6caa45e6f26d04b&#45;&gt;dir_4ebd611d220344e85b5ba20d026188c7</title>
<path fill="none" stroke="black" d="M231.08,-591.7C230.29,-583.98 230.06,-574.71 230.4,-566.11"/>
<polygon fill="black" stroke="black" points="233.9,-566.32 231.1,-556.1 226.92,-565.84 233.9,-566.32"/>
<g id="a_edge16&#45;headlabel"><a xlink:href="dir_000008_000003.html" target="_top" xlink:title="3">
<text text-anchor="middle" x="236.48" y="-567.61" font-family="FreeSans" font-size="10.00">3</text>
</a>
</g>
</g>
<!-- dir_93b162d06b4c1cfd72a25a3b81dbdc2c -->
<g id="node5" class="node">
<title>dir_93b162d06b4c1cfd72a25a3b81dbdc2c</title>
<g id="a_node5"><a xlink:href="dir_93b162d06b4c1cfd72a25a3b81dbdc2c.html" target="_top" xlink:title="CopasiDataModel">
<polygon fill="none" stroke="black" points="309.5,-340 216.5,-340 216.5,-304 309.5,-304 309.5,-340"/>
<text text-anchor="middle" x="263" y="-319.5" font-family="FreeSans" font-size="10.00">CopasiDataModel</text>
</a>
</g>
</g>
<!-- dir_35addd29aafebb04e6caa45e6f26d04b&#45;&gt;dir_93b162d06b4c1cfd72a25a3b81dbdc2c -->
<g id="edge17" class="edge">
<title>dir_35addd29aafebb04e6caa45e6f26d04b&#45;&gt;dir_93b162d06b4c1cfd72a25a3b81dbdc2c</title>
<path fill="none" stroke="black" d="M244.63,-591.77C251.37,-582.03 259.95,-569.18 264,-556 286.04,-484.32 270.95,-394.39 264.33,-350.14"/>
<polygon fill="black" stroke="black" points="267.79,-349.56 262.89,-340.16 260.86,-350.56 267.79,-349.56"/>
<g id="a_edge17&#45;headlabel"><a xlink:href="dir_000008_000019.html" target="_top" xlink:title="5">
<text text-anchor="middle" x="271.11" y="-350.21" font-family="FreeSans" font-size="10.00">5</text>
</a>
</g>
</g>
<!-- dir_9d5eda6d4cabe7ed4bd8d4e297f3e4b6 -->
<g id="node7" class="node">
<title>dir_9d5eda6d4cabe7ed4bd8d4e297f3e4b6</title>
<g id="a_node7"><a xlink:href="dir_9d5eda6d4cabe7ed4bd8d4e297f3e4b6.html" target="_top" xlink:title="undo">
<polygon fill="none" stroke="black" points="111,-52 57,-52 57,-16 111,-16 111,-52"/>
<text text-anchor="middle" x="84" y="-31.5" font-family="FreeSans" font-size="10.00">undo</text>
</a>
</g>
</g>
<!-- dir_35addd29aafebb04e6caa45e6f26d04b&#45;&gt;dir_9d5eda6d4cabe7ed4bd8d4e297f3e4b6 -->
<g id="edge18" class="edge">
<title>dir_35addd29aafebb04e6caa45e6f26d04b&#45;&gt;dir_9d5eda6d4cabe7ed4bd8d4e297f3e4b6</title>
<path fill="none" stroke="black" d="M209.91,-605.43C149.08,-595.19 8,-560.19 8,-467 8,-467 8,-467 8,-177 8,-136.03 13.35,-124.48 32,-88 37.12,-77.98 44.36,-68.11 51.89,-59.64"/>
<polygon fill="black" stroke="black" points="54.51,-61.97 58.85,-52.31 49.43,-57.16 54.51,-61.97"/>
<g id="a_edge18&#45;headlabel"><a xlink:href="dir_000008_000018.html" target="_top" xlink:title="5">
<text text-anchor="middle" x="54.1" y="-64.03" font-family="FreeSans" font-size="10.00">5</text>
</a>
</g>
</g>
<!-- dir_aefcf59a6fdfc9bd7c340f12bedb31af -->
<g id="node8" class="node">
<title>dir_aefcf59a6fdfc9bd7c340f12bedb31af</title>
<g id="a_node8"><a xlink:href="dir_aefcf59a6fdfc9bd7c340f12bedb31af.html" target="_top" xlink:title="utilities">
<polygon fill="none" stroke="black" points="359,-124 305,-124 305,-88 359,-88 359,-124"/>
<text text-anchor="middle" x="332" y="-103.5" font-family="FreeSans" font-size="10.00">utilities</text>
</a>
</g>
</g>
<!-- dir_35addd29aafebb04e6caa45e6f26d04b&#45;&gt;dir_aefcf59a6fdfc9bd7c340f12bedb31af -->
<g id="edge19" class="edge">
<title>dir_35addd29aafebb04e6caa45e6f26d04b&#45;&gt;dir_aefcf59a6fdfc9bd7c340f12bedb31af</title>
<path fill="none" stroke="black" d="M264.19,-601.01C315.35,-585.41 420,-545.36 420,-467 420,-467 420,-467 420,-249 420,-205.99 407.03,-194.97 382,-160 374.36,-149.33 364.23,-139.26 354.99,-130.82"/>
<polygon fill="black" stroke="black" points="357.3,-128.19 347.51,-124.13 352.64,-133.41 357.3,-128.19"/>
<g id="a_edge19&#45;headlabel"><a xlink:href="dir_000008_000009.html" target="_top" xlink:title="13">
<text text-anchor="middle" x="361.87" y="-125.96" font-family="FreeSans" font-size="10.00">13</text>
</a>
</g>
</g>
<!-- dir_b9901e150939d9aa0c49934eef95a7bb -->
<g id="node10" class="node">
<title>dir_b9901e150939d9aa0c49934eef95a7bb</title>
<g id="a_node10"><a xlink:href="dir_b9901e150939d9aa0c49934eef95a7bb.html" target="_top" xlink:title="commandline">
<polygon fill="none" stroke="black" points="370,-412 296,-412 296,-376 370,-376 370,-412"/>
<text text-anchor="middle" x="333" y="-391.5" font-family="FreeSans" font-size="10.00">commandline</text>
</a>
</g>
</g>
<!-- dir_35addd29aafebb04e6caa45e6f26d04b&#45;&gt;dir_b9901e150939d9aa0c49934eef95a7bb -->
<g id="edge20" class="edge">
<title>dir_35addd29aafebb04e6caa45e6f26d04b&#45;&gt;dir_b9901e150939d9aa0c49934eef95a7bb</title>
<path fill="none" stroke="black" d="M264.3,-593.17C277.7,-584 292.89,-571.25 302,-556 327.03,-514.1 332.44,-456.11 333.28,-422.38"/>
<polygon fill="black" stroke="black" points="336.78,-422.37 333.41,-412.33 329.78,-422.28 336.78,-422.37"/>
<g id="a_edge20&#45;headlabel"><a xlink:href="dir_000008_000014.html" target="_top" xlink:title="2">
<text text-anchor="middle" x="339.57" y="-423.5" font-family="FreeSans" font-size="10.00">2</text>
</a>
</g>
</g>
<!-- dir_e4d5a5ad095028ae0129065cd60b3253 -->
<g id="node11" class="node">
<title>dir_e4d5a5ad095028ae0129065cd60b3253</title>
<g id="a_node11"><a xlink:href="dir_e4d5a5ad095028ae0129065cd60b3253.html" target="_top" xlink:title="model">
<polygon fill="none" stroke="black" points="198,-484 144,-484 144,-448 198,-448 198,-484"/>
<text text-anchor="middle" x="171" y="-463.5" font-family="FreeSans" font-size="10.00">model</text>
</a>
</g>
</g>
<!-- dir_35addd29aafebb04e6caa45e6f26d04b&#45;&gt;dir_e4d5a5ad095028ae0129065cd60b3253 -->
<g id="edge21" class="edge">
<title>dir_35addd29aafebb04e6caa45e6f26d04b&#45;&gt;dir_e4d5a5ad095028ae0129065cd60b3253</title>
<path fill="none" stroke="black" d="M215.47,-591.59C207.05,-581.59 198.23,-568.55 192,-556 182.12,-536.1 174.26,-512.17 170.42,-494.14"/>
<polygon fill="black" stroke="black" points="173.86,-493.5 168.64,-484.28 166.97,-494.74 173.86,-493.5"/>
<g id="a_edge21&#45;headlabel"><a xlink:href="dir_000008_000007.html" target="_top" xlink:title="2">
<text text-anchor="middle" x="177.3" y="-494.03" font-family="FreeSans" font-size="10.00">2</text>
</a>
</g>
</g>
<!-- dir_2f78a2ad5ca00a9811c1641891cd4bc0 -->
<g id="node12" class="node">
<title>dir_2f78a2ad5ca00a9811c1641891cd4bc0</title>
<g id="a_node12"><a xlink:href="dir_2f78a2ad5ca00a9811c1641891cd4bc0.html" target="_top" xlink:title="layout">
<polygon fill="#eeeeff" stroke="black" points="181,-268 127,-268 127,-232 181,-232 181,-268"/>
<text text-anchor="middle" x="154" y="-247.5" font-family="FreeSans" font-size="10.00">layout</text>
</a>
</g>
</g>
<!-- dir_35addd29aafebb04e6caa45e6f26d04b&#45;&gt;dir_2f78a2ad5ca00a9811c1641891cd4bc0 -->
<g id="edge15" class="edge">
<title>dir_35addd29aafebb04e6caa45e6f26d04b&#45;&gt;dir_2f78a2ad5ca00a9811c1641891cd4bc0</title>
<path fill="none" stroke="black" d="M209.75,-596.59C171.69,-575.05 108,-527.2 108,-467 108,-467 108,-467 108,-393 108,-351.52 122.96,-305.37 136.17,-277.26"/>
<polygon fill="black" stroke="black" points="139.41,-278.62 140.75,-268.11 133.15,-275.49 139.41,-278.62"/>
<g id="a_edge15&#45;headlabel"><a xlink:href="dir_000008_000005.html" target="_top" xlink:title="1">
<text text-anchor="middle" x="140.34" y="-280.61" font-family="FreeSans" font-size="10.00">1</text>
</a>
</g>
</g>
<!-- dir_4ebd611d220344e85b5ba20d026188c7&#45;&gt;dir_35addd29aafebb04e6caa45e6f26d04b -->
<g id="edge9" class="edge">
<title>dir_4ebd611d220344e85b5ba20d026188c7&#45;&gt;dir_35addd29aafebb04e6caa45e6f26d04b</title>
<path fill="none" stroke="black" d="M242.9,-556.1C243.7,-563.79 243.94,-573.05 243.6,-581.67"/>
<polygon fill="black" stroke="black" points="240.11,-581.48 242.92,-591.7 247.09,-581.96 240.11,-581.48"/>
<g id="a_edge9&#45;headlabel"><a xlink:href="dir_000003_000008.html" target="_top" xlink:title="21">
<text text-anchor="middle" x="237.52" y="-575.2" font-family="FreeSans" font-size="10.00">21</text>
</a>
</g>
</g>
<!-- dir_4ebd611d220344e85b5ba20d026188c7&#45;&gt;dir_93b162d06b4c1cfd72a25a3b81dbdc2c -->
<g id="edge10" class="edge">
<title>dir_4ebd611d220344e85b5ba20d026188c7&#45;&gt;dir_93b162d06b4c1cfd72a25a3b81dbdc2c</title>
<path fill="none" stroke="black" d="M232.49,-519.53C230.8,-489.89 235.22,-427.92 243,-376 244.29,-367.41 246.08,-358.12 248.27,-349.74"/>
<polygon fill="black" stroke="black" points="251.64,-350.68 251.12,-340.1 244.93,-348.69 251.64,-350.68"/>
<g id="a_edge10&#45;headlabel"><a xlink:href="dir_000003_000019.html" target="_top" xlink:title="3">
<text text-anchor="middle" x="253.34" y="-352.43" font-family="FreeSans" font-size="10.00">3</text>
</a>
</g>
</g>
<!-- dir_4ebd611d220344e85b5ba20d026188c7&#45;&gt;dir_9d5eda6d4cabe7ed4bd8d4e297f3e4b6 -->
<g id="edge11" class="edge">
<title>dir_4ebd611d220344e85b5ba20d026188c7&#45;&gt;dir_9d5eda6d4cabe7ed4bd8d4e297f3e4b6</title>
<path fill="none" stroke="black" d="M209.93,-526.06C188.46,-516.67 158.28,-501.85 135,-484 68.52,-433.04 37,-406.77 37,-323 37,-323 37,-323 37,-177 37,-134.96 55.8,-89.29 69.62,-61.41"/>
<polygon fill="black" stroke="black" points="72.83,-62.82 74.26,-52.32 66.6,-59.63 72.83,-62.82"/>
<g id="a_edge11&#45;headlabel"><a xlink:href="dir_000003_000018.html" target="_top" xlink:title="1">
<text text-anchor="middle" x="73.72" y="-64.81" font-family="FreeSans" font-size="10.00">1</text>
</a>
</g>
</g>
<!-- dir_4ebd611d220344e85b5ba20d026188c7&#45;&gt;dir_aefcf59a6fdfc9bd7c340f12bedb31af -->
<g id="edge12" class="edge">
<title>dir_4ebd611d220344e85b5ba20d026188c7&#45;&gt;dir_aefcf59a6fdfc9bd7c340f12bedb31af</title>
<path fill="none" stroke="black" d="M259.73,-519.97C304.76,-487.97 400,-413.8 400,-323 400,-323 400,-323 400,-249 400,-203.7 369.35,-159.04 348.98,-132.24"/>
<polygon fill="black" stroke="black" points="351.66,-129.98 342.78,-124.19 346.11,-134.25 351.66,-129.98"/>
<g id="a_edge12&#45;headlabel"><a xlink:href="dir_000003_000009.html" target="_top" xlink:title="11">
<text text-anchor="middle" x="356.1" y="-128.59" font-family="FreeSans" font-size="10.00">11</text>
</a>
</g>
</g>
<!-- dir_4ebd611d220344e85b5ba20d026188c7&#45;&gt;dir_b9901e150939d9aa0c49934eef95a7bb -->
<g id="edge13" class="edge">
<title>dir_4ebd611d220344e85b5ba20d026188c7&#45;&gt;dir_b9901e150939d9aa0c49934eef95a7bb</title>
<path fill="none" stroke="black" d="M248.58,-519.87C265.3,-495.14 296.33,-449.24 315.75,-420.51"/>
<polygon fill="black" stroke="black" points="318.68,-422.43 321.38,-412.19 312.88,-418.51 318.68,-422.43"/>
<g id="a_edge13&#45;headlabel"><a xlink:href="dir_000003_000014.html" target="_top" xlink:title="2">
<text text-anchor="middle" x="319.02" y="-424.5" font-family="FreeSans" font-size="10.00">2</text>
</a>
</g>
</g>
<!-- dir_4ebd611d220344e85b5ba20d026188c7&#45;&gt;dir_e4d5a5ad095028ae0129065cd60b3253 -->
<g id="edge14" class="edge">
<title>dir_4ebd611d220344e85b5ba20d026188c7&#45;&gt;dir_e4d5a5ad095028ae0129065cd60b3253</title>
<path fill="none" stroke="black" d="M214.77,-519.7C205.99,-511.3 196.15,-501.07 187.95,-491.86"/>
<polygon fill="black" stroke="black" points="190.42,-489.37 181.23,-484.1 185.13,-493.96 190.42,-489.37"/>
<g id="a_edge14&#45;headlabel"><a xlink:href="dir_000003_000007.html" target="_top" xlink:title="2">
<text text-anchor="middle" x="194.92" y="-487.73" font-family="FreeSans" font-size="10.00">2</text>
</a>
</g>
</g>
<!-- dir_88c23c43b23ed9d4172878d8454da47c -->
<g id="node4" class="node">
<title>dir_88c23c43b23ed9d4172878d8454da47c</title>
<g id="a_node4"><a xlink:href="dir_88c23c43b23ed9d4172878d8454da47c.html" target="_top" xlink:title="sbml">
<polygon fill="none" stroke="black" points="313,-196 259,-196 259,-160 313,-160 313,-196"/>
<text text-anchor="middle" x="286" y="-175.5" font-family="FreeSans" font-size="10.00">sbml</text>
</a>
</g>
</g>
<!-- dir_88c23c43b23ed9d4172878d8454da47c&#45;&gt;dir_35addd29aafebb04e6caa45e6f26d04b -->
<g id="edge23" class="edge">
<title>dir_88c23c43b23ed9d4172878d8454da47c&#45;&gt;dir_35addd29aafebb04e6caa45e6f26d04b</title>
<path fill="none" stroke="black" d="M309.63,-196.03C340.04,-220.11 389,-267.25 389,-321 389,-467 389,-467 389,-467 389,-530.05 318.31,-573.14 273.34,-594.18"/>
<polygon fill="black" stroke="black" points="271.84,-591.02 264.17,-598.33 274.73,-597.39 271.84,-591.02"/>
<g id="a_edge23&#45;headlabel"><a xlink:href="dir_000013_000008.html" target="_top" xlink:title="5">
<text text-anchor="middle" x="273.94" y="-584.45" font-family="FreeSans" font-size="10.00">5</text>
</a>
</g>
</g>
<!-- dir_88c23c43b23ed9d4172878d8454da47c&#45;&gt;dir_4ebd611d220344e85b5ba20d026188c7 -->
<g id="edge24" class="edge">
<title>dir_88c23c43b23ed9d4172878d8454da47c&#45;&gt;dir_4ebd611d220344e85b5ba20d026188c7</title>
<path fill="none" stroke="black" d="M291.95,-196.25C303.94,-232.14 329.01,-313.66 319,-340 311.39,-360.01 297.52,-357.36 287,-376 262.46,-419.47 248.43,-476.47 241.79,-509.69"/>
<polygon fill="black" stroke="black" points="238.34,-509.11 239.89,-519.59 245.21,-510.43 238.34,-509.11"/>
<g id="a_edge24&#45;headlabel"><a xlink:href="dir_000013_000003.html" target="_top" xlink:title="2">
<text text-anchor="middle" x="236.23" y="-502.54" font-family="FreeSans" font-size="10.00">2</text>
</a>
</g>
</g>
<!-- dir_88c23c43b23ed9d4172878d8454da47c&#45;&gt;dir_93b162d06b4c1cfd72a25a3b81dbdc2c -->
<g id="edge25" class="edge">
<title>dir_88c23c43b23ed9d4172878d8454da47c&#45;&gt;dir_93b162d06b4c1cfd72a25a3b81dbdc2c</title>
<path fill="none" stroke="black" d="M287.81,-196.19C286.43,-220.53 279.46,-265.28 272.79,-294.06"/>
<polygon fill="black" stroke="black" points="269.37,-293.32 270.36,-303.87 276.16,-295.01 269.37,-293.32"/>
<g id="a_edge25&#45;headlabel"><a xlink:href="dir_000013_000019.html" target="_top" xlink:title="3">
<text text-anchor="middle" x="267.48" y="-286.65" font-family="FreeSans" font-size="10.00">3</text>
</a>
</g>
</g>
<!-- dir_88c23c43b23ed9d4172878d8454da47c&#45;&gt;dir_aefcf59a6fdfc9bd7c340f12bedb31af -->
<g id="edge26" class="edge">
<title>dir_88c23c43b23ed9d4172878d8454da47c&#45;&gt;dir_aefcf59a6fdfc9bd7c340f12bedb31af</title>
<path fill="none" stroke="black" d="M297.37,-159.7C302.72,-151.56 309.2,-141.69 315.11,-132.7"/>
<polygon fill="black" stroke="black" points="318.19,-134.38 320.76,-124.1 312.34,-130.54 318.19,-134.38"/>
<g id="a_edge26&#45;headlabel"><a xlink:href="dir_000013_000009.html" target="_top" xlink:title="14">
<text text-anchor="middle" x="318.59" y="-136.45" font-family="FreeSans" font-size="10.00">14</text>
</a>
</g>
</g>
<!-- dir_88c23c43b23ed9d4172878d8454da47c&#45;&gt;dir_b9901e150939d9aa0c49934eef95a7bb -->
<g id="edge27" class="edge">
<title>dir_88c23c43b23ed9d4172878d8454da47c&#45;&gt;dir_b9901e150939d9aa0c49934eef95a7bb</title>
<path fill="none" stroke="black" d="M296.31,-196.22C302.08,-206.37 309.08,-219.62 314,-232 326.27,-262.86 329.51,-271.09 334,-304 336.16,-319.85 334.15,-324 334,-340 333.92,-348.32 333.77,-357.37 333.62,-365.6"/>
<polygon fill="black" stroke="black" points="330.11,-365.75 333.41,-375.82 337.11,-365.89 330.11,-365.75"/>
<g id="a_edge27&#45;headlabel"><a xlink:href="dir_000013_000014.html" target="_top" xlink:title="4">
<text text-anchor="middle" x="327.35" y="-359.59" font-family="FreeSans" font-size="10.00">4</text>
</a>
</g>
</g>
<!-- dir_88c23c43b23ed9d4172878d8454da47c&#45;&gt;dir_e4d5a5ad095028ae0129065cd60b3253 -->
<g id="edge28" class="edge">
<title>dir_88c23c43b23ed9d4172878d8454da47c&#45;&gt;dir_e4d5a5ad095028ae0129065cd60b3253</title>
<path fill="none" stroke="black" d="M278.78,-196.2C264.27,-219.41 234.1,-262.63 217,-304 198.4,-349.01 188.2,-405.14 180.81,-437.84"/>
<polygon fill="black" stroke="black" points="177.3,-437.44 178.4,-447.98 184.11,-439.06 177.3,-437.44"/>
<g id="a_edge28&#45;headlabel"><a xlink:href="dir_000013_000007.html" target="_top" xlink:title="16">
<text text-anchor="middle" x="175.37" y="-430.79" font-family="FreeSans" font-size="10.00">16</text>
</a>
</g>
</g>
<!-- dir_88c23c43b23ed9d4172878d8454da47c&#45;&gt;dir_2f78a2ad5ca00a9811c1641891cd4bc0 -->
<g id="edge22" class="edge">
<title>dir_88c23c43b23ed9d4172878d8454da47c&#45;&gt;dir_2f78a2ad5ca00a9811c1641891cd4bc0</title>
<path fill="none" stroke="black" d="M259.82,-196C239.89,-207.2 212.39,-221.77 190.36,-232.79"/>
<polygon fill="black" stroke="black" points="188.7,-229.71 181.29,-237.28 191.8,-235.98 188.7,-229.71"/>
<g id="a_edge22&#45;headlabel"><a xlink:href="dir_000013_000005.html" target="_top" xlink:title="4">
<text text-anchor="middle" x="190.66" y="-223.07" font-family="FreeSans" font-size="10.00">4</text>
</a>
</g>
</g>
<!-- dir_93b162d06b4c1cfd72a25a3b81dbdc2c&#45;&gt;dir_35addd29aafebb04e6caa45e6f26d04b -->
<g id="edge43" class="edge">
<title>dir_93b162d06b4c1cfd72a25a3b81dbdc2c&#45;&gt;dir_35addd29aafebb04e6caa45e6f26d04b</title>
<path fill="none" stroke="black" d="M272.25,-340.16C286.21,-379.43 305.86,-478.41 282,-556 278.96,-565.89 273.38,-575.59 267.07,-583.93"/>
<polygon fill="black" stroke="black" points="264.26,-581.84 260.59,-591.77 269.65,-586.29 264.26,-581.84"/>
<g id="a_edge43&#45;headlabel"><a xlink:href="dir_000019_000008.html" target="_top" xlink:title="7">
<text text-anchor="middle" x="264.36" y="-574.76" font-family="FreeSans" font-size="10.00">7</text>
</a>
</g>
</g>
<!-- dir_93b162d06b4c1cfd72a25a3b81dbdc2c&#45;&gt;dir_4ebd611d220344e85b5ba20d026188c7 -->
<g id="edge44" class="edge">
<title>dir_93b162d06b4c1cfd72a25a3b81dbdc2c&#45;&gt;dir_4ebd611d220344e85b5ba20d026188c7</title>
<path fill="none" stroke="black" d="M266.77,-340.1C265.62,-350.44 262.81,-363.92 261,-376 254.01,-422.64 249.73,-477.41 245.08,-509.54"/>
<polygon fill="black" stroke="black" points="241.6,-509.1 243.48,-519.53 248.51,-510.21 241.6,-509.1"/>
<g id="a_edge44&#45;headlabel"><a xlink:href="dir_000019_000003.html" target="_top" xlink:title="2">
<text text-anchor="middle" x="239.37" y="-502.61" font-family="FreeSans" font-size="10.00">2</text>
</a>
</g>
</g>
<!-- dir_93b162d06b4c1cfd72a25a3b81dbdc2c&#45;&gt;dir_88c23c43b23ed9d4172878d8454da47c -->
<g id="edge45" class="edge">
<title>dir_93b162d06b4c1cfd72a25a3b81dbdc2c&#45;&gt;dir_88c23c43b23ed9d4172878d8454da47c</title>
<path fill="none" stroke="black" d="M261.19,-303.87C262.56,-279.56 269.52,-234.82 276.19,-206.01"/>
<polygon fill="black" stroke="black" points="279.62,-206.74 278.62,-196.19 272.82,-205.05 279.62,-206.74"/>
<g id="a_edge45&#45;headlabel"><a xlink:href="dir_000019_000013.html" target="_top" xlink:title="3">
<text text-anchor="middle" x="281.51" y="-208.41" font-family="FreeSans" font-size="10.00">3</text>
</a>
</g>
</g>
<!-- dir_93b162d06b4c1cfd72a25a3b81dbdc2c&#45;&gt;dir_9d5eda6d4cabe7ed4bd8d4e297f3e4b6 -->
<g id="edge46" class="edge">
<title>dir_93b162d06b4c1cfd72a25a3b81dbdc2c&#45;&gt;dir_9d5eda6d4cabe7ed4bd8d4e297f3e4b6</title>
<path fill="none" stroke="black" d="M251.62,-303.76C237.03,-273.41 212.03,-209.01 181,-160 157.2,-122.42 122.94,-84.12 101.92,-60"/>
<polygon fill="black" stroke="black" points="104.52,-57.66 95.33,-52.38 99.23,-62.24 104.52,-57.66"/>
<g id="a_edge46&#45;headlabel"><a xlink:href="dir_000019_000018.html" target="_top" xlink:title="2">
<text text-anchor="middle" x="109.02" y="-56.02" font-family="FreeSans" font-size="10.00">2</text>
</a>
</g>
</g>
<!-- dir_93b162d06b4c1cfd72a25a3b81dbdc2c&#45;&gt;dir_aefcf59a6fdfc9bd7c340f12bedb31af -->
<g id="edge47" class="edge">
<title>dir_93b162d06b4c1cfd72a25a3b81dbdc2c&#45;&gt;dir_aefcf59a6fdfc9bd7c340f12bedb31af</title>
<path fill="none" stroke="black" d="M267.23,-303.91C277.91,-280.48 301.47,-236.63 313,-196 318.76,-175.71 321.22,-151.94 323.6,-134.07"/>
<polygon fill="black" stroke="black" points="327.08,-134.45 325.06,-124.05 320.16,-133.44 327.08,-134.45"/>
<g id="a_edge47&#45;headlabel"><a xlink:href="dir_000019_000009.html" target="_top" xlink:title="9">
<text text-anchor="middle" x="329.38" y="-135.92" font-family="FreeSans" font-size="10.00">9</text>
</a>
</g>
</g>
<!-- dir_93b162d06b4c1cfd72a25a3b81dbdc2c&#45;&gt;dir_b9901e150939d9aa0c49934eef95a7bb -->
<g id="edge48" class="edge">
<title>dir_93b162d06b4c1cfd72a25a3b81dbdc2c&#45;&gt;dir_b9901e150939d9aa0c49934eef95a7bb</title>
<path fill="none" stroke="black" d="M286,-340.1C295.33,-348.55 305.88,-358.9 314.69,-368.2"/>
<polygon fill="black" stroke="black" points="312.26,-370.73 321.61,-375.7 317.4,-365.98 312.26,-370.73"/>
<g id="a_edge48&#45;headlabel"><a xlink:href="dir_000019_000014.html" target="_top" xlink:title="4">
<text text-anchor="middle" x="307.73" y="-367.51" font-family="FreeSans" font-size="10.00">4</text>
</a>
</g>
</g>
<!-- dir_93b162d06b4c1cfd72a25a3b81dbdc2c&#45;&gt;dir_e4d5a5ad095028ae0129065cd60b3253 -->
<g id="edge49" class="edge">
<title>dir_93b162d06b4c1cfd72a25a3b81dbdc2c&#45;&gt;dir_e4d5a5ad095028ae0129065cd60b3253</title>
<path fill="none" stroke="black" d="M256.45,-340.19C243.02,-364.96 213.52,-410.86 192.8,-439.56"/>
<polygon fill="black" stroke="black" points="189.79,-437.74 186.68,-447.87 195.43,-441.89 189.79,-437.74"/>
<g id="a_edge49&#45;headlabel"><a xlink:href="dir_000019_000007.html" target="_top" xlink:title="4">
<text text-anchor="middle" x="189.64" y="-430.67" font-family="FreeSans" font-size="10.00">4</text>
</a>
</g>
</g>
<!-- dir_93b162d06b4c1cfd72a25a3b81dbdc2c&#45;&gt;dir_2f78a2ad5ca00a9811c1641891cd4bc0 -->
<g id="edge42" class="edge">
<title>dir_93b162d06b4c1cfd72a25a3b81dbdc2c&#45;&gt;dir_2f78a2ad5ca00a9811c1641891cd4bc0</title>
<path fill="none" stroke="black" d="M230.44,-303.88C215.51,-294.89 198.02,-283.76 183.48,-274.03"/>
<polygon fill="black" stroke="black" points="185.1,-270.91 174.86,-268.19 181.17,-276.7 185.1,-270.91"/>
<g id="a_edge42&#45;headlabel"><a xlink:href="dir_000019_000005.html" target="_top" xlink:title="2">
<text text-anchor="middle" x="189.67" y="-268.07" font-family="FreeSans" font-size="10.00">2</text>
</a>
</g>
</g>
<!-- dir_99aed44a5fc429ff55959e3c685520ed -->
<g id="node6" class="node">
<title>dir_99aed44a5fc429ff55959e3c685520ed</title>
<g id="a_node6"><a xlink:href="dir_99aed44a5fc429ff55959e3c685520ed.html" target="_top" xlink:title="randomGenerator">
<polygon fill="none" stroke="black" points="378,-52 286,-52 286,-16 378,-16 378,-52"/>
<text text-anchor="middle" x="332" y="-31.5" font-family="FreeSans" font-size="10.00">randomGenerator</text>
</a>
</g>
</g>
<!-- dir_99aed44a5fc429ff55959e3c685520ed&#45;&gt;dir_35addd29aafebb04e6caa45e6f26d04b -->
<g id="edge61" class="edge">
<title>dir_99aed44a5fc429ff55959e3c685520ed&#45;&gt;dir_35addd29aafebb04e6caa45e6f26d04b</title>
<path fill="none" stroke="black" d="M360.02,-52.06C394.64,-75.53 449,-121.26 449,-177 449,-467 449,-467 449,-467 449,-513.27 431.13,-527.1 395,-556 359.68,-584.25 308.57,-597.76 274.14,-604"/>
<polygon fill="black" stroke="black" points="273.3,-600.59 264.02,-605.71 274.47,-607.49 273.3,-600.59"/>
<g id="a_edge61&#45;headlabel"><a xlink:href="dir_000030_000008.html" target="_top" xlink:title="2">
<text text-anchor="middle" x="276.37" y="-594.69" font-family="FreeSans" font-size="10.00">2</text>
</a>
</g>
</g>
<!-- dir_99aed44a5fc429ff55959e3c685520ed&#45;&gt;dir_aefcf59a6fdfc9bd7c340f12bedb31af -->
<g id="edge62" class="edge">
<title>dir_99aed44a5fc429ff55959e3c685520ed&#45;&gt;dir_aefcf59a6fdfc9bd7c340f12bedb31af</title>
<path fill="none" stroke="black" d="M337.9,-52.1C338.7,-59.79 338.94,-69.05 338.6,-77.67"/>
<polygon fill="black" stroke="black" points="335.11,-77.48 337.92,-87.7 342.09,-77.96 335.11,-77.48"/>
<g id="a_edge62&#45;headlabel"><a xlink:href="dir_000030_000009.html" target="_top" xlink:title="2">
<text text-anchor="middle" x="332.52" y="-71.2" font-family="FreeSans" font-size="10.00">2</text>
</a>
</g>
</g>
<!-- dir_9d5eda6d4cabe7ed4bd8d4e297f3e4b6&#45;&gt;dir_35addd29aafebb04e6caa45e6f26d04b -->
<g id="edge38" class="edge">
<title>dir_9d5eda6d4cabe7ed4bd8d4e297f3e4b6&#45;&gt;dir_35addd29aafebb04e6caa45e6f26d04b</title>
<path fill="none" stroke="black" d="M74.8,-52.31C66.98,-62.07 56.69,-74.92 50,-88 31.35,-124.48 26,-136.03 26,-177 26,-467 26,-467 26,-467 26,-550.37 138.9,-587.16 199.64,-601.33"/>
<polygon fill="black" stroke="black" points="199.1,-604.8 209.62,-603.57 200.63,-597.97 199.1,-604.8"/>
<g id="a_edge38&#45;headlabel"><a xlink:href="dir_000018_000008.html" target="_top" xlink:title="7">
<text text-anchor="middle" x="194.97" y="-604.28" font-family="FreeSans" font-size="10.00">7</text>
</a>
</g>
</g>
<!-- dir_9d5eda6d4cabe7ed4bd8d4e297f3e4b6&#45;&gt;dir_93b162d06b4c1cfd72a25a3b81dbdc2c -->
<g id="edge39" class="edge">
<title>dir_9d5eda6d4cabe7ed4bd8d4e297f3e4b6&#45;&gt;dir_93b162d06b4c1cfd72a25a3b81dbdc2c</title>
<path fill="none" stroke="black" d="M107.68,-52.38C133.06,-75.46 172.51,-118.17 199,-160 227,-204.22 250.09,-260.97 259.73,-293.94"/>
<polygon fill="black" stroke="black" points="256.39,-295.01 262.37,-303.76 263.15,-293.19 256.39,-295.01"/>
<g id="a_edge39&#45;headlabel"><a xlink:href="dir_000018_000019.html" target="_top" xlink:title="2">
<text text-anchor="middle" x="252.72" y="-289.78" font-family="FreeSans" font-size="10.00">2</text>
</a>
</g>
</g>
<!-- dir_9d5eda6d4cabe7ed4bd8d4e297f3e4b6&#45;&gt;dir_aefcf59a6fdfc9bd7c340f12bedb31af -->
<g id="edge40" class="edge">
<title>dir_9d5eda6d4cabe7ed4bd8d4e297f3e4b6&#45;&gt;dir_aefcf59a6fdfc9bd7c340f12bedb31af</title>
<path fill="none" stroke="black" d="M111.07,-41.48C155.75,-53.22 244.5,-78.16 294.94,-93.06"/>
<polygon fill="black" stroke="black" points="294.21,-96.5 304.79,-95.99 296.2,-89.79 294.21,-96.5"/>
<g id="a_edge40&#45;headlabel"><a xlink:href="dir_000018_000009.html" target="_top" xlink:title="4">
<text text-anchor="middle" x="289.95" y="-95.69" font-family="FreeSans" font-size="10.00">4</text>
</a>
</g>
</g>
<!-- dir_9d5eda6d4cabe7ed4bd8d4e297f3e4b6&#45;&gt;dir_e4d5a5ad095028ae0129065cd60b3253 -->
<g id="edge41" class="edge">
<title>dir_9d5eda6d4cabe7ed4bd8d4e297f3e4b6&#45;&gt;dir_e4d5a5ad095028ae0129065cd60b3253</title>
<path fill="none" stroke="black" d="M84.3,-52.29C79.65,-78.82 66,-131.33 66,-177 66,-323 66,-323 66,-323 66,-373.79 110.89,-416.75 142.11,-441.71"/>
<polygon fill="black" stroke="black" points="140.07,-444.56 150.11,-447.96 144.39,-439.05 140.07,-444.56"/>
<g id="a_edge41&#45;headlabel"><a xlink:href="dir_000018_000007.html" target="_top" xlink:title="3">
<text text-anchor="middle" x="135.49" y="-442.09" font-family="FreeSans" font-size="10.00">3</text>
</a>
</g>
</g>
<!-- dir_aefcf59a6fdfc9bd7c340f12bedb31af&#45;&gt;dir_35addd29aafebb04e6caa45e6f26d04b -->
<g id="edge2" class="edge">
<title>dir_aefcf59a6fdfc9bd7c340f12bedb31af&#45;&gt;dir_35addd29aafebb04e6caa45e6f26d04b</title>
<path fill="none" stroke="black" d="M359.2,-120.98C373.13,-130.77 389.1,-144.77 400,-160 425.03,-194.97 438,-205.99 438,-249 438,-467 438,-467 438,-467 438,-545.81 332.14,-585.87 273.95,-601.28"/>
<polygon fill="black" stroke="black" points="272.85,-597.95 264.01,-603.79 274.56,-604.73 272.85,-597.95"/>
<g id="a_edge2&#45;headlabel"><a xlink:href="dir_000009_000008.html" target="_top" xlink:title="46">
<text text-anchor="middle" x="275.64" y="-591.81" font-family="FreeSans" font-size="10.00">46</text>
</a>
</g>
</g>
<!-- dir_aefcf59a6fdfc9bd7c340f12bedb31af&#45;&gt;dir_4ebd611d220344e85b5ba20d026188c7 -->
<g id="edge3" class="edge">
<title>dir_aefcf59a6fdfc9bd7c340f12bedb31af&#45;&gt;dir_4ebd611d220344e85b5ba20d026188c7</title>
<path fill="none" stroke="black" d="M354.63,-124.19C380.35,-149.38 418,-198.8 418,-249 418,-323 418,-323 418,-323 418,-412.22 326.05,-485.37 273.1,-518.26"/>
<polygon fill="black" stroke="black" points="271.07,-515.39 264.32,-523.56 274.69,-521.38 271.07,-515.39"/>
<g id="a_edge3&#45;headlabel"><a xlink:href="dir_000009_000003.html" target="_top" xlink:title="7">
<text text-anchor="middle" x="272.68" y="-508.6" font-family="FreeSans" font-size="10.00">7</text>
</a>
</g>
</g>
<!-- dir_aefcf59a6fdfc9bd7c340f12bedb31af&#45;&gt;dir_93b162d06b4c1cfd72a25a3b81dbdc2c -->
<g id="edge4" class="edge">
<title>dir_aefcf59a6fdfc9bd7c340f12bedb31af&#45;&gt;dir_93b162d06b4c1cfd72a25a3b81dbdc2c</title>
<path fill="none" stroke="black" d="M338.42,-124.05C340.08,-142.2 337.92,-171.62 331,-196 320.73,-232.19 300.92,-270.92 285.03,-295.52"/>
<polygon fill="black" stroke="black" points="282.06,-293.66 279.38,-303.91 287.87,-297.57 282.06,-293.66"/>
<g id="a_edge4&#45;headlabel"><a xlink:href="dir_000009_000019.html" target="_top" xlink:title="4">
<text text-anchor="middle" x="281.72" y="-286.59" font-family="FreeSans" font-size="10.00">4</text>
</a>
</g>
</g>
<!-- dir_aefcf59a6fdfc9bd7c340f12bedb31af&#45;&gt;dir_99aed44a5fc429ff55959e3c685520ed -->
<g id="edge5" class="edge">
<title>dir_aefcf59a6fdfc9bd7c340f12bedb31af&#45;&gt;dir_99aed44a5fc429ff55959e3c685520ed</title>
<path fill="none" stroke="black" d="M326.08,-87.7C325.29,-79.98 325.06,-70.71 325.4,-62.11"/>
<polygon fill="black" stroke="black" points="328.9,-62.32 326.1,-52.1 321.92,-61.84 328.9,-62.32"/>
<g id="a_edge5&#45;headlabel"><a xlink:href="dir_000009_000030.html" target="_top" xlink:title="1">
<text text-anchor="middle" x="331.48" y="-63.61" font-family="FreeSans" font-size="10.00">1</text>
</a>
</g>
</g>
<!-- dir_aefcf59a6fdfc9bd7c340f12bedb31af&#45;&gt;dir_9d5eda6d4cabe7ed4bd8d4e297f3e4b6 -->
<g id="edge6" class="edge">
<title>dir_aefcf59a6fdfc9bd7c340f12bedb31af&#45;&gt;dir_9d5eda6d4cabe7ed4bd8d4e297f3e4b6</title>
<path fill="none" stroke="black" d="M304.52,-98.41C259.72,-86.63 171.37,-61.8 121.08,-46.94"/>
<polygon fill="black" stroke="black" points="121.84,-43.52 111.26,-44.02 119.85,-50.23 121.84,-43.52"/>
<g id="a_edge6&#45;headlabel"><a xlink:href="dir_000009_000018.html" target="_top" xlink:title="5">
<text text-anchor="middle" x="126.1" y="-39.32" font-family="FreeSans" font-size="10.00">5</text>
</a>
</g>
</g>
<!-- dir_aefcf59a6fdfc9bd7c340f12bedb31af&#45;&gt;dir_b9901e150939d9aa0c49934eef95a7bb -->
<g id="edge7" class="edge">
<title>dir_aefcf59a6fdfc9bd7c340f12bedb31af&#45;&gt;dir_b9901e150939d9aa0c49934eef95a7bb</title>
<path fill="none" stroke="black" d="M338.28,-124.26C345.76,-162.92 352.55,-259.39 348,-340 347.52,-348.45 346.62,-357.62 345.25,-365.93"/>
<polygon fill="black" stroke="black" points="341.79,-365.36 343.26,-375.86 348.66,-366.74 341.79,-365.36"/>
<g id="a_edge7&#45;headlabel"><a xlink:href="dir_000009_000014.html" target="_top" xlink:title="4">
<text text-anchor="middle" x="339.72" y="-358.78" font-family="FreeSans" font-size="10.00">4</text>
</a>
</g>
</g>
<!-- dir_aefcf59a6fdfc9bd7c340f12bedb31af&#45;&gt;dir_e4d5a5ad095028ae0129065cd60b3253 -->
<g id="edge8" class="edge">
<title>dir_aefcf59a6fdfc9bd7c340f12bedb31af&#45;&gt;dir_e4d5a5ad095028ae0129065cd60b3253</title>
<path fill="none" stroke="black" d="M304.85,-110.23C254.19,-116.36 149.17,-131.67 127,-160 61.09,-244.22 129.67,-381.79 159.25,-438.89"/>
<polygon fill="black" stroke="black" points="156.25,-440.7 163.96,-447.96 162.46,-437.48 156.25,-440.7"/>
<g id="a_edge8&#45;headlabel"><a xlink:href="dir_000009_000007.html" target="_top" xlink:title="11">
<text text-anchor="middle" x="152.07" y="-436.32" font-family="FreeSans" font-size="10.00">11</text>
</a>
</g>
</g>
<!-- dir_b6f5a809bb2d7a456474fbdeb88fcce2 -->
<g id="node9" class="node">
<title>dir_b6f5a809bb2d7a456474fbdeb88fcce2</title>
<g id="a_node9"><a xlink:href="dir_b6f5a809bb2d7a456474fbdeb88fcce2.html" target="_top" xlink:title="GL">
<polygon fill="none" stroke="black" points="181,-196 127,-196 127,-160 181,-160 181,-196"/>
<text text-anchor="middle" x="154" y="-175.5" font-family="FreeSans" font-size="10.00">GL</text>
</a>
</g>
</g>
<!-- dir_b9901e150939d9aa0c49934eef95a7bb&#45;&gt;dir_93b162d06b4c1cfd72a25a3b81dbdc2c -->
<g id="edge36" class="edge">
<title>dir_b9901e150939d9aa0c49934eef95a7bb&#45;&gt;dir_93b162d06b4c1cfd72a25a3b81dbdc2c</title>
<path fill="none" stroke="black" d="M309.78,-375.7C300.43,-367.22 289.89,-356.86 281.11,-347.58"/>
<polygon fill="black" stroke="black" points="283.56,-345.08 274.21,-340.1 278.42,-349.83 283.56,-345.08"/>
<g id="a_edge36&#45;headlabel"><a xlink:href="dir_000014_000019.html" target="_top" xlink:title="1">
<text text-anchor="middle" x="288.09" y="-343.3" font-family="FreeSans" font-size="10.00">1</text>
</a>
</g>
</g>
<!-- dir_b9901e150939d9aa0c49934eef95a7bb&#45;&gt;dir_aefcf59a6fdfc9bd7c340f12bedb31af -->
<g id="edge37" class="edge">
<title>dir_b9901e150939d9aa0c49934eef95a7bb&#45;&gt;dir_aefcf59a6fdfc9bd7c340f12bedb31af</title>
<path fill="none" stroke="black" d="M327.62,-375.86C327.79,-365.5 329.32,-352.02 330,-340 334.19,-265.69 328.75,-177.89 328.69,-134.34"/>
<polygon fill="black" stroke="black" points="332.19,-134.3 328.8,-124.26 325.19,-134.22 332.19,-134.3"/>
<g id="a_edge37&#45;headlabel"><a xlink:href="dir_000014_000009.html" target="_top" xlink:title="7">
<text text-anchor="middle" x="334.99" y="-135.42" font-family="FreeSans" font-size="10.00">7</text>
</a>
</g>
</g>
<!-- dir_e4d5a5ad095028ae0129065cd60b3253&#45;&gt;dir_35addd29aafebb04e6caa45e6f26d04b -->
<g id="edge29" class="edge">
<title>dir_e4d5a5ad095028ae0129065cd60b3253&#45;&gt;dir_35addd29aafebb04e6caa45e6f26d04b</title>
<path fill="none" stroke="black" d="M182,-484.28C189.25,-502.62 198.18,-532.2 210,-556 214.58,-565.22 220.55,-574.7 225.88,-583.04"/>
<polygon fill="black" stroke="black" points="223,-585.04 231.33,-591.59 228.91,-581.28 223,-585.04"/>
<g id="a_edge29&#45;headlabel"><a xlink:href="dir_000007_000008.html" target="_top" xlink:title="57">
<text text-anchor="middle" x="218.68" y="-581.03" font-family="FreeSans" font-size="10.00">57</text>
</a>
</g>
</g>
<!-- dir_e4d5a5ad095028ae0129065cd60b3253&#45;&gt;dir_4ebd611d220344e85b5ba20d026188c7 -->
<g id="edge30" class="edge">
<title>dir_e4d5a5ad095028ae0129065cd60b3253&#45;&gt;dir_4ebd611d220344e85b5ba20d026188c7</title>
<path fill="none" stroke="black" d="M193.02,-484.1C201.78,-492.47 211.63,-502.69 219.86,-511.92"/>
<polygon fill="black" stroke="black" points="217.4,-514.44 226.6,-519.7 222.69,-509.85 217.4,-514.44"/>
<g id="a_edge30&#45;headlabel"><a xlink:href="dir_000007_000003.html" target="_top" xlink:title="16">
<text text-anchor="middle" x="212.9" y="-511.08" font-family="FreeSans" font-size="10.00">16</text>
</a>
</g>
</g>
<!-- dir_e4d5a5ad095028ae0129065cd60b3253&#45;&gt;dir_88c23c43b23ed9d4172878d8454da47c -->
<g id="edge31" class="edge">
<title>dir_e4d5a5ad095028ae0129065cd60b3253&#45;&gt;dir_88c23c43b23ed9d4172878d8454da47c</title>
<path fill="none" stroke="black" d="M167.64,-447.98C168,-417.98 178.3,-354.1 199,-304 214.36,-266.83 240.27,-228.17 260.07,-203.87"/>
<polygon fill="black" stroke="black" points="262.76,-206.1 266.52,-196.2 257.41,-201.59 262.76,-206.1"/>
<g id="a_edge31&#45;headlabel"><a xlink:href="dir_000007_000013.html" target="_top" xlink:title="1">
<text text-anchor="middle" x="262.62" y="-208.18" font-family="FreeSans" font-size="10.00">1</text>
</a>
</g>
</g>
<!-- dir_e4d5a5ad095028ae0129065cd60b3253&#45;&gt;dir_93b162d06b4c1cfd72a25a3b81dbdc2c -->
<g id="edge32" class="edge">
<title>dir_e4d5a5ad095028ae0129065cd60b3253&#45;&gt;dir_93b162d06b4c1cfd72a25a3b81dbdc2c</title>
<path fill="none" stroke="black" d="M177.51,-447.87C190.92,-423.14 220.41,-377.24 241.15,-348.51"/>
<polygon fill="black" stroke="black" points="244.16,-350.32 247.27,-340.19 238.53,-346.17 244.16,-350.32"/>
<g id="a_edge32&#45;headlabel"><a xlink:href="dir_000007_000019.html" target="_top" xlink:title="10">
<text text-anchor="middle" x="244.32" y="-352.4" font-family="FreeSans" font-size="10.00">10</text>
</a>
</g>
</g>
<!-- dir_e4d5a5ad095028ae0129065cd60b3253&#45;&gt;dir_9d5eda6d4cabe7ed4bd8d4e297f3e4b6 -->
<g id="edge33" class="edge">
<title>dir_e4d5a5ad095028ae0129065cd60b3253&#45;&gt;dir_9d5eda6d4cabe7ed4bd8d4e297f3e4b6</title>
<path fill="none" stroke="black" d="M143.95,-451.79C107.53,-429.6 48,-381.49 48,-323 48,-323 48,-323 48,-177 48,-136.32 58.82,-90.23 69.05,-61.88"/>
<polygon fill="black" stroke="black" points="72.42,-62.88 72.77,-52.29 65.89,-60.35 72.42,-62.88"/>
<g id="a_edge33&#45;headlabel"><a xlink:href="dir_000007_000018.html" target="_top" xlink:title="7">
<text text-anchor="middle" x="73.77" y="-64.75" font-family="FreeSans" font-size="10.00">7</text>
</a>
</g>
</g>
<!-- dir_e4d5a5ad095028ae0129065cd60b3253&#45;&gt;dir_aefcf59a6fdfc9bd7c340f12bedb31af -->
<g id="edge34" class="edge">
<title>dir_e4d5a5ad095028ae0129065cd60b3253&#45;&gt;dir_aefcf59a6fdfc9bd7c340f12bedb31af</title>
<path fill="none" stroke="black" d="M155.97,-447.96C120.05,-397.89 39.28,-249.1 109,-160 131.26,-131.55 237.03,-116.24 294.67,-110.16"/>
<polygon fill="black" stroke="black" points="295.25,-113.62 304.84,-109.13 294.54,-106.66 295.25,-113.62"/>
<g id="a_edge34&#45;headlabel"><a xlink:href="dir_000007_000009.html" target="_top" xlink:title="42">
<text text-anchor="middle" x="291.96" y="-114.31" font-family="FreeSans" font-size="10.00">42</text>
</a>
</g>
</g>
<!-- dir_e4d5a5ad095028ae0129065cd60b3253&#45;&gt;dir_b9901e150939d9aa0c49934eef95a7bb -->
<g id="edge35" class="edge">
<title>dir_e4d5a5ad095028ae0129065cd60b3253&#45;&gt;dir_b9901e150939d9aa0c49934eef95a7bb</title>
<path fill="none" stroke="black" d="M198.12,-453.28C222.15,-442.9 257.77,-427.51 286.37,-415.15"/>
<polygon fill="black" stroke="black" points="287.98,-418.27 295.77,-411.09 285.2,-411.84 287.98,-418.27"/>
<g id="a_edge35&#45;headlabel"><a xlink:href="dir_000007_000014.html" target="_top" xlink:title="1">
<text text-anchor="middle" x="285.81" y="-419.8" font-family="FreeSans" font-size="10.00">1</text>
</a>
</g>
</g>
<!-- dir_2f78a2ad5ca00a9811c1641891cd4bc0&#45;&gt;dir_154eb94708f83cb7141d9ca39c6551cd -->
<g id="edge50" class="edge">
<title>dir_2f78a2ad5ca00a9811c1641891cd4bc0&#45;&gt;dir_154eb94708f83cb7141d9ca39c6551cd</title>
<path fill="none" stroke="black" d="M137.29,-268.19C114.65,-293.38 77,-342.8 77,-393 77,-539 77,-539 77,-539 77,-584.9 109.12,-629.65 132.66,-656.27"/>
<polygon fill="black" stroke="black" points="130.32,-658.9 139.64,-663.93 135.49,-654.19 130.32,-658.9"/>
<g id="a_edge50&#45;headlabel"><a xlink:href="dir_000005_000023.html" target="_top" xlink:title="1">
<text text-anchor="middle" x="125.8" y="-655.66" font-family="FreeSans" font-size="10.00">1</text>
</a>
</g>
</g>
<!-- dir_2f78a2ad5ca00a9811c1641891cd4bc0&#45;&gt;dir_35addd29aafebb04e6caa45e6f26d04b -->
<g id="edge51" class="edge">
<title>dir_2f78a2ad5ca00a9811c1641891cd4bc0&#45;&gt;dir_35addd29aafebb04e6caa45e6f26d04b</title>
<path fill="none" stroke="black" d="M152.28,-268.11C144.7,-294.42 126,-346.63 126,-393 126,-467 126,-467 126,-467 126,-518.55 172.71,-561.06 205.66,-585.73"/>
<polygon fill="black" stroke="black" points="203.99,-588.84 214.13,-591.91 208.12,-583.19 203.99,-588.84"/>
<g id="a_edge51&#45;headlabel"><a xlink:href="dir_000005_000008.html" target="_top" xlink:title="52">
<text text-anchor="middle" x="199.41" y="-586.51" font-family="FreeSans" font-size="10.00">52</text>
</a>
</g>
</g>
<!-- dir_2f78a2ad5ca00a9811c1641891cd4bc0&#45;&gt;dir_4ebd611d220344e85b5ba20d026188c7 -->
<g id="edge52" class="edge">
<title>dir_2f78a2ad5ca00a9811c1641891cd4bc0&#45;&gt;dir_4ebd611d220344e85b5ba20d026188c7</title>
<path fill="none" stroke="black" d="M157.66,-268.16C161.58,-286.15 168.18,-315.2 175,-340 191.9,-401.46 215.23,-472.57 227.91,-510.28"/>
<polygon fill="black" stroke="black" points="224.67,-511.64 231.19,-520 231.3,-509.4 224.67,-511.64"/>
<g id="a_edge52&#45;headlabel"><a xlink:href="dir_000005_000003.html" target="_top" xlink:title="26">
<text text-anchor="middle" x="220.83" y="-506.64" font-family="FreeSans" font-size="10.00">26</text>
</a>
</g>
</g>
<!-- dir_2f78a2ad5ca00a9811c1641891cd4bc0&#45;&gt;dir_88c23c43b23ed9d4172878d8454da47c -->
<g id="edge53" class="edge">
<title>dir_2f78a2ad5ca00a9811c1641891cd4bc0&#45;&gt;dir_88c23c43b23ed9d4172878d8454da47c</title>
<path fill="none" stroke="black" d="M180.39,-231.88C200.33,-220.68 227.75,-206.16 249.72,-195.17"/>
<polygon fill="black" stroke="black" points="251.36,-198.26 258.77,-190.69 248.25,-191.99 251.36,-198.26"/>
<g id="a_edge53&#45;headlabel"><a xlink:href="dir_000005_000013.html" target="_top" xlink:title="3">
<text text-anchor="middle" x="249.39" y="-199.9" font-family="FreeSans" font-size="10.00">3</text>
</a>
</g>
</g>
<!-- dir_2f78a2ad5ca00a9811c1641891cd4bc0&#45;&gt;dir_93b162d06b4c1cfd72a25a3b81dbdc2c -->
<g id="edge54" class="edge">
<title>dir_2f78a2ad5ca00a9811c1641891cd4bc0&#45;&gt;dir_93b162d06b4c1cfd72a25a3b81dbdc2c</title>
<path fill="none" stroke="black" d="M181.15,-264.9C197.14,-274.34 217.24,-287.07 233.59,-298.01"/>
<polygon fill="black" stroke="black" points="231.99,-301.16 242.23,-303.88 235.92,-295.37 231.99,-301.16"/>
<g id="a_edge54&#45;headlabel"><a xlink:href="dir_000005_000019.html" target="_top" xlink:title="1">
<text text-anchor="middle" x="227.42" y="-298.99" font-family="FreeSans" font-size="10.00">1</text>
</a>
</g>
</g>
<!-- dir_2f78a2ad5ca00a9811c1641891cd4bc0&#45;&gt;dir_99aed44a5fc429ff55959e3c685520ed -->
<g id="edge55" class="edge">
<title>dir_2f78a2ad5ca00a9811c1641891cd4bc0&#45;&gt;dir_99aed44a5fc429ff55959e3c685520ed</title>
<path fill="none" stroke="black" d="M166.92,-231.89C174.23,-221.77 183.23,-208.52 190,-196 198.24,-180.75 195.3,-174.36 205,-160 232.11,-119.87 273.55,-82.07 301.66,-58.77"/>
<polygon fill="black" stroke="black" points="304.05,-61.34 309.57,-52.3 299.62,-55.92 304.05,-61.34"/>
<g id="a_edge55&#45;headlabel"><a xlink:href="dir_000005_000030.html" target="_top" xlink:title="1">
<text text-anchor="middle" x="303.06" y="-63.31" font-family="FreeSans" font-size="10.00">1</text>
</a>
</g>
</g>
<!-- dir_2f78a2ad5ca00a9811c1641891cd4bc0&#45;&gt;dir_9d5eda6d4cabe7ed4bd8d4e297f3e4b6 -->
<g id="edge56" class="edge">
<title>dir_2f78a2ad5ca00a9811c1641891cd4bc0&#45;&gt;dir_9d5eda6d4cabe7ed4bd8d4e297f3e4b6</title>
<path fill="none" stroke="black" d="M139.82,-231.86C132.3,-221.94 123.49,-208.9 118,-196 99,-151.37 90.25,-95.11 86.51,-62.28"/>
<polygon fill="black" stroke="black" points="89.96,-61.68 85.42,-52.1 83,-62.42 89.96,-61.68"/>
<g id="a_edge56&#45;headlabel"><a xlink:href="dir_000005_000018.html" target="_top" xlink:title="3">
<text text-anchor="middle" x="93.17" y="-62.45" font-family="FreeSans" font-size="10.00">3</text>
</a>
</g>
</g>
<!-- dir_2f78a2ad5ca00a9811c1641891cd4bc0&#45;&gt;dir_aefcf59a6fdfc9bd7c340f12bedb31af -->
<g id="edge57" class="edge">
<title>dir_2f78a2ad5ca00a9811c1641891cd4bc0&#45;&gt;dir_aefcf59a6fdfc9bd7c340f12bedb31af</title>
<path fill="none" stroke="black" d="M170.54,-231.98C189.07,-213.33 220.39,-183.01 250,-160 264.52,-148.72 281.46,-137.48 296.16,-128.27"/>
<polygon fill="black" stroke="black" points="298.31,-131.06 304.98,-122.82 294.63,-125.1 298.31,-131.06"/>
<g id="a_edge57&#45;headlabel"><a xlink:href="dir_000005_000009.html" target="_top" xlink:title="5">
<text text-anchor="middle" x="296.75" y="-132.86" font-family="FreeSans" font-size="10.00">5</text>
</a>
</g>
</g>
<!-- dir_2f78a2ad5ca00a9811c1641891cd4bc0&#45;&gt;dir_b6f5a809bb2d7a456474fbdeb88fcce2 -->
<g id="edge58" class="edge">
<title>dir_2f78a2ad5ca00a9811c1641891cd4bc0&#45;&gt;dir_b6f5a809bb2d7a456474fbdeb88fcce2</title>
<path fill="none" stroke="black" d="M154,-231.7C154,-223.98 154,-214.71 154,-206.11"/>
<polygon fill="black" stroke="black" points="157.5,-206.1 154,-196.1 150.5,-206.1 157.5,-206.1"/>
<g id="a_edge58&#45;headlabel"><a xlink:href="dir_000005_000044.html" target="_top" xlink:title="2">
<text text-anchor="middle" x="160.34" y="-207.2" font-family="FreeSans" font-size="10.00">2</text>
</a>
</g>
</g>
<!-- dir_2f78a2ad5ca00a9811c1641891cd4bc0&#45;&gt;dir_b9901e150939d9aa0c49934eef95a7bb -->
<g id="edge59" class="edge">
<title>dir_2f78a2ad5ca00a9811c1641891cd4bc0&#45;&gt;dir_b9901e150939d9aa0c49934eef95a7bb</title>
<path fill="none" stroke="black" d="M160.62,-268.28C168.96,-288.01 185.04,-320.13 208,-340 230.35,-359.33 260.78,-372.44 286.02,-380.78"/>
<polygon fill="black" stroke="black" points="285.18,-384.19 295.77,-383.86 287.29,-377.51 285.18,-384.19"/>
<g id="a_edge59&#45;headlabel"><a xlink:href="dir_000005_000014.html" target="_top" xlink:title="1">
<text text-anchor="middle" x="280.9" y="-383.32" font-family="FreeSans" font-size="10.00">1</text>
</a>
</g>
</g>
<!-- dir_2f78a2ad5ca00a9811c1641891cd4bc0&#45;&gt;dir_e4d5a5ad095028ae0129065cd60b3253 -->
<g id="edge60" class="edge">
<title>dir_2f78a2ad5ca00a9811c1641891cd4bc0&#45;&gt;dir_e4d5a5ad095028ae0129065cd60b3253</title>
<path fill="none" stroke="black" d="M153.19,-268.18C152.74,-278.55 152.23,-292.03 152,-304 151.7,-320 150.79,-324.05 152,-340 154.56,-373.9 160.98,-412.53 165.65,-437.76"/>
<polygon fill="black" stroke="black" points="162.23,-438.53 167.52,-447.7 169.11,-437.23 162.23,-438.53"/>
<g id="a_edge60&#45;headlabel"><a xlink:href="dir_000005_000007.html" target="_top" xlink:title="6">
<text text-anchor="middle" x="158.77" y="-433.02" font-family="FreeSans" font-size="10.00">6</text>
</a>
</g>
</g>
</g>
</svg>
