<?xml version="1.0" encoding="UTF-8" standalone="no"?>
<!DOCTYPE svg PUBLIC "-//W3C//DTD SVG 1.1//EN"
 "http://www.w3.org/Graphics/SVG/1.1/DTD/svg11.dtd">
<!-- Generated by graphviz version 2.43.0 (0)
 -->
<!-- Title: lyap Pages: 1 -->
<svg width="334pt" height="599pt"
 viewBox="0.00 0.00 334.00 599.00" xmlns="http://www.w3.org/2000/svg" xmlns:xlink="http://www.w3.org/1999/xlink">
<g id="graph0" class="graph" transform="scale(1 1) rotate(0) translate(4 595)">
<title>lyap</title>
<polygon fill="white" stroke="transparent" points="-4,4 -4,-595 330,-595 330,4 -4,4"/>
<g id="clust1" class="cluster">
<title>clusterdir_db7313a27b1cae523c7773e30bdf986c</title>
<g id="a_clust1"><a xlink:href="dir_db7313a27b1cae523c7773e30bdf986c.html" target="_top" xlink:title="copasi">
<polygon fill="#ddddee" stroke="black" points="8,-8 8,-583 318,-583 318,-8 8,-8"/>
<text text-anchor="middle" x="163" y="-571" font-family="FreeSans" font-size="10.00">copasi</text>
</a>
</g>
</g>
<!-- dir_154eb94708f83cb7141d9ca39c6551cd -->
<g id="node1" class="node">
<title>dir_154eb94708f83cb7141d9ca39c6551cd</title>
<g id="a_node1"><a xlink:href="dir_154eb94708f83cb7141d9ca39c6551cd.html" target="_top" xlink:title="odepack++">
<polygon fill="none" stroke="black" points="81.5,-556 16.5,-556 16.5,-520 81.5,-520 81.5,-556"/>
<text text-anchor="middle" x="49" y="-535.5" font-family="FreeSans" font-size="10.00">odepack++</text>
</a>
</g>
</g>
<!-- dir_35addd29aafebb04e6caa45e6f26d04b -->
<g id="node2" class="node">
<title>dir_35addd29aafebb04e6caa45e6f26d04b</title>
<g id="a_node2"><a xlink:href="dir_35addd29aafebb04e6caa45e6f26d04b.html" target="_top" xlink:title="core">
<polygon fill="none" stroke="black" points="250,-484 196,-484 196,-448 250,-448 250,-484"/>
<text text-anchor="middle" x="223" y="-463.5" font-family="FreeSans" font-size="10.00">core</text>
</a>
</g>
</g>
<!-- dir_154eb94708f83cb7141d9ca39c6551cd&#45;&gt;dir_35addd29aafebb04e6caa45e6f26d04b -->
<g id="edge1" class="edge">
<title>dir_154eb94708f83cb7141d9ca39c6551cd&#45;&gt;dir_35addd29aafebb04e6caa45e6f26d04b</title>
<path fill="none" stroke="black" d="M81.73,-523.83C111.49,-511.86 155.35,-494.22 186.29,-481.77"/>
<polygon fill="black" stroke="black" points="187.88,-484.9 195.85,-477.92 185.26,-478.41 187.88,-484.9"/>
<g id="a_edge1&#45;headlabel"><a xlink:href="dir_000023_000008.html" target="_top" xlink:title="1">
<text text-anchor="middle" x="185.6" y="-486.38" font-family="FreeSans" font-size="10.00">1</text>
</a>
</g>
</g>
<!-- dir_405ce7a1489983e8b36f67512c8c61c7 -->
<g id="node3" class="node">
<title>dir_405ce7a1489983e8b36f67512c8c61c7</title>
<g id="a_node3"><a xlink:href="dir_405ce7a1489983e8b36f67512c8c61c7.html" target="_top" xlink:title="lapack">
<polygon fill="none" stroke="black" points="104,-52 50,-52 50,-16 104,-16 104,-52"/>
<text text-anchor="middle" x="77" y="-31.5" font-family="FreeSans" font-size="10.00">lapack</text>
</a>
</g>
</g>
<!-- dir_154eb94708f83cb7141d9ca39c6551cd&#45;&gt;dir_405ce7a1489983e8b36f67512c8c61c7 -->
<g id="edge2" class="edge">
<title>dir_154eb94708f83cb7141d9ca39c6551cd&#45;&gt;dir_405ce7a1489983e8b36f67512c8c61c7</title>
<path fill="none" stroke="black" d="M42.52,-519.79C33.17,-493.36 17,-440.99 17,-395 17,-395 17,-395 17,-177 17,-133.72 40.94,-88.45 58.58,-60.98"/>
<polygon fill="black" stroke="black" points="61.68,-62.65 64.28,-52.38 55.84,-58.78 61.68,-62.65"/>
<g id="a_edge2&#45;headlabel"><a xlink:href="dir_000023_000004.html" target="_top" xlink:title="7">
<text text-anchor="middle" x="62.06" y="-64.71" font-family="FreeSans" font-size="10.00">7</text>
</a>
</g>
</g>
<!-- dir_4ebd611d220344e85b5ba20d026188c7 -->
<g id="node4" class="node">
<title>dir_4ebd611d220344e85b5ba20d026188c7</title>
<g id="a_node4"><a xlink:href="dir_4ebd611d220344e85b5ba20d026188c7.html" target="_top" xlink:title="report">
<polygon fill="none" stroke="black" points="250,-412 196,-412 196,-376 250,-376 250,-412"/>
<text text-anchor="middle" x="223" y="-391.5" font-family="FreeSans" font-size="10.00">report</text>
</a>
</g>
</g>
<!-- dir_35addd29aafebb04e6caa45e6f26d04b&#45;&gt;dir_4ebd611d220344e85b5ba20d026188c7 -->
<g id="edge28" class="edge">
<title>dir_35addd29aafebb04e6caa45e6f26d04b&#45;&gt;dir_4ebd611d220344e85b5ba20d026188c7</title>
<path fill="none" stroke="black" d="M217.08,-447.7C216.29,-439.98 216.06,-430.71 216.4,-422.11"/>
<polygon fill="black" stroke="black" points="219.9,-422.32 217.1,-412.1 212.92,-421.84 219.9,-422.32"/>
<g id="a_edge28&#45;headlabel"><a xlink:href="dir_000008_000003.html" target="_top" xlink:title="3">
<text text-anchor="middle" x="222.48" y="-423.61" font-family="FreeSans" font-size="10.00">3</text>
</a>
</g>
</g>
<!-- dir_93b162d06b4c1cfd72a25a3b81dbdc2c -->
<g id="node5" class="node">
<title>dir_93b162d06b4c1cfd72a25a3b81dbdc2c</title>
<g id="a_node5"><a xlink:href="dir_93b162d06b4c1cfd72a25a3b81dbdc2c.html" target="_top" xlink:title="CopasiDataModel">
<polygon fill="none" stroke="black" points="310.5,-52 217.5,-52 217.5,-16 310.5,-16 310.5,-52"/>
<text text-anchor="middle" x="264" y="-31.5" font-family="FreeSans" font-size="10.00">CopasiDataModel</text>
</a>
</g>
</g>
<!-- dir_35addd29aafebb04e6caa45e6f26d04b&#45;&gt;dir_93b162d06b4c1cfd72a25a3b81dbdc2c -->
<g id="edge29" class="edge">
<title>dir_35addd29aafebb04e6caa45e6f26d04b&#45;&gt;dir_93b162d06b4c1cfd72a25a3b81dbdc2c</title>
<path fill="none" stroke="black" d="M236.11,-447.77C258.42,-422.91 300,-374.3 300,-323 300,-323 300,-323 300,-177 300,-135.31 282.16,-89.82 271.19,-61.84"/>
<polygon fill="black" stroke="black" points="274.39,-60.42 267.5,-52.37 267.87,-62.96 274.39,-60.42"/>
<g id="a_edge29&#45;headlabel"><a xlink:href="dir_000008_000019.html" target="_top" xlink:title="5">
<text text-anchor="middle" x="278.34" y="-60.24" font-family="FreeSans" font-size="10.00">5</text>
</a>
</g>
</g>
<!-- dir_aefcf59a6fdfc9bd7c340f12bedb31af -->
<g id="node6" class="node">
<title>dir_aefcf59a6fdfc9bd7c340f12bedb31af</title>
<g id="a_node6"><a xlink:href="dir_aefcf59a6fdfc9bd7c340f12bedb31af.html" target="_top" xlink:title="utilities">
<polygon fill="none" stroke="black" points="230,-196 176,-196 176,-160 230,-160 230,-196"/>
<text text-anchor="middle" x="203" y="-175.5" font-family="FreeSans" font-size="10.00">utilities</text>
</a>
</g>
</g>
<!-- dir_35addd29aafebb04e6caa45e6f26d04b&#45;&gt;dir_aefcf59a6fdfc9bd7c340f12bedb31af -->
<g id="edge30" class="edge">
<title>dir_35addd29aafebb04e6caa45e6f26d04b&#45;&gt;dir_aefcf59a6fdfc9bd7c340f12bedb31af</title>
<path fill="none" stroke="black" d="M230.63,-447.77C237.37,-438.03 245.95,-425.18 250,-412 254.7,-396.71 252.21,-391.85 250,-376 241.33,-313.82 217.98,-243.7 207.28,-206.17"/>
<polygon fill="black" stroke="black" points="210.52,-204.77 204.5,-196.05 203.77,-206.62 210.52,-204.77"/>
<g id="a_edge30&#45;headlabel"><a xlink:href="dir_000008_000009.html" target="_top" xlink:title="13">
<text text-anchor="middle" x="214.21" y="-204.98" font-family="FreeSans" font-size="10.00">13</text>
</a>
</g>
</g>
<!-- dir_e4d5a5ad095028ae0129065cd60b3253 -->
<g id="node8" class="node">
<title>dir_e4d5a5ad095028ae0129065cd60b3253</title>
<g id="a_node8"><a xlink:href="dir_e4d5a5ad095028ae0129065cd60b3253.html" target="_top" xlink:title="model">
<polygon fill="none" stroke="black" points="210,-340 156,-340 156,-304 210,-304 210,-340"/>
<text text-anchor="middle" x="183" y="-319.5" font-family="FreeSans" font-size="10.00">model</text>
</a>
</g>
</g>
<!-- dir_35addd29aafebb04e6caa45e6f26d04b&#45;&gt;dir_e4d5a5ad095028ae0129065cd60b3253 -->
<g id="edge31" class="edge">
<title>dir_35addd29aafebb04e6caa45e6f26d04b&#45;&gt;dir_e4d5a5ad095028ae0129065cd60b3253</title>
<path fill="none" stroke="black" d="M199.65,-447.7C190.93,-437.93 182.35,-425.09 178,-412 171.39,-392.09 170.66,-368.3 172.77,-350.33"/>
<polygon fill="black" stroke="black" points="176.26,-350.66 174.38,-340.23 169.35,-349.56 176.26,-350.66"/>
<g id="a_edge31&#45;headlabel"><a xlink:href="dir_000008_000007.html" target="_top" xlink:title="2">
<text text-anchor="middle" x="178.5" y="-352.15" font-family="FreeSans" font-size="10.00">2</text>
</a>
</g>
</g>
<!-- dir_4ebd611d220344e85b5ba20d026188c7&#45;&gt;dir_35addd29aafebb04e6caa45e6f26d04b -->
<g id="edge18" class="edge">
<title>dir_4ebd611d220344e85b5ba20d026188c7&#45;&gt;dir_35addd29aafebb04e6caa45e6f26d04b</title>
<path fill="none" stroke="black" d="M228.9,-412.1C229.7,-419.79 229.94,-429.05 229.6,-437.67"/>
<polygon fill="black" stroke="black" points="226.11,-437.48 228.92,-447.7 233.09,-437.96 226.11,-437.48"/>
<g id="a_edge18&#45;headlabel"><a xlink:href="dir_000003_000008.html" target="_top" xlink:title="21">
<text text-anchor="middle" x="223.52" y="-431.2" font-family="FreeSans" font-size="10.00">21</text>
</a>
</g>
</g>
<!-- dir_4ebd611d220344e85b5ba20d026188c7&#45;&gt;dir_93b162d06b4c1cfd72a25a3b81dbdc2c -->
<g id="edge19" class="edge">
<title>dir_4ebd611d220344e85b5ba20d026188c7&#45;&gt;dir_93b162d06b4c1cfd72a25a3b81dbdc2c</title>
<path fill="none" stroke="black" d="M231.13,-375.82C247.37,-350.26 280,-299.93 280,-251 280,-251 280,-251 280,-177 280,-136.6 270.06,-90.71 264.98,-62.3"/>
<polygon fill="black" stroke="black" points="268.41,-61.59 263.29,-52.32 261.5,-62.76 268.41,-61.59"/>
<g id="a_edge19&#45;headlabel"><a xlink:href="dir_000003_000019.html" target="_top" xlink:title="3">
<text text-anchor="middle" x="271.8" y="-62.17" font-family="FreeSans" font-size="10.00">3</text>
</a>
</g>
</g>
<!-- dir_4ebd611d220344e85b5ba20d026188c7&#45;&gt;dir_aefcf59a6fdfc9bd7c340f12bedb31af -->
<g id="edge20" class="edge">
<title>dir_4ebd611d220344e85b5ba20d026188c7&#45;&gt;dir_aefcf59a6fdfc9bd7c340f12bedb31af</title>
<path fill="none" stroke="black" d="M215.93,-375.91C213.18,-357.97 212.15,-328.96 210,-304 207.1,-270.39 201.89,-231.92 200.17,-206.64"/>
<polygon fill="black" stroke="black" points="203.65,-206.15 199.65,-196.34 196.66,-206.5 203.65,-206.15"/>
<g id="a_edge20&#45;headlabel"><a xlink:href="dir_000003_000009.html" target="_top" xlink:title="11">
<text text-anchor="middle" x="206.66" y="-207.1" font-family="FreeSans" font-size="10.00">11</text>
</a>
</g>
</g>
<!-- dir_db3afc5e367a93f87ffcc764fb4101bb -->
<g id="node7" class="node">
<title>dir_db3afc5e367a93f87ffcc764fb4101bb</title>
<g id="a_node7"><a xlink:href="dir_db3afc5e367a93f87ffcc764fb4101bb.html" target="_top" xlink:title="math">
<polygon fill="none" stroke="black" points="170,-268 116,-268 116,-232 170,-232 170,-268"/>
<text text-anchor="middle" x="143" y="-247.5" font-family="FreeSans" font-size="10.00">math</text>
</a>
</g>
</g>
<!-- dir_4ebd611d220344e85b5ba20d026188c7&#45;&gt;dir_db3afc5e367a93f87ffcc764fb4101bb -->
<g id="edge21" class="edge">
<title>dir_4ebd611d220344e85b5ba20d026188c7&#45;&gt;dir_db3afc5e367a93f87ffcc764fb4101bb</title>
<path fill="none" stroke="black" d="M195.89,-381.8C178.65,-373.13 157.63,-359.3 147,-340 136.71,-321.31 136.35,-296.93 138.2,-278.41"/>
<polygon fill="black" stroke="black" points="141.7,-278.63 139.49,-268.27 134.76,-277.75 141.7,-278.63"/>
<g id="a_edge21&#45;headlabel"><a xlink:href="dir_000003_000024.html" target="_top" xlink:title="2">
<text text-anchor="middle" x="144.06" y="-280.05" font-family="FreeSans" font-size="10.00">2</text>
</a>
</g>
</g>
<!-- dir_4ebd611d220344e85b5ba20d026188c7&#45;&gt;dir_e4d5a5ad095028ae0129065cd60b3253 -->
<g id="edge22" class="edge">
<title>dir_4ebd611d220344e85b5ba20d026188c7&#45;&gt;dir_e4d5a5ad095028ae0129065cd60b3253</title>
<path fill="none" stroke="black" d="M207.2,-375.7C201.82,-367.73 196.1,-358.1 191.45,-349.26"/>
<polygon fill="black" stroke="black" points="194.47,-347.49 186.88,-340.1 188.21,-350.62 194.47,-347.49"/>
<g id="a_edge22&#45;headlabel"><a xlink:href="dir_000003_000007.html" target="_top" xlink:title="2">
<text text-anchor="middle" x="198.62" y="-346.94" font-family="FreeSans" font-size="10.00">2</text>
</a>
</g>
</g>
<!-- dir_93b162d06b4c1cfd72a25a3b81dbdc2c&#45;&gt;dir_35addd29aafebb04e6caa45e6f26d04b -->
<g id="edge38" class="edge">
<title>dir_93b162d06b4c1cfd72a25a3b81dbdc2c&#45;&gt;dir_35addd29aafebb04e6caa45e6f26d04b</title>
<path fill="none" stroke="black" d="M279.14,-52.37C295.5,-78.59 318,-130.19 318,-177 318,-323 318,-323 318,-323 318,-369.89 283.26,-414.54 255.63,-440.85"/>
<polygon fill="black" stroke="black" points="253.08,-438.44 248.06,-447.77 257.8,-443.61 253.08,-438.44"/>
<g id="a_edge38&#45;headlabel"><a xlink:href="dir_000019_000008.html" target="_top" xlink:title="7">
<text text-anchor="middle" x="253.82" y="-431.42" font-family="FreeSans" font-size="10.00">7</text>
</a>
</g>
</g>
<!-- dir_93b162d06b4c1cfd72a25a3b81dbdc2c&#45;&gt;dir_4ebd611d220344e85b5ba20d026188c7 -->
<g id="edge39" class="edge">
<title>dir_93b162d06b4c1cfd72a25a3b81dbdc2c&#45;&gt;dir_4ebd611d220344e85b5ba20d026188c7</title>
<path fill="none" stroke="black" d="M274.83,-52.32C285.36,-78.89 298,-131.44 298,-177 298,-251 298,-251 298,-251 298,-295.35 271.2,-340.83 249.43,-368"/>
<polygon fill="black" stroke="black" points="246.61,-365.91 242.87,-375.82 251.98,-370.41 246.61,-365.91"/>
<g id="a_edge39&#45;headlabel"><a xlink:href="dir_000019_000003.html" target="_top" xlink:title="2">
<text text-anchor="middle" x="246.75" y="-358.83" font-family="FreeSans" font-size="10.00">2</text>
</a>
</g>
</g>
<!-- dir_93b162d06b4c1cfd72a25a3b81dbdc2c&#45;&gt;dir_aefcf59a6fdfc9bd7c340f12bedb31af -->
<g id="edge40" class="edge">
<title>dir_93b162d06b4c1cfd72a25a3b81dbdc2c&#45;&gt;dir_aefcf59a6fdfc9bd7c340f12bedb31af</title>
<path fill="none" stroke="black" d="M261.21,-52.19C253.25,-76.74 234.04,-122.07 219.62,-150.81"/>
<polygon fill="black" stroke="black" points="216.42,-149.38 214.94,-159.87 222.64,-152.59 216.42,-149.38"/>
<g id="a_edge40&#45;headlabel"><a xlink:href="dir_000019_000009.html" target="_top" xlink:title="9">
<text text-anchor="middle" x="215.55" y="-142.38" font-family="FreeSans" font-size="10.00">9</text>
</a>
</g>
</g>
<!-- dir_93b162d06b4c1cfd72a25a3b81dbdc2c&#45;&gt;dir_e4d5a5ad095028ae0129065cd60b3253 -->
<g id="edge41" class="edge">
<title>dir_93b162d06b4c1cfd72a25a3b81dbdc2c&#45;&gt;dir_e4d5a5ad095028ae0129065cd60b3253</title>
<path fill="none" stroke="black" d="M268.27,-52.25C269.5,-82.08 263.09,-145.01 248,-196 237.47,-231.59 218.97,-270.24 204.09,-294.99"/>
<polygon fill="black" stroke="black" points="200.93,-293.43 198.59,-303.77 206.86,-297.15 200.93,-293.43"/>
<g id="a_edge41&#45;headlabel"><a xlink:href="dir_000019_000007.html" target="_top" xlink:title="4">
<text text-anchor="middle" x="200.44" y="-286.38" font-family="FreeSans" font-size="10.00">4</text>
</a>
</g>
</g>
<!-- dir_aefcf59a6fdfc9bd7c340f12bedb31af&#45;&gt;dir_35addd29aafebb04e6caa45e6f26d04b -->
<g id="edge11" class="edge">
<title>dir_aefcf59a6fdfc9bd7c340f12bedb31af&#45;&gt;dir_35addd29aafebb04e6caa45e6f26d04b</title>
<path fill="none" stroke="black" d="M214.67,-196.05C231.23,-229.77 258.48,-307.68 268,-376 270.21,-391.85 272.7,-396.71 268,-412 264.96,-421.89 259.38,-431.59 253.07,-439.93"/>
<polygon fill="black" stroke="black" points="250.26,-437.84 246.59,-447.77 255.65,-442.29 250.26,-437.84"/>
<g id="a_edge11&#45;headlabel"><a xlink:href="dir_000009_000008.html" target="_top" xlink:title="46">
<text text-anchor="middle" x="250.36" y="-430.76" font-family="FreeSans" font-size="10.00">46</text>
</a>
</g>
</g>
<!-- dir_aefcf59a6fdfc9bd7c340f12bedb31af&#45;&gt;dir_405ce7a1489983e8b36f67512c8c61c7 -->
<g id="edge12" class="edge">
<title>dir_aefcf59a6fdfc9bd7c340f12bedb31af&#45;&gt;dir_405ce7a1489983e8b36f67512c8c61c7</title>
<path fill="none" stroke="black" d="M197.69,-160C191.04,-140.81 178.15,-109.49 159,-88 146.18,-73.61 128.57,-61.55 112.96,-52.59"/>
<polygon fill="black" stroke="black" points="114.5,-49.44 104.05,-47.68 111.12,-55.57 114.5,-49.44"/>
<g id="a_edge12&#45;headlabel"><a xlink:href="dir_000009_000004.html" target="_top" xlink:title="9">
<text text-anchor="middle" x="119.01" y="-46.19" font-family="FreeSans" font-size="10.00">9</text>
</a>
</g>
</g>
<!-- dir_aefcf59a6fdfc9bd7c340f12bedb31af&#45;&gt;dir_4ebd611d220344e85b5ba20d026188c7 -->
<g id="edge13" class="edge">
<title>dir_aefcf59a6fdfc9bd7c340f12bedb31af&#45;&gt;dir_4ebd611d220344e85b5ba20d026188c7</title>
<path fill="none" stroke="black" d="M211.7,-196.34C218.3,-220.43 224.67,-265.42 228,-304 229.78,-324.67 230.8,-348.12 230.06,-365.76"/>
<polygon fill="black" stroke="black" points="226.56,-365.7 229.37,-375.91 233.54,-366.17 226.56,-365.7"/>
<g id="a_edge13&#45;headlabel"><a xlink:href="dir_000009_000003.html" target="_top" xlink:title="7">
<text text-anchor="middle" x="223.97" y="-359.42" font-family="FreeSans" font-size="10.00">7</text>
</a>
</g>
</g>
<!-- dir_aefcf59a6fdfc9bd7c340f12bedb31af&#45;&gt;dir_93b162d06b4c1cfd72a25a3b81dbdc2c -->
<g id="edge15" class="edge">
<title>dir_aefcf59a6fdfc9bd7c340f12bedb31af&#45;&gt;dir_93b162d06b4c1cfd72a25a3b81dbdc2c</title>
<path fill="none" stroke="black" d="M205.77,-159.87C213.72,-135.35 232.92,-90.03 247.34,-61.26"/>
<polygon fill="black" stroke="black" points="250.55,-62.68 252.02,-52.19 244.33,-59.47 250.55,-62.68"/>
<g id="a_edge15&#45;headlabel"><a xlink:href="dir_000009_000019.html" target="_top" xlink:title="4">
<text text-anchor="middle" x="251.42" y="-64.68" font-family="FreeSans" font-size="10.00">4</text>
</a>
</g>
</g>
<!-- dir_aefcf59a6fdfc9bd7c340f12bedb31af&#45;&gt;dir_db3afc5e367a93f87ffcc764fb4101bb -->
<g id="edge16" class="edge">
<title>dir_aefcf59a6fdfc9bd7c340f12bedb31af&#45;&gt;dir_db3afc5e367a93f87ffcc764fb4101bb</title>
<path fill="none" stroke="black" d="M194.23,-196.1C187.88,-204.55 179.21,-214.9 170.75,-224.2"/>
<polygon fill="black" stroke="black" points="168.01,-222 163.75,-231.7 173.13,-226.78 168.01,-222"/>
<g id="a_edge16&#45;headlabel"><a xlink:href="dir_000009_000024.html" target="_top" xlink:title="7">
<text text-anchor="middle" x="168.39" y="-214.93" font-family="FreeSans" font-size="10.00">7</text>
</a>
</g>
</g>
<!-- dir_aefcf59a6fdfc9bd7c340f12bedb31af&#45;&gt;dir_e4d5a5ad095028ae0129065cd60b3253 -->
<g id="edge17" class="edge">
<title>dir_aefcf59a6fdfc9bd7c340f12bedb31af&#45;&gt;dir_e4d5a5ad095028ae0129065cd60b3253</title>
<path fill="none" stroke="black" d="M205.17,-196.19C204.31,-220.53 198.28,-265.28 192.22,-294.06"/>
<polygon fill="black" stroke="black" points="188.8,-293.35 190,-303.87 195.62,-294.89 188.8,-293.35"/>
<g id="a_edge17&#45;headlabel"><a xlink:href="dir_000009_000007.html" target="_top" xlink:title="11">
<text text-anchor="middle" x="186.82" y="-286.71" font-family="FreeSans" font-size="10.00">11</text>
</a>
</g>
</g>
<!-- dir_6dac8de48fd154b18ef6487f254c0948 -->
<g id="node9" class="node">
<title>dir_6dac8de48fd154b18ef6487f254c0948</title>
<g id="a_node9"><a xlink:href="dir_6dac8de48fd154b18ef6487f254c0948.html" target="_top" xlink:title="lyap">
<polygon fill="#eeeeff" stroke="black" points="150,-124 96,-124 96,-88 150,-88 150,-124"/>
<text text-anchor="middle" x="123" y="-103.5" font-family="FreeSans" font-size="10.00">lyap</text>
</a>
</g>
</g>
<!-- dir_aefcf59a6fdfc9bd7c340f12bedb31af&#45;&gt;dir_6dac8de48fd154b18ef6487f254c0948 -->
<g id="edge14" class="edge">
<title>dir_aefcf59a6fdfc9bd7c340f12bedb31af&#45;&gt;dir_6dac8de48fd154b18ef6487f254c0948</title>
<path fill="none" stroke="black" d="M177.31,-159.7C166.54,-151.05 154.24,-140.45 144.01,-131.03"/>
<polygon fill="black" stroke="black" points="146.34,-128.41 136.65,-124.1 141.54,-133.5 146.34,-128.41"/>
<g id="a_edge14&#45;headlabel"><a xlink:href="dir_000009_000026.html" target="_top" xlink:title="3">
<text text-anchor="middle" x="150.9" y="-126.3" font-family="FreeSans" font-size="10.00">3</text>
</a>
</g>
</g>
<!-- dir_db3afc5e367a93f87ffcc764fb4101bb&#45;&gt;dir_35addd29aafebb04e6caa45e6f26d04b -->
<g id="edge23" class="edge">
<title>dir_db3afc5e367a93f87ffcc764fb4101bb&#45;&gt;dir_35addd29aafebb04e6caa45e6f26d04b</title>
<path fill="none" stroke="black" d="M137.33,-268.03C132.16,-286.17 126.26,-315.57 133,-340 143.99,-379.84 174.51,-417.13 196.97,-440.43"/>
<polygon fill="black" stroke="black" points="194.72,-443.13 204.24,-447.78 199.7,-438.21 194.72,-443.13"/>
<g id="a_edge23&#45;headlabel"><a xlink:href="dir_000024_000008.html" target="_top" xlink:title="24">
<text text-anchor="middle" x="190.17" y="-440.07" font-family="FreeSans" font-size="10.00">24</text>
</a>
</g>
</g>
<!-- dir_db3afc5e367a93f87ffcc764fb4101bb&#45;&gt;dir_405ce7a1489983e8b36f67512c8c61c7 -->
<g id="edge24" class="edge">
<title>dir_db3afc5e367a93f87ffcc764fb4101bb&#45;&gt;dir_405ce7a1489983e8b36f67512c8c61c7</title>
<path fill="none" stroke="black" d="M133.24,-231.84C120.36,-208.32 98.02,-164.37 87,-124 81.45,-103.66 78.97,-79.89 77.87,-62.04"/>
<polygon fill="black" stroke="black" points="81.36,-61.83 77.36,-52.02 74.37,-62.19 81.36,-61.83"/>
<g id="a_edge24&#45;headlabel"><a xlink:href="dir_000024_000004.html" target="_top" xlink:title="1">
<text text-anchor="middle" x="84.38" y="-62.78" font-family="FreeSans" font-size="10.00">1</text>
</a>
</g>
</g>
<!-- dir_db3afc5e367a93f87ffcc764fb4101bb&#45;&gt;dir_93b162d06b4c1cfd72a25a3b81dbdc2c -->
<g id="edge25" class="edge">
<title>dir_db3afc5e367a93f87ffcc764fb4101bb&#45;&gt;dir_93b162d06b4c1cfd72a25a3b81dbdc2c</title>
<path fill="none" stroke="black" d="M145.58,-231.9C148.81,-213.45 155.4,-183.54 167,-160 185.98,-121.48 217.95,-83.39 239.97,-59.57"/>
<polygon fill="black" stroke="black" points="242.73,-61.75 247.02,-52.06 237.63,-56.96 242.73,-61.75"/>
<g id="a_edge25&#45;headlabel"><a xlink:href="dir_000024_000019.html" target="_top" xlink:title="1">
<text text-anchor="middle" x="242.34" y="-63.81" font-family="FreeSans" font-size="10.00">1</text>
</a>
</g>
</g>
<!-- dir_db3afc5e367a93f87ffcc764fb4101bb&#45;&gt;dir_aefcf59a6fdfc9bd7c340f12bedb31af -->
<g id="edge26" class="edge">
<title>dir_db3afc5e367a93f87ffcc764fb4101bb&#45;&gt;dir_aefcf59a6fdfc9bd7c340f12bedb31af</title>
<path fill="none" stroke="black" d="M151.92,-231.7C158.31,-223.22 167,-212.86 175.45,-203.58"/>
<polygon fill="black" stroke="black" points="178.17,-205.8 182.44,-196.1 173.06,-201.02 178.17,-205.8"/>
<g id="a_edge26&#45;headlabel"><a xlink:href="dir_000024_000009.html" target="_top" xlink:title="12">
<text text-anchor="middle" x="177.79" y="-207.86" font-family="FreeSans" font-size="10.00">12</text>
</a>
</g>
</g>
<!-- dir_db3afc5e367a93f87ffcc764fb4101bb&#45;&gt;dir_e4d5a5ad095028ae0129065cd60b3253 -->
<g id="edge27" class="edge">
<title>dir_db3afc5e367a93f87ffcc764fb4101bb&#45;&gt;dir_e4d5a5ad095028ae0129065cd60b3253</title>
<path fill="none" stroke="black" d="M158.67,-268.1C164.04,-276.04 169.76,-285.67 174.43,-294.51"/>
<polygon fill="black" stroke="black" points="171.42,-296.32 179.03,-303.7 177.68,-293.19 171.42,-296.32"/>
<g id="a_edge27&#45;headlabel"><a xlink:href="dir_000024_000007.html" target="_top" xlink:title="16">
<text text-anchor="middle" x="167.28" y="-291.87" font-family="FreeSans" font-size="10.00">16</text>
</a>
</g>
</g>
<!-- dir_e4d5a5ad095028ae0129065cd60b3253&#45;&gt;dir_35addd29aafebb04e6caa45e6f26d04b -->
<g id="edge32" class="edge">
<title>dir_e4d5a5ad095028ae0129065cd60b3253&#45;&gt;dir_35addd29aafebb04e6caa45e6f26d04b</title>
<path fill="none" stroke="black" d="M187.73,-340.23C188.6,-358.54 188.05,-388.07 196,-412 199.19,-421.61 204.67,-431.09 210,-439.32"/>
<polygon fill="black" stroke="black" points="207.13,-441.33 215.6,-447.7 212.95,-437.44 207.13,-441.33"/>
<g id="a_edge32&#45;headlabel"><a xlink:href="dir_000007_000008.html" target="_top" xlink:title="57">
<text text-anchor="middle" x="202.78" y="-437.42" font-family="FreeSans" font-size="10.00">57</text>
</a>
</g>
</g>
<!-- dir_e4d5a5ad095028ae0129065cd60b3253&#45;&gt;dir_405ce7a1489983e8b36f67512c8c61c7 -->
<g id="edge33" class="edge">
<title>dir_e4d5a5ad095028ae0129065cd60b3253&#45;&gt;dir_405ce7a1489983e8b36f67512c8c61c7</title>
<path fill="none" stroke="black" d="M155.93,-311.28C136.6,-302.87 111.68,-288.77 98,-268 56.03,-204.28 64.35,-108.6 71.75,-62.19"/>
<polygon fill="black" stroke="black" points="75.21,-62.72 73.44,-52.28 68.31,-61.55 75.21,-62.72"/>
<g id="a_edge33&#45;headlabel"><a xlink:href="dir_000007_000004.html" target="_top" xlink:title="2">
<text text-anchor="middle" x="77.41" y="-64.24" font-family="FreeSans" font-size="10.00">2</text>
</a>
</g>
</g>
<!-- dir_e4d5a5ad095028ae0129065cd60b3253&#45;&gt;dir_4ebd611d220344e85b5ba20d026188c7 -->
<g id="edge34" class="edge">
<title>dir_e4d5a5ad095028ae0129065cd60b3253&#45;&gt;dir_4ebd611d220344e85b5ba20d026188c7</title>
<path fill="none" stroke="black" d="M198.67,-340.1C204.04,-348.04 209.76,-357.67 214.43,-366.51"/>
<polygon fill="black" stroke="black" points="211.42,-368.32 219.03,-375.7 217.68,-365.19 211.42,-368.32"/>
<g id="a_edge34&#45;headlabel"><a xlink:href="dir_000007_000003.html" target="_top" xlink:title="16">
<text text-anchor="middle" x="207.28" y="-363.87" font-family="FreeSans" font-size="10.00">16</text>
</a>
</g>
</g>
<!-- dir_e4d5a5ad095028ae0129065cd60b3253&#45;&gt;dir_93b162d06b4c1cfd72a25a3b81dbdc2c -->
<g id="edge35" class="edge">
<title>dir_e4d5a5ad095028ae0129065cd60b3253&#45;&gt;dir_93b162d06b4c1cfd72a25a3b81dbdc2c</title>
<path fill="none" stroke="black" d="M186.43,-303.77C196.11,-280.17 218.13,-236.13 230,-196 243.55,-150.19 250.1,-94.74 255.58,-62.32"/>
<polygon fill="black" stroke="black" points="259.06,-62.71 257.4,-52.25 252.18,-61.47 259.06,-62.71"/>
<g id="a_edge35&#45;headlabel"><a xlink:href="dir_000007_000019.html" target="_top" xlink:title="10">
<text text-anchor="middle" x="261.22" y="-64.26" font-family="FreeSans" font-size="10.00">10</text>
</a>
</g>
</g>
<!-- dir_e4d5a5ad095028ae0129065cd60b3253&#45;&gt;dir_aefcf59a6fdfc9bd7c340f12bedb31af -->
<g id="edge36" class="edge">
<title>dir_e4d5a5ad095028ae0129065cd60b3253&#45;&gt;dir_aefcf59a6fdfc9bd7c340f12bedb31af</title>
<path fill="none" stroke="black" d="M180.83,-303.87C181.68,-279.56 187.7,-234.82 193.76,-206.01"/>
<polygon fill="black" stroke="black" points="197.19,-206.72 195.99,-196.19 190.37,-205.17 197.19,-206.72"/>
<g id="a_edge36&#45;headlabel"><a xlink:href="dir_000007_000009.html" target="_top" xlink:title="42">
<text text-anchor="middle" x="199.17" y="-208.35" font-family="FreeSans" font-size="10.00">42</text>
</a>
</g>
</g>
<!-- dir_e4d5a5ad095028ae0129065cd60b3253&#45;&gt;dir_db3afc5e367a93f87ffcc764fb4101bb -->
<g id="edge37" class="edge">
<title>dir_e4d5a5ad095028ae0129065cd60b3253&#45;&gt;dir_db3afc5e367a93f87ffcc764fb4101bb</title>
<path fill="none" stroke="black" d="M167.2,-303.7C161.82,-295.73 156.1,-286.1 151.45,-277.26"/>
<polygon fill="black" stroke="black" points="154.47,-275.49 146.88,-268.1 148.21,-278.62 154.47,-275.49"/>
<g id="a_edge37&#45;headlabel"><a xlink:href="dir_000007_000024.html" target="_top" xlink:title="5">
<text text-anchor="middle" x="158.62" y="-274.94" font-family="FreeSans" font-size="10.00">5</text>
</a>
</g>
</g>
<!-- dir_6dac8de48fd154b18ef6487f254c0948&#45;&gt;dir_154eb94708f83cb7141d9ca39c6551cd -->
<g id="edge3" class="edge">
<title>dir_6dac8de48fd154b18ef6487f254c0948&#45;&gt;dir_154eb94708f83cb7141d9ca39c6551cd</title>
<path fill="none" stroke="black" d="M110.86,-124.09C87.15,-159.2 37,-242.72 37,-321 37,-395 37,-395 37,-395 37,-435.15 41.82,-481.45 45.35,-509.98"/>
<polygon fill="black" stroke="black" points="41.89,-510.51 46.63,-519.99 48.84,-509.63 41.89,-510.51"/>
<g id="a_edge3&#45;headlabel"><a xlink:href="dir_000026_000023.html" target="_top" xlink:title="1">
<text text-anchor="middle" x="38.62" y="-504.81" font-family="FreeSans" font-size="10.00">1</text>
</a>
</g>
</g>
<!-- dir_6dac8de48fd154b18ef6487f254c0948&#45;&gt;dir_35addd29aafebb04e6caa45e6f26d04b -->
<g id="edge4" class="edge">
<title>dir_6dac8de48fd154b18ef6487f254c0948&#45;&gt;dir_35addd29aafebb04e6caa45e6f26d04b</title>
<path fill="none" stroke="black" d="M114.54,-124.22C109.97,-134.38 104.72,-147.63 102,-160 101.15,-163.89 94.47,-245.79 98,-268 108.58,-334.49 104.54,-358.19 145,-412 155.92,-426.52 172.03,-438.41 186.78,-447.22"/>
<polygon fill="black" stroke="black" points="185.3,-450.41 195.72,-452.31 188.76,-444.33 185.3,-450.41"/>
<g id="a_edge4&#45;headlabel"><a xlink:href="dir_000026_000008.html" target="_top" xlink:title="6">
<text text-anchor="middle" x="180.77" y="-448.6" font-family="FreeSans" font-size="10.00">6</text>
</a>
</g>
</g>
<!-- dir_6dac8de48fd154b18ef6487f254c0948&#45;&gt;dir_405ce7a1489983e8b36f67512c8c61c7 -->
<g id="edge5" class="edge">
<title>dir_6dac8de48fd154b18ef6487f254c0948&#45;&gt;dir_405ce7a1489983e8b36f67512c8c61c7</title>
<path fill="none" stroke="black" d="M111.63,-87.7C106.28,-79.56 99.8,-69.69 93.89,-60.7"/>
<polygon fill="black" stroke="black" points="96.66,-58.54 88.24,-52.1 90.81,-62.38 96.66,-58.54"/>
<g id="a_edge5&#45;headlabel"><a xlink:href="dir_000026_000004.html" target="_top" xlink:title="1">
<text text-anchor="middle" x="101" y="-57.48" font-family="FreeSans" font-size="10.00">1</text>
</a>
</g>
</g>
<!-- dir_6dac8de48fd154b18ef6487f254c0948&#45;&gt;dir_4ebd611d220344e85b5ba20d026188c7 -->
<g id="edge6" class="edge">
<title>dir_6dac8de48fd154b18ef6487f254c0948&#45;&gt;dir_4ebd611d220344e85b5ba20d026188c7</title>
<path fill="none" stroke="black" d="M150.08,-110.88C177.8,-116.45 219.49,-129.64 239,-160 280.35,-224.35 252.07,-320.4 234.32,-366.47"/>
<polygon fill="black" stroke="black" points="231.07,-365.19 230.62,-375.78 237.57,-367.78 231.07,-365.19"/>
<g id="a_edge6&#45;headlabel"><a xlink:href="dir_000026_000003.html" target="_top" xlink:title="2">
<text text-anchor="middle" x="229.76" y="-358.3" font-family="FreeSans" font-size="10.00">2</text>
</a>
</g>
</g>
<!-- dir_6dac8de48fd154b18ef6487f254c0948&#45;&gt;dir_93b162d06b4c1cfd72a25a3b81dbdc2c -->
<g id="edge7" class="edge">
<title>dir_6dac8de48fd154b18ef6487f254c0948&#45;&gt;dir_93b162d06b4c1cfd72a25a3b81dbdc2c</title>
<path fill="none" stroke="black" d="M150.19,-91.5C170.09,-81.62 197.52,-68.01 220.46,-56.62"/>
<polygon fill="black" stroke="black" points="222.25,-59.63 229.65,-52.05 219.14,-53.36 222.25,-59.63"/>
<g id="a_edge7&#45;headlabel"><a xlink:href="dir_000026_000019.html" target="_top" xlink:title="3">
<text text-anchor="middle" x="220.3" y="-61.27" font-family="FreeSans" font-size="10.00">3</text>
</a>
</g>
</g>
<!-- dir_6dac8de48fd154b18ef6487f254c0948&#45;&gt;dir_aefcf59a6fdfc9bd7c340f12bedb31af -->
<g id="edge8" class="edge">
<title>dir_6dac8de48fd154b18ef6487f254c0948&#45;&gt;dir_aefcf59a6fdfc9bd7c340f12bedb31af</title>
<path fill="none" stroke="black" d="M148.44,-124.1C159.19,-132.72 171.49,-143.32 181.75,-152.76"/>
<polygon fill="black" stroke="black" points="179.46,-155.4 189.14,-159.7 184.25,-150.3 179.46,-155.4"/>
<g id="a_edge8&#45;headlabel"><a xlink:href="dir_000026_000009.html" target="_top" xlink:title="8">
<text text-anchor="middle" x="174.89" y="-152.51" font-family="FreeSans" font-size="10.00">8</text>
</a>
</g>
</g>
<!-- dir_6dac8de48fd154b18ef6487f254c0948&#45;&gt;dir_db3afc5e367a93f87ffcc764fb4101bb -->
<g id="edge9" class="edge">
<title>dir_6dac8de48fd154b18ef6487f254c0948&#45;&gt;dir_db3afc5e367a93f87ffcc764fb4101bb</title>
<path fill="none" stroke="black" d="M125.42,-124.19C128.83,-148.42 135.1,-192.89 139.15,-221.68"/>
<polygon fill="black" stroke="black" points="135.73,-222.46 140.59,-231.87 142.66,-221.48 135.73,-222.46"/>
<g id="a_edge9&#45;headlabel"><a xlink:href="dir_000026_000024.html" target="_top" xlink:title="3">
<text text-anchor="middle" x="132.41" y="-216.79" font-family="FreeSans" font-size="10.00">3</text>
</a>
</g>
</g>
<!-- dir_6dac8de48fd154b18ef6487f254c0948&#45;&gt;dir_e4d5a5ad095028ae0129065cd60b3253 -->
<g id="edge10" class="edge">
<title>dir_6dac8de48fd154b18ef6487f254c0948&#45;&gt;dir_e4d5a5ad095028ae0129065cd60b3253</title>
<path fill="none" stroke="black" d="M118.93,-124.25C110.74,-160.52 94.14,-243.35 107,-268 115.5,-284.3 131.56,-296.61 146.73,-305.24"/>
<polygon fill="black" stroke="black" points="145.51,-308.56 155.99,-310.14 148.79,-302.37 145.51,-308.56"/>
<g id="a_edge10&#45;headlabel"><a xlink:href="dir_000026_000007.html" target="_top" xlink:title="4">
<text text-anchor="middle" x="141.01" y="-306.88" font-family="FreeSans" font-size="10.00">4</text>
</a>
</g>
</g>
</g>
</svg>
