<?xml version="1.0" encoding="UTF-8" standalone="no"?>
<!DOCTYPE svg PUBLIC "-//W3C//DTD SVG 1.1//EN"
 "http://www.w3.org/Graphics/SVG/1.1/DTD/svg11.dtd">
<!-- Generated by graphviz version 2.43.0 (0)
 -->
<!-- Title: randomGenerator Pages: 1 -->
<svg width="132pt" height="239pt"
 viewBox="0.00 0.00 132.00 239.00" xmlns="http://www.w3.org/2000/svg" xmlns:xlink="http://www.w3.org/1999/xlink">
<g id="graph0" class="graph" transform="scale(1 1) rotate(0) translate(4 235)">
<title>randomGenerator</title>
<polygon fill="white" stroke="transparent" points="-4,4 -4,-235 128,-235 128,4 -4,4"/>
<g id="clust1" class="cluster">
<title>clusterdir_db7313a27b1cae523c7773e30bdf986c</title>
<g id="a_clust1"><a xlink:href="dir_db7313a27b1cae523c7773e30bdf986c.html" target="_top" xlink:title="copasi">
<polygon fill="#ddddee" stroke="black" points="8,-8 8,-223 116,-223 116,-8 8,-8"/>
<text text-anchor="middle" x="62" y="-211" font-family="FreeSans" font-size="10.00">copasi</text>
</a>
</g>
</g>
<!-- dir_35addd29aafebb04e6caa45e6f26d04b -->
<g id="node1" class="node">
<title>dir_35addd29aafebb04e6caa45e6f26d04b</title>
<g id="a_node1"><a xlink:href="dir_35addd29aafebb04e6caa45e6f26d04b.html" target="_top" xlink:title="core">
<polygon fill="none" stroke="black" points="88,-196 34,-196 34,-160 88,-160 88,-196"/>
<text text-anchor="middle" x="61" y="-175.5" font-family="FreeSans" font-size="10.00">core</text>
</a>
</g>
</g>
<!-- dir_aefcf59a6fdfc9bd7c340f12bedb31af -->
<g id="node2" class="node">
<title>dir_aefcf59a6fdfc9bd7c340f12bedb31af</title>
<g id="a_node2"><a xlink:href="dir_aefcf59a6fdfc9bd7c340f12bedb31af.html" target="_top" xlink:title="utilities">
<polygon fill="none" stroke="black" points="88,-124 34,-124 34,-88 88,-88 88,-124"/>
<text text-anchor="middle" x="61" y="-103.5" font-family="FreeSans" font-size="10.00">utilities</text>
</a>
</g>
</g>
<!-- dir_35addd29aafebb04e6caa45e6f26d04b&#45;&gt;dir_aefcf59a6fdfc9bd7c340f12bedb31af -->
<g id="edge3" class="edge">
<title>dir_35addd29aafebb04e6caa45e6f26d04b&#45;&gt;dir_aefcf59a6fdfc9bd7c340f12bedb31af</title>
<path fill="none" stroke="black" d="M55.08,-159.7C54.29,-151.98 54.06,-142.71 54.4,-134.11"/>
<polygon fill="black" stroke="black" points="57.9,-134.32 55.1,-124.1 50.92,-133.84 57.9,-134.32"/>
<g id="a_edge3&#45;headlabel"><a xlink:href="dir_000008_000009.html" target="_top" xlink:title="13">
<text text-anchor="middle" x="60.48" y="-135.61" font-family="FreeSans" font-size="10.00">13</text>
</a>
</g>
</g>
<!-- dir_aefcf59a6fdfc9bd7c340f12bedb31af&#45;&gt;dir_35addd29aafebb04e6caa45e6f26d04b -->
<g id="edge1" class="edge">
<title>dir_aefcf59a6fdfc9bd7c340f12bedb31af&#45;&gt;dir_35addd29aafebb04e6caa45e6f26d04b</title>
<path fill="none" stroke="black" d="M66.9,-124.1C67.7,-131.79 67.94,-141.05 67.6,-149.67"/>
<polygon fill="black" stroke="black" points="64.11,-149.48 66.92,-159.7 71.09,-149.96 64.11,-149.48"/>
<g id="a_edge1&#45;headlabel"><a xlink:href="dir_000009_000008.html" target="_top" xlink:title="46">
<text text-anchor="middle" x="61.52" y="-143.2" font-family="FreeSans" font-size="10.00">46</text>
</a>
</g>
</g>
<!-- dir_99aed44a5fc429ff55959e3c685520ed -->
<g id="node3" class="node">
<title>dir_99aed44a5fc429ff55959e3c685520ed</title>
<g id="a_node3"><a xlink:href="dir_99aed44a5fc429ff55959e3c685520ed.html" target="_top" xlink:title="randomGenerator">
<polygon fill="#eeeeff" stroke="black" points="108,-52 16,-52 16,-16 108,-16 108,-52"/>
<text text-anchor="middle" x="62" y="-31.5" font-family="FreeSans" font-size="10.00">randomGenerator</text>
</a>
</g>
</g>
<!-- dir_aefcf59a6fdfc9bd7c340f12bedb31af&#45;&gt;dir_99aed44a5fc429ff55959e3c685520ed -->
<g id="edge2" class="edge">
<title>dir_aefcf59a6fdfc9bd7c340f12bedb31af&#45;&gt;dir_99aed44a5fc429ff55959e3c685520ed</title>
<path fill="none" stroke="black" d="M55.33,-87.7C54.65,-79.98 54.55,-70.71 55.02,-62.11"/>
<polygon fill="black" stroke="black" points="58.51,-62.36 55.86,-52.1 51.53,-61.78 58.51,-62.36"/>
<g id="a_edge2&#45;headlabel"><a xlink:href="dir_000009_000030.html" target="_top" xlink:title="1">
<text text-anchor="middle" x="61.04" y="-63.68" font-family="FreeSans" font-size="10.00">1</text>
</a>
</g>
</g>
<!-- dir_99aed44a5fc429ff55959e3c685520ed&#45;&gt;dir_35addd29aafebb04e6caa45e6f26d04b -->
<g id="edge4" class="edge">
<title>dir_99aed44a5fc429ff55959e3c685520ed&#45;&gt;dir_35addd29aafebb04e6caa45e6f26d04b</title>
<path fill="none" stroke="black" d="M77.18,-52.3C84.73,-62.06 93.07,-74.9 97,-88 101.6,-103.32 101.7,-108.71 97,-124 93.99,-133.78 88.49,-143.38 82.68,-151.67"/>
<polygon fill="black" stroke="black" points="79.81,-149.67 76.61,-159.77 85.41,-153.87 79.81,-149.67"/>
<g id="a_edge4&#45;headlabel"><a xlink:href="dir_000030_000008.html" target="_top" xlink:title="2">
<text text-anchor="middle" x="79.69" y="-142.59" font-family="FreeSans" font-size="10.00">2</text>
</a>
</g>
</g>
<!-- dir_99aed44a5fc429ff55959e3c685520ed&#45;&gt;dir_aefcf59a6fdfc9bd7c340f12bedb31af -->
<g id="edge5" class="edge">
<title>dir_99aed44a5fc429ff55959e3c685520ed&#45;&gt;dir_aefcf59a6fdfc9bd7c340f12bedb31af</title>
<path fill="none" stroke="black" d="M67.65,-52.1C68.35,-59.79 68.45,-69.05 67.99,-77.67"/>
<polygon fill="black" stroke="black" points="64.5,-77.44 67.16,-87.7 71.48,-78.02 64.5,-77.44"/>
<g id="a_edge5&#45;headlabel"><a xlink:href="dir_000030_000009.html" target="_top" xlink:title="2">
<text text-anchor="middle" x="61.97" y="-71.12" font-family="FreeSans" font-size="10.00">2</text>
</a>
</g>
</g>
</g>
</svg>
