<?xml version="1.0" encoding="UTF-8" standalone="no"?>
<!DOCTYPE svg PUBLIC "-//W3C//DTD SVG 1.1//EN"
 "http://www.w3.org/Graphics/SVG/1.1/DTD/svg11.dtd">
<!-- Generated by graphviz version 2.43.0 (0)
 -->
<!-- Title: crosssection Pages: 1 -->
<!--zoomable 527 -->
<svg id="main" version="1.1" xmlns="http://www.w3.org/2000/svg" xmlns:xlink="http://www.w3.org/1999/xlink" xml:space="preserve" onload="init(evt)">
<style type="text/css"><![CDATA[
.edge:hover path { stroke: red; }
.edge:hover polygon { stroke: red; fill: red; }
]]></style>
<script type="text/javascript"><![CDATA[
var edges = document.getElementsByTagName('g');
if (edges && edges.length) {
  for (var i=0;i<edges.length;i++) {
    if (edges[i].id.substr(0,4)=='edge') {
      edges[i].setAttribute('class','edge');
    }
  }
}
]]></script>
        <defs>
                <circle id="rim" cx="0" cy="0" r="7"/>
                <circle id="rim2" cx="0" cy="0" r="3.5"/>
                <g id="zoomPlus">
                        <use xlink:href="#rim" fill="#404040">
                                <set attributeName="fill" to="#808080" begin="zoomplus.mouseover" end="zoomplus.mouseout"/>
                        </use>
                        <path d="M-4,0h8M0,-4v8" fill="none" stroke="white" stroke-width="1.5" pointer-events="none"/>
                </g>
                <g id="zoomMin">
                        <use xlink:href="#rim" fill="#404040">
                                <set attributeName="fill" to="#808080" begin="zoomminus.mouseover" end="zoomminus.mouseout"/>
                        </use>
                        <path d="M-4,0h8" fill="none" stroke="white" stroke-width="1.5" pointer-events="none"/>
                </g>
                <g id="dirArrow">
                        <path fill="none" stroke="white" stroke-width="1.5" d="M0,-3.0v7 M-2.5,-0.5L0,-3.0L2.5,-0.5"/>
                </g>
               <g id="resetDef">
                       <use xlink:href="#rim2" fill="#404040">
                               <set attributeName="fill" to="#808080" begin="reset.mouseover" end="reset.mouseout"/>
                       </use>
               </g>
        </defs>

<script type="text/javascript">
var viewWidth = 274;
var viewHeight = 527;
var sectionId = 'dynsection-0';
</script>
<script xlink:href="svgpan.js"/>
<svg id="graph" class="graph">
<g id="viewport">
<title>crosssection</title>
<polygon fill="white" stroke="transparent" points="-4,4 -4,-523 270,-523 270,4 -4,4"/>
<g id="clust1" class="cluster">
<title>clusterdir_db7313a27b1cae523c7773e30bdf986c</title>
<g id="a_clust1"><a xlink:href="dir_db7313a27b1cae523c7773e30bdf986c.html" target="_top" xlink:title="copasi">
<polygon fill="#ddddee" stroke="black" points="8,-8 8,-511 258,-511 258,-8 8,-8"/>
<text text-anchor="middle" x="133" y="-499" font-family="FreeSans" font-size="10.00">copasi</text>
</a>
</g>
</g>
<!-- dir_4ebd611d220344e85b5ba20d026188c7 -->
<g id="node1" class="node">
<title>dir_4ebd611d220344e85b5ba20d026188c7</title>
<g id="a_node1"><a xlink:href="dir_4ebd611d220344e85b5ba20d026188c7.html" target="_top" xlink:title="report">
<polygon fill="none" stroke="black" points="130,-484 76,-484 76,-448 130,-448 130,-484"/>
<text text-anchor="middle" x="103" y="-463.5" font-family="FreeSans" font-size="10.00">report</text>
</a>
</g>
</g>
<!-- dir_93b162d06b4c1cfd72a25a3b81dbdc2c -->
<g id="node2" class="node">
<title>dir_93b162d06b4c1cfd72a25a3b81dbdc2c</title>
<g id="a_node2"><a xlink:href="dir_93b162d06b4c1cfd72a25a3b81dbdc2c.html" target="_top" xlink:title="CopasiDataModel">
<polygon fill="none" stroke="black" points="149.5,-412 56.5,-412 56.5,-376 149.5,-376 149.5,-412"/>
<text text-anchor="middle" x="103" y="-391.5" font-family="FreeSans" font-size="10.00">CopasiDataModel</text>
</a>
</g>
</g>
<!-- dir_4ebd611d220344e85b5ba20d026188c7&#45;&gt;dir_93b162d06b4c1cfd72a25a3b81dbdc2c -->
<g id="edge12" class="edge">
<title>dir_4ebd611d220344e85b5ba20d026188c7&#45;&gt;dir_93b162d06b4c1cfd72a25a3b81dbdc2c</title>
<path fill="none" stroke="black" d="M97.08,-447.7C96.29,-439.98 96.06,-430.71 96.4,-422.11"/>
<polygon fill="black" stroke="black" points="99.9,-422.32 97.1,-412.1 92.92,-421.84 99.9,-422.32"/>
<g id="a_edge12&#45;headlabel"><a xlink:href="dir_000003_000019.html" target="_top" xlink:title="3">
<text text-anchor="middle" x="102.48" y="-423.61" font-family="FreeSans" font-size="10.00">3</text>
</a>
</g>
</g>
<!-- dir_aefcf59a6fdfc9bd7c340f12bedb31af -->
<g id="node3" class="node">
<title>dir_aefcf59a6fdfc9bd7c340f12bedb31af</title>
<g id="a_node3"><a xlink:href="dir_aefcf59a6fdfc9bd7c340f12bedb31af.html" target="_top" xlink:title="utilities">
<polygon fill="none" stroke="black" points="130,-196 76,-196 76,-160 130,-160 130,-196"/>
<text text-anchor="middle" x="103" y="-175.5" font-family="FreeSans" font-size="10.00">utilities</text>
</a>
</g>
</g>
<!-- dir_4ebd611d220344e85b5ba20d026188c7&#45;&gt;dir_aefcf59a6fdfc9bd7c340f12bedb31af -->
<g id="edge13" class="edge">
<title>dir_4ebd611d220344e85b5ba20d026188c7&#45;&gt;dir_aefcf59a6fdfc9bd7c340f12bedb31af</title>
<path fill="none" stroke="black" d="M76,-452.54C61.81,-443.13 46.21,-428.96 39,-412 8.5,-340.25 52.22,-248.55 81.32,-204.66"/>
<polygon fill="black" stroke="black" points="84.29,-206.51 87.09,-196.29 78.53,-202.53 84.29,-206.51"/>
<g id="a_edge13&#45;headlabel"><a xlink:href="dir_000003_000009.html" target="_top" xlink:title="11">
<text text-anchor="middle" x="84.59" y="-208.58" font-family="FreeSans" font-size="10.00">11</text>
</a>
</g>
</g>
<!-- dir_b5f61c72b9c3dda97ea9ed0837ced632 -->
<g id="node4" class="node">
<title>dir_b5f61c72b9c3dda97ea9ed0837ced632</title>
<g id="a_node4"><a xlink:href="dir_b5f61c72b9c3dda97ea9ed0837ced632.html" target="_top" xlink:title="trajectory">
<polygon fill="none" stroke="black" points="127,-52 71,-52 71,-16 127,-16 127,-52"/>
<text text-anchor="middle" x="99" y="-31.5" font-family="FreeSans" font-size="10.00">trajectory</text>
</a>
</g>
</g>
<!-- dir_4ebd611d220344e85b5ba20d026188c7&#45;&gt;dir_b5f61c72b9c3dda97ea9ed0837ced632 -->
<g id="edge14" class="edge">
<title>dir_4ebd611d220344e85b5ba20d026188c7&#45;&gt;dir_b5f61c72b9c3dda97ea9ed0837ced632</title>
<path fill="none" stroke="black" d="M75.87,-454.72C58.56,-445.61 37.66,-430.84 26,-412 4.76,-377.68 8,-363.36 8,-323 8,-323 8,-323 8,-177 8,-130.68 41.12,-85.88 67.58,-59.38"/>
<polygon fill="black" stroke="black" points="70.05,-61.86 74.83,-52.4 65.19,-56.81 70.05,-61.86"/>
<g id="a_edge14&#45;headlabel"><a xlink:href="dir_000003_000022.html" target="_top" xlink:title="1">
<text text-anchor="middle" x="69.42" y="-63.9" font-family="FreeSans" font-size="10.00">1</text>
</a>
</g>
</g>
<!-- dir_db3afc5e367a93f87ffcc764fb4101bb -->
<g id="node5" class="node">
<title>dir_db3afc5e367a93f87ffcc764fb4101bb</title>
<g id="a_node5"><a xlink:href="dir_db3afc5e367a93f87ffcc764fb4101bb.html" target="_top" xlink:title="math">
<polygon fill="none" stroke="black" points="170,-268 116,-268 116,-232 170,-232 170,-268"/>
<text text-anchor="middle" x="143" y="-247.5" font-family="FreeSans" font-size="10.00">math</text>
</a>
</g>
</g>
<!-- dir_4ebd611d220344e85b5ba20d026188c7&#45;&gt;dir_db3afc5e367a93f87ffcc764fb4101bb -->
<g id="edge15" class="edge">
<title>dir_4ebd611d220344e85b5ba20d026188c7&#45;&gt;dir_db3afc5e367a93f87ffcc764fb4101bb</title>
<path fill="none" stroke="black" d="M129.12,-447.82C140.58,-438.69 152.81,-426.39 159,-412 165.33,-397.3 160.32,-391.95 159,-376 157.66,-359.83 155.24,-356.07 153,-340 150.12,-319.34 147.51,-295.89 145.68,-278.25"/>
<polygon fill="black" stroke="black" points="149.14,-277.69 144.65,-268.1 142.18,-278.4 149.14,-277.69"/>
<g id="a_edge15&#45;headlabel"><a xlink:href="dir_000003_000024.html" target="_top" xlink:title="2">
<text text-anchor="middle" x="152.33" y="-278.48" font-family="FreeSans" font-size="10.00">2</text>
</a>
</g>
</g>
<!-- dir_e4d5a5ad095028ae0129065cd60b3253 -->
<g id="node6" class="node">
<title>dir_e4d5a5ad095028ae0129065cd60b3253</title>
<g id="a_node6"><a xlink:href="dir_e4d5a5ad095028ae0129065cd60b3253.html" target="_top" xlink:title="model">
<polygon fill="none" stroke="black" points="216,-340 162,-340 162,-304 216,-304 216,-340"/>
<text text-anchor="middle" x="189" y="-319.5" font-family="FreeSans" font-size="10.00">model</text>
</a>
</g>
</g>
<!-- dir_4ebd611d220344e85b5ba20d026188c7&#45;&gt;dir_e4d5a5ad095028ae0129065cd60b3253 -->
<g id="edge16" class="edge">
<title>dir_4ebd611d220344e85b5ba20d026188c7&#45;&gt;dir_e4d5a5ad095028ae0129065cd60b3253</title>
<path fill="none" stroke="black" d="M127.66,-447.98C140.78,-439.11 155.86,-426.97 165,-412 176.33,-393.44 179.79,-368.85 182.01,-350.22"/>
<polygon fill="black" stroke="black" points="185.51,-350.38 183.22,-340.03 178.56,-349.55 185.51,-350.38"/>
<g id="a_edge16&#45;headlabel"><a xlink:href="dir_000003_000007.html" target="_top" xlink:title="2">
<text text-anchor="middle" x="187.91" y="-351.78" font-family="FreeSans" font-size="10.00">2</text>
</a>
</g>
</g>
<!-- dir_93b162d06b4c1cfd72a25a3b81dbdc2c&#45;&gt;dir_4ebd611d220344e85b5ba20d026188c7 -->
<g id="edge25" class="edge">
<title>dir_93b162d06b4c1cfd72a25a3b81dbdc2c&#45;&gt;dir_4ebd611d220344e85b5ba20d026188c7</title>
<path fill="none" stroke="black" d="M108.9,-412.1C109.7,-419.79 109.94,-429.05 109.6,-437.67"/>
<polygon fill="black" stroke="black" points="106.11,-437.48 108.92,-447.7 113.09,-437.96 106.11,-437.48"/>
<g id="a_edge25&#45;headlabel"><a xlink:href="dir_000019_000003.html" target="_top" xlink:title="2">
<text text-anchor="middle" x="103.52" y="-431.2" font-family="FreeSans" font-size="10.00">2</text>
</a>
</g>
</g>
<!-- dir_93b162d06b4c1cfd72a25a3b81dbdc2c&#45;&gt;dir_aefcf59a6fdfc9bd7c340f12bedb31af -->
<g id="edge26" class="edge">
<title>dir_93b162d06b4c1cfd72a25a3b81dbdc2c&#45;&gt;dir_aefcf59a6fdfc9bd7c340f12bedb31af</title>
<path fill="none" stroke="black" d="M90.71,-375.95C87.06,-365.63 84.25,-352.15 83,-340 78.1,-292.25 78.1,-279.75 83,-232 83.89,-223.36 85.57,-214.05 87.78,-205.68"/>
<polygon fill="black" stroke="black" points="91.14,-206.63 90.71,-196.05 84.45,-204.59 91.14,-206.63"/>
<g id="a_edge26&#45;headlabel"><a xlink:href="dir_000019_000009.html" target="_top" xlink:title="9">
<text text-anchor="middle" x="92.81" y="-208.4" font-family="FreeSans" font-size="10.00">9</text>
</a>
</g>
</g>
<!-- dir_93b162d06b4c1cfd72a25a3b81dbdc2c&#45;&gt;dir_b5f61c72b9c3dda97ea9ed0837ced632 -->
<g id="edge27" class="edge">
<title>dir_93b162d06b4c1cfd72a25a3b81dbdc2c&#45;&gt;dir_b5f61c72b9c3dda97ea9ed0837ced632</title>
<path fill="none" stroke="black" d="M87.65,-375.66C71,-349.47 48,-297.9 48,-251 48,-251 48,-251 48,-177 48,-134.96 65.14,-88.69 79.86,-60.75"/>
<polygon fill="black" stroke="black" points="82.92,-62.45 84.73,-52.01 76.81,-59.04 82.92,-62.45"/>
<g id="a_edge27&#45;headlabel"><a xlink:href="dir_000019_000022.html" target="_top" xlink:title="2">
<text text-anchor="middle" x="83.65" y="-64.47" font-family="FreeSans" font-size="10.00">2</text>
</a>
</g>
</g>
<!-- dir_93b162d06b4c1cfd72a25a3b81dbdc2c&#45;&gt;dir_e4d5a5ad095028ae0129065cd60b3253 -->
<g id="edge28" class="edge">
<title>dir_93b162d06b4c1cfd72a25a3b81dbdc2c&#45;&gt;dir_e4d5a5ad095028ae0129065cd60b3253</title>
<path fill="none" stroke="black" d="M118.34,-375.7C128.36,-366.8 141.68,-355.82 154.1,-346.2"/>
<polygon fill="black" stroke="black" points="156.26,-348.95 162.09,-340.1 152.02,-343.39 156.26,-348.95"/>
<g id="a_edge28&#45;headlabel"><a xlink:href="dir_000019_000007.html" target="_top" xlink:title="4">
<text text-anchor="middle" x="155.13" y="-350.89" font-family="FreeSans" font-size="10.00">4</text>
</a>
</g>
</g>
<!-- dir_aefcf59a6fdfc9bd7c340f12bedb31af&#45;&gt;dir_4ebd611d220344e85b5ba20d026188c7 -->
<g id="edge6" class="edge">
<title>dir_aefcf59a6fdfc9bd7c340f12bedb31af&#45;&gt;dir_4ebd611d220344e85b5ba20d026188c7</title>
<path fill="none" stroke="black" d="M96.44,-196.29C76.6,-235.82 24.4,-335.31 57,-412 61.69,-423.03 69.92,-432.87 78.21,-440.99"/>
<polygon fill="black" stroke="black" points="76.02,-443.74 85.74,-447.95 80.77,-438.6 76.02,-443.74"/>
<g id="a_edge6&#45;headlabel"><a xlink:href="dir_000009_000003.html" target="_top" xlink:title="7">
<text text-anchor="middle" x="71.45" y="-440.88" font-family="FreeSans" font-size="10.00">7</text>
</a>
</g>
</g>
<!-- dir_aefcf59a6fdfc9bd7c340f12bedb31af&#45;&gt;dir_93b162d06b4c1cfd72a25a3b81dbdc2c -->
<g id="edge7" class="edge">
<title>dir_aefcf59a6fdfc9bd7c340f12bedb31af&#45;&gt;dir_93b162d06b4c1cfd72a25a3b81dbdc2c</title>
<path fill="none" stroke="black" d="M106.36,-196.05C105.06,-206.37 102.25,-219.85 101,-232 96.1,-279.75 96.1,-292.25 101,-340 101.88,-348.54 103.53,-357.74 104.88,-366.04"/>
<polygon fill="black" stroke="black" points="101.42,-366.58 106.36,-375.95 108.35,-365.55 101.42,-366.58"/>
<g id="a_edge7&#45;headlabel"><a xlink:href="dir_000009_000019.html" target="_top" xlink:title="4">
<text text-anchor="middle" x="98.09" y="-360.94" font-family="FreeSans" font-size="10.00">4</text>
</a>
</g>
</g>
<!-- dir_aefcf59a6fdfc9bd7c340f12bedb31af&#45;&gt;dir_b5f61c72b9c3dda97ea9ed0837ced632 -->
<g id="edge8" class="edge">
<title>dir_aefcf59a6fdfc9bd7c340f12bedb31af&#45;&gt;dir_b5f61c72b9c3dda97ea9ed0837ced632</title>
<path fill="none" stroke="black" d="M97.93,-159.87C94.69,-135.67 93.15,-91.21 94.31,-62.39"/>
<polygon fill="black" stroke="black" points="97.82,-62.37 94.89,-52.19 90.83,-61.97 97.82,-62.37"/>
<g id="a_edge8&#45;headlabel"><a xlink:href="dir_000009_000022.html" target="_top" xlink:title="13">
<text text-anchor="middle" x="100.45" y="-63.62" font-family="FreeSans" font-size="10.00">13</text>
</a>
</g>
</g>
<!-- dir_aefcf59a6fdfc9bd7c340f12bedb31af&#45;&gt;dir_db3afc5e367a93f87ffcc764fb4101bb -->
<g id="edge10" class="edge">
<title>dir_aefcf59a6fdfc9bd7c340f12bedb31af&#45;&gt;dir_db3afc5e367a93f87ffcc764fb4101bb</title>
<path fill="none" stroke="black" d="M118.67,-196.1C124.04,-204.04 129.76,-213.67 134.43,-222.51"/>
<polygon fill="black" stroke="black" points="131.42,-224.32 139.03,-231.7 137.68,-221.19 131.42,-224.32"/>
<g id="a_edge10&#45;headlabel"><a xlink:href="dir_000009_000024.html" target="_top" xlink:title="7">
<text text-anchor="middle" x="127.28" y="-219.87" font-family="FreeSans" font-size="10.00">7</text>
</a>
</g>
</g>
<!-- dir_aefcf59a6fdfc9bd7c340f12bedb31af&#45;&gt;dir_e4d5a5ad095028ae0129065cd60b3253 -->
<g id="edge11" class="edge">
<title>dir_aefcf59a6fdfc9bd7c340f12bedb31af&#45;&gt;dir_e4d5a5ad095028ae0129065cd60b3253</title>
<path fill="none" stroke="black" d="M130.2,-187.23C150.08,-195.66 175.25,-210.57 188,-232 199.09,-250.63 201.06,-275.36 199.11,-294.03"/>
<polygon fill="black" stroke="black" points="195.64,-293.55 197.6,-303.96 202.57,-294.6 195.64,-293.55"/>
<g id="a_edge11&#45;headlabel"><a xlink:href="dir_000009_000007.html" target="_top" xlink:title="11">
<text text-anchor="middle" x="193.38" y="-287.07" font-family="FreeSans" font-size="10.00">11</text>
</a>
</g>
</g>
<!-- dir_c975670b39cd3bb3f0c23911d8ebd662 -->
<g id="node7" class="node">
<title>dir_c975670b39cd3bb3f0c23911d8ebd662</title>
<g id="a_node7"><a xlink:href="dir_c975670b39cd3bb3f0c23911d8ebd662.html" target="_top" xlink:title="crosssection">
<polygon fill="#eeeeff" stroke="black" points="190,-124 118,-124 118,-88 190,-88 190,-124"/>
<text text-anchor="middle" x="154" y="-103.5" font-family="FreeSans" font-size="10.00">crosssection</text>
</a>
</g>
</g>
<!-- dir_aefcf59a6fdfc9bd7c340f12bedb31af&#45;&gt;dir_c975670b39cd3bb3f0c23911d8ebd662 -->
<g id="edge9" class="edge">
<title>dir_aefcf59a6fdfc9bd7c340f12bedb31af&#45;&gt;dir_c975670b39cd3bb3f0c23911d8ebd662</title>
<path fill="none" stroke="black" d="M109.69,-159.7C114.89,-151.39 122.06,-141.28 129.18,-132.14"/>
<polygon fill="black" stroke="black" points="132.1,-134.09 135.64,-124.1 126.65,-129.7 132.1,-134.09"/>
<g id="a_edge9&#45;headlabel"><a xlink:href="dir_000009_000016.html" target="_top" xlink:title="3">
<text text-anchor="middle" x="132.06" y="-136.17" font-family="FreeSans" font-size="10.00">3</text>
</a>
</g>
</g>
<!-- dir_b5f61c72b9c3dda97ea9ed0837ced632&#45;&gt;dir_4ebd611d220344e85b5ba20d026188c7 -->
<g id="edge1" class="edge">
<title>dir_b5f61c72b9c3dda97ea9ed0837ced632&#45;&gt;dir_4ebd611d220344e85b5ba20d026188c7</title>
<path fill="none" stroke="black" d="M86.78,-52.4C65.64,-77.47 26,-126.33 26,-177 26,-323 26,-323 26,-323 26,-363.36 22.76,-377.68 44,-412 51.15,-423.55 61.77,-433.57 72.11,-441.7"/>
<polygon fill="black" stroke="black" points="70.16,-444.61 80.27,-447.8 74.35,-439 70.16,-444.61"/>
<g id="a_edge1&#45;headlabel"><a xlink:href="dir_000022_000003.html" target="_top" xlink:title="3">
<text text-anchor="middle" x="65.58" y="-442.23" font-family="FreeSans" font-size="10.00">3</text>
</a>
</g>
</g>
<!-- dir_b5f61c72b9c3dda97ea9ed0837ced632&#45;&gt;dir_93b162d06b4c1cfd72a25a3b81dbdc2c -->
<g id="edge2" class="edge">
<title>dir_b5f61c72b9c3dda97ea9ed0837ced632&#45;&gt;dir_93b162d06b4c1cfd72a25a3b81dbdc2c</title>
<path fill="none" stroke="black" d="M96.27,-52.01C87.23,-78.18 66,-130.21 66,-177 66,-251 66,-251 66,-251 66,-292.77 84.24,-338.24 95.5,-366.19"/>
<polygon fill="black" stroke="black" points="92.32,-367.67 99.29,-375.66 98.82,-365.07 92.32,-367.67"/>
<g id="a_edge2&#45;headlabel"><a xlink:href="dir_000022_000019.html" target="_top" xlink:title="7">
<text text-anchor="middle" x="88.35" y="-362.89" font-family="FreeSans" font-size="10.00">7</text>
</a>
</g>
</g>
<!-- dir_b5f61c72b9c3dda97ea9ed0837ced632&#45;&gt;dir_aefcf59a6fdfc9bd7c340f12bedb31af -->
<g id="edge3" class="edge">
<title>dir_b5f61c72b9c3dda97ea9ed0837ced632&#45;&gt;dir_aefcf59a6fdfc9bd7c340f12bedb31af</title>
<path fill="none" stroke="black" d="M104.08,-52.19C107.31,-76.42 108.85,-120.89 107.68,-149.68"/>
<polygon fill="black" stroke="black" points="104.18,-149.69 107.1,-159.87 111.17,-150.09 104.18,-149.69"/>
<g id="a_edge3&#45;headlabel"><a xlink:href="dir_000022_000009.html" target="_top" xlink:title="29">
<text text-anchor="middle" x="101.55" y="-143.44" font-family="FreeSans" font-size="10.00">29</text>
</a>
</g>
</g>
<!-- dir_b5f61c72b9c3dda97ea9ed0837ced632&#45;&gt;dir_db3afc5e367a93f87ffcc764fb4101bb -->
<g id="edge4" class="edge">
<title>dir_b5f61c72b9c3dda97ea9ed0837ced632&#45;&gt;dir_db3afc5e367a93f87ffcc764fb4101bb</title>
<path fill="none" stroke="black" d="M127.01,-41.33C150.81,-48.34 183.5,-62.24 199,-88 225.47,-131.99 190.34,-190.3 164.95,-223.32"/>
<polygon fill="black" stroke="black" points="161.9,-221.53 158.43,-231.54 167.38,-225.88 161.9,-221.53"/>
<g id="a_edge4&#45;headlabel"><a xlink:href="dir_000022_000024.html" target="_top" xlink:title="22">
<text text-anchor="middle" x="161.91" y="-214.45" font-family="FreeSans" font-size="10.00">22</text>
</a>
</g>
</g>
<!-- dir_b5f61c72b9c3dda97ea9ed0837ced632&#45;&gt;dir_e4d5a5ad095028ae0129065cd60b3253 -->
<g id="edge5" class="edge">
<title>dir_b5f61c72b9c3dda97ea9ed0837ced632&#45;&gt;dir_e4d5a5ad095028ae0129065cd60b3253</title>
<path fill="none" stroke="black" d="M127.08,-38.56C155.69,-44.1 197.91,-57.5 217,-88 257.7,-153.04 227.92,-249.09 205.94,-294.88"/>
<polygon fill="black" stroke="black" points="202.79,-293.35 201.4,-303.85 209.04,-296.51 202.79,-293.35"/>
<g id="a_edge5&#45;headlabel"><a xlink:href="dir_000022_000007.html" target="_top" xlink:title="50">
<text text-anchor="middle" x="201.88" y="-286.36" font-family="FreeSans" font-size="10.00">50</text>
</a>
</g>
</g>
<!-- dir_db3afc5e367a93f87ffcc764fb4101bb&#45;&gt;dir_93b162d06b4c1cfd72a25a3b81dbdc2c -->
<g id="edge17" class="edge">
<title>dir_db3afc5e367a93f87ffcc764fb4101bb&#45;&gt;dir_93b162d06b4c1cfd72a25a3b81dbdc2c</title>
<path fill="none" stroke="black" d="M138.16,-268.19C131.3,-292.53 118.7,-337.28 110.59,-366.06"/>
<polygon fill="black" stroke="black" points="107.17,-365.3 107.82,-375.87 113.91,-367.2 107.17,-365.3"/>
<g id="a_edge17&#45;headlabel"><a xlink:href="dir_000024_000019.html" target="_top" xlink:title="1">
<text text-anchor="middle" x="105.41" y="-358.57" font-family="FreeSans" font-size="10.00">1</text>
</a>
</g>
</g>
<!-- dir_db3afc5e367a93f87ffcc764fb4101bb&#45;&gt;dir_aefcf59a6fdfc9bd7c340f12bedb31af -->
<g id="edge18" class="edge">
<title>dir_db3afc5e367a93f87ffcc764fb4101bb&#45;&gt;dir_aefcf59a6fdfc9bd7c340f12bedb31af</title>
<path fill="none" stroke="black" d="M127.2,-231.7C121.82,-223.73 116.1,-214.1 111.45,-205.26"/>
<polygon fill="black" stroke="black" points="114.47,-203.49 106.88,-196.1 108.21,-206.62 114.47,-203.49"/>
<g id="a_edge18&#45;headlabel"><a xlink:href="dir_000024_000009.html" target="_top" xlink:title="12">
<text text-anchor="middle" x="118.62" y="-202.94" font-family="FreeSans" font-size="10.00">12</text>
</a>
</g>
</g>
<!-- dir_db3afc5e367a93f87ffcc764fb4101bb&#45;&gt;dir_e4d5a5ad095028ae0129065cd60b3253 -->
<g id="edge19" class="edge">
<title>dir_db3afc5e367a93f87ffcc764fb4101bb&#45;&gt;dir_e4d5a5ad095028ae0129065cd60b3253</title>
<path fill="none" stroke="black" d="M160.14,-268.1C166.25,-276.13 172.87,-285.87 178.34,-294.8"/>
<polygon fill="black" stroke="black" points="175.47,-296.83 183.54,-303.7 181.52,-293.3 175.47,-296.83"/>
<g id="a_edge19&#45;headlabel"><a xlink:href="dir_000024_000007.html" target="_top" xlink:title="16">
<text text-anchor="middle" x="171.21" y="-292.66" font-family="FreeSans" font-size="10.00">16</text>
</a>
</g>
</g>
<!-- dir_e4d5a5ad095028ae0129065cd60b3253&#45;&gt;dir_4ebd611d220344e85b5ba20d026188c7 -->
<g id="edge20" class="edge">
<title>dir_e4d5a5ad095028ae0129065cd60b3253&#45;&gt;dir_4ebd611d220344e85b5ba20d026188c7</title>
<path fill="none" stroke="black" d="M196.31,-340.03C198.84,-358.97 196.56,-389.8 183,-412 172.88,-428.57 155.48,-441.69 139.36,-450.72"/>
<polygon fill="black" stroke="black" points="137.32,-447.84 130.08,-455.57 140.56,-454.04 137.32,-447.84"/>
<g id="a_edge20&#45;headlabel"><a xlink:href="dir_000007_000003.html" target="_top" xlink:title="16">
<text text-anchor="middle" x="139.19" y="-441.16" font-family="FreeSans" font-size="10.00">16</text>
</a>
</g>
</g>
<!-- dir_e4d5a5ad095028ae0129065cd60b3253&#45;&gt;dir_93b162d06b4c1cfd72a25a3b81dbdc2c -->
<g id="edge21" class="edge">
<title>dir_e4d5a5ad095028ae0129065cd60b3253&#45;&gt;dir_93b162d06b4c1cfd72a25a3b81dbdc2c</title>
<path fill="none" stroke="black" d="M173.88,-340.1C163.91,-348.97 150.61,-359.94 138.18,-369.59"/>
<polygon fill="black" stroke="black" points="136,-366.85 130.17,-375.7 140.25,-372.41 136,-366.85"/>
<g id="a_edge21&#45;headlabel"><a xlink:href="dir_000007_000019.html" target="_top" xlink:title="10">
<text text-anchor="middle" x="137.13" y="-359.91" font-family="FreeSans" font-size="10.00">10</text>
</a>
</g>
</g>
<!-- dir_e4d5a5ad095028ae0129065cd60b3253&#45;&gt;dir_aefcf59a6fdfc9bd7c340f12bedb31af -->
<g id="edge22" class="edge">
<title>dir_e4d5a5ad095028ae0129065cd60b3253&#45;&gt;dir_aefcf59a6fdfc9bd7c340f12bedb31af</title>
<path fill="none" stroke="black" d="M184.51,-303.96C183.49,-285.02 183.2,-254.18 170,-232 162.45,-219.32 150.56,-208.92 138.81,-200.8"/>
<polygon fill="black" stroke="black" points="140.64,-197.81 130.35,-195.28 136.82,-203.68 140.64,-197.81"/>
<g id="a_edge22&#45;headlabel"><a xlink:href="dir_000007_000009.html" target="_top" xlink:title="42">
<text text-anchor="middle" x="145.2" y="-194.89" font-family="FreeSans" font-size="10.00">42</text>
</a>
</g>
</g>
<!-- dir_e4d5a5ad095028ae0129065cd60b3253&#45;&gt;dir_b5f61c72b9c3dda97ea9ed0837ced632 -->
<g id="edge23" class="edge">
<title>dir_e4d5a5ad095028ae0129065cd60b3253&#45;&gt;dir_b5f61c72b9c3dda97ea9ed0837ced632</title>
<path fill="none" stroke="black" d="M192.31,-303.85C205.33,-262.91 242.59,-157.67 199,-88 185.1,-65.78 158.92,-52.64 136.73,-44.99"/>
<polygon fill="black" stroke="black" points="137.79,-41.66 127.2,-41.95 135.67,-48.33 137.79,-41.66"/>
<g id="a_edge23&#45;headlabel"><a xlink:href="dir_000007_000022.html" target="_top" xlink:title="2">
<text text-anchor="middle" x="142.08" y="-37.55" font-family="FreeSans" font-size="10.00">2</text>
</a>
</g>
</g>
<!-- dir_e4d5a5ad095028ae0129065cd60b3253&#45;&gt;dir_db3afc5e367a93f87ffcc764fb4101bb -->
<g id="edge24" class="edge">
<title>dir_e4d5a5ad095028ae0129065cd60b3253&#45;&gt;dir_db3afc5e367a93f87ffcc764fb4101bb</title>
<path fill="none" stroke="black" d="M171.71,-303.7C165.59,-295.64 158.97,-285.89 153.53,-276.98"/>
<polygon fill="black" stroke="black" points="156.41,-274.98 148.34,-268.1 150.36,-278.51 156.41,-274.98"/>
<g id="a_edge24&#45;headlabel"><a xlink:href="dir_000007_000024.html" target="_top" xlink:title="5">
<text text-anchor="middle" x="160.67" y="-274.15" font-family="FreeSans" font-size="10.00">5</text>
</a>
</g>
</g>
<!-- dir_c975670b39cd3bb3f0c23911d8ebd662&#45;&gt;dir_4ebd611d220344e85b5ba20d026188c7 -->
<g id="edge29" class="edge">
<title>dir_c975670b39cd3bb3f0c23911d8ebd662&#45;&gt;dir_4ebd611d220344e85b5ba20d026188c7</title>
<path fill="none" stroke="black" d="M175.56,-124.22C203.59,-148.72 249,-196.5 249,-249 249,-323 249,-323 249,-323 249,-384.11 182.46,-427.42 139.23,-449.12"/>
<polygon fill="black" stroke="black" points="137.58,-446.03 130.12,-453.55 140.64,-452.32 137.58,-446.03"/>
<g id="a_edge29&#45;headlabel"><a xlink:href="dir_000016_000003.html" target="_top" xlink:title="2">
<text text-anchor="middle" x="139.58" y="-439.4" font-family="FreeSans" font-size="10.00">2</text>
</a>
</g>
</g>
<!-- dir_c975670b39cd3bb3f0c23911d8ebd662&#45;&gt;dir_93b162d06b4c1cfd72a25a3b81dbdc2c -->
<g id="edge30" class="edge">
<title>dir_c975670b39cd3bb3f0c23911d8ebd662&#45;&gt;dir_93b162d06b4c1cfd72a25a3b81dbdc2c</title>
<path fill="none" stroke="black" d="M153.88,-124.24C153.14,-142.82 150.1,-172.83 139,-196 129.75,-215.31 114.86,-212.09 107,-232 89.58,-276.17 93.51,-332.58 98.13,-365.56"/>
<polygon fill="black" stroke="black" points="94.72,-366.43 99.69,-375.79 101.64,-365.38 94.72,-366.43"/>
<g id="a_edge30&#45;headlabel"><a xlink:href="dir_000016_000019.html" target="_top" xlink:title="2">
<text text-anchor="middle" x="91.37" y="-360.81" font-family="FreeSans" font-size="10.00">2</text>
</a>
</g>
</g>
<!-- dir_c975670b39cd3bb3f0c23911d8ebd662&#45;&gt;dir_aefcf59a6fdfc9bd7c340f12bedb31af -->
<g id="edge31" class="edge">
<title>dir_c975670b39cd3bb3f0c23911d8ebd662&#45;&gt;dir_aefcf59a6fdfc9bd7c340f12bedb31af</title>
<path fill="none" stroke="black" d="M147.43,-124.1C142.27,-132.38 135.11,-142.49 127.99,-151.64"/>
<polygon fill="black" stroke="black" points="125.06,-149.71 121.52,-159.7 130.51,-154.09 125.06,-149.71"/>
<g id="a_edge31&#45;headlabel"><a xlink:href="dir_000016_000009.html" target="_top" xlink:title="7">
<text text-anchor="middle" x="125.09" y="-142.63" font-family="FreeSans" font-size="10.00">7</text>
</a>
</g>
</g>
<!-- dir_c975670b39cd3bb3f0c23911d8ebd662&#45;&gt;dir_b5f61c72b9c3dda97ea9ed0837ced632 -->
<g id="edge32" class="edge">
<title>dir_c975670b39cd3bb3f0c23911d8ebd662&#45;&gt;dir_b5f61c72b9c3dda97ea9ed0837ced632</title>
<path fill="none" stroke="black" d="M140.4,-87.7C133.88,-79.39 125.93,-69.28 118.75,-60.14"/>
<polygon fill="black" stroke="black" points="121.37,-57.81 112.44,-52.1 115.87,-62.13 121.37,-57.81"/>
<g id="a_edge32&#45;headlabel"><a xlink:href="dir_000016_000022.html" target="_top" xlink:title="3">
<text text-anchor="middle" x="125.82" y="-56.38" font-family="FreeSans" font-size="10.00">3</text>
</a>
</g>
</g>
<!-- dir_c975670b39cd3bb3f0c23911d8ebd662&#45;&gt;dir_db3afc5e367a93f87ffcc764fb4101bb -->
<g id="edge33" class="edge">
<title>dir_c975670b39cd3bb3f0c23911d8ebd662&#45;&gt;dir_db3afc5e367a93f87ffcc764fb4101bb</title>
<path fill="none" stroke="black" d="M155.03,-124.11C155.88,-142.07 156.56,-171.1 154,-196 153.12,-204.54 151.47,-213.74 149.71,-222.04"/>
<polygon fill="black" stroke="black" points="146.26,-221.43 147.46,-231.95 153.08,-222.97 146.26,-221.43"/>
<g id="a_edge33&#45;headlabel"><a xlink:href="dir_000016_000024.html" target="_top" xlink:title="1">
<text text-anchor="middle" x="144.28" y="-214.79" font-family="FreeSans" font-size="10.00">1</text>
</a>
</g>
</g>
<!-- dir_c975670b39cd3bb3f0c23911d8ebd662&#45;&gt;dir_e4d5a5ad095028ae0129065cd60b3253 -->
<g id="edge34" class="edge">
<title>dir_c975670b39cd3bb3f0c23911d8ebd662&#45;&gt;dir_e4d5a5ad095028ae0129065cd60b3253</title>
<path fill="none" stroke="black" d="M160.39,-124.07C168.92,-147.85 183.57,-192.48 189,-232 191.82,-252.54 191.69,-275.99 190.92,-293.66"/>
<polygon fill="black" stroke="black" points="187.41,-293.67 190.38,-303.84 194.4,-294.04 187.41,-293.67"/>
<g id="a_edge34&#45;headlabel"><a xlink:href="dir_000016_000007.html" target="_top" xlink:title="4">
<text text-anchor="middle" x="184.77" y="-287.43" font-family="FreeSans" font-size="10.00">4</text>
</a>
</g>
</g>
</g>
</svg>
        <g id="navigator" transform="translate(0 0)" fill="#404254">
                <rect fill="#f2f5e9" fill-opacity="0.5" stroke="#606060" stroke-width=".5" x="0" y="0" width="60" height="60"/>
                <use id="zoomplus" xlink:href="#zoomPlus" x="17" y="9" onmousedown="handleZoom(evt,'in')"/>
                <use id="zoomminus" xlink:href="#zoomMin" x="42" y="9" onmousedown="handleZoom(evt,'out')"/>
                <use id="reset" xlink:href="#resetDef" x="30" y="36" onmousedown="handleReset()"/>
                <g id="arrowUp" xlink:href="#dirArrow" transform="translate(30 24)" onmousedown="handlePan(0,-1)">
                  <use xlink:href="#rim" fill="#404040">
                        <set attributeName="fill" to="#808080" begin="arrowUp.mouseover" end="arrowUp.mouseout"/>
                  </use>
                  <path fill="none" stroke="white" stroke-width="1.5" d="M0,-3.0v7 M-2.5,-0.5L0,-3.0L2.5,-0.5"/>
                </g>
                <g id="arrowRight" xlink:href="#dirArrow" transform="rotate(90) translate(36 -43)" onmousedown="handlePan(1,0)">
                  <use xlink:href="#rim" fill="#404040">
                        <set attributeName="fill" to="#808080" begin="arrowRight.mouseover" end="arrowRight.mouseout"/>
                  </use>
                  <path fill="none" stroke="white" stroke-width="1.5" d="M0,-3.0v7 M-2.5,-0.5L0,-3.0L2.5,-0.5"/>
                </g>
                <g id="arrowDown" xlink:href="#dirArrow" transform="rotate(180) translate(-30 -48)" onmousedown="handlePan(0,1)">
                  <use xlink:href="#rim" fill="#404040">
                        <set attributeName="fill" to="#808080" begin="arrowDown.mouseover" end="arrowDown.mouseout"/>
                  </use>
                  <path fill="none" stroke="white" stroke-width="1.5" d="M0,-3.0v7 M-2.5,-0.5L0,-3.0L2.5,-0.5"/>
                </g>
                <g id="arrowLeft" xlink:href="#dirArrow" transform="rotate(270) translate(-36 17)" onmousedown="handlePan(-1,0)">
                  <use xlink:href="#rim" fill="#404040">
                        <set attributeName="fill" to="#808080" begin="arrowLeft.mouseover" end="arrowLeft.mouseout"/>
                  </use>
                  <path fill="none" stroke="white" stroke-width="1.5" d="M0,-3.0v7 M-2.5,-0.5L0,-3.0L2.5,-0.5"/>
                </g>
        </g>
        <svg viewBox="0 0 15 15" width="100%" height="30px" preserveAspectRatio="xMaxYMin meet">
         <g id="arrow_out" transform="scale(0.3 0.3)">
          <a xlink:href="dir_c975670b39cd3bb3f0c23911d8ebd662_dep_org.svg" target="_base">
           <rect id="button" ry="5" rx="5" y="6" x="6" height="38" width="38"
                fill="#f2f5e9" fill-opacity="0.5" stroke="#606060" stroke-width="1.0"/>
           <path id="arrow"
             d="M 11.500037,31.436501 C 11.940474,20.09759 22.043105,11.32322 32.158766,21.979434 L 37.068811,17.246167 C 37.068811,17.246167 37.088388,32 37.088388,32 L 22.160133,31.978069 C 22.160133,31.978069 26.997745,27.140456 26.997745,27.140456 C 18.528582,18.264221 13.291696,25.230495 11.500037,31.436501 z"
             style="fill:#404040;"/>
          </a>
         </g>
        </svg>
</svg>
