<?xml version="1.0" encoding="UTF-8" standalone="no"?>
<!DOCTYPE svg PUBLIC "-//W3C//DTD SVG 1.1//EN"
 "http://www.w3.org/Graphics/SVG/1.1/DTD/svg11.dtd">
<!-- Generated by graphviz version 2.43.0 (0)
 -->
<!-- Title: lna Pages: 1 -->
<svg width="374pt" height="599pt"
 viewBox="0.00 0.00 374.00 599.00" xmlns="http://www.w3.org/2000/svg" xmlns:xlink="http://www.w3.org/1999/xlink">
<g id="graph0" class="graph" transform="scale(1 1) rotate(0) translate(4 595)">
<title>lna</title>
<polygon fill="white" stroke="transparent" points="-4,4 -4,-595 370,-595 370,4 -4,4"/>
<g id="clust1" class="cluster">
<title>clusterdir_db7313a27b1cae523c7773e30bdf986c</title>
<g id="a_clust1"><a xlink:href="dir_db7313a27b1cae523c7773e30bdf986c.html" target="_top" xlink:title="copasi">
<polygon fill="#ddddee" stroke="black" points="8,-8 8,-583 358,-583 358,-8 8,-8"/>
<text text-anchor="middle" x="183" y="-571" font-family="FreeSans" font-size="10.00">copasi</text>
</a>
</g>
</g>
<!-- dir_35addd29aafebb04e6caa45e6f26d04b -->
<g id="node1" class="node">
<title>dir_35addd29aafebb04e6caa45e6f26d04b</title>
<g id="a_node1"><a xlink:href="dir_35addd29aafebb04e6caa45e6f26d04b.html" target="_top" xlink:title="core">
<polygon fill="none" stroke="black" points="276,-556 222,-556 222,-520 276,-520 276,-556"/>
<text text-anchor="middle" x="249" y="-535.5" font-family="FreeSans" font-size="10.00">core</text>
</a>
</g>
</g>
<!-- dir_4ebd611d220344e85b5ba20d026188c7 -->
<g id="node3" class="node">
<title>dir_4ebd611d220344e85b5ba20d026188c7</title>
<g id="a_node3"><a xlink:href="dir_4ebd611d220344e85b5ba20d026188c7.html" target="_top" xlink:title="report">
<polygon fill="none" stroke="black" points="230,-484 176,-484 176,-448 230,-448 230,-484"/>
<text text-anchor="middle" x="203" y="-463.5" font-family="FreeSans" font-size="10.00">report</text>
</a>
</g>
</g>
<!-- dir_35addd29aafebb04e6caa45e6f26d04b&#45;&gt;dir_4ebd611d220344e85b5ba20d026188c7 -->
<g id="edge20" class="edge">
<title>dir_35addd29aafebb04e6caa45e6f26d04b&#45;&gt;dir_4ebd611d220344e85b5ba20d026188c7</title>
<path fill="none" stroke="black" d="M231.71,-519.7C225.59,-511.64 218.97,-501.89 213.53,-492.98"/>
<polygon fill="black" stroke="black" points="216.41,-490.98 208.34,-484.1 210.36,-494.51 216.41,-490.98"/>
<g id="a_edge20&#45;headlabel"><a xlink:href="dir_000008_000003.html" target="_top" xlink:title="3">
<text text-anchor="middle" x="220.67" y="-490.15" font-family="FreeSans" font-size="10.00">3</text>
</a>
</g>
</g>
<!-- dir_93b162d06b4c1cfd72a25a3b81dbdc2c -->
<g id="node4" class="node">
<title>dir_93b162d06b4c1cfd72a25a3b81dbdc2c</title>
<g id="a_node4"><a xlink:href="dir_93b162d06b4c1cfd72a25a3b81dbdc2c.html" target="_top" xlink:title="CopasiDataModel">
<polygon fill="none" stroke="black" points="335.5,-52 242.5,-52 242.5,-16 335.5,-16 335.5,-52"/>
<text text-anchor="middle" x="289" y="-31.5" font-family="FreeSans" font-size="10.00">CopasiDataModel</text>
</a>
</g>
</g>
<!-- dir_35addd29aafebb04e6caa45e6f26d04b&#45;&gt;dir_93b162d06b4c1cfd72a25a3b81dbdc2c -->
<g id="edge21" class="edge">
<title>dir_35addd29aafebb04e6caa45e6f26d04b&#45;&gt;dir_93b162d06b4c1cfd72a25a3b81dbdc2c</title>
<path fill="none" stroke="black" d="M266.12,-519.61C292.73,-495.28 340,-448.07 340,-395 340,-395 340,-395 340,-177 340,-133.91 316.26,-88.85 300.89,-61.34"/>
<polygon fill="black" stroke="black" points="303.8,-59.38 295.85,-52.38 297.7,-62.81 303.8,-59.38"/>
<g id="a_edge21&#45;headlabel"><a xlink:href="dir_000008_000019.html" target="_top" xlink:title="5">
<text text-anchor="middle" x="308.04" y="-58.62" font-family="FreeSans" font-size="10.00">5</text>
</a>
</g>
</g>
<!-- dir_aefcf59a6fdfc9bd7c340f12bedb31af -->
<g id="node6" class="node">
<title>dir_aefcf59a6fdfc9bd7c340f12bedb31af</title>
<g id="a_node6"><a xlink:href="dir_aefcf59a6fdfc9bd7c340f12bedb31af.html" target="_top" xlink:title="utilities">
<polygon fill="none" stroke="black" points="270,-268 216,-268 216,-232 270,-232 270,-268"/>
<text text-anchor="middle" x="243" y="-247.5" font-family="FreeSans" font-size="10.00">utilities</text>
</a>
</g>
</g>
<!-- dir_35addd29aafebb04e6caa45e6f26d04b&#45;&gt;dir_aefcf59a6fdfc9bd7c340f12bedb31af -->
<g id="edge22" class="edge">
<title>dir_35addd29aafebb04e6caa45e6f26d04b&#45;&gt;dir_aefcf59a6fdfc9bd7c340f12bedb31af</title>
<path fill="none" stroke="black" d="M251.83,-519.74C261.45,-490.4 284.64,-428.86 276,-376 270.31,-341.21 256.27,-303.04 247.94,-278.15"/>
<polygon fill="black" stroke="black" points="251.17,-276.78 244.76,-268.34 244.51,-278.93 251.17,-276.78"/>
<g id="a_edge22&#45;headlabel"><a xlink:href="dir_000008_000009.html" target="_top" xlink:title="13">
<text text-anchor="middle" x="254.98" y="-276.82" font-family="FreeSans" font-size="10.00">13</text>
</a>
</g>
</g>
<!-- dir_e4d5a5ad095028ae0129065cd60b3253 -->
<g id="node8" class="node">
<title>dir_e4d5a5ad095028ae0129065cd60b3253</title>
<g id="a_node8"><a xlink:href="dir_e4d5a5ad095028ae0129065cd60b3253.html" target="_top" xlink:title="model">
<polygon fill="none" stroke="black" points="276,-412 222,-412 222,-376 276,-376 276,-412"/>
<text text-anchor="middle" x="249" y="-391.5" font-family="FreeSans" font-size="10.00">model</text>
</a>
</g>
</g>
<!-- dir_35addd29aafebb04e6caa45e6f26d04b&#45;&gt;dir_e4d5a5ad095028ae0129065cd60b3253 -->
<g id="edge23" class="edge">
<title>dir_35addd29aafebb04e6caa45e6f26d04b&#45;&gt;dir_e4d5a5ad095028ae0129065cd60b3253</title>
<path fill="none" stroke="black" d="M244.42,-519.87C241.86,-495.67 241.57,-451.21 243.54,-422.39"/>
<polygon fill="black" stroke="black" points="247.05,-422.45 244.41,-412.19 240.07,-421.86 247.05,-422.45"/>
<g id="a_edge23&#45;headlabel"><a xlink:href="dir_000008_000007.html" target="_top" xlink:title="2">
<text text-anchor="middle" x="249.57" y="-423.77" font-family="FreeSans" font-size="10.00">2</text>
</a>
</g>
</g>
<!-- dir_405ce7a1489983e8b36f67512c8c61c7 -->
<g id="node2" class="node">
<title>dir_405ce7a1489983e8b36f67512c8c61c7</title>
<g id="a_node2"><a xlink:href="dir_405ce7a1489983e8b36f67512c8c61c7.html" target="_top" xlink:title="lapack">
<polygon fill="none" stroke="black" points="146,-52 92,-52 92,-16 146,-16 146,-52"/>
<text text-anchor="middle" x="119" y="-31.5" font-family="FreeSans" font-size="10.00">lapack</text>
</a>
</g>
</g>
<!-- dir_4ebd611d220344e85b5ba20d026188c7&#45;&gt;dir_35addd29aafebb04e6caa45e6f26d04b -->
<g id="edge9" class="edge">
<title>dir_4ebd611d220344e85b5ba20d026188c7&#45;&gt;dir_35addd29aafebb04e6caa45e6f26d04b</title>
<path fill="none" stroke="black" d="M220.14,-484.1C226.25,-492.13 232.87,-501.87 238.34,-510.8"/>
<polygon fill="black" stroke="black" points="235.47,-512.83 243.54,-519.7 241.52,-509.3 235.47,-512.83"/>
<g id="a_edge9&#45;headlabel"><a xlink:href="dir_000003_000008.html" target="_top" xlink:title="21">
<text text-anchor="middle" x="231.21" y="-508.66" font-family="FreeSans" font-size="10.00">21</text>
</a>
</g>
</g>
<!-- dir_4ebd611d220344e85b5ba20d026188c7&#45;&gt;dir_93b162d06b4c1cfd72a25a3b81dbdc2c -->
<g id="edge10" class="edge">
<title>dir_4ebd611d220344e85b5ba20d026188c7&#45;&gt;dir_93b162d06b4c1cfd72a25a3b81dbdc2c</title>
<path fill="none" stroke="black" d="M230.38,-449.47C245.84,-440.66 264.19,-428.14 276,-412 319.82,-352.14 320,-325.18 320,-251 320,-251 320,-251 320,-177 320,-135.48 303.96,-89.61 294.48,-61.54"/>
<polygon fill="black" stroke="black" points="297.8,-60.44 291.33,-52.05 291.16,-62.64 297.8,-60.44"/>
<g id="a_edge10&#45;headlabel"><a xlink:href="dir_000003_000019.html" target="_top" xlink:title="3">
<text text-anchor="middle" x="301.63" y="-60.45" font-family="FreeSans" font-size="10.00">3</text>
</a>
</g>
</g>
<!-- dir_a73b144dc8caecb0be850bda3e53b7bb -->
<g id="node5" class="node">
<title>dir_a73b144dc8caecb0be850bda3e53b7bb</title>
<g id="a_node5"><a xlink:href="dir_a73b144dc8caecb0be850bda3e53b7bb.html" target="_top" xlink:title="steadystate">
<polygon fill="none" stroke="black" points="205.5,-124 138.5,-124 138.5,-88 205.5,-88 205.5,-124"/>
<text text-anchor="middle" x="172" y="-103.5" font-family="FreeSans" font-size="10.00">steadystate</text>
</a>
</g>
</g>
<!-- dir_4ebd611d220344e85b5ba20d026188c7&#45;&gt;dir_a73b144dc8caecb0be850bda3e53b7bb -->
<g id="edge11" class="edge">
<title>dir_4ebd611d220344e85b5ba20d026188c7&#45;&gt;dir_a73b144dc8caecb0be850bda3e53b7bb</title>
<path fill="none" stroke="black" d="M175.72,-453.83C159.24,-444.5 139.61,-429.87 128,-412 109.97,-384.25 113.49,-372.79 109,-340 98.16,-260.73 75.37,-233.49 107,-160 111.97,-148.45 120.83,-138.25 130.5,-129.95"/>
<polygon fill="black" stroke="black" points="132.7,-132.67 138.37,-123.72 128.35,-127.18 132.7,-132.67"/>
<g id="a_edge11&#45;headlabel"><a xlink:href="dir_000003_000020.html" target="_top" xlink:title="1">
<text text-anchor="middle" x="131.65" y="-134.63" font-family="FreeSans" font-size="10.00">1</text>
</a>
</g>
</g>
<!-- dir_4ebd611d220344e85b5ba20d026188c7&#45;&gt;dir_aefcf59a6fdfc9bd7c340f12bedb31af -->
<g id="edge12" class="edge">
<title>dir_4ebd611d220344e85b5ba20d026188c7&#45;&gt;dir_aefcf59a6fdfc9bd7c340f12bedb31af</title>
<path fill="none" stroke="black" d="M197.57,-447.85C196.8,-429.86 199.65,-400.81 204,-376 210,-341.8 219.79,-303.01 228.56,-277.83"/>
<polygon fill="black" stroke="black" points="231.92,-278.84 232.12,-268.25 225.36,-276.41 231.92,-278.84"/>
<g id="a_edge12&#45;headlabel"><a xlink:href="dir_000003_000009.html" target="_top" xlink:title="11">
<text text-anchor="middle" x="233.33" y="-280.7" font-family="FreeSans" font-size="10.00">11</text>
</a>
</g>
</g>
<!-- dir_db3afc5e367a93f87ffcc764fb4101bb -->
<g id="node7" class="node">
<title>dir_db3afc5e367a93f87ffcc764fb4101bb</title>
<g id="a_node7"><a xlink:href="dir_db3afc5e367a93f87ffcc764fb4101bb.html" target="_top" xlink:title="math">
<polygon fill="none" stroke="black" points="190,-340 136,-340 136,-304 190,-304 190,-340"/>
<text text-anchor="middle" x="163" y="-319.5" font-family="FreeSans" font-size="10.00">math</text>
</a>
</g>
</g>
<!-- dir_4ebd611d220344e85b5ba20d026188c7&#45;&gt;dir_db3afc5e367a93f87ffcc764fb4101bb -->
<g id="edge13" class="edge">
<title>dir_4ebd611d220344e85b5ba20d026188c7&#45;&gt;dir_db3afc5e367a93f87ffcc764fb4101bb</title>
<path fill="none" stroke="black" d="M198.18,-447.87C191.33,-423.56 178.72,-378.82 170.61,-350.01"/>
<polygon fill="black" stroke="black" points="173.92,-348.87 167.84,-340.19 167.18,-350.76 173.92,-348.87"/>
<g id="a_edge13&#45;headlabel"><a xlink:href="dir_000003_000024.html" target="_top" xlink:title="2">
<text text-anchor="middle" x="177.63" y="-349.06" font-family="FreeSans" font-size="10.00">2</text>
</a>
</g>
</g>
<!-- dir_4ebd611d220344e85b5ba20d026188c7&#45;&gt;dir_e4d5a5ad095028ae0129065cd60b3253 -->
<g id="edge14" class="edge">
<title>dir_4ebd611d220344e85b5ba20d026188c7&#45;&gt;dir_e4d5a5ad095028ae0129065cd60b3253</title>
<path fill="none" stroke="black" d="M208.46,-447.7C213.01,-439.47 219.37,-429.48 225.77,-420.42"/>
<polygon fill="black" stroke="black" points="228.78,-422.24 231.86,-412.1 223.13,-418.1 228.78,-422.24"/>
<g id="a_edge14&#45;headlabel"><a xlink:href="dir_000003_000007.html" target="_top" xlink:title="2">
<text text-anchor="middle" x="228.95" y="-424.32" font-family="FreeSans" font-size="10.00">2</text>
</a>
</g>
</g>
<!-- dir_93b162d06b4c1cfd72a25a3b81dbdc2c&#45;&gt;dir_35addd29aafebb04e6caa45e6f26d04b -->
<g id="edge38" class="edge">
<title>dir_93b162d06b4c1cfd72a25a3b81dbdc2c&#45;&gt;dir_35addd29aafebb04e6caa45e6f26d04b</title>
<path fill="none" stroke="black" d="M307.6,-52.38C328.34,-78.19 358,-128.83 358,-177 358,-395 358,-395 358,-395 358,-444.82 316.34,-489.49 284.38,-514.9"/>
<polygon fill="black" stroke="black" points="281.9,-512.38 276.08,-521.24 286.15,-517.95 281.9,-512.38"/>
<g id="a_edge38&#45;headlabel"><a xlink:href="dir_000019_000008.html" target="_top" xlink:title="7">
<text text-anchor="middle" x="283.03" y="-505.45" font-family="FreeSans" font-size="10.00">7</text>
</a>
</g>
</g>
<!-- dir_93b162d06b4c1cfd72a25a3b81dbdc2c&#45;&gt;dir_4ebd611d220344e85b5ba20d026188c7 -->
<g id="edge39" class="edge">
<title>dir_93b162d06b4c1cfd72a25a3b81dbdc2c&#45;&gt;dir_4ebd611d220344e85b5ba20d026188c7</title>
<path fill="none" stroke="black" d="M302.86,-52.05C317.78,-78.28 338,-130.39 338,-177 338,-251 338,-251 338,-251 338,-325.18 337.82,-352.14 294,-412 280.55,-430.37 258.64,-444.05 239.56,-452.91"/>
<polygon fill="black" stroke="black" points="237.95,-449.79 230.18,-456.99 240.74,-456.21 237.95,-449.79"/>
<g id="a_edge39&#45;headlabel"><a xlink:href="dir_000019_000003.html" target="_top" xlink:title="2">
<text text-anchor="middle" x="240.12" y="-443.25" font-family="FreeSans" font-size="10.00">2</text>
</a>
</g>
</g>
<!-- dir_93b162d06b4c1cfd72a25a3b81dbdc2c&#45;&gt;dir_a73b144dc8caecb0be850bda3e53b7bb -->
<g id="edge41" class="edge">
<title>dir_93b162d06b4c1cfd72a25a3b81dbdc2c&#45;&gt;dir_a73b144dc8caecb0be850bda3e53b7bb</title>
<path fill="none" stroke="black" d="M266.15,-52.2C251.42,-61.6 231.94,-73.33 214.48,-83.35"/>
<polygon fill="black" stroke="black" points="212.53,-80.43 205.57,-88.41 215.99,-86.52 212.53,-80.43"/>
<g id="a_edge41&#45;headlabel"><a xlink:href="dir_000019_000020.html" target="_top" xlink:title="2">
<text text-anchor="middle" x="214.26" y="-73.69" font-family="FreeSans" font-size="10.00">2</text>
</a>
</g>
</g>
<!-- dir_93b162d06b4c1cfd72a25a3b81dbdc2c&#45;&gt;dir_aefcf59a6fdfc9bd7c340f12bedb31af -->
<g id="edge42" class="edge">
<title>dir_93b162d06b4c1cfd72a25a3b81dbdc2c&#45;&gt;dir_aefcf59a6fdfc9bd7c340f12bedb31af</title>
<path fill="none" stroke="black" d="M292.37,-52.08C291.12,-70.02 285.32,-99.02 280,-124 272.79,-157.84 264,-196.71 256.2,-222"/>
<polygon fill="black" stroke="black" points="252.83,-221.04 253.04,-231.63 259.48,-223.23 252.83,-221.04"/>
<g id="a_edge42&#45;headlabel"><a xlink:href="dir_000019_000009.html" target="_top" xlink:title="9">
<text text-anchor="middle" x="251.25" y="-214.24" font-family="FreeSans" font-size="10.00">9</text>
</a>
</g>
</g>
<!-- dir_93b162d06b4c1cfd72a25a3b81dbdc2c&#45;&gt;dir_e4d5a5ad095028ae0129065cd60b3253 -->
<g id="edge43" class="edge">
<title>dir_93b162d06b4c1cfd72a25a3b81dbdc2c&#45;&gt;dir_e4d5a5ad095028ae0129065cd60b3253</title>
<path fill="none" stroke="black" d="M298.81,-52.38C307.89,-79.03 318,-131.69 318,-177 318,-251 318,-251 318,-251 318,-294.47 293.85,-339.94 273.89,-367.37"/>
<polygon fill="black" stroke="black" points="270.88,-365.55 267.6,-375.62 276.45,-369.8 270.88,-365.55"/>
<g id="a_edge43&#45;headlabel"><a xlink:href="dir_000019_000007.html" target="_top" xlink:title="4">
<text text-anchor="middle" x="270.81" y="-358.47" font-family="FreeSans" font-size="10.00">4</text>
</a>
</g>
</g>
<!-- dir_57cc49b724a665bfc11a977041d40e26 -->
<g id="node9" class="node">
<title>dir_57cc49b724a665bfc11a977041d40e26</title>
<g id="a_node9"><a xlink:href="dir_57cc49b724a665bfc11a977041d40e26.html" target="_top" xlink:title="lna">
<polygon fill="#eeeeff" stroke="black" points="190,-196 136,-196 136,-160 190,-160 190,-196"/>
<text text-anchor="middle" x="163" y="-175.5" font-family="FreeSans" font-size="10.00">lna</text>
</a>
</g>
</g>
<!-- dir_93b162d06b4c1cfd72a25a3b81dbdc2c&#45;&gt;dir_57cc49b724a665bfc11a977041d40e26 -->
<g id="edge40" class="edge">
<title>dir_93b162d06b4c1cfd72a25a3b81dbdc2c&#45;&gt;dir_57cc49b724a665bfc11a977041d40e26</title>
<path fill="none" stroke="black" d="M282.17,-52.08C269.95,-70.26 245.96,-99.7 224,-124 215.2,-133.74 205.18,-144.11 195.73,-153.07"/>
<polygon fill="black" stroke="black" points="193.29,-150.57 188.31,-159.92 198.04,-155.71 193.29,-150.57"/>
<g id="a_edge40&#45;headlabel"><a xlink:href="dir_000019_000025.html" target="_top" xlink:title="1">
<text text-anchor="middle" x="194" y="-143.54" font-family="FreeSans" font-size="10.00">1</text>
</a>
</g>
</g>
<!-- dir_a73b144dc8caecb0be850bda3e53b7bb&#45;&gt;dir_35addd29aafebb04e6caa45e6f26d04b -->
<g id="edge44" class="edge">
<title>dir_a73b144dc8caecb0be850bda3e53b7bb&#45;&gt;dir_35addd29aafebb04e6caa45e6f26d04b</title>
<path fill="none" stroke="black" d="M138.28,-123.74C98.3,-146.25 37,-190.32 37,-249 37,-395 37,-395 37,-395 37,-441.97 57.05,-455 94,-484 128.67,-511.21 178.17,-524.9 211.83,-531.46"/>
<polygon fill="black" stroke="black" points="211.27,-534.92 221.74,-533.28 212.53,-528.03 211.27,-534.92"/>
<g id="a_edge44&#45;headlabel"><a xlink:href="dir_000020_000008.html" target="_top" xlink:title="16">
<text text-anchor="middle" x="207.22" y="-534.56" font-family="FreeSans" font-size="10.00">16</text>
</a>
</g>
</g>
<!-- dir_a73b144dc8caecb0be850bda3e53b7bb&#45;&gt;dir_405ce7a1489983e8b36f67512c8c61c7 -->
<g id="edge45" class="edge">
<title>dir_a73b144dc8caecb0be850bda3e53b7bb&#45;&gt;dir_405ce7a1489983e8b36f67512c8c61c7</title>
<path fill="none" stroke="black" d="M158.9,-87.7C152.61,-79.39 144.95,-69.28 138.04,-60.14"/>
<polygon fill="black" stroke="black" points="140.78,-57.96 131.95,-52.1 135.2,-62.19 140.78,-57.96"/>
<g id="a_edge45&#45;headlabel"><a xlink:href="dir_000020_000004.html" target="_top" xlink:title="3">
<text text-anchor="middle" x="145.21" y="-56.62" font-family="FreeSans" font-size="10.00">3</text>
</a>
</g>
</g>
<!-- dir_a73b144dc8caecb0be850bda3e53b7bb&#45;&gt;dir_4ebd611d220344e85b5ba20d026188c7 -->
<g id="edge46" class="edge">
<title>dir_a73b144dc8caecb0be850bda3e53b7bb&#45;&gt;dir_4ebd611d220344e85b5ba20d026188c7</title>
<path fill="none" stroke="black" d="M154.02,-124.18C143.42,-133.31 131.19,-145.61 125,-160 93.37,-233.49 116.16,-260.73 127,-340 131.49,-372.79 127.97,-384.25 146,-412 153.39,-423.38 164.03,-433.44 174.2,-441.66"/>
<polygon fill="black" stroke="black" points="172.13,-444.49 182.18,-447.84 176.42,-438.95 172.13,-444.49"/>
<g id="a_edge46&#45;headlabel"><a xlink:href="dir_000020_000003.html" target="_top" xlink:title="5">
<text text-anchor="middle" x="167.55" y="-442.03" font-family="FreeSans" font-size="10.00">5</text>
</a>
</g>
</g>
<!-- dir_a73b144dc8caecb0be850bda3e53b7bb&#45;&gt;dir_93b162d06b4c1cfd72a25a3b81dbdc2c -->
<g id="edge47" class="edge">
<title>dir_a73b144dc8caecb0be850bda3e53b7bb&#45;&gt;dir_93b162d06b4c1cfd72a25a3b81dbdc2c</title>
<path fill="none" stroke="black" d="M194.72,-87.88C209.2,-78.64 228.29,-67.13 245.54,-57.21"/>
<polygon fill="black" stroke="black" points="247.41,-60.18 254.36,-52.19 243.94,-54.1 247.41,-60.18"/>
<g id="a_edge47&#45;headlabel"><a xlink:href="dir_000020_000019.html" target="_top" xlink:title="4">
<text text-anchor="middle" x="245.69" y="-61.92" font-family="FreeSans" font-size="10.00">4</text>
</a>
</g>
</g>
<!-- dir_a73b144dc8caecb0be850bda3e53b7bb&#45;&gt;dir_aefcf59a6fdfc9bd7c340f12bedb31af -->
<g id="edge48" class="edge">
<title>dir_a73b144dc8caecb0be850bda3e53b7bb&#45;&gt;dir_aefcf59a6fdfc9bd7c340f12bedb31af</title>
<path fill="none" stroke="black" d="M188.63,-124.16C195.11,-134.52 201.98,-148 208,-160 218.47,-180.86 230.18,-204.56 237.55,-222.25"/>
<polygon fill="black" stroke="black" points="234.43,-223.88 241.34,-231.91 240.94,-221.32 234.43,-223.88"/>
<g id="a_edge48&#45;headlabel"><a xlink:href="dir_000020_000009.html" target="_top" xlink:title="24">
<text text-anchor="middle" x="230.47" y="-219.08" font-family="FreeSans" font-size="10.00">24</text>
</a>
</g>
</g>
<!-- dir_a73b144dc8caecb0be850bda3e53b7bb&#45;&gt;dir_db3afc5e367a93f87ffcc764fb4101bb -->
<g id="edge49" class="edge">
<title>dir_a73b144dc8caecb0be850bda3e53b7bb&#45;&gt;dir_db3afc5e367a93f87ffcc764fb4101bb</title>
<path fill="none" stroke="black" d="M151.62,-124.47C142.19,-133.91 131.99,-146.4 127,-160 110.18,-205.81 131.69,-261.95 147.97,-294.39"/>
<polygon fill="black" stroke="black" points="145.07,-296.41 152.8,-303.65 151.28,-293.17 145.07,-296.41"/>
<g id="a_edge49&#45;headlabel"><a xlink:href="dir_000020_000024.html" target="_top" xlink:title="5">
<text text-anchor="middle" x="140.89" y="-292.03" font-family="FreeSans" font-size="10.00">5</text>
</a>
</g>
</g>
<!-- dir_a73b144dc8caecb0be850bda3e53b7bb&#45;&gt;dir_e4d5a5ad095028ae0129065cd60b3253 -->
<g id="edge50" class="edge">
<title>dir_a73b144dc8caecb0be850bda3e53b7bb&#45;&gt;dir_e4d5a5ad095028ae0129065cd60b3253</title>
<path fill="none" stroke="black" d="M193.95,-124.04C220.01,-145.8 262.07,-186.18 279,-232 295.79,-277.44 276.94,-333.71 262.46,-366.26"/>
<polygon fill="black" stroke="black" points="259.18,-365.02 258.15,-375.57 265.53,-367.97 259.18,-365.02"/>
<g id="a_edge50&#45;headlabel"><a xlink:href="dir_000020_000007.html" target="_top" xlink:title="10">
<text text-anchor="middle" x="258.11" y="-358.07" font-family="FreeSans" font-size="10.00">10</text>
</a>
</g>
</g>
<!-- dir_aefcf59a6fdfc9bd7c340f12bedb31af&#45;&gt;dir_35addd29aafebb04e6caa45e6f26d04b -->
<g id="edge1" class="edge">
<title>dir_aefcf59a6fdfc9bd7c340f12bedb31af&#45;&gt;dir_35addd29aafebb04e6caa45e6f26d04b</title>
<path fill="none" stroke="black" d="M256.91,-268.34C270.08,-292.06 287.5,-336.24 294,-376 301.83,-423.9 283.52,-478.94 267.63,-510.67"/>
<polygon fill="black" stroke="black" points="264.42,-509.26 262.81,-519.74 270.6,-512.55 264.42,-509.26"/>
<g id="a_edge1&#45;headlabel"><a xlink:href="dir_000009_000008.html" target="_top" xlink:title="46">
<text text-anchor="middle" x="263.6" y="-502.26" font-family="FreeSans" font-size="10.00">46</text>
</a>
</g>
</g>
<!-- dir_aefcf59a6fdfc9bd7c340f12bedb31af&#45;&gt;dir_405ce7a1489983e8b36f67512c8c61c7 -->
<g id="edge2" class="edge">
<title>dir_aefcf59a6fdfc9bd7c340f12bedb31af&#45;&gt;dir_405ce7a1489983e8b36f67512c8c61c7</title>
<path fill="none" stroke="black" d="M244.58,-231.67C246.56,-200.03 246.45,-132.13 215,-88 200.69,-67.93 176.29,-54.6 155.68,-46.33"/>
<polygon fill="black" stroke="black" points="156.81,-43.02 146.22,-42.77 154.35,-49.57 156.81,-43.02"/>
<g id="a_edge2&#45;headlabel"><a xlink:href="dir_000009_000004.html" target="_top" xlink:title="9">
<text text-anchor="middle" x="161.18" y="-39.12" font-family="FreeSans" font-size="10.00">9</text>
</a>
</g>
</g>
<!-- dir_aefcf59a6fdfc9bd7c340f12bedb31af&#45;&gt;dir_4ebd611d220344e85b5ba20d026188c7 -->
<g id="edge3" class="edge">
<title>dir_aefcf59a6fdfc9bd7c340f12bedb31af&#45;&gt;dir_4ebd611d220344e85b5ba20d026188c7</title>
<path fill="none" stroke="black" d="M244.17,-268.25C240.56,-292.23 228.83,-337.09 222,-376 218.39,-396.55 215.82,-420 212.89,-437.67"/>
<polygon fill="black" stroke="black" points="209.39,-437.38 211.01,-447.85 216.27,-438.65 209.39,-437.38"/>
<g id="a_edge3&#45;headlabel"><a xlink:href="dir_000009_000003.html" target="_top" xlink:title="7">
<text text-anchor="middle" x="207.25" y="-430.83" font-family="FreeSans" font-size="10.00">7</text>
</a>
</g>
</g>
<!-- dir_aefcf59a6fdfc9bd7c340f12bedb31af&#45;&gt;dir_93b162d06b4c1cfd72a25a3b81dbdc2c -->
<g id="edge5" class="edge">
<title>dir_aefcf59a6fdfc9bd7c340f12bedb31af&#45;&gt;dir_93b162d06b4c1cfd72a25a3b81dbdc2c</title>
<path fill="none" stroke="black" d="M240.98,-231.63C243.55,-207.52 253.8,-162.5 262,-124 266.45,-103.12 271.23,-79.43 276.08,-61.74"/>
<polygon fill="black" stroke="black" points="279.45,-62.67 278.94,-52.08 272.74,-60.68 279.45,-62.67"/>
<g id="a_edge5&#45;headlabel"><a xlink:href="dir_000009_000019.html" target="_top" xlink:title="4">
<text text-anchor="middle" x="281.15" y="-64.42" font-family="FreeSans" font-size="10.00">4</text>
</a>
</g>
</g>
<!-- dir_aefcf59a6fdfc9bd7c340f12bedb31af&#45;&gt;dir_a73b144dc8caecb0be850bda3e53b7bb -->
<g id="edge6" class="edge">
<title>dir_aefcf59a6fdfc9bd7c340f12bedb31af&#45;&gt;dir_a73b144dc8caecb0be850bda3e53b7bb</title>
<path fill="none" stroke="black" d="M227.91,-231.91C216.82,-213.97 202.53,-184.96 190,-160 185.67,-151.38 180.91,-141.99 177.04,-133.54"/>
<polygon fill="black" stroke="black" points="180.16,-131.95 172.99,-124.16 173.74,-134.73 180.16,-131.95"/>
<g id="a_edge6&#45;headlabel"><a xlink:href="dir_000009_000020.html" target="_top" xlink:title="6">
<text text-anchor="middle" x="184.2" y="-131.63" font-family="FreeSans" font-size="10.00">6</text>
</a>
</g>
</g>
<!-- dir_aefcf59a6fdfc9bd7c340f12bedb31af&#45;&gt;dir_db3afc5e367a93f87ffcc764fb4101bb -->
<g id="edge7" class="edge">
<title>dir_aefcf59a6fdfc9bd7c340f12bedb31af&#45;&gt;dir_db3afc5e367a93f87ffcc764fb4101bb</title>
<path fill="none" stroke="black" d="M229.35,-268.1C220.23,-276.89 208.01,-287.73 196.5,-297.31"/>
<polygon fill="black" stroke="black" points="194.22,-294.66 188.69,-303.7 198.65,-300.08 194.22,-294.66"/>
<g id="a_edge7&#45;headlabel"><a xlink:href="dir_000009_000024.html" target="_top" xlink:title="7">
<text text-anchor="middle" x="195.2" y="-287.68" font-family="FreeSans" font-size="10.00">7</text>
</a>
</g>
</g>
<!-- dir_aefcf59a6fdfc9bd7c340f12bedb31af&#45;&gt;dir_e4d5a5ad095028ae0129065cd60b3253 -->
<g id="edge8" class="edge">
<title>dir_aefcf59a6fdfc9bd7c340f12bedb31af&#45;&gt;dir_e4d5a5ad095028ae0129065cd60b3253</title>
<path fill="none" stroke="black" d="M248.32,-268.19C251.9,-292.42 254.06,-336.89 253.3,-365.68"/>
<polygon fill="black" stroke="black" points="249.79,-365.73 252.86,-375.87 256.79,-366.03 249.79,-365.73"/>
<g id="a_edge8&#45;headlabel"><a xlink:href="dir_000009_000007.html" target="_top" xlink:title="11">
<text text-anchor="middle" x="247.11" y="-359.52" font-family="FreeSans" font-size="10.00">11</text>
</a>
</g>
</g>
<!-- dir_aefcf59a6fdfc9bd7c340f12bedb31af&#45;&gt;dir_57cc49b724a665bfc11a977041d40e26 -->
<g id="edge4" class="edge">
<title>dir_aefcf59a6fdfc9bd7c340f12bedb31af&#45;&gt;dir_57cc49b724a665bfc11a977041d40e26</title>
<path fill="none" stroke="black" d="M217.31,-231.7C206.54,-223.05 194.24,-212.45 184.01,-203.03"/>
<polygon fill="black" stroke="black" points="186.34,-200.41 176.65,-196.1 181.54,-205.5 186.34,-200.41"/>
<g id="a_edge4&#45;headlabel"><a xlink:href="dir_000009_000025.html" target="_top" xlink:title="3">
<text text-anchor="middle" x="190.9" y="-198.3" font-family="FreeSans" font-size="10.00">3</text>
</a>
</g>
</g>
<!-- dir_db3afc5e367a93f87ffcc764fb4101bb&#45;&gt;dir_35addd29aafebb04e6caa45e6f26d04b -->
<g id="edge15" class="edge">
<title>dir_db3afc5e367a93f87ffcc764fb4101bb&#45;&gt;dir_35addd29aafebb04e6caa45e6f26d04b</title>
<path fill="none" stroke="black" d="M158.48,-340.35C151.4,-371.42 141.02,-437.66 167,-484 176.93,-501.72 195.53,-514.46 212.5,-523"/>
<polygon fill="black" stroke="black" points="211.16,-526.24 221.7,-527.32 214.14,-519.9 211.16,-526.24"/>
<g id="a_edge15&#45;headlabel"><a xlink:href="dir_000024_000008.html" target="_top" xlink:title="24">
<text text-anchor="middle" x="206.7" y="-524.78" font-family="FreeSans" font-size="10.00">24</text>
</a>
</g>
</g>
<!-- dir_db3afc5e367a93f87ffcc764fb4101bb&#45;&gt;dir_405ce7a1489983e8b36f67512c8c61c7 -->
<g id="edge16" class="edge">
<title>dir_db3afc5e367a93f87ffcc764fb4101bb&#45;&gt;dir_405ce7a1489983e8b36f67512c8c61c7</title>
<path fill="none" stroke="black" d="M144.78,-303.62C135.96,-294.02 126.18,-281.36 121,-268 93.86,-197.96 105.04,-106.94 113.23,-62.22"/>
<polygon fill="black" stroke="black" points="116.71,-62.63 115.17,-52.14 109.84,-61.3 116.71,-62.63"/>
<g id="a_edge16&#45;headlabel"><a xlink:href="dir_000024_000004.html" target="_top" xlink:title="1">
<text text-anchor="middle" x="118.82" y="-64.19" font-family="FreeSans" font-size="10.00">1</text>
</a>
</g>
</g>
<!-- dir_db3afc5e367a93f87ffcc764fb4101bb&#45;&gt;dir_93b162d06b4c1cfd72a25a3b81dbdc2c -->
<g id="edge17" class="edge">
<title>dir_db3afc5e367a93f87ffcc764fb4101bb&#45;&gt;dir_93b162d06b4c1cfd72a25a3b81dbdc2c</title>
<path fill="none" stroke="black" d="M170.5,-303.97C191.64,-255.99 251.77,-119.5 277.31,-61.54"/>
<polygon fill="black" stroke="black" points="280.55,-62.87 281.38,-52.31 274.14,-60.05 280.55,-62.87"/>
<g id="a_edge17&#45;headlabel"><a xlink:href="dir_000024_000019.html" target="_top" xlink:title="1">
<text text-anchor="middle" x="281.7" y="-64.8" font-family="FreeSans" font-size="10.00">1</text>
</a>
</g>
</g>
<!-- dir_db3afc5e367a93f87ffcc764fb4101bb&#45;&gt;dir_aefcf59a6fdfc9bd7c340f12bedb31af -->
<g id="edge18" class="edge">
<title>dir_db3afc5e367a93f87ffcc764fb4101bb&#45;&gt;dir_aefcf59a6fdfc9bd7c340f12bedb31af</title>
<path fill="none" stroke="black" d="M176.86,-303.7C186.03,-294.88 198.26,-284.03 209.76,-274.47"/>
<polygon fill="black" stroke="black" points="212.03,-277.14 217.56,-268.1 207.6,-271.72 212.03,-277.14"/>
<g id="a_edge18&#45;headlabel"><a xlink:href="dir_000024_000009.html" target="_top" xlink:title="12">
<text text-anchor="middle" x="211.04" y="-279.11" font-family="FreeSans" font-size="10.00">12</text>
</a>
</g>
</g>
<!-- dir_db3afc5e367a93f87ffcc764fb4101bb&#45;&gt;dir_e4d5a5ad095028ae0129065cd60b3253 -->
<g id="edge19" class="edge">
<title>dir_db3afc5e367a93f87ffcc764fb4101bb&#45;&gt;dir_e4d5a5ad095028ae0129065cd60b3253</title>
<path fill="none" stroke="black" d="M189.91,-340.1C201.51,-348.8 214.86,-359.52 226,-369.03"/>
<polygon fill="black" stroke="black" points="223.82,-371.77 233.66,-375.7 228.41,-366.49 223.82,-371.77"/>
<g id="a_edge19&#45;headlabel"><a xlink:href="dir_000024_000007.html" target="_top" xlink:title="16">
<text text-anchor="middle" x="219.24" y="-369.06" font-family="FreeSans" font-size="10.00">16</text>
</a>
</g>
</g>
<!-- dir_e4d5a5ad095028ae0129065cd60b3253&#45;&gt;dir_35addd29aafebb04e6caa45e6f26d04b -->
<g id="edge24" class="edge">
<title>dir_e4d5a5ad095028ae0129065cd60b3253&#45;&gt;dir_35addd29aafebb04e6caa45e6f26d04b</title>
<path fill="none" stroke="black" d="M253.59,-412.19C256.15,-436.42 256.43,-480.89 254.45,-509.68"/>
<polygon fill="black" stroke="black" points="250.95,-509.61 253.58,-519.87 257.92,-510.21 250.95,-509.61"/>
<g id="a_edge24&#45;headlabel"><a xlink:href="dir_000007_000008.html" target="_top" xlink:title="57">
<text text-anchor="middle" x="248.42" y="-503.29" font-family="FreeSans" font-size="10.00">57</text>
</a>
</g>
</g>
<!-- dir_e4d5a5ad095028ae0129065cd60b3253&#45;&gt;dir_405ce7a1489983e8b36f67512c8c61c7 -->
<g id="edge25" class="edge">
<title>dir_e4d5a5ad095028ae0129065cd60b3253&#45;&gt;dir_405ce7a1489983e8b36f67512c8c61c7</title>
<path fill="none" stroke="black" d="M221.93,-389.37C160.73,-379.49 17,-346.16 17,-251 17,-251 17,-251 17,-177 17,-127.82 57.86,-84.01 87.85,-58.48"/>
<polygon fill="black" stroke="black" points="90.12,-61.15 95.6,-52.08 85.66,-55.75 90.12,-61.15"/>
<g id="a_edge25&#45;headlabel"><a xlink:href="dir_000007_000004.html" target="_top" xlink:title="2">
<text text-anchor="middle" x="89.16" y="-63.12" font-family="FreeSans" font-size="10.00">2</text>
</a>
</g>
</g>
<!-- dir_e4d5a5ad095028ae0129065cd60b3253&#45;&gt;dir_4ebd611d220344e85b5ba20d026188c7 -->
<g id="edge26" class="edge">
<title>dir_e4d5a5ad095028ae0129065cd60b3253&#45;&gt;dir_4ebd611d220344e85b5ba20d026188c7</title>
<path fill="none" stroke="black" d="M243.66,-412.1C239.13,-420.3 232.78,-430.28 226.38,-439.36"/>
<polygon fill="black" stroke="black" points="223.36,-437.56 220.29,-447.7 229.01,-441.69 223.36,-437.56"/>
<g id="a_edge26&#45;headlabel"><a xlink:href="dir_000007_000003.html" target="_top" xlink:title="16">
<text text-anchor="middle" x="223.19" y="-430.48" font-family="FreeSans" font-size="10.00">16</text>
</a>
</g>
</g>
<!-- dir_e4d5a5ad095028ae0129065cd60b3253&#45;&gt;dir_93b162d06b4c1cfd72a25a3b81dbdc2c -->
<g id="edge27" class="edge">
<title>dir_e4d5a5ad095028ae0129065cd60b3253&#45;&gt;dir_93b162d06b4c1cfd72a25a3b81dbdc2c</title>
<path fill="none" stroke="black" d="M255.85,-375.62C270.34,-349.81 300,-299.17 300,-251 300,-251 300,-251 300,-177 300,-136.82 292.05,-90.87 288.43,-62.39"/>
<polygon fill="black" stroke="black" points="291.9,-61.91 287.28,-52.38 284.95,-62.71 291.9,-61.91"/>
<g id="a_edge27&#45;headlabel"><a xlink:href="dir_000007_000019.html" target="_top" xlink:title="10">
<text text-anchor="middle" x="295.13" y="-62.66" font-family="FreeSans" font-size="10.00">10</text>
</a>
</g>
</g>
<!-- dir_e4d5a5ad095028ae0129065cd60b3253&#45;&gt;dir_aefcf59a6fdfc9bd7c340f12bedb31af -->
<g id="edge28" class="edge">
<title>dir_e4d5a5ad095028ae0129065cd60b3253&#45;&gt;dir_aefcf59a6fdfc9bd7c340f12bedb31af</title>
<path fill="none" stroke="black" d="M243.69,-375.87C240.11,-351.67 237.94,-307.21 238.7,-278.39"/>
<polygon fill="black" stroke="black" points="242.2,-278.33 239.14,-268.19 235.21,-278.03 242.2,-278.33"/>
<g id="a_edge28&#45;headlabel"><a xlink:href="dir_000007_000009.html" target="_top" xlink:title="42">
<text text-anchor="middle" x="244.89" y="-279.54" font-family="FreeSans" font-size="10.00">42</text>
</a>
</g>
</g>
<!-- dir_e4d5a5ad095028ae0129065cd60b3253&#45;&gt;dir_db3afc5e367a93f87ffcc764fb4101bb -->
<g id="edge29" class="edge">
<title>dir_e4d5a5ad095028ae0129065cd60b3253&#45;&gt;dir_db3afc5e367a93f87ffcc764fb4101bb</title>
<path fill="none" stroke="black" d="M221.83,-375.7C210.2,-366.97 196.85,-356.24 185.75,-346.75"/>
<polygon fill="black" stroke="black" points="187.96,-344.03 178.12,-340.1 183.36,-349.31 187.96,-344.03"/>
<g id="a_edge29&#45;headlabel"><a xlink:href="dir_000007_000024.html" target="_top" xlink:title="5">
<text text-anchor="middle" x="192.53" y="-341.75" font-family="FreeSans" font-size="10.00">5</text>
</a>
</g>
</g>
<!-- dir_57cc49b724a665bfc11a977041d40e26&#45;&gt;dir_35addd29aafebb04e6caa45e6f26d04b -->
<g id="edge30" class="edge">
<title>dir_57cc49b724a665bfc11a977041d40e26&#45;&gt;dir_35addd29aafebb04e6caa45e6f26d04b</title>
<path fill="none" stroke="black" d="M143.91,-196.23C118.58,-221.09 77,-269.7 77,-321 77,-395 77,-395 77,-395 77,-464.52 161.59,-506.37 212.13,-525.17"/>
<polygon fill="black" stroke="black" points="211.15,-528.54 221.75,-528.62 213.52,-521.95 211.15,-528.54"/>
<g id="a_edge30&#45;headlabel"><a xlink:href="dir_000025_000008.html" target="_top" xlink:title="4">
<text text-anchor="middle" x="206.81" y="-527.49" font-family="FreeSans" font-size="10.00">4</text>
</a>
</g>
</g>
<!-- dir_57cc49b724a665bfc11a977041d40e26&#45;&gt;dir_405ce7a1489983e8b36f67512c8c61c7 -->
<g id="edge31" class="edge">
<title>dir_57cc49b724a665bfc11a977041d40e26&#45;&gt;dir_405ce7a1489983e8b36f67512c8c61c7</title>
<path fill="none" stroke="black" d="M149.64,-159.84C142.62,-149.92 134.55,-136.88 130,-124 122.96,-104.09 120.29,-80.3 119.34,-62.33"/>
<polygon fill="black" stroke="black" points="122.83,-62.09 118.95,-52.23 115.84,-62.36 122.83,-62.09"/>
<g id="a_edge31&#45;headlabel"><a xlink:href="dir_000025_000004.html" target="_top" xlink:title="2">
<text text-anchor="middle" x="125.81" y="-63.07" font-family="FreeSans" font-size="10.00">2</text>
</a>
</g>
</g>
<!-- dir_57cc49b724a665bfc11a977041d40e26&#45;&gt;dir_4ebd611d220344e85b5ba20d026188c7 -->
<g id="edge32" class="edge">
<title>dir_57cc49b724a665bfc11a977041d40e26&#45;&gt;dir_4ebd611d220344e85b5ba20d026188c7</title>
<path fill="none" stroke="black" d="M153.65,-196.07C138.7,-225.63 112.47,-288.15 127,-340 137.66,-378.07 163.46,-416.05 182.04,-439.98"/>
<polygon fill="black" stroke="black" points="179.31,-442.18 188.27,-447.84 184.8,-437.83 179.31,-442.18"/>
<g id="a_edge32&#45;headlabel"><a xlink:href="dir_000025_000003.html" target="_top" xlink:title="3">
<text text-anchor="middle" x="174.85" y="-438.63" font-family="FreeSans" font-size="10.00">3</text>
</a>
</g>
</g>
<!-- dir_57cc49b724a665bfc11a977041d40e26&#45;&gt;dir_93b162d06b4c1cfd72a25a3b81dbdc2c -->
<g id="edge33" class="edge">
<title>dir_57cc49b724a665bfc11a977041d40e26&#45;&gt;dir_93b162d06b4c1cfd72a25a3b81dbdc2c</title>
<path fill="none" stroke="black" d="M172.83,-159.68C181.94,-149.49 194.94,-136.24 206,-124 225.04,-102.92 245.62,-77.99 261.74,-59.88"/>
<polygon fill="black" stroke="black" points="264.69,-61.84 268.81,-52.08 259.5,-57.14 264.69,-61.84"/>
<g id="a_edge33&#45;headlabel"><a xlink:href="dir_000025_000019.html" target="_top" xlink:title="2">
<text text-anchor="middle" x="264.38" y="-63.91" font-family="FreeSans" font-size="10.00">2</text>
</a>
</g>
</g>
<!-- dir_57cc49b724a665bfc11a977041d40e26&#45;&gt;dir_a73b144dc8caecb0be850bda3e53b7bb -->
<g id="edge34" class="edge">
<title>dir_57cc49b724a665bfc11a977041d40e26&#45;&gt;dir_a73b144dc8caecb0be850bda3e53b7bb</title>
<path fill="none" stroke="black" d="M165.22,-159.7C166.22,-151.98 167.41,-142.71 168.51,-134.11"/>
<polygon fill="black" stroke="black" points="172,-134.47 169.8,-124.1 165.05,-133.58 172,-134.47"/>
<g id="a_edge34&#45;headlabel"><a xlink:href="dir_000025_000020.html" target="_top" xlink:title="6">
<text text-anchor="middle" x="174.35" y="-135.9" font-family="FreeSans" font-size="10.00">6</text>
</a>
</g>
</g>
<!-- dir_57cc49b724a665bfc11a977041d40e26&#45;&gt;dir_aefcf59a6fdfc9bd7c340f12bedb31af -->
<g id="edge35" class="edge">
<title>dir_57cc49b724a665bfc11a977041d40e26&#45;&gt;dir_aefcf59a6fdfc9bd7c340f12bedb31af</title>
<path fill="none" stroke="black" d="M188.44,-196.1C199.19,-204.72 211.49,-215.32 221.75,-224.76"/>
<polygon fill="black" stroke="black" points="219.46,-227.4 229.14,-231.7 224.25,-222.3 219.46,-227.4"/>
<g id="a_edge35&#45;headlabel"><a xlink:href="dir_000025_000009.html" target="_top" xlink:title="9">
<text text-anchor="middle" x="214.89" y="-224.51" font-family="FreeSans" font-size="10.00">9</text>
</a>
</g>
</g>
<!-- dir_57cc49b724a665bfc11a977041d40e26&#45;&gt;dir_db3afc5e367a93f87ffcc764fb4101bb -->
<g id="edge36" class="edge">
<title>dir_57cc49b724a665bfc11a977041d40e26&#45;&gt;dir_db3afc5e367a93f87ffcc764fb4101bb</title>
<path fill="none" stroke="black" d="M163,-196.19C163,-220.42 163,-264.89 163,-293.68"/>
<polygon fill="black" stroke="black" points="159.5,-293.87 163,-303.87 166.5,-293.87 159.5,-293.87"/>
<g id="a_edge36&#45;headlabel"><a xlink:href="dir_000025_000024.html" target="_top" xlink:title="2">
<text text-anchor="middle" x="156.66" y="-287.78" font-family="FreeSans" font-size="10.00">2</text>
</a>
</g>
</g>
<!-- dir_57cc49b724a665bfc11a977041d40e26&#45;&gt;dir_e4d5a5ad095028ae0129065cd60b3253 -->
<g id="edge37" class="edge">
<title>dir_57cc49b724a665bfc11a977041d40e26&#45;&gt;dir_e4d5a5ad095028ae0129065cd60b3253</title>
<path fill="none" stroke="black" d="M169.93,-196.23C184.93,-233.56 220.51,-322.09 238.37,-366.56"/>
<polygon fill="black" stroke="black" points="235.13,-367.88 242.11,-375.85 241.63,-365.27 235.13,-367.88"/>
<g id="a_edge37&#45;headlabel"><a xlink:href="dir_000025_000007.html" target="_top" xlink:title="4">
<text text-anchor="middle" x="231.16" y="-363.1" font-family="FreeSans" font-size="10.00">4</text>
</a>
</g>
</g>
</g>
</svg>
