<?xml version="1.0" encoding="UTF-8" standalone="no"?>
<!DOCTYPE svg PUBLIC "-//W3C//DTD SVG 1.1//EN"
 "http://www.w3.org/Graphics/SVG/1.1/DTD/svg11.dtd">
<!-- Generated by graphviz version 2.43.0 (0)
 -->
<!-- Title: steadystate Pages: 1 -->
<!--zoomable 599 -->
<svg id="main" version="1.1" xmlns="http://www.w3.org/2000/svg" xmlns:xlink="http://www.w3.org/1999/xlink" xml:space="preserve" onload="init(evt)">
<style type="text/css"><![CDATA[
.edge:hover path { stroke: red; }
.edge:hover polygon { stroke: red; fill: red; }
]]></style>
<script type="text/javascript"><![CDATA[
var edges = document.getElementsByTagName('g');
if (edges && edges.length) {
  for (var i=0;i<edges.length;i++) {
    if (edges[i].id.substr(0,4)=='edge') {
      edges[i].setAttribute('class','edge');
    }
  }
}
]]></script>
        <defs>
                <circle id="rim" cx="0" cy="0" r="7"/>
                <circle id="rim2" cx="0" cy="0" r="3.5"/>
                <g id="zoomPlus">
                        <use xlink:href="#rim" fill="#404040">
                                <set attributeName="fill" to="#808080" begin="zoomplus.mouseover" end="zoomplus.mouseout"/>
                        </use>
                        <path d="M-4,0h8M0,-4v8" fill="none" stroke="white" stroke-width="1.5" pointer-events="none"/>
                </g>
                <g id="zoomMin">
                        <use xlink:href="#rim" fill="#404040">
                                <set attributeName="fill" to="#808080" begin="zoomminus.mouseover" end="zoomminus.mouseout"/>
                        </use>
                        <path d="M-4,0h8" fill="none" stroke="white" stroke-width="1.5" pointer-events="none"/>
                </g>
                <g id="dirArrow">
                        <path fill="none" stroke="white" stroke-width="1.5" d="M0,-3.0v7 M-2.5,-0.5L0,-3.0L2.5,-0.5"/>
                </g>
               <g id="resetDef">
                       <use xlink:href="#rim2" fill="#404040">
                               <set attributeName="fill" to="#808080" begin="reset.mouseover" end="reset.mouseout"/>
                       </use>
               </g>
        </defs>

<script type="text/javascript">
var viewWidth = 374;
var viewHeight = 599;
var sectionId = 'dynsection-0';
</script>
<script xlink:href="svgpan.js"/>
<svg id="graph" class="graph">
<g id="viewport">
<title>steadystate</title>
<polygon fill="white" stroke="transparent" points="-4,4 -4,-595 370,-595 370,4 -4,4"/>
<g id="clust1" class="cluster">
<title>clusterdir_db7313a27b1cae523c7773e30bdf986c</title>
<g id="a_clust1"><a xlink:href="dir_db7313a27b1cae523c7773e30bdf986c.html" target="_top" xlink:title="copasi">
<polygon fill="#ddddee" stroke="black" points="8,-8 8,-583 358,-583 358,-8 8,-8"/>
<text text-anchor="middle" x="183" y="-571" font-family="FreeSans" font-size="10.00">copasi</text>
</a>
</g>
</g>
<!-- dir_35addd29aafebb04e6caa45e6f26d04b -->
<g id="node1" class="node">
<title>dir_35addd29aafebb04e6caa45e6f26d04b</title>
<g id="a_node1"><a xlink:href="dir_35addd29aafebb04e6caa45e6f26d04b.html" target="_top" xlink:title="core">
<polygon fill="none" stroke="black" points="264,-556 210,-556 210,-520 264,-520 264,-556"/>
<text text-anchor="middle" x="237" y="-535.5" font-family="FreeSans" font-size="10.00">core</text>
</a>
</g>
</g>
<!-- dir_4ebd611d220344e85b5ba20d026188c7 -->
<g id="node3" class="node">
<title>dir_4ebd611d220344e85b5ba20d026188c7</title>
<g id="a_node3"><a xlink:href="dir_4ebd611d220344e85b5ba20d026188c7.html" target="_top" xlink:title="report">
<polygon fill="none" stroke="black" points="310,-484 256,-484 256,-448 310,-448 310,-484"/>
<text text-anchor="middle" x="283" y="-463.5" font-family="FreeSans" font-size="10.00">report</text>
</a>
</g>
</g>
<!-- dir_35addd29aafebb04e6caa45e6f26d04b&#45;&gt;dir_4ebd611d220344e85b5ba20d026188c7 -->
<g id="edge28" class="edge">
<title>dir_35addd29aafebb04e6caa45e6f26d04b&#45;&gt;dir_4ebd611d220344e85b5ba20d026188c7</title>
<path fill="none" stroke="black" d="M242.46,-519.7C247.01,-511.47 253.37,-501.48 259.77,-492.42"/>
<polygon fill="black" stroke="black" points="262.78,-494.24 265.86,-484.1 257.13,-490.1 262.78,-494.24"/>
<g id="a_edge28&#45;headlabel"><a xlink:href="dir_000008_000003.html" target="_top" xlink:title="3">
<text text-anchor="middle" x="262.95" y="-496.32" font-family="FreeSans" font-size="10.00">3</text>
</a>
</g>
</g>
<!-- dir_93b162d06b4c1cfd72a25a3b81dbdc2c -->
<g id="node4" class="node">
<title>dir_93b162d06b4c1cfd72a25a3b81dbdc2c</title>
<g id="a_node4"><a xlink:href="dir_93b162d06b4c1cfd72a25a3b81dbdc2c.html" target="_top" xlink:title="CopasiDataModel">
<polygon fill="none" stroke="black" points="249.5,-52 156.5,-52 156.5,-16 249.5,-16 249.5,-52"/>
<text text-anchor="middle" x="203" y="-31.5" font-family="FreeSans" font-size="10.00">CopasiDataModel</text>
</a>
</g>
</g>
<!-- dir_35addd29aafebb04e6caa45e6f26d04b&#45;&gt;dir_93b162d06b4c1cfd72a25a3b81dbdc2c -->
<g id="edge29" class="edge">
<title>dir_35addd29aafebb04e6caa45e6f26d04b&#45;&gt;dir_93b162d06b4c1cfd72a25a3b81dbdc2c</title>
<path fill="none" stroke="black" d="M264.2,-524.95C282.65,-516.46 305.9,-503.15 320,-484 344.04,-451.35 340,-435.54 340,-395 340,-395 340,-395 340,-177 340,-131.85 322.98,-119.88 291,-88 278.39,-75.43 262.19,-65.02 247.08,-56.84"/>
<polygon fill="black" stroke="black" points="248.34,-53.55 237.85,-52.04 245.11,-59.76 248.34,-53.55"/>
<g id="a_edge29&#45;headlabel"><a xlink:href="dir_000008_000019.html" target="_top" xlink:title="5">
<text text-anchor="middle" x="252.84" y="-50.19" font-family="FreeSans" font-size="10.00">5</text>
</a>
</g>
</g>
<!-- dir_aefcf59a6fdfc9bd7c340f12bedb31af -->
<g id="node5" class="node">
<title>dir_aefcf59a6fdfc9bd7c340f12bedb31af</title>
<g id="a_node5"><a xlink:href="dir_aefcf59a6fdfc9bd7c340f12bedb31af.html" target="_top" xlink:title="utilities">
<polygon fill="none" stroke="black" points="230,-196 176,-196 176,-160 230,-160 230,-196"/>
<text text-anchor="middle" x="203" y="-175.5" font-family="FreeSans" font-size="10.00">utilities</text>
</a>
</g>
</g>
<!-- dir_35addd29aafebb04e6caa45e6f26d04b&#45;&gt;dir_aefcf59a6fdfc9bd7c340f12bedb31af -->
<g id="edge30" class="edge">
<title>dir_35addd29aafebb04e6caa45e6f26d04b&#45;&gt;dir_aefcf59a6fdfc9bd7c340f12bedb31af</title>
<path fill="none" stroke="black" d="M232.25,-519.73C222.17,-462.19 204.32,-276.66 201.8,-206.35"/>
<polygon fill="black" stroke="black" points="205.29,-206 201.53,-196.09 198.29,-206.18 205.29,-206"/>
<g id="a_edge30&#45;headlabel"><a xlink:href="dir_000008_000009.html" target="_top" xlink:title="13">
<text text-anchor="middle" x="208.22" y="-207.02" font-family="FreeSans" font-size="10.00">13</text>
</a>
</g>
</g>
<!-- dir_e4d5a5ad095028ae0129065cd60b3253 -->
<g id="node8" class="node">
<title>dir_e4d5a5ad095028ae0129065cd60b3253</title>
<g id="a_node8"><a xlink:href="dir_e4d5a5ad095028ae0129065cd60b3253.html" target="_top" xlink:title="model">
<polygon fill="none" stroke="black" points="170,-340 116,-340 116,-304 170,-304 170,-340"/>
<text text-anchor="middle" x="143" y="-319.5" font-family="FreeSans" font-size="10.00">model</text>
</a>
</g>
</g>
<!-- dir_35addd29aafebb04e6caa45e6f26d04b&#45;&gt;dir_e4d5a5ad095028ae0129065cd60b3253 -->
<g id="edge31" class="edge">
<title>dir_35addd29aafebb04e6caa45e6f26d04b&#45;&gt;dir_e4d5a5ad095028ae0129065cd60b3253</title>
<path fill="none" stroke="black" d="M209.85,-523.62C177.25,-503.58 125.13,-462.64 105,-412 96.64,-390.98 105.95,-366.5 117.63,-348.54"/>
<polygon fill="black" stroke="black" points="120.55,-350.47 123.49,-340.29 114.84,-346.42 120.55,-350.47"/>
<g id="a_edge31&#45;headlabel"><a xlink:href="dir_000008_000007.html" target="_top" xlink:title="2">
<text text-anchor="middle" x="120.79" y="-352.55" font-family="FreeSans" font-size="10.00">2</text>
</a>
</g>
</g>
<!-- dir_405ce7a1489983e8b36f67512c8c61c7 -->
<g id="node2" class="node">
<title>dir_405ce7a1489983e8b36f67512c8c61c7</title>
<g id="a_node2"><a xlink:href="dir_405ce7a1489983e8b36f67512c8c61c7.html" target="_top" xlink:title="lapack">
<polygon fill="none" stroke="black" points="130,-124 76,-124 76,-88 130,-88 130,-124"/>
<text text-anchor="middle" x="103" y="-103.5" font-family="FreeSans" font-size="10.00">lapack</text>
</a>
</g>
</g>
<!-- dir_4ebd611d220344e85b5ba20d026188c7&#45;&gt;dir_35addd29aafebb04e6caa45e6f26d04b -->
<g id="edge16" class="edge">
<title>dir_4ebd611d220344e85b5ba20d026188c7&#45;&gt;dir_35addd29aafebb04e6caa45e6f26d04b</title>
<path fill="none" stroke="black" d="M277.66,-484.1C273.13,-492.3 266.78,-502.28 260.38,-511.36"/>
<polygon fill="black" stroke="black" points="257.36,-509.56 254.29,-519.7 263.01,-513.69 257.36,-509.56"/>
<g id="a_edge16&#45;headlabel"><a xlink:href="dir_000003_000008.html" target="_top" xlink:title="21">
<text text-anchor="middle" x="257.19" y="-502.48" font-family="FreeSans" font-size="10.00">21</text>
</a>
</g>
</g>
<!-- dir_4ebd611d220344e85b5ba20d026188c7&#45;&gt;dir_93b162d06b4c1cfd72a25a3b81dbdc2c -->
<g id="edge17" class="edge">
<title>dir_4ebd611d220344e85b5ba20d026188c7&#45;&gt;dir_93b162d06b4c1cfd72a25a3b81dbdc2c</title>
<path fill="none" stroke="black" d="M285.25,-447.66C298.37,-391.14 348.6,-208.98 278,-88 270.59,-75.3 258.79,-65.17 246.68,-57.32"/>
<polygon fill="black" stroke="black" points="248.24,-54.18 237.87,-52.01 244.62,-60.17 248.24,-54.18"/>
<g id="a_edge17&#45;headlabel"><a xlink:href="dir_000003_000019.html" target="_top" xlink:title="3">
<text text-anchor="middle" x="252.79" y="-51.1" font-family="FreeSans" font-size="10.00">3</text>
</a>
</g>
</g>
<!-- dir_4ebd611d220344e85b5ba20d026188c7&#45;&gt;dir_aefcf59a6fdfc9bd7c340f12bedb31af -->
<g id="edge19" class="edge">
<title>dir_4ebd611d220344e85b5ba20d026188c7&#45;&gt;dir_aefcf59a6fdfc9bd7c340f12bedb31af</title>
<path fill="none" stroke="black" d="M277.02,-447.95C269.11,-408.52 257.36,-308.52 225,-232 221.14,-222.87 215.99,-213.38 211.43,-204.99"/>
<polygon fill="black" stroke="black" points="214.46,-203.23 206.64,-196.07 208.29,-206.54 214.46,-203.23"/>
<g id="a_edge19&#45;headlabel"><a xlink:href="dir_000003_000009.html" target="_top" xlink:title="11">
<text text-anchor="middle" x="218.66" y="-202.55" font-family="FreeSans" font-size="10.00">11</text>
</a>
</g>
</g>
<!-- dir_b5f61c72b9c3dda97ea9ed0837ced632 -->
<g id="node6" class="node">
<title>dir_b5f61c72b9c3dda97ea9ed0837ced632</title>
<g id="a_node6"><a xlink:href="dir_b5f61c72b9c3dda97ea9ed0837ced632.html" target="_top" xlink:title="trajectory">
<polygon fill="none" stroke="black" points="278,-124 222,-124 222,-88 278,-88 278,-124"/>
<text text-anchor="middle" x="250" y="-103.5" font-family="FreeSans" font-size="10.00">trajectory</text>
</a>
</g>
</g>
<!-- dir_4ebd611d220344e85b5ba20d026188c7&#45;&gt;dir_b5f61c72b9c3dda97ea9ed0837ced632 -->
<g id="edge20" class="edge">
<title>dir_4ebd611d220344e85b5ba20d026188c7&#45;&gt;dir_b5f61c72b9c3dda97ea9ed0837ced632</title>
<path fill="none" stroke="black" d="M278.47,-447.96C276.93,-421.31 280,-368.15 280,-323 280,-323 280,-323 280,-249 280,-207.74 264.5,-162.07 255.3,-133.95"/>
<polygon fill="black" stroke="black" points="258.52,-132.52 252.13,-124.07 251.85,-134.66 258.52,-132.52"/>
<g id="a_edge20&#45;headlabel"><a xlink:href="dir_000003_000022.html" target="_top" xlink:title="1">
<text text-anchor="middle" x="262.32" y="-132.58" font-family="FreeSans" font-size="10.00">1</text>
</a>
</g>
</g>
<!-- dir_db3afc5e367a93f87ffcc764fb4101bb -->
<g id="node7" class="node">
<title>dir_db3afc5e367a93f87ffcc764fb4101bb</title>
<g id="a_node7"><a xlink:href="dir_db3afc5e367a93f87ffcc764fb4101bb.html" target="_top" xlink:title="math">
<polygon fill="none" stroke="black" points="150,-268 96,-268 96,-232 150,-232 150,-268"/>
<text text-anchor="middle" x="123" y="-247.5" font-family="FreeSans" font-size="10.00">math</text>
</a>
</g>
</g>
<!-- dir_4ebd611d220344e85b5ba20d026188c7&#45;&gt;dir_db3afc5e367a93f87ffcc764fb4101bb -->
<g id="edge21" class="edge">
<title>dir_4ebd611d220344e85b5ba20d026188c7&#45;&gt;dir_db3afc5e367a93f87ffcc764fb4101bb</title>
<path fill="none" stroke="black" d="M273.62,-447.63C256.72,-417.08 219.19,-352.38 179,-304 170.58,-293.86 160.35,-283.69 150.96,-275"/>
<polygon fill="black" stroke="black" points="153.08,-272.2 143.32,-268.08 148.38,-277.39 153.08,-272.2"/>
<g id="a_edge21&#45;headlabel"><a xlink:href="dir_000003_000024.html" target="_top" xlink:title="2">
<text text-anchor="middle" x="157.65" y="-270.01" font-family="FreeSans" font-size="10.00">2</text>
</a>
</g>
</g>
<!-- dir_4ebd611d220344e85b5ba20d026188c7&#45;&gt;dir_e4d5a5ad095028ae0129065cd60b3253 -->
<g id="edge22" class="edge">
<title>dir_4ebd611d220344e85b5ba20d026188c7&#45;&gt;dir_e4d5a5ad095028ae0129065cd60b3253</title>
<path fill="none" stroke="black" d="M255.88,-449.56C242.57,-439.5 227.12,-425.73 215,-412 202.11,-397.39 202.7,-390.77 190,-376 181.5,-366.11 171.35,-356.07 162.55,-347.42"/>
<polygon fill="black" stroke="black" points="164.81,-344.74 155.22,-340.23 159.9,-349.73 164.81,-344.74"/>
<g id="a_edge22&#45;headlabel"><a xlink:href="dir_000003_000007.html" target="_top" xlink:title="2">
<text text-anchor="middle" x="169.36" y="-342.73" font-family="FreeSans" font-size="10.00">2</text>
</a>
</g>
</g>
<!-- dir_a73b144dc8caecb0be850bda3e53b7bb -->
<g id="node9" class="node">
<title>dir_a73b144dc8caecb0be850bda3e53b7bb</title>
<g id="a_node9"><a xlink:href="dir_a73b144dc8caecb0be850bda3e53b7bb.html" target="_top" xlink:title="steadystate">
<polygon fill="#eeeeff" stroke="black" points="189.5,-412 122.5,-412 122.5,-376 189.5,-376 189.5,-412"/>
<text text-anchor="middle" x="156" y="-391.5" font-family="FreeSans" font-size="10.00">steadystate</text>
</a>
</g>
</g>
<!-- dir_4ebd611d220344e85b5ba20d026188c7&#45;&gt;dir_a73b144dc8caecb0be850bda3e53b7bb -->
<g id="edge18" class="edge">
<title>dir_4ebd611d220344e85b5ba20d026188c7&#45;&gt;dir_a73b144dc8caecb0be850bda3e53b7bb</title>
<path fill="none" stroke="black" d="M255.93,-452.97C236.6,-443.16 210.63,-429.05 189.95,-417.2"/>
<polygon fill="black" stroke="black" points="191.56,-414.09 181.15,-412.11 188.05,-420.15 191.56,-414.09"/>
<g id="a_edge18&#45;headlabel"><a xlink:href="dir_000003_000020.html" target="_top" xlink:title="1">
<text text-anchor="middle" x="196.09" y="-410.93" font-family="FreeSans" font-size="10.00">1</text>
</a>
</g>
</g>
<!-- dir_93b162d06b4c1cfd72a25a3b81dbdc2c&#45;&gt;dir_35addd29aafebb04e6caa45e6f26d04b -->
<g id="edge39" class="edge">
<title>dir_93b162d06b4c1cfd72a25a3b81dbdc2c&#45;&gt;dir_35addd29aafebb04e6caa45e6f26d04b</title>
<path fill="none" stroke="black" d="M249.8,-50C269.99,-58.87 292.55,-71.61 309,-88 340.98,-119.88 358,-131.85 358,-177 358,-395 358,-395 358,-395 358,-435.54 362.04,-451.35 338,-484 322.48,-505.08 295.88,-519.08 273.72,-527.37"/>
<polygon fill="black" stroke="black" points="272.52,-524.08 264.23,-530.68 274.82,-530.69 272.52,-524.08"/>
<g id="a_edge39&#45;headlabel"><a xlink:href="dir_000019_000008.html" target="_top" xlink:title="7">
<text text-anchor="middle" x="274.98" y="-517.72" font-family="FreeSans" font-size="10.00">7</text>
</a>
</g>
</g>
<!-- dir_93b162d06b4c1cfd72a25a3b81dbdc2c&#45;&gt;dir_4ebd611d220344e85b5ba20d026188c7 -->
<g id="edge40" class="edge">
<title>dir_93b162d06b4c1cfd72a25a3b81dbdc2c&#45;&gt;dir_4ebd611d220344e85b5ba20d026188c7</title>
<path fill="none" stroke="black" d="M249.55,-49.5C267.41,-58.01 285.83,-70.58 296,-88 363.02,-202.84 321.16,-372.8 296.52,-438.1"/>
<polygon fill="black" stroke="black" points="293.16,-437.07 292.73,-447.66 299.67,-439.65 293.16,-437.07"/>
<g id="a_edge40&#45;headlabel"><a xlink:href="dir_000019_000003.html" target="_top" xlink:title="2">
<text text-anchor="middle" x="291.85" y="-430.18" font-family="FreeSans" font-size="10.00">2</text>
</a>
</g>
</g>
<!-- dir_93b162d06b4c1cfd72a25a3b81dbdc2c&#45;&gt;dir_aefcf59a6fdfc9bd7c340f12bedb31af -->
<g id="edge42" class="edge">
<title>dir_93b162d06b4c1cfd72a25a3b81dbdc2c&#45;&gt;dir_aefcf59a6fdfc9bd7c340f12bedb31af</title>
<path fill="none" stroke="black" d="M207.59,-52.19C210.15,-76.42 210.43,-120.89 208.45,-149.68"/>
<polygon fill="black" stroke="black" points="204.95,-149.61 207.58,-159.87 211.92,-150.21 204.95,-149.61"/>
<g id="a_edge42&#45;headlabel"><a xlink:href="dir_000019_000009.html" target="_top" xlink:title="9">
<text text-anchor="middle" x="202.42" y="-143.29" font-family="FreeSans" font-size="10.00">9</text>
</a>
</g>
</g>
<!-- dir_93b162d06b4c1cfd72a25a3b81dbdc2c&#45;&gt;dir_b5f61c72b9c3dda97ea9ed0837ced632 -->
<g id="edge43" class="edge">
<title>dir_93b162d06b4c1cfd72a25a3b81dbdc2c&#45;&gt;dir_b5f61c72b9c3dda97ea9ed0837ced632</title>
<path fill="none" stroke="black" d="M220.38,-52.1C226.67,-60.21 233.51,-70.08 239.14,-79.08"/>
<polygon fill="black" stroke="black" points="236.16,-80.91 244.3,-87.7 242.17,-77.32 236.16,-80.91"/>
<g id="a_edge43&#45;headlabel"><a xlink:href="dir_000019_000022.html" target="_top" xlink:title="2">
<text text-anchor="middle" x="231.88" y="-76.79" font-family="FreeSans" font-size="10.00">2</text>
</a>
</g>
</g>
<!-- dir_93b162d06b4c1cfd72a25a3b81dbdc2c&#45;&gt;dir_e4d5a5ad095028ae0129065cd60b3253 -->
<g id="edge44" class="edge">
<title>dir_93b162d06b4c1cfd72a25a3b81dbdc2c&#45;&gt;dir_e4d5a5ad095028ae0129065cd60b3253</title>
<path fill="none" stroke="black" d="M156.27,-41.49C128.04,-48.08 94.23,-61.33 76,-88 30.82,-154.09 45.87,-197.07 83,-268 89.19,-279.83 99.33,-289.8 109.58,-297.8"/>
<polygon fill="black" stroke="black" points="107.62,-300.7 117.76,-303.78 111.76,-295.05 107.62,-300.7"/>
<g id="a_edge44&#45;headlabel"><a xlink:href="dir_000019_000007.html" target="_top" xlink:title="4">
<text text-anchor="middle" x="103.04" y="-298.37" font-family="FreeSans" font-size="10.00">4</text>
</a>
</g>
</g>
<!-- dir_93b162d06b4c1cfd72a25a3b81dbdc2c&#45;&gt;dir_a73b144dc8caecb0be850bda3e53b7bb -->
<g id="edge41" class="edge">
<title>dir_93b162d06b4c1cfd72a25a3b81dbdc2c&#45;&gt;dir_a73b144dc8caecb0be850bda3e53b7bb</title>
<path fill="none" stroke="black" d="M156.36,-40.14C123.06,-46.19 79.63,-59.36 52,-88 23.38,-117.65 26,-135.79 26,-177 26,-251 26,-251 26,-251 26,-305.61 79.15,-346.98 117.6,-370.61"/>
<polygon fill="black" stroke="black" points="116.14,-373.81 126.52,-375.94 119.73,-367.81 116.14,-373.81"/>
<g id="a_edge41&#45;headlabel"><a xlink:href="dir_000019_000020.html" target="_top" xlink:title="2">
<text text-anchor="middle" x="111.6" y="-371.91" font-family="FreeSans" font-size="10.00">2</text>
</a>
</g>
</g>
<!-- dir_aefcf59a6fdfc9bd7c340f12bedb31af&#45;&gt;dir_35addd29aafebb04e6caa45e6f26d04b -->
<g id="edge8" class="edge">
<title>dir_aefcf59a6fdfc9bd7c340f12bedb31af&#45;&gt;dir_35addd29aafebb04e6caa45e6f26d04b</title>
<path fill="none" stroke="black" d="M207.72,-196.09C217.78,-253.38 235.64,-438.9 238.19,-509.44"/>
<polygon fill="black" stroke="black" points="234.7,-509.83 238.47,-519.73 241.7,-509.64 234.7,-509.83"/>
<g id="a_edge8&#45;headlabel"><a xlink:href="dir_000009_000008.html" target="_top" xlink:title="46">
<text text-anchor="middle" x="231.77" y="-503.81" font-family="FreeSans" font-size="10.00">46</text>
</a>
</g>
</g>
<!-- dir_aefcf59a6fdfc9bd7c340f12bedb31af&#45;&gt;dir_405ce7a1489983e8b36f67512c8c61c7 -->
<g id="edge9" class="edge">
<title>dir_aefcf59a6fdfc9bd7c340f12bedb31af&#45;&gt;dir_405ce7a1489983e8b36f67512c8c61c7</title>
<path fill="none" stroke="black" d="M178.54,-159.88C165.7,-150.89 149.8,-139.76 135.91,-130.03"/>
<polygon fill="black" stroke="black" points="137.76,-127.06 127.56,-124.19 133.74,-132.79 137.76,-127.06"/>
<g id="a_edge9&#45;headlabel"><a xlink:href="dir_000009_000004.html" target="_top" xlink:title="9">
<text text-anchor="middle" x="142.33" y="-124.29" font-family="FreeSans" font-size="10.00">9</text>
</a>
</g>
</g>
<!-- dir_aefcf59a6fdfc9bd7c340f12bedb31af&#45;&gt;dir_4ebd611d220344e85b5ba20d026188c7 -->
<g id="edge10" class="edge">
<title>dir_aefcf59a6fdfc9bd7c340f12bedb31af&#45;&gt;dir_4ebd611d220344e85b5ba20d026188c7</title>
<path fill="none" stroke="black" d="M222.39,-196.07C229.94,-206.18 237.69,-219.43 243,-232 272.9,-302.69 285.2,-393.42 286.27,-437.93"/>
<polygon fill="black" stroke="black" points="282.77,-437.97 286.31,-447.95 289.77,-437.94 282.77,-437.97"/>
<g id="a_edge10&#45;headlabel"><a xlink:href="dir_000009_000003.html" target="_top" xlink:title="7">
<text text-anchor="middle" x="279.92" y="-431.88" font-family="FreeSans" font-size="10.00">7</text>
</a>
</g>
</g>
<!-- dir_aefcf59a6fdfc9bd7c340f12bedb31af&#45;&gt;dir_93b162d06b4c1cfd72a25a3b81dbdc2c -->
<g id="edge11" class="edge">
<title>dir_aefcf59a6fdfc9bd7c340f12bedb31af&#45;&gt;dir_93b162d06b4c1cfd72a25a3b81dbdc2c</title>
<path fill="none" stroke="black" d="M198.42,-159.87C195.86,-135.67 195.57,-91.21 197.54,-62.39"/>
<polygon fill="black" stroke="black" points="201.05,-62.45 198.41,-52.19 194.07,-61.86 201.05,-62.45"/>
<g id="a_edge11&#45;headlabel"><a xlink:href="dir_000009_000019.html" target="_top" xlink:title="4">
<text text-anchor="middle" x="203.57" y="-63.77" font-family="FreeSans" font-size="10.00">4</text>
</a>
</g>
</g>
<!-- dir_aefcf59a6fdfc9bd7c340f12bedb31af&#45;&gt;dir_b5f61c72b9c3dda97ea9ed0837ced632 -->
<g id="edge13" class="edge">
<title>dir_aefcf59a6fdfc9bd7c340f12bedb31af&#45;&gt;dir_b5f61c72b9c3dda97ea9ed0837ced632</title>
<path fill="none" stroke="black" d="M208.7,-159.7C213.42,-151.39 220.02,-141.28 226.61,-132.14"/>
<polygon fill="black" stroke="black" points="229.44,-134.21 232.62,-124.1 223.83,-130.02 229.44,-134.21"/>
<g id="a_edge13&#45;headlabel"><a xlink:href="dir_000009_000022.html" target="_top" xlink:title="13">
<text text-anchor="middle" x="229.56" y="-136.29" font-family="FreeSans" font-size="10.00">13</text>
</a>
</g>
</g>
<!-- dir_aefcf59a6fdfc9bd7c340f12bedb31af&#45;&gt;dir_db3afc5e367a93f87ffcc764fb4101bb -->
<g id="edge14" class="edge">
<title>dir_aefcf59a6fdfc9bd7c340f12bedb31af&#45;&gt;dir_db3afc5e367a93f87ffcc764fb4101bb</title>
<path fill="none" stroke="black" d="M189.35,-196.1C180.23,-204.89 168.01,-215.73 156.5,-225.31"/>
<polygon fill="black" stroke="black" points="154.22,-222.66 148.69,-231.7 158.65,-228.08 154.22,-222.66"/>
<g id="a_edge14&#45;headlabel"><a xlink:href="dir_000009_000024.html" target="_top" xlink:title="7">
<text text-anchor="middle" x="155.2" y="-215.68" font-family="FreeSans" font-size="10.00">7</text>
</a>
</g>
</g>
<!-- dir_aefcf59a6fdfc9bd7c340f12bedb31af&#45;&gt;dir_e4d5a5ad095028ae0129065cd60b3253 -->
<g id="edge15" class="edge">
<title>dir_aefcf59a6fdfc9bd7c340f12bedb31af&#45;&gt;dir_e4d5a5ad095028ae0129065cd60b3253</title>
<path fill="none" stroke="black" d="M200.33,-196.19C192.54,-220.74 173.65,-266.07 159.44,-294.81"/>
<polygon fill="black" stroke="black" points="156.24,-293.37 154.82,-303.87 162.48,-296.55 156.24,-293.37"/>
<g id="a_edge15&#45;headlabel"><a xlink:href="dir_000009_000007.html" target="_top" xlink:title="11">
<text text-anchor="middle" x="155.35" y="-286.38" font-family="FreeSans" font-size="10.00">11</text>
</a>
</g>
</g>
<!-- dir_aefcf59a6fdfc9bd7c340f12bedb31af&#45;&gt;dir_a73b144dc8caecb0be850bda3e53b7bb -->
<g id="edge12" class="edge">
<title>dir_aefcf59a6fdfc9bd7c340f12bedb31af&#45;&gt;dir_a73b144dc8caecb0be850bda3e53b7bb</title>
<path fill="none" stroke="black" d="M207.35,-196.23C208.71,-226.04 202.62,-288.92 188,-340 185.43,-348.97 181.7,-358.42 177.55,-366.81"/>
<polygon fill="black" stroke="black" points="174.39,-365.29 172.73,-375.76 180.55,-368.61 174.39,-365.29"/>
<g id="a_edge12&#45;headlabel"><a xlink:href="dir_000009_000020.html" target="_top" xlink:title="6">
<text text-anchor="middle" x="173.59" y="-358.28" font-family="FreeSans" font-size="10.00">6</text>
</a>
</g>
</g>
<!-- dir_b5f61c72b9c3dda97ea9ed0837ced632&#45;&gt;dir_35addd29aafebb04e6caa45e6f26d04b -->
<g id="edge1" class="edge">
<title>dir_b5f61c72b9c3dda97ea9ed0837ced632&#45;&gt;dir_35addd29aafebb04e6caa45e6f26d04b</title>
<path fill="none" stroke="black" d="M262.26,-124.37C268.76,-134.37 276.34,-147.4 281,-160 306.13,-228 353.66,-420.33 319,-484 309.22,-501.96 290.45,-514.77 273.33,-523.28"/>
<polygon fill="black" stroke="black" points="271.65,-520.2 264.05,-527.58 274.6,-526.55 271.65,-520.2"/>
<g id="a_edge1&#45;headlabel"><a xlink:href="dir_000022_000008.html" target="_top" xlink:title="34">
<text text-anchor="middle" x="273.72" y="-513.61" font-family="FreeSans" font-size="10.00">34</text>
</a>
</g>
</g>
<!-- dir_b5f61c72b9c3dda97ea9ed0837ced632&#45;&gt;dir_4ebd611d220344e85b5ba20d026188c7 -->
<g id="edge2" class="edge">
<title>dir_b5f61c72b9c3dda97ea9ed0837ced632&#45;&gt;dir_4ebd611d220344e85b5ba20d026188c7</title>
<path fill="none" stroke="black" d="M263.66,-124.07C278.29,-150.33 298,-202.47 298,-249 298,-323 298,-323 298,-323 298,-363.04 295.59,-409.37 291.53,-437.93"/>
<polygon fill="black" stroke="black" points="288.05,-437.53 289.9,-447.96 294.96,-438.65 288.05,-437.53"/>
<g id="a_edge2&#45;headlabel"><a xlink:href="dir_000022_000003.html" target="_top" xlink:title="3">
<text text-anchor="middle" x="285.83" y="-431.02" font-family="FreeSans" font-size="10.00">3</text>
</a>
</g>
</g>
<!-- dir_b5f61c72b9c3dda97ea9ed0837ced632&#45;&gt;dir_93b162d06b4c1cfd72a25a3b81dbdc2c -->
<g id="edge3" class="edge">
<title>dir_b5f61c72b9c3dda97ea9ed0837ced632&#45;&gt;dir_93b162d06b4c1cfd72a25a3b81dbdc2c</title>
<path fill="none" stroke="black" d="M232.47,-87.7C226.16,-79.56 219.33,-69.69 213.72,-60.7"/>
<polygon fill="black" stroke="black" points="216.72,-58.9 208.59,-52.1 210.71,-62.48 216.72,-58.9"/>
<g id="a_edge3&#45;headlabel"><a xlink:href="dir_000022_000019.html" target="_top" xlink:title="7">
<text text-anchor="middle" x="221" y="-58.03" font-family="FreeSans" font-size="10.00">7</text>
</a>
</g>
</g>
<!-- dir_b5f61c72b9c3dda97ea9ed0837ced632&#45;&gt;dir_aefcf59a6fdfc9bd7c340f12bedb31af -->
<g id="edge5" class="edge">
<title>dir_b5f61c72b9c3dda97ea9ed0837ced632&#45;&gt;dir_aefcf59a6fdfc9bd7c340f12bedb31af</title>
<path fill="none" stroke="black" d="M244.41,-124.1C239.72,-132.38 233.14,-142.49 226.54,-151.64"/>
<polygon fill="black" stroke="black" points="223.71,-149.59 220.53,-159.7 229.32,-153.77 223.71,-149.59"/>
<g id="a_edge5&#45;headlabel"><a xlink:href="dir_000022_000009.html" target="_top" xlink:title="29">
<text text-anchor="middle" x="223.58" y="-142.51" font-family="FreeSans" font-size="10.00">29</text>
</a>
</g>
</g>
<!-- dir_b5f61c72b9c3dda97ea9ed0837ced632&#45;&gt;dir_db3afc5e367a93f87ffcc764fb4101bb -->
<g id="edge6" class="edge">
<title>dir_b5f61c72b9c3dda97ea9ed0837ced632&#45;&gt;dir_db3afc5e367a93f87ffcc764fb4101bb</title>
<path fill="none" stroke="black" d="M221.83,-120.02C204.32,-129.22 182.29,-142.94 167,-160 150.71,-178.17 138.98,-203.46 131.75,-222.44"/>
<polygon fill="black" stroke="black" points="128.41,-221.39 128.29,-231.98 134.99,-223.77 128.41,-221.39"/>
<g id="a_edge6&#45;headlabel"><a xlink:href="dir_000022_000024.html" target="_top" xlink:title="22">
<text text-anchor="middle" x="126.97" y="-214.54" font-family="FreeSans" font-size="10.00">22</text>
</a>
</g>
</g>
<!-- dir_b5f61c72b9c3dda97ea9ed0837ced632&#45;&gt;dir_e4d5a5ad095028ae0129065cd60b3253 -->
<g id="edge7" class="edge">
<title>dir_b5f61c72b9c3dda97ea9ed0837ced632&#45;&gt;dir_e4d5a5ad095028ae0129065cd60b3253</title>
<path fill="none" stroke="black" d="M257.14,-124.07C259.47,-142.49 257.68,-172.37 248,-196 231.73,-235.7 199.38,-273.65 174.68,-297.11"/>
<polygon fill="black" stroke="black" points="172.28,-294.57 167.29,-303.91 177.02,-299.72 172.28,-294.57"/>
<g id="a_edge7&#45;headlabel"><a xlink:href="dir_000022_000007.html" target="_top" xlink:title="50">
<text text-anchor="middle" x="173.01" y="-287.54" font-family="FreeSans" font-size="10.00">50</text>
</a>
</g>
</g>
<!-- dir_b5f61c72b9c3dda97ea9ed0837ced632&#45;&gt;dir_a73b144dc8caecb0be850bda3e53b7bb -->
<g id="edge4" class="edge">
<title>dir_b5f61c72b9c3dda97ea9ed0837ced632&#45;&gt;dir_a73b144dc8caecb0be850bda3e53b7bb</title>
<path fill="none" stroke="black" d="M258.21,-124.28C261.61,-142.37 262.19,-171.51 257,-196 243.13,-261.53 204.28,-330.88 178.75,-367.26"/>
<polygon fill="black" stroke="black" points="175.61,-365.62 172.57,-375.77 181.27,-369.73 175.61,-365.62"/>
<g id="a_edge4&#45;headlabel"><a xlink:href="dir_000022_000020.html" target="_top" xlink:title="1">
<text text-anchor="middle" x="175.42" y="-358.55" font-family="FreeSans" font-size="10.00">1</text>
</a>
</g>
</g>
<!-- dir_db3afc5e367a93f87ffcc764fb4101bb&#45;&gt;dir_35addd29aafebb04e6caa45e6f26d04b -->
<g id="edge23" class="edge">
<title>dir_db3afc5e367a93f87ffcc764fb4101bb&#45;&gt;dir_35addd29aafebb04e6caa45e6f26d04b</title>
<path fill="none" stroke="black" d="M113.05,-268.02C107.73,-278.11 101.73,-291.36 99,-304 81.85,-383.42 77.38,-422.95 131,-484 149.21,-504.74 177.45,-518.3 200.2,-526.5"/>
<polygon fill="black" stroke="black" points="199.29,-529.89 209.88,-529.8 201.55,-523.27 199.29,-529.89"/>
<g id="a_edge23&#45;headlabel"><a xlink:href="dir_000024_000008.html" target="_top" xlink:title="24">
<text text-anchor="middle" x="194.97" y="-528.92" font-family="FreeSans" font-size="10.00">24</text>
</a>
</g>
</g>
<!-- dir_db3afc5e367a93f87ffcc764fb4101bb&#45;&gt;dir_405ce7a1489983e8b36f67512c8c61c7 -->
<g id="edge24" class="edge">
<title>dir_db3afc5e367a93f87ffcc764fb4101bb&#45;&gt;dir_405ce7a1489983e8b36f67512c8c61c7</title>
<path fill="none" stroke="black" d="M120.59,-231.87C117.18,-207.67 110.92,-163.21 106.86,-134.39"/>
<polygon fill="black" stroke="black" points="110.28,-133.6 105.42,-124.19 103.35,-134.58 110.28,-133.6"/>
<g id="a_edge24&#45;headlabel"><a xlink:href="dir_000024_000004.html" target="_top" xlink:title="1">
<text text-anchor="middle" x="113.59" y="-134.27" font-family="FreeSans" font-size="10.00">1</text>
</a>
</g>
</g>
<!-- dir_db3afc5e367a93f87ffcc764fb4101bb&#45;&gt;dir_93b162d06b4c1cfd72a25a3b81dbdc2c -->
<g id="edge25" class="edge">
<title>dir_db3afc5e367a93f87ffcc764fb4101bb&#45;&gt;dir_93b162d06b4c1cfd72a25a3b81dbdc2c</title>
<path fill="none" stroke="black" d="M125.38,-231.94C128.2,-213.77 133.6,-184.35 142,-160 154.29,-124.37 174.26,-85.73 187.99,-60.99"/>
<polygon fill="black" stroke="black" points="191.07,-62.65 192.91,-52.22 184.96,-59.23 191.07,-62.65"/>
<g id="a_edge25&#45;headlabel"><a xlink:href="dir_000024_000019.html" target="_top" xlink:title="1">
<text text-anchor="middle" x="191.78" y="-64.68" font-family="FreeSans" font-size="10.00">1</text>
</a>
</g>
</g>
<!-- dir_db3afc5e367a93f87ffcc764fb4101bb&#45;&gt;dir_aefcf59a6fdfc9bd7c340f12bedb31af -->
<g id="edge26" class="edge">
<title>dir_db3afc5e367a93f87ffcc764fb4101bb&#45;&gt;dir_aefcf59a6fdfc9bd7c340f12bedb31af</title>
<path fill="none" stroke="black" d="M136.86,-231.7C146.03,-222.88 158.26,-212.03 169.76,-202.47"/>
<polygon fill="black" stroke="black" points="172.03,-205.14 177.56,-196.1 167.6,-199.72 172.03,-205.14"/>
<g id="a_edge26&#45;headlabel"><a xlink:href="dir_000024_000009.html" target="_top" xlink:title="12">
<text text-anchor="middle" x="171.04" y="-207.11" font-family="FreeSans" font-size="10.00">12</text>
</a>
</g>
</g>
<!-- dir_db3afc5e367a93f87ffcc764fb4101bb&#45;&gt;dir_e4d5a5ad095028ae0129065cd60b3253 -->
<g id="edge27" class="edge">
<title>dir_db3afc5e367a93f87ffcc764fb4101bb&#45;&gt;dir_e4d5a5ad095028ae0129065cd60b3253</title>
<path fill="none" stroke="black" d="M133.78,-268.1C136.78,-275.79 139.67,-285.05 141.79,-293.67"/>
<polygon fill="black" stroke="black" points="138.43,-294.67 143.97,-303.7 145.27,-293.18 138.43,-294.67"/>
<g id="a_edge27&#45;headlabel"><a xlink:href="dir_000024_000007.html" target="_top" xlink:title="16">
<text text-anchor="middle" x="134.89" y="-289.26" font-family="FreeSans" font-size="10.00">16</text>
</a>
</g>
</g>
<!-- dir_e4d5a5ad095028ae0129065cd60b3253&#45;&gt;dir_35addd29aafebb04e6caa45e6f26d04b -->
<g id="edge32" class="edge">
<title>dir_e4d5a5ad095028ae0129065cd60b3253&#45;&gt;dir_35addd29aafebb04e6caa45e6f26d04b</title>
<path fill="none" stroke="black" d="M136.93,-340.29C127.47,-358.39 113.27,-387.54 123,-412 140.13,-455.07 180.39,-491.13 208.31,-513.27"/>
<polygon fill="black" stroke="black" points="206.51,-516.3 216.54,-519.69 210.81,-510.78 206.51,-516.3"/>
<g id="a_edge32&#45;headlabel"><a xlink:href="dir_000007_000008.html" target="_top" xlink:title="57">
<text text-anchor="middle" x="201.93" y="-513.83" font-family="FreeSans" font-size="10.00">57</text>
</a>
</g>
</g>
<!-- dir_e4d5a5ad095028ae0129065cd60b3253&#45;&gt;dir_405ce7a1489983e8b36f67512c8c61c7 -->
<g id="edge33" class="edge">
<title>dir_e4d5a5ad095028ae0129065cd60b3253&#45;&gt;dir_405ce7a1489983e8b36f67512c8c61c7</title>
<path fill="none" stroke="black" d="M116.88,-303.82C105.42,-294.69 93.19,-282.39 87,-268 68.06,-224 81.46,-167.17 92.51,-134.13"/>
<polygon fill="black" stroke="black" points="95.96,-134.89 95.97,-124.29 89.35,-132.56 95.96,-134.89"/>
<g id="a_edge33&#45;headlabel"><a xlink:href="dir_000007_000004.html" target="_top" xlink:title="2">
<text text-anchor="middle" x="97.44" y="-136.72" font-family="FreeSans" font-size="10.00">2</text>
</a>
</g>
</g>
<!-- dir_e4d5a5ad095028ae0129065cd60b3253&#45;&gt;dir_4ebd611d220344e85b5ba20d026188c7 -->
<g id="edge34" class="edge">
<title>dir_e4d5a5ad095028ae0129065cd60b3253&#45;&gt;dir_4ebd611d220344e85b5ba20d026188c7</title>
<path fill="none" stroke="black" d="M170.21,-339.52C182.61,-349.55 196.74,-362.9 208,-376 220.7,-390.77 220.11,-397.39 233,-412 241.97,-422.16 252.76,-432.35 262.14,-441.03"/>
<polygon fill="black" stroke="black" points="259.9,-443.72 269.62,-447.94 264.65,-438.58 259.9,-443.72"/>
<g id="a_edge34&#45;headlabel"><a xlink:href="dir_000007_000003.html" target="_top" xlink:title="16">
<text text-anchor="middle" x="255.33" y="-440.87" font-family="FreeSans" font-size="10.00">16</text>
</a>
</g>
</g>
<!-- dir_e4d5a5ad095028ae0129065cd60b3253&#45;&gt;dir_93b162d06b4c1cfd72a25a3b81dbdc2c -->
<g id="edge35" class="edge">
<title>dir_e4d5a5ad095028ae0129065cd60b3253&#45;&gt;dir_93b162d06b4c1cfd72a25a3b81dbdc2c</title>
<path fill="none" stroke="black" d="M115.88,-311.76C97.68,-303.02 75.58,-288.21 65,-268 27.87,-197.07 12.82,-154.09 58,-88 77.36,-59.68 114.26,-46.49 146.08,-40.35"/>
<polygon fill="black" stroke="black" points="146.95,-43.75 156.2,-38.59 145.75,-36.86 146.95,-43.75"/>
<g id="a_edge35&#45;headlabel"><a xlink:href="dir_000007_000019.html" target="_top" xlink:title="10">
<text text-anchor="middle" x="143.89" y="-44.67" font-family="FreeSans" font-size="10.00">10</text>
</a>
</g>
</g>
<!-- dir_e4d5a5ad095028ae0129065cd60b3253&#45;&gt;dir_aefcf59a6fdfc9bd7c340f12bedb31af -->
<g id="edge36" class="edge">
<title>dir_e4d5a5ad095028ae0129065cd60b3253&#45;&gt;dir_aefcf59a6fdfc9bd7c340f12bedb31af</title>
<path fill="none" stroke="black" d="M145.65,-303.87C153.42,-279.35 172.31,-234.03 186.53,-205.26"/>
<polygon fill="black" stroke="black" points="189.72,-206.69 191.15,-196.19 183.49,-203.51 189.72,-206.69"/>
<g id="a_edge36&#45;headlabel"><a xlink:href="dir_000007_000009.html" target="_top" xlink:title="42">
<text text-anchor="middle" x="190.62" y="-208.68" font-family="FreeSans" font-size="10.00">42</text>
</a>
</g>
</g>
<!-- dir_e4d5a5ad095028ae0129065cd60b3253&#45;&gt;dir_b5f61c72b9c3dda97ea9ed0837ced632 -->
<g id="edge37" class="edge">
<title>dir_e4d5a5ad095028ae0129065cd60b3253&#45;&gt;dir_b5f61c72b9c3dda97ea9ed0837ced632</title>
<path fill="none" stroke="black" d="M154.85,-303.91C174.52,-281.49 212.05,-239.8 230,-196 238.06,-176.34 240.65,-152.35 242.68,-134.24"/>
<polygon fill="black" stroke="black" points="246.18,-134.41 243.88,-124.07 239.23,-133.59 246.18,-134.41"/>
<g id="a_edge37&#45;headlabel"><a xlink:href="dir_000007_000022.html" target="_top" xlink:title="2">
<text text-anchor="middle" x="248.58" y="-135.81" font-family="FreeSans" font-size="10.00">2</text>
</a>
</g>
</g>
<!-- dir_e4d5a5ad095028ae0129065cd60b3253&#45;&gt;dir_db3afc5e367a93f87ffcc764fb4101bb -->
<g id="edge38" class="edge">
<title>dir_e4d5a5ad095028ae0129065cd60b3253&#45;&gt;dir_db3afc5e367a93f87ffcc764fb4101bb</title>
<path fill="none" stroke="black" d="M132.14,-303.7C129.14,-295.98 126.27,-286.71 124.15,-278.11"/>
<polygon fill="black" stroke="black" points="127.52,-277.14 121.99,-268.1 120.68,-278.62 127.52,-277.14"/>
<g id="a_edge38&#45;headlabel"><a xlink:href="dir_000007_000024.html" target="_top" xlink:title="5">
<text text-anchor="middle" x="131.06" y="-277.56" font-family="FreeSans" font-size="10.00">5</text>
</a>
</g>
</g>
<!-- dir_a73b144dc8caecb0be850bda3e53b7bb&#45;&gt;dir_35addd29aafebb04e6caa45e6f26d04b -->
<g id="edge45" class="edge">
<title>dir_a73b144dc8caecb0be850bda3e53b7bb&#45;&gt;dir_35addd29aafebb04e6caa45e6f26d04b</title>
<path fill="none" stroke="black" d="M165.81,-412.19C179.81,-436.74 205.66,-482.07 222.06,-510.81"/>
<polygon fill="black" stroke="black" points="219.23,-512.92 227.23,-519.87 225.31,-509.45 219.23,-512.92"/>
<g id="a_edge45&#45;headlabel"><a xlink:href="dir_000020_000008.html" target="_top" xlink:title="16">
<text text-anchor="middle" x="214.99" y="-508.7" font-family="FreeSans" font-size="10.00">16</text>
</a>
</g>
</g>
<!-- dir_a73b144dc8caecb0be850bda3e53b7bb&#45;&gt;dir_405ce7a1489983e8b36f67512c8c61c7 -->
<g id="edge46" class="edge">
<title>dir_a73b144dc8caecb0be850bda3e53b7bb&#45;&gt;dir_405ce7a1489983e8b36f67512c8c61c7</title>
<path fill="none" stroke="black" d="M132.9,-375.99C121.37,-366.49 108.01,-353.81 99,-340 80.49,-311.63 79.63,-301.4 74,-268 66.02,-220.67 62.11,-206.5 74,-160 76.38,-150.7 80.76,-141.27 85.42,-133"/>
<polygon fill="black" stroke="black" points="88.54,-134.59 90.69,-124.22 82.54,-130.99 88.54,-134.59"/>
<g id="a_edge46&#45;headlabel"><a xlink:href="dir_000020_000004.html" target="_top" xlink:title="3">
<text text-anchor="middle" x="89.13" y="-136.63" font-family="FreeSans" font-size="10.00">3</text>
</a>
</g>
</g>
<!-- dir_a73b144dc8caecb0be850bda3e53b7bb&#45;&gt;dir_4ebd611d220344e85b5ba20d026188c7 -->
<g id="edge47" class="edge">
<title>dir_a73b144dc8caecb0be850bda3e53b7bb&#45;&gt;dir_4ebd611d220344e85b5ba20d026188c7</title>
<path fill="none" stroke="black" d="M189.86,-410.51C208.16,-419.98 230.61,-432.24 248.94,-442.73"/>
<polygon fill="black" stroke="black" points="247.42,-445.9 257.83,-447.88 250.93,-439.84 247.42,-445.9"/>
<g id="a_edge47&#45;headlabel"><a xlink:href="dir_000020_000003.html" target="_top" xlink:title="5">
<text text-anchor="middle" x="242.89" y="-444.06" font-family="FreeSans" font-size="10.00">5</text>
</a>
</g>
</g>
<!-- dir_a73b144dc8caecb0be850bda3e53b7bb&#45;&gt;dir_93b162d06b4c1cfd72a25a3b81dbdc2c -->
<g id="edge48" class="edge">
<title>dir_a73b144dc8caecb0be850bda3e53b7bb&#45;&gt;dir_93b162d06b4c1cfd72a25a3b81dbdc2c</title>
<path fill="none" stroke="black" d="M122.47,-380.17C78.64,-359.32 8,-313.96 8,-251 8,-251 8,-251 8,-177 8,-135.79 5.38,-117.65 34,-88 62.97,-57.97 109.31,-44.95 146.24,-39.31"/>
<polygon fill="black" stroke="black" points="146.95,-42.74 156.38,-37.91 145.99,-35.81 146.95,-42.74"/>
<g id="a_edge48&#45;headlabel"><a xlink:href="dir_000020_000019.html" target="_top" xlink:title="4">
<text text-anchor="middle" x="143.78" y="-43.55" font-family="FreeSans" font-size="10.00">4</text>
</a>
</g>
</g>
<!-- dir_a73b144dc8caecb0be850bda3e53b7bb&#45;&gt;dir_aefcf59a6fdfc9bd7c340f12bedb31af -->
<g id="edge49" class="edge">
<title>dir_a73b144dc8caecb0be850bda3e53b7bb&#45;&gt;dir_aefcf59a6fdfc9bd7c340f12bedb31af</title>
<path fill="none" stroke="black" d="M156.98,-375.76C160.72,-365.59 166.47,-352.34 170,-340 183.13,-294.11 189.38,-238.69 194.7,-206.29"/>
<polygon fill="black" stroke="black" points="198.19,-206.69 196.48,-196.23 191.29,-205.47 198.19,-206.69"/>
<g id="a_edge49&#45;headlabel"><a xlink:href="dir_000020_000009.html" target="_top" xlink:title="24">
<text text-anchor="middle" x="200.36" y="-208.22" font-family="FreeSans" font-size="10.00">24</text>
</a>
</g>
</g>
<!-- dir_a73b144dc8caecb0be850bda3e53b7bb&#45;&gt;dir_b5f61c72b9c3dda97ea9ed0837ced632 -->
<g id="edge50" class="edge">
<title>dir_a73b144dc8caecb0be850bda3e53b7bb&#45;&gt;dir_b5f61c72b9c3dda97ea9ed0837ced632</title>
<path fill="none" stroke="black" d="M162.22,-375.77C179.51,-342.66 223.95,-267.09 239,-196 243.29,-175.72 243.64,-152.25 244.29,-134.51"/>
<polygon fill="black" stroke="black" points="247.79,-134.43 244.77,-124.28 240.8,-134.1 247.79,-134.43"/>
<g id="a_edge50&#45;headlabel"><a xlink:href="dir_000020_000022.html" target="_top" xlink:title="2">
<text text-anchor="middle" x="250.46" y="-135.66" font-family="FreeSans" font-size="10.00">2</text>
</a>
</g>
</g>
<!-- dir_a73b144dc8caecb0be850bda3e53b7bb&#45;&gt;dir_db3afc5e367a93f87ffcc764fb4101bb -->
<g id="edge51" class="edge">
<title>dir_a73b144dc8caecb0be850bda3e53b7bb&#45;&gt;dir_db3afc5e367a93f87ffcc764fb4101bb</title>
<path fill="none" stroke="black" d="M133.85,-375.87C123.59,-366.52 112.48,-354 107,-340 99.13,-319.89 104.33,-295.7 110.84,-277.62"/>
<polygon fill="black" stroke="black" points="114.11,-278.86 114.51,-268.27 107.59,-276.3 114.11,-278.86"/>
<g id="a_edge51&#45;headlabel"><a xlink:href="dir_000020_000024.html" target="_top" xlink:title="5">
<text text-anchor="middle" x="115.44" y="-280.74" font-family="FreeSans" font-size="10.00">5</text>
</a>
</g>
</g>
<!-- dir_a73b144dc8caecb0be850bda3e53b7bb&#45;&gt;dir_e4d5a5ad095028ae0129065cd60b3253 -->
<g id="edge52" class="edge">
<title>dir_a73b144dc8caecb0be850bda3e53b7bb&#45;&gt;dir_e4d5a5ad095028ae0129065cd60b3253</title>
<path fill="none" stroke="black" d="M152.79,-375.7C151.35,-367.98 149.63,-358.71 148.04,-350.11"/>
<polygon fill="black" stroke="black" points="151.44,-349.3 146.18,-340.1 144.56,-350.58 151.44,-349.3"/>
<g id="a_edge52&#45;headlabel"><a xlink:href="dir_000020_000007.html" target="_top" xlink:title="10">
<text text-anchor="middle" x="154.89" y="-349.81" font-family="FreeSans" font-size="10.00">10</text>
</a>
</g>
</g>
</g>
</svg>
        <g id="navigator" transform="translate(0 0)" fill="#404254">
                <rect fill="#f2f5e9" fill-opacity="0.5" stroke="#606060" stroke-width=".5" x="0" y="0" width="60" height="60"/>
                <use id="zoomplus" xlink:href="#zoomPlus" x="17" y="9" onmousedown="handleZoom(evt,'in')"/>
                <use id="zoomminus" xlink:href="#zoomMin" x="42" y="9" onmousedown="handleZoom(evt,'out')"/>
                <use id="reset" xlink:href="#resetDef" x="30" y="36" onmousedown="handleReset()"/>
                <g id="arrowUp" xlink:href="#dirArrow" transform="translate(30 24)" onmousedown="handlePan(0,-1)">
                  <use xlink:href="#rim" fill="#404040">
                        <set attributeName="fill" to="#808080" begin="arrowUp.mouseover" end="arrowUp.mouseout"/>
                  </use>
                  <path fill="none" stroke="white" stroke-width="1.5" d="M0,-3.0v7 M-2.5,-0.5L0,-3.0L2.5,-0.5"/>
                </g>
                <g id="arrowRight" xlink:href="#dirArrow" transform="rotate(90) translate(36 -43)" onmousedown="handlePan(1,0)">
                  <use xlink:href="#rim" fill="#404040">
                        <set attributeName="fill" to="#808080" begin="arrowRight.mouseover" end="arrowRight.mouseout"/>
                  </use>
                  <path fill="none" stroke="white" stroke-width="1.5" d="M0,-3.0v7 M-2.5,-0.5L0,-3.0L2.5,-0.5"/>
                </g>
                <g id="arrowDown" xlink:href="#dirArrow" transform="rotate(180) translate(-30 -48)" onmousedown="handlePan(0,1)">
                  <use xlink:href="#rim" fill="#404040">
                        <set attributeName="fill" to="#808080" begin="arrowDown.mouseover" end="arrowDown.mouseout"/>
                  </use>
                  <path fill="none" stroke="white" stroke-width="1.5" d="M0,-3.0v7 M-2.5,-0.5L0,-3.0L2.5,-0.5"/>
                </g>
                <g id="arrowLeft" xlink:href="#dirArrow" transform="rotate(270) translate(-36 17)" onmousedown="handlePan(-1,0)">
                  <use xlink:href="#rim" fill="#404040">
                        <set attributeName="fill" to="#808080" begin="arrowLeft.mouseover" end="arrowLeft.mouseout"/>
                  </use>
                  <path fill="none" stroke="white" stroke-width="1.5" d="M0,-3.0v7 M-2.5,-0.5L0,-3.0L2.5,-0.5"/>
                </g>
        </g>
        <svg viewBox="0 0 15 15" width="100%" height="30px" preserveAspectRatio="xMaxYMin meet">
         <g id="arrow_out" transform="scale(0.3 0.3)">
          <a xlink:href="dir_a73b144dc8caecb0be850bda3e53b7bb_dep_org.svg" target="_base">
           <rect id="button" ry="5" rx="5" y="6" x="6" height="38" width="38"
                fill="#f2f5e9" fill-opacity="0.5" stroke="#606060" stroke-width="1.0"/>
           <path id="arrow"
             d="M 11.500037,31.436501 C 11.940474,20.09759 22.043105,11.32322 32.158766,21.979434 L 37.068811,17.246167 C 37.068811,17.246167 37.088388,32 37.088388,32 L 22.160133,31.978069 C 22.160133,31.978069 26.997745,27.140456 26.997745,27.140456 C 18.528582,18.264221 13.291696,25.230495 11.500037,31.436501 z"
             style="fill:#404040;"/>
          </a>
         </g>
        </svg>
</svg>
