<?xml version="1.0" encoding="UTF-8" standalone="no"?>
<!DOCTYPE svg PUBLIC "-//W3C//DTD SVG 1.1//EN"
 "http://www.w3.org/Graphics/SVG/1.1/DTD/svg11.dtd">
<!-- Generated by graphviz version 2.43.0 (0)
 -->
<!-- Title: elementaryFluxModes Pages: 1 -->
<svg width="252pt" height="455pt"
 viewBox="0.00 0.00 252.00 455.00" xmlns="http://www.w3.org/2000/svg" xmlns:xlink="http://www.w3.org/1999/xlink">
<g id="graph0" class="graph" transform="scale(1 1) rotate(0) translate(4 451)">
<title>elementaryFluxModes</title>
<polygon fill="white" stroke="transparent" points="-4,4 -4,-451 248,-451 248,4 -4,4"/>
<g id="clust1" class="cluster">
<title>clusterdir_db7313a27b1cae523c7773e30bdf986c</title>
<g id="a_clust1"><a xlink:href="dir_db7313a27b1cae523c7773e30bdf986c.html" target="_top" xlink:title="copasi">
<polygon fill="#ddddee" stroke="black" points="8,-8 8,-439 236,-439 236,-8 8,-8"/>
<text text-anchor="middle" x="122" y="-427" font-family="FreeSans" font-size="10.00">copasi</text>
</a>
</g>
</g>
<!-- dir_35addd29aafebb04e6caa45e6f26d04b -->
<g id="node1" class="node">
<title>dir_35addd29aafebb04e6caa45e6f26d04b</title>
<g id="a_node1"><a xlink:href="dir_35addd29aafebb04e6caa45e6f26d04b.html" target="_top" xlink:title="core">
<polygon fill="none" stroke="black" points="116,-412 62,-412 62,-376 116,-376 116,-412"/>
<text text-anchor="middle" x="89" y="-391.5" font-family="FreeSans" font-size="10.00">core</text>
</a>
</g>
</g>
<!-- dir_aefcf59a6fdfc9bd7c340f12bedb31af -->
<g id="node3" class="node">
<title>dir_aefcf59a6fdfc9bd7c340f12bedb31af</title>
<g id="a_node3"><a xlink:href="dir_aefcf59a6fdfc9bd7c340f12bedb31af.html" target="_top" xlink:title="utilities">
<polygon fill="none" stroke="black" points="70,-340 16,-340 16,-304 70,-304 70,-340"/>
<text text-anchor="middle" x="43" y="-319.5" font-family="FreeSans" font-size="10.00">utilities</text>
</a>
</g>
</g>
<!-- dir_35addd29aafebb04e6caa45e6f26d04b&#45;&gt;dir_aefcf59a6fdfc9bd7c340f12bedb31af -->
<g id="edge10" class="edge">
<title>dir_35addd29aafebb04e6caa45e6f26d04b&#45;&gt;dir_aefcf59a6fdfc9bd7c340f12bedb31af</title>
<path fill="none" stroke="black" d="M71.71,-375.7C65.59,-367.64 58.97,-357.89 53.53,-348.98"/>
<polygon fill="black" stroke="black" points="56.41,-346.98 48.34,-340.1 50.36,-350.51 56.41,-346.98"/>
<g id="a_edge10&#45;headlabel"><a xlink:href="dir_000008_000009.html" target="_top" xlink:title="13">
<text text-anchor="middle" x="60.67" y="-346.15" font-family="FreeSans" font-size="10.00">13</text>
</a>
</g>
</g>
<!-- dir_e4d5a5ad095028ae0129065cd60b3253 -->
<g id="node5" class="node">
<title>dir_e4d5a5ad095028ae0129065cd60b3253</title>
<g id="a_node5"><a xlink:href="dir_e4d5a5ad095028ae0129065cd60b3253.html" target="_top" xlink:title="model">
<polygon fill="none" stroke="black" points="110,-196 56,-196 56,-160 110,-160 110,-196"/>
<text text-anchor="middle" x="83" y="-175.5" font-family="FreeSans" font-size="10.00">model</text>
</a>
</g>
</g>
<!-- dir_35addd29aafebb04e6caa45e6f26d04b&#45;&gt;dir_e4d5a5ad095028ae0129065cd60b3253 -->
<g id="edge11" class="edge">
<title>dir_35addd29aafebb04e6caa45e6f26d04b&#45;&gt;dir_e4d5a5ad095028ae0129065cd60b3253</title>
<path fill="none" stroke="black" d="M84.64,-375.85C80.07,-338.83 77.34,-251.18 79.08,-206.39"/>
<polygon fill="black" stroke="black" points="82.58,-206.4 79.6,-196.23 75.59,-206.04 82.58,-206.4"/>
<g id="a_edge11&#45;headlabel"><a xlink:href="dir_000008_000007.html" target="_top" xlink:title="2">
<text text-anchor="middle" x="85.23" y="-207.63" font-family="FreeSans" font-size="10.00">2</text>
</a>
</g>
</g>
<!-- dir_405ce7a1489983e8b36f67512c8c61c7 -->
<g id="node2" class="node">
<title>dir_405ce7a1489983e8b36f67512c8c61c7</title>
<g id="a_node2"><a xlink:href="dir_405ce7a1489983e8b36f67512c8c61c7.html" target="_top" xlink:title="lapack">
<polygon fill="none" stroke="black" points="90,-52 36,-52 36,-16 90,-16 90,-52"/>
<text text-anchor="middle" x="63" y="-31.5" font-family="FreeSans" font-size="10.00">lapack</text>
</a>
</g>
</g>
<!-- dir_aefcf59a6fdfc9bd7c340f12bedb31af&#45;&gt;dir_35addd29aafebb04e6caa45e6f26d04b -->
<g id="edge1" class="edge">
<title>dir_aefcf59a6fdfc9bd7c340f12bedb31af&#45;&gt;dir_35addd29aafebb04e6caa45e6f26d04b</title>
<path fill="none" stroke="black" d="M60.14,-340.1C66.25,-348.13 72.87,-357.87 78.34,-366.8"/>
<polygon fill="black" stroke="black" points="75.47,-368.83 83.54,-375.7 81.52,-365.3 75.47,-368.83"/>
<g id="a_edge1&#45;headlabel"><a xlink:href="dir_000009_000008.html" target="_top" xlink:title="46">
<text text-anchor="middle" x="71.21" y="-364.66" font-family="FreeSans" font-size="10.00">46</text>
</a>
</g>
</g>
<!-- dir_aefcf59a6fdfc9bd7c340f12bedb31af&#45;&gt;dir_405ce7a1489983e8b36f67512c8c61c7 -->
<g id="edge2" class="edge">
<title>dir_aefcf59a6fdfc9bd7c340f12bedb31af&#45;&gt;dir_405ce7a1489983e8b36f67512c8c61c7</title>
<path fill="none" stroke="black" d="M38.94,-303.93C36.69,-293.6 34.13,-280.12 33,-268 25.55,-188.29 21.56,-165.91 40,-88 42.13,-79.02 45.69,-69.65 49.39,-61.33"/>
<polygon fill="black" stroke="black" points="52.63,-62.67 53.72,-52.13 46.3,-59.69 52.63,-62.67"/>
<g id="a_edge2&#45;headlabel"><a xlink:href="dir_000009_000004.html" target="_top" xlink:title="9">
<text text-anchor="middle" x="53.67" y="-64.63" font-family="FreeSans" font-size="10.00">9</text>
</a>
</g>
</g>
<!-- dir_db3afc5e367a93f87ffcc764fb4101bb -->
<g id="node4" class="node">
<title>dir_db3afc5e367a93f87ffcc764fb4101bb</title>
<g id="a_node4"><a xlink:href="dir_db3afc5e367a93f87ffcc764fb4101bb.html" target="_top" xlink:title="math">
<polygon fill="none" stroke="black" points="110,-124 56,-124 56,-88 110,-88 110,-124"/>
<text text-anchor="middle" x="83" y="-103.5" font-family="FreeSans" font-size="10.00">math</text>
</a>
</g>
</g>
<!-- dir_aefcf59a6fdfc9bd7c340f12bedb31af&#45;&gt;dir_db3afc5e367a93f87ffcc764fb4101bb -->
<g id="edge4" class="edge">
<title>dir_aefcf59a6fdfc9bd7c340f12bedb31af&#45;&gt;dir_db3afc5e367a93f87ffcc764fb4101bb</title>
<path fill="none" stroke="black" d="M34.86,-303.55C27.3,-273.42 21.93,-210.05 38,-160 41.16,-150.15 46.78,-140.46 53.08,-132.12"/>
<polygon fill="black" stroke="black" points="55.89,-134.21 59.54,-124.27 50.49,-129.76 55.89,-134.21"/>
<g id="a_edge4&#45;headlabel"><a xlink:href="dir_000009_000024.html" target="_top" xlink:title="7">
<text text-anchor="middle" x="55.8" y="-136.29" font-family="FreeSans" font-size="10.00">7</text>
</a>
</g>
</g>
<!-- dir_aefcf59a6fdfc9bd7c340f12bedb31af&#45;&gt;dir_e4d5a5ad095028ae0129065cd60b3253 -->
<g id="edge5" class="edge">
<title>dir_aefcf59a6fdfc9bd7c340f12bedb31af&#45;&gt;dir_e4d5a5ad095028ae0129065cd60b3253</title>
<path fill="none" stroke="black" d="M43.24,-303.87C47.54,-279.46 59.95,-234.43 70.09,-205.64"/>
<polygon fill="black" stroke="black" points="73.4,-206.78 73.57,-196.19 66.83,-204.37 73.4,-206.78"/>
<g id="a_edge5&#45;headlabel"><a xlink:href="dir_000009_000007.html" target="_top" xlink:title="11">
<text text-anchor="middle" x="74.82" y="-208.64" font-family="FreeSans" font-size="10.00">11</text>
</a>
</g>
</g>
<!-- dir_8505ab435166fff47e44449e1246fb24 -->
<g id="node6" class="node">
<title>dir_8505ab435166fff47e44449e1246fb24</title>
<g id="a_node6"><a xlink:href="dir_8505ab435166fff47e44449e1246fb24.html" target="_top" xlink:title="elementaryFluxModes">
<polygon fill="#eeeeff" stroke="black" points="207.5,-268 96.5,-268 96.5,-232 207.5,-232 207.5,-268"/>
<text text-anchor="middle" x="152" y="-247.5" font-family="FreeSans" font-size="10.00">elementaryFluxModes</text>
</a>
</g>
</g>
<!-- dir_aefcf59a6fdfc9bd7c340f12bedb31af&#45;&gt;dir_8505ab435166fff47e44449e1246fb24 -->
<g id="edge3" class="edge">
<title>dir_aefcf59a6fdfc9bd7c340f12bedb31af&#45;&gt;dir_8505ab435166fff47e44449e1246fb24</title>
<path fill="none" stroke="black" d="M63.77,-303.88C77.06,-294.72 94.63,-283.34 110.64,-273.48"/>
<polygon fill="black" stroke="black" points="112.61,-276.38 119.33,-268.19 108.97,-270.4 112.61,-276.38"/>
<g id="a_edge3&#45;headlabel"><a xlink:href="dir_000009_000011.html" target="_top" xlink:title="5">
<text text-anchor="middle" x="111.02" y="-278.18" font-family="FreeSans" font-size="10.00">5</text>
</a>
</g>
</g>
<!-- dir_db3afc5e367a93f87ffcc764fb4101bb&#45;&gt;dir_35addd29aafebb04e6caa45e6f26d04b -->
<g id="edge6" class="edge">
<title>dir_db3afc5e367a93f87ffcc764fb4101bb&#45;&gt;dir_35addd29aafebb04e6caa45e6f26d04b</title>
<path fill="none" stroke="black" d="M110.05,-122.51C142.5,-142.87 195.25,-181.96 217,-232 242.22,-290.03 171.21,-344.86 125.1,-373.12"/>
<polygon fill="black" stroke="black" points="123.03,-370.27 116.24,-378.41 126.62,-376.28 123.03,-370.27"/>
<g id="a_edge6&#45;headlabel"><a xlink:href="dir_000024_000008.html" target="_top" xlink:title="24">
<text text-anchor="middle" x="124.66" y="-363.49" font-family="FreeSans" font-size="10.00">24</text>
</a>
</g>
</g>
<!-- dir_db3afc5e367a93f87ffcc764fb4101bb&#45;&gt;dir_405ce7a1489983e8b36f67512c8c61c7 -->
<g id="edge7" class="edge">
<title>dir_db3afc5e367a93f87ffcc764fb4101bb&#45;&gt;dir_405ce7a1489983e8b36f67512c8c61c7</title>
<path fill="none" stroke="black" d="M78.06,-87.7C75.83,-79.9 73.15,-70.51 70.67,-61.83"/>
<polygon fill="black" stroke="black" points="74,-60.76 67.89,-52.1 67.27,-62.68 74,-60.76"/>
<g id="a_edge7&#45;headlabel"><a xlink:href="dir_000024_000004.html" target="_top" xlink:title="1">
<text text-anchor="middle" x="77.72" y="-60.93" font-family="FreeSans" font-size="10.00">1</text>
</a>
</g>
</g>
<!-- dir_db3afc5e367a93f87ffcc764fb4101bb&#45;&gt;dir_aefcf59a6fdfc9bd7c340f12bedb31af -->
<g id="edge8" class="edge">
<title>dir_db3afc5e367a93f87ffcc764fb4101bb&#45;&gt;dir_aefcf59a6fdfc9bd7c340f12bedb31af</title>
<path fill="none" stroke="black" d="M75.5,-124.27C68.8,-134.02 60.22,-146.87 56,-160 41.56,-204.96 44.43,-260.68 45.47,-293.39"/>
<polygon fill="black" stroke="black" points="41.98,-293.64 45.73,-303.55 48.98,-293.46 41.98,-293.64"/>
<g id="a_edge8&#45;headlabel"><a xlink:href="dir_000024_000009.html" target="_top" xlink:title="12">
<text text-anchor="middle" x="39.05" y="-287.62" font-family="FreeSans" font-size="10.00">12</text>
</a>
</g>
</g>
<!-- dir_db3afc5e367a93f87ffcc764fb4101bb&#45;&gt;dir_e4d5a5ad095028ae0129065cd60b3253 -->
<g id="edge9" class="edge">
<title>dir_db3afc5e367a93f87ffcc764fb4101bb&#45;&gt;dir_e4d5a5ad095028ae0129065cd60b3253</title>
<path fill="none" stroke="black" d="M88.9,-124.1C89.7,-131.79 89.94,-141.05 89.6,-149.67"/>
<polygon fill="black" stroke="black" points="86.11,-149.48 88.92,-159.7 93.09,-149.96 86.11,-149.48"/>
<g id="a_edge9&#45;headlabel"><a xlink:href="dir_000024_000007.html" target="_top" xlink:title="16">
<text text-anchor="middle" x="83.52" y="-143.2" font-family="FreeSans" font-size="10.00">16</text>
</a>
</g>
</g>
<!-- dir_e4d5a5ad095028ae0129065cd60b3253&#45;&gt;dir_35addd29aafebb04e6caa45e6f26d04b -->
<g id="edge12" class="edge">
<title>dir_e4d5a5ad095028ae0129065cd60b3253&#45;&gt;dir_35addd29aafebb04e6caa45e6f26d04b</title>
<path fill="none" stroke="black" d="M87.37,-196.23C91.94,-233.32 94.66,-320.98 92.92,-365.71"/>
<polygon fill="black" stroke="black" points="89.42,-365.68 92.4,-375.85 96.41,-366.04 89.42,-365.68"/>
<g id="a_edge12&#45;headlabel"><a xlink:href="dir_000007_000008.html" target="_top" xlink:title="57">
<text text-anchor="middle" x="86.77" y="-359.45" font-family="FreeSans" font-size="10.00">57</text>
</a>
</g>
</g>
<!-- dir_e4d5a5ad095028ae0129065cd60b3253&#45;&gt;dir_405ce7a1489983e8b36f67512c8c61c7 -->
<g id="edge13" class="edge">
<title>dir_e4d5a5ad095028ae0129065cd60b3253&#45;&gt;dir_405ce7a1489983e8b36f67512c8c61c7</title>
<path fill="none" stroke="black" d="M67.39,-159.77C59.63,-150.03 51.05,-137.18 47,-124 40.68,-103.46 45.7,-79.44 51.73,-61.53"/>
<polygon fill="black" stroke="black" points="55.06,-62.61 55.22,-52.02 48.49,-60.2 55.06,-62.61"/>
<g id="a_edge13&#45;headlabel"><a xlink:href="dir_000007_000004.html" target="_top" xlink:title="2">
<text text-anchor="middle" x="56.49" y="-64.47" font-family="FreeSans" font-size="10.00">2</text>
</a>
</g>
</g>
<!-- dir_e4d5a5ad095028ae0129065cd60b3253&#45;&gt;dir_aefcf59a6fdfc9bd7c340f12bedb31af -->
<g id="edge14" class="edge">
<title>dir_e4d5a5ad095028ae0129065cd60b3253&#45;&gt;dir_aefcf59a6fdfc9bd7c340f12bedb31af</title>
<path fill="none" stroke="black" d="M82.75,-196.19C78.44,-220.64 66.02,-265.67 55.88,-294.44"/>
<polygon fill="black" stroke="black" points="52.58,-293.28 52.41,-303.87 59.15,-295.7 52.58,-293.28"/>
<g id="a_edge14&#45;headlabel"><a xlink:href="dir_000007_000009.html" target="_top" xlink:title="42">
<text text-anchor="middle" x="51.16" y="-286.42" font-family="FreeSans" font-size="10.00">42</text>
</a>
</g>
</g>
<!-- dir_e4d5a5ad095028ae0129065cd60b3253&#45;&gt;dir_db3afc5e367a93f87ffcc764fb4101bb -->
<g id="edge15" class="edge">
<title>dir_e4d5a5ad095028ae0129065cd60b3253&#45;&gt;dir_db3afc5e367a93f87ffcc764fb4101bb</title>
<path fill="none" stroke="black" d="M77.08,-159.7C76.29,-151.98 76.06,-142.71 76.4,-134.11"/>
<polygon fill="black" stroke="black" points="79.9,-134.32 77.1,-124.1 72.92,-133.84 79.9,-134.32"/>
<g id="a_edge15&#45;headlabel"><a xlink:href="dir_000007_000024.html" target="_top" xlink:title="5">
<text text-anchor="middle" x="82.48" y="-135.61" font-family="FreeSans" font-size="10.00">5</text>
</a>
</g>
</g>
<!-- dir_8505ab435166fff47e44449e1246fb24&#45;&gt;dir_35addd29aafebb04e6caa45e6f26d04b -->
<g id="edge16" class="edge">
<title>dir_8505ab435166fff47e44449e1246fb24&#45;&gt;dir_35addd29aafebb04e6caa45e6f26d04b</title>
<path fill="none" stroke="black" d="M144.37,-268.19C133.53,-292.64 113.55,-337.67 100.79,-366.44"/>
<polygon fill="black" stroke="black" points="97.46,-365.31 96.6,-375.87 103.85,-368.15 97.46,-365.31"/>
<g id="a_edge16&#45;headlabel"><a xlink:href="dir_000011_000008.html" target="_top" xlink:title="13">
<text text-anchor="middle" x="96.32" y="-358.37" font-family="FreeSans" font-size="10.00">13</text>
</a>
</g>
</g>
<!-- dir_8505ab435166fff47e44449e1246fb24&#45;&gt;dir_405ce7a1489983e8b36f67512c8c61c7 -->
<g id="edge17" class="edge">
<title>dir_8505ab435166fff47e44449e1246fb24&#45;&gt;dir_405ce7a1489983e8b36f67512c8c61c7</title>
<path fill="none" stroke="black" d="M151.8,-231.86C150.76,-201.11 145.35,-135.38 119,-88 112.9,-77.03 103.76,-66.99 94.62,-58.67"/>
<polygon fill="black" stroke="black" points="96.87,-55.98 87.01,-52.1 92.29,-61.28 96.87,-55.98"/>
<g id="a_edge17&#45;headlabel"><a xlink:href="dir_000011_000004.html" target="_top" xlink:title="6">
<text text-anchor="middle" x="101.44" y="-53.68" font-family="FreeSans" font-size="10.00">6</text>
</a>
</g>
</g>
<!-- dir_8505ab435166fff47e44449e1246fb24&#45;&gt;dir_aefcf59a6fdfc9bd7c340f12bedb31af -->
<g id="edge18" class="edge">
<title>dir_8505ab435166fff47e44449e1246fb24&#45;&gt;dir_aefcf59a6fdfc9bd7c340f12bedb31af</title>
<path fill="none" stroke="black" d="M131.38,-268.02C116.53,-278.25 96.28,-291.3 78.85,-301.89"/>
<polygon fill="black" stroke="black" points="76.82,-299.03 70.04,-307.17 80.42,-305.03 76.82,-299.03"/>
<g id="a_edge18&#45;headlabel"><a xlink:href="dir_000011_000009.html" target="_top" xlink:title="11">
<text text-anchor="middle" x="78.44" y="-292.24" font-family="FreeSans" font-size="10.00">11</text>
</a>
</g>
</g>
<!-- dir_8505ab435166fff47e44449e1246fb24&#45;&gt;dir_db3afc5e367a93f87ffcc764fb4101bb -->
<g id="edge19" class="edge">
<title>dir_8505ab435166fff47e44449e1246fb24&#45;&gt;dir_db3afc5e367a93f87ffcc764fb4101bb</title>
<path fill="none" stroke="black" d="M146.97,-231.75C141.32,-213.43 131.31,-183.88 119,-160 114.16,-150.61 107.95,-140.89 102.06,-132.38"/>
<polygon fill="black" stroke="black" points="104.76,-130.13 96.11,-124.01 99.05,-134.18 104.76,-130.13"/>
<g id="a_edge19&#45;headlabel"><a xlink:href="dir_000011_000024.html" target="_top" xlink:title="6">
<text text-anchor="middle" x="109.16" y="-128.91" font-family="FreeSans" font-size="10.00">6</text>
</a>
</g>
</g>
<!-- dir_8505ab435166fff47e44449e1246fb24&#45;&gt;dir_e4d5a5ad095028ae0129065cd60b3253 -->
<g id="edge20" class="edge">
<title>dir_8505ab435166fff47e44449e1246fb24&#45;&gt;dir_e4d5a5ad095028ae0129065cd60b3253</title>
<path fill="none" stroke="black" d="M134.94,-231.7C126.5,-223.14 116.18,-212.66 106.96,-203.3"/>
<polygon fill="black" stroke="black" points="109.37,-200.77 99.86,-196.1 104.39,-205.68 109.37,-200.77"/>
<g id="a_edge20&#45;headlabel"><a xlink:href="dir_000011_000007.html" target="_top" xlink:title="16">
<text text-anchor="middle" x="113.92" y="-198.84" font-family="FreeSans" font-size="10.00">16</text>
</a>
</g>
</g>
</g>
</svg>
