<?xml version="1.0" encoding="UTF-8" standalone="no"?>
<!DOCTYPE svg PUBLIC "-//W3C//DTD SVG 1.1//EN"
 "http://www.w3.org/Graphics/SVG/1.1/DTD/svg11.dtd">
<!-- Generated by graphviz version 2.43.0 (0)
 -->
<!-- Title: plot Pages: 1 -->
<svg width="234pt" height="527pt"
 viewBox="0.00 0.00 234.00 527.00" xmlns="http://www.w3.org/2000/svg" xmlns:xlink="http://www.w3.org/1999/xlink">
<g id="graph0" class="graph" transform="scale(1 1) rotate(0) translate(4 523)">
<title>plot</title>
<polygon fill="white" stroke="transparent" points="-4,4 -4,-523 230,-523 230,4 -4,4"/>
<g id="clust1" class="cluster">
<title>clusterdir_db7313a27b1cae523c7773e30bdf986c</title>
<g id="a_clust1"><a xlink:href="dir_db7313a27b1cae523c7773e30bdf986c.html" target="_top" xlink:title="copasi">
<polygon fill="#ddddee" stroke="black" points="8,-8 8,-511 218,-511 218,-8 8,-8"/>
<text text-anchor="middle" x="113" y="-499" font-family="FreeSans" font-size="10.00">copasi</text>
</a>
</g>
</g>
<!-- dir_11b154132bdfd0c90346ea3b63757907 -->
<g id="node1" class="node">
<title>dir_11b154132bdfd0c90346ea3b63757907</title>
<g id="a_node1"><a xlink:href="dir_11b154132bdfd0c90346ea3b63757907.html" target="_top" xlink:title="output">
<polygon fill="none" stroke="black" points="110,-484 56,-484 56,-448 110,-448 110,-484"/>
<text text-anchor="middle" x="83" y="-463.5" font-family="FreeSans" font-size="10.00">output</text>
</a>
</g>
</g>
<!-- dir_35addd29aafebb04e6caa45e6f26d04b -->
<g id="node2" class="node">
<title>dir_35addd29aafebb04e6caa45e6f26d04b</title>
<g id="a_node2"><a xlink:href="dir_35addd29aafebb04e6caa45e6f26d04b.html" target="_top" xlink:title="core">
<polygon fill="none" stroke="black" points="110,-412 56,-412 56,-376 110,-376 110,-412"/>
<text text-anchor="middle" x="83" y="-391.5" font-family="FreeSans" font-size="10.00">core</text>
</a>
</g>
</g>
<!-- dir_11b154132bdfd0c90346ea3b63757907&#45;&gt;dir_35addd29aafebb04e6caa45e6f26d04b -->
<g id="edge1" class="edge">
<title>dir_11b154132bdfd0c90346ea3b63757907&#45;&gt;dir_35addd29aafebb04e6caa45e6f26d04b</title>
<path fill="none" stroke="black" d="M83,-447.7C83,-439.98 83,-430.71 83,-422.11"/>
<polygon fill="black" stroke="black" points="86.5,-422.1 83,-412.1 79.5,-422.1 86.5,-422.1"/>
<g id="a_edge1&#45;headlabel"><a xlink:href="dir_000035_000008.html" target="_top" xlink:title="3">
<text text-anchor="middle" x="89.34" y="-423.2" font-family="FreeSans" font-size="10.00">3</text>
</a>
</g>
</g>
<!-- dir_aefcf59a6fdfc9bd7c340f12bedb31af -->
<g id="node5" class="node">
<title>dir_aefcf59a6fdfc9bd7c340f12bedb31af</title>
<g id="a_node5"><a xlink:href="dir_aefcf59a6fdfc9bd7c340f12bedb31af.html" target="_top" xlink:title="utilities">
<polygon fill="none" stroke="black" points="124,-124 70,-124 70,-88 124,-88 124,-124"/>
<text text-anchor="middle" x="97" y="-103.5" font-family="FreeSans" font-size="10.00">utilities</text>
</a>
</g>
</g>
<!-- dir_11b154132bdfd0c90346ea3b63757907&#45;&gt;dir_aefcf59a6fdfc9bd7c340f12bedb31af -->
<g id="edge2" class="edge">
<title>dir_11b154132bdfd0c90346ea3b63757907&#45;&gt;dir_aefcf59a6fdfc9bd7c340f12bedb31af</title>
<path fill="none" stroke="black" d="M60,-447.58C51.38,-437.78 42.78,-424.94 38,-412 24.19,-374.67 28,-362.8 28,-323 28,-323 28,-323 28,-249 28,-205.53 52.15,-160.06 72.11,-132.63"/>
<polygon fill="black" stroke="black" points="75.12,-134.45 78.4,-124.38 69.55,-130.2 75.12,-134.45"/>
<g id="a_edge2&#45;headlabel"><a xlink:href="dir_000035_000009.html" target="_top" xlink:title="1">
<text text-anchor="middle" x="75.19" y="-136.53" font-family="FreeSans" font-size="10.00">1</text>
</a>
</g>
</g>
<!-- dir_4ebd611d220344e85b5ba20d026188c7 -->
<g id="node3" class="node">
<title>dir_4ebd611d220344e85b5ba20d026188c7</title>
<g id="a_node3"><a xlink:href="dir_4ebd611d220344e85b5ba20d026188c7.html" target="_top" xlink:title="report">
<polygon fill="none" stroke="black" points="150,-340 96,-340 96,-304 150,-304 150,-340"/>
<text text-anchor="middle" x="123" y="-319.5" font-family="FreeSans" font-size="10.00">report</text>
</a>
</g>
</g>
<!-- dir_35addd29aafebb04e6caa45e6f26d04b&#45;&gt;dir_4ebd611d220344e85b5ba20d026188c7 -->
<g id="edge14" class="edge">
<title>dir_35addd29aafebb04e6caa45e6f26d04b&#45;&gt;dir_4ebd611d220344e85b5ba20d026188c7</title>
<path fill="none" stroke="black" d="M86.97,-375.7C90.78,-367.56 96.22,-357.69 101.78,-348.7"/>
<polygon fill="black" stroke="black" points="104.85,-350.4 107.33,-340.1 98.97,-346.61 104.85,-350.4"/>
<g id="a_edge14&#45;headlabel"><a xlink:href="dir_000008_000003.html" target="_top" xlink:title="3">
<text text-anchor="middle" x="105.28" y="-352.46" font-family="FreeSans" font-size="10.00">3</text>
</a>
</g>
</g>
<!-- dir_9d5eda6d4cabe7ed4bd8d4e297f3e4b6 -->
<g id="node4" class="node">
<title>dir_9d5eda6d4cabe7ed4bd8d4e297f3e4b6</title>
<g id="a_node4"><a xlink:href="dir_9d5eda6d4cabe7ed4bd8d4e297f3e4b6.html" target="_top" xlink:title="undo">
<polygon fill="none" stroke="black" points="124,-52 70,-52 70,-16 124,-16 124,-52"/>
<text text-anchor="middle" x="97" y="-31.5" font-family="FreeSans" font-size="10.00">undo</text>
</a>
</g>
</g>
<!-- dir_35addd29aafebb04e6caa45e6f26d04b&#45;&gt;dir_9d5eda6d4cabe7ed4bd8d4e297f3e4b6 -->
<g id="edge15" class="edge">
<title>dir_35addd29aafebb04e6caa45e6f26d04b&#45;&gt;dir_9d5eda6d4cabe7ed4bd8d4e297f3e4b6</title>
<path fill="none" stroke="black" d="M63.13,-375.82C40.63,-350.26 8,-299.93 8,-251 8,-251 8,-251 8,-177 8,-130.9 40.4,-85.97 66.28,-59.38"/>
<polygon fill="black" stroke="black" points="69.05,-61.57 73.72,-52.07 64.14,-56.59 69.05,-61.57"/>
<g id="a_edge15&#45;headlabel"><a xlink:href="dir_000008_000018.html" target="_top" xlink:title="5">
<text text-anchor="middle" x="68.48" y="-63.62" font-family="FreeSans" font-size="10.00">5</text>
</a>
</g>
</g>
<!-- dir_35addd29aafebb04e6caa45e6f26d04b&#45;&gt;dir_aefcf59a6fdfc9bd7c340f12bedb31af -->
<g id="edge16" class="edge">
<title>dir_35addd29aafebb04e6caa45e6f26d04b&#45;&gt;dir_aefcf59a6fdfc9bd7c340f12bedb31af</title>
<path fill="none" stroke="black" d="M73.15,-375.84C70.85,-365.48 69.56,-352 69,-340 65.48,-265.28 76.88,-177.38 86.89,-134.01"/>
<polygon fill="black" stroke="black" points="90.31,-134.77 89.34,-124.22 83.52,-133.08 90.31,-134.77"/>
<g id="a_edge16&#45;headlabel"><a xlink:href="dir_000008_000009.html" target="_top" xlink:title="13">
<text text-anchor="middle" x="92.2" y="-136.44" font-family="FreeSans" font-size="10.00">13</text>
</a>
</g>
</g>
<!-- dir_e4d5a5ad095028ae0129065cd60b3253 -->
<g id="node6" class="node">
<title>dir_e4d5a5ad095028ae0129065cd60b3253</title>
<g id="a_node6"><a xlink:href="dir_e4d5a5ad095028ae0129065cd60b3253.html" target="_top" xlink:title="model">
<polygon fill="none" stroke="black" points="170,-196 116,-196 116,-160 170,-160 170,-196"/>
<text text-anchor="middle" x="143" y="-175.5" font-family="FreeSans" font-size="10.00">model</text>
</a>
</g>
</g>
<!-- dir_35addd29aafebb04e6caa45e6f26d04b&#45;&gt;dir_e4d5a5ad095028ae0129065cd60b3253 -->
<g id="edge17" class="edge">
<title>dir_35addd29aafebb04e6caa45e6f26d04b&#45;&gt;dir_e4d5a5ad095028ae0129065cd60b3253</title>
<path fill="none" stroke="black" d="M75.16,-375.67C72.15,-357.54 72.21,-328.38 78,-304 86.61,-267.73 105.67,-229.01 121.22,-204.44"/>
<polygon fill="black" stroke="black" points="124.17,-206.33 126.77,-196.06 118.33,-202.47 124.17,-206.33"/>
<g id="a_edge17&#45;headlabel"><a xlink:href="dir_000008_000007.html" target="_top" xlink:title="2">
<text text-anchor="middle" x="124.55" y="-208.4" font-family="FreeSans" font-size="10.00">2</text>
</a>
</g>
</g>
<!-- dir_4ebd611d220344e85b5ba20d026188c7&#45;&gt;dir_11b154132bdfd0c90346ea3b63757907 -->
<g id="edge8" class="edge">
<title>dir_4ebd611d220344e85b5ba20d026188c7&#45;&gt;dir_11b154132bdfd0c90346ea3b63757907</title>
<path fill="none" stroke="black" d="M124.95,-340.23C126.4,-358.54 126.95,-388.07 119,-412 115.77,-421.71 110.21,-431.29 104.41,-439.58"/>
<polygon fill="black" stroke="black" points="101.54,-437.59 98.37,-447.7 107.15,-441.76 101.54,-437.59"/>
<g id="a_edge8&#45;headlabel"><a xlink:href="dir_000003_000035.html" target="_top" xlink:title="2">
<text text-anchor="middle" x="101.4" y="-430.51" font-family="FreeSans" font-size="10.00">2</text>
</a>
</g>
</g>
<!-- dir_4ebd611d220344e85b5ba20d026188c7&#45;&gt;dir_35addd29aafebb04e6caa45e6f26d04b -->
<g id="edge9" class="edge">
<title>dir_4ebd611d220344e85b5ba20d026188c7&#45;&gt;dir_35addd29aafebb04e6caa45e6f26d04b</title>
<path fill="none" stroke="black" d="M119.12,-340.1C115.34,-348.21 109.92,-358.08 104.36,-367.08"/>
<polygon fill="black" stroke="black" points="101.28,-365.39 98.8,-375.7 107.16,-369.19 101.28,-365.39"/>
<g id="a_edge9&#45;headlabel"><a xlink:href="dir_000003_000008.html" target="_top" xlink:title="21">
<text text-anchor="middle" x="100.84" y="-358.34" font-family="FreeSans" font-size="10.00">21</text>
</a>
</g>
</g>
<!-- dir_4ebd611d220344e85b5ba20d026188c7&#45;&gt;dir_9d5eda6d4cabe7ed4bd8d4e297f3e4b6 -->
<g id="edge10" class="edge">
<title>dir_4ebd611d220344e85b5ba20d026188c7&#45;&gt;dir_9d5eda6d4cabe7ed4bd8d4e297f3e4b6</title>
<path fill="none" stroke="black" d="M115.6,-303.77C101.57,-270.03 71.54,-192.58 61,-124 58.57,-108.19 56.3,-103.29 61,-88 64.01,-78.22 69.51,-68.62 75.32,-60.33"/>
<polygon fill="black" stroke="black" points="78.19,-62.33 81.39,-52.23 72.59,-58.13 78.19,-62.33"/>
<g id="a_edge10&#45;headlabel"><a xlink:href="dir_000003_000018.html" target="_top" xlink:title="1">
<text text-anchor="middle" x="78.31" y="-64.41" font-family="FreeSans" font-size="10.00">1</text>
</a>
</g>
</g>
<!-- dir_4ebd611d220344e85b5ba20d026188c7&#45;&gt;dir_aefcf59a6fdfc9bd7c340f12bedb31af -->
<g id="edge11" class="edge">
<title>dir_4ebd611d220344e85b5ba20d026188c7&#45;&gt;dir_aefcf59a6fdfc9bd7c340f12bedb31af</title>
<path fill="none" stroke="black" d="M114.66,-303.62C108.5,-279.49 102.62,-234.45 98,-196 95.51,-175.29 92.88,-151.84 92.24,-134.22"/>
<polygon fill="black" stroke="black" points="95.74,-134.03 92.12,-124.07 88.74,-134.11 95.74,-134.03"/>
<g id="a_edge11&#45;headlabel"><a xlink:href="dir_000003_000009.html" target="_top" xlink:title="11">
<text text-anchor="middle" x="98.62" y="-135.09" font-family="FreeSans" font-size="10.00">11</text>
</a>
</g>
</g>
<!-- dir_4ebd611d220344e85b5ba20d026188c7&#45;&gt;dir_e4d5a5ad095028ae0129065cd60b3253 -->
<g id="edge13" class="edge">
<title>dir_4ebd611d220344e85b5ba20d026188c7&#45;&gt;dir_e4d5a5ad095028ae0129065cd60b3253</title>
<path fill="none" stroke="black" d="M120.83,-303.87C121.68,-279.56 127.7,-234.82 133.76,-206.01"/>
<polygon fill="black" stroke="black" points="137.19,-206.72 135.99,-196.19 130.37,-205.17 137.19,-206.72"/>
<g id="a_edge13&#45;headlabel"><a xlink:href="dir_000003_000007.html" target="_top" xlink:title="2">
<text text-anchor="middle" x="139.17" y="-208.35" font-family="FreeSans" font-size="10.00">2</text>
</a>
</g>
</g>
<!-- dir_baac2dd6ce2461c8073860ad35e73f37 -->
<g id="node7" class="node">
<title>dir_baac2dd6ce2461c8073860ad35e73f37</title>
<g id="a_node7"><a xlink:href="dir_baac2dd6ce2461c8073860ad35e73f37.html" target="_top" xlink:title="plot">
<polygon fill="#eeeeff" stroke="black" points="210,-268 156,-268 156,-232 210,-232 210,-268"/>
<text text-anchor="middle" x="183" y="-247.5" font-family="FreeSans" font-size="10.00">plot</text>
</a>
</g>
</g>
<!-- dir_4ebd611d220344e85b5ba20d026188c7&#45;&gt;dir_baac2dd6ce2461c8073860ad35e73f37 -->
<g id="edge12" class="edge">
<title>dir_4ebd611d220344e85b5ba20d026188c7&#45;&gt;dir_baac2dd6ce2461c8073860ad35e73f37</title>
<path fill="none" stroke="black" d="M131.92,-303.7C138.31,-295.22 147,-284.86 155.45,-275.58"/>
<polygon fill="black" stroke="black" points="158.17,-277.8 162.44,-268.1 153.06,-273.02 158.17,-277.8"/>
<g id="a_edge12&#45;headlabel"><a xlink:href="dir_000003_000034.html" target="_top" xlink:title="2">
<text text-anchor="middle" x="157.79" y="-279.86" font-family="FreeSans" font-size="10.00">2</text>
</a>
</g>
</g>
<!-- dir_9d5eda6d4cabe7ed4bd8d4e297f3e4b6&#45;&gt;dir_35addd29aafebb04e6caa45e6f26d04b -->
<g id="edge22" class="edge">
<title>dir_9d5eda6d4cabe7ed4bd8d4e297f3e4b6&#45;&gt;dir_35addd29aafebb04e6caa45e6f26d04b</title>
<path fill="none" stroke="black" d="M85.56,-52.07C65.11,-77.11 26,-126.35 26,-177 26,-251 26,-251 26,-251 26,-294.96 52.34,-340.05 69.47,-367.3"/>
<polygon fill="black" stroke="black" points="66.56,-369.25 74.87,-375.82 72.48,-365.5 66.56,-369.25"/>
<g id="a_edge22&#45;headlabel"><a xlink:href="dir_000018_000008.html" target="_top" xlink:title="7">
<text text-anchor="middle" x="62.24" y="-365.23" font-family="FreeSans" font-size="10.00">7</text>
</a>
</g>
</g>
<!-- dir_9d5eda6d4cabe7ed4bd8d4e297f3e4b6&#45;&gt;dir_aefcf59a6fdfc9bd7c340f12bedb31af -->
<g id="edge23" class="edge">
<title>dir_9d5eda6d4cabe7ed4bd8d4e297f3e4b6&#45;&gt;dir_aefcf59a6fdfc9bd7c340f12bedb31af</title>
<path fill="none" stroke="black" d="M102.9,-52.1C103.7,-59.79 103.94,-69.05 103.6,-77.67"/>
<polygon fill="black" stroke="black" points="100.11,-77.48 102.92,-87.7 107.09,-77.96 100.11,-77.48"/>
<g id="a_edge23&#45;headlabel"><a xlink:href="dir_000018_000009.html" target="_top" xlink:title="4">
<text text-anchor="middle" x="97.52" y="-71.2" font-family="FreeSans" font-size="10.00">4</text>
</a>
</g>
</g>
<!-- dir_9d5eda6d4cabe7ed4bd8d4e297f3e4b6&#45;&gt;dir_e4d5a5ad095028ae0129065cd60b3253 -->
<g id="edge24" class="edge">
<title>dir_9d5eda6d4cabe7ed4bd8d4e297f3e4b6&#45;&gt;dir_e4d5a5ad095028ae0129065cd60b3253</title>
<path fill="none" stroke="black" d="M120,-52.42C128.62,-62.22 137.22,-75.06 142,-88 149.32,-107.78 151.69,-131.58 150.96,-149.59"/>
<polygon fill="black" stroke="black" points="147.46,-149.46 150.16,-159.71 154.44,-150.02 147.46,-149.46"/>
<g id="a_edge24&#45;headlabel"><a xlink:href="dir_000018_000007.html" target="_top" xlink:title="3">
<text text-anchor="middle" x="144.91" y="-143.15" font-family="FreeSans" font-size="10.00">3</text>
</a>
</g>
</g>
<!-- dir_aefcf59a6fdfc9bd7c340f12bedb31af&#45;&gt;dir_11b154132bdfd0c90346ea3b63757907 -->
<g id="edge3" class="edge">
<title>dir_aefcf59a6fdfc9bd7c340f12bedb31af&#45;&gt;dir_11b154132bdfd0c90346ea3b63757907</title>
<path fill="none" stroke="black" d="M90.15,-124.38C75.66,-150.19 46,-200.83 46,-249 46,-323 46,-323 46,-323 46,-362.8 42.19,-374.67 56,-412 59.51,-421.5 65.08,-430.95 70.4,-439.18"/>
<polygon fill="black" stroke="black" points="67.51,-441.17 75.95,-447.58 73.35,-437.3 67.51,-441.17"/>
<g id="a_edge3&#45;headlabel"><a xlink:href="dir_000009_000035.html" target="_top" xlink:title="2">
<text text-anchor="middle" x="63.16" y="-437.23" font-family="FreeSans" font-size="10.00">2</text>
</a>
</g>
</g>
<!-- dir_aefcf59a6fdfc9bd7c340f12bedb31af&#45;&gt;dir_35addd29aafebb04e6caa45e6f26d04b -->
<g id="edge4" class="edge">
<title>dir_aefcf59a6fdfc9bd7c340f12bedb31af&#45;&gt;dir_35addd29aafebb04e6caa45e6f26d04b</title>
<path fill="none" stroke="black" d="M98.82,-124.22C96.86,-162.8 83.19,-259.12 87,-340 87.39,-348.34 88.13,-357.4 88.53,-365.63"/>
<polygon fill="black" stroke="black" points="85.03,-365.94 88.79,-375.84 92.03,-365.76 85.03,-365.94"/>
<g id="a_edge4&#45;headlabel"><a xlink:href="dir_000009_000008.html" target="_top" xlink:title="46">
<text text-anchor="middle" x="82.1" y="-359.92" font-family="FreeSans" font-size="10.00">46</text>
</a>
</g>
</g>
<!-- dir_aefcf59a6fdfc9bd7c340f12bedb31af&#45;&gt;dir_4ebd611d220344e85b5ba20d026188c7 -->
<g id="edge5" class="edge">
<title>dir_aefcf59a6fdfc9bd7c340f12bedb31af&#45;&gt;dir_4ebd611d220344e85b5ba20d026188c7</title>
<path fill="none" stroke="black" d="M105.56,-124.07C109.79,-141.99 112.99,-170.99 116,-196 120.02,-229.49 125.01,-267.98 126.36,-293.3"/>
<polygon fill="black" stroke="black" points="122.88,-293.74 126.71,-303.62 129.87,-293.51 122.88,-293.74"/>
<g id="a_edge5&#45;headlabel"><a xlink:href="dir_000009_000003.html" target="_top" xlink:title="7">
<text text-anchor="middle" x="119.92" y="-287.75" font-family="FreeSans" font-size="10.00">7</text>
</a>
</g>
</g>
<!-- dir_aefcf59a6fdfc9bd7c340f12bedb31af&#45;&gt;dir_9d5eda6d4cabe7ed4bd8d4e297f3e4b6 -->
<g id="edge6" class="edge">
<title>dir_aefcf59a6fdfc9bd7c340f12bedb31af&#45;&gt;dir_9d5eda6d4cabe7ed4bd8d4e297f3e4b6</title>
<path fill="none" stroke="black" d="M91.08,-87.7C90.29,-79.98 90.06,-70.71 90.4,-62.11"/>
<polygon fill="black" stroke="black" points="93.9,-62.32 91.1,-52.1 86.92,-61.84 93.9,-62.32"/>
<g id="a_edge6&#45;headlabel"><a xlink:href="dir_000009_000018.html" target="_top" xlink:title="5">
<text text-anchor="middle" x="96.48" y="-63.61" font-family="FreeSans" font-size="10.00">5</text>
</a>
</g>
</g>
<!-- dir_aefcf59a6fdfc9bd7c340f12bedb31af&#45;&gt;dir_e4d5a5ad095028ae0129065cd60b3253 -->
<g id="edge7" class="edge">
<title>dir_aefcf59a6fdfc9bd7c340f12bedb31af&#45;&gt;dir_e4d5a5ad095028ae0129065cd60b3253</title>
<path fill="none" stroke="black" d="M114.14,-124.1C120.25,-132.13 126.87,-141.87 132.34,-150.8"/>
<polygon fill="black" stroke="black" points="129.47,-152.83 137.54,-159.7 135.52,-149.3 129.47,-152.83"/>
<g id="a_edge7&#45;headlabel"><a xlink:href="dir_000009_000007.html" target="_top" xlink:title="11">
<text text-anchor="middle" x="125.21" y="-148.66" font-family="FreeSans" font-size="10.00">11</text>
</a>
</g>
</g>
<!-- dir_e4d5a5ad095028ae0129065cd60b3253&#45;&gt;dir_35addd29aafebb04e6caa45e6f26d04b -->
<g id="edge18" class="edge">
<title>dir_e4d5a5ad095028ae0129065cd60b3253&#45;&gt;dir_35addd29aafebb04e6caa45e6f26d04b</title>
<path fill="none" stroke="black" d="M138.92,-196.06C128.51,-219.47 105.67,-263.28 96,-304 91.19,-324.28 90.33,-347.88 89.29,-365.68"/>
<polygon fill="black" stroke="black" points="85.8,-365.46 88.6,-375.67 92.78,-365.94 85.8,-365.46"/>
<g id="a_edge18&#45;headlabel"><a xlink:href="dir_000007_000008.html" target="_top" xlink:title="57">
<text text-anchor="middle" x="83.21" y="-359.18" font-family="FreeSans" font-size="10.00">57</text>
</a>
</g>
</g>
<!-- dir_e4d5a5ad095028ae0129065cd60b3253&#45;&gt;dir_4ebd611d220344e85b5ba20d026188c7 -->
<g id="edge19" class="edge">
<title>dir_e4d5a5ad095028ae0129065cd60b3253&#45;&gt;dir_4ebd611d220344e85b5ba20d026188c7</title>
<path fill="none" stroke="black" d="M145.17,-196.19C144.31,-220.53 138.28,-265.28 132.22,-294.06"/>
<polygon fill="black" stroke="black" points="128.8,-293.35 130,-303.87 135.62,-294.89 128.8,-293.35"/>
<g id="a_edge19&#45;headlabel"><a xlink:href="dir_000007_000003.html" target="_top" xlink:title="16">
<text text-anchor="middle" x="126.82" y="-286.71" font-family="FreeSans" font-size="10.00">16</text>
</a>
</g>
</g>
<!-- dir_e4d5a5ad095028ae0129065cd60b3253&#45;&gt;dir_9d5eda6d4cabe7ed4bd8d4e297f3e4b6 -->
<g id="edge20" class="edge">
<title>dir_e4d5a5ad095028ae0129065cd60b3253&#45;&gt;dir_9d5eda6d4cabe7ed4bd8d4e297f3e4b6</title>
<path fill="none" stroke="black" d="M136.8,-159.71C134.44,-141.35 132.79,-111.77 124,-88 120.49,-78.5 114.92,-69.05 109.6,-60.82"/>
<polygon fill="black" stroke="black" points="112.49,-58.83 104.05,-52.42 106.65,-62.7 112.49,-58.83"/>
<g id="a_edge20&#45;headlabel"><a xlink:href="dir_000007_000018.html" target="_top" xlink:title="7">
<text text-anchor="middle" x="116.84" y="-57.77" font-family="FreeSans" font-size="10.00">7</text>
</a>
</g>
</g>
<!-- dir_e4d5a5ad095028ae0129065cd60b3253&#45;&gt;dir_aefcf59a6fdfc9bd7c340f12bedb31af -->
<g id="edge21" class="edge">
<title>dir_e4d5a5ad095028ae0129065cd60b3253&#45;&gt;dir_aefcf59a6fdfc9bd7c340f12bedb31af</title>
<path fill="none" stroke="black" d="M125.71,-159.7C119.59,-151.64 112.97,-141.89 107.53,-132.98"/>
<polygon fill="black" stroke="black" points="110.41,-130.98 102.34,-124.1 104.36,-134.51 110.41,-130.98"/>
<g id="a_edge21&#45;headlabel"><a xlink:href="dir_000007_000009.html" target="_top" xlink:title="42">
<text text-anchor="middle" x="114.67" y="-130.15" font-family="FreeSans" font-size="10.00">42</text>
</a>
</g>
</g>
<!-- dir_baac2dd6ce2461c8073860ad35e73f37&#45;&gt;dir_11b154132bdfd0c90346ea3b63757907 -->
<g id="edge25" class="edge">
<title>dir_baac2dd6ce2461c8073860ad35e73f37&#45;&gt;dir_11b154132bdfd0c90346ea3b63757907</title>
<path fill="none" stroke="black" d="M182.77,-268.22C182.05,-286.52 179.51,-316.05 171,-340 157.19,-378.87 127.71,-416.62 106.68,-440.28"/>
<polygon fill="black" stroke="black" points="104.03,-437.99 99.91,-447.75 109.22,-442.69 104.03,-437.99"/>
<g id="a_edge25&#45;headlabel"><a xlink:href="dir_000034_000035.html" target="_top" xlink:title="1">
<text text-anchor="middle" x="104.35" y="-430.92" font-family="FreeSans" font-size="10.00">1</text>
</a>
</g>
</g>
<!-- dir_baac2dd6ce2461c8073860ad35e73f37&#45;&gt;dir_35addd29aafebb04e6caa45e6f26d04b -->
<g id="edge26" class="edge">
<title>dir_baac2dd6ce2461c8073860ad35e73f37&#45;&gt;dir_35addd29aafebb04e6caa45e6f26d04b</title>
<path fill="none" stroke="black" d="M181.85,-268.21C179.83,-287.3 174.28,-318.27 159,-340 148.81,-354.5 133.32,-366.33 118.98,-375.11"/>
<polygon fill="black" stroke="black" points="117.14,-372.13 110.25,-380.17 120.66,-378.18 117.14,-372.13"/>
<g id="a_edge26&#45;headlabel"><a xlink:href="dir_000034_000008.html" target="_top" xlink:title="5">
<text text-anchor="middle" x="118.83" y="-365.36" font-family="FreeSans" font-size="10.00">5</text>
</a>
</g>
</g>
<!-- dir_baac2dd6ce2461c8073860ad35e73f37&#45;&gt;dir_4ebd611d220344e85b5ba20d026188c7 -->
<g id="edge27" class="edge">
<title>dir_baac2dd6ce2461c8073860ad35e73f37&#45;&gt;dir_4ebd611d220344e85b5ba20d026188c7</title>
<path fill="none" stroke="black" d="M174.23,-268.1C167.88,-276.55 159.21,-286.9 150.75,-296.2"/>
<polygon fill="black" stroke="black" points="148.01,-294 143.75,-303.7 153.13,-298.78 148.01,-294"/>
<g id="a_edge27&#45;headlabel"><a xlink:href="dir_000034_000003.html" target="_top" xlink:title="2">
<text text-anchor="middle" x="148.39" y="-286.93" font-family="FreeSans" font-size="10.00">2</text>
</a>
</g>
</g>
<!-- dir_baac2dd6ce2461c8073860ad35e73f37&#45;&gt;dir_9d5eda6d4cabe7ed4bd8d4e297f3e4b6 -->
<g id="edge28" class="edge">
<title>dir_baac2dd6ce2461c8073860ad35e73f37&#45;&gt;dir_9d5eda6d4cabe7ed4bd8d4e297f3e4b6</title>
<path fill="none" stroke="black" d="M187.3,-231.88C191.11,-213.67 195.07,-184.21 188,-160 176.37,-120.18 145.62,-82.89 123.07,-59.58"/>
<polygon fill="black" stroke="black" points="125.31,-56.86 115.78,-52.23 120.34,-61.79 125.31,-56.86"/>
<g id="a_edge28&#45;headlabel"><a xlink:href="dir_000034_000018.html" target="_top" xlink:title="1">
<text text-anchor="middle" x="129.86" y="-54.92" font-family="FreeSans" font-size="10.00">1</text>
</a>
</g>
</g>
<!-- dir_baac2dd6ce2461c8073860ad35e73f37&#45;&gt;dir_aefcf59a6fdfc9bd7c340f12bedb31af -->
<g id="edge29" class="edge">
<title>dir_baac2dd6ce2461c8073860ad35e73f37&#45;&gt;dir_aefcf59a6fdfc9bd7c340f12bedb31af</title>
<path fill="none" stroke="black" d="M186.6,-231.99C189.67,-213.08 191.78,-182.27 179,-160 168.89,-142.38 150.28,-129.65 133.35,-121.08"/>
<polygon fill="black" stroke="black" points="134.71,-117.86 124.17,-116.75 131.72,-124.19 134.71,-117.86"/>
<g id="a_edge29&#45;headlabel"><a xlink:href="dir_000034_000009.html" target="_top" xlink:title="3">
<text text-anchor="middle" x="139.17" y="-114.33" font-family="FreeSans" font-size="10.00">3</text>
</a>
</g>
</g>
<!-- dir_baac2dd6ce2461c8073860ad35e73f37&#45;&gt;dir_e4d5a5ad095028ae0129065cd60b3253 -->
<g id="edge30" class="edge">
<title>dir_baac2dd6ce2461c8073860ad35e73f37&#45;&gt;dir_e4d5a5ad095028ae0129065cd60b3253</title>
<path fill="none" stroke="black" d="M173.11,-231.7C168.51,-223.64 162.94,-213.89 157.85,-204.98"/>
<polygon fill="black" stroke="black" points="160.77,-203.05 152.77,-196.1 154.7,-206.52 160.77,-203.05"/>
<g id="a_edge30&#45;headlabel"><a xlink:href="dir_000034_000007.html" target="_top" xlink:title="1">
<text text-anchor="middle" x="165.02" y="-202.26" font-family="FreeSans" font-size="10.00">1</text>
</a>
</g>
</g>
</g>
</svg>
