<?xml version="1.0" encoding="UTF-8" standalone="no"?>
<!DOCTYPE svg PUBLIC "-//W3C//DTD SVG 1.1//EN"
 "http://www.w3.org/Graphics/SVG/1.1/DTD/svg11.dtd">
<!-- Generated by graphviz version 2.43.0 (0)
 -->
<!-- Title: tssanalysis Pages: 1 -->
<!--zoomable 671 -->
<svg id="main" version="1.1" xmlns="http://www.w3.org/2000/svg" xmlns:xlink="http://www.w3.org/1999/xlink" xml:space="preserve" onload="init(evt)">
<style type="text/css"><![CDATA[
.edge:hover path { stroke: red; }
.edge:hover polygon { stroke: red; fill: red; }
]]></style>
<script type="text/javascript"><![CDATA[
var edges = document.getElementsByTagName('g');
if (edges && edges.length) {
  for (var i=0;i<edges.length;i++) {
    if (edges[i].id.substr(0,4)=='edge') {
      edges[i].setAttribute('class','edge');
    }
  }
}
]]></script>
        <defs>
                <circle id="rim" cx="0" cy="0" r="7"/>
                <circle id="rim2" cx="0" cy="0" r="3.5"/>
                <g id="zoomPlus">
                        <use xlink:href="#rim" fill="#404040">
                                <set attributeName="fill" to="#808080" begin="zoomplus.mouseover" end="zoomplus.mouseout"/>
                        </use>
                        <path d="M-4,0h8M0,-4v8" fill="none" stroke="white" stroke-width="1.5" pointer-events="none"/>
                </g>
                <g id="zoomMin">
                        <use xlink:href="#rim" fill="#404040">
                                <set attributeName="fill" to="#808080" begin="zoomminus.mouseover" end="zoomminus.mouseout"/>
                        </use>
                        <path d="M-4,0h8" fill="none" stroke="white" stroke-width="1.5" pointer-events="none"/>
                </g>
                <g id="dirArrow">
                        <path fill="none" stroke="white" stroke-width="1.5" d="M0,-3.0v7 M-2.5,-0.5L0,-3.0L2.5,-0.5"/>
                </g>
               <g id="resetDef">
                       <use xlink:href="#rim2" fill="#404040">
                               <set attributeName="fill" to="#808080" begin="reset.mouseover" end="reset.mouseout"/>
                       </use>
               </g>
        </defs>

<script type="text/javascript">
var viewWidth = 434;
var viewHeight = 671;
var sectionId = 'dynsection-0';
</script>
<script xlink:href="svgpan.js"/>
<svg id="graph" class="graph">
<g id="viewport">
<title>tssanalysis</title>
<polygon fill="white" stroke="transparent" points="-4,4 -4,-667 430,-667 430,4 -4,4"/>
<g id="clust1" class="cluster">
<title>clusterdir_db7313a27b1cae523c7773e30bdf986c</title>
<g id="a_clust1"><a xlink:href="dir_db7313a27b1cae523c7773e30bdf986c.html" target="_top" xlink:title="copasi">
<polygon fill="#ddddee" stroke="black" points="8,-8 8,-655 418,-655 418,-8 8,-8"/>
<text text-anchor="middle" x="213" y="-643" font-family="FreeSans" font-size="10.00">copasi</text>
</a>
</g>
</g>
<!-- dir_154eb94708f83cb7141d9ca39c6551cd -->
<g id="node1" class="node">
<title>dir_154eb94708f83cb7141d9ca39c6551cd</title>
<g id="a_node1"><a xlink:href="dir_154eb94708f83cb7141d9ca39c6551cd.html" target="_top" xlink:title="odepack++">
<polygon fill="none" stroke="black" points="307.5,-628 242.5,-628 242.5,-592 307.5,-592 307.5,-628"/>
<text text-anchor="middle" x="275" y="-607.5" font-family="FreeSans" font-size="10.00">odepack++</text>
</a>
</g>
</g>
<!-- dir_35addd29aafebb04e6caa45e6f26d04b -->
<g id="node2" class="node">
<title>dir_35addd29aafebb04e6caa45e6f26d04b</title>
<g id="a_node2"><a xlink:href="dir_35addd29aafebb04e6caa45e6f26d04b.html" target="_top" xlink:title="core">
<polygon fill="none" stroke="black" points="228,-556 174,-556 174,-520 228,-520 228,-556"/>
<text text-anchor="middle" x="201" y="-535.5" font-family="FreeSans" font-size="10.00">core</text>
</a>
</g>
</g>
<!-- dir_154eb94708f83cb7141d9ca39c6551cd&#45;&gt;dir_35addd29aafebb04e6caa45e6f26d04b -->
<g id="edge1" class="edge">
<title>dir_154eb94708f83cb7141d9ca39c6551cd&#45;&gt;dir_35addd29aafebb04e6caa45e6f26d04b</title>
<path fill="none" stroke="black" d="M256.71,-591.7C247.57,-583.05 236.36,-572.45 226.4,-563.03"/>
<polygon fill="black" stroke="black" points="228.75,-560.43 219.08,-556.1 223.94,-565.52 228.75,-560.43"/>
<g id="a_edge1&#45;headlabel"><a xlink:href="dir_000023_000008.html" target="_top" xlink:title="1">
<text text-anchor="middle" x="233.31" y="-558.34" font-family="FreeSans" font-size="10.00">1</text>
</a>
</g>
</g>
<!-- dir_405ce7a1489983e8b36f67512c8c61c7 -->
<g id="node3" class="node">
<title>dir_405ce7a1489983e8b36f67512c8c61c7</title>
<g id="a_node3"><a xlink:href="dir_405ce7a1489983e8b36f67512c8c61c7.html" target="_top" xlink:title="lapack">
<polygon fill="none" stroke="black" points="308,-124 254,-124 254,-88 308,-88 308,-124"/>
<text text-anchor="middle" x="281" y="-103.5" font-family="FreeSans" font-size="10.00">lapack</text>
</a>
</g>
</g>
<!-- dir_154eb94708f83cb7141d9ca39c6551cd&#45;&gt;dir_405ce7a1489983e8b36f67512c8c61c7 -->
<g id="edge2" class="edge">
<title>dir_154eb94708f83cb7141d9ca39c6551cd&#45;&gt;dir_405ce7a1489983e8b36f67512c8c61c7</title>
<path fill="none" stroke="black" d="M307.78,-592.59C347.45,-570.13 409,-525.81 409,-467 409,-467 409,-467 409,-249 409,-193.69 354.76,-150.22 316.9,-126.61"/>
<polygon fill="black" stroke="black" points="318.51,-123.5 308.15,-121.32 314.89,-129.49 318.51,-123.5"/>
<g id="a_edge2&#45;headlabel"><a xlink:href="dir_000023_000004.html" target="_top" xlink:title="7">
<text text-anchor="middle" x="323.06" y="-120.43" font-family="FreeSans" font-size="10.00">7</text>
</a>
</g>
</g>
<!-- dir_4ebd611d220344e85b5ba20d026188c7 -->
<g id="node4" class="node">
<title>dir_4ebd611d220344e85b5ba20d026188c7</title>
<g id="a_node4"><a xlink:href="dir_4ebd611d220344e85b5ba20d026188c7.html" target="_top" xlink:title="report">
<polygon fill="none" stroke="black" points="172,-484 118,-484 118,-448 172,-448 172,-484"/>
<text text-anchor="middle" x="145" y="-463.5" font-family="FreeSans" font-size="10.00">report</text>
</a>
</g>
</g>
<!-- dir_35addd29aafebb04e6caa45e6f26d04b&#45;&gt;dir_4ebd611d220344e85b5ba20d026188c7 -->
<g id="edge38" class="edge">
<title>dir_35addd29aafebb04e6caa45e6f26d04b&#45;&gt;dir_4ebd611d220344e85b5ba20d026188c7</title>
<path fill="none" stroke="black" d="M181.24,-519.7C173.82,-511.47 165.62,-501.48 158.82,-492.42"/>
<polygon fill="black" stroke="black" points="161.49,-490.15 152.79,-484.1 155.82,-494.26 161.49,-490.15"/>
<g id="a_edge38&#45;headlabel"><a xlink:href="dir_000008_000003.html" target="_top" xlink:title="3">
<text text-anchor="middle" x="165.9" y="-488.89" font-family="FreeSans" font-size="10.00">3</text>
</a>
</g>
</g>
<!-- dir_93b162d06b4c1cfd72a25a3b81dbdc2c -->
<g id="node5" class="node">
<title>dir_93b162d06b4c1cfd72a25a3b81dbdc2c</title>
<g id="a_node5"><a xlink:href="dir_93b162d06b4c1cfd72a25a3b81dbdc2c.html" target="_top" xlink:title="CopasiDataModel">
<polygon fill="none" stroke="black" points="225.5,-52 132.5,-52 132.5,-16 225.5,-16 225.5,-52"/>
<text text-anchor="middle" x="179" y="-31.5" font-family="FreeSans" font-size="10.00">CopasiDataModel</text>
</a>
</g>
</g>
<!-- dir_35addd29aafebb04e6caa45e6f26d04b&#45;&gt;dir_93b162d06b4c1cfd72a25a3b81dbdc2c -->
<g id="edge39" class="edge">
<title>dir_35addd29aafebb04e6caa45e6f26d04b&#45;&gt;dir_93b162d06b4c1cfd72a25a3b81dbdc2c</title>
<path fill="none" stroke="black" d="M228.18,-520.81C243.79,-511.84 262.68,-499.38 276,-484 350.25,-398.29 380,-364.4 380,-251 380,-251 380,-251 380,-177 380,-131.85 365.75,-116.84 331,-88 303.72,-65.36 266.47,-52.29 235.6,-44.8"/>
<polygon fill="black" stroke="black" points="236.36,-41.38 225.83,-42.56 234.79,-48.2 236.36,-41.38"/>
<g id="a_edge39&#45;headlabel"><a xlink:href="dir_000008_000019.html" target="_top" xlink:title="5">
<text text-anchor="middle" x="240.49" y="-36.92" font-family="FreeSans" font-size="10.00">5</text>
</a>
</g>
</g>
<!-- dir_aefcf59a6fdfc9bd7c340f12bedb31af -->
<g id="node6" class="node">
<title>dir_aefcf59a6fdfc9bd7c340f12bedb31af</title>
<g id="a_node6"><a xlink:href="dir_aefcf59a6fdfc9bd7c340f12bedb31af.html" target="_top" xlink:title="utilities">
<polygon fill="none" stroke="black" points="170,-268 116,-268 116,-232 170,-232 170,-268"/>
<text text-anchor="middle" x="143" y="-247.5" font-family="FreeSans" font-size="10.00">utilities</text>
</a>
</g>
</g>
<!-- dir_35addd29aafebb04e6caa45e6f26d04b&#45;&gt;dir_aefcf59a6fdfc9bd7c340f12bedb31af -->
<g id="edge40" class="edge">
<title>dir_35addd29aafebb04e6caa45e6f26d04b&#45;&gt;dir_aefcf59a6fdfc9bd7c340f12bedb31af</title>
<path fill="none" stroke="black" d="M173.57,-531.65C149.04,-524.74 115.22,-510.33 100,-484 61.34,-417.11 98.29,-322.01 123.9,-276.79"/>
<polygon fill="black" stroke="black" points="126.92,-278.57 129.01,-268.18 120.89,-275 126.92,-278.57"/>
<g id="a_edge40&#45;headlabel"><a xlink:href="dir_000008_000009.html" target="_top" xlink:title="13">
<text text-anchor="middle" x="127.52" y="-280.61" font-family="FreeSans" font-size="10.00">13</text>
</a>
</g>
</g>
<!-- dir_e4d5a5ad095028ae0129065cd60b3253 -->
<g id="node9" class="node">
<title>dir_e4d5a5ad095028ae0129065cd60b3253</title>
<g id="a_node9"><a xlink:href="dir_e4d5a5ad095028ae0129065cd60b3253.html" target="_top" xlink:title="model">
<polygon fill="none" stroke="black" points="228,-412 174,-412 174,-376 228,-376 228,-412"/>
<text text-anchor="middle" x="201" y="-391.5" font-family="FreeSans" font-size="10.00">model</text>
</a>
</g>
</g>
<!-- dir_35addd29aafebb04e6caa45e6f26d04b&#45;&gt;dir_e4d5a5ad095028ae0129065cd60b3253 -->
<g id="edge41" class="edge">
<title>dir_35addd29aafebb04e6caa45e6f26d04b&#45;&gt;dir_e4d5a5ad095028ae0129065cd60b3253</title>
<path fill="none" stroke="black" d="M196.42,-519.87C193.86,-495.67 193.57,-451.21 195.54,-422.39"/>
<polygon fill="black" stroke="black" points="199.05,-422.45 196.41,-412.19 192.07,-421.86 199.05,-422.45"/>
<g id="a_edge41&#45;headlabel"><a xlink:href="dir_000008_000007.html" target="_top" xlink:title="2">
<text text-anchor="middle" x="201.57" y="-423.77" font-family="FreeSans" font-size="10.00">2</text>
</a>
</g>
</g>
<!-- dir_4ebd611d220344e85b5ba20d026188c7&#45;&gt;dir_35addd29aafebb04e6caa45e6f26d04b -->
<g id="edge18" class="edge">
<title>dir_4ebd611d220344e85b5ba20d026188c7&#45;&gt;dir_35addd29aafebb04e6caa45e6f26d04b</title>
<path fill="none" stroke="black" d="M164.58,-484.1C171.99,-492.3 180.19,-502.28 187.02,-511.36"/>
<polygon fill="black" stroke="black" points="184.36,-513.66 193.07,-519.7 190.03,-509.55 184.36,-513.66"/>
<g id="a_edge18&#45;headlabel"><a xlink:href="dir_000003_000008.html" target="_top" xlink:title="21">
<text text-anchor="middle" x="179.96" y="-509.92" font-family="FreeSans" font-size="10.00">21</text>
</a>
</g>
</g>
<!-- dir_4ebd611d220344e85b5ba20d026188c7&#45;&gt;dir_93b162d06b4c1cfd72a25a3b81dbdc2c -->
<g id="edge19" class="edge">
<title>dir_4ebd611d220344e85b5ba20d026188c7&#45;&gt;dir_93b162d06b4c1cfd72a25a3b81dbdc2c</title>
<path fill="none" stroke="black" d="M129.01,-447.62C85.5,-390.99 -24.72,-208.53 53,-88 68.11,-64.57 96.37,-51.38 122.38,-44.02"/>
<polygon fill="black" stroke="black" points="123.4,-47.37 132.2,-41.48 121.64,-40.6 123.4,-47.37"/>
<g id="a_edge19&#45;headlabel"><a xlink:href="dir_000003_000019.html" target="_top" xlink:title="3">
<text text-anchor="middle" x="120.63" y="-48.52" font-family="FreeSans" font-size="10.00">3</text>
</a>
</g>
</g>
<!-- dir_4ebd611d220344e85b5ba20d026188c7&#45;&gt;dir_aefcf59a6fdfc9bd7c340f12bedb31af -->
<g id="edge20" class="edge">
<title>dir_4ebd611d220344e85b5ba20d026188c7&#45;&gt;dir_aefcf59a6fdfc9bd7c340f12bedb31af</title>
<path fill="none" stroke="black" d="M140.96,-447.85C137.08,-410.83 135.99,-323.18 138.56,-278.39"/>
<polygon fill="black" stroke="black" points="142.07,-278.45 139.28,-268.23 135.08,-277.96 142.07,-278.45"/>
<g id="a_edge20&#45;headlabel"><a xlink:href="dir_000003_000009.html" target="_top" xlink:title="11">
<text text-anchor="middle" x="144.65" y="-279.74" font-family="FreeSans" font-size="10.00">11</text>
</a>
</g>
</g>
<!-- dir_b5f61c72b9c3dda97ea9ed0837ced632 -->
<g id="node7" class="node">
<title>dir_b5f61c72b9c3dda97ea9ed0837ced632</title>
<g id="a_node7"><a xlink:href="dir_b5f61c72b9c3dda97ea9ed0837ced632.html" target="_top" xlink:title="trajectory">
<polygon fill="none" stroke="black" points="127,-124 71,-124 71,-88 127,-88 127,-124"/>
<text text-anchor="middle" x="99" y="-103.5" font-family="FreeSans" font-size="10.00">trajectory</text>
</a>
</g>
</g>
<!-- dir_4ebd611d220344e85b5ba20d026188c7&#45;&gt;dir_b5f61c72b9c3dda97ea9ed0837ced632 -->
<g id="edge21" class="edge">
<title>dir_4ebd611d220344e85b5ba20d026188c7&#45;&gt;dir_b5f61c72b9c3dda97ea9ed0837ced632</title>
<path fill="none" stroke="black" d="M134.25,-447.85C119.39,-413.94 95.54,-335.72 85,-268 80.07,-236.33 81.89,-228.04 81,-196 80.56,-180.01 79.66,-175.94 81,-160 81.72,-151.5 83.07,-142.31 84.92,-134.01"/>
<polygon fill="black" stroke="black" points="88.37,-134.65 87.52,-124.09 81.6,-132.88 88.37,-134.65"/>
<g id="a_edge21&#45;headlabel"><a xlink:href="dir_000003_000022.html" target="_top" xlink:title="1">
<text text-anchor="middle" x="90.21" y="-136.35" font-family="FreeSans" font-size="10.00">1</text>
</a>
</g>
</g>
<!-- dir_db3afc5e367a93f87ffcc764fb4101bb -->
<g id="node8" class="node">
<title>dir_db3afc5e367a93f87ffcc764fb4101bb</title>
<g id="a_node8"><a xlink:href="dir_db3afc5e367a93f87ffcc764fb4101bb.html" target="_top" xlink:title="math">
<polygon fill="none" stroke="black" points="233,-340 179,-340 179,-304 233,-304 233,-340"/>
<text text-anchor="middle" x="206" y="-319.5" font-family="FreeSans" font-size="10.00">math</text>
</a>
</g>
</g>
<!-- dir_4ebd611d220344e85b5ba20d026188c7&#45;&gt;dir_db3afc5e367a93f87ffcc764fb4101bb -->
<g id="edge22" class="edge">
<title>dir_4ebd611d220344e85b5ba20d026188c7&#45;&gt;dir_db3afc5e367a93f87ffcc764fb4101bb</title>
<path fill="none" stroke="black" d="M146.61,-447.88C148.85,-429.42 153.94,-399.5 165,-376 169.61,-366.21 176.28,-356.54 182.9,-348.19"/>
<polygon fill="black" stroke="black" points="185.74,-350.26 189.44,-340.33 180.35,-345.78 185.74,-350.26"/>
<g id="a_edge22&#45;headlabel"><a xlink:href="dir_000003_000024.html" target="_top" xlink:title="2">
<text text-anchor="middle" x="185.62" y="-352.34" font-family="FreeSans" font-size="10.00">2</text>
</a>
</g>
</g>
<!-- dir_4ebd611d220344e85b5ba20d026188c7&#45;&gt;dir_e4d5a5ad095028ae0129065cd60b3253 -->
<g id="edge23" class="edge">
<title>dir_4ebd611d220344e85b5ba20d026188c7&#45;&gt;dir_e4d5a5ad095028ae0129065cd60b3253</title>
<path fill="none" stroke="black" d="M152.93,-447.7C158.77,-439.3 166.77,-429.07 174.62,-419.86"/>
<polygon fill="black" stroke="black" points="177.46,-421.93 181.42,-412.1 172.2,-417.32 177.46,-421.93"/>
<g id="a_edge23&#45;headlabel"><a xlink:href="dir_000003_000007.html" target="_top" xlink:title="2">
<text text-anchor="middle" x="177.22" y="-424.01" font-family="FreeSans" font-size="10.00">2</text>
</a>
</g>
</g>
<!-- dir_93b162d06b4c1cfd72a25a3b81dbdc2c&#45;&gt;dir_35addd29aafebb04e6caa45e6f26d04b -->
<g id="edge49" class="edge">
<title>dir_93b162d06b4c1cfd72a25a3b81dbdc2c&#45;&gt;dir_35addd29aafebb04e6caa45e6f26d04b</title>
<path fill="none" stroke="black" d="M225.74,-39.75C262.95,-45.76 314.13,-59.06 349,-88 383.75,-116.84 398,-131.85 398,-177 398,-251 398,-251 398,-251 398,-364.4 368.25,-398.29 294,-484 278.93,-501.39 256.75,-515.06 237.68,-524.15"/>
<polygon fill="black" stroke="black" points="236.02,-521.06 228.34,-528.36 238.89,-527.44 236.02,-521.06"/>
<g id="a_edge49&#45;headlabel"><a xlink:href="dir_000019_000008.html" target="_top" xlink:title="7">
<text text-anchor="middle" x="238.13" y="-514.5" font-family="FreeSans" font-size="10.00">7</text>
</a>
</g>
</g>
<!-- dir_93b162d06b4c1cfd72a25a3b81dbdc2c&#45;&gt;dir_4ebd611d220344e85b5ba20d026188c7 -->
<g id="edge50" class="edge">
<title>dir_93b162d06b4c1cfd72a25a3b81dbdc2c&#45;&gt;dir_4ebd611d220344e85b5ba20d026188c7</title>
<path fill="none" stroke="black" d="M132.45,-45.91C109.92,-53.56 84.9,-66.45 71,-88 -3.08,-202.88 93.58,-374.03 131.37,-438.85"/>
<polygon fill="black" stroke="black" points="128.43,-440.75 136.5,-447.62 134.48,-437.22 128.43,-440.75"/>
<g id="a_edge50&#45;headlabel"><a xlink:href="dir_000019_000003.html" target="_top" xlink:title="2">
<text text-anchor="middle" x="124.17" y="-436.58" font-family="FreeSans" font-size="10.00">2</text>
</a>
</g>
</g>
<!-- dir_93b162d06b4c1cfd72a25a3b81dbdc2c&#45;&gt;dir_aefcf59a6fdfc9bd7c340f12bedb31af -->
<g id="edge51" class="edge">
<title>dir_93b162d06b4c1cfd72a25a3b81dbdc2c&#45;&gt;dir_aefcf59a6fdfc9bd7c340f12bedb31af</title>
<path fill="none" stroke="black" d="M179.99,-52.23C177.27,-89.4 162.74,-177.35 152.21,-222"/>
<polygon fill="black" stroke="black" points="148.78,-221.3 149.76,-231.85 155.57,-222.99 148.78,-221.3"/>
<g id="a_edge51&#45;headlabel"><a xlink:href="dir_000019_000009.html" target="_top" xlink:title="9">
<text text-anchor="middle" x="146.89" y="-214.63" font-family="FreeSans" font-size="10.00">9</text>
</a>
</g>
</g>
<!-- dir_93b162d06b4c1cfd72a25a3b81dbdc2c&#45;&gt;dir_b5f61c72b9c3dda97ea9ed0837ced632 -->
<g id="edge52" class="edge">
<title>dir_93b162d06b4c1cfd72a25a3b81dbdc2c&#45;&gt;dir_b5f61c72b9c3dda97ea9ed0837ced632</title>
<path fill="none" stroke="black" d="M165.35,-52.1C156.23,-60.89 144.01,-71.73 132.5,-81.31"/>
<polygon fill="black" stroke="black" points="130.22,-78.66 124.69,-87.7 134.65,-84.08 130.22,-78.66"/>
<g id="a_edge52&#45;headlabel"><a xlink:href="dir_000019_000022.html" target="_top" xlink:title="2">
<text text-anchor="middle" x="131.2" y="-71.68" font-family="FreeSans" font-size="10.00">2</text>
</a>
</g>
</g>
<!-- dir_93b162d06b4c1cfd72a25a3b81dbdc2c&#45;&gt;dir_e4d5a5ad095028ae0129065cd60b3253 -->
<g id="edge53" class="edge">
<title>dir_93b162d06b4c1cfd72a25a3b81dbdc2c&#45;&gt;dir_e4d5a5ad095028ae0129065cd60b3253</title>
<path fill="none" stroke="black" d="M225.71,-42.66C257.14,-50.1 297.64,-63.9 326,-88 360.91,-117.67 378,-131.19 378,-177 378,-251 378,-251 378,-251 378,-321.86 289.75,-364.6 237.75,-382.75"/>
<polygon fill="black" stroke="black" points="236.55,-379.46 228.18,-385.96 238.77,-386.1 236.55,-379.46"/>
<g id="a_edge53&#45;headlabel"><a xlink:href="dir_000019_000007.html" target="_top" xlink:title="4">
<text text-anchor="middle" x="239.05" y="-373.13" font-family="FreeSans" font-size="10.00">4</text>
</a>
</g>
</g>
<!-- dir_aefcf59a6fdfc9bd7c340f12bedb31af&#45;&gt;dir_35addd29aafebb04e6caa45e6f26d04b -->
<g id="edge10" class="edge">
<title>dir_aefcf59a6fdfc9bd7c340f12bedb31af&#45;&gt;dir_35addd29aafebb04e6caa45e6f26d04b</title>
<path fill="none" stroke="black" d="M138.16,-268.18C121.74,-308.77 76.68,-412.51 118,-484 128.35,-501.91 147.31,-514.3 164.57,-522.57"/>
<polygon fill="black" stroke="black" points="163.37,-525.87 173.93,-526.75 166.23,-519.48 163.37,-525.87"/>
<g id="a_edge10&#45;headlabel"><a xlink:href="dir_000009_000008.html" target="_top" xlink:title="46">
<text text-anchor="middle" x="158.93" y="-524.49" font-family="FreeSans" font-size="10.00">46</text>
</a>
</g>
</g>
<!-- dir_aefcf59a6fdfc9bd7c340f12bedb31af&#45;&gt;dir_405ce7a1489983e8b36f67512c8c61c7 -->
<g id="edge11" class="edge">
<title>dir_aefcf59a6fdfc9bd7c340f12bedb31af&#45;&gt;dir_405ce7a1489983e8b36f67512c8c61c7</title>
<path fill="none" stroke="black" d="M157.82,-231.88C173.76,-213.67 200.05,-184.21 224,-160 233.67,-150.22 244.67,-139.84 254.4,-130.88"/>
<polygon fill="black" stroke="black" points="256.86,-133.37 261.89,-124.04 252.14,-128.2 256.86,-133.37"/>
<g id="a_edge11&#45;headlabel"><a xlink:href="dir_000009_000004.html" target="_top" xlink:title="9">
<text text-anchor="middle" x="256.13" y="-135.39" font-family="FreeSans" font-size="10.00">9</text>
</a>
</g>
</g>
<!-- dir_aefcf59a6fdfc9bd7c340f12bedb31af&#45;&gt;dir_4ebd611d220344e85b5ba20d026188c7 -->
<g id="edge12" class="edge">
<title>dir_aefcf59a6fdfc9bd7c340f12bedb31af&#45;&gt;dir_4ebd611d220344e85b5ba20d026188c7</title>
<path fill="none" stroke="black" d="M147.05,-268.23C150.92,-305.32 152.01,-392.98 149.43,-437.71"/>
<polygon fill="black" stroke="black" points="145.93,-437.63 148.72,-447.85 152.91,-438.12 145.93,-437.63"/>
<g id="a_edge12&#45;headlabel"><a xlink:href="dir_000009_000003.html" target="_top" xlink:title="7">
<text text-anchor="middle" x="143.35" y="-431.34" font-family="FreeSans" font-size="10.00">7</text>
</a>
</g>
</g>
<!-- dir_aefcf59a6fdfc9bd7c340f12bedb31af&#45;&gt;dir_93b162d06b4c1cfd72a25a3b81dbdc2c -->
<g id="edge13" class="edge">
<title>dir_aefcf59a6fdfc9bd7c340f12bedb31af&#45;&gt;dir_93b162d06b4c1cfd72a25a3b81dbdc2c</title>
<path fill="none" stroke="black" d="M142.01,-231.85C144.7,-194.75 159.23,-106.81 169.77,-62.1"/>
<polygon fill="black" stroke="black" points="173.21,-62.78 172.22,-52.23 166.41,-61.1 173.21,-62.78"/>
<g id="a_edge13&#45;headlabel"><a xlink:href="dir_000009_000019.html" target="_top" xlink:title="4">
<text text-anchor="middle" x="175.1" y="-64.45" font-family="FreeSans" font-size="10.00">4</text>
</a>
</g>
</g>
<!-- dir_aefcf59a6fdfc9bd7c340f12bedb31af&#45;&gt;dir_b5f61c72b9c3dda97ea9ed0837ced632 -->
<g id="edge14" class="edge">
<title>dir_aefcf59a6fdfc9bd7c340f12bedb31af&#45;&gt;dir_b5f61c72b9c3dda97ea9ed0837ced632</title>
<path fill="none" stroke="black" d="M133.11,-231.87C123.01,-207.56 108.86,-162.82 101.94,-134.01"/>
<polygon fill="black" stroke="black" points="105.34,-133.18 99.74,-124.19 98.51,-134.71 105.34,-133.18"/>
<g id="a_edge14&#45;headlabel"><a xlink:href="dir_000009_000022.html" target="_top" xlink:title="13">
<text text-anchor="middle" x="108.89" y="-133.57" font-family="FreeSans" font-size="10.00">13</text>
</a>
</g>
</g>
<!-- dir_aefcf59a6fdfc9bd7c340f12bedb31af&#45;&gt;dir_db3afc5e367a93f87ffcc764fb4101bb -->
<g id="edge15" class="edge">
<title>dir_aefcf59a6fdfc9bd7c340f12bedb31af&#45;&gt;dir_db3afc5e367a93f87ffcc764fb4101bb</title>
<path fill="none" stroke="black" d="M164.29,-268.1C172.69,-276.47 182.1,-286.69 189.93,-295.92"/>
<polygon fill="black" stroke="black" points="187.28,-298.21 196.34,-303.7 192.68,-293.75 187.28,-298.21"/>
<g id="a_edge15&#45;headlabel"><a xlink:href="dir_000009_000024.html" target="_top" xlink:title="7">
<text text-anchor="middle" x="182.8" y="-294.74" font-family="FreeSans" font-size="10.00">7</text>
</a>
</g>
</g>
<!-- dir_aefcf59a6fdfc9bd7c340f12bedb31af&#45;&gt;dir_e4d5a5ad095028ae0129065cd60b3253 -->
<g id="edge16" class="edge">
<title>dir_aefcf59a6fdfc9bd7c340f12bedb31af&#45;&gt;dir_e4d5a5ad095028ae0129065cd60b3253</title>
<path fill="none" stroke="black" d="M153.61,-268.15C160.4,-286.4 168.46,-315.88 179,-340 182.97,-349.08 188.15,-358.56 192.7,-366.95"/>
<polygon fill="black" stroke="black" points="189.67,-368.71 197.47,-375.88 195.84,-365.41 189.67,-368.71"/>
<g id="a_edge16&#45;headlabel"><a xlink:href="dir_000009_000007.html" target="_top" xlink:title="11">
<text text-anchor="middle" x="185.47" y="-364.38" font-family="FreeSans" font-size="10.00">11</text>
</a>
</g>
</g>
<!-- dir_eab113b0f00aa6ef0b31ee7238d44ab8 -->
<g id="node10" class="node">
<title>dir_eab113b0f00aa6ef0b31ee7238d44ab8</title>
<g id="a_node10"><a xlink:href="dir_eab113b0f00aa6ef0b31ee7238d44ab8.html" target="_top" xlink:title="tssanalysis">
<polygon fill="#eeeeff" stroke="black" points="313.5,-196 248.5,-196 248.5,-160 313.5,-160 313.5,-196"/>
<text text-anchor="middle" x="281" y="-175.5" font-family="FreeSans" font-size="10.00">tssanalysis</text>
</a>
</g>
</g>
<!-- dir_aefcf59a6fdfc9bd7c340f12bedb31af&#45;&gt;dir_eab113b0f00aa6ef0b31ee7238d44ab8 -->
<g id="edge17" class="edge">
<title>dir_aefcf59a6fdfc9bd7c340f12bedb31af&#45;&gt;dir_eab113b0f00aa6ef0b31ee7238d44ab8</title>
<path fill="none" stroke="black" d="M170.2,-232.23C189.85,-221.69 216.63,-208.08 239,-197.26"/>
<polygon fill="black" stroke="black" points="240.77,-200.29 248.28,-192.81 237.75,-193.98 240.77,-200.29"/>
<g id="a_edge17&#45;headlabel"><a xlink:href="dir_000009_000017.html" target="_top" xlink:title="5">
<text text-anchor="middle" x="238.76" y="-201.9" font-family="FreeSans" font-size="10.00">5</text>
</a>
</g>
</g>
<!-- dir_b5f61c72b9c3dda97ea9ed0837ced632&#45;&gt;dir_154eb94708f83cb7141d9ca39c6551cd -->
<g id="edge3" class="edge">
<title>dir_b5f61c72b9c3dda97ea9ed0837ced632&#45;&gt;dir_154eb94708f83cb7141d9ca39c6551cd</title>
<path fill="none" stroke="black" d="M82.15,-124.32C73.49,-134.1 63.43,-146.94 57,-160 24.43,-226.15 17,-247.27 17,-321 17,-467 17,-467 17,-467 17,-563.98 158.63,-595.2 232.02,-604.87"/>
<polygon fill="black" stroke="black" points="231.97,-608.39 242.32,-606.15 232.83,-601.45 231.97,-608.39"/>
<g id="a_edge3&#45;headlabel"><a xlink:href="dir_000022_000023.html" target="_top" xlink:title="4">
<text text-anchor="middle" x="228.05" y="-608.27" font-family="FreeSans" font-size="10.00">4</text>
</a>
</g>
</g>
<!-- dir_b5f61c72b9c3dda97ea9ed0837ced632&#45;&gt;dir_35addd29aafebb04e6caa45e6f26d04b -->
<g id="edge4" class="edge">
<title>dir_b5f61c72b9c3dda97ea9ed0837ced632&#45;&gt;dir_35addd29aafebb04e6caa45e6f26d04b</title>
<path fill="none" stroke="black" d="M90.38,-124.26C73.34,-160.02 37,-245.19 37,-321 37,-395 37,-395 37,-395 37,-441.27 56.75,-452.9 91,-484 112.01,-503.08 141.13,-516.7 164.13,-525.35"/>
<polygon fill="black" stroke="black" points="162.98,-528.65 173.57,-528.75 165.35,-522.07 162.98,-528.65"/>
<g id="a_edge4&#45;headlabel"><a xlink:href="dir_000022_000008.html" target="_top" xlink:title="34">
<text text-anchor="middle" x="158.63" y="-527.6" font-family="FreeSans" font-size="10.00">34</text>
</a>
</g>
</g>
<!-- dir_b5f61c72b9c3dda97ea9ed0837ced632&#45;&gt;dir_4ebd611d220344e85b5ba20d026188c7 -->
<g id="edge5" class="edge">
<title>dir_b5f61c72b9c3dda97ea9ed0837ced632&#45;&gt;dir_4ebd611d220344e85b5ba20d026188c7</title>
<path fill="none" stroke="black" d="M103.17,-124.09C102.32,-134.43 100.02,-147.91 99,-160 97.66,-175.94 98.56,-180.01 99,-196 99.89,-228.04 98.07,-236.33 103,-268 112.59,-329.64 133.22,-399.97 142.14,-437.68"/>
<polygon fill="black" stroke="black" points="138.81,-438.85 144.41,-447.85 145.64,-437.33 138.81,-438.85"/>
<g id="a_edge5&#45;headlabel"><a xlink:href="dir_000022_000003.html" target="_top" xlink:title="3">
<text text-anchor="middle" x="135.26" y="-433.47" font-family="FreeSans" font-size="10.00">3</text>
</a>
</g>
</g>
<!-- dir_b5f61c72b9c3dda97ea9ed0837ced632&#45;&gt;dir_93b162d06b4c1cfd72a25a3b81dbdc2c -->
<g id="edge6" class="edge">
<title>dir_b5f61c72b9c3dda97ea9ed0837ced632&#45;&gt;dir_93b162d06b4c1cfd72a25a3b81dbdc2c</title>
<path fill="none" stroke="black" d="M112.86,-87.7C122.03,-78.88 134.26,-68.03 145.76,-58.47"/>
<polygon fill="black" stroke="black" points="148.03,-61.14 153.56,-52.1 143.6,-55.72 148.03,-61.14"/>
<g id="a_edge6&#45;headlabel"><a xlink:href="dir_000022_000019.html" target="_top" xlink:title="7">
<text text-anchor="middle" x="147.04" y="-63.11" font-family="FreeSans" font-size="10.00">7</text>
</a>
</g>
</g>
<!-- dir_b5f61c72b9c3dda97ea9ed0837ced632&#45;&gt;dir_aefcf59a6fdfc9bd7c340f12bedb31af -->
<g id="edge7" class="edge">
<title>dir_b5f61c72b9c3dda97ea9ed0837ced632&#45;&gt;dir_aefcf59a6fdfc9bd7c340f12bedb31af</title>
<path fill="none" stroke="black" d="M108.92,-124.19C119.03,-148.53 133.17,-193.28 140.08,-222.06"/>
<polygon fill="black" stroke="black" points="136.68,-222.88 142.28,-231.87 143.51,-221.35 136.68,-222.88"/>
<g id="a_edge7&#45;headlabel"><a xlink:href="dir_000022_000009.html" target="_top" xlink:title="29">
<text text-anchor="middle" x="133.12" y="-217.49" font-family="FreeSans" font-size="10.00">29</text>
</a>
</g>
</g>
<!-- dir_b5f61c72b9c3dda97ea9ed0837ced632&#45;&gt;dir_db3afc5e367a93f87ffcc764fb4101bb -->
<g id="edge8" class="edge">
<title>dir_b5f61c72b9c3dda97ea9ed0837ced632&#45;&gt;dir_db3afc5e367a93f87ffcc764fb4101bb</title>
<path fill="none" stroke="black" d="M112.29,-124.32C129.67,-147.67 160.12,-191.05 179,-232 188.21,-251.98 195.27,-275.91 199.85,-293.91"/>
<polygon fill="black" stroke="black" points="196.48,-294.88 202.26,-303.76 203.28,-293.21 196.48,-294.88"/>
<g id="a_edge8&#45;headlabel"><a xlink:href="dir_000022_000024.html" target="_top" xlink:title="22">
<text text-anchor="middle" x="192.87" y="-289.56" font-family="FreeSans" font-size="10.00">22</text>
</a>
</g>
</g>
<!-- dir_b5f61c72b9c3dda97ea9ed0837ced632&#45;&gt;dir_e4d5a5ad095028ae0129065cd60b3253 -->
<g id="edge9" class="edge">
<title>dir_b5f61c72b9c3dda97ea9ed0837ced632&#45;&gt;dir_e4d5a5ad095028ae0129065cd60b3253</title>
<path fill="none" stroke="black" d="M102.49,-124.42C103.32,-154.5 100.24,-217.8 116,-268 128.51,-307.86 159.94,-344.96 181.07,-368.22"/>
<polygon fill="black" stroke="black" points="178.73,-370.84 188.07,-375.85 183.89,-366.11 178.73,-370.84"/>
<g id="a_edge9&#45;headlabel"><a xlink:href="dir_000022_000007.html" target="_top" xlink:title="50">
<text text-anchor="middle" x="174.21" y="-367.61" font-family="FreeSans" font-size="10.00">50</text>
</a>
</g>
</g>
<!-- dir_db3afc5e367a93f87ffcc764fb4101bb&#45;&gt;dir_35addd29aafebb04e6caa45e6f26d04b -->
<g id="edge24" class="edge">
<title>dir_db3afc5e367a93f87ffcc764fb4101bb&#45;&gt;dir_35addd29aafebb04e6caa45e6f26d04b</title>
<path fill="none" stroke="black" d="M219.15,-340.09C225.92,-349.99 233.49,-363.04 237,-376 249.76,-423.1 229.59,-478.82 214.67,-510.82"/>
<polygon fill="black" stroke="black" points="211.46,-509.43 210.25,-519.96 217.76,-512.48 211.46,-509.43"/>
<g id="a_edge24&#45;headlabel"><a xlink:href="dir_000024_000008.html" target="_top" xlink:title="24">
<text text-anchor="middle" x="210.47" y="-502.46" font-family="FreeSans" font-size="10.00">24</text>
</a>
</g>
</g>
<!-- dir_db3afc5e367a93f87ffcc764fb4101bb&#45;&gt;dir_405ce7a1489983e8b36f67512c8c61c7 -->
<g id="edge25" class="edge">
<title>dir_db3afc5e367a93f87ffcc764fb4101bb&#45;&gt;dir_405ce7a1489983e8b36f67512c8c61c7</title>
<path fill="none" stroke="black" d="M208.62,-303.9C214.28,-267.94 228.13,-185.67 240,-160 244.54,-150.18 251.2,-140.5 257.83,-132.16"/>
<polygon fill="black" stroke="black" points="260.66,-134.22 264.37,-124.3 255.28,-129.74 260.66,-134.22"/>
<g id="a_edge25&#45;headlabel"><a xlink:href="dir_000024_000004.html" target="_top" xlink:title="1">
<text text-anchor="middle" x="260.54" y="-136.3" font-family="FreeSans" font-size="10.00">1</text>
</a>
</g>
</g>
<!-- dir_db3afc5e367a93f87ffcc764fb4101bb&#45;&gt;dir_93b162d06b4c1cfd72a25a3b81dbdc2c -->
<g id="edge26" class="edge">
<title>dir_db3afc5e367a93f87ffcc764fb4101bb&#45;&gt;dir_93b162d06b4c1cfd72a25a3b81dbdc2c</title>
<path fill="none" stroke="black" d="M204.39,-303.97C199.88,-256.19 187.08,-120.62 181.57,-62.27"/>
<polygon fill="black" stroke="black" points="185.06,-61.93 180.63,-52.31 178.09,-62.59 185.06,-61.93"/>
<g id="a_edge26&#45;headlabel"><a xlink:href="dir_000024_000019.html" target="_top" xlink:title="1">
<text text-anchor="middle" x="188.22" y="-62.75" font-family="FreeSans" font-size="10.00">1</text>
</a>
</g>
</g>
<!-- dir_db3afc5e367a93f87ffcc764fb4101bb&#45;&gt;dir_aefcf59a6fdfc9bd7c340f12bedb31af -->
<g id="edge27" class="edge">
<title>dir_db3afc5e367a93f87ffcc764fb4101bb&#45;&gt;dir_aefcf59a6fdfc9bd7c340f12bedb31af</title>
<path fill="none" stroke="black" d="M184.51,-303.7C176.09,-295.3 166.69,-285.07 158.88,-275.86"/>
<polygon fill="black" stroke="black" points="161.56,-273.6 152.5,-268.1 156.15,-278.05 161.56,-273.6"/>
<g id="a_edge27&#45;headlabel"><a xlink:href="dir_000024_000009.html" target="_top" xlink:title="12">
<text text-anchor="middle" x="166.03" y="-272.07" font-family="FreeSans" font-size="10.00">12</text>
</a>
</g>
</g>
<!-- dir_db3afc5e367a93f87ffcc764fb4101bb&#45;&gt;dir_e4d5a5ad095028ae0129065cd60b3253 -->
<g id="edge28" class="edge">
<title>dir_db3afc5e367a93f87ffcc764fb4101bb&#45;&gt;dir_e4d5a5ad095028ae0129065cd60b3253</title>
<path fill="none" stroke="black" d="M210.67,-340.1C210.93,-347.79 210.5,-357.05 209.56,-365.67"/>
<polygon fill="black" stroke="black" points="206.07,-365.31 208.15,-375.7 213,-366.28 206.07,-365.31"/>
<g id="a_edge28&#45;headlabel"><a xlink:href="dir_000024_000007.html" target="_top" xlink:title="16">
<text text-anchor="middle" x="203.76" y="-358.85" font-family="FreeSans" font-size="10.00">16</text>
</a>
</g>
</g>
<!-- dir_e4d5a5ad095028ae0129065cd60b3253&#45;&gt;dir_35addd29aafebb04e6caa45e6f26d04b -->
<g id="edge42" class="edge">
<title>dir_e4d5a5ad095028ae0129065cd60b3253&#45;&gt;dir_35addd29aafebb04e6caa45e6f26d04b</title>
<path fill="none" stroke="black" d="M205.59,-412.19C208.15,-436.42 208.43,-480.89 206.45,-509.68"/>
<polygon fill="black" stroke="black" points="202.95,-509.61 205.58,-519.87 209.92,-510.21 202.95,-509.61"/>
<g id="a_edge42&#45;headlabel"><a xlink:href="dir_000007_000008.html" target="_top" xlink:title="57">
<text text-anchor="middle" x="200.42" y="-503.29" font-family="FreeSans" font-size="10.00">57</text>
</a>
</g>
</g>
<!-- dir_e4d5a5ad095028ae0129065cd60b3253&#45;&gt;dir_405ce7a1489983e8b36f67512c8c61c7 -->
<g id="edge43" class="edge">
<title>dir_e4d5a5ad095028ae0129065cd60b3253&#45;&gt;dir_405ce7a1489983e8b36f67512c8c61c7</title>
<path fill="none" stroke="black" d="M220.62,-375.91C231.1,-366.11 243.71,-353.17 253,-340 294.01,-281.84 307.04,-265.35 323,-196 326.59,-180.41 328.26,-175.11 323,-160 319.47,-149.86 313.09,-140.19 306.36,-131.96"/>
<polygon fill="black" stroke="black" points="308.83,-129.46 299.6,-124.24 303.56,-134.07 308.83,-129.46"/>
<g id="a_edge43&#45;headlabel"><a xlink:href="dir_000007_000004.html" target="_top" xlink:title="2">
<text text-anchor="middle" x="313.33" y="-127.79" font-family="FreeSans" font-size="10.00">2</text>
</a>
</g>
</g>
<!-- dir_e4d5a5ad095028ae0129065cd60b3253&#45;&gt;dir_4ebd611d220344e85b5ba20d026188c7 -->
<g id="edge44" class="edge">
<title>dir_e4d5a5ad095028ae0129065cd60b3253&#45;&gt;dir_4ebd611d220344e85b5ba20d026188c7</title>
<path fill="none" stroke="black" d="M193.21,-412.1C187.4,-420.47 179.42,-430.69 171.57,-439.92"/>
<polygon fill="black" stroke="black" points="168.71,-437.87 164.76,-447.7 173.98,-442.48 168.71,-437.87"/>
<g id="a_edge44&#45;headlabel"><a xlink:href="dir_000007_000003.html" target="_top" xlink:title="16">
<text text-anchor="middle" x="168.94" y="-430.79" font-family="FreeSans" font-size="10.00">16</text>
</a>
</g>
</g>
<!-- dir_e4d5a5ad095028ae0129065cd60b3253&#45;&gt;dir_93b162d06b4c1cfd72a25a3b81dbdc2c -->
<g id="edge45" class="edge">
<title>dir_e4d5a5ad095028ae0129065cd60b3253&#45;&gt;dir_93b162d06b4c1cfd72a25a3b81dbdc2c</title>
<path fill="none" stroke="black" d="M228.11,-382.15C273.68,-363.65 360,-321.08 360,-251 360,-251 360,-251 360,-177 360,-131.19 342.91,-117.67 308,-88 287.12,-70.25 259.64,-58.09 235.36,-49.94"/>
<polygon fill="black" stroke="black" points="236.13,-46.51 225.54,-46.8 233.99,-53.18 236.13,-46.51"/>
<g id="a_edge45&#45;headlabel"><a xlink:href="dir_000007_000019.html" target="_top" xlink:title="10">
<text text-anchor="middle" x="240.42" y="-42.4" font-family="FreeSans" font-size="10.00">10</text>
</a>
</g>
</g>
<!-- dir_e4d5a5ad095028ae0129065cd60b3253&#45;&gt;dir_aefcf59a6fdfc9bd7c340f12bedb31af -->
<g id="edge46" class="edge">
<title>dir_e4d5a5ad095028ae0129065cd60b3253&#45;&gt;dir_aefcf59a6fdfc9bd7c340f12bedb31af</title>
<path fill="none" stroke="black" d="M181.72,-375.88C174.21,-365.75 166.46,-352.5 161,-340 152.23,-319.93 145.18,-296.15 141.82,-278.22"/>
<polygon fill="black" stroke="black" points="145.25,-277.5 140.25,-268.15 138.33,-278.57 145.25,-277.5"/>
<g id="a_edge46&#45;headlabel"><a xlink:href="dir_000007_000009.html" target="_top" xlink:title="42">
<text text-anchor="middle" x="148.61" y="-278.11" font-family="FreeSans" font-size="10.00">42</text>
</a>
</g>
</g>
<!-- dir_e4d5a5ad095028ae0129065cd60b3253&#45;&gt;dir_b5f61c72b9c3dda97ea9ed0837ced632 -->
<g id="edge47" class="edge">
<title>dir_e4d5a5ad095028ae0129065cd60b3253&#45;&gt;dir_b5f61c72b9c3dda97ea9ed0837ced632</title>
<path fill="none" stroke="black" d="M175.53,-375.85C149.61,-353.67 111.99,-312.56 98,-268 83.84,-222.9 84.89,-167.23 89.82,-134.56"/>
<polygon fill="black" stroke="black" points="93.32,-134.88 91.62,-124.42 86.43,-133.65 93.32,-134.88"/>
<g id="a_edge47&#45;headlabel"><a xlink:href="dir_000007_000022.html" target="_top" xlink:title="2">
<text text-anchor="middle" x="95.48" y="-136.41" font-family="FreeSans" font-size="10.00">2</text>
</a>
</g>
</g>
<!-- dir_e4d5a5ad095028ae0129065cd60b3253&#45;&gt;dir_db3afc5e367a93f87ffcc764fb4101bb -->
<g id="edge48" class="edge">
<title>dir_e4d5a5ad095028ae0129065cd60b3253&#45;&gt;dir_db3afc5e367a93f87ffcc764fb4101bb</title>
<path fill="none" stroke="black" d="M196.32,-375.7C196.08,-367.98 196.51,-358.71 197.47,-350.11"/>
<polygon fill="black" stroke="black" points="200.95,-350.5 198.88,-340.1 194.02,-349.52 200.95,-350.5"/>
<g id="a_edge48&#45;headlabel"><a xlink:href="dir_000007_000024.html" target="_top" xlink:title="5">
<text text-anchor="middle" x="203.26" y="-351.95" font-family="FreeSans" font-size="10.00">5</text>
</a>
</g>
</g>
<!-- dir_eab113b0f00aa6ef0b31ee7238d44ab8&#45;&gt;dir_154eb94708f83cb7141d9ca39c6551cd -->
<g id="edge29" class="edge">
<title>dir_eab113b0f00aa6ef0b31ee7238d44ab8&#45;&gt;dir_154eb94708f83cb7141d9ca39c6551cd</title>
<path fill="none" stroke="black" d="M290.37,-196.17C295.49,-206.31 301.49,-219.56 305,-232 313.75,-263.04 312,-271.81 314,-304 314.99,-319.97 314.11,-324 314,-340 313.78,-372 316.27,-380.16 313,-412 306.7,-473.44 290.89,-544.29 281.77,-582.03"/>
<polygon fill="black" stroke="black" points="278.37,-581.22 279.39,-591.76 285.17,-582.88 278.37,-581.22"/>
<g id="a_edge29&#45;headlabel"><a xlink:href="dir_000017_000023.html" target="_top" xlink:title="2">
<text text-anchor="middle" x="276.47" y="-574.55" font-family="FreeSans" font-size="10.00">2</text>
</a>
</g>
</g>
<!-- dir_eab113b0f00aa6ef0b31ee7238d44ab8&#45;&gt;dir_35addd29aafebb04e6caa45e6f26d04b -->
<g id="edge30" class="edge">
<title>dir_eab113b0f00aa6ef0b31ee7238d44ab8&#45;&gt;dir_35addd29aafebb04e6caa45e6f26d04b</title>
<path fill="none" stroke="black" d="M286.67,-196.27C294.85,-222.79 309,-275.27 309,-321 309,-395 309,-395 309,-395 309,-444.9 266.23,-488.23 234.52,-513.5"/>
<polygon fill="black" stroke="black" points="232.09,-510.95 226.32,-519.83 236.37,-516.49 232.09,-510.95"/>
<g id="a_edge30&#45;headlabel"><a xlink:href="dir_000017_000008.html" target="_top" xlink:title="19">
<text text-anchor="middle" x="233.2" y="-504" font-family="FreeSans" font-size="10.00">19</text>
</a>
</g>
</g>
<!-- dir_eab113b0f00aa6ef0b31ee7238d44ab8&#45;&gt;dir_405ce7a1489983e8b36f67512c8c61c7 -->
<g id="edge31" class="edge">
<title>dir_eab113b0f00aa6ef0b31ee7238d44ab8&#45;&gt;dir_405ce7a1489983e8b36f67512c8c61c7</title>
<path fill="none" stroke="black" d="M281,-159.7C281,-151.98 281,-142.71 281,-134.11"/>
<polygon fill="black" stroke="black" points="284.5,-134.1 281,-124.1 277.5,-134.1 284.5,-134.1"/>
<g id="a_edge31&#45;headlabel"><a xlink:href="dir_000017_000004.html" target="_top" xlink:title="8">
<text text-anchor="middle" x="287.34" y="-135.2" font-family="FreeSans" font-size="10.00">8</text>
</a>
</g>
</g>
<!-- dir_eab113b0f00aa6ef0b31ee7238d44ab8&#45;&gt;dir_4ebd611d220344e85b5ba20d026188c7 -->
<g id="edge32" class="edge">
<title>dir_eab113b0f00aa6ef0b31ee7238d44ab8&#45;&gt;dir_4ebd611d220344e85b5ba20d026188c7</title>
<path fill="none" stroke="black" d="M282.65,-196.29C285.69,-238.01 287.78,-345.63 237,-412 223.01,-430.28 200.77,-443.34 181.67,-451.92"/>
<polygon fill="black" stroke="black" points="180.14,-448.77 172.3,-455.89 182.88,-455.21 180.14,-448.77"/>
<g id="a_edge32&#45;headlabel"><a xlink:href="dir_000017_000003.html" target="_top" xlink:title="2">
<text text-anchor="middle" x="182.35" y="-442.25" font-family="FreeSans" font-size="10.00">2</text>
</a>
</g>
</g>
<!-- dir_eab113b0f00aa6ef0b31ee7238d44ab8&#45;&gt;dir_93b162d06b4c1cfd72a25a3b81dbdc2c -->
<g id="edge33" class="edge">
<title>dir_eab113b0f00aa6ef0b31ee7238d44ab8&#45;&gt;dir_93b162d06b4c1cfd72a25a3b81dbdc2c</title>
<path fill="none" stroke="black" d="M268.7,-159.87C250.93,-135.14 217.96,-89.24 197.33,-60.51"/>
<polygon fill="black" stroke="black" points="200.02,-58.27 191.35,-52.19 194.34,-62.35 200.02,-58.27"/>
<g id="a_edge33&#45;headlabel"><a xlink:href="dir_000017_000019.html" target="_top" xlink:title="6">
<text text-anchor="middle" x="204.43" y="-57.03" font-family="FreeSans" font-size="10.00">6</text>
</a>
</g>
</g>
<!-- dir_eab113b0f00aa6ef0b31ee7238d44ab8&#45;&gt;dir_aefcf59a6fdfc9bd7c340f12bedb31af -->
<g id="edge34" class="edge">
<title>dir_eab113b0f00aa6ef0b31ee7238d44ab8&#45;&gt;dir_aefcf59a6fdfc9bd7c340f12bedb31af</title>
<path fill="none" stroke="black" d="M252.93,-196.24C231.67,-207.62 202.46,-222.41 179.42,-233.43"/>
<polygon fill="black" stroke="black" points="177.83,-230.31 170.29,-237.75 180.82,-236.64 177.83,-230.31"/>
<g id="a_edge34&#45;headlabel"><a xlink:href="dir_000017_000009.html" target="_top" xlink:title="7">
<text text-anchor="middle" x="179.86" y="-223.71" font-family="FreeSans" font-size="10.00">7</text>
</a>
</g>
</g>
<!-- dir_eab113b0f00aa6ef0b31ee7238d44ab8&#45;&gt;dir_b5f61c72b9c3dda97ea9ed0837ced632 -->
<g id="edge35" class="edge">
<title>dir_eab113b0f00aa6ef0b31ee7238d44ab8&#45;&gt;dir_b5f61c72b9c3dda97ea9ed0837ced632</title>
<path fill="none" stroke="black" d="M248.46,-164.49C217.14,-152.44 169.8,-134.23 136.82,-121.55"/>
<polygon fill="black" stroke="black" points="137.67,-118.12 127.08,-117.8 135.16,-124.66 137.67,-118.12"/>
<g id="a_edge35&#45;headlabel"><a xlink:href="dir_000017_000022.html" target="_top" xlink:title="3">
<text text-anchor="middle" x="142.04" y="-114.26" font-family="FreeSans" font-size="10.00">3</text>
</a>
</g>
</g>
<!-- dir_eab113b0f00aa6ef0b31ee7238d44ab8&#45;&gt;dir_db3afc5e367a93f87ffcc764fb4101bb -->
<g id="edge36" class="edge">
<title>dir_eab113b0f00aa6ef0b31ee7238d44ab8&#45;&gt;dir_db3afc5e367a93f87ffcc764fb4101bb</title>
<path fill="none" stroke="black" d="M271.92,-196.19C258.95,-220.74 235.01,-266.07 219.83,-294.81"/>
<polygon fill="black" stroke="black" points="216.62,-293.39 215.05,-303.87 222.81,-296.66 216.62,-293.39"/>
<g id="a_edge36&#45;headlabel"><a xlink:href="dir_000017_000024.html" target="_top" xlink:title="5">
<text text-anchor="middle" x="215.79" y="-286.39" font-family="FreeSans" font-size="10.00">5</text>
</a>
</g>
</g>
<!-- dir_eab113b0f00aa6ef0b31ee7238d44ab8&#45;&gt;dir_e4d5a5ad095028ae0129065cd60b3253 -->
<g id="edge37" class="edge">
<title>dir_eab113b0f00aa6ef0b31ee7238d44ab8&#45;&gt;dir_e4d5a5ad095028ae0129065cd60b3253</title>
<path fill="none" stroke="black" d="M279.22,-196.24C275.58,-226.6 265.55,-291.01 242,-340 237.31,-349.75 230.62,-359.41 224,-367.76"/>
<polygon fill="black" stroke="black" points="221.16,-365.7 217.48,-375.63 226.55,-370.16 221.16,-365.7"/>
<g id="a_edge37&#45;headlabel"><a xlink:href="dir_000017_000007.html" target="_top" xlink:title="8">
<text text-anchor="middle" x="221.27" y="-358.62" font-family="FreeSans" font-size="10.00">8</text>
</a>
</g>
</g>
</g>
</svg>
        <g id="navigator" transform="translate(0 0)" fill="#404254">
                <rect fill="#f2f5e9" fill-opacity="0.5" stroke="#606060" stroke-width=".5" x="0" y="0" width="60" height="60"/>
                <use id="zoomplus" xlink:href="#zoomPlus" x="17" y="9" onmousedown="handleZoom(evt,'in')"/>
                <use id="zoomminus" xlink:href="#zoomMin" x="42" y="9" onmousedown="handleZoom(evt,'out')"/>
                <use id="reset" xlink:href="#resetDef" x="30" y="36" onmousedown="handleReset()"/>
                <g id="arrowUp" xlink:href="#dirArrow" transform="translate(30 24)" onmousedown="handlePan(0,-1)">
                  <use xlink:href="#rim" fill="#404040">
                        <set attributeName="fill" to="#808080" begin="arrowUp.mouseover" end="arrowUp.mouseout"/>
                  </use>
                  <path fill="none" stroke="white" stroke-width="1.5" d="M0,-3.0v7 M-2.5,-0.5L0,-3.0L2.5,-0.5"/>
                </g>
                <g id="arrowRight" xlink:href="#dirArrow" transform="rotate(90) translate(36 -43)" onmousedown="handlePan(1,0)">
                  <use xlink:href="#rim" fill="#404040">
                        <set attributeName="fill" to="#808080" begin="arrowRight.mouseover" end="arrowRight.mouseout"/>
                  </use>
                  <path fill="none" stroke="white" stroke-width="1.5" d="M0,-3.0v7 M-2.5,-0.5L0,-3.0L2.5,-0.5"/>
                </g>
                <g id="arrowDown" xlink:href="#dirArrow" transform="rotate(180) translate(-30 -48)" onmousedown="handlePan(0,1)">
                  <use xlink:href="#rim" fill="#404040">
                        <set attributeName="fill" to="#808080" begin="arrowDown.mouseover" end="arrowDown.mouseout"/>
                  </use>
                  <path fill="none" stroke="white" stroke-width="1.5" d="M0,-3.0v7 M-2.5,-0.5L0,-3.0L2.5,-0.5"/>
                </g>
                <g id="arrowLeft" xlink:href="#dirArrow" transform="rotate(270) translate(-36 17)" onmousedown="handlePan(-1,0)">
                  <use xlink:href="#rim" fill="#404040">
                        <set attributeName="fill" to="#808080" begin="arrowLeft.mouseover" end="arrowLeft.mouseout"/>
                  </use>
                  <path fill="none" stroke="white" stroke-width="1.5" d="M0,-3.0v7 M-2.5,-0.5L0,-3.0L2.5,-0.5"/>
                </g>
        </g>
        <svg viewBox="0 0 15 15" width="100%" height="30px" preserveAspectRatio="xMaxYMin meet">
         <g id="arrow_out" transform="scale(0.3 0.3)">
          <a xlink:href="dir_eab113b0f00aa6ef0b31ee7238d44ab8_dep_org.svg" target="_base">
           <rect id="button" ry="5" rx="5" y="6" x="6" height="38" width="38"
                fill="#f2f5e9" fill-opacity="0.5" stroke="#606060" stroke-width="1.0"/>
           <path id="arrow"
             d="M 11.500037,31.436501 C 11.940474,20.09759 22.043105,11.32322 32.158766,21.979434 L 37.068811,17.246167 C 37.068811,17.246167 37.088388,32 37.088388,32 L 22.160133,31.978069 C 22.160133,31.978069 26.997745,27.140456 26.997745,27.140456 C 18.528582,18.264221 13.291696,25.230495 11.500037,31.436501 z"
             style="fill:#404040;"/>
          </a>
         </g>
        </svg>
</svg>
