<?xml version="1.0" encoding="UTF-8" standalone="no"?>
<!DOCTYPE svg PUBLIC "-//W3C//DTD SVG 1.1//EN"
 "http://www.w3.org/Graphics/SVG/1.1/DTD/svg11.dtd">
<!-- Generated by graphviz version 2.43.0 (0)
 -->
<!-- Title: analytics Pages: 1 -->
<!--zoomable 599 -->
<svg id="main" version="1.1" xmlns="http://www.w3.org/2000/svg" xmlns:xlink="http://www.w3.org/1999/xlink" xml:space="preserve" onload="init(evt)">
<style type="text/css"><![CDATA[
.edge:hover path { stroke: red; }
.edge:hover polygon { stroke: red; fill: red; }
]]></style>
<script type="text/javascript"><![CDATA[
var edges = document.getElementsByTagName('g');
if (edges && edges.length) {
  for (var i=0;i<edges.length;i++) {
    if (edges[i].id.substr(0,4)=='edge') {
      edges[i].setAttribute('class','edge');
    }
  }
}
]]></script>
        <defs>
                <circle id="rim" cx="0" cy="0" r="7"/>
                <circle id="rim2" cx="0" cy="0" r="3.5"/>
                <g id="zoomPlus">
                        <use xlink:href="#rim" fill="#404040">
                                <set attributeName="fill" to="#808080" begin="zoomplus.mouseover" end="zoomplus.mouseout"/>
                        </use>
                        <path d="M-4,0h8M0,-4v8" fill="none" stroke="white" stroke-width="1.5" pointer-events="none"/>
                </g>
                <g id="zoomMin">
                        <use xlink:href="#rim" fill="#404040">
                                <set attributeName="fill" to="#808080" begin="zoomminus.mouseover" end="zoomminus.mouseout"/>
                        </use>
                        <path d="M-4,0h8" fill="none" stroke="white" stroke-width="1.5" pointer-events="none"/>
                </g>
                <g id="dirArrow">
                        <path fill="none" stroke="white" stroke-width="1.5" d="M0,-3.0v7 M-2.5,-0.5L0,-3.0L2.5,-0.5"/>
                </g>
               <g id="resetDef">
                       <use xlink:href="#rim2" fill="#404040">
                               <set attributeName="fill" to="#808080" begin="reset.mouseover" end="reset.mouseout"/>
                       </use>
               </g>
        </defs>

<script type="text/javascript">
var viewWidth = 334;
var viewHeight = 599;
var sectionId = 'dynsection-0';
</script>
<script xlink:href="svgpan.js"/>
<svg id="graph" class="graph">
<g id="viewport">
<title>analytics</title>
<polygon fill="white" stroke="transparent" points="-4,4 -4,-595 330,-595 330,4 -4,4"/>
<g id="clust1" class="cluster">
<title>clusterdir_db7313a27b1cae523c7773e30bdf986c</title>
<g id="a_clust1"><a xlink:href="dir_db7313a27b1cae523c7773e30bdf986c.html" target="_top" xlink:title="copasi">
<polygon fill="#ddddee" stroke="black" points="8,-8 8,-583 318,-583 318,-8 8,-8"/>
<text text-anchor="middle" x="163" y="-571" font-family="FreeSans" font-size="10.00">copasi</text>
</a>
</g>
</g>
<!-- dir_35addd29aafebb04e6caa45e6f26d04b -->
<g id="node1" class="node">
<title>dir_35addd29aafebb04e6caa45e6f26d04b</title>
<g id="a_node1"><a xlink:href="dir_35addd29aafebb04e6caa45e6f26d04b.html" target="_top" xlink:title="core">
<polygon fill="none" stroke="black" points="130,-484 76,-484 76,-448 130,-448 130,-484"/>
<text text-anchor="middle" x="103" y="-463.5" font-family="FreeSans" font-size="10.00">core</text>
</a>
</g>
</g>
<!-- dir_4ebd611d220344e85b5ba20d026188c7 -->
<g id="node2" class="node">
<title>dir_4ebd611d220344e85b5ba20d026188c7</title>
<g id="a_node2"><a xlink:href="dir_4ebd611d220344e85b5ba20d026188c7.html" target="_top" xlink:title="report">
<polygon fill="none" stroke="black" points="262,-412 208,-412 208,-376 262,-376 262,-412"/>
<text text-anchor="middle" x="235" y="-391.5" font-family="FreeSans" font-size="10.00">report</text>
</a>
</g>
</g>
<!-- dir_35addd29aafebb04e6caa45e6f26d04b&#45;&gt;dir_4ebd611d220344e85b5ba20d026188c7 -->
<g id="edge23" class="edge">
<title>dir_35addd29aafebb04e6caa45e6f26d04b&#45;&gt;dir_4ebd611d220344e85b5ba20d026188c7</title>
<path fill="none" stroke="black" d="M129.39,-447.88C149.33,-436.68 176.75,-422.16 198.72,-411.17"/>
<polygon fill="black" stroke="black" points="200.36,-414.26 207.77,-406.69 197.25,-407.99 200.36,-414.26"/>
<g id="a_edge23&#45;headlabel"><a xlink:href="dir_000008_000003.html" target="_top" xlink:title="3">
<text text-anchor="middle" x="198.39" y="-415.9" font-family="FreeSans" font-size="10.00">3</text>
</a>
</g>
</g>
<!-- dir_93b162d06b4c1cfd72a25a3b81dbdc2c -->
<g id="node3" class="node">
<title>dir_93b162d06b4c1cfd72a25a3b81dbdc2c</title>
<g id="a_node3"><a xlink:href="dir_93b162d06b4c1cfd72a25a3b81dbdc2c.html" target="_top" xlink:title="CopasiDataModel">
<polygon fill="none" stroke="black" points="189.5,-52 96.5,-52 96.5,-16 189.5,-16 189.5,-52"/>
<text text-anchor="middle" x="143" y="-31.5" font-family="FreeSans" font-size="10.00">CopasiDataModel</text>
</a>
</g>
</g>
<!-- dir_35addd29aafebb04e6caa45e6f26d04b&#45;&gt;dir_93b162d06b4c1cfd72a25a3b81dbdc2c -->
<g id="edge24" class="edge">
<title>dir_35addd29aafebb04e6caa45e6f26d04b&#45;&gt;dir_93b162d06b4c1cfd72a25a3b81dbdc2c</title>
<path fill="none" stroke="black" d="M82.66,-447.58C74.95,-437.57 67.12,-424.54 62,-412 49.57,-381.56 48.8,-372.66 45,-340 31.91,-227.56 29.33,-188.2 82,-88 87.67,-77.21 96.24,-67.17 105.25,-58.78"/>
<polygon fill="black" stroke="black" points="107.63,-61.36 112.87,-52.15 103.03,-56.08 107.63,-61.36"/>
<g id="a_edge24&#45;headlabel"><a xlink:href="dir_000008_000019.html" target="_top" xlink:title="5">
<text text-anchor="middle" x="106.78" y="-63.36" font-family="FreeSans" font-size="10.00">5</text>
</a>
</g>
</g>
<!-- dir_aefcf59a6fdfc9bd7c340f12bedb31af -->
<g id="node4" class="node">
<title>dir_aefcf59a6fdfc9bd7c340f12bedb31af</title>
<g id="a_node4"><a xlink:href="dir_aefcf59a6fdfc9bd7c340f12bedb31af.html" target="_top" xlink:title="utilities">
<polygon fill="none" stroke="black" points="147,-196 93,-196 93,-160 147,-160 147,-196"/>
<text text-anchor="middle" x="120" y="-175.5" font-family="FreeSans" font-size="10.00">utilities</text>
</a>
</g>
</g>
<!-- dir_35addd29aafebb04e6caa45e6f26d04b&#45;&gt;dir_aefcf59a6fdfc9bd7c340f12bedb31af -->
<g id="edge25" class="edge">
<title>dir_35addd29aafebb04e6caa45e6f26d04b&#45;&gt;dir_aefcf59a6fdfc9bd7c340f12bedb31af</title>
<path fill="none" stroke="black" d="M93.17,-447.57C82.89,-417.99 71.24,-356.09 78,-304 82.51,-269.22 93.81,-230.33 103.98,-205.3"/>
<polygon fill="black" stroke="black" points="107.2,-206.68 107.95,-196.11 100.77,-203.9 107.2,-206.68"/>
<g id="a_edge25&#45;headlabel"><a xlink:href="dir_000008_000009.html" target="_top" xlink:title="13">
<text text-anchor="middle" x="108.38" y="-208.6" font-family="FreeSans" font-size="10.00">13</text>
</a>
</g>
</g>
<!-- dir_e4d5a5ad095028ae0129065cd60b3253 -->
<g id="node7" class="node">
<title>dir_e4d5a5ad095028ae0129065cd60b3253</title>
<g id="a_node7"><a xlink:href="dir_e4d5a5ad095028ae0129065cd60b3253.html" target="_top" xlink:title="model">
<polygon fill="none" stroke="black" points="150,-340 96,-340 96,-304 150,-304 150,-340"/>
<text text-anchor="middle" x="123" y="-319.5" font-family="FreeSans" font-size="10.00">model</text>
</a>
</g>
</g>
<!-- dir_35addd29aafebb04e6caa45e6f26d04b&#45;&gt;dir_e4d5a5ad095028ae0129065cd60b3253 -->
<g id="edge26" class="edge">
<title>dir_35addd29aafebb04e6caa45e6f26d04b&#45;&gt;dir_e4d5a5ad095028ae0129065cd60b3253</title>
<path fill="none" stroke="black" d="M100.83,-447.87C101.68,-423.56 107.7,-378.82 113.76,-350.01"/>
<polygon fill="black" stroke="black" points="117.19,-350.72 115.99,-340.19 110.37,-349.17 117.19,-350.72"/>
<g id="a_edge26&#45;headlabel"><a xlink:href="dir_000008_000007.html" target="_top" xlink:title="2">
<text text-anchor="middle" x="119.17" y="-352.35" font-family="FreeSans" font-size="10.00">2</text>
</a>
</g>
</g>
<!-- dir_4ebd611d220344e85b5ba20d026188c7&#45;&gt;dir_35addd29aafebb04e6caa45e6f26d04b -->
<g id="edge13" class="edge">
<title>dir_4ebd611d220344e85b5ba20d026188c7&#45;&gt;dir_35addd29aafebb04e6caa45e6f26d04b</title>
<path fill="none" stroke="black" d="M208.82,-412C188.89,-423.2 161.39,-437.77 139.36,-448.79"/>
<polygon fill="black" stroke="black" points="137.7,-445.71 130.29,-453.28 140.8,-451.98 137.7,-445.71"/>
<g id="a_edge13&#45;headlabel"><a xlink:href="dir_000003_000008.html" target="_top" xlink:title="21">
<text text-anchor="middle" x="139.66" y="-439.07" font-family="FreeSans" font-size="10.00">21</text>
</a>
</g>
</g>
<!-- dir_4ebd611d220344e85b5ba20d026188c7&#45;&gt;dir_93b162d06b4c1cfd72a25a3b81dbdc2c -->
<g id="edge14" class="edge">
<title>dir_4ebd611d220344e85b5ba20d026188c7&#45;&gt;dir_93b162d06b4c1cfd72a25a3b81dbdc2c</title>
<path fill="none" stroke="black" d="M232.95,-375.56C234.93,-365.33 238.43,-352.08 240,-340 242.06,-324.13 240.99,-319.97 240,-304 233.95,-206.86 255.21,-170.76 204,-88 196.79,-76.34 186,-66.33 175.43,-58.25"/>
<polygon fill="black" stroke="black" points="177.22,-55.23 167.08,-52.19 173.12,-60.89 177.22,-55.23"/>
<g id="a_edge14&#45;headlabel"><a xlink:href="dir_000003_000019.html" target="_top" xlink:title="3">
<text text-anchor="middle" x="181.8" y="-52.54" font-family="FreeSans" font-size="10.00">3</text>
</a>
</g>
</g>
<!-- dir_4ebd611d220344e85b5ba20d026188c7&#45;&gt;dir_aefcf59a6fdfc9bd7c340f12bedb31af -->
<g id="edge15" class="edge">
<title>dir_4ebd611d220344e85b5ba20d026188c7&#45;&gt;dir_aefcf59a6fdfc9bd7c340f12bedb31af</title>
<path fill="none" stroke="black" d="M232.93,-375.76C234.05,-344.27 239.81,-276.61 210,-232 197.3,-213 175.48,-200.29 156.42,-192.09"/>
<polygon fill="black" stroke="black" points="157.63,-188.81 147.05,-188.31 155.01,-195.3 157.63,-188.81"/>
<g id="a_edge15&#45;headlabel"><a xlink:href="dir_000003_000009.html" target="_top" xlink:title="11">
<text text-anchor="middle" x="162.03" y="-185.02" font-family="FreeSans" font-size="10.00">11</text>
</a>
</g>
</g>
<!-- dir_b5f61c72b9c3dda97ea9ed0837ced632 -->
<g id="node5" class="node">
<title>dir_b5f61c72b9c3dda97ea9ed0837ced632</title>
<g id="a_node5"><a xlink:href="dir_b5f61c72b9c3dda97ea9ed0837ced632.html" target="_top" xlink:title="trajectory">
<polygon fill="none" stroke="black" points="195,-124 139,-124 139,-88 195,-88 195,-124"/>
<text text-anchor="middle" x="167" y="-103.5" font-family="FreeSans" font-size="10.00">trajectory</text>
</a>
</g>
</g>
<!-- dir_4ebd611d220344e85b5ba20d026188c7&#45;&gt;dir_b5f61c72b9c3dda97ea9ed0837ced632 -->
<g id="edge16" class="edge">
<title>dir_4ebd611d220344e85b5ba20d026188c7&#45;&gt;dir_b5f61c72b9c3dda97ea9ed0837ced632</title>
<path fill="none" stroke="black" d="M230.83,-375.91C231.68,-365.57 233.98,-352.09 235,-340 236.34,-324.06 236.43,-319.94 235,-304 232.1,-271.61 232.41,-262.81 222,-232 209.87,-196.11 188.89,-157.74 176.28,-133.12"/>
<polygon fill="black" stroke="black" points="179.36,-131.45 171.74,-124.08 173.1,-134.59 179.36,-131.45"/>
<g id="a_edge16&#45;headlabel"><a xlink:href="dir_000003_000022.html" target="_top" xlink:title="1">
<text text-anchor="middle" x="183.51" y="-130.89" font-family="FreeSans" font-size="10.00">1</text>
</a>
</g>
</g>
<!-- dir_db3afc5e367a93f87ffcc764fb4101bb -->
<g id="node6" class="node">
<title>dir_db3afc5e367a93f87ffcc764fb4101bb</title>
<g id="a_node6"><a xlink:href="dir_db3afc5e367a93f87ffcc764fb4101bb.html" target="_top" xlink:title="math">
<polygon fill="none" stroke="black" points="210,-268 156,-268 156,-232 210,-232 210,-268"/>
<text text-anchor="middle" x="183" y="-247.5" font-family="FreeSans" font-size="10.00">math</text>
</a>
</g>
</g>
<!-- dir_4ebd611d220344e85b5ba20d026188c7&#45;&gt;dir_db3afc5e367a93f87ffcc764fb4101bb -->
<g id="edge17" class="edge">
<title>dir_4ebd611d220344e85b5ba20d026188c7&#45;&gt;dir_db3afc5e367a93f87ffcc764fb4101bb</title>
<path fill="none" stroke="black" d="M228.73,-375.87C219.79,-351.46 203.3,-306.43 192.75,-277.64"/>
<polygon fill="black" stroke="black" points="196.02,-276.38 189.29,-268.19 189.45,-278.78 196.02,-276.38"/>
<g id="a_edge17&#45;headlabel"><a xlink:href="dir_000003_000024.html" target="_top" xlink:title="2">
<text text-anchor="middle" x="199.92" y="-276.28" font-family="FreeSans" font-size="10.00">2</text>
</a>
</g>
</g>
<!-- dir_4ebd611d220344e85b5ba20d026188c7&#45;&gt;dir_e4d5a5ad095028ae0129065cd60b3253 -->
<g id="edge18" class="edge">
<title>dir_4ebd611d220344e85b5ba20d026188c7&#45;&gt;dir_e4d5a5ad095028ae0129065cd60b3253</title>
<path fill="none" stroke="black" d="M207.95,-379.5C191.36,-369.96 170.22,-356.94 153.11,-345.8"/>
<polygon fill="black" stroke="black" points="154.86,-342.76 144.58,-340.18 151.01,-348.61 154.86,-342.76"/>
<g id="a_edge18&#45;headlabel"><a xlink:href="dir_000003_000007.html" target="_top" xlink:title="2">
<text text-anchor="middle" x="159.42" y="-339.87" font-family="FreeSans" font-size="10.00">2</text>
</a>
</g>
</g>
<!-- dir_93b162d06b4c1cfd72a25a3b81dbdc2c&#45;&gt;dir_35addd29aafebb04e6caa45e6f26d04b -->
<g id="edge40" class="edge">
<title>dir_93b162d06b4c1cfd72a25a3b81dbdc2c&#45;&gt;dir_35addd29aafebb04e6caa45e6f26d04b</title>
<path fill="none" stroke="black" d="M128.73,-52.39C119.07,-61.81 107.2,-74.31 100,-88 47.33,-188.2 49.91,-227.56 63,-340 66.8,-372.66 67.57,-381.56 80,-412 83.72,-421.11 88.87,-430.48 93.54,-438.76"/>
<polygon fill="black" stroke="black" points="90.55,-440.59 98.51,-447.58 96.65,-437.15 90.55,-440.59"/>
<g id="a_edge40&#45;headlabel"><a xlink:href="dir_000019_000008.html" target="_top" xlink:title="7">
<text text-anchor="middle" x="86.31" y="-436.35" font-family="FreeSans" font-size="10.00">7</text>
</a>
</g>
</g>
<!-- dir_93b162d06b4c1cfd72a25a3b81dbdc2c&#45;&gt;dir_4ebd611d220344e85b5ba20d026188c7 -->
<g id="edge41" class="edge">
<title>dir_93b162d06b4c1cfd72a25a3b81dbdc2c&#45;&gt;dir_4ebd611d220344e85b5ba20d026188c7</title>
<path fill="none" stroke="black" d="M183.49,-52.19C197.98,-61.1 212.86,-73.22 222,-88 273.21,-170.76 251.95,-206.86 258,-304 258.99,-319.97 260.06,-324.13 258,-340 256.88,-348.59 254.79,-357.77 252.16,-366.03"/>
<polygon fill="black" stroke="black" points="248.82,-364.97 248.7,-375.56 255.4,-367.35 248.82,-364.97"/>
<g id="a_edge41&#45;headlabel"><a xlink:href="dir_000019_000003.html" target="_top" xlink:title="2">
<text text-anchor="middle" x="247.38" y="-358.12" font-family="FreeSans" font-size="10.00">2</text>
</a>
</g>
</g>
<!-- dir_93b162d06b4c1cfd72a25a3b81dbdc2c&#45;&gt;dir_aefcf59a6fdfc9bd7c340f12bedb31af -->
<g id="edge42" class="edge">
<title>dir_93b162d06b4c1cfd72a25a3b81dbdc2c&#45;&gt;dir_aefcf59a6fdfc9bd7c340f12bedb31af</title>
<path fill="none" stroke="black" d="M146.04,-52.07C144.48,-62.4 141.16,-75.87 139,-88 135.34,-108.54 132.77,-131.99 129.86,-149.66"/>
<polygon fill="black" stroke="black" points="126.35,-149.38 127.99,-159.84 133.24,-150.64 126.35,-149.38"/>
<g id="a_edge42&#45;headlabel"><a xlink:href="dir_000019_000009.html" target="_top" xlink:title="9">
<text text-anchor="middle" x="124.21" y="-142.83" font-family="FreeSans" font-size="10.00">9</text>
</a>
</g>
</g>
<!-- dir_93b162d06b4c1cfd72a25a3b81dbdc2c&#45;&gt;dir_b5f61c72b9c3dda97ea9ed0837ced632 -->
<g id="edge43" class="edge">
<title>dir_93b162d06b4c1cfd72a25a3b81dbdc2c&#45;&gt;dir_b5f61c72b9c3dda97ea9ed0837ced632</title>
<path fill="none" stroke="black" d="M154.76,-52.1C158.24,-59.88 161.69,-69.26 164.32,-77.95"/>
<polygon fill="black" stroke="black" points="160.97,-78.97 166.98,-87.7 167.72,-77.13 160.97,-78.97"/>
<g id="a_edge43&#45;headlabel"><a xlink:href="dir_000019_000022.html" target="_top" xlink:title="2">
<text text-anchor="middle" x="157.28" y="-73.76" font-family="FreeSans" font-size="10.00">2</text>
</a>
</g>
</g>
<!-- dir_93b162d06b4c1cfd72a25a3b81dbdc2c&#45;&gt;dir_e4d5a5ad095028ae0129065cd60b3253 -->
<g id="edge44" class="edge">
<title>dir_93b162d06b4c1cfd72a25a3b81dbdc2c&#45;&gt;dir_e4d5a5ad095028ae0129065cd60b3253</title>
<path fill="none" stroke="black" d="M137.9,-52.32C126.38,-75.66 102.19,-119.02 93,-160 82.39,-207.35 102.71,-262.23 115.22,-294.14"/>
<polygon fill="black" stroke="black" points="112.04,-295.63 118.96,-303.65 118.56,-293.07 112.04,-295.63"/>
<g id="a_edge44&#45;headlabel"><a xlink:href="dir_000019_000007.html" target="_top" xlink:title="4">
<text text-anchor="middle" x="108.08" y="-290.82" font-family="FreeSans" font-size="10.00">4</text>
</a>
</g>
</g>
<!-- dir_aefcf59a6fdfc9bd7c340f12bedb31af&#45;&gt;dir_35addd29aafebb04e6caa45e6f26d04b -->
<g id="edge7" class="edge">
<title>dir_aefcf59a6fdfc9bd7c340f12bedb31af&#45;&gt;dir_35addd29aafebb04e6caa45e6f26d04b</title>
<path fill="none" stroke="black" d="M120,-196.11C114.93,-219.93 101.11,-264.6 96,-304 89.93,-350.8 98.72,-405.52 102.93,-437.6"/>
<polygon fill="black" stroke="black" points="99.46,-438.07 104.16,-447.57 106.41,-437.22 99.46,-438.07"/>
<g id="a_edge7&#45;headlabel"><a xlink:href="dir_000009_000008.html" target="_top" xlink:title="46">
<text text-anchor="middle" x="96.21" y="-432.35" font-family="FreeSans" font-size="10.00">46</text>
</a>
</g>
</g>
<!-- dir_aefcf59a6fdfc9bd7c340f12bedb31af&#45;&gt;dir_4ebd611d220344e85b5ba20d026188c7 -->
<g id="edge8" class="edge">
<title>dir_aefcf59a6fdfc9bd7c340f12bedb31af&#45;&gt;dir_4ebd611d220344e85b5ba20d026188c7</title>
<path fill="none" stroke="black" d="M147.06,-183.83C172.85,-190.45 209.8,-204.77 228,-232 255.02,-272.42 252.81,-331.79 245.77,-366"/>
<polygon fill="black" stroke="black" points="242.36,-365.22 243.46,-375.76 249.17,-366.84 242.36,-365.22"/>
<g id="a_edge8&#45;headlabel"><a xlink:href="dir_000009_000003.html" target="_top" xlink:title="7">
<text text-anchor="middle" x="240.42" y="-358.57" font-family="FreeSans" font-size="10.00">7</text>
</a>
</g>
</g>
<!-- dir_aefcf59a6fdfc9bd7c340f12bedb31af&#45;&gt;dir_93b162d06b4c1cfd72a25a3b81dbdc2c -->
<g id="edge9" class="edge">
<title>dir_aefcf59a6fdfc9bd7c340f12bedb31af&#45;&gt;dir_93b162d06b4c1cfd72a25a3b81dbdc2c</title>
<path fill="none" stroke="black" d="M114.55,-159.84C113.75,-141.85 116.58,-112.8 121,-88 122.53,-79.38 124.66,-70.08 127.16,-61.7"/>
<polygon fill="black" stroke="black" points="130.53,-62.66 130.4,-52.07 123.9,-60.43 130.53,-62.66"/>
<g id="a_edge9&#45;headlabel"><a xlink:href="dir_000009_000019.html" target="_top" xlink:title="4">
<text text-anchor="middle" x="132.08" y="-64.47" font-family="FreeSans" font-size="10.00">4</text>
</a>
</g>
</g>
<!-- dir_aefcf59a6fdfc9bd7c340f12bedb31af&#45;&gt;dir_b5f61c72b9c3dda97ea9ed0837ced632 -->
<g id="edge10" class="edge">
<title>dir_aefcf59a6fdfc9bd7c340f12bedb31af&#45;&gt;dir_b5f61c72b9c3dda97ea9ed0837ced632</title>
<path fill="none" stroke="black" d="M125.7,-159.7C130.42,-151.39 137.02,-141.28 143.61,-132.14"/>
<polygon fill="black" stroke="black" points="146.44,-134.21 149.62,-124.1 140.83,-130.02 146.44,-134.21"/>
<g id="a_edge10&#45;headlabel"><a xlink:href="dir_000009_000022.html" target="_top" xlink:title="13">
<text text-anchor="middle" x="146.56" y="-136.29" font-family="FreeSans" font-size="10.00">13</text>
</a>
</g>
</g>
<!-- dir_aefcf59a6fdfc9bd7c340f12bedb31af&#45;&gt;dir_db3afc5e367a93f87ffcc764fb4101bb -->
<g id="edge11" class="edge">
<title>dir_aefcf59a6fdfc9bd7c340f12bedb31af&#45;&gt;dir_db3afc5e367a93f87ffcc764fb4101bb</title>
<path fill="none" stroke="black" d="M141.29,-196.1C149.69,-204.47 159.1,-214.69 166.93,-223.92"/>
<polygon fill="black" stroke="black" points="164.28,-226.21 173.34,-231.7 169.68,-221.75 164.28,-226.21"/>
<g id="a_edge11&#45;headlabel"><a xlink:href="dir_000009_000024.html" target="_top" xlink:title="7">
<text text-anchor="middle" x="159.8" y="-222.74" font-family="FreeSans" font-size="10.00">7</text>
</a>
</g>
</g>
<!-- dir_aefcf59a6fdfc9bd7c340f12bedb31af&#45;&gt;dir_e4d5a5ad095028ae0129065cd60b3253 -->
<g id="edge12" class="edge">
<title>dir_aefcf59a6fdfc9bd7c340f12bedb31af&#45;&gt;dir_e4d5a5ad095028ae0129065cd60b3253</title>
<path fill="none" stroke="black" d="M124.95,-196.19C128.02,-220.42 129.25,-264.89 127.88,-293.68"/>
<polygon fill="black" stroke="black" points="124.37,-293.67 127.22,-303.87 131.36,-294.12 124.37,-293.67"/>
<g id="a_edge12&#45;headlabel"><a xlink:href="dir_000009_000007.html" target="_top" xlink:title="11">
<text text-anchor="middle" x="121.77" y="-287.4" font-family="FreeSans" font-size="10.00">11</text>
</a>
</g>
</g>
<!-- dir_b5f61c72b9c3dda97ea9ed0837ced632&#45;&gt;dir_35addd29aafebb04e6caa45e6f26d04b -->
<g id="edge1" class="edge">
<title>dir_b5f61c72b9c3dda97ea9ed0837ced632&#45;&gt;dir_35addd29aafebb04e6caa45e6f26d04b</title>
<path fill="none" stroke="black" d="M138.99,-116.78C119.85,-125.07 95.88,-139.02 84,-160 28.82,-257.47 60.61,-302.26 83,-412 84.79,-420.77 87.83,-430 91.01,-438.26"/>
<polygon fill="black" stroke="black" points="87.87,-439.81 94.89,-447.75 94.35,-437.17 87.87,-439.81"/>
<g id="a_edge1&#45;headlabel"><a xlink:href="dir_000022_000008.html" target="_top" xlink:title="34">
<text text-anchor="middle" x="83.88" y="-435.06" font-family="FreeSans" font-size="10.00">34</text>
</a>
</g>
</g>
<!-- dir_b5f61c72b9c3dda97ea9ed0837ced632&#45;&gt;dir_4ebd611d220344e85b5ba20d026188c7 -->
<g id="edge2" class="edge">
<title>dir_b5f61c72b9c3dda97ea9ed0837ced632&#45;&gt;dir_4ebd611d220344e85b5ba20d026188c7</title>
<path fill="none" stroke="black" d="M183.89,-124.08C201.16,-147.51 226.26,-191.35 240,-232 250.41,-262.81 250.1,-271.61 253,-304 254.43,-319.94 254.34,-324.06 253,-340 252.28,-348.5 250.93,-357.69 249.08,-365.99"/>
<polygon fill="black" stroke="black" points="245.63,-365.35 246.48,-375.91 252.4,-367.12 245.63,-365.35"/>
<g id="a_edge2&#45;headlabel"><a xlink:href="dir_000022_000003.html" target="_top" xlink:title="3">
<text text-anchor="middle" x="243.79" y="-358.65" font-family="FreeSans" font-size="10.00">3</text>
</a>
</g>
</g>
<!-- dir_b5f61c72b9c3dda97ea9ed0837ced632&#45;&gt;dir_93b162d06b4c1cfd72a25a3b81dbdc2c -->
<g id="edge3" class="edge">
<title>dir_b5f61c72b9c3dda97ea9ed0837ced632&#45;&gt;dir_93b162d06b4c1cfd72a25a3b81dbdc2c</title>
<path fill="none" stroke="black" d="M155.15,-87.7C151.67,-79.9 148.23,-70.51 145.61,-61.83"/>
<polygon fill="black" stroke="black" points="148.97,-60.83 142.97,-52.1 142.22,-62.67 148.97,-60.83"/>
<g id="a_edge3&#45;headlabel"><a xlink:href="dir_000022_000019.html" target="_top" xlink:title="7">
<text text-anchor="middle" x="152.65" y="-61.06" font-family="FreeSans" font-size="10.00">7</text>
</a>
</g>
</g>
<!-- dir_b5f61c72b9c3dda97ea9ed0837ced632&#45;&gt;dir_aefcf59a6fdfc9bd7c340f12bedb31af -->
<g id="edge4" class="edge">
<title>dir_b5f61c72b9c3dda97ea9ed0837ced632&#45;&gt;dir_aefcf59a6fdfc9bd7c340f12bedb31af</title>
<path fill="none" stroke="black" d="M161.41,-124.1C156.72,-132.38 150.14,-142.49 143.54,-151.64"/>
<polygon fill="black" stroke="black" points="140.71,-149.59 137.53,-159.7 146.32,-153.77 140.71,-149.59"/>
<g id="a_edge4&#45;headlabel"><a xlink:href="dir_000022_000009.html" target="_top" xlink:title="29">
<text text-anchor="middle" x="140.58" y="-142.51" font-family="FreeSans" font-size="10.00">29</text>
</a>
</g>
</g>
<!-- dir_b5f61c72b9c3dda97ea9ed0837ced632&#45;&gt;dir_db3afc5e367a93f87ffcc764fb4101bb -->
<g id="edge5" class="edge">
<title>dir_b5f61c72b9c3dda97ea9ed0837ced632&#45;&gt;dir_db3afc5e367a93f87ffcc764fb4101bb</title>
<path fill="none" stroke="black" d="M168.94,-124.19C171.67,-148.42 176.68,-192.89 179.92,-221.68"/>
<polygon fill="black" stroke="black" points="176.47,-222.33 181.07,-231.87 183.43,-221.54 176.47,-222.33"/>
<g id="a_edge5&#45;headlabel"><a xlink:href="dir_000022_000024.html" target="_top" xlink:title="22">
<text text-anchor="middle" x="173.25" y="-216.57" font-family="FreeSans" font-size="10.00">22</text>
</a>
</g>
</g>
<!-- dir_b5f61c72b9c3dda97ea9ed0837ced632&#45;&gt;dir_e4d5a5ad095028ae0129065cd60b3253 -->
<g id="edge6" class="edge">
<title>dir_b5f61c72b9c3dda97ea9ed0837ced632&#45;&gt;dir_e4d5a5ad095028ae0129065cd60b3253</title>
<path fill="none" stroke="black" d="M172.29,-124.17C172.91,-142.17 169.78,-171.23 165,-196 163.14,-205.64 148.42,-260.46 136.41,-294.22"/>
<polygon fill="black" stroke="black" points="132.99,-293.35 132.78,-303.95 139.55,-295.8 132.99,-293.35"/>
<g id="a_edge6&#45;headlabel"><a xlink:href="dir_000022_000007.html" target="_top" xlink:title="50">
<text text-anchor="middle" x="131.59" y="-286.49" font-family="FreeSans" font-size="10.00">50</text>
</a>
</g>
</g>
<!-- dir_db3afc5e367a93f87ffcc764fb4101bb&#45;&gt;dir_35addd29aafebb04e6caa45e6f26d04b -->
<g id="edge19" class="edge">
<title>dir_db3afc5e367a93f87ffcc764fb4101bb&#45;&gt;dir_35addd29aafebb04e6caa45e6f26d04b</title>
<path fill="none" stroke="black" d="M179.19,-268.31C175,-286.43 167.7,-315.58 159,-340 146.53,-375 128.42,-413.85 116.2,-438.8"/>
<polygon fill="black" stroke="black" points="112.96,-437.45 111.67,-447.96 119.24,-440.55 112.96,-437.45"/>
<g id="a_edge19&#45;headlabel"><a xlink:href="dir_000024_000008.html" target="_top" xlink:title="24">
<text text-anchor="middle" x="112.01" y="-430.47" font-family="FreeSans" font-size="10.00">24</text>
</a>
</g>
</g>
<!-- dir_db3afc5e367a93f87ffcc764fb4101bb&#45;&gt;dir_93b162d06b4c1cfd72a25a3b81dbdc2c -->
<g id="edge20" class="edge">
<title>dir_db3afc5e367a93f87ffcc764fb4101bb&#45;&gt;dir_93b162d06b4c1cfd72a25a3b81dbdc2c</title>
<path fill="none" stroke="black" d="M191.1,-231.65C204.12,-201.13 226.1,-136.48 204,-88 198.77,-76.53 189.7,-66.58 180.13,-58.5"/>
<polygon fill="black" stroke="black" points="182.07,-55.58 172.04,-52.16 177.75,-61.09 182.07,-55.58"/>
<g id="a_edge20&#45;headlabel"><a xlink:href="dir_000024_000019.html" target="_top" xlink:title="1">
<text text-anchor="middle" x="186.65" y="-53.06" font-family="FreeSans" font-size="10.00">1</text>
</a>
</g>
</g>
<!-- dir_db3afc5e367a93f87ffcc764fb4101bb&#45;&gt;dir_aefcf59a6fdfc9bd7c340f12bedb31af -->
<g id="edge21" class="edge">
<title>dir_db3afc5e367a93f87ffcc764fb4101bb&#45;&gt;dir_aefcf59a6fdfc9bd7c340f12bedb31af</title>
<path fill="none" stroke="black" d="M161.51,-231.7C153.09,-223.3 143.69,-213.07 135.88,-203.86"/>
<polygon fill="black" stroke="black" points="138.56,-201.6 129.5,-196.1 133.15,-206.05 138.56,-201.6"/>
<g id="a_edge21&#45;headlabel"><a xlink:href="dir_000024_000009.html" target="_top" xlink:title="12">
<text text-anchor="middle" x="143.03" y="-200.07" font-family="FreeSans" font-size="10.00">12</text>
</a>
</g>
</g>
<!-- dir_db3afc5e367a93f87ffcc764fb4101bb&#45;&gt;dir_e4d5a5ad095028ae0129065cd60b3253 -->
<g id="edge22" class="edge">
<title>dir_db3afc5e367a93f87ffcc764fb4101bb&#45;&gt;dir_e4d5a5ad095028ae0129065cd60b3253</title>
<path fill="none" stroke="black" d="M174.23,-268.1C167.88,-276.55 159.21,-286.9 150.75,-296.2"/>
<polygon fill="black" stroke="black" points="148.01,-294 143.75,-303.7 153.13,-298.78 148.01,-294"/>
<g id="a_edge22&#45;headlabel"><a xlink:href="dir_000024_000007.html" target="_top" xlink:title="16">
<text text-anchor="middle" x="148.39" y="-286.93" font-family="FreeSans" font-size="10.00">16</text>
</a>
</g>
</g>
<!-- dir_e4d5a5ad095028ae0129065cd60b3253&#45;&gt;dir_35addd29aafebb04e6caa45e6f26d04b -->
<g id="edge27" class="edge">
<title>dir_e4d5a5ad095028ae0129065cd60b3253&#45;&gt;dir_35addd29aafebb04e6caa45e6f26d04b</title>
<path fill="none" stroke="black" d="M125.17,-340.19C124.31,-364.53 118.28,-409.28 112.22,-438.06"/>
<polygon fill="black" stroke="black" points="108.8,-437.35 110,-447.87 115.62,-438.89 108.8,-437.35"/>
<g id="a_edge27&#45;headlabel"><a xlink:href="dir_000007_000008.html" target="_top" xlink:title="57">
<text text-anchor="middle" x="106.82" y="-430.71" font-family="FreeSans" font-size="10.00">57</text>
</a>
</g>
</g>
<!-- dir_e4d5a5ad095028ae0129065cd60b3253&#45;&gt;dir_4ebd611d220344e85b5ba20d026188c7 -->
<g id="edge28" class="edge">
<title>dir_e4d5a5ad095028ae0129065cd60b3253&#45;&gt;dir_4ebd611d220344e85b5ba20d026188c7</title>
<path fill="none" stroke="black" d="M150.35,-336.67C166.94,-346.22 187.99,-359.19 205.01,-370.28"/>
<polygon fill="black" stroke="black" points="203.22,-373.29 213.5,-375.88 207.08,-367.45 203.22,-373.29"/>
<g id="a_edge28&#45;headlabel"><a xlink:href="dir_000007_000003.html" target="_top" xlink:title="16">
<text text-anchor="middle" x="198.66" y="-371.18" font-family="FreeSans" font-size="10.00">16</text>
</a>
</g>
</g>
<!-- dir_e4d5a5ad095028ae0129065cd60b3253&#45;&gt;dir_93b162d06b4c1cfd72a25a3b81dbdc2c -->
<g id="edge29" class="edge">
<title>dir_e4d5a5ad095028ae0129065cd60b3253&#45;&gt;dir_93b162d06b4c1cfd72a25a3b81dbdc2c</title>
<path fill="none" stroke="black" d="M107.97,-303.65C89.47,-274.2 63.24,-212.48 75,-160 83.18,-123.5 103.27,-85.11 119.77,-60.66"/>
<polygon fill="black" stroke="black" points="122.75,-62.51 125.65,-52.32 117.03,-58.47 122.75,-62.51"/>
<g id="a_edge29&#45;headlabel"><a xlink:href="dir_000007_000019.html" target="_top" xlink:title="10">
<text text-anchor="middle" x="123" y="-64.58" font-family="FreeSans" font-size="10.00">10</text>
</a>
</g>
</g>
<!-- dir_e4d5a5ad095028ae0129065cd60b3253&#45;&gt;dir_aefcf59a6fdfc9bd7c340f12bedb31af -->
<g id="edge30" class="edge">
<title>dir_e4d5a5ad095028ae0129065cd60b3253&#45;&gt;dir_aefcf59a6fdfc9bd7c340f12bedb31af</title>
<path fill="none" stroke="black" d="M118.05,-303.87C114.98,-279.67 113.75,-235.21 115.12,-206.39"/>
<polygon fill="black" stroke="black" points="118.63,-206.39 115.77,-196.19 111.64,-205.95 118.63,-206.39"/>
<g id="a_edge30&#45;headlabel"><a xlink:href="dir_000007_000009.html" target="_top" xlink:title="42">
<text text-anchor="middle" x="121.23" y="-207.66" font-family="FreeSans" font-size="10.00">42</text>
</a>
</g>
</g>
<!-- dir_e4d5a5ad095028ae0129065cd60b3253&#45;&gt;dir_b5f61c72b9c3dda97ea9ed0837ced632 -->
<g id="edge31" class="edge">
<title>dir_e4d5a5ad095028ae0129065cd60b3253&#45;&gt;dir_b5f61c72b9c3dda97ea9ed0837ced632</title>
<path fill="none" stroke="black" d="M122.5,-303.95C127.23,-272.28 144.95,-206.63 147,-196 150.96,-175.49 153.79,-152.04 156.88,-134.35"/>
<polygon fill="black" stroke="black" points="160.39,-134.65 158.85,-124.17 153.51,-133.32 160.39,-134.65"/>
<g id="a_edge31&#45;headlabel"><a xlink:href="dir_000007_000022.html" target="_top" xlink:title="2">
<text text-anchor="middle" x="162.49" y="-136.22" font-family="FreeSans" font-size="10.00">2</text>
</a>
</g>
</g>
<!-- dir_e4d5a5ad095028ae0129065cd60b3253&#45;&gt;dir_db3afc5e367a93f87ffcc764fb4101bb -->
<g id="edge32" class="edge">
<title>dir_e4d5a5ad095028ae0129065cd60b3253&#45;&gt;dir_db3afc5e367a93f87ffcc764fb4101bb</title>
<path fill="none" stroke="black" d="M131.92,-303.7C138.31,-295.22 147,-284.86 155.45,-275.58"/>
<polygon fill="black" stroke="black" points="158.17,-277.8 162.44,-268.1 153.06,-273.02 158.17,-277.8"/>
<g id="a_edge32&#45;headlabel"><a xlink:href="dir_000007_000024.html" target="_top" xlink:title="5">
<text text-anchor="middle" x="157.79" y="-279.86" font-family="FreeSans" font-size="10.00">5</text>
</a>
</g>
</g>
<!-- dir_f159b4233b0d275253ec9ce84ea069f2 -->
<g id="node8" class="node">
<title>dir_f159b4233b0d275253ec9ce84ea069f2</title>
<g id="a_node8"><a xlink:href="dir_f159b4233b0d275253ec9ce84ea069f2.html" target="_top" xlink:title="analytics">
<polygon fill="#eeeeff" stroke="black" points="216.5,-556 161.5,-556 161.5,-520 216.5,-520 216.5,-556"/>
<text text-anchor="middle" x="189" y="-535.5" font-family="FreeSans" font-size="10.00">analytics</text>
</a>
</g>
</g>
<!-- dir_f159b4233b0d275253ec9ce84ea069f2&#45;&gt;dir_35addd29aafebb04e6caa45e6f26d04b -->
<g id="edge33" class="edge">
<title>dir_f159b4233b0d275253ec9ce84ea069f2&#45;&gt;dir_35addd29aafebb04e6caa45e6f26d04b</title>
<path fill="none" stroke="black" d="M167.74,-519.7C156.91,-510.88 143.58,-500.03 131.84,-490.47"/>
<polygon fill="black" stroke="black" points="133.98,-487.7 124.01,-484.1 129.56,-493.13 133.98,-487.7"/>
<g id="a_edge33&#45;headlabel"><a xlink:href="dir_000006_000008.html" target="_top" xlink:title="6">
<text text-anchor="middle" x="138.56" y="-485.27" font-family="FreeSans" font-size="10.00">6</text>
</a>
</g>
</g>
<!-- dir_f159b4233b0d275253ec9ce84ea069f2&#45;&gt;dir_4ebd611d220344e85b5ba20d026188c7 -->
<g id="edge34" class="edge">
<title>dir_f159b4233b0d275253ec9ce84ea069f2&#45;&gt;dir_4ebd611d220344e85b5ba20d026188c7</title>
<path fill="none" stroke="black" d="M194.55,-519.87C202.42,-495.56 216.92,-450.82 226.25,-422.01"/>
<polygon fill="black" stroke="black" points="229.68,-422.78 229.43,-412.19 223.02,-420.62 229.68,-422.78"/>
<g id="a_edge34&#45;headlabel"><a xlink:href="dir_000006_000003.html" target="_top" xlink:title="2">
<text text-anchor="middle" x="231.27" y="-424.58" font-family="FreeSans" font-size="10.00">2</text>
</a>
</g>
</g>
<!-- dir_f159b4233b0d275253ec9ce84ea069f2&#45;&gt;dir_93b162d06b4c1cfd72a25a3b81dbdc2c -->
<g id="edge35" class="edge">
<title>dir_f159b4233b0d275253ec9ce84ea069f2&#45;&gt;dir_93b162d06b4c1cfd72a25a3b81dbdc2c</title>
<path fill="none" stroke="black" d="M216.53,-520.9C251.96,-497.88 309,-451.97 309,-395 309,-395 309,-395 309,-177 309,-117.8 247.28,-78 199.11,-55.95"/>
<polygon fill="black" stroke="black" points="200.24,-52.62 189.68,-51.78 197.41,-59.03 200.24,-52.62"/>
<g id="a_edge35&#45;headlabel"><a xlink:href="dir_000006_000019.html" target="_top" xlink:title="2">
<text text-anchor="middle" x="204.68" y="-48.98" font-family="FreeSans" font-size="10.00">2</text>
</a>
</g>
</g>
<!-- dir_f159b4233b0d275253ec9ce84ea069f2&#45;&gt;dir_aefcf59a6fdfc9bd7c340f12bedb31af -->
<g id="edge36" class="edge">
<title>dir_f159b4233b0d275253ec9ce84ea069f2&#45;&gt;dir_aefcf59a6fdfc9bd7c340f12bedb31af</title>
<path fill="none" stroke="black" d="M161.37,-533.7C132.27,-528.59 87.83,-515.77 67,-484 5.34,-389.99 52.91,-338.48 89,-232 92.17,-222.66 97.09,-213.15 102.1,-204.81"/>
<polygon fill="black" stroke="black" points="105.1,-206.61 107.47,-196.28 99.18,-202.87 105.1,-206.61"/>
<g id="a_edge36&#45;headlabel"><a xlink:href="dir_000006_000009.html" target="_top" xlink:title="7">
<text text-anchor="middle" x="105.58" y="-208.66" font-family="FreeSans" font-size="10.00">7</text>
</a>
</g>
</g>
<!-- dir_f159b4233b0d275253ec9ce84ea069f2&#45;&gt;dir_b5f61c72b9c3dda97ea9ed0837ced632 -->
<g id="edge37" class="edge">
<title>dir_f159b4233b0d275253ec9ce84ea069f2&#45;&gt;dir_b5f61c72b9c3dda97ea9ed0837ced632</title>
<path fill="none" stroke="black" d="M205.22,-519.67C225.22,-496.98 258.15,-455.02 271,-412 275.58,-396.67 272.69,-391.91 271,-376 260.47,-277.04 262.94,-245.49 212,-160 206.04,-150 198.18,-140.01 190.7,-131.44"/>
<polygon fill="black" stroke="black" points="193.3,-129.1 184,-124.01 188.1,-133.78 193.3,-129.1"/>
<g id="a_edge37&#45;headlabel"><a xlink:href="dir_000006_000022.html" target="_top" xlink:title="3">
<text text-anchor="middle" x="197.82" y="-127.36" font-family="FreeSans" font-size="10.00">3</text>
</a>
</g>
</g>
<!-- dir_f159b4233b0d275253ec9ce84ea069f2&#45;&gt;dir_db3afc5e367a93f87ffcc764fb4101bb -->
<g id="edge38" class="edge">
<title>dir_f159b4233b0d275253ec9ce84ea069f2&#45;&gt;dir_db3afc5e367a93f87ffcc764fb4101bb</title>
<path fill="none" stroke="black" d="M188.64,-519.97C187.64,-472.29 184.81,-337.18 183.58,-278.63"/>
<polygon fill="black" stroke="black" points="187.07,-278.23 183.36,-268.31 180.07,-278.38 187.07,-278.23"/>
<g id="a_edge38&#45;headlabel"><a xlink:href="dir_000006_000024.html" target="_top" xlink:title="1">
<text text-anchor="middle" x="189.99" y="-279.27" font-family="FreeSans" font-size="10.00">1</text>
</a>
</g>
</g>
<!-- dir_f159b4233b0d275253ec9ce84ea069f2&#45;&gt;dir_e4d5a5ad095028ae0129065cd60b3253 -->
<g id="edge39" class="edge">
<title>dir_f159b4233b0d275253ec9ce84ea069f2&#45;&gt;dir_e4d5a5ad095028ae0129065cd60b3253</title>
<path fill="none" stroke="black" d="M183.71,-519.85C172.25,-482.68 145.03,-394.44 131.27,-349.82"/>
<polygon fill="black" stroke="black" points="134.61,-348.76 128.31,-340.23 127.92,-350.82 134.61,-348.76"/>
<g id="a_edge39&#45;headlabel"><a xlink:href="dir_000006_000007.html" target="_top" xlink:title="6">
<text text-anchor="middle" x="138.38" y="-348.86" font-family="FreeSans" font-size="10.00">6</text>
</a>
</g>
</g>
</g>
</svg>
        <g id="navigator" transform="translate(0 0)" fill="#404254">
                <rect fill="#f2f5e9" fill-opacity="0.5" stroke="#606060" stroke-width=".5" x="0" y="0" width="60" height="60"/>
                <use id="zoomplus" xlink:href="#zoomPlus" x="17" y="9" onmousedown="handleZoom(evt,'in')"/>
                <use id="zoomminus" xlink:href="#zoomMin" x="42" y="9" onmousedown="handleZoom(evt,'out')"/>
                <use id="reset" xlink:href="#resetDef" x="30" y="36" onmousedown="handleReset()"/>
                <g id="arrowUp" xlink:href="#dirArrow" transform="translate(30 24)" onmousedown="handlePan(0,-1)">
                  <use xlink:href="#rim" fill="#404040">
                        <set attributeName="fill" to="#808080" begin="arrowUp.mouseover" end="arrowUp.mouseout"/>
                  </use>
                  <path fill="none" stroke="white" stroke-width="1.5" d="M0,-3.0v7 M-2.5,-0.5L0,-3.0L2.5,-0.5"/>
                </g>
                <g id="arrowRight" xlink:href="#dirArrow" transform="rotate(90) translate(36 -43)" onmousedown="handlePan(1,0)">
                  <use xlink:href="#rim" fill="#404040">
                        <set attributeName="fill" to="#808080" begin="arrowRight.mouseover" end="arrowRight.mouseout"/>
                  </use>
                  <path fill="none" stroke="white" stroke-width="1.5" d="M0,-3.0v7 M-2.5,-0.5L0,-3.0L2.5,-0.5"/>
                </g>
                <g id="arrowDown" xlink:href="#dirArrow" transform="rotate(180) translate(-30 -48)" onmousedown="handlePan(0,1)">
                  <use xlink:href="#rim" fill="#404040">
                        <set attributeName="fill" to="#808080" begin="arrowDown.mouseover" end="arrowDown.mouseout"/>
                  </use>
                  <path fill="none" stroke="white" stroke-width="1.5" d="M0,-3.0v7 M-2.5,-0.5L0,-3.0L2.5,-0.5"/>
                </g>
                <g id="arrowLeft" xlink:href="#dirArrow" transform="rotate(270) translate(-36 17)" onmousedown="handlePan(-1,0)">
                  <use xlink:href="#rim" fill="#404040">
                        <set attributeName="fill" to="#808080" begin="arrowLeft.mouseover" end="arrowLeft.mouseout"/>
                  </use>
                  <path fill="none" stroke="white" stroke-width="1.5" d="M0,-3.0v7 M-2.5,-0.5L0,-3.0L2.5,-0.5"/>
                </g>
        </g>
        <svg viewBox="0 0 15 15" width="100%" height="30px" preserveAspectRatio="xMaxYMin meet">
         <g id="arrow_out" transform="scale(0.3 0.3)">
          <a xlink:href="dir_f159b4233b0d275253ec9ce84ea069f2_dep_org.svg" target="_base">
           <rect id="button" ry="5" rx="5" y="6" x="6" height="38" width="38"
                fill="#f2f5e9" fill-opacity="0.5" stroke="#606060" stroke-width="1.0"/>
           <path id="arrow"
             d="M 11.500037,31.436501 C 11.940474,20.09759 22.043105,11.32322 32.158766,21.979434 L 37.068811,17.246167 C 37.068811,17.246167 37.088388,32 37.088388,32 L 22.160133,31.978069 C 22.160133,31.978069 26.997745,27.140456 26.997745,27.140456 C 18.528582,18.264221 13.291696,25.230495 11.500037,31.436501 z"
             style="fill:#404040;"/>
          </a>
         </g>
        </svg>
</svg>
