<?xml version="1.0" encoding="UTF-8" standalone="no"?>
<!DOCTYPE svg PUBLIC "-//W3C//DTD SVG 1.1//EN"
 "http://www.w3.org/Graphics/SVG/1.1/DTD/svg11.dtd">
<!-- Generated by graphviz version 2.43.0 (0)
 -->
<!-- Title: output Pages: 1 -->
<!--zoomable 455 -->
<svg id="main" version="1.1" xmlns="http://www.w3.org/2000/svg" xmlns:xlink="http://www.w3.org/1999/xlink" xml:space="preserve" onload="init(evt)">
<style type="text/css"><![CDATA[
.edge:hover path { stroke: red; }
.edge:hover polygon { stroke: red; fill: red; }
]]></style>
<script type="text/javascript"><![CDATA[
var edges = document.getElementsByTagName('g');
if (edges && edges.length) {
  for (var i=0;i<edges.length;i++) {
    if (edges[i].id.substr(0,4)=='edge') {
      edges[i].setAttribute('class','edge');
    }
  }
}
]]></script>
        <defs>
                <circle id="rim" cx="0" cy="0" r="7"/>
                <circle id="rim2" cx="0" cy="0" r="3.5"/>
                <g id="zoomPlus">
                        <use xlink:href="#rim" fill="#404040">
                                <set attributeName="fill" to="#808080" begin="zoomplus.mouseover" end="zoomplus.mouseout"/>
                        </use>
                        <path d="M-4,0h8M0,-4v8" fill="none" stroke="white" stroke-width="1.5" pointer-events="none"/>
                </g>
                <g id="zoomMin">
                        <use xlink:href="#rim" fill="#404040">
                                <set attributeName="fill" to="#808080" begin="zoomminus.mouseover" end="zoomminus.mouseout"/>
                        </use>
                        <path d="M-4,0h8" fill="none" stroke="white" stroke-width="1.5" pointer-events="none"/>
                </g>
                <g id="dirArrow">
                        <path fill="none" stroke="white" stroke-width="1.5" d="M0,-3.0v7 M-2.5,-0.5L0,-3.0L2.5,-0.5"/>
                </g>
               <g id="resetDef">
                       <use xlink:href="#rim2" fill="#404040">
                               <set attributeName="fill" to="#808080" begin="reset.mouseover" end="reset.mouseout"/>
                       </use>
               </g>
        </defs>

<script type="text/javascript">
var viewWidth = 214;
var viewHeight = 455;
var sectionId = 'dynsection-0';
</script>
<script xlink:href="svgpan.js"/>
<svg id="graph" class="graph">
<g id="viewport">
<title>output</title>
<polygon fill="white" stroke="transparent" points="-4,4 -4,-451 210,-451 210,4 -4,4"/>
<g id="clust1" class="cluster">
<title>clusterdir_db7313a27b1cae523c7773e30bdf986c</title>
<g id="a_clust1"><a xlink:href="dir_db7313a27b1cae523c7773e30bdf986c.html" target="_top" xlink:title="copasi">
<polygon fill="#ddddee" stroke="black" points="8,-8 8,-439 198,-439 198,-8 8,-8"/>
<text text-anchor="middle" x="103" y="-427" font-family="FreeSans" font-size="10.00">copasi</text>
</a>
</g>
</g>
<!-- dir_35addd29aafebb04e6caa45e6f26d04b -->
<g id="node1" class="node">
<title>dir_35addd29aafebb04e6caa45e6f26d04b</title>
<g id="a_node1"><a xlink:href="dir_35addd29aafebb04e6caa45e6f26d04b.html" target="_top" xlink:title="core">
<polygon fill="none" stroke="black" points="130,-412 76,-412 76,-376 130,-376 130,-412"/>
<text text-anchor="middle" x="103" y="-391.5" font-family="FreeSans" font-size="10.00">core</text>
</a>
</g>
</g>
<!-- dir_93b162d06b4c1cfd72a25a3b81dbdc2c -->
<g id="node2" class="node">
<title>dir_93b162d06b4c1cfd72a25a3b81dbdc2c</title>
<g id="a_node2"><a xlink:href="dir_93b162d06b4c1cfd72a25a3b81dbdc2c.html" target="_top" xlink:title="CopasiDataModel">
<polygon fill="none" stroke="black" points="149.5,-340 56.5,-340 56.5,-304 149.5,-304 149.5,-340"/>
<text text-anchor="middle" x="103" y="-319.5" font-family="FreeSans" font-size="10.00">CopasiDataModel</text>
</a>
</g>
</g>
<!-- dir_35addd29aafebb04e6caa45e6f26d04b&#45;&gt;dir_93b162d06b4c1cfd72a25a3b81dbdc2c -->
<g id="edge19" class="edge">
<title>dir_35addd29aafebb04e6caa45e6f26d04b&#45;&gt;dir_93b162d06b4c1cfd72a25a3b81dbdc2c</title>
<path fill="none" stroke="black" d="M97.08,-375.7C96.29,-367.98 96.06,-358.71 96.4,-350.11"/>
<polygon fill="black" stroke="black" points="99.9,-350.32 97.1,-340.1 92.92,-349.84 99.9,-350.32"/>
<g id="a_edge19&#45;headlabel"><a xlink:href="dir_000008_000019.html" target="_top" xlink:title="5">
<text text-anchor="middle" x="102.48" y="-351.61" font-family="FreeSans" font-size="10.00">5</text>
</a>
</g>
</g>
<!-- dir_aefcf59a6fdfc9bd7c340f12bedb31af -->
<g id="node3" class="node">
<title>dir_aefcf59a6fdfc9bd7c340f12bedb31af</title>
<g id="a_node3"><a xlink:href="dir_aefcf59a6fdfc9bd7c340f12bedb31af.html" target="_top" xlink:title="utilities">
<polygon fill="none" stroke="black" points="130,-124 76,-124 76,-88 130,-88 130,-124"/>
<text text-anchor="middle" x="103" y="-103.5" font-family="FreeSans" font-size="10.00">utilities</text>
</a>
</g>
</g>
<!-- dir_35addd29aafebb04e6caa45e6f26d04b&#45;&gt;dir_aefcf59a6fdfc9bd7c340f12bedb31af -->
<g id="edge20" class="edge">
<title>dir_35addd29aafebb04e6caa45e6f26d04b&#45;&gt;dir_aefcf59a6fdfc9bd7c340f12bedb31af</title>
<path fill="none" stroke="black" d="M76,-380.54C61.81,-371.13 46.21,-356.96 39,-340 8.5,-268.25 52.22,-176.55 81.32,-132.66"/>
<polygon fill="black" stroke="black" points="84.29,-134.51 87.09,-124.29 78.53,-130.53 84.29,-134.51"/>
<g id="a_edge20&#45;headlabel"><a xlink:href="dir_000008_000009.html" target="_top" xlink:title="13">
<text text-anchor="middle" x="84.59" y="-136.58" font-family="FreeSans" font-size="10.00">13</text>
</a>
</g>
</g>
<!-- dir_93b162d06b4c1cfd72a25a3b81dbdc2c&#45;&gt;dir_35addd29aafebb04e6caa45e6f26d04b -->
<g id="edge22" class="edge">
<title>dir_93b162d06b4c1cfd72a25a3b81dbdc2c&#45;&gt;dir_35addd29aafebb04e6caa45e6f26d04b</title>
<path fill="none" stroke="black" d="M108.9,-340.1C109.7,-347.79 109.94,-357.05 109.6,-365.67"/>
<polygon fill="black" stroke="black" points="106.11,-365.48 108.92,-375.7 113.09,-365.96 106.11,-365.48"/>
<g id="a_edge22&#45;headlabel"><a xlink:href="dir_000019_000008.html" target="_top" xlink:title="7">
<text text-anchor="middle" x="103.52" y="-359.2" font-family="FreeSans" font-size="10.00">7</text>
</a>
</g>
</g>
<!-- dir_93b162d06b4c1cfd72a25a3b81dbdc2c&#45;&gt;dir_aefcf59a6fdfc9bd7c340f12bedb31af -->
<g id="edge23" class="edge">
<title>dir_93b162d06b4c1cfd72a25a3b81dbdc2c&#45;&gt;dir_aefcf59a6fdfc9bd7c340f12bedb31af</title>
<path fill="none" stroke="black" d="M92.34,-303.87C89.58,-293.52 87.79,-280.04 87,-268 83.85,-220.1 83.85,-207.9 87,-160 87.56,-151.53 88.61,-142.36 90.14,-134.06"/>
<polygon fill="black" stroke="black" points="93.59,-134.65 92.34,-124.13 86.76,-133.14 93.59,-134.65"/>
<g id="a_edge23&#45;headlabel"><a xlink:href="dir_000019_000009.html" target="_top" xlink:title="9">
<text text-anchor="middle" x="95.59" y="-136.27" font-family="FreeSans" font-size="10.00">9</text>
</a>
</g>
</g>
<!-- dir_b5f61c72b9c3dda97ea9ed0837ced632 -->
<g id="node4" class="node">
<title>dir_b5f61c72b9c3dda97ea9ed0837ced632</title>
<g id="a_node4"><a xlink:href="dir_b5f61c72b9c3dda97ea9ed0837ced632.html" target="_top" xlink:title="trajectory">
<polygon fill="none" stroke="black" points="131,-52 75,-52 75,-16 131,-16 131,-52"/>
<text text-anchor="middle" x="103" y="-31.5" font-family="FreeSans" font-size="10.00">trajectory</text>
</a>
</g>
</g>
<!-- dir_93b162d06b4c1cfd72a25a3b81dbdc2c&#45;&gt;dir_b5f61c72b9c3dda97ea9ed0837ced632 -->
<g id="edge24" class="edge">
<title>dir_93b162d06b4c1cfd72a25a3b81dbdc2c&#45;&gt;dir_b5f61c72b9c3dda97ea9ed0837ced632</title>
<path fill="none" stroke="black" d="M90.58,-303.96C69.62,-264.94 33.88,-166.44 58,-88 61.04,-78.11 66.62,-68.41 72.93,-60.07"/>
<polygon fill="black" stroke="black" points="75.74,-62.16 79.41,-52.23 70.35,-57.71 75.74,-62.16"/>
<g id="a_edge24&#45;headlabel"><a xlink:href="dir_000019_000022.html" target="_top" xlink:title="2">
<text text-anchor="middle" x="75.64" y="-64.24" font-family="FreeSans" font-size="10.00">2</text>
</a>
</g>
</g>
<!-- dir_11b154132bdfd0c90346ea3b63757907 -->
<g id="node6" class="node">
<title>dir_11b154132bdfd0c90346ea3b63757907</title>
<g id="a_node6"><a xlink:href="dir_11b154132bdfd0c90346ea3b63757907.html" target="_top" xlink:title="output">
<polygon fill="#eeeeff" stroke="black" points="170,-268 116,-268 116,-232 170,-232 170,-268"/>
<text text-anchor="middle" x="143" y="-247.5" font-family="FreeSans" font-size="10.00">output</text>
</a>
</g>
</g>
<!-- dir_93b162d06b4c1cfd72a25a3b81dbdc2c&#45;&gt;dir_11b154132bdfd0c90346ea3b63757907 -->
<g id="edge21" class="edge">
<title>dir_93b162d06b4c1cfd72a25a3b81dbdc2c&#45;&gt;dir_11b154132bdfd0c90346ea3b63757907</title>
<path fill="none" stroke="black" d="M106.97,-303.7C110.78,-295.56 116.22,-285.69 121.78,-276.7"/>
<polygon fill="black" stroke="black" points="124.85,-278.4 127.33,-268.1 118.97,-274.61 124.85,-278.4"/>
<g id="a_edge21&#45;headlabel"><a xlink:href="dir_000019_000035.html" target="_top" xlink:title="1">
<text text-anchor="middle" x="125.28" y="-280.46" font-family="FreeSans" font-size="10.00">1</text>
</a>
</g>
</g>
<!-- dir_aefcf59a6fdfc9bd7c340f12bedb31af&#45;&gt;dir_35addd29aafebb04e6caa45e6f26d04b -->
<g id="edge12" class="edge">
<title>dir_aefcf59a6fdfc9bd7c340f12bedb31af&#45;&gt;dir_35addd29aafebb04e6caa45e6f26d04b</title>
<path fill="none" stroke="black" d="M96.44,-124.29C76.6,-163.82 24.4,-263.31 57,-340 61.69,-351.03 69.92,-360.87 78.21,-368.99"/>
<polygon fill="black" stroke="black" points="76.02,-371.74 85.74,-375.95 80.77,-366.6 76.02,-371.74"/>
<g id="a_edge12&#45;headlabel"><a xlink:href="dir_000009_000008.html" target="_top" xlink:title="46">
<text text-anchor="middle" x="71.45" y="-368.88" font-family="FreeSans" font-size="10.00">46</text>
</a>
</g>
</g>
<!-- dir_aefcf59a6fdfc9bd7c340f12bedb31af&#45;&gt;dir_93b162d06b4c1cfd72a25a3b81dbdc2c -->
<g id="edge13" class="edge">
<title>dir_aefcf59a6fdfc9bd7c340f12bedb31af&#45;&gt;dir_93b162d06b4c1cfd72a25a3b81dbdc2c</title>
<path fill="none" stroke="black" d="M107.98,-124.13C107.58,-134.48 105.79,-147.96 105,-160 101.85,-207.9 101.85,-220.1 105,-268 105.55,-276.37 106.58,-285.44 107.3,-293.67"/>
<polygon fill="black" stroke="black" points="103.82,-294.13 107.98,-303.87 110.8,-293.66 103.82,-294.13"/>
<g id="a_edge13&#45;headlabel"><a xlink:href="dir_000009_000019.html" target="_top" xlink:title="4">
<text text-anchor="middle" x="100.75" y="-288.23" font-family="FreeSans" font-size="10.00">4</text>
</a>
</g>
</g>
<!-- dir_aefcf59a6fdfc9bd7c340f12bedb31af&#45;&gt;dir_b5f61c72b9c3dda97ea9ed0837ced632 -->
<g id="edge14" class="edge">
<title>dir_aefcf59a6fdfc9bd7c340f12bedb31af&#45;&gt;dir_b5f61c72b9c3dda97ea9ed0837ced632</title>
<path fill="none" stroke="black" d="M97.08,-87.7C96.29,-79.98 96.06,-70.71 96.4,-62.11"/>
<polygon fill="black" stroke="black" points="99.9,-62.32 97.1,-52.1 92.92,-61.84 99.9,-62.32"/>
<g id="a_edge14&#45;headlabel"><a xlink:href="dir_000009_000022.html" target="_top" xlink:title="13">
<text text-anchor="middle" x="102.48" y="-63.61" font-family="FreeSans" font-size="10.00">13</text>
</a>
</g>
</g>
<!-- dir_db3afc5e367a93f87ffcc764fb4101bb -->
<g id="node5" class="node">
<title>dir_db3afc5e367a93f87ffcc764fb4101bb</title>
<g id="a_node5"><a xlink:href="dir_db3afc5e367a93f87ffcc764fb4101bb.html" target="_top" xlink:title="math">
<polygon fill="none" stroke="black" points="170,-196 116,-196 116,-160 170,-160 170,-196"/>
<text text-anchor="middle" x="143" y="-175.5" font-family="FreeSans" font-size="10.00">math</text>
</a>
</g>
</g>
<!-- dir_aefcf59a6fdfc9bd7c340f12bedb31af&#45;&gt;dir_db3afc5e367a93f87ffcc764fb4101bb -->
<g id="edge15" class="edge">
<title>dir_aefcf59a6fdfc9bd7c340f12bedb31af&#45;&gt;dir_db3afc5e367a93f87ffcc764fb4101bb</title>
<path fill="none" stroke="black" d="M118.67,-124.1C124.04,-132.04 129.76,-141.67 134.43,-150.51"/>
<polygon fill="black" stroke="black" points="131.42,-152.32 139.03,-159.7 137.68,-149.19 131.42,-152.32"/>
<g id="a_edge15&#45;headlabel"><a xlink:href="dir_000009_000024.html" target="_top" xlink:title="7">
<text text-anchor="middle" x="127.28" y="-147.87" font-family="FreeSans" font-size="10.00">7</text>
</a>
</g>
</g>
<!-- dir_aefcf59a6fdfc9bd7c340f12bedb31af&#45;&gt;dir_11b154132bdfd0c90346ea3b63757907 -->
<g id="edge11" class="edge">
<title>dir_aefcf59a6fdfc9bd7c340f12bedb31af&#45;&gt;dir_11b154132bdfd0c90346ea3b63757907</title>
<path fill="none" stroke="black" d="M107.73,-124.23C108.6,-142.54 108.05,-172.07 116,-196 119.19,-205.61 124.67,-215.09 130,-223.32"/>
<polygon fill="black" stroke="black" points="127.13,-225.33 135.6,-231.7 132.95,-221.44 127.13,-225.33"/>
<g id="a_edge11&#45;headlabel"><a xlink:href="dir_000009_000035.html" target="_top" xlink:title="2">
<text text-anchor="middle" x="122.78" y="-221.42" font-family="FreeSans" font-size="10.00">2</text>
</a>
</g>
</g>
<!-- dir_b5f61c72b9c3dda97ea9ed0837ced632&#45;&gt;dir_35addd29aafebb04e6caa45e6f26d04b -->
<g id="edge7" class="edge">
<title>dir_b5f61c72b9c3dda97ea9ed0837ced632&#45;&gt;dir_35addd29aafebb04e6caa45e6f26d04b</title>
<path fill="none" stroke="black" d="M83.91,-52.23C58.58,-77.09 17,-125.7 17,-177 17,-251 17,-251 17,-251 17,-291.36 13.76,-305.68 35,-340 42.99,-352.9 55.31,-363.9 67.29,-372.48"/>
<polygon fill="black" stroke="black" points="65.64,-375.58 75.88,-378.29 69.56,-369.79 65.64,-375.58"/>
<g id="a_edge7&#45;headlabel"><a xlink:href="dir_000022_000008.html" target="_top" xlink:title="34">
<text text-anchor="middle" x="61.07" y="-373.42" font-family="FreeSans" font-size="10.00">34</text>
</a>
</g>
</g>
<!-- dir_b5f61c72b9c3dda97ea9ed0837ced632&#45;&gt;dir_93b162d06b4c1cfd72a25a3b81dbdc2c -->
<g id="edge8" class="edge">
<title>dir_b5f61c72b9c3dda97ea9ed0837ced632&#45;&gt;dir_93b162d06b4c1cfd72a25a3b81dbdc2c</title>
<path fill="none" stroke="black" d="M95.37,-52.23C88.63,-61.97 80.05,-74.82 76,-88 53.67,-160.62 82.65,-250.43 96.84,-294.32"/>
<polygon fill="black" stroke="black" points="93.54,-295.5 99.93,-303.96 100.21,-293.36 93.54,-295.5"/>
<g id="a_edge8&#45;headlabel"><a xlink:href="dir_000022_000019.html" target="_top" xlink:title="7">
<text text-anchor="middle" x="89.74" y="-290.45" font-family="FreeSans" font-size="10.00">7</text>
</a>
</g>
</g>
<!-- dir_b5f61c72b9c3dda97ea9ed0837ced632&#45;&gt;dir_aefcf59a6fdfc9bd7c340f12bedb31af -->
<g id="edge9" class="edge">
<title>dir_b5f61c72b9c3dda97ea9ed0837ced632&#45;&gt;dir_aefcf59a6fdfc9bd7c340f12bedb31af</title>
<path fill="none" stroke="black" d="M108.9,-52.1C109.7,-59.79 109.94,-69.05 109.6,-77.67"/>
<polygon fill="black" stroke="black" points="106.11,-77.48 108.92,-87.7 113.09,-77.96 106.11,-77.48"/>
<g id="a_edge9&#45;headlabel"><a xlink:href="dir_000022_000009.html" target="_top" xlink:title="29">
<text text-anchor="middle" x="103.52" y="-71.2" font-family="FreeSans" font-size="10.00">29</text>
</a>
</g>
</g>
<!-- dir_b5f61c72b9c3dda97ea9ed0837ced632&#45;&gt;dir_db3afc5e367a93f87ffcc764fb4101bb -->
<g id="edge10" class="edge">
<title>dir_b5f61c72b9c3dda97ea9ed0837ced632&#45;&gt;dir_db3afc5e367a93f87ffcc764fb4101bb</title>
<path fill="none" stroke="black" d="M118.37,-52.3C126.07,-62.07 134.65,-74.91 139,-88 145.61,-107.91 146.34,-131.7 145.57,-149.67"/>
<polygon fill="black" stroke="black" points="142.07,-149.57 144.95,-159.77 149.05,-150 142.07,-149.57"/>
<g id="a_edge10&#45;headlabel"><a xlink:href="dir_000022_000024.html" target="_top" xlink:title="22">
<text text-anchor="middle" x="139.45" y="-143.31" font-family="FreeSans" font-size="10.00">22</text>
</a>
</g>
</g>
<!-- dir_b5f61c72b9c3dda97ea9ed0837ced632&#45;&gt;dir_11b154132bdfd0c90346ea3b63757907 -->
<g id="edge6" class="edge">
<title>dir_b5f61c72b9c3dda97ea9ed0837ced632&#45;&gt;dir_11b154132bdfd0c90346ea3b63757907</title>
<path fill="none" stroke="black" d="M127.29,-52.22C137.27,-62.16 148.05,-75.2 156,-88 174.47,-117.75 180.73,-125.74 188,-160 191.32,-175.65 192.7,-180.71 188,-196 184.96,-205.89 179.38,-215.59 173.07,-223.93"/>
<polygon fill="black" stroke="black" points="170.26,-221.84 166.59,-231.77 175.65,-226.29 170.26,-221.84"/>
<g id="a_edge6&#45;headlabel"><a xlink:href="dir_000022_000035.html" target="_top" xlink:title="1">
<text text-anchor="middle" x="170.36" y="-214.76" font-family="FreeSans" font-size="10.00">1</text>
</a>
</g>
</g>
<!-- dir_db3afc5e367a93f87ffcc764fb4101bb&#45;&gt;dir_35addd29aafebb04e6caa45e6f26d04b -->
<g id="edge16" class="edge">
<title>dir_db3afc5e367a93f87ffcc764fb4101bb&#45;&gt;dir_35addd29aafebb04e6caa45e6f26d04b</title>
<path fill="none" stroke="black" d="M158.61,-196.23C166.37,-205.97 174.95,-218.82 179,-232 193.21,-278.21 190.23,-298.16 166,-340 159.22,-351.71 148.83,-362.01 138.44,-370.34"/>
<polygon fill="black" stroke="black" points="136.04,-367.76 130.17,-376.59 140.26,-373.35 136.04,-367.76"/>
<g id="a_edge16&#45;headlabel"><a xlink:href="dir_000024_000008.html" target="_top" xlink:title="24">
<text text-anchor="middle" x="137.2" y="-360.83" font-family="FreeSans" font-size="10.00">24</text>
</a>
</g>
</g>
<!-- dir_db3afc5e367a93f87ffcc764fb4101bb&#45;&gt;dir_93b162d06b4c1cfd72a25a3b81dbdc2c -->
<g id="edge17" class="edge">
<title>dir_db3afc5e367a93f87ffcc764fb4101bb&#45;&gt;dir_93b162d06b4c1cfd72a25a3b81dbdc2c</title>
<path fill="none" stroke="black" d="M127.63,-196.3C119.93,-206.07 111.35,-218.91 107,-232 100.39,-251.91 99.66,-275.7 100.43,-293.67"/>
<polygon fill="black" stroke="black" points="96.95,-294 101.05,-303.77 103.93,-293.57 96.95,-294"/>
<g id="a_edge17&#45;headlabel"><a xlink:href="dir_000024_000019.html" target="_top" xlink:title="1">
<text text-anchor="middle" x="93.89" y="-288.09" font-family="FreeSans" font-size="10.00">1</text>
</a>
</g>
</g>
<!-- dir_db3afc5e367a93f87ffcc764fb4101bb&#45;&gt;dir_aefcf59a6fdfc9bd7c340f12bedb31af -->
<g id="edge18" class="edge">
<title>dir_db3afc5e367a93f87ffcc764fb4101bb&#45;&gt;dir_aefcf59a6fdfc9bd7c340f12bedb31af</title>
<path fill="none" stroke="black" d="M127.2,-159.7C121.82,-151.73 116.1,-142.1 111.45,-133.26"/>
<polygon fill="black" stroke="black" points="114.47,-131.49 106.88,-124.1 108.21,-134.62 114.47,-131.49"/>
<g id="a_edge18&#45;headlabel"><a xlink:href="dir_000024_000009.html" target="_top" xlink:title="12">
<text text-anchor="middle" x="118.62" y="-130.94" font-family="FreeSans" font-size="10.00">12</text>
</a>
</g>
</g>
<!-- dir_11b154132bdfd0c90346ea3b63757907&#45;&gt;dir_35addd29aafebb04e6caa45e6f26d04b -->
<g id="edge1" class="edge">
<title>dir_11b154132bdfd0c90346ea3b63757907&#45;&gt;dir_35addd29aafebb04e6caa45e6f26d04b</title>
<path fill="none" stroke="black" d="M151.66,-268.06C159.75,-286.48 169.18,-316.35 159,-340 154.21,-351.13 145.81,-361.01 136.95,-369.14"/>
<polygon fill="black" stroke="black" points="134.46,-366.66 129.12,-375.82 139,-371.99 134.46,-366.66"/>
<g id="a_edge1&#45;headlabel"><a xlink:href="dir_000035_000008.html" target="_top" xlink:title="3">
<text text-anchor="middle" x="135.35" y="-359.67" font-family="FreeSans" font-size="10.00">3</text>
</a>
</g>
</g>
<!-- dir_11b154132bdfd0c90346ea3b63757907&#45;&gt;dir_93b162d06b4c1cfd72a25a3b81dbdc2c -->
<g id="edge2" class="edge">
<title>dir_11b154132bdfd0c90346ea3b63757907&#45;&gt;dir_93b162d06b4c1cfd72a25a3b81dbdc2c</title>
<path fill="none" stroke="black" d="M139.12,-268.1C135.34,-276.21 129.92,-286.08 124.36,-295.08"/>
<polygon fill="black" stroke="black" points="121.28,-293.39 118.8,-303.7 127.16,-297.19 121.28,-293.39"/>
<g id="a_edge2&#45;headlabel"><a xlink:href="dir_000035_000019.html" target="_top" xlink:title="1">
<text text-anchor="middle" x="120.84" y="-286.34" font-family="FreeSans" font-size="10.00">1</text>
</a>
</g>
</g>
<!-- dir_11b154132bdfd0c90346ea3b63757907&#45;&gt;dir_aefcf59a6fdfc9bd7c340f12bedb31af -->
<g id="edge3" class="edge">
<title>dir_11b154132bdfd0c90346ea3b63757907&#45;&gt;dir_aefcf59a6fdfc9bd7c340f12bedb31af</title>
<path fill="none" stroke="black" d="M119.65,-231.7C110.93,-221.93 102.35,-209.09 98,-196 91.39,-176.09 90.66,-152.3 92.77,-134.33"/>
<polygon fill="black" stroke="black" points="96.26,-134.66 94.38,-124.23 89.35,-133.56 96.26,-134.66"/>
<g id="a_edge3&#45;headlabel"><a xlink:href="dir_000035_000009.html" target="_top" xlink:title="1">
<text text-anchor="middle" x="98.5" y="-136.15" font-family="FreeSans" font-size="10.00">1</text>
</a>
</g>
</g>
<!-- dir_11b154132bdfd0c90346ea3b63757907&#45;&gt;dir_b5f61c72b9c3dda97ea9ed0837ced632 -->
<g id="edge4" class="edge">
<title>dir_11b154132bdfd0c90346ea3b63757907&#45;&gt;dir_b5f61c72b9c3dda97ea9ed0837ced632</title>
<path fill="none" stroke="black" d="M150.63,-231.77C157.37,-222.03 165.95,-209.18 170,-196 174.7,-180.71 173.32,-175.65 170,-160 162.73,-125.74 156.47,-117.75 138,-88 132.04,-78.4 124.48,-68.66 117.78,-60.2"/>
<polygon fill="black" stroke="black" points="120.4,-57.88 111.44,-52.22 114.91,-62.23 120.4,-57.88"/>
<g id="a_edge4&#45;headlabel"><a xlink:href="dir_000035_000022.html" target="_top" xlink:title="1">
<text text-anchor="middle" x="124.86" y="-56.43" font-family="FreeSans" font-size="10.00">1</text>
</a>
</g>
</g>
<!-- dir_11b154132bdfd0c90346ea3b63757907&#45;&gt;dir_db3afc5e367a93f87ffcc764fb4101bb -->
<g id="edge5" class="edge">
<title>dir_11b154132bdfd0c90346ea3b63757907&#45;&gt;dir_db3afc5e367a93f87ffcc764fb4101bb</title>
<path fill="none" stroke="black" d="M143,-231.7C143,-223.98 143,-214.71 143,-206.11"/>
<polygon fill="black" stroke="black" points="146.5,-206.1 143,-196.1 139.5,-206.1 146.5,-206.1"/>
<g id="a_edge5&#45;headlabel"><a xlink:href="dir_000035_000024.html" target="_top" xlink:title="2">
<text text-anchor="middle" x="149.34" y="-207.2" font-family="FreeSans" font-size="10.00">2</text>
</a>
</g>
</g>
</g>
</svg>
        <g id="navigator" transform="translate(0 0)" fill="#404254">
                <rect fill="#f2f5e9" fill-opacity="0.5" stroke="#606060" stroke-width=".5" x="0" y="0" width="60" height="60"/>
                <use id="zoomplus" xlink:href="#zoomPlus" x="17" y="9" onmousedown="handleZoom(evt,'in')"/>
                <use id="zoomminus" xlink:href="#zoomMin" x="42" y="9" onmousedown="handleZoom(evt,'out')"/>
                <use id="reset" xlink:href="#resetDef" x="30" y="36" onmousedown="handleReset()"/>
                <g id="arrowUp" xlink:href="#dirArrow" transform="translate(30 24)" onmousedown="handlePan(0,-1)">
                  <use xlink:href="#rim" fill="#404040">
                        <set attributeName="fill" to="#808080" begin="arrowUp.mouseover" end="arrowUp.mouseout"/>
                  </use>
                  <path fill="none" stroke="white" stroke-width="1.5" d="M0,-3.0v7 M-2.5,-0.5L0,-3.0L2.5,-0.5"/>
                </g>
                <g id="arrowRight" xlink:href="#dirArrow" transform="rotate(90) translate(36 -43)" onmousedown="handlePan(1,0)">
                  <use xlink:href="#rim" fill="#404040">
                        <set attributeName="fill" to="#808080" begin="arrowRight.mouseover" end="arrowRight.mouseout"/>
                  </use>
                  <path fill="none" stroke="white" stroke-width="1.5" d="M0,-3.0v7 M-2.5,-0.5L0,-3.0L2.5,-0.5"/>
                </g>
                <g id="arrowDown" xlink:href="#dirArrow" transform="rotate(180) translate(-30 -48)" onmousedown="handlePan(0,1)">
                  <use xlink:href="#rim" fill="#404040">
                        <set attributeName="fill" to="#808080" begin="arrowDown.mouseover" end="arrowDown.mouseout"/>
                  </use>
                  <path fill="none" stroke="white" stroke-width="1.5" d="M0,-3.0v7 M-2.5,-0.5L0,-3.0L2.5,-0.5"/>
                </g>
                <g id="arrowLeft" xlink:href="#dirArrow" transform="rotate(270) translate(-36 17)" onmousedown="handlePan(-1,0)">
                  <use xlink:href="#rim" fill="#404040">
                        <set attributeName="fill" to="#808080" begin="arrowLeft.mouseover" end="arrowLeft.mouseout"/>
                  </use>
                  <path fill="none" stroke="white" stroke-width="1.5" d="M0,-3.0v7 M-2.5,-0.5L0,-3.0L2.5,-0.5"/>
                </g>
        </g>
        <svg viewBox="0 0 15 15" width="100%" height="30px" preserveAspectRatio="xMaxYMin meet">
         <g id="arrow_out" transform="scale(0.3 0.3)">
          <a xlink:href="dir_11b154132bdfd0c90346ea3b63757907_dep_org.svg" target="_base">
           <rect id="button" ry="5" rx="5" y="6" x="6" height="38" width="38"
                fill="#f2f5e9" fill-opacity="0.5" stroke="#606060" stroke-width="1.0"/>
           <path id="arrow"
             d="M 11.500037,31.436501 C 11.940474,20.09759 22.043105,11.32322 32.158766,21.979434 L 37.068811,17.246167 C 37.068811,17.246167 37.088388,32 37.088388,32 L 22.160133,31.978069 C 22.160133,31.978069 26.997745,27.140456 26.997745,27.140456 C 18.528582,18.264221 13.291696,25.230495 11.500037,31.436501 z"
             style="fill:#404040;"/>
          </a>
         </g>
        </svg>
</svg>
