<?xml version="1.0" encoding="UTF-8" standalone="no"?>
<!DOCTYPE svg PUBLIC "-//W3C//DTD SVG 1.1//EN"
 "http://www.w3.org/Graphics/SVG/1.1/DTD/svg11.dtd">
<!-- Generated by graphviz version 2.43.0 (0)
 -->
<!-- Title: moieties Pages: 1 -->
<!--zoomable 455 -->
<svg id="main" version="1.1" xmlns="http://www.w3.org/2000/svg" xmlns:xlink="http://www.w3.org/1999/xlink" xml:space="preserve" onload="init(evt)">
<style type="text/css"><![CDATA[
.edge:hover path { stroke: red; }
.edge:hover polygon { stroke: red; fill: red; }
]]></style>
<script type="text/javascript"><![CDATA[
var edges = document.getElementsByTagName('g');
if (edges && edges.length) {
  for (var i=0;i<edges.length;i++) {
    if (edges[i].id.substr(0,4)=='edge') {
      edges[i].setAttribute('class','edge');
    }
  }
}
]]></script>
        <defs>
                <circle id="rim" cx="0" cy="0" r="7"/>
                <circle id="rim2" cx="0" cy="0" r="3.5"/>
                <g id="zoomPlus">
                        <use xlink:href="#rim" fill="#404040">
                                <set attributeName="fill" to="#808080" begin="zoomplus.mouseover" end="zoomplus.mouseout"/>
                        </use>
                        <path d="M-4,0h8M0,-4v8" fill="none" stroke="white" stroke-width="1.5" pointer-events="none"/>
                </g>
                <g id="zoomMin">
                        <use xlink:href="#rim" fill="#404040">
                                <set attributeName="fill" to="#808080" begin="zoomminus.mouseover" end="zoomminus.mouseout"/>
                        </use>
                        <path d="M-4,0h8" fill="none" stroke="white" stroke-width="1.5" pointer-events="none"/>
                </g>
                <g id="dirArrow">
                        <path fill="none" stroke="white" stroke-width="1.5" d="M0,-3.0v7 M-2.5,-0.5L0,-3.0L2.5,-0.5"/>
                </g>
               <g id="resetDef">
                       <use xlink:href="#rim2" fill="#404040">
                               <set attributeName="fill" to="#808080" begin="reset.mouseover" end="reset.mouseout"/>
                       </use>
               </g>
        </defs>

<script type="text/javascript">
var viewWidth = 214;
var viewHeight = 455;
var sectionId = 'dynsection-0';
</script>
<script xlink:href="svgpan.js"/>
<svg id="graph" class="graph">
<g id="viewport">
<title>moieties</title>
<polygon fill="white" stroke="transparent" points="-4,4 -4,-451 210,-451 210,4 -4,4"/>
<g id="clust1" class="cluster">
<title>clusterdir_db7313a27b1cae523c7773e30bdf986c</title>
<g id="a_clust1"><a xlink:href="dir_db7313a27b1cae523c7773e30bdf986c.html" target="_top" xlink:title="copasi">
<polygon fill="#ddddee" stroke="black" points="8,-8 8,-439 198,-439 198,-8 8,-8"/>
<text text-anchor="middle" x="103" y="-427" font-family="FreeSans" font-size="10.00">copasi</text>
</a>
</g>
</g>
<!-- dir_35addd29aafebb04e6caa45e6f26d04b -->
<g id="node1" class="node">
<title>dir_35addd29aafebb04e6caa45e6f26d04b</title>
<g id="a_node1"><a xlink:href="dir_35addd29aafebb04e6caa45e6f26d04b.html" target="_top" xlink:title="core">
<polygon fill="none" stroke="black" points="127,-412 73,-412 73,-376 127,-376 127,-412"/>
<text text-anchor="middle" x="100" y="-391.5" font-family="FreeSans" font-size="10.00">core</text>
</a>
</g>
</g>
<!-- dir_4ebd611d220344e85b5ba20d026188c7 -->
<g id="node2" class="node">
<title>dir_4ebd611d220344e85b5ba20d026188c7</title>
<g id="a_node2"><a xlink:href="dir_4ebd611d220344e85b5ba20d026188c7.html" target="_top" xlink:title="report">
<polygon fill="none" stroke="black" points="104,-340 50,-340 50,-304 104,-304 104,-340"/>
<text text-anchor="middle" x="77" y="-319.5" font-family="FreeSans" font-size="10.00">report</text>
</a>
</g>
</g>
<!-- dir_35addd29aafebb04e6caa45e6f26d04b&#45;&gt;dir_4ebd611d220344e85b5ba20d026188c7 -->
<g id="edge13" class="edge">
<title>dir_35addd29aafebb04e6caa45e6f26d04b&#45;&gt;dir_4ebd611d220344e85b5ba20d026188c7</title>
<path fill="none" stroke="black" d="M88.4,-375.7C85.03,-367.9 81.72,-358.51 79.23,-349.83"/>
<polygon fill="black" stroke="black" points="82.61,-348.91 76.72,-340.1 75.83,-350.66 82.61,-348.91"/>
<g id="a_edge13&#45;headlabel"><a xlink:href="dir_000008_000003.html" target="_top" xlink:title="3">
<text text-anchor="middle" x="86.26" y="-349.19" font-family="FreeSans" font-size="10.00">3</text>
</a>
</g>
</g>
<!-- dir_aefcf59a6fdfc9bd7c340f12bedb31af -->
<g id="node3" class="node">
<title>dir_aefcf59a6fdfc9bd7c340f12bedb31af</title>
<g id="a_node3"><a xlink:href="dir_aefcf59a6fdfc9bd7c340f12bedb31af.html" target="_top" xlink:title="utilities">
<polygon fill="none" stroke="black" points="110,-124 56,-124 56,-88 110,-88 110,-124"/>
<text text-anchor="middle" x="83" y="-103.5" font-family="FreeSans" font-size="10.00">utilities</text>
</a>
</g>
</g>
<!-- dir_35addd29aafebb04e6caa45e6f26d04b&#45;&gt;dir_aefcf59a6fdfc9bd7c340f12bedb31af -->
<g id="edge14" class="edge">
<title>dir_35addd29aafebb04e6caa45e6f26d04b&#45;&gt;dir_aefcf59a6fdfc9bd7c340f12bedb31af</title>
<path fill="none" stroke="black" d="M72.92,-381.65C57.49,-372.41 40.02,-357.98 32,-340 0.59,-269.56 37.79,-177.19 63.44,-132.89"/>
<polygon fill="black" stroke="black" points="66.53,-134.56 68.71,-124.19 60.54,-130.93 66.53,-134.56"/>
<g id="a_edge14&#45;headlabel"><a xlink:href="dir_000008_000009.html" target="_top" xlink:title="13">
<text text-anchor="middle" x="67.09" y="-136.61" font-family="FreeSans" font-size="10.00">13</text>
</a>
</g>
</g>
<!-- dir_e4d5a5ad095028ae0129065cd60b3253 -->
<g id="node5" class="node">
<title>dir_e4d5a5ad095028ae0129065cd60b3253</title>
<g id="a_node5"><a xlink:href="dir_e4d5a5ad095028ae0129065cd60b3253.html" target="_top" xlink:title="model">
<polygon fill="none" stroke="black" points="150,-268 96,-268 96,-232 150,-232 150,-268"/>
<text text-anchor="middle" x="123" y="-247.5" font-family="FreeSans" font-size="10.00">model</text>
</a>
</g>
</g>
<!-- dir_35addd29aafebb04e6caa45e6f26d04b&#45;&gt;dir_e4d5a5ad095028ae0129065cd60b3253 -->
<g id="edge15" class="edge">
<title>dir_35addd29aafebb04e6caa45e6f26d04b&#45;&gt;dir_e4d5a5ad095028ae0129065cd60b3253</title>
<path fill="none" stroke="black" d="M96.96,-375.93C98.52,-365.6 101.84,-352.13 104,-340 107.66,-319.46 110.23,-296.01 113.14,-278.34"/>
<polygon fill="black" stroke="black" points="116.65,-278.62 115.01,-268.16 109.76,-277.36 116.65,-278.62"/>
<g id="a_edge15&#45;headlabel"><a xlink:href="dir_000008_000007.html" target="_top" xlink:title="2">
<text text-anchor="middle" x="118.79" y="-280.17" font-family="FreeSans" font-size="10.00">2</text>
</a>
</g>
</g>
<!-- dir_4ebd611d220344e85b5ba20d026188c7&#45;&gt;dir_35addd29aafebb04e6caa45e6f26d04b -->
<g id="edge6" class="edge">
<title>dir_4ebd611d220344e85b5ba20d026188c7&#45;&gt;dir_35addd29aafebb04e6caa45e6f26d04b</title>
<path fill="none" stroke="black" d="M88.52,-340.1C91.88,-347.88 95.2,-357.26 97.7,-365.95"/>
<polygon fill="black" stroke="black" points="94.33,-366.89 100.23,-375.7 101.11,-365.14 94.33,-366.89"/>
<g id="a_edge6&#45;headlabel"><a xlink:href="dir_000003_000008.html" target="_top" xlink:title="21">
<text text-anchor="middle" x="90.68" y="-361.63" font-family="FreeSans" font-size="10.00">21</text>
</a>
</g>
</g>
<!-- dir_4ebd611d220344e85b5ba20d026188c7&#45;&gt;dir_aefcf59a6fdfc9bd7c340f12bedb31af -->
<g id="edge7" class="edge">
<title>dir_4ebd611d220344e85b5ba20d026188c7&#45;&gt;dir_aefcf59a6fdfc9bd7c340f12bedb31af</title>
<path fill="none" stroke="black" d="M67.96,-303.82C66.11,-293.46 65.34,-279.98 65,-268 63.64,-220.01 63.19,-207.86 67,-160 67.67,-151.54 68.76,-142.37 70.29,-134.07"/>
<polygon fill="black" stroke="black" points="73.74,-134.65 72.46,-124.14 66.9,-133.16 73.74,-134.65"/>
<g id="a_edge7&#45;headlabel"><a xlink:href="dir_000003_000009.html" target="_top" xlink:title="11">
<text text-anchor="middle" x="75.75" y="-136.27" font-family="FreeSans" font-size="10.00">11</text>
</a>
</g>
</g>
<!-- dir_db3afc5e367a93f87ffcc764fb4101bb -->
<g id="node4" class="node">
<title>dir_db3afc5e367a93f87ffcc764fb4101bb</title>
<g id="a_node4"><a xlink:href="dir_db3afc5e367a93f87ffcc764fb4101bb.html" target="_top" xlink:title="math">
<polygon fill="none" stroke="black" points="150,-196 96,-196 96,-160 150,-160 150,-196"/>
<text text-anchor="middle" x="123" y="-175.5" font-family="FreeSans" font-size="10.00">math</text>
</a>
</g>
</g>
<!-- dir_4ebd611d220344e85b5ba20d026188c7&#45;&gt;dir_db3afc5e367a93f87ffcc764fb4101bb -->
<g id="edge8" class="edge">
<title>dir_4ebd611d220344e85b5ba20d026188c7&#45;&gt;dir_db3afc5e367a93f87ffcc764fb4101bb</title>
<path fill="none" stroke="black" d="M76.52,-303.71C76.56,-285.35 78.21,-255.77 87,-232 90.55,-222.4 96.2,-212.85 101.98,-204.56"/>
<polygon fill="black" stroke="black" points="104.86,-206.55 107.97,-196.42 99.23,-202.4 104.86,-206.55"/>
<g id="a_edge8&#45;headlabel"><a xlink:href="dir_000003_000024.html" target="_top" xlink:title="2">
<text text-anchor="middle" x="105.02" y="-208.63" font-family="FreeSans" font-size="10.00">2</text>
</a>
</g>
</g>
<!-- dir_4ebd611d220344e85b5ba20d026188c7&#45;&gt;dir_e4d5a5ad095028ae0129065cd60b3253 -->
<g id="edge9" class="edge">
<title>dir_4ebd611d220344e85b5ba20d026188c7&#45;&gt;dir_e4d5a5ad095028ae0129065cd60b3253</title>
<path fill="none" stroke="black" d="M82.46,-303.7C87.01,-295.47 93.37,-285.48 99.77,-276.42"/>
<polygon fill="black" stroke="black" points="102.78,-278.24 105.86,-268.1 97.13,-274.1 102.78,-278.24"/>
<g id="a_edge9&#45;headlabel"><a xlink:href="dir_000003_000007.html" target="_top" xlink:title="2">
<text text-anchor="middle" x="102.95" y="-280.32" font-family="FreeSans" font-size="10.00">2</text>
</a>
</g>
</g>
<!-- dir_aefcf59a6fdfc9bd7c340f12bedb31af&#45;&gt;dir_35addd29aafebb04e6caa45e6f26d04b -->
<g id="edge1" class="edge">
<title>dir_aefcf59a6fdfc9bd7c340f12bedb31af&#45;&gt;dir_35addd29aafebb04e6caa45e6f26d04b</title>
<path fill="none" stroke="black" d="M78,-124.19C61.43,-163.94 16.35,-264.54 50,-340 55.03,-351.28 63.78,-361.17 72.64,-369.25"/>
<polygon fill="black" stroke="black" points="70.49,-372.02 80.36,-375.87 75.05,-366.7 70.49,-372.02"/>
<g id="a_edge1&#45;headlabel"><a xlink:href="dir_000009_000008.html" target="_top" xlink:title="46">
<text text-anchor="middle" x="65.92" y="-369.33" font-family="FreeSans" font-size="10.00">46</text>
</a>
</g>
</g>
<!-- dir_aefcf59a6fdfc9bd7c340f12bedb31af&#45;&gt;dir_4ebd611d220344e85b5ba20d026188c7 -->
<g id="edge2" class="edge">
<title>dir_aefcf59a6fdfc9bd7c340f12bedb31af&#45;&gt;dir_4ebd611d220344e85b5ba20d026188c7</title>
<path fill="none" stroke="black" d="M88.1,-124.14C87.75,-134.49 85.96,-147.97 85,-160 81.19,-207.86 81.64,-220.01 83,-268 83.24,-276.33 83.68,-285.38 83.76,-293.61"/>
<polygon fill="black" stroke="black" points="80.25,-293.77 83.6,-303.82 87.25,-293.88 80.25,-293.77"/>
<g id="a_edge2&#45;headlabel"><a xlink:href="dir_000009_000003.html" target="_top" xlink:title="7">
<text text-anchor="middle" x="77.47" y="-287.64" font-family="FreeSans" font-size="10.00">7</text>
</a>
</g>
</g>
<!-- dir_aefcf59a6fdfc9bd7c340f12bedb31af&#45;&gt;dir_db3afc5e367a93f87ffcc764fb4101bb -->
<g id="edge4" class="edge">
<title>dir_aefcf59a6fdfc9bd7c340f12bedb31af&#45;&gt;dir_db3afc5e367a93f87ffcc764fb4101bb</title>
<path fill="none" stroke="black" d="M98.67,-124.1C104.04,-132.04 109.76,-141.67 114.43,-150.51"/>
<polygon fill="black" stroke="black" points="111.42,-152.32 119.03,-159.7 117.68,-149.19 111.42,-152.32"/>
<g id="a_edge4&#45;headlabel"><a xlink:href="dir_000009_000024.html" target="_top" xlink:title="7">
<text text-anchor="middle" x="107.28" y="-147.87" font-family="FreeSans" font-size="10.00">7</text>
</a>
</g>
</g>
<!-- dir_aefcf59a6fdfc9bd7c340f12bedb31af&#45;&gt;dir_e4d5a5ad095028ae0129065cd60b3253 -->
<g id="edge5" class="edge">
<title>dir_aefcf59a6fdfc9bd7c340f12bedb31af&#45;&gt;dir_e4d5a5ad095028ae0129065cd60b3253</title>
<path fill="none" stroke="black" d="M87.73,-124.23C88.6,-142.54 88.05,-172.07 96,-196 99.19,-205.61 104.67,-215.09 110,-223.32"/>
<polygon fill="black" stroke="black" points="107.13,-225.33 115.6,-231.7 112.95,-221.44 107.13,-225.33"/>
<g id="a_edge5&#45;headlabel"><a xlink:href="dir_000009_000007.html" target="_top" xlink:title="11">
<text text-anchor="middle" x="102.78" y="-221.42" font-family="FreeSans" font-size="10.00">11</text>
</a>
</g>
</g>
<!-- dir_9c882d6cd781ed348c2a611e55f17376 -->
<g id="node6" class="node">
<title>dir_9c882d6cd781ed348c2a611e55f17376</title>
<g id="a_node6"><a xlink:href="dir_9c882d6cd781ed348c2a611e55f17376.html" target="_top" xlink:title="moieties">
<polygon fill="#eeeeff" stroke="black" points="133,-52 79,-52 79,-16 133,-16 133,-52"/>
<text text-anchor="middle" x="106" y="-31.5" font-family="FreeSans" font-size="10.00">moieties</text>
</a>
</g>
</g>
<!-- dir_aefcf59a6fdfc9bd7c340f12bedb31af&#45;&gt;dir_9c882d6cd781ed348c2a611e55f17376 -->
<g id="edge3" class="edge">
<title>dir_aefcf59a6fdfc9bd7c340f12bedb31af&#45;&gt;dir_9c882d6cd781ed348c2a611e55f17376</title>
<path fill="none" stroke="black" d="M82.77,-87.7C84.55,-79.81 87.45,-70.3 90.71,-61.55"/>
<polygon fill="black" stroke="black" points="94.02,-62.69 94.48,-52.1 87.52,-60.09 94.02,-62.69"/>
<g id="a_edge3&#45;headlabel"><a xlink:href="dir_000009_000029.html" target="_top" xlink:title="3">
<text text-anchor="middle" x="95.32" y="-64.58" font-family="FreeSans" font-size="10.00">3</text>
</a>
</g>
</g>
<!-- dir_db3afc5e367a93f87ffcc764fb4101bb&#45;&gt;dir_35addd29aafebb04e6caa45e6f26d04b -->
<g id="edge10" class="edge">
<title>dir_db3afc5e367a93f87ffcc764fb4101bb&#45;&gt;dir_35addd29aafebb04e6caa45e6f26d04b</title>
<path fill="none" stroke="black" d="M138.61,-196.23C146.37,-205.97 154.95,-218.82 159,-232 163.7,-247.29 162.5,-252.39 159,-268 150.86,-304.34 130.91,-342.55 116.46,-367.01"/>
<polygon fill="black" stroke="black" points="113.39,-365.31 111.22,-375.68 119.39,-368.93 113.39,-365.31"/>
<g id="a_edge10&#45;headlabel"><a xlink:href="dir_000024_000008.html" target="_top" xlink:title="24">
<text text-anchor="middle" x="112.82" y="-358.27" font-family="FreeSans" font-size="10.00">24</text>
</a>
</g>
</g>
<!-- dir_db3afc5e367a93f87ffcc764fb4101bb&#45;&gt;dir_aefcf59a6fdfc9bd7c340f12bedb31af -->
<g id="edge11" class="edge">
<title>dir_db3afc5e367a93f87ffcc764fb4101bb&#45;&gt;dir_aefcf59a6fdfc9bd7c340f12bedb31af</title>
<path fill="none" stroke="black" d="M107.2,-159.7C101.82,-151.73 96.1,-142.1 91.45,-133.26"/>
<polygon fill="black" stroke="black" points="94.47,-131.49 86.88,-124.1 88.21,-134.62 94.47,-131.49"/>
<g id="a_edge11&#45;headlabel"><a xlink:href="dir_000024_000009.html" target="_top" xlink:title="12">
<text text-anchor="middle" x="98.62" y="-130.94" font-family="FreeSans" font-size="10.00">12</text>
</a>
</g>
</g>
<!-- dir_db3afc5e367a93f87ffcc764fb4101bb&#45;&gt;dir_e4d5a5ad095028ae0129065cd60b3253 -->
<g id="edge12" class="edge">
<title>dir_db3afc5e367a93f87ffcc764fb4101bb&#45;&gt;dir_e4d5a5ad095028ae0129065cd60b3253</title>
<path fill="none" stroke="black" d="M128.9,-196.1C129.7,-203.79 129.94,-213.05 129.6,-221.67"/>
<polygon fill="black" stroke="black" points="126.11,-221.48 128.92,-231.7 133.09,-221.96 126.11,-221.48"/>
<g id="a_edge12&#45;headlabel"><a xlink:href="dir_000024_000007.html" target="_top" xlink:title="16">
<text text-anchor="middle" x="123.52" y="-215.2" font-family="FreeSans" font-size="10.00">16</text>
</a>
</g>
</g>
<!-- dir_e4d5a5ad095028ae0129065cd60b3253&#45;&gt;dir_35addd29aafebb04e6caa45e6f26d04b -->
<g id="edge16" class="edge">
<title>dir_e4d5a5ad095028ae0129065cd60b3253&#45;&gt;dir_35addd29aafebb04e6caa45e6f26d04b</title>
<path fill="none" stroke="black" d="M128.45,-268.16C129.25,-286.15 126.42,-315.2 122,-340 120.47,-348.62 118.34,-357.92 115.84,-366.3"/>
<polygon fill="black" stroke="black" points="112.47,-365.34 112.6,-375.93 119.1,-367.57 112.47,-365.34"/>
<g id="a_edge16&#45;headlabel"><a xlink:href="dir_000007_000008.html" target="_top" xlink:title="57">
<text text-anchor="middle" x="110.92" y="-358.53" font-family="FreeSans" font-size="10.00">57</text>
</a>
</g>
</g>
<!-- dir_e4d5a5ad095028ae0129065cd60b3253&#45;&gt;dir_4ebd611d220344e85b5ba20d026188c7 -->
<g id="edge17" class="edge">
<title>dir_e4d5a5ad095028ae0129065cd60b3253&#45;&gt;dir_4ebd611d220344e85b5ba20d026188c7</title>
<path fill="none" stroke="black" d="M117.66,-268.1C113.13,-276.3 106.78,-286.28 100.38,-295.36"/>
<polygon fill="black" stroke="black" points="97.36,-293.56 94.29,-303.7 103.01,-297.69 97.36,-293.56"/>
<g id="a_edge17&#45;headlabel"><a xlink:href="dir_000007_000003.html" target="_top" xlink:title="16">
<text text-anchor="middle" x="97.19" y="-286.48" font-family="FreeSans" font-size="10.00">16</text>
</a>
</g>
</g>
<!-- dir_e4d5a5ad095028ae0129065cd60b3253&#45;&gt;dir_aefcf59a6fdfc9bd7c340f12bedb31af -->
<g id="edge18" class="edge">
<title>dir_e4d5a5ad095028ae0129065cd60b3253&#45;&gt;dir_aefcf59a6fdfc9bd7c340f12bedb31af</title>
<path fill="none" stroke="black" d="M99.65,-231.7C90.93,-221.93 82.35,-209.09 78,-196 71.39,-176.09 70.66,-152.3 72.77,-134.33"/>
<polygon fill="black" stroke="black" points="76.26,-134.66 74.38,-124.23 69.35,-133.56 76.26,-134.66"/>
<g id="a_edge18&#45;headlabel"><a xlink:href="dir_000007_000009.html" target="_top" xlink:title="42">
<text text-anchor="middle" x="78.5" y="-136.15" font-family="FreeSans" font-size="10.00">42</text>
</a>
</g>
</g>
<!-- dir_e4d5a5ad095028ae0129065cd60b3253&#45;&gt;dir_db3afc5e367a93f87ffcc764fb4101bb -->
<g id="edge19" class="edge">
<title>dir_e4d5a5ad095028ae0129065cd60b3253&#45;&gt;dir_db3afc5e367a93f87ffcc764fb4101bb</title>
<path fill="none" stroke="black" d="M117.08,-231.7C116.29,-223.98 116.06,-214.71 116.4,-206.11"/>
<polygon fill="black" stroke="black" points="119.9,-206.32 117.1,-196.1 112.92,-205.84 119.9,-206.32"/>
<g id="a_edge19&#45;headlabel"><a xlink:href="dir_000007_000024.html" target="_top" xlink:title="5">
<text text-anchor="middle" x="122.48" y="-207.61" font-family="FreeSans" font-size="10.00">5</text>
</a>
</g>
</g>
<!-- dir_9c882d6cd781ed348c2a611e55f17376&#45;&gt;dir_35addd29aafebb04e6caa45e6f26d04b -->
<g id="edge20" class="edge">
<title>dir_9c882d6cd781ed348c2a611e55f17376&#45;&gt;dir_35addd29aafebb04e6caa45e6f26d04b</title>
<path fill="none" stroke="black" d="M124.42,-52.36C148.87,-77.38 189,-126.17 189,-177 189,-251 189,-251 189,-251 189,-298.14 153.36,-342.48 127.18,-368.69"/>
<polygon fill="black" stroke="black" points="124.49,-366.43 119.75,-375.91 129.36,-371.45 124.49,-366.43"/>
<g id="a_edge20&#45;headlabel"><a xlink:href="dir_000029_000008.html" target="_top" xlink:title="1">
<text text-anchor="middle" x="125.09" y="-359.39" font-family="FreeSans" font-size="10.00">1</text>
</a>
</g>
</g>
<!-- dir_9c882d6cd781ed348c2a611e55f17376&#45;&gt;dir_4ebd611d220344e85b5ba20d026188c7 -->
<g id="edge21" class="edge">
<title>dir_9c882d6cd781ed348c2a611e55f17376&#45;&gt;dir_4ebd611d220344e85b5ba20d026188c7</title>
<path fill="none" stroke="black" d="M78.82,-51.66C66.67,-60.74 53.62,-73.16 47,-88 15.96,-157.61 46.22,-249.74 64.83,-294.43"/>
<polygon fill="black" stroke="black" points="61.66,-295.92 68.82,-303.72 68.09,-293.15 61.66,-295.92"/>
<g id="a_edge21&#45;headlabel"><a xlink:href="dir_000029_000003.html" target="_top" xlink:title="2">
<text text-anchor="middle" x="57.63" y="-291.23" font-family="FreeSans" font-size="10.00">2</text>
</a>
</g>
</g>
<!-- dir_9c882d6cd781ed348c2a611e55f17376&#45;&gt;dir_aefcf59a6fdfc9bd7c340f12bedb31af -->
<g id="edge22" class="edge">
<title>dir_9c882d6cd781ed348c2a611e55f17376&#45;&gt;dir_aefcf59a6fdfc9bd7c340f12bedb31af</title>
<path fill="none" stroke="black" d="M106.28,-52.1C104.52,-59.96 101.62,-69.46 98.38,-78.23"/>
<polygon fill="black" stroke="black" points="95.06,-77.11 94.6,-87.7 101.56,-79.71 95.06,-77.11"/>
<g id="a_edge22&#45;headlabel"><a xlink:href="dir_000029_000009.html" target="_top" xlink:title="4">
<text text-anchor="middle" x="93.75" y="-70.22" font-family="FreeSans" font-size="10.00">4</text>
</a>
</g>
</g>
<!-- dir_9c882d6cd781ed348c2a611e55f17376&#45;&gt;dir_db3afc5e367a93f87ffcc764fb4101bb -->
<g id="edge23" class="edge">
<title>dir_9c882d6cd781ed348c2a611e55f17376&#45;&gt;dir_db3afc5e367a93f87ffcc764fb4101bb</title>
<path fill="none" stroke="black" d="M111.07,-52.02C113.92,-62.33 117.25,-75.81 119,-88 121.95,-108.54 122.91,-131.99 123.15,-149.67"/>
<polygon fill="black" stroke="black" points="119.65,-149.87 123.22,-159.85 126.65,-149.82 119.65,-149.87"/>
<g id="a_edge23&#45;headlabel"><a xlink:href="dir_000029_000024.html" target="_top" xlink:title="3">
<text text-anchor="middle" x="116.79" y="-143.79" font-family="FreeSans" font-size="10.00">3</text>
</a>
</g>
</g>
<!-- dir_9c882d6cd781ed348c2a611e55f17376&#45;&gt;dir_e4d5a5ad095028ae0129065cd60b3253 -->
<g id="edge24" class="edge">
<title>dir_9c882d6cd781ed348c2a611e55f17376&#45;&gt;dir_e4d5a5ad095028ae0129065cd60b3253</title>
<path fill="none" stroke="black" d="M115.87,-52.08C128.78,-75.51 150.74,-119.35 159,-160 162.19,-175.68 163.7,-180.71 159,-196 155.99,-205.78 150.49,-215.38 144.68,-223.67"/>
<polygon fill="black" stroke="black" points="141.81,-221.67 138.61,-231.77 147.41,-225.87 141.81,-221.67"/>
<g id="a_edge24&#45;headlabel"><a xlink:href="dir_000029_000007.html" target="_top" xlink:title="2">
<text text-anchor="middle" x="141.69" y="-214.59" font-family="FreeSans" font-size="10.00">2</text>
</a>
</g>
</g>
</g>
</svg>
        <g id="navigator" transform="translate(0 0)" fill="#404254">
                <rect fill="#f2f5e9" fill-opacity="0.5" stroke="#606060" stroke-width=".5" x="0" y="0" width="60" height="60"/>
                <use id="zoomplus" xlink:href="#zoomPlus" x="17" y="9" onmousedown="handleZoom(evt,'in')"/>
                <use id="zoomminus" xlink:href="#zoomMin" x="42" y="9" onmousedown="handleZoom(evt,'out')"/>
                <use id="reset" xlink:href="#resetDef" x="30" y="36" onmousedown="handleReset()"/>
                <g id="arrowUp" xlink:href="#dirArrow" transform="translate(30 24)" onmousedown="handlePan(0,-1)">
                  <use xlink:href="#rim" fill="#404040">
                        <set attributeName="fill" to="#808080" begin="arrowUp.mouseover" end="arrowUp.mouseout"/>
                  </use>
                  <path fill="none" stroke="white" stroke-width="1.5" d="M0,-3.0v7 M-2.5,-0.5L0,-3.0L2.5,-0.5"/>
                </g>
                <g id="arrowRight" xlink:href="#dirArrow" transform="rotate(90) translate(36 -43)" onmousedown="handlePan(1,0)">
                  <use xlink:href="#rim" fill="#404040">
                        <set attributeName="fill" to="#808080" begin="arrowRight.mouseover" end="arrowRight.mouseout"/>
                  </use>
                  <path fill="none" stroke="white" stroke-width="1.5" d="M0,-3.0v7 M-2.5,-0.5L0,-3.0L2.5,-0.5"/>
                </g>
                <g id="arrowDown" xlink:href="#dirArrow" transform="rotate(180) translate(-30 -48)" onmousedown="handlePan(0,1)">
                  <use xlink:href="#rim" fill="#404040">
                        <set attributeName="fill" to="#808080" begin="arrowDown.mouseover" end="arrowDown.mouseout"/>
                  </use>
                  <path fill="none" stroke="white" stroke-width="1.5" d="M0,-3.0v7 M-2.5,-0.5L0,-3.0L2.5,-0.5"/>
                </g>
                <g id="arrowLeft" xlink:href="#dirArrow" transform="rotate(270) translate(-36 17)" onmousedown="handlePan(-1,0)">
                  <use xlink:href="#rim" fill="#404040">
                        <set attributeName="fill" to="#808080" begin="arrowLeft.mouseover" end="arrowLeft.mouseout"/>
                  </use>
                  <path fill="none" stroke="white" stroke-width="1.5" d="M0,-3.0v7 M-2.5,-0.5L0,-3.0L2.5,-0.5"/>
                </g>
        </g>
        <svg viewBox="0 0 15 15" width="100%" height="30px" preserveAspectRatio="xMaxYMin meet">
         <g id="arrow_out" transform="scale(0.3 0.3)">
          <a xlink:href="dir_9c882d6cd781ed348c2a611e55f17376_dep_org.svg" target="_base">
           <rect id="button" ry="5" rx="5" y="6" x="6" height="38" width="38"
                fill="#f2f5e9" fill-opacity="0.5" stroke="#606060" stroke-width="1.0"/>
           <path id="arrow"
             d="M 11.500037,31.436501 C 11.940474,20.09759 22.043105,11.32322 32.158766,21.979434 L 37.068811,17.246167 C 37.068811,17.246167 37.088388,32 37.088388,32 L 22.160133,31.978069 C 22.160133,31.978069 26.997745,27.140456 26.997745,27.140456 C 18.528582,18.264221 13.291696,25.230495 11.500037,31.436501 z"
             style="fill:#404040;"/>
          </a>
         </g>
        </svg>
</svg>
