<?xml version="1.0" encoding="UTF-8" standalone="no"?>
<!DOCTYPE svg PUBLIC "-//W3C//DTD SVG 1.1//EN"
 "http://www.w3.org/Graphics/SVG/1.1/DTD/svg11.dtd">
<!-- Generated by graphviz version 2.43.0 (0)
 -->
<!-- Title: wizard Pages: 1 -->
<svg width="202pt" height="167pt"
 viewBox="0.00 0.00 202.00 167.00" xmlns="http://www.w3.org/2000/svg" xmlns:xlink="http://www.w3.org/1999/xlink">
<g id="graph0" class="graph" transform="scale(1 1) rotate(0) translate(4 163)">
<title>wizard</title>
<polygon fill="white" stroke="transparent" points="-4,4 -4,-163 198,-163 198,4 -4,4"/>
<g id="clust1" class="cluster">
<title>clusterdir_db7313a27b1cae523c7773e30bdf986c</title>
<g id="a_clust1"><a xlink:href="dir_db7313a27b1cae523c7773e30bdf986c.html" target="_top" xlink:title="copasi">
<polygon fill="#ddddee" stroke="black" points="8,-8 8,-151 186,-151 186,-8 8,-8"/>
<text text-anchor="middle" x="97" y="-139" font-family="FreeSans" font-size="10.00">copasi</text>
</a>
</g>
</g>
<!-- dir_8adb744d247f439772c8b14d5ad656f8 -->
<g id="node1" class="node">
<title>dir_8adb744d247f439772c8b14d5ad656f8</title>
<g id="a_node1"><a xlink:href="dir_8adb744d247f439772c8b14d5ad656f8.html" target="_top" xlink:title="resourcesUI">
<polygon fill="none" stroke="black" points="86,-52 16,-52 16,-16 86,-16 86,-52"/>
<text text-anchor="middle" x="51" y="-31.5" font-family="FreeSans" font-size="10.00">resourcesUI</text>
</a>
</g>
</g>
<!-- dir_b9901e150939d9aa0c49934eef95a7bb -->
<g id="node2" class="node">
<title>dir_b9901e150939d9aa0c49934eef95a7bb</title>
<g id="a_node2"><a xlink:href="dir_b9901e150939d9aa0c49934eef95a7bb.html" target="_top" xlink:title="commandline">
<polygon fill="none" stroke="black" points="178,-52 104,-52 104,-16 178,-16 178,-52"/>
<text text-anchor="middle" x="141" y="-31.5" font-family="FreeSans" font-size="10.00">commandline</text>
</a>
</g>
</g>
<!-- dir_47e0bfc24b24560d6daed1dd5515ada8 -->
<g id="node3" class="node">
<title>dir_47e0bfc24b24560d6daed1dd5515ada8</title>
<g id="a_node3"><a xlink:href="dir_47e0bfc24b24560d6daed1dd5515ada8.html" target="_top" xlink:title="wizard">
<polygon fill="#eeeeff" stroke="black" points="123,-124 69,-124 69,-88 123,-88 123,-124"/>
<text text-anchor="middle" x="96" y="-103.5" font-family="FreeSans" font-size="10.00">wizard</text>
</a>
</g>
</g>
<!-- dir_47e0bfc24b24560d6daed1dd5515ada8&#45;&gt;dir_8adb744d247f439772c8b14d5ad656f8 -->
<g id="edge1" class="edge">
<title>dir_47e0bfc24b24560d6daed1dd5515ada8&#45;&gt;dir_8adb744d247f439772c8b14d5ad656f8</title>
<path fill="none" stroke="black" d="M84.88,-87.7C79.64,-79.56 73.3,-69.69 67.52,-60.7"/>
<polygon fill="black" stroke="black" points="70.35,-58.62 62,-52.1 64.46,-62.41 70.35,-58.62"/>
<g id="a_edge1&#45;headlabel"><a xlink:href="dir_000048_000038.html" target="_top" xlink:title="1">
<text text-anchor="middle" x="74.68" y="-57.61" font-family="FreeSans" font-size="10.00">1</text>
</a>
</g>
</g>
<!-- dir_47e0bfc24b24560d6daed1dd5515ada8&#45;&gt;dir_b9901e150939d9aa0c49934eef95a7bb -->
<g id="edge2" class="edge">
<title>dir_47e0bfc24b24560d6daed1dd5515ada8&#45;&gt;dir_b9901e150939d9aa0c49934eef95a7bb</title>
<path fill="none" stroke="black" d="M107.12,-87.7C112.36,-79.56 118.7,-69.69 124.48,-60.7"/>
<polygon fill="black" stroke="black" points="127.54,-62.41 130,-52.1 121.65,-58.62 127.54,-62.41"/>
<g id="a_edge2&#45;headlabel"><a xlink:href="dir_000048_000014.html" target="_top" xlink:title="1">
<text text-anchor="middle" x="127.99" y="-64.47" font-family="FreeSans" font-size="10.00">1</text>
</a>
</g>
</g>
</g>
</svg>
