<?xml version="1.0" encoding="UTF-8" standalone="no"?>
<!DOCTYPE svg PUBLIC "-//W3C//DTD SVG 1.1//EN"
 "http://www.w3.org/Graphics/SVG/1.1/DTD/svg11.dtd">
<!-- Generated by graphviz version 2.43.0 (0)
 -->
<!-- Title: undo Pages: 1 -->
<svg width="194pt" height="383pt"
 viewBox="0.00 0.00 194.00 383.00" xmlns="http://www.w3.org/2000/svg" xmlns:xlink="http://www.w3.org/1999/xlink">
<g id="graph0" class="graph" transform="scale(1 1) rotate(0) translate(4 379)">
<title>undo</title>
<polygon fill="white" stroke="transparent" points="-4,4 -4,-379 190,-379 190,4 -4,4"/>
<g id="clust1" class="cluster">
<title>clusterdir_db7313a27b1cae523c7773e30bdf986c</title>
<g id="a_clust1"><a xlink:href="dir_db7313a27b1cae523c7773e30bdf986c.html" target="_top" xlink:title="copasi">
<polygon fill="#ddddee" stroke="black" points="8,-8 8,-367 178,-367 178,-8 8,-8"/>
<text text-anchor="middle" x="93" y="-355" font-family="FreeSans" font-size="10.00">copasi</text>
</a>
</g>
</g>
<!-- dir_35addd29aafebb04e6caa45e6f26d04b -->
<g id="node1" class="node">
<title>dir_35addd29aafebb04e6caa45e6f26d04b</title>
<g id="a_node1"><a xlink:href="dir_35addd29aafebb04e6caa45e6f26d04b.html" target="_top" xlink:title="core">
<polygon fill="none" stroke="black" points="140,-340 86,-340 86,-304 140,-304 140,-340"/>
<text text-anchor="middle" x="113" y="-319.5" font-family="FreeSans" font-size="10.00">core</text>
</a>
</g>
</g>
<!-- dir_93b162d06b4c1cfd72a25a3b81dbdc2c -->
<g id="node2" class="node">
<title>dir_93b162d06b4c1cfd72a25a3b81dbdc2c</title>
<g id="a_node2"><a xlink:href="dir_93b162d06b4c1cfd72a25a3b81dbdc2c.html" target="_top" xlink:title="CopasiDataModel">
<polygon fill="none" stroke="black" points="129.5,-268 36.5,-268 36.5,-232 129.5,-232 129.5,-268"/>
<text text-anchor="middle" x="83" y="-247.5" font-family="FreeSans" font-size="10.00">CopasiDataModel</text>
</a>
</g>
</g>
<!-- dir_35addd29aafebb04e6caa45e6f26d04b&#45;&gt;dir_93b162d06b4c1cfd72a25a3b81dbdc2c -->
<g id="edge5" class="edge">
<title>dir_35addd29aafebb04e6caa45e6f26d04b&#45;&gt;dir_93b162d06b4c1cfd72a25a3b81dbdc2c</title>
<path fill="none" stroke="black" d="M99.67,-303.7C95.48,-295.81 91.18,-286.3 87.81,-277.55"/>
<polygon fill="black" stroke="black" points="91.09,-276.35 84.44,-268.1 84.5,-278.7 91.09,-276.35"/>
<g id="a_edge5&#45;headlabel"><a xlink:href="dir_000008_000019.html" target="_top" xlink:title="5">
<text text-anchor="middle" x="94.98" y="-276.28" font-family="FreeSans" font-size="10.00">5</text>
</a>
</g>
</g>
<!-- dir_aefcf59a6fdfc9bd7c340f12bedb31af -->
<g id="node3" class="node">
<title>dir_aefcf59a6fdfc9bd7c340f12bedb31af</title>
<g id="a_node3"><a xlink:href="dir_aefcf59a6fdfc9bd7c340f12bedb31af.html" target="_top" xlink:title="utilities">
<polygon fill="none" stroke="black" points="101,-52 47,-52 47,-16 101,-16 101,-52"/>
<text text-anchor="middle" x="74" y="-31.5" font-family="FreeSans" font-size="10.00">utilities</text>
</a>
</g>
</g>
<!-- dir_35addd29aafebb04e6caa45e6f26d04b&#45;&gt;dir_aefcf59a6fdfc9bd7c340f12bedb31af -->
<g id="edge7" class="edge">
<title>dir_35addd29aafebb04e6caa45e6f26d04b&#45;&gt;dir_aefcf59a6fdfc9bd7c340f12bedb31af</title>
<path fill="none" stroke="black" d="M85.85,-314.77C63.08,-307.31 32.67,-292.63 19,-268 -18.81,-199.87 24.27,-105.35 53.04,-60.54"/>
<polygon fill="black" stroke="black" points="56.1,-62.26 58.75,-52.01 50.28,-58.37 56.1,-62.26"/>
<g id="a_edge7&#45;headlabel"><a xlink:href="dir_000008_000009.html" target="_top" xlink:title="13">
<text text-anchor="middle" x="56.45" y="-64.33" font-family="FreeSans" font-size="10.00">13</text>
</a>
</g>
</g>
<!-- dir_e4d5a5ad095028ae0129065cd60b3253 -->
<g id="node4" class="node">
<title>dir_e4d5a5ad095028ae0129065cd60b3253</title>
<g id="a_node4"><a xlink:href="dir_e4d5a5ad095028ae0129065cd60b3253.html" target="_top" xlink:title="model">
<polygon fill="none" stroke="black" points="124,-124 70,-124 70,-88 124,-88 124,-124"/>
<text text-anchor="middle" x="97" y="-103.5" font-family="FreeSans" font-size="10.00">model</text>
</a>
</g>
</g>
<!-- dir_35addd29aafebb04e6caa45e6f26d04b&#45;&gt;dir_e4d5a5ad095028ae0129065cd60b3253 -->
<g id="edge8" class="edge">
<title>dir_35addd29aafebb04e6caa45e6f26d04b&#45;&gt;dir_e4d5a5ad095028ae0129065cd60b3253</title>
<path fill="none" stroke="black" d="M116.12,-303.61C120.74,-293.62 127.08,-280.58 130,-268 133.62,-252.41 135.69,-246.96 130,-232 122.39,-211.99 106.71,-215.55 98,-196 89.32,-176.53 87.07,-152.39 88.23,-134.16"/>
<polygon fill="black" stroke="black" points="91.72,-134.51 89.29,-124.2 84.76,-133.77 91.72,-134.51"/>
<g id="a_edge8&#45;headlabel"><a xlink:href="dir_000008_000007.html" target="_top" xlink:title="2">
<text text-anchor="middle" x="94.16" y="-135.88" font-family="FreeSans" font-size="10.00">2</text>
</a>
</g>
</g>
<!-- dir_9d5eda6d4cabe7ed4bd8d4e297f3e4b6 -->
<g id="node5" class="node">
<title>dir_9d5eda6d4cabe7ed4bd8d4e297f3e4b6</title>
<g id="a_node5"><a xlink:href="dir_9d5eda6d4cabe7ed4bd8d4e297f3e4b6.html" target="_top" xlink:title="undo">
<polygon fill="#eeeeff" stroke="black" points="170,-196 116,-196 116,-160 170,-160 170,-196"/>
<text text-anchor="middle" x="143" y="-175.5" font-family="FreeSans" font-size="10.00">undo</text>
</a>
</g>
</g>
<!-- dir_35addd29aafebb04e6caa45e6f26d04b&#45;&gt;dir_9d5eda6d4cabe7ed4bd8d4e297f3e4b6 -->
<g id="edge6" class="edge">
<title>dir_35addd29aafebb04e6caa45e6f26d04b&#45;&gt;dir_9d5eda6d4cabe7ed4bd8d4e297f3e4b6</title>
<path fill="none" stroke="black" d="M123.14,-303.68C130.88,-294.1 140.41,-281.43 145,-268 151.86,-247.93 148.3,-224.01 144.83,-206.02"/>
<polygon fill="black" stroke="black" points="148.26,-205.32 142.87,-196.2 141.39,-206.69 148.26,-205.32"/>
<g id="a_edge6&#45;headlabel"><a xlink:href="dir_000008_000018.html" target="_top" xlink:title="5">
<text text-anchor="middle" x="151.74" y="-205.79" font-family="FreeSans" font-size="10.00">5</text>
</a>
</g>
</g>
<!-- dir_93b162d06b4c1cfd72a25a3b81dbdc2c&#45;&gt;dir_35addd29aafebb04e6caa45e6f26d04b -->
<g id="edge17" class="edge">
<title>dir_93b162d06b4c1cfd72a25a3b81dbdc2c&#45;&gt;dir_35addd29aafebb04e6caa45e6f26d04b</title>
<path fill="none" stroke="black" d="M96.23,-268.1C100.42,-275.96 104.72,-285.46 108.11,-294.23"/>
<polygon fill="black" stroke="black" points="104.83,-295.46 111.5,-303.7 111.42,-293.1 104.83,-295.46"/>
<g id="a_edge17&#45;headlabel"><a xlink:href="dir_000019_000008.html" target="_top" xlink:title="7">
<text text-anchor="middle" x="100.95" y="-290.54" font-family="FreeSans" font-size="10.00">7</text>
</a>
</g>
</g>
<!-- dir_93b162d06b4c1cfd72a25a3b81dbdc2c&#45;&gt;dir_aefcf59a6fdfc9bd7c340f12bedb31af -->
<g id="edge19" class="edge">
<title>dir_93b162d06b4c1cfd72a25a3b81dbdc2c&#45;&gt;dir_aefcf59a6fdfc9bd7c340f12bedb31af</title>
<path fill="none" stroke="black" d="M72.2,-231.63C60.33,-202.14 45.67,-140.37 52,-88 53.03,-79.44 54.98,-70.27 57.45,-62"/>
<polygon fill="black" stroke="black" points="60.79,-63.07 60.72,-52.47 54.17,-60.8 60.79,-63.07"/>
<g id="a_edge19&#45;headlabel"><a xlink:href="dir_000019_000009.html" target="_top" xlink:title="9">
<text text-anchor="middle" x="62.31" y="-64.89" font-family="FreeSans" font-size="10.00">9</text>
</a>
</g>
</g>
<!-- dir_93b162d06b4c1cfd72a25a3b81dbdc2c&#45;&gt;dir_e4d5a5ad095028ae0129065cd60b3253 -->
<g id="edge20" class="edge">
<title>dir_93b162d06b4c1cfd72a25a3b81dbdc2c&#45;&gt;dir_e4d5a5ad095028ae0129065cd60b3253</title>
<path fill="none" stroke="black" d="M80.1,-231.87C79.93,-207.67 84.02,-163.21 88.84,-134.39"/>
<polygon fill="black" stroke="black" points="92.35,-134.66 90.71,-124.19 85.47,-133.39 92.35,-134.66"/>
<g id="a_edge20&#45;headlabel"><a xlink:href="dir_000019_000007.html" target="_top" xlink:title="4">
<text text-anchor="middle" x="94.49" y="-136.21" font-family="FreeSans" font-size="10.00">4</text>
</a>
</g>
</g>
<!-- dir_93b162d06b4c1cfd72a25a3b81dbdc2c&#45;&gt;dir_9d5eda6d4cabe7ed4bd8d4e297f3e4b6 -->
<g id="edge18" class="edge">
<title>dir_93b162d06b4c1cfd72a25a3b81dbdc2c&#45;&gt;dir_9d5eda6d4cabe7ed4bd8d4e297f3e4b6</title>
<path fill="none" stroke="black" d="M91.92,-231.7C98.31,-223.22 107,-212.86 115.45,-203.58"/>
<polygon fill="black" stroke="black" points="118.17,-205.8 122.44,-196.1 113.06,-201.02 118.17,-205.8"/>
<g id="a_edge18&#45;headlabel"><a xlink:href="dir_000019_000018.html" target="_top" xlink:title="2">
<text text-anchor="middle" x="117.79" y="-207.86" font-family="FreeSans" font-size="10.00">2</text>
</a>
</g>
</g>
<!-- dir_aefcf59a6fdfc9bd7c340f12bedb31af&#45;&gt;dir_35addd29aafebb04e6caa45e6f26d04b -->
<g id="edge1" class="edge">
<title>dir_aefcf59a6fdfc9bd7c340f12bedb31af&#45;&gt;dir_35addd29aafebb04e6caa45e6f26d04b</title>
<path fill="none" stroke="black" d="M67.91,-52.01C48.59,-92.21 -3.41,-195.17 37,-268 45.81,-283.87 61.55,-295.6 76.51,-303.94"/>
<polygon fill="black" stroke="black" points="75.17,-307.19 85.66,-308.7 78.4,-300.98 75.17,-307.19"/>
<g id="a_edge1&#45;headlabel"><a xlink:href="dir_000009_000008.html" target="_top" xlink:title="46">
<text text-anchor="middle" x="70.67" y="-305.55" font-family="FreeSans" font-size="10.00">46</text>
</a>
</g>
</g>
<!-- dir_aefcf59a6fdfc9bd7c340f12bedb31af&#45;&gt;dir_93b162d06b4c1cfd72a25a3b81dbdc2c -->
<g id="edge2" class="edge">
<title>dir_aefcf59a6fdfc9bd7c340f12bedb31af&#45;&gt;dir_93b162d06b4c1cfd72a25a3b81dbdc2c</title>
<path fill="none" stroke="black" d="M76.47,-52.47C74.7,-62.71 71.45,-75.96 70,-88 64.31,-135.05 75.57,-189.69 81.43,-221.69"/>
<polygon fill="black" stroke="black" points="78,-222.39 83.18,-231.63 84.89,-221.18 78,-222.39"/>
<g id="a_edge2&#45;headlabel"><a xlink:href="dir_000009_000019.html" target="_top" xlink:title="4">
<text text-anchor="middle" x="74.58" y="-216.84" font-family="FreeSans" font-size="10.00">4</text>
</a>
</g>
</g>
<!-- dir_aefcf59a6fdfc9bd7c340f12bedb31af&#45;&gt;dir_e4d5a5ad095028ae0129065cd60b3253 -->
<g id="edge4" class="edge">
<title>dir_aefcf59a6fdfc9bd7c340f12bedb31af&#45;&gt;dir_e4d5a5ad095028ae0129065cd60b3253</title>
<path fill="none" stroke="black" d="M85.52,-52.1C88.88,-59.88 92.2,-69.26 94.7,-77.95"/>
<polygon fill="black" stroke="black" points="91.33,-78.89 97.23,-87.7 98.11,-77.14 91.33,-78.89"/>
<g id="a_edge4&#45;headlabel"><a xlink:href="dir_000009_000007.html" target="_top" xlink:title="11">
<text text-anchor="middle" x="87.68" y="-73.63" font-family="FreeSans" font-size="10.00">11</text>
</a>
</g>
</g>
<!-- dir_aefcf59a6fdfc9bd7c340f12bedb31af&#45;&gt;dir_9d5eda6d4cabe7ed4bd8d4e297f3e4b6 -->
<g id="edge3" class="edge">
<title>dir_aefcf59a6fdfc9bd7c340f12bedb31af&#45;&gt;dir_9d5eda6d4cabe7ed4bd8d4e297f3e4b6</title>
<path fill="none" stroke="black" d="M101.14,-47.03C116.12,-56.41 133.11,-70.74 142,-88 151.82,-107.07 153.96,-131.42 152.44,-149.84"/>
<polygon fill="black" stroke="black" points="148.95,-149.54 151.15,-159.9 155.89,-150.43 148.95,-149.54"/>
<g id="a_edge3&#45;headlabel"><a xlink:href="dir_000009_000018.html" target="_top" xlink:title="5">
<text text-anchor="middle" x="146.59" y="-143.12" font-family="FreeSans" font-size="10.00">5</text>
</a>
</g>
</g>
<!-- dir_e4d5a5ad095028ae0129065cd60b3253&#45;&gt;dir_35addd29aafebb04e6caa45e6f26d04b -->
<g id="edge9" class="edge">
<title>dir_e4d5a5ad095028ae0129065cd60b3253&#45;&gt;dir_35addd29aafebb04e6caa45e6f26d04b</title>
<path fill="none" stroke="black" d="M102.56,-124.2C104.43,-142.73 105.62,-172.71 116,-196 124.71,-215.55 140.39,-211.99 148,-232 153.69,-246.96 151.62,-252.41 148,-268 145.86,-277.24 141.87,-286.72 137.22,-295.07"/>
<polygon fill="black" stroke="black" points="134.22,-293.26 131.97,-303.61 140.19,-296.92 134.22,-293.26"/>
<g id="a_edge9&#45;headlabel"><a xlink:href="dir_000007_000008.html" target="_top" xlink:title="57">
<text text-anchor="middle" x="133.68" y="-286.21" font-family="FreeSans" font-size="10.00">57</text>
</a>
</g>
</g>
<!-- dir_e4d5a5ad095028ae0129065cd60b3253&#45;&gt;dir_93b162d06b4c1cfd72a25a3b81dbdc2c -->
<g id="edge10" class="edge">
<title>dir_e4d5a5ad095028ae0129065cd60b3253&#45;&gt;dir_93b162d06b4c1cfd72a25a3b81dbdc2c</title>
<path fill="none" stroke="black" d="M99.9,-124.19C100.06,-148.42 95.97,-192.89 91.15,-221.68"/>
<polygon fill="black" stroke="black" points="87.64,-221.4 89.27,-231.87 94.52,-222.67 87.64,-221.4"/>
<g id="a_edge10&#45;headlabel"><a xlink:href="dir_000007_000019.html" target="_top" xlink:title="10">
<text text-anchor="middle" x="85.5" y="-214.85" font-family="FreeSans" font-size="10.00">10</text>
</a>
</g>
</g>
<!-- dir_e4d5a5ad095028ae0129065cd60b3253&#45;&gt;dir_aefcf59a6fdfc9bd7c340f12bedb31af -->
<g id="edge12" class="edge">
<title>dir_e4d5a5ad095028ae0129065cd60b3253&#45;&gt;dir_aefcf59a6fdfc9bd7c340f12bedb31af</title>
<path fill="none" stroke="black" d="M85.4,-87.7C82.03,-79.9 78.72,-70.51 76.23,-61.83"/>
<polygon fill="black" stroke="black" points="79.61,-60.91 73.72,-52.1 72.83,-62.66 79.61,-60.91"/>
<g id="a_edge12&#45;headlabel"><a xlink:href="dir_000007_000009.html" target="_top" xlink:title="42">
<text text-anchor="middle" x="83.26" y="-61.19" font-family="FreeSans" font-size="10.00">42</text>
</a>
</g>
</g>
<!-- dir_e4d5a5ad095028ae0129065cd60b3253&#45;&gt;dir_9d5eda6d4cabe7ed4bd8d4e297f3e4b6 -->
<g id="edge11" class="edge">
<title>dir_e4d5a5ad095028ae0129065cd60b3253&#45;&gt;dir_9d5eda6d4cabe7ed4bd8d4e297f3e4b6</title>
<path fill="none" stroke="black" d="M114.14,-124.1C120.25,-132.13 126.87,-141.87 132.34,-150.8"/>
<polygon fill="black" stroke="black" points="129.47,-152.83 137.54,-159.7 135.52,-149.3 129.47,-152.83"/>
<g id="a_edge11&#45;headlabel"><a xlink:href="dir_000007_000018.html" target="_top" xlink:title="7">
<text text-anchor="middle" x="125.21" y="-148.66" font-family="FreeSans" font-size="10.00">7</text>
</a>
</g>
</g>
<!-- dir_9d5eda6d4cabe7ed4bd8d4e297f3e4b6&#45;&gt;dir_35addd29aafebb04e6caa45e6f26d04b -->
<g id="edge13" class="edge">
<title>dir_9d5eda6d4cabe7ed4bd8d4e297f3e4b6&#45;&gt;dir_35addd29aafebb04e6caa45e6f26d04b</title>
<path fill="none" stroke="black" d="M156.23,-196.2C164.5,-214.47 171.2,-243.99 163,-268 159.52,-278.18 153.21,-287.92 146.14,-296.21"/>
<polygon fill="black" stroke="black" points="143.44,-293.97 139.19,-303.68 148.57,-298.74 143.44,-293.97"/>
<g id="a_edge13&#45;headlabel"><a xlink:href="dir_000018_000008.html" target="_top" xlink:title="7">
<text text-anchor="middle" x="143.81" y="-286.9" font-family="FreeSans" font-size="10.00">7</text>
</a>
</g>
</g>
<!-- dir_9d5eda6d4cabe7ed4bd8d4e297f3e4b6&#45;&gt;dir_93b162d06b4c1cfd72a25a3b81dbdc2c -->
<g id="edge14" class="edge">
<title>dir_9d5eda6d4cabe7ed4bd8d4e297f3e4b6&#45;&gt;dir_93b162d06b4c1cfd72a25a3b81dbdc2c</title>
<path fill="none" stroke="black" d="M134.23,-196.1C127.88,-204.55 119.21,-214.9 110.75,-224.2"/>
<polygon fill="black" stroke="black" points="108.01,-222 103.75,-231.7 113.13,-226.78 108.01,-222"/>
<g id="a_edge14&#45;headlabel"><a xlink:href="dir_000018_000019.html" target="_top" xlink:title="2">
<text text-anchor="middle" x="108.39" y="-214.93" font-family="FreeSans" font-size="10.00">2</text>
</a>
</g>
</g>
<!-- dir_9d5eda6d4cabe7ed4bd8d4e297f3e4b6&#45;&gt;dir_aefcf59a6fdfc9bd7c340f12bedb31af -->
<g id="edge15" class="edge">
<title>dir_9d5eda6d4cabe7ed4bd8d4e297f3e4b6&#45;&gt;dir_aefcf59a6fdfc9bd7c340f12bedb31af</title>
<path fill="none" stroke="black" d="M137.97,-159.9C136.5,-141.19 135.74,-110.81 124,-88 118.25,-76.83 109.1,-66.88 100.11,-58.72"/>
<polygon fill="black" stroke="black" points="102.2,-55.9 92.35,-52.01 97.63,-61.19 102.2,-55.9"/>
<g id="a_edge15&#45;headlabel"><a xlink:href="dir_000018_000009.html" target="_top" xlink:title="4">
<text text-anchor="middle" x="106.78" y="-53.6" font-family="FreeSans" font-size="10.00">4</text>
</a>
</g>
</g>
<!-- dir_9d5eda6d4cabe7ed4bd8d4e297f3e4b6&#45;&gt;dir_e4d5a5ad095028ae0129065cd60b3253 -->
<g id="edge16" class="edge">
<title>dir_9d5eda6d4cabe7ed4bd8d4e297f3e4b6&#45;&gt;dir_e4d5a5ad095028ae0129065cd60b3253</title>
<path fill="none" stroke="black" d="M125.71,-159.7C119.59,-151.64 112.97,-141.89 107.53,-132.98"/>
<polygon fill="black" stroke="black" points="110.41,-130.98 102.34,-124.1 104.36,-134.51 110.41,-130.98"/>
<g id="a_edge16&#45;headlabel"><a xlink:href="dir_000018_000007.html" target="_top" xlink:title="3">
<text text-anchor="middle" x="114.67" y="-130.15" font-family="FreeSans" font-size="10.00">3</text>
</a>
</g>
</g>
</g>
</svg>
