<?xml version="1.0" encoding="UTF-8" standalone="no"?>
<!DOCTYPE svg PUBLIC "-//W3C//DTD SVG 1.1//EN"
 "http://www.w3.org/Graphics/SVG/1.1/DTD/svg11.dtd">
<!-- Generated by graphviz version 2.43.0 (0)
 -->
<!-- Title: OpenMP Pages: 1 -->
<svg width="172pt" height="311pt"
 viewBox="0.00 0.00 172.00 311.00" xmlns="http://www.w3.org/2000/svg" xmlns:xlink="http://www.w3.org/1999/xlink">
<g id="graph0" class="graph" transform="scale(1 1) rotate(0) translate(4 307)">
<title>OpenMP</title>
<polygon fill="white" stroke="transparent" points="-4,4 -4,-307 168,-307 168,4 -4,4"/>
<g id="clust1" class="cluster">
<title>clusterdir_db7313a27b1cae523c7773e30bdf986c</title>
<g id="a_clust1"><a xlink:href="dir_db7313a27b1cae523c7773e30bdf986c.html" target="_top" xlink:title="copasi">
<polygon fill="#ddddee" stroke="black" points="8,-8 8,-295 156,-295 156,-8 8,-8"/>
<text text-anchor="middle" x="82" y="-283" font-family="FreeSans" font-size="10.00">copasi</text>
</a>
</g>
</g>
<!-- dir_99aed44a5fc429ff55959e3c685520ed -->
<g id="node1" class="node">
<title>dir_99aed44a5fc429ff55959e3c685520ed</title>
<g id="a_node1"><a xlink:href="dir_99aed44a5fc429ff55959e3c685520ed.html" target="_top" xlink:title="randomGenerator">
<polygon fill="none" stroke="black" points="108,-196 16,-196 16,-160 108,-160 108,-196"/>
<text text-anchor="middle" x="62" y="-175.5" font-family="FreeSans" font-size="10.00">randomGenerator</text>
</a>
</g>
</g>
<!-- dir_aefcf59a6fdfc9bd7c340f12bedb31af -->
<g id="node2" class="node">
<title>dir_aefcf59a6fdfc9bd7c340f12bedb31af</title>
<g id="a_node2"><a xlink:href="dir_aefcf59a6fdfc9bd7c340f12bedb31af.html" target="_top" xlink:title="utilities">
<polygon fill="none" stroke="black" points="128,-124 74,-124 74,-88 128,-88 128,-124"/>
<text text-anchor="middle" x="101" y="-103.5" font-family="FreeSans" font-size="10.00">utilities</text>
</a>
</g>
</g>
<!-- dir_99aed44a5fc429ff55959e3c685520ed&#45;&gt;dir_aefcf59a6fdfc9bd7c340f12bedb31af -->
<g id="edge5" class="edge">
<title>dir_99aed44a5fc429ff55959e3c685520ed&#45;&gt;dir_aefcf59a6fdfc9bd7c340f12bedb31af</title>
<path fill="none" stroke="black" d="M65.72,-159.7C69.42,-151.56 74.71,-141.69 80.15,-132.7"/>
<polygon fill="black" stroke="black" points="83.2,-134.43 85.58,-124.1 77.28,-130.69 83.2,-134.43"/>
<g id="a_edge5&#45;headlabel"><a xlink:href="dir_000030_000009.html" target="_top" xlink:title="2">
<text text-anchor="middle" x="83.68" y="-136.48" font-family="FreeSans" font-size="10.00">2</text>
</a>
</g>
</g>
<!-- dir_aefcf59a6fdfc9bd7c340f12bedb31af&#45;&gt;dir_99aed44a5fc429ff55959e3c685520ed -->
<g id="edge1" class="edge">
<title>dir_aefcf59a6fdfc9bd7c340f12bedb31af&#45;&gt;dir_99aed44a5fc429ff55959e3c685520ed</title>
<path fill="none" stroke="black" d="M97.37,-124.1C93.7,-132.21 88.42,-142.08 82.99,-151.08"/>
<polygon fill="black" stroke="black" points="79.93,-149.37 77.56,-159.7 85.85,-153.1 79.93,-149.37"/>
<g id="a_edge1&#45;headlabel"><a xlink:href="dir_000009_000030.html" target="_top" xlink:title="1">
<text text-anchor="middle" x="79.44" y="-142.32" font-family="FreeSans" font-size="10.00">1</text>
</a>
</g>
</g>
<!-- dir_db3afc5e367a93f87ffcc764fb4101bb -->
<g id="node3" class="node">
<title>dir_db3afc5e367a93f87ffcc764fb4101bb</title>
<g id="a_node3"><a xlink:href="dir_db3afc5e367a93f87ffcc764fb4101bb.html" target="_top" xlink:title="math">
<polygon fill="none" stroke="black" points="128,-52 74,-52 74,-16 128,-16 128,-52"/>
<text text-anchor="middle" x="101" y="-31.5" font-family="FreeSans" font-size="10.00">math</text>
</a>
</g>
</g>
<!-- dir_aefcf59a6fdfc9bd7c340f12bedb31af&#45;&gt;dir_db3afc5e367a93f87ffcc764fb4101bb -->
<g id="edge2" class="edge">
<title>dir_aefcf59a6fdfc9bd7c340f12bedb31af&#45;&gt;dir_db3afc5e367a93f87ffcc764fb4101bb</title>
<path fill="none" stroke="black" d="M95.08,-87.7C94.29,-79.98 94.06,-70.71 94.4,-62.11"/>
<polygon fill="black" stroke="black" points="97.9,-62.32 95.1,-52.1 90.92,-61.84 97.9,-62.32"/>
<g id="a_edge2&#45;headlabel"><a xlink:href="dir_000009_000024.html" target="_top" xlink:title="7">
<text text-anchor="middle" x="100.48" y="-63.61" font-family="FreeSans" font-size="10.00">7</text>
</a>
</g>
</g>
<!-- dir_db3afc5e367a93f87ffcc764fb4101bb&#45;&gt;dir_99aed44a5fc429ff55959e3c685520ed -->
<g id="edge3" class="edge">
<title>dir_db3afc5e367a93f87ffcc764fb4101bb&#45;&gt;dir_99aed44a5fc429ff55959e3c685520ed</title>
<path fill="none" stroke="black" d="M85.57,-52.28C77.86,-62.04 69.28,-74.89 65,-88 58.5,-107.93 58.05,-131.73 59.05,-149.69"/>
<polygon fill="black" stroke="black" points="55.57,-150.07 59.81,-159.78 62.55,-149.55 55.57,-150.07"/>
<g id="a_edge3&#45;headlabel"><a xlink:href="dir_000024_000030.html" target="_top" xlink:title="2">
<text text-anchor="middle" x="52.47" y="-144.2" font-family="FreeSans" font-size="10.00">2</text>
</a>
</g>
</g>
<!-- dir_db3afc5e367a93f87ffcc764fb4101bb&#45;&gt;dir_aefcf59a6fdfc9bd7c340f12bedb31af -->
<g id="edge4" class="edge">
<title>dir_db3afc5e367a93f87ffcc764fb4101bb&#45;&gt;dir_aefcf59a6fdfc9bd7c340f12bedb31af</title>
<path fill="none" stroke="black" d="M106.9,-52.1C107.7,-59.79 107.94,-69.05 107.6,-77.67"/>
<polygon fill="black" stroke="black" points="104.11,-77.48 106.92,-87.7 111.09,-77.96 104.11,-77.48"/>
<g id="a_edge4&#45;headlabel"><a xlink:href="dir_000024_000009.html" target="_top" xlink:title="12">
<text text-anchor="middle" x="101.52" y="-71.2" font-family="FreeSans" font-size="10.00">12</text>
</a>
</g>
</g>
<!-- dir_d1150c92580ae842637adfbdb29ac790 -->
<g id="node4" class="node">
<title>dir_d1150c92580ae842637adfbdb29ac790</title>
<g id="a_node4"><a xlink:href="dir_d1150c92580ae842637adfbdb29ac790.html" target="_top" xlink:title="OpenMP">
<polygon fill="#eeeeff" stroke="black" points="147.5,-268 92.5,-268 92.5,-232 147.5,-232 147.5,-268"/>
<text text-anchor="middle" x="120" y="-247.5" font-family="FreeSans" font-size="10.00">OpenMP</text>
</a>
</g>
</g>
<!-- dir_d1150c92580ae842637adfbdb29ac790&#45;&gt;dir_99aed44a5fc429ff55959e3c685520ed -->
<g id="edge6" class="edge">
<title>dir_d1150c92580ae842637adfbdb29ac790&#45;&gt;dir_99aed44a5fc429ff55959e3c685520ed</title>
<path fill="none" stroke="black" d="M105.66,-231.7C98.71,-223.3 90.23,-213.07 82.6,-203.86"/>
<polygon fill="black" stroke="black" points="85.25,-201.57 76.17,-196.1 79.86,-206.04 85.25,-201.57"/>
<g id="a_edge6&#45;headlabel"><a xlink:href="dir_000015_000030.html" target="_top" xlink:title="1">
<text text-anchor="middle" x="89.73" y="-200.03" font-family="FreeSans" font-size="10.00">1</text>
</a>
</g>
</g>
<!-- dir_d1150c92580ae842637adfbdb29ac790&#45;&gt;dir_aefcf59a6fdfc9bd7c340f12bedb31af -->
<g id="edge7" class="edge">
<title>dir_d1150c92580ae842637adfbdb29ac790&#45;&gt;dir_aefcf59a6fdfc9bd7c340f12bedb31af</title>
<path fill="none" stroke="black" d="M120.73,-231.81C121.19,-213.79 121.08,-184.71 117,-160 115.58,-151.37 113.14,-142.18 110.6,-133.92"/>
<polygon fill="black" stroke="black" points="113.92,-132.82 107.5,-124.4 107.27,-134.99 113.92,-132.82"/>
<g id="a_edge7&#45;headlabel"><a xlink:href="dir_000015_000009.html" target="_top" xlink:title="3">
<text text-anchor="middle" x="117.74" y="-132.86" font-family="FreeSans" font-size="10.00">3</text>
</a>
</g>
</g>
<!-- dir_d1150c92580ae842637adfbdb29ac790&#45;&gt;dir_db3afc5e367a93f87ffcc764fb4101bb -->
<g id="edge8" class="edge">
<title>dir_d1150c92580ae842637adfbdb29ac790&#45;&gt;dir_db3afc5e367a93f87ffcc764fb4101bb</title>
<path fill="none" stroke="black" d="M126.25,-231.65C136.08,-201.66 152.53,-138.51 137,-88 133.99,-78.22 128.49,-68.62 122.68,-60.33"/>
<polygon fill="black" stroke="black" points="125.41,-58.13 116.61,-52.23 119.81,-62.33 125.41,-58.13"/>
<g id="a_edge8&#45;headlabel"><a xlink:href="dir_000015_000024.html" target="_top" xlink:title="1">
<text text-anchor="middle" x="129.83" y="-56.8" font-family="FreeSans" font-size="10.00">1</text>
</a>
</g>
</g>
</g>
</svg>
