<?xml version="1.0" encoding="UTF-8" standalone="no"?>
<!DOCTYPE svg PUBLIC "-//W3C//DTD SVG 1.1//EN"
 "http://www.w3.org/Graphics/SVG/1.1/DTD/svg11.dtd">
<!-- Generated by graphviz version 2.43.0 (0)
 -->
<!-- Title: oscillation Pages: 1 -->
<svg width="174pt" height="383pt"
 viewBox="0.00 0.00 174.00 383.00" xmlns="http://www.w3.org/2000/svg" xmlns:xlink="http://www.w3.org/1999/xlink">
<g id="graph0" class="graph" transform="scale(1 1) rotate(0) translate(4 379)">
<title>oscillation</title>
<polygon fill="white" stroke="transparent" points="-4,4 -4,-379 170,-379 170,4 -4,4"/>
<g id="clust1" class="cluster">
<title>clusterdir_db7313a27b1cae523c7773e30bdf986c</title>
<g id="a_clust1"><a xlink:href="dir_db7313a27b1cae523c7773e30bdf986c.html" target="_top" xlink:title="copasi">
<polygon fill="#ddddee" stroke="black" points="8,-8 8,-367 158,-367 158,-8 8,-8"/>
<text text-anchor="middle" x="83" y="-355" font-family="FreeSans" font-size="10.00">copasi</text>
</a>
</g>
</g>
<!-- dir_35addd29aafebb04e6caa45e6f26d04b -->
<g id="node1" class="node">
<title>dir_35addd29aafebb04e6caa45e6f26d04b</title>
<g id="a_node1"><a xlink:href="dir_35addd29aafebb04e6caa45e6f26d04b.html" target="_top" xlink:title="core">
<polygon fill="none" stroke="black" points="90,-268 36,-268 36,-232 90,-232 90,-268"/>
<text text-anchor="middle" x="63" y="-247.5" font-family="FreeSans" font-size="10.00">core</text>
</a>
</g>
</g>
<!-- dir_4ebd611d220344e85b5ba20d026188c7 -->
<g id="node2" class="node">
<title>dir_4ebd611d220344e85b5ba20d026188c7</title>
<g id="a_node2"><a xlink:href="dir_4ebd611d220344e85b5ba20d026188c7.html" target="_top" xlink:title="report">
<polygon fill="none" stroke="black" points="90,-196 36,-196 36,-160 90,-160 90,-196"/>
<text text-anchor="middle" x="63" y="-175.5" font-family="FreeSans" font-size="10.00">report</text>
</a>
</g>
</g>
<!-- dir_35addd29aafebb04e6caa45e6f26d04b&#45;&gt;dir_4ebd611d220344e85b5ba20d026188c7 -->
<g id="edge11" class="edge">
<title>dir_35addd29aafebb04e6caa45e6f26d04b&#45;&gt;dir_4ebd611d220344e85b5ba20d026188c7</title>
<path fill="none" stroke="black" d="M57.08,-231.7C56.29,-223.98 56.06,-214.71 56.4,-206.11"/>
<polygon fill="black" stroke="black" points="59.9,-206.32 57.1,-196.1 52.92,-205.84 59.9,-206.32"/>
<g id="a_edge11&#45;headlabel"><a xlink:href="dir_000008_000003.html" target="_top" xlink:title="3">
<text text-anchor="middle" x="62.48" y="-207.61" font-family="FreeSans" font-size="10.00">3</text>
</a>
</g>
</g>
<!-- dir_aefcf59a6fdfc9bd7c340f12bedb31af -->
<g id="node3" class="node">
<title>dir_aefcf59a6fdfc9bd7c340f12bedb31af</title>
<g id="a_node3"><a xlink:href="dir_aefcf59a6fdfc9bd7c340f12bedb31af.html" target="_top" xlink:title="utilities">
<polygon fill="none" stroke="black" points="84,-52 30,-52 30,-16 84,-16 84,-52"/>
<text text-anchor="middle" x="57" y="-31.5" font-family="FreeSans" font-size="10.00">utilities</text>
</a>
</g>
</g>
<!-- dir_35addd29aafebb04e6caa45e6f26d04b&#45;&gt;dir_aefcf59a6fdfc9bd7c340f12bedb31af -->
<g id="edge12" class="edge">
<title>dir_35addd29aafebb04e6caa45e6f26d04b&#45;&gt;dir_aefcf59a6fdfc9bd7c340f12bedb31af</title>
<path fill="none" stroke="black" d="M39.41,-231.77C30.63,-222.03 22.05,-209.18 18,-196 3.7,-149.5 21.92,-93.23 38.26,-61.03"/>
<polygon fill="black" stroke="black" points="41.34,-62.69 43.01,-52.23 35.18,-59.37 41.34,-62.69"/>
<g id="a_edge12&#45;headlabel"><a xlink:href="dir_000008_000009.html" target="_top" xlink:title="13">
<text text-anchor="middle" x="42.13" y="-64.7" font-family="FreeSans" font-size="10.00">13</text>
</a>
</g>
</g>
<!-- dir_e4d5a5ad095028ae0129065cd60b3253 -->
<g id="node4" class="node">
<title>dir_e4d5a5ad095028ae0129065cd60b3253</title>
<g id="a_node4"><a xlink:href="dir_e4d5a5ad095028ae0129065cd60b3253.html" target="_top" xlink:title="model">
<polygon fill="none" stroke="black" points="130,-124 76,-124 76,-88 130,-88 130,-124"/>
<text text-anchor="middle" x="103" y="-103.5" font-family="FreeSans" font-size="10.00">model</text>
</a>
</g>
</g>
<!-- dir_35addd29aafebb04e6caa45e6f26d04b&#45;&gt;dir_e4d5a5ad095028ae0129065cd60b3253 -->
<g id="edge13" class="edge">
<title>dir_35addd29aafebb04e6caa45e6f26d04b&#45;&gt;dir_e4d5a5ad095028ae0129065cd60b3253</title>
<path fill="none" stroke="black" d="M70.4,-231.7C77.07,-221.93 85.65,-209.09 90,-196 96.61,-176.09 97.34,-152.3 97.9,-134.33"/>
<polygon fill="black" stroke="black" points="101.41,-134.35 98.27,-124.23 94.41,-134.1 101.41,-134.35"/>
<g id="a_edge13&#45;headlabel"><a xlink:href="dir_000008_000007.html" target="_top" xlink:title="2">
<text text-anchor="middle" x="104.11" y="-135.55" font-family="FreeSans" font-size="10.00">2</text>
</a>
</g>
</g>
<!-- dir_4ebd611d220344e85b5ba20d026188c7&#45;&gt;dir_35addd29aafebb04e6caa45e6f26d04b -->
<g id="edge8" class="edge">
<title>dir_4ebd611d220344e85b5ba20d026188c7&#45;&gt;dir_35addd29aafebb04e6caa45e6f26d04b</title>
<path fill="none" stroke="black" d="M68.9,-196.1C69.7,-203.79 69.94,-213.05 69.6,-221.67"/>
<polygon fill="black" stroke="black" points="66.11,-221.48 68.92,-231.7 73.09,-221.96 66.11,-221.48"/>
<g id="a_edge8&#45;headlabel"><a xlink:href="dir_000003_000008.html" target="_top" xlink:title="21">
<text text-anchor="middle" x="63.52" y="-215.2" font-family="FreeSans" font-size="10.00">21</text>
</a>
</g>
</g>
<!-- dir_4ebd611d220344e85b5ba20d026188c7&#45;&gt;dir_aefcf59a6fdfc9bd7c340f12bedb31af -->
<g id="edge9" class="edge">
<title>dir_4ebd611d220344e85b5ba20d026188c7&#45;&gt;dir_aefcf59a6fdfc9bd7c340f12bedb31af</title>
<path fill="none" stroke="black" d="M57.69,-159.87C54.11,-135.67 51.94,-91.21 52.7,-62.39"/>
<polygon fill="black" stroke="black" points="56.2,-62.33 53.14,-52.19 49.21,-62.03 56.2,-62.33"/>
<g id="a_edge9&#45;headlabel"><a xlink:href="dir_000003_000009.html" target="_top" xlink:title="11">
<text text-anchor="middle" x="58.89" y="-63.54" font-family="FreeSans" font-size="10.00">11</text>
</a>
</g>
</g>
<!-- dir_4ebd611d220344e85b5ba20d026188c7&#45;&gt;dir_e4d5a5ad095028ae0129065cd60b3253 -->
<g id="edge10" class="edge">
<title>dir_4ebd611d220344e85b5ba20d026188c7&#45;&gt;dir_e4d5a5ad095028ae0129065cd60b3253</title>
<path fill="none" stroke="black" d="M66.97,-159.7C70.78,-151.56 76.22,-141.69 81.78,-132.7"/>
<polygon fill="black" stroke="black" points="84.85,-134.4 87.33,-124.1 78.97,-130.61 84.85,-134.4"/>
<g id="a_edge10&#45;headlabel"><a xlink:href="dir_000003_000007.html" target="_top" xlink:title="2">
<text text-anchor="middle" x="85.28" y="-136.46" font-family="FreeSans" font-size="10.00">2</text>
</a>
</g>
</g>
<!-- dir_aefcf59a6fdfc9bd7c340f12bedb31af&#45;&gt;dir_35addd29aafebb04e6caa45e6f26d04b -->
<g id="edge5" class="edge">
<title>dir_aefcf59a6fdfc9bd7c340f12bedb31af&#45;&gt;dir_35addd29aafebb04e6caa45e6f26d04b</title>
<path fill="none" stroke="black" d="M53.88,-52.23C43.83,-82.03 20.29,-144.91 36,-196 38.98,-205.68 44.39,-215.18 49.73,-223.4"/>
<polygon fill="black" stroke="black" points="46.88,-225.44 55.37,-231.77 52.68,-221.52 46.88,-225.44"/>
<g id="a_edge5&#45;headlabel"><a xlink:href="dir_000009_000008.html" target="_top" xlink:title="46">
<text text-anchor="middle" x="42.51" y="-221.54" font-family="FreeSans" font-size="10.00">46</text>
</a>
</g>
</g>
<!-- dir_aefcf59a6fdfc9bd7c340f12bedb31af&#45;&gt;dir_4ebd611d220344e85b5ba20d026188c7 -->
<g id="edge6" class="edge">
<title>dir_aefcf59a6fdfc9bd7c340f12bedb31af&#45;&gt;dir_4ebd611d220344e85b5ba20d026188c7</title>
<path fill="none" stroke="black" d="M62.32,-52.19C65.9,-76.42 68.06,-120.89 67.3,-149.68"/>
<polygon fill="black" stroke="black" points="63.79,-149.73 66.86,-159.87 70.79,-150.03 63.79,-149.73"/>
<g id="a_edge6&#45;headlabel"><a xlink:href="dir_000009_000003.html" target="_top" xlink:title="7">
<text text-anchor="middle" x="61.11" y="-143.52" font-family="FreeSans" font-size="10.00">7</text>
</a>
</g>
</g>
<!-- dir_aefcf59a6fdfc9bd7c340f12bedb31af&#45;&gt;dir_e4d5a5ad095028ae0129065cd60b3253 -->
<g id="edge7" class="edge">
<title>dir_aefcf59a6fdfc9bd7c340f12bedb31af&#45;&gt;dir_e4d5a5ad095028ae0129065cd60b3253</title>
<path fill="none" stroke="black" d="M74.14,-52.1C80.25,-60.13 86.87,-69.87 92.34,-78.8"/>
<polygon fill="black" stroke="black" points="89.47,-80.83 97.54,-87.7 95.52,-77.3 89.47,-80.83"/>
<g id="a_edge7&#45;headlabel"><a xlink:href="dir_000009_000007.html" target="_top" xlink:title="11">
<text text-anchor="middle" x="85.21" y="-76.66" font-family="FreeSans" font-size="10.00">11</text>
</a>
</g>
</g>
<!-- dir_e4d5a5ad095028ae0129065cd60b3253&#45;&gt;dir_35addd29aafebb04e6caa45e6f26d04b -->
<g id="edge14" class="edge">
<title>dir_e4d5a5ad095028ae0129065cd60b3253&#45;&gt;dir_35addd29aafebb04e6caa45e6f26d04b</title>
<path fill="none" stroke="black" d="M111.62,-124.23C115.4,-142.54 115.95,-172.07 108,-196 104.74,-205.82 99.1,-215.5 92.8,-223.84"/>
<polygon fill="black" stroke="black" points="89.99,-221.75 86.35,-231.7 95.4,-226.19 89.99,-221.75"/>
<g id="a_edge14&#45;headlabel"><a xlink:href="dir_000007_000008.html" target="_top" xlink:title="57">
<text text-anchor="middle" x="90.08" y="-214.67" font-family="FreeSans" font-size="10.00">57</text>
</a>
</g>
</g>
<!-- dir_e4d5a5ad095028ae0129065cd60b3253&#45;&gt;dir_4ebd611d220344e85b5ba20d026188c7 -->
<g id="edge15" class="edge">
<title>dir_e4d5a5ad095028ae0129065cd60b3253&#45;&gt;dir_4ebd611d220344e85b5ba20d026188c7</title>
<path fill="none" stroke="black" d="M99.12,-124.1C95.34,-132.21 89.92,-142.08 84.36,-151.08"/>
<polygon fill="black" stroke="black" points="81.28,-149.39 78.8,-159.7 87.16,-153.19 81.28,-149.39"/>
<g id="a_edge15&#45;headlabel"><a xlink:href="dir_000007_000003.html" target="_top" xlink:title="16">
<text text-anchor="middle" x="80.84" y="-142.34" font-family="FreeSans" font-size="10.00">16</text>
</a>
</g>
</g>
<!-- dir_e4d5a5ad095028ae0129065cd60b3253&#45;&gt;dir_aefcf59a6fdfc9bd7c340f12bedb31af -->
<g id="edge16" class="edge">
<title>dir_e4d5a5ad095028ae0129065cd60b3253&#45;&gt;dir_aefcf59a6fdfc9bd7c340f12bedb31af</title>
<path fill="none" stroke="black" d="M85.71,-87.7C79.59,-79.64 72.97,-69.89 67.53,-60.98"/>
<polygon fill="black" stroke="black" points="70.41,-58.98 62.34,-52.1 64.36,-62.51 70.41,-58.98"/>
<g id="a_edge16&#45;headlabel"><a xlink:href="dir_000007_000009.html" target="_top" xlink:title="42">
<text text-anchor="middle" x="74.67" y="-58.15" font-family="FreeSans" font-size="10.00">42</text>
</a>
</g>
</g>
<!-- dir_c7a6557c6a3f2b928429b06f44a25453 -->
<g id="node5" class="node">
<title>dir_c7a6557c6a3f2b928429b06f44a25453</title>
<g id="a_node5"><a xlink:href="dir_c7a6557c6a3f2b928429b06f44a25453.html" target="_top" xlink:title="oscillation">
<polygon fill="#eeeeff" stroke="black" points="144,-340 84,-340 84,-304 144,-304 144,-340"/>
<text text-anchor="middle" x="114" y="-319.5" font-family="FreeSans" font-size="10.00">oscillation</text>
</a>
</g>
</g>
<!-- dir_c7a6557c6a3f2b928429b06f44a25453&#45;&gt;dir_35addd29aafebb04e6caa45e6f26d04b -->
<g id="edge1" class="edge">
<title>dir_c7a6557c6a3f2b928429b06f44a25453&#45;&gt;dir_35addd29aafebb04e6caa45e6f26d04b</title>
<path fill="none" stroke="black" d="M101.39,-303.7C95.4,-295.47 88.12,-285.48 81.52,-276.42"/>
<polygon fill="black" stroke="black" points="84.18,-274.13 75.46,-268.1 78.52,-278.25 84.18,-274.13"/>
<g id="a_edge1&#45;headlabel"><a xlink:href="dir_000033_000008.html" target="_top" xlink:title="2">
<text text-anchor="middle" x="88.59" y="-272.86" font-family="FreeSans" font-size="10.00">2</text>
</a>
</g>
</g>
<!-- dir_c7a6557c6a3f2b928429b06f44a25453&#45;&gt;dir_4ebd611d220344e85b5ba20d026188c7 -->
<g id="edge2" class="edge">
<title>dir_c7a6557c6a3f2b928429b06f44a25453&#45;&gt;dir_4ebd611d220344e85b5ba20d026188c7</title>
<path fill="none" stroke="black" d="M113.27,-303.68C112,-285.3 108.52,-255.7 99,-232 95.12,-222.35 89.28,-212.67 83.41,-204.28"/>
<polygon fill="black" stroke="black" points="86.12,-202.05 77.38,-196.06 80.47,-206.19 86.12,-202.05"/>
<g id="a_edge2&#45;headlabel"><a xlink:href="dir_000033_000003.html" target="_top" xlink:title="2">
<text text-anchor="middle" x="90.53" y="-200.77" font-family="FreeSans" font-size="10.00">2</text>
</a>
</g>
</g>
<!-- dir_c7a6557c6a3f2b928429b06f44a25453&#45;&gt;dir_aefcf59a6fdfc9bd7c340f12bedb31af -->
<g id="edge3" class="edge">
<title>dir_c7a6557c6a3f2b928429b06f44a25453&#45;&gt;dir_aefcf59a6fdfc9bd7c340f12bedb31af</title>
<path fill="none" stroke="black" d="M122.11,-303.91C140.01,-263.52 178.29,-160.18 139,-88 129.22,-70.04 110.45,-57.23 93.33,-48.72"/>
<polygon fill="black" stroke="black" points="94.6,-45.45 84.05,-44.42 91.65,-51.8 94.6,-45.45"/>
<g id="a_edge3&#45;headlabel"><a xlink:href="dir_000033_000009.html" target="_top" xlink:title="6">
<text text-anchor="middle" x="99.05" y="-41.88" font-family="FreeSans" font-size="10.00">6</text>
</a>
</g>
</g>
<!-- dir_c7a6557c6a3f2b928429b06f44a25453&#45;&gt;dir_e4d5a5ad095028ae0129065cd60b3253 -->
<g id="edge4" class="edge">
<title>dir_c7a6557c6a3f2b928429b06f44a25453&#45;&gt;dir_e4d5a5ad095028ae0129065cd60b3253</title>
<path fill="none" stroke="black" d="M113.43,-303.6C112.41,-274.06 110.11,-212.23 107,-160 106.5,-151.67 105.86,-142.62 105.23,-134.39"/>
<polygon fill="black" stroke="black" points="108.7,-133.87 104.44,-124.18 101.73,-134.42 108.7,-133.87"/>
<g id="a_edge4&#45;headlabel"><a xlink:href="dir_000033_000007.html" target="_top" xlink:title="3">
<text text-anchor="middle" x="111.82" y="-134.74" font-family="FreeSans" font-size="10.00">3</text>
</a>
</g>
</g>
</g>
</svg>
