<?xml version="1.0" encoding="UTF-8" standalone="no"?>
<!DOCTYPE svg PUBLIC "-//W3C//DTD SVG 1.1//EN"
 "http://www.w3.org/Graphics/SVG/1.1/DTD/svg11.dtd">
<!-- Generated by graphviz version 2.43.0 (0)
 -->
<!-- Title: math Pages: 1 -->
<svg width="414pt" height="671pt"
 viewBox="0.00 0.00 414.00 671.00" xmlns="http://www.w3.org/2000/svg" xmlns:xlink="http://www.w3.org/1999/xlink">
<g id="graph0" class="graph" transform="scale(1 1) rotate(0) translate(4 667)">
<title>math</title>
<polygon fill="white" stroke="transparent" points="-4,4 -4,-667 410,-667 410,4 -4,4"/>
<g id="clust1" class="cluster">
<title>clusterdir_db7313a27b1cae523c7773e30bdf986c</title>
<g id="a_clust1"><a xlink:href="dir_db7313a27b1cae523c7773e30bdf986c.html" target="_top" xlink:title="copasi">
<polygon fill="#ddddee" stroke="black" points="8,-8 8,-655 398,-655 398,-8 8,-8"/>
<text text-anchor="middle" x="203" y="-643" font-family="FreeSans" font-size="10.00">copasi</text>
</a>
</g>
</g>
<!-- dir_35addd29aafebb04e6caa45e6f26d04b -->
<g id="node1" class="node">
<title>dir_35addd29aafebb04e6caa45e6f26d04b</title>
<g id="a_node1"><a xlink:href="dir_35addd29aafebb04e6caa45e6f26d04b.html" target="_top" xlink:title="core">
<polygon fill="none" stroke="black" points="210,-628 156,-628 156,-592 210,-592 210,-628"/>
<text text-anchor="middle" x="183" y="-607.5" font-family="FreeSans" font-size="10.00">core</text>
</a>
</g>
</g>
<!-- dir_93b162d06b4c1cfd72a25a3b81dbdc2c -->
<g id="node4" class="node">
<title>dir_93b162d06b4c1cfd72a25a3b81dbdc2c</title>
<g id="a_node4"><a xlink:href="dir_93b162d06b4c1cfd72a25a3b81dbdc2c.html" target="_top" xlink:title="CopasiDataModel">
<polygon fill="none" stroke="black" points="163.5,-556 70.5,-556 70.5,-520 163.5,-520 163.5,-556"/>
<text text-anchor="middle" x="117" y="-535.5" font-family="FreeSans" font-size="10.00">CopasiDataModel</text>
</a>
</g>
</g>
<!-- dir_35addd29aafebb04e6caa45e6f26d04b&#45;&gt;dir_93b162d06b4c1cfd72a25a3b81dbdc2c -->
<g id="edge19" class="edge">
<title>dir_35addd29aafebb04e6caa45e6f26d04b&#45;&gt;dir_93b162d06b4c1cfd72a25a3b81dbdc2c</title>
<path fill="none" stroke="black" d="M160.77,-591.7C151.99,-583.3 142.15,-573.07 133.95,-563.86"/>
<polygon fill="black" stroke="black" points="136.42,-561.37 127.23,-556.1 131.13,-565.96 136.42,-561.37"/>
<g id="a_edge19&#45;headlabel"><a xlink:href="dir_000008_000019.html" target="_top" xlink:title="5">
<text text-anchor="middle" x="140.92" y="-559.73" font-family="FreeSans" font-size="10.00">5</text>
</a>
</g>
</g>
<!-- dir_aefcf59a6fdfc9bd7c340f12bedb31af -->
<g id="node6" class="node">
<title>dir_aefcf59a6fdfc9bd7c340f12bedb31af</title>
<g id="a_node6"><a xlink:href="dir_aefcf59a6fdfc9bd7c340f12bedb31af.html" target="_top" xlink:title="utilities">
<polygon fill="none" stroke="black" points="190,-196 136,-196 136,-160 190,-160 190,-196"/>
<text text-anchor="middle" x="163" y="-175.5" font-family="FreeSans" font-size="10.00">utilities</text>
</a>
</g>
</g>
<!-- dir_35addd29aafebb04e6caa45e6f26d04b&#45;&gt;dir_aefcf59a6fdfc9bd7c340f12bedb31af -->
<g id="edge20" class="edge">
<title>dir_35addd29aafebb04e6caa45e6f26d04b&#45;&gt;dir_aefcf59a6fdfc9bd7c340f12bedb31af</title>
<path fill="none" stroke="black" d="M155.83,-607.84C120.7,-604.85 61.43,-594.17 33,-556 13.84,-530.28 29.11,-516.06 28,-484 24.1,-371.64 -13.53,-324.76 50,-232 67.19,-206.91 99.96,-193.02 125.96,-185.82"/>
<polygon fill="black" stroke="black" points="127.07,-189.15 135.9,-183.3 125.35,-182.37 127.07,-189.15"/>
<g id="a_edge20&#45;headlabel"><a xlink:href="dir_000008_000009.html" target="_top" xlink:title="13">
<text text-anchor="middle" x="124.28" y="-190.29" font-family="FreeSans" font-size="10.00">13</text>
</a>
</g>
</g>
<!-- dir_b9901e150939d9aa0c49934eef95a7bb -->
<g id="node7" class="node">
<title>dir_b9901e150939d9aa0c49934eef95a7bb</title>
<g id="a_node7"><a xlink:href="dir_b9901e150939d9aa0c49934eef95a7bb.html" target="_top" xlink:title="commandline">
<polygon fill="none" stroke="black" points="170,-268 96,-268 96,-232 170,-232 170,-268"/>
<text text-anchor="middle" x="133" y="-247.5" font-family="FreeSans" font-size="10.00">commandline</text>
</a>
</g>
</g>
<!-- dir_35addd29aafebb04e6caa45e6f26d04b&#45;&gt;dir_b9901e150939d9aa0c49934eef95a7bb -->
<g id="edge21" class="edge">
<title>dir_35addd29aafebb04e6caa45e6f26d04b&#45;&gt;dir_b9901e150939d9aa0c49934eef95a7bb</title>
<path fill="none" stroke="black" d="M155.85,-605.68C126.99,-600.54 82.71,-587.67 62,-556 2.96,-465.69 78.12,-332.11 114.9,-276.62"/>
<polygon fill="black" stroke="black" points="117.96,-278.34 120.65,-268.1 112.16,-274.42 117.96,-278.34"/>
<g id="a_edge21&#45;headlabel"><a xlink:href="dir_000008_000014.html" target="_top" xlink:title="2">
<text text-anchor="middle" x="118.3" y="-280.41" font-family="FreeSans" font-size="10.00">2</text>
</a>
</g>
</g>
<!-- dir_e4d5a5ad095028ae0129065cd60b3253 -->
<g id="node8" class="node">
<title>dir_e4d5a5ad095028ae0129065cd60b3253</title>
<g id="a_node8"><a xlink:href="dir_e4d5a5ad095028ae0129065cd60b3253.html" target="_top" xlink:title="model">
<polygon fill="none" stroke="black" points="197,-340 143,-340 143,-304 197,-304 197,-340"/>
<text text-anchor="middle" x="170" y="-319.5" font-family="FreeSans" font-size="10.00">model</text>
</a>
</g>
</g>
<!-- dir_35addd29aafebb04e6caa45e6f26d04b&#45;&gt;dir_e4d5a5ad095028ae0129065cd60b3253 -->
<g id="edge22" class="edge">
<title>dir_35addd29aafebb04e6caa45e6f26d04b&#45;&gt;dir_e4d5a5ad095028ae0129065cd60b3253</title>
<path fill="none" stroke="black" d="M174.63,-591.9C170.56,-573.96 167.48,-544.95 164,-520 161.76,-503.93 159.34,-500.17 158,-484 154.13,-437.19 156.63,-382.48 161.35,-350.4"/>
<polygon fill="black" stroke="black" points="164.82,-350.87 163.03,-340.43 157.92,-349.71 164.82,-350.87"/>
<g id="a_edge22&#45;headlabel"><a xlink:href="dir_000008_000007.html" target="_top" xlink:title="2">
<text text-anchor="middle" x="167.02" y="-352.39" font-family="FreeSans" font-size="10.00">2</text>
</a>
</g>
</g>
<!-- dir_f4b573509b6a610b6536470b1c19f9ed -->
<g id="node9" class="node">
<title>dir_f4b573509b6a610b6536470b1c19f9ed</title>
<g id="a_node9"><a xlink:href="dir_f4b573509b6a610b6536470b1c19f9ed.html" target="_top" xlink:title="function">
<polygon fill="none" stroke="black" points="230,-484 176,-484 176,-448 230,-448 230,-484"/>
<text text-anchor="middle" x="203" y="-463.5" font-family="FreeSans" font-size="10.00">function</text>
</a>
</g>
</g>
<!-- dir_35addd29aafebb04e6caa45e6f26d04b&#45;&gt;dir_f4b573509b6a610b6536470b1c19f9ed -->
<g id="edge23" class="edge">
<title>dir_35addd29aafebb04e6caa45e6f26d04b&#45;&gt;dir_f4b573509b6a610b6536470b1c19f9ed</title>
<path fill="none" stroke="black" d="M180.83,-591.87C181.68,-567.56 187.7,-522.82 193.76,-494.01"/>
<polygon fill="black" stroke="black" points="197.19,-494.72 195.99,-484.19 190.37,-493.17 197.19,-494.72"/>
<g id="a_edge23&#45;headlabel"><a xlink:href="dir_000008_000012.html" target="_top" xlink:title="8">
<text text-anchor="middle" x="199.17" y="-496.35" font-family="FreeSans" font-size="10.00">8</text>
</a>
</g>
</g>
<!-- dir_405ce7a1489983e8b36f67512c8c61c7 -->
<g id="node2" class="node">
<title>dir_405ce7a1489983e8b36f67512c8c61c7</title>
<g id="a_node2"><a xlink:href="dir_405ce7a1489983e8b36f67512c8c61c7.html" target="_top" xlink:title="lapack">
<polygon fill="none" stroke="black" points="239,-52 185,-52 185,-16 239,-16 239,-52"/>
<text text-anchor="middle" x="212" y="-31.5" font-family="FreeSans" font-size="10.00">lapack</text>
</a>
</g>
</g>
<!-- dir_902b89daf5ded75921b93acc9e867424 -->
<g id="node3" class="node">
<title>dir_902b89daf5ded75921b93acc9e867424</title>
<g id="a_node3"><a xlink:href="dir_902b89daf5ded75921b93acc9e867424.html" target="_top" xlink:title="optimization">
<polygon fill="none" stroke="black" points="290,-124 222,-124 222,-88 290,-88 290,-124"/>
<text text-anchor="middle" x="256" y="-103.5" font-family="FreeSans" font-size="10.00">optimization</text>
</a>
</g>
</g>
<!-- dir_902b89daf5ded75921b93acc9e867424&#45;&gt;dir_35addd29aafebb04e6caa45e6f26d04b -->
<g id="edge46" class="edge">
<title>dir_902b89daf5ded75921b93acc9e867424&#45;&gt;dir_35addd29aafebb04e6caa45e6f26d04b</title>
<path fill="none" stroke="black" d="M272.67,-124.23C304.11,-158.62 369,-239.49 369,-321 369,-467 369,-467 369,-467 369,-541.39 273.85,-582.01 219.66,-599.11"/>
<polygon fill="black" stroke="black" points="218.59,-595.77 210.05,-602.03 220.63,-602.47 218.59,-595.77"/>
<g id="a_edge46&#45;headlabel"><a xlink:href="dir_000031_000008.html" target="_top" xlink:title="48">
<text text-anchor="middle" x="221.21" y="-589.51" font-family="FreeSans" font-size="10.00">48</text>
</a>
</g>
</g>
<!-- dir_902b89daf5ded75921b93acc9e867424&#45;&gt;dir_405ce7a1489983e8b36f67512c8c61c7 -->
<g id="edge47" class="edge">
<title>dir_902b89daf5ded75921b93acc9e867424&#45;&gt;dir_405ce7a1489983e8b36f67512c8c61c7</title>
<path fill="none" stroke="black" d="M245.12,-87.7C240.01,-79.56 233.8,-69.69 228.16,-60.7"/>
<polygon fill="black" stroke="black" points="231.04,-58.71 222.75,-52.1 225.11,-62.43 231.04,-58.71"/>
<g id="a_edge47&#45;headlabel"><a xlink:href="dir_000031_000004.html" target="_top" xlink:title="6">
<text text-anchor="middle" x="235.35" y="-57.74" font-family="FreeSans" font-size="10.00">6</text>
</a>
</g>
</g>
<!-- dir_902b89daf5ded75921b93acc9e867424&#45;&gt;dir_93b162d06b4c1cfd72a25a3b81dbdc2c -->
<g id="edge48" class="edge">
<title>dir_902b89daf5ded75921b93acc9e867424&#45;&gt;dir_93b162d06b4c1cfd72a25a3b81dbdc2c</title>
<path fill="none" stroke="black" d="M221.76,-111.31C155.67,-121.76 17,-154.88 17,-249 17,-323 17,-323 17,-323 17,-398.91 36.88,-417.79 74,-484 79.53,-493.87 86.92,-503.75 94.01,-512.26"/>
<polygon fill="black" stroke="black" points="91.46,-514.67 100.64,-519.95 96.76,-510.09 91.46,-514.67"/>
<g id="a_edge48&#45;headlabel"><a xlink:href="dir_000031_000019.html" target="_top" xlink:title="2">
<text text-anchor="middle" x="86.97" y="-511.3" font-family="FreeSans" font-size="10.00">2</text>
</a>
</g>
</g>
<!-- dir_99aed44a5fc429ff55959e3c685520ed -->
<g id="node5" class="node">
<title>dir_99aed44a5fc429ff55959e3c685520ed</title>
<g id="a_node5"><a xlink:href="dir_99aed44a5fc429ff55959e3c685520ed.html" target="_top" xlink:title="randomGenerator">
<polygon fill="none" stroke="black" points="366,-52 274,-52 274,-16 366,-16 366,-52"/>
<text text-anchor="middle" x="320" y="-31.5" font-family="FreeSans" font-size="10.00">randomGenerator</text>
</a>
</g>
</g>
<!-- dir_902b89daf5ded75921b93acc9e867424&#45;&gt;dir_99aed44a5fc429ff55959e3c685520ed -->
<g id="edge49" class="edge">
<title>dir_902b89daf5ded75921b93acc9e867424&#45;&gt;dir_99aed44a5fc429ff55959e3c685520ed</title>
<path fill="none" stroke="black" d="M271.82,-87.7C279.57,-79.22 289.04,-68.86 297.52,-59.58"/>
<polygon fill="black" stroke="black" points="300.2,-61.85 304.36,-52.1 295.03,-57.12 300.2,-61.85"/>
<g id="a_edge49&#45;headlabel"><a xlink:href="dir_000031_000030.html" target="_top" xlink:title="20">
<text text-anchor="middle" x="299.87" y="-63.92" font-family="FreeSans" font-size="10.00">20</text>
</a>
</g>
</g>
<!-- dir_902b89daf5ded75921b93acc9e867424&#45;&gt;dir_aefcf59a6fdfc9bd7c340f12bedb31af -->
<g id="edge50" class="edge">
<title>dir_902b89daf5ded75921b93acc9e867424&#45;&gt;dir_aefcf59a6fdfc9bd7c340f12bedb31af</title>
<path fill="none" stroke="black" d="M239.04,-124.21C227.67,-133.5 212.44,-145.06 198.55,-155"/>
<polygon fill="black" stroke="black" points="196.27,-152.32 190.12,-160.94 200.31,-158.04 196.27,-152.32"/>
<g id="a_edge50&#45;headlabel"><a xlink:href="dir_000031_000009.html" target="_top" xlink:title="29">
<text text-anchor="middle" x="197.58" y="-145.43" font-family="FreeSans" font-size="10.00">29</text>
</a>
</g>
</g>
<!-- dir_902b89daf5ded75921b93acc9e867424&#45;&gt;dir_b9901e150939d9aa0c49934eef95a7bb -->
<g id="edge51" class="edge">
<title>dir_902b89daf5ded75921b93acc9e867424&#45;&gt;dir_b9901e150939d9aa0c49934eef95a7bb</title>
<path fill="none" stroke="black" d="M247.18,-124.21C237.06,-143.02 219.23,-173.48 199,-196 189.37,-206.71 177.44,-216.99 166.39,-225.6"/>
<polygon fill="black" stroke="black" points="164.01,-223.01 158.15,-231.84 168.24,-228.59 164.01,-223.01"/>
<g id="a_edge51&#45;headlabel"><a xlink:href="dir_000031_000014.html" target="_top" xlink:title="1">
<text text-anchor="middle" x="165.16" y="-216.08" font-family="FreeSans" font-size="10.00">1</text>
</a>
</g>
</g>
<!-- dir_902b89daf5ded75921b93acc9e867424&#45;&gt;dir_e4d5a5ad095028ae0129065cd60b3253 -->
<g id="edge53" class="edge">
<title>dir_902b89daf5ded75921b93acc9e867424&#45;&gt;dir_e4d5a5ad095028ae0129065cd60b3253</title>
<path fill="none" stroke="black" d="M257.56,-124.24C259.55,-155.16 260.05,-221.15 234,-268 227.18,-280.26 216.32,-290.85 205.45,-299.27"/>
<polygon fill="black" stroke="black" points="203.23,-296.56 197.22,-305.28 207.36,-302.21 203.23,-296.56"/>
<g id="a_edge53&#45;headlabel"><a xlink:href="dir_000031_000007.html" target="_top" xlink:title="4">
<text text-anchor="middle" x="204.46" y="-289.65" font-family="FreeSans" font-size="10.00">4</text>
</a>
</g>
</g>
<!-- dir_902b89daf5ded75921b93acc9e867424&#45;&gt;dir_f4b573509b6a610b6536470b1c19f9ed -->
<g id="edge54" class="edge">
<title>dir_902b89daf5ded75921b93acc9e867424&#45;&gt;dir_f4b573509b6a610b6536470b1c19f9ed</title>
<path fill="none" stroke="black" d="M262.68,-124.19C272.32,-150.6 289,-202.94 289,-249 289,-323 289,-323 289,-323 289,-362.8 299.36,-377.8 279,-412 269.73,-427.57 253.91,-439.7 239.09,-448.4"/>
<polygon fill="black" stroke="black" points="237.14,-445.48 230.07,-453.37 240.51,-451.61 237.14,-445.48"/>
<g id="a_edge54&#45;headlabel"><a xlink:href="dir_000031_000012.html" target="_top" xlink:title="2">
<text text-anchor="middle" x="238.91" y="-438.76" font-family="FreeSans" font-size="10.00">2</text>
</a>
</g>
</g>
<!-- dir_db3afc5e367a93f87ffcc764fb4101bb -->
<g id="node10" class="node">
<title>dir_db3afc5e367a93f87ffcc764fb4101bb</title>
<g id="a_node10"><a xlink:href="dir_db3afc5e367a93f87ffcc764fb4101bb.html" target="_top" xlink:title="math">
<polygon fill="#eeeeff" stroke="black" points="270,-412 216,-412 216,-376 270,-376 270,-412"/>
<text text-anchor="middle" x="243" y="-391.5" font-family="FreeSans" font-size="10.00">math</text>
</a>
</g>
</g>
<!-- dir_902b89daf5ded75921b93acc9e867424&#45;&gt;dir_db3afc5e367a93f87ffcc764fb4101bb -->
<g id="edge52" class="edge">
<title>dir_902b89daf5ded75921b93acc9e867424&#45;&gt;dir_db3afc5e367a93f87ffcc764fb4101bb</title>
<path fill="none" stroke="black" d="M266.26,-124.14C268.79,-134.5 270.32,-147.98 271,-160 275.21,-234.68 263.51,-322.6 253.27,-365.98"/>
<polygon fill="black" stroke="black" points="249.85,-365.22 250.78,-375.77 256.64,-366.95 249.85,-365.22"/>
<g id="a_edge52&#45;headlabel"><a xlink:href="dir_000031_000024.html" target="_top" xlink:title="5">
<text text-anchor="middle" x="247.99" y="-358.54" font-family="FreeSans" font-size="10.00">5</text>
</a>
</g>
</g>
<!-- dir_93b162d06b4c1cfd72a25a3b81dbdc2c&#45;&gt;dir_35addd29aafebb04e6caa45e6f26d04b -->
<g id="edge33" class="edge">
<title>dir_93b162d06b4c1cfd72a25a3b81dbdc2c&#45;&gt;dir_35addd29aafebb04e6caa45e6f26d04b</title>
<path fill="none" stroke="black" d="M139.02,-556.1C147.78,-564.47 157.63,-574.69 165.86,-583.92"/>
<polygon fill="black" stroke="black" points="163.4,-586.44 172.6,-591.7 168.69,-581.85 163.4,-586.44"/>
<g id="a_edge33&#45;headlabel"><a xlink:href="dir_000019_000008.html" target="_top" xlink:title="7">
<text text-anchor="middle" x="158.9" y="-583.08" font-family="FreeSans" font-size="10.00">7</text>
</a>
</g>
</g>
<!-- dir_93b162d06b4c1cfd72a25a3b81dbdc2c&#45;&gt;dir_aefcf59a6fdfc9bd7c340f12bedb31af -->
<g id="edge34" class="edge">
<title>dir_93b162d06b4c1cfd72a25a3b81dbdc2c&#45;&gt;dir_aefcf59a6fdfc9bd7c340f12bedb31af</title>
<path fill="none" stroke="black" d="M103.96,-519.8C75.12,-471.11 14.86,-329.55 69,-232 80.85,-210.64 105.3,-196.76 126.43,-188.59"/>
<polygon fill="black" stroke="black" points="127.6,-191.88 135.85,-185.23 125.25,-185.29 127.6,-191.88"/>
<g id="a_edge34&#45;headlabel"><a xlink:href="dir_000019_000009.html" target="_top" xlink:title="9">
<text text-anchor="middle" x="125.17" y="-193.27" font-family="FreeSans" font-size="10.00">9</text>
</a>
</g>
</g>
<!-- dir_93b162d06b4c1cfd72a25a3b81dbdc2c&#45;&gt;dir_b9901e150939d9aa0c49934eef95a7bb -->
<g id="edge35" class="edge">
<title>dir_93b162d06b4c1cfd72a25a3b81dbdc2c&#45;&gt;dir_b9901e150939d9aa0c49934eef95a7bb</title>
<path fill="none" stroke="black" d="M114.54,-519.97C113.03,-472.19 120.36,-336.62 127.31,-278.27"/>
<polygon fill="black" stroke="black" points="130.78,-278.67 128.6,-268.31 123.84,-277.77 130.78,-278.67"/>
<g id="a_edge35&#45;headlabel"><a xlink:href="dir_000019_000014.html" target="_top" xlink:title="4">
<text text-anchor="middle" x="133.14" y="-280.1" font-family="FreeSans" font-size="10.00">4</text>
</a>
</g>
</g>
<!-- dir_93b162d06b4c1cfd72a25a3b81dbdc2c&#45;&gt;dir_e4d5a5ad095028ae0129065cd60b3253 -->
<g id="edge36" class="edge">
<title>dir_93b162d06b4c1cfd72a25a3b81dbdc2c&#45;&gt;dir_e4d5a5ad095028ae0129065cd60b3253</title>
<path fill="none" stroke="black" d="M114.62,-519.92C116.48,-490.36 128.62,-427.82 143,-376 145.43,-367.25 148.48,-357.83 151.82,-349.39"/>
<polygon fill="black" stroke="black" points="155.11,-350.6 155.84,-340.03 148.68,-347.83 155.11,-350.6"/>
<g id="a_edge36&#45;headlabel"><a xlink:href="dir_000019_000007.html" target="_top" xlink:title="4">
<text text-anchor="middle" x="156.29" y="-352.53" font-family="FreeSans" font-size="10.00">4</text>
</a>
</g>
</g>
<!-- dir_93b162d06b4c1cfd72a25a3b81dbdc2c&#45;&gt;dir_f4b573509b6a610b6536470b1c19f9ed -->
<g id="edge37" class="edge">
<title>dir_93b162d06b4c1cfd72a25a3b81dbdc2c&#45;&gt;dir_f4b573509b6a610b6536470b1c19f9ed</title>
<path fill="none" stroke="black" d="M132.34,-519.7C142.36,-510.8 155.68,-499.82 168.1,-490.2"/>
<polygon fill="black" stroke="black" points="170.26,-492.95 176.09,-484.1 166.02,-487.39 170.26,-492.95"/>
<g id="a_edge37&#45;headlabel"><a xlink:href="dir_000019_000012.html" target="_top" xlink:title="1">
<text text-anchor="middle" x="169.13" y="-494.89" font-family="FreeSans" font-size="10.00">1</text>
</a>
</g>
</g>
<!-- dir_99aed44a5fc429ff55959e3c685520ed&#45;&gt;dir_35addd29aafebb04e6caa45e6f26d04b -->
<g id="edge38" class="edge">
<title>dir_99aed44a5fc429ff55959e3c685520ed&#45;&gt;dir_35addd29aafebb04e6caa45e6f26d04b</title>
<path fill="none" stroke="black" d="M334.63,-52.07C354.89,-77.5 389,-127.66 389,-177 389,-467 389,-467 389,-467 389,-513.04 371.69,-526.92 336,-556 302.37,-583.39 253.7,-597.02 220.33,-603.52"/>
<polygon fill="black" stroke="black" points="219.29,-600.16 210.08,-605.39 220.54,-607.04 219.29,-600.16"/>
<g id="a_edge38&#45;headlabel"><a xlink:href="dir_000030_000008.html" target="_top" xlink:title="2">
<text text-anchor="middle" x="222.31" y="-594.22" font-family="FreeSans" font-size="10.00">2</text>
</a>
</g>
</g>
<!-- dir_99aed44a5fc429ff55959e3c685520ed&#45;&gt;dir_aefcf59a6fdfc9bd7c340f12bedb31af -->
<g id="edge39" class="edge">
<title>dir_99aed44a5fc429ff55959e3c685520ed&#45;&gt;dir_aefcf59a6fdfc9bd7c340f12bedb31af</title>
<path fill="none" stroke="black" d="M278.93,-52.09C260.02,-60.63 238.31,-72.51 222,-88 203.44,-105.62 189.91,-131.67 180.03,-151.04"/>
<polygon fill="black" stroke="black" points="176.91,-149.45 175.46,-159.95 183.14,-152.65 176.91,-149.45"/>
<g id="a_edge39&#45;headlabel"><a xlink:href="dir_000030_000009.html" target="_top" xlink:title="2">
<text text-anchor="middle" x="176.02" y="-142.46" font-family="FreeSans" font-size="10.00">2</text>
</a>
</g>
</g>
<!-- dir_aefcf59a6fdfc9bd7c340f12bedb31af&#45;&gt;dir_35addd29aafebb04e6caa45e6f26d04b -->
<g id="edge1" class="edge">
<title>dir_aefcf59a6fdfc9bd7c340f12bedb31af&#45;&gt;dir_35addd29aafebb04e6caa45e6f26d04b</title>
<path fill="none" stroke="black" d="M135.69,-187.37C113.63,-194.94 84.03,-208.59 68,-232 4.47,-324.76 42.1,-371.64 46,-484 47.11,-516.06 31.84,-530.28 51,-556 73.46,-586.15 115.15,-599.15 145.81,-604.75"/>
<polygon fill="black" stroke="black" points="145.3,-608.22 155.74,-606.39 146.44,-601.31 145.3,-608.22"/>
<g id="a_edge1&#45;headlabel"><a xlink:href="dir_000009_000008.html" target="_top" xlink:title="46">
<text text-anchor="middle" x="141.29" y="-607.94" font-family="FreeSans" font-size="10.00">46</text>
</a>
</g>
</g>
<!-- dir_aefcf59a6fdfc9bd7c340f12bedb31af&#45;&gt;dir_405ce7a1489983e8b36f67512c8c61c7 -->
<g id="edge2" class="edge">
<title>dir_aefcf59a6fdfc9bd7c340f12bedb31af&#45;&gt;dir_405ce7a1489983e8b36f67512c8c61c7</title>
<path fill="none" stroke="black" d="M163.86,-159.73C165.23,-141.39 168.8,-111.82 178,-88 181.68,-78.46 187.21,-68.82 192.75,-60.42"/>
<polygon fill="black" stroke="black" points="195.64,-62.4 198.44,-52.18 189.88,-58.42 195.64,-62.4"/>
<g id="a_edge2&#45;headlabel"><a xlink:href="dir_000009_000004.html" target="_top" xlink:title="9">
<text text-anchor="middle" x="195.93" y="-64.47" font-family="FreeSans" font-size="10.00">9</text>
</a>
</g>
</g>
<!-- dir_aefcf59a6fdfc9bd7c340f12bedb31af&#45;&gt;dir_902b89daf5ded75921b93acc9e867424 -->
<g id="edge3" class="edge">
<title>dir_aefcf59a6fdfc9bd7c340f12bedb31af&#45;&gt;dir_902b89daf5ded75921b93acc9e867424</title>
<path fill="none" stroke="black" d="M180.07,-159.7C191.08,-150.71 205.67,-139.61 219.16,-129.92"/>
<polygon fill="black" stroke="black" points="221.24,-132.74 227.38,-124.1 217.2,-127.03 221.24,-132.74"/>
<g id="a_edge3&#45;headlabel"><a xlink:href="dir_000009_000031.html" target="_top" xlink:title="23">
<text text-anchor="middle" x="219.95" y="-134.64" font-family="FreeSans" font-size="10.00">23</text>
</a>
</g>
</g>
<!-- dir_aefcf59a6fdfc9bd7c340f12bedb31af&#45;&gt;dir_93b162d06b4c1cfd72a25a3b81dbdc2c -->
<g id="edge4" class="edge">
<title>dir_aefcf59a6fdfc9bd7c340f12bedb31af&#45;&gt;dir_93b162d06b4c1cfd72a25a3b81dbdc2c</title>
<path fill="none" stroke="black" d="M135.66,-191.3C118.39,-199.7 97.63,-212.84 87,-232 36.04,-323.84 86.45,-454.67 108.43,-510.31"/>
<polygon fill="black" stroke="black" points="105.24,-511.78 112.17,-519.8 111.75,-509.21 105.24,-511.78"/>
<g id="a_edge4&#45;headlabel"><a xlink:href="dir_000009_000019.html" target="_top" xlink:title="4">
<text text-anchor="middle" x="101.28" y="-506.98" font-family="FreeSans" font-size="10.00">4</text>
</a>
</g>
</g>
<!-- dir_aefcf59a6fdfc9bd7c340f12bedb31af&#45;&gt;dir_99aed44a5fc429ff55959e3c685520ed -->
<g id="edge5" class="edge">
<title>dir_aefcf59a6fdfc9bd7c340f12bedb31af&#45;&gt;dir_99aed44a5fc429ff55959e3c685520ed</title>
<path fill="none" stroke="black" d="M162.55,-159.95C167.62,-140.42 182.41,-108.5 204,-88 220.88,-71.97 243.55,-59.81 264.43,-51.2"/>
<polygon fill="black" stroke="black" points="265.84,-54.41 273.87,-47.49 263.28,-47.89 265.84,-54.41"/>
<g id="a_edge5&#45;headlabel"><a xlink:href="dir_000009_000030.html" target="_top" xlink:title="1">
<text text-anchor="middle" x="263.53" y="-55.86" font-family="FreeSans" font-size="10.00">1</text>
</a>
</g>
</g>
<!-- dir_aefcf59a6fdfc9bd7c340f12bedb31af&#45;&gt;dir_b9901e150939d9aa0c49934eef95a7bb -->
<g id="edge6" class="edge">
<title>dir_aefcf59a6fdfc9bd7c340f12bedb31af&#45;&gt;dir_b9901e150939d9aa0c49934eef95a7bb</title>
<path fill="none" stroke="black" d="M161.56,-196.1C158.99,-204.04 155.09,-213.67 150.92,-222.51"/>
<polygon fill="black" stroke="black" points="147.67,-221.19 146.33,-231.7 153.93,-224.32 147.67,-221.19"/>
<g id="a_edge6&#45;headlabel"><a xlink:href="dir_000009_000014.html" target="_top" xlink:title="4">
<text text-anchor="middle" x="146.74" y="-214.2" font-family="FreeSans" font-size="10.00">4</text>
</a>
</g>
</g>
<!-- dir_aefcf59a6fdfc9bd7c340f12bedb31af&#45;&gt;dir_e4d5a5ad095028ae0129065cd60b3253 -->
<g id="edge8" class="edge">
<title>dir_aefcf59a6fdfc9bd7c340f12bedb31af&#45;&gt;dir_e4d5a5ad095028ae0129065cd60b3253</title>
<path fill="none" stroke="black" d="M177.53,-196.37C182.2,-206.58 186.2,-219.83 188,-232 191.07,-252.81 188.38,-276.5 183.82,-294.21"/>
<polygon fill="black" stroke="black" points="180.44,-293.3 180.95,-303.88 187.15,-295.29 180.44,-293.3"/>
<g id="a_edge8&#45;headlabel"><a xlink:href="dir_000009_000007.html" target="_top" xlink:title="11">
<text text-anchor="middle" x="178.74" y="-286.54" font-family="FreeSans" font-size="10.00">11</text>
</a>
</g>
</g>
<!-- dir_aefcf59a6fdfc9bd7c340f12bedb31af&#45;&gt;dir_f4b573509b6a610b6536470b1c19f9ed -->
<g id="edge9" class="edge">
<title>dir_aefcf59a6fdfc9bd7c340f12bedb31af&#45;&gt;dir_f4b573509b6a610b6536470b1c19f9ed</title>
<path fill="none" stroke="black" d="M135.95,-194.15C121.33,-202.81 104.71,-215.31 96,-232 88.6,-246.19 91.79,-252.56 96,-268 114.42,-335.6 162.6,-403.65 187.78,-439.38"/>
<polygon fill="black" stroke="black" points="185.05,-441.58 193.66,-447.75 190.78,-437.55 185.05,-441.58"/>
<g id="a_edge9&#45;headlabel"><a xlink:href="dir_000009_000012.html" target="_top" xlink:title="2">
<text text-anchor="middle" x="180.66" y="-437.77" font-family="FreeSans" font-size="10.00">2</text>
</a>
</g>
</g>
<!-- dir_aefcf59a6fdfc9bd7c340f12bedb31af&#45;&gt;dir_db3afc5e367a93f87ffcc764fb4101bb -->
<g id="edge7" class="edge">
<title>dir_aefcf59a6fdfc9bd7c340f12bedb31af&#45;&gt;dir_db3afc5e367a93f87ffcc764fb4101bb</title>
<path fill="none" stroke="black" d="M178.19,-196.4C193.3,-220.19 214.99,-264.43 229,-304 236.18,-324.28 242.18,-347.87 244.93,-365.67"/>
<polygon fill="black" stroke="black" points="241.47,-366.18 246.18,-375.67 248.41,-365.31 241.47,-366.18"/>
<g id="a_edge7&#45;headlabel"><a xlink:href="dir_000009_000024.html" target="_top" xlink:title="7">
<text text-anchor="middle" x="238.2" y="-360.47" font-family="FreeSans" font-size="10.00">7</text>
</a>
</g>
</g>
<!-- dir_b9901e150939d9aa0c49934eef95a7bb&#45;&gt;dir_93b162d06b4c1cfd72a25a3b81dbdc2c -->
<g id="edge31" class="edge">
<title>dir_b9901e150939d9aa0c49934eef95a7bb&#45;&gt;dir_93b162d06b4c1cfd72a25a3b81dbdc2c</title>
<path fill="none" stroke="black" d="M135.47,-268.31C136.94,-316.31 129.63,-451.44 122.7,-509.7"/>
<polygon fill="black" stroke="black" points="119.18,-509.6 121.37,-519.97 126.12,-510.5 119.18,-509.6"/>
<g id="a_edge31&#45;headlabel"><a xlink:href="dir_000014_000019.html" target="_top" xlink:title="1">
<text text-anchor="middle" x="116.83" y="-503.17" font-family="FreeSans" font-size="10.00">1</text>
</a>
</g>
</g>
<!-- dir_b9901e150939d9aa0c49934eef95a7bb&#45;&gt;dir_aefcf59a6fdfc9bd7c340f12bedb31af -->
<g id="edge32" class="edge">
<title>dir_b9901e150939d9aa0c49934eef95a7bb&#45;&gt;dir_aefcf59a6fdfc9bd7c340f12bedb31af</title>
<path fill="none" stroke="black" d="M134.5,-231.7C137.09,-223.73 141.01,-214.1 145.18,-205.26"/>
<polygon fill="black" stroke="black" points="148.42,-206.61 149.77,-196.1 142.17,-203.48 148.42,-206.61"/>
<g id="a_edge32&#45;headlabel"><a xlink:href="dir_000014_000009.html" target="_top" xlink:title="7">
<text text-anchor="middle" x="149.35" y="-208.6" font-family="FreeSans" font-size="10.00">7</text>
</a>
</g>
</g>
<!-- dir_e4d5a5ad095028ae0129065cd60b3253&#45;&gt;dir_35addd29aafebb04e6caa45e6f26d04b -->
<g id="edge24" class="edge">
<title>dir_e4d5a5ad095028ae0129065cd60b3253&#45;&gt;dir_35addd29aafebb04e6caa45e6f26d04b</title>
<path fill="none" stroke="black" d="M174.02,-340.43C175.28,-370.01 171.69,-431.9 176,-484 177.34,-500.17 179.76,-503.93 182,-520 184.88,-540.66 187.49,-564.11 188.02,-581.75"/>
<polygon fill="black" stroke="black" points="184.52,-581.92 188.07,-591.9 191.52,-581.89 184.52,-581.92"/>
<g id="a_edge24&#45;headlabel"><a xlink:href="dir_000007_000008.html" target="_top" xlink:title="57">
<text text-anchor="middle" x="181.67" y="-575.84" font-family="FreeSans" font-size="10.00">57</text>
</a>
</g>
</g>
<!-- dir_e4d5a5ad095028ae0129065cd60b3253&#45;&gt;dir_405ce7a1489983e8b36f67512c8c61c7 -->
<g id="edge25" class="edge">
<title>dir_e4d5a5ad095028ae0129065cd60b3253&#45;&gt;dir_405ce7a1489983e8b36f67512c8c61c7</title>
<path fill="none" stroke="black" d="M174.77,-303.87C177.59,-293.52 181.16,-280.04 184,-268 191.51,-236.19 194.34,-228.35 199,-196 205.68,-149.57 209.18,-95.08 210.81,-62.88"/>
<polygon fill="black" stroke="black" points="214.32,-62.63 211.3,-52.47 207.33,-62.29 214.32,-62.63"/>
<g id="a_edge25&#45;headlabel"><a xlink:href="dir_000007_000004.html" target="_top" xlink:title="2">
<text text-anchor="middle" x="216.99" y="-63.85" font-family="FreeSans" font-size="10.00">2</text>
</a>
</g>
</g>
<!-- dir_e4d5a5ad095028ae0129065cd60b3253&#45;&gt;dir_93b162d06b4c1cfd72a25a3b81dbdc2c -->
<g id="edge26" class="edge">
<title>dir_e4d5a5ad095028ae0129065cd60b3253&#45;&gt;dir_93b162d06b4c1cfd72a25a3b81dbdc2c</title>
<path fill="none" stroke="black" d="M171.49,-340.03C168.97,-350.35 164.38,-363.83 161,-376 148.08,-422.55 136.97,-477.76 128.33,-509.94"/>
<polygon fill="black" stroke="black" points="124.85,-509.35 125.49,-519.92 131.59,-511.26 124.85,-509.35"/>
<g id="a_edge26&#45;headlabel"><a xlink:href="dir_000007_000019.html" target="_top" xlink:title="10">
<text text-anchor="middle" x="123.11" y="-502.61" font-family="FreeSans" font-size="10.00">10</text>
</a>
</g>
</g>
<!-- dir_e4d5a5ad095028ae0129065cd60b3253&#45;&gt;dir_aefcf59a6fdfc9bd7c340f12bedb31af -->
<g id="edge27" class="edge">
<title>dir_e4d5a5ad095028ae0129065cd60b3253&#45;&gt;dir_aefcf59a6fdfc9bd7c340f12bedb31af</title>
<path fill="none" stroke="black" d="M167.52,-303.88C169.09,-285.92 173.67,-256.89 170,-232 168.74,-223.44 166.38,-214.35 164.26,-206.16"/>
<polygon fill="black" stroke="black" points="167.62,-205.21 161.78,-196.37 160.84,-206.93 167.62,-205.21"/>
<g id="a_edge27&#45;headlabel"><a xlink:href="dir_000007_000009.html" target="_top" xlink:title="42">
<text text-anchor="middle" x="171.26" y="-205.49" font-family="FreeSans" font-size="10.00">42</text>
</a>
</g>
</g>
<!-- dir_e4d5a5ad095028ae0129065cd60b3253&#45;&gt;dir_b9901e150939d9aa0c49934eef95a7bb -->
<g id="edge28" class="edge">
<title>dir_e4d5a5ad095028ae0129065cd60b3253&#45;&gt;dir_b9901e150939d9aa0c49934eef95a7bb</title>
<path fill="none" stroke="black" d="M160.85,-303.7C156.6,-295.64 151.44,-285.89 146.73,-276.98"/>
<polygon fill="black" stroke="black" points="149.81,-275.31 142.04,-268.1 143.62,-278.58 149.81,-275.31"/>
<g id="a_edge28&#45;headlabel"><a xlink:href="dir_000007_000014.html" target="_top" xlink:title="1">
<text text-anchor="middle" x="154" y="-274.66" font-family="FreeSans" font-size="10.00">1</text>
</a>
</g>
</g>
<!-- dir_e4d5a5ad095028ae0129065cd60b3253&#45;&gt;dir_f4b573509b6a610b6536470b1c19f9ed -->
<g id="edge30" class="edge">
<title>dir_e4d5a5ad095028ae0129065cd60b3253&#45;&gt;dir_f4b573509b6a610b6536470b1c19f9ed</title>
<path fill="none" stroke="black" d="M178.59,-340.19C186.77,-364.42 197.39,-408.89 202.1,-437.68"/>
<polygon fill="black" stroke="black" points="198.69,-438.49 203.6,-447.87 205.61,-437.47 198.69,-438.49"/>
<g id="a_edge30&#45;headlabel"><a xlink:href="dir_000007_000012.html" target="_top" xlink:title="22">
<text text-anchor="middle" x="195.35" y="-432.84" font-family="FreeSans" font-size="10.00">22</text>
</a>
</g>
</g>
<!-- dir_e4d5a5ad095028ae0129065cd60b3253&#45;&gt;dir_db3afc5e367a93f87ffcc764fb4101bb -->
<g id="edge29" class="edge">
<title>dir_e4d5a5ad095028ae0129065cd60b3253&#45;&gt;dir_db3afc5e367a93f87ffcc764fb4101bb</title>
<path fill="none" stroke="black" d="M193.73,-340.1C203.52,-348.64 214.64,-359.11 223.9,-368.48"/>
<polygon fill="black" stroke="black" points="221.41,-370.93 230.87,-375.7 226.44,-366.07 221.41,-370.93"/>
<g id="a_edge29&#45;headlabel"><a xlink:href="dir_000007_000024.html" target="_top" xlink:title="5">
<text text-anchor="middle" x="216.87" y="-367.82" font-family="FreeSans" font-size="10.00">5</text>
</a>
</g>
</g>
<!-- dir_f4b573509b6a610b6536470b1c19f9ed&#45;&gt;dir_35addd29aafebb04e6caa45e6f26d04b -->
<g id="edge40" class="edge">
<title>dir_f4b573509b6a610b6536470b1c19f9ed&#45;&gt;dir_35addd29aafebb04e6caa45e6f26d04b</title>
<path fill="none" stroke="black" d="M205.17,-484.19C204.31,-508.53 198.28,-553.28 192.22,-582.06"/>
<polygon fill="black" stroke="black" points="188.8,-581.35 190,-591.87 195.62,-582.89 188.8,-581.35"/>
<g id="a_edge40&#45;headlabel"><a xlink:href="dir_000012_000008.html" target="_top" xlink:title="28">
<text text-anchor="middle" x="186.82" y="-574.71" font-family="FreeSans" font-size="10.00">28</text>
</a>
</g>
</g>
<!-- dir_f4b573509b6a610b6536470b1c19f9ed&#45;&gt;dir_93b162d06b4c1cfd72a25a3b81dbdc2c -->
<g id="edge41" class="edge">
<title>dir_f4b573509b6a610b6536470b1c19f9ed&#45;&gt;dir_93b162d06b4c1cfd72a25a3b81dbdc2c</title>
<path fill="none" stroke="black" d="M187.88,-484.1C177.91,-492.97 164.61,-503.94 152.18,-513.59"/>
<polygon fill="black" stroke="black" points="150,-510.85 144.17,-519.7 154.25,-516.41 150,-510.85"/>
<g id="a_edge41&#45;headlabel"><a xlink:href="dir_000012_000019.html" target="_top" xlink:title="6">
<text text-anchor="middle" x="151.13" y="-503.91" font-family="FreeSans" font-size="10.00">6</text>
</a>
</g>
</g>
<!-- dir_f4b573509b6a610b6536470b1c19f9ed&#45;&gt;dir_99aed44a5fc429ff55959e3c685520ed -->
<g id="edge42" class="edge">
<title>dir_f4b573509b6a610b6536470b1c19f9ed&#45;&gt;dir_99aed44a5fc429ff55959e3c685520ed</title>
<path fill="none" stroke="black" d="M230.27,-454.66C249.57,-446.02 274.66,-431.89 290,-412 330.79,-359.11 322.88,-334.02 333,-268 345.12,-188.92 340.83,-167.4 331,-88 329.94,-79.48 328.24,-70.28 326.49,-61.98"/>
<polygon fill="black" stroke="black" points="329.87,-61.07 324.28,-52.07 323.04,-62.59 329.87,-61.07"/>
<g id="a_edge42&#45;headlabel"><a xlink:href="dir_000012_000030.html" target="_top" xlink:title="1">
<text text-anchor="middle" x="333.42" y="-61.46" font-family="FreeSans" font-size="10.00">1</text>
</a>
</g>
</g>
<!-- dir_f4b573509b6a610b6536470b1c19f9ed&#45;&gt;dir_aefcf59a6fdfc9bd7c340f12bedb31af -->
<g id="edge43" class="edge">
<title>dir_f4b573509b6a610b6536470b1c19f9ed&#45;&gt;dir_aefcf59a6fdfc9bd7c340f12bedb31af</title>
<path fill="none" stroke="black" d="M183.19,-447.75C152.98,-415.19 97.99,-341.33 78,-268 73.79,-252.56 70.6,-246.19 78,-232 87.89,-213.05 107.98,-199.5 126.28,-190.84"/>
<polygon fill="black" stroke="black" points="127.86,-193.97 135.62,-186.76 125.06,-187.56 127.86,-193.97"/>
<g id="a_edge43&#45;headlabel"><a xlink:href="dir_000012_000009.html" target="_top" xlink:title="53">
<text text-anchor="middle" x="125.7" y="-195.51" font-family="FreeSans" font-size="10.00">53</text>
</a>
</g>
</g>
<!-- dir_f4b573509b6a610b6536470b1c19f9ed&#45;&gt;dir_e4d5a5ad095028ae0129065cd60b3253 -->
<g id="edge45" class="edge">
<title>dir_f4b573509b6a610b6536470b1c19f9ed&#45;&gt;dir_e4d5a5ad095028ae0129065cd60b3253</title>
<path fill="none" stroke="black" d="M194.43,-447.87C186.25,-423.67 175.63,-379.21 170.91,-350.39"/>
<polygon fill="black" stroke="black" points="174.32,-349.57 169.4,-340.19 167.4,-350.59 174.32,-349.57"/>
<g id="a_edge45&#45;headlabel"><a xlink:href="dir_000012_000007.html" target="_top" xlink:title="8">
<text text-anchor="middle" x="177.66" y="-350.21" font-family="FreeSans" font-size="10.00">8</text>
</a>
</g>
</g>
<!-- dir_f4b573509b6a610b6536470b1c19f9ed&#45;&gt;dir_db3afc5e367a93f87ffcc764fb4101bb -->
<g id="edge44" class="edge">
<title>dir_f4b573509b6a610b6536470b1c19f9ed&#45;&gt;dir_db3afc5e367a93f87ffcc764fb4101bb</title>
<path fill="none" stroke="black" d="M206.97,-447.7C210.78,-439.56 216.22,-429.69 221.78,-420.7"/>
<polygon fill="black" stroke="black" points="224.85,-422.4 227.33,-412.1 218.97,-418.61 224.85,-422.4"/>
<g id="a_edge44&#45;headlabel"><a xlink:href="dir_000012_000024.html" target="_top" xlink:title="7">
<text text-anchor="middle" x="225.28" y="-424.46" font-family="FreeSans" font-size="10.00">7</text>
</a>
</g>
</g>
<!-- dir_db3afc5e367a93f87ffcc764fb4101bb&#45;&gt;dir_35addd29aafebb04e6caa45e6f26d04b -->
<g id="edge10" class="edge">
<title>dir_db3afc5e367a93f87ffcc764fb4101bb&#45;&gt;dir_35addd29aafebb04e6caa45e6f26d04b</title>
<path fill="none" stroke="black" d="M247.2,-412C250.98,-430.12 255.07,-459.5 249,-484 239.8,-521.13 217.34,-559.38 201.17,-583.63"/>
<polygon fill="black" stroke="black" points="198.28,-581.66 195.54,-591.9 204.06,-585.6 198.28,-581.66"/>
<g id="a_edge10&#45;headlabel"><a xlink:href="dir_000024_000008.html" target="_top" xlink:title="24">
<text text-anchor="middle" x="197.95" y="-574.59" font-family="FreeSans" font-size="10.00">24</text>
</a>
</g>
</g>
<!-- dir_db3afc5e367a93f87ffcc764fb4101bb&#45;&gt;dir_405ce7a1489983e8b36f67512c8c61c7 -->
<g id="edge11" class="edge">
<title>dir_db3afc5e367a93f87ffcc764fb4101bb&#45;&gt;dir_405ce7a1489983e8b36f67512c8c61c7</title>
<path fill="none" stroke="black" d="M257,-375.82C276.37,-350.26 309,-299.93 309,-251 309,-251 309,-251 309,-177 309,-137.2 320.4,-121.56 299,-88 287.26,-69.59 266.6,-56.61 248.36,-48.1"/>
<polygon fill="black" stroke="black" points="249.67,-44.85 239.11,-44.06 246.87,-51.27 249.67,-44.85"/>
<g id="a_edge11&#45;headlabel"><a xlink:href="dir_000024_000004.html" target="_top" xlink:title="1">
<text text-anchor="middle" x="254.1" y="-41.19" font-family="FreeSans" font-size="10.00">1</text>
</a>
</g>
</g>
<!-- dir_db3afc5e367a93f87ffcc764fb4101bb&#45;&gt;dir_902b89daf5ded75921b93acc9e867424 -->
<g id="edge12" class="edge">
<title>dir_db3afc5e367a93f87ffcc764fb4101bb&#45;&gt;dir_902b89daf5ded75921b93acc9e867424</title>
<path fill="none" stroke="black" d="M241.29,-375.77C243.47,-337.18 257.56,-240.84 253,-160 252.53,-151.64 251.64,-142.58 251.09,-134.35"/>
<polygon fill="black" stroke="black" points="254.57,-133.97 250.62,-124.14 247.58,-134.3 254.57,-133.97"/>
<g id="a_edge12&#45;headlabel"><a xlink:href="dir_000024_000031.html" target="_top" xlink:title="1">
<text text-anchor="middle" x="257.58" y="-134.93" font-family="FreeSans" font-size="10.00">1</text>
</a>
</g>
</g>
<!-- dir_db3afc5e367a93f87ffcc764fb4101bb&#45;&gt;dir_93b162d06b4c1cfd72a25a3b81dbdc2c -->
<g id="edge13" class="edge">
<title>dir_db3afc5e367a93f87ffcc764fb4101bb&#45;&gt;dir_93b162d06b4c1cfd72a25a3b81dbdc2c</title>
<path fill="none" stroke="black" d="M247.2,-412.08C250.89,-431.33 253.65,-462.72 239,-484 223.92,-505.9 197.73,-518.82 173.47,-526.41"/>
<polygon fill="black" stroke="black" points="172.23,-523.13 163.59,-529.25 174.16,-529.85 172.23,-523.13"/>
<g id="a_edge13&#45;headlabel"><a xlink:href="dir_000024_000019.html" target="_top" xlink:title="1">
<text text-anchor="middle" x="174.9" y="-516.9" font-family="FreeSans" font-size="10.00">1</text>
</a>
</g>
</g>
<!-- dir_db3afc5e367a93f87ffcc764fb4101bb&#45;&gt;dir_99aed44a5fc429ff55959e3c685520ed -->
<g id="edge14" class="edge">
<title>dir_db3afc5e367a93f87ffcc764fb4101bb&#45;&gt;dir_99aed44a5fc429ff55959e3c685520ed</title>
<path fill="none" stroke="black" d="M262.88,-375.89C273.22,-366.18 285.45,-353.33 294,-340 316.95,-304.23 329,-293.5 329,-251 329,-251 329,-251 329,-177 329,-136.92 325.38,-90.59 322.74,-62.05"/>
<polygon fill="black" stroke="black" points="326.21,-61.65 321.78,-52.03 319.25,-62.31 326.21,-61.65"/>
<g id="a_edge14&#45;headlabel"><a xlink:href="dir_000024_000030.html" target="_top" xlink:title="2">
<text text-anchor="middle" x="329.38" y="-62.46" font-family="FreeSans" font-size="10.00">2</text>
</a>
</g>
</g>
<!-- dir_db3afc5e367a93f87ffcc764fb4101bb&#45;&gt;dir_aefcf59a6fdfc9bd7c340f12bedb31af -->
<g id="edge15" class="edge">
<title>dir_db3afc5e367a93f87ffcc764fb4101bb&#45;&gt;dir_aefcf59a6fdfc9bd7c340f12bedb31af</title>
<path fill="none" stroke="black" d="M232.75,-375.67C226.55,-357.54 219.63,-328.37 211,-304 198.68,-269.22 180.44,-230.83 169.91,-205.9"/>
<polygon fill="black" stroke="black" points="173.06,-204.34 166.04,-196.4 166.58,-206.98 173.06,-204.34"/>
<g id="a_edge15&#45;headlabel"><a xlink:href="dir_000024_000009.html" target="_top" xlink:title="12">
<text text-anchor="middle" x="177.04" y="-204.09" font-family="FreeSans" font-size="10.00">12</text>
</a>
</g>
</g>
<!-- dir_db3afc5e367a93f87ffcc764fb4101bb&#45;&gt;dir_b9901e150939d9aa0c49934eef95a7bb -->
<g id="edge16" class="edge">
<title>dir_db3afc5e367a93f87ffcc764fb4101bb&#45;&gt;dir_b9901e150939d9aa0c49934eef95a7bb</title>
<path fill="none" stroke="black" d="M238.88,-375.82C233.66,-356.75 223.21,-325.8 206,-304 196.86,-292.43 184.57,-282.2 172.68,-273.89"/>
<polygon fill="black" stroke="black" points="174.41,-270.83 164.15,-268.19 170.52,-276.65 174.41,-270.83"/>
<g id="a_edge16&#45;headlabel"><a xlink:href="dir_000024_000014.html" target="_top" xlink:title="3">
<text text-anchor="middle" x="178.98" y="-267.97" font-family="FreeSans" font-size="10.00">3</text>
</a>
</g>
</g>
<!-- dir_db3afc5e367a93f87ffcc764fb4101bb&#45;&gt;dir_e4d5a5ad095028ae0129065cd60b3253 -->
<g id="edge17" class="edge">
<title>dir_db3afc5e367a93f87ffcc764fb4101bb&#45;&gt;dir_e4d5a5ad095028ae0129065cd60b3253</title>
<path fill="none" stroke="black" d="M219.04,-375.7C209.23,-367.14 198.12,-356.66 188.88,-347.3"/>
<polygon fill="black" stroke="black" points="191.4,-344.87 181.94,-340.1 186.36,-349.73 191.4,-344.87"/>
<g id="a_edge17&#45;headlabel"><a xlink:href="dir_000024_000007.html" target="_top" xlink:title="16">
<text text-anchor="middle" x="195.94" y="-342.99" font-family="FreeSans" font-size="10.00">16</text>
</a>
</g>
</g>
<!-- dir_db3afc5e367a93f87ffcc764fb4101bb&#45;&gt;dir_f4b573509b6a610b6536470b1c19f9ed -->
<g id="edge18" class="edge">
<title>dir_db3afc5e367a93f87ffcc764fb4101bb&#45;&gt;dir_f4b573509b6a610b6536470b1c19f9ed</title>
<path fill="none" stroke="black" d="M239.12,-412.1C235.34,-420.21 229.92,-430.08 224.36,-439.08"/>
<polygon fill="black" stroke="black" points="221.28,-437.39 218.8,-447.7 227.16,-441.19 221.28,-437.39"/>
<g id="a_edge18&#45;headlabel"><a xlink:href="dir_000024_000012.html" target="_top" xlink:title="11">
<text text-anchor="middle" x="220.84" y="-430.34" font-family="FreeSans" font-size="10.00">11</text>
</a>
</g>
</g>
</g>
</svg>
