<?xml version="1.0" encoding="UTF-8" standalone="no"?>
<!DOCTYPE svg PUBLIC "-//W3C//DTD SVG 1.1//EN"
 "http://www.w3.org/Graphics/SVG/1.1/DTD/svg11.dtd">
<!-- Generated by graphviz version 2.43.0 (0)
 -->
<!-- Title: Provenance Pages: 1 -->
<svg width="186pt" height="239pt"
 viewBox="0.00 0.00 186.00 239.00" xmlns="http://www.w3.org/2000/svg" xmlns:xlink="http://www.w3.org/1999/xlink">
<g id="graph0" class="graph" transform="scale(1 1) rotate(0) translate(4 235)">
<title>Provenance</title>
<polygon fill="white" stroke="transparent" points="-4,4 -4,-235 182,-235 182,4 -4,4"/>
<g id="clust1" class="cluster">
<title>clusterdir_db7313a27b1cae523c7773e30bdf986c</title>
<g id="a_clust1"><a xlink:href="dir_db7313a27b1cae523c7773e30bdf986c.html" target="_top" xlink:title="copasi">
<polygon fill="#ddddee" stroke="black" points="8,-8 8,-223 170,-223 170,-8 8,-8"/>
<text text-anchor="middle" x="89" y="-211" font-family="FreeSans" font-size="10.00">copasi</text>
</a>
</g>
</g>
<!-- dir_35addd29aafebb04e6caa45e6f26d04b -->
<g id="node1" class="node">
<title>dir_35addd29aafebb04e6caa45e6f26d04b</title>
<g id="a_node1"><a xlink:href="dir_35addd29aafebb04e6caa45e6f26d04b.html" target="_top" xlink:title="core">
<polygon fill="none" stroke="black" points="106,-124 52,-124 52,-88 106,-88 106,-124"/>
<text text-anchor="middle" x="79" y="-103.5" font-family="FreeSans" font-size="10.00">core</text>
</a>
</g>
</g>
<!-- dir_9d5eda6d4cabe7ed4bd8d4e297f3e4b6 -->
<g id="node2" class="node">
<title>dir_9d5eda6d4cabe7ed4bd8d4e297f3e4b6</title>
<g id="a_node2"><a xlink:href="dir_9d5eda6d4cabe7ed4bd8d4e297f3e4b6.html" target="_top" xlink:title="undo">
<polygon fill="none" stroke="black" points="70,-52 16,-52 16,-16 70,-16 70,-52"/>
<text text-anchor="middle" x="43" y="-31.5" font-family="FreeSans" font-size="10.00">undo</text>
</a>
</g>
</g>
<!-- dir_35addd29aafebb04e6caa45e6f26d04b&#45;&gt;dir_9d5eda6d4cabe7ed4bd8d4e297f3e4b6 -->
<g id="edge1" class="edge">
<title>dir_35addd29aafebb04e6caa45e6f26d04b&#45;&gt;dir_9d5eda6d4cabe7ed4bd8d4e297f3e4b6</title>
<path fill="none" stroke="black" d="M64.19,-87.7C59.27,-79.73 54.1,-70.1 49.95,-61.26"/>
<polygon fill="black" stroke="black" points="53.14,-59.84 45.9,-52.1 46.74,-62.67 53.14,-59.84"/>
<g id="a_edge1&#45;headlabel"><a xlink:href="dir_000008_000018.html" target="_top" xlink:title="5">
<text text-anchor="middle" x="57.19" y="-59.48" font-family="FreeSans" font-size="10.00">5</text>
</a>
</g>
</g>
<!-- dir_b9901e150939d9aa0c49934eef95a7bb -->
<g id="node3" class="node">
<title>dir_b9901e150939d9aa0c49934eef95a7bb</title>
<g id="a_node3"><a xlink:href="dir_b9901e150939d9aa0c49934eef95a7bb.html" target="_top" xlink:title="commandline">
<polygon fill="none" stroke="black" points="162,-52 88,-52 88,-16 162,-16 162,-52"/>
<text text-anchor="middle" x="125" y="-31.5" font-family="FreeSans" font-size="10.00">commandline</text>
</a>
</g>
</g>
<!-- dir_35addd29aafebb04e6caa45e6f26d04b&#45;&gt;dir_b9901e150939d9aa0c49934eef95a7bb -->
<g id="edge2" class="edge">
<title>dir_35addd29aafebb04e6caa45e6f26d04b&#45;&gt;dir_b9901e150939d9aa0c49934eef95a7bb</title>
<path fill="none" stroke="black" d="M90.37,-87.7C95.72,-79.56 102.2,-69.69 108.11,-60.7"/>
<polygon fill="black" stroke="black" points="111.19,-62.38 113.76,-52.1 105.34,-58.54 111.19,-62.38"/>
<g id="a_edge2&#45;headlabel"><a xlink:href="dir_000008_000014.html" target="_top" xlink:title="2">
<text text-anchor="middle" x="111.59" y="-64.45" font-family="FreeSans" font-size="10.00">2</text>
</a>
</g>
</g>
<!-- dir_9d5eda6d4cabe7ed4bd8d4e297f3e4b6&#45;&gt;dir_35addd29aafebb04e6caa45e6f26d04b -->
<g id="edge3" class="edge">
<title>dir_9d5eda6d4cabe7ed4bd8d4e297f3e4b6&#45;&gt;dir_35addd29aafebb04e6caa45e6f26d04b</title>
<path fill="none" stroke="black" d="M57.69,-52.1C62.61,-60.04 67.78,-69.67 71.95,-78.51"/>
<polygon fill="black" stroke="black" points="68.77,-79.97 76.02,-87.7 75.17,-77.14 68.77,-79.97"/>
<g id="a_edge3&#45;headlabel"><a xlink:href="dir_000018_000008.html" target="_top" xlink:title="7">
<text text-anchor="middle" x="64.71" y="-75.34" font-family="FreeSans" font-size="10.00">7</text>
</a>
</g>
</g>
<!-- dir_236074e7acc3f3d9cdfac141d9b734bb -->
<g id="node4" class="node">
<title>dir_236074e7acc3f3d9cdfac141d9b734bb</title>
<g id="a_node4"><a xlink:href="dir_236074e7acc3f3d9cdfac141d9b734bb.html" target="_top" xlink:title="Provenance">
<polygon fill="#eeeeff" stroke="black" points="113,-196 45,-196 45,-160 113,-160 113,-196"/>
<text text-anchor="middle" x="79" y="-175.5" font-family="FreeSans" font-size="10.00">Provenance</text>
</a>
</g>
</g>
<!-- dir_236074e7acc3f3d9cdfac141d9b734bb&#45;&gt;dir_35addd29aafebb04e6caa45e6f26d04b -->
<g id="edge4" class="edge">
<title>dir_236074e7acc3f3d9cdfac141d9b734bb&#45;&gt;dir_35addd29aafebb04e6caa45e6f26d04b</title>
<path fill="none" stroke="black" d="M79,-159.7C79,-151.98 79,-142.71 79,-134.11"/>
<polygon fill="black" stroke="black" points="82.5,-134.1 79,-124.1 75.5,-134.1 82.5,-134.1"/>
<g id="a_edge4&#45;headlabel"><a xlink:href="dir_000036_000008.html" target="_top" xlink:title="1">
<text text-anchor="middle" x="85.34" y="-135.2" font-family="FreeSans" font-size="10.00">1</text>
</a>
</g>
</g>
<!-- dir_236074e7acc3f3d9cdfac141d9b734bb&#45;&gt;dir_9d5eda6d4cabe7ed4bd8d4e297f3e4b6 -->
<g id="edge5" class="edge">
<title>dir_236074e7acc3f3d9cdfac141d9b734bb&#45;&gt;dir_9d5eda6d4cabe7ed4bd8d4e297f3e4b6</title>
<path fill="none" stroke="black" d="M63.39,-159.77C55.63,-150.03 47.05,-137.18 43,-124 36.84,-103.97 37.21,-80.18 38.91,-62.24"/>
<polygon fill="black" stroke="black" points="42.41,-62.51 40.07,-52.17 35.45,-61.71 42.41,-62.51"/>
<g id="a_edge5&#45;headlabel"><a xlink:href="dir_000036_000018.html" target="_top" xlink:title="1">
<text text-anchor="middle" x="44.82" y="-63.9" font-family="FreeSans" font-size="10.00">1</text>
</a>
</g>
</g>
<!-- dir_236074e7acc3f3d9cdfac141d9b734bb&#45;&gt;dir_b9901e150939d9aa0c49934eef95a7bb -->
<g id="edge6" class="edge">
<title>dir_236074e7acc3f3d9cdfac141d9b734bb&#45;&gt;dir_b9901e150939d9aa0c49934eef95a7bb</title>
<path fill="none" stroke="black" d="M94.03,-159.58C101.62,-149.78 110.22,-136.94 115,-124 122.32,-104.22 124.69,-80.42 125.3,-62.41"/>
<polygon fill="black" stroke="black" points="128.8,-62.35 125.48,-52.29 121.8,-62.23 128.8,-62.35"/>
<g id="a_edge6&#45;headlabel"><a xlink:href="dir_000036_000014.html" target="_top" xlink:title="1">
<text text-anchor="middle" x="131.57" y="-63.5" font-family="FreeSans" font-size="10.00">1</text>
</a>
</g>
</g>
</g>
</svg>
