<?xml version="1.0" encoding="UTF-8" standalone="no"?>
<!DOCTYPE svg PUBLIC "-//W3C//DTD SVG 1.1//EN"
 "http://www.w3.org/Graphics/SVG/1.1/DTD/svg11.dtd">
<!-- Generated by graphviz version 2.43.0 (0)
 -->
<!-- Title: Graphical Class Hierarchy Pages: 1 -->
<svg width="330pt" height="66pt"
 viewBox="0.00 0.00 330.00 66.00" xmlns="http://www.w3.org/2000/svg" xmlns:xlink="http://www.w3.org/1999/xlink">
<g id="graph0" class="graph" transform="scale(1 1) rotate(0) translate(4 62)">
<title>Graphical Class Hierarchy</title>
<polygon fill="white" stroke="transparent" points="-4,4 -4,-62 326,-62 326,4 -4,4"/>
<!-- Node513 -->
<g id="node1" class="node">
<title>Node513</title>
<g id="a_node1"><a xlink:title=" ">
<polygon fill="white" stroke="#bfbfbf" points="0,-38.5 0,-57.5 98,-57.5 98,-38.5 0,-38.5"/>
<text text-anchor="middle" x="49" y="-45.5" font-family="FreeSans" font-size="10.00">Ui::CQBaseWidget</text>
</a>
</g>
</g>
<!-- Node0 -->
<g id="node2" class="node">
<title>Node0</title>
<g id="a_node2"><a xlink:href="dc/d1a/classCQBaseWidget.html" target="_top" xlink:title=" ">
<polygon fill="white" stroke="black" points="134,-19.5 134,-38.5 217,-38.5 217,-19.5 134,-19.5"/>
<text text-anchor="middle" x="175.5" y="-26.5" font-family="FreeSans" font-size="10.00">CQBaseWidget</text>
</a>
</g>
</g>
<!-- Node513&#45;&gt;Node0 -->
<g id="edge1" class="edge">
<title>Node513&#45;&gt;Node0</title>
<path fill="none" stroke="midnightblue" d="M108.19,-39.12C116.84,-37.8 125.59,-36.46 133.77,-35.22"/>
<polygon fill="midnightblue" stroke="midnightblue" points="107.49,-35.69 98.13,-40.65 108.55,-42.61 107.49,-35.69"/>
</g>
<!-- Node1 -->
<g id="node3" class="node">
<title>Node1</title>
<g id="a_node3"><a xlink:href="d1/d56/classCQBarChart.html" target="_top" xlink:title=" ">
<polygon fill="white" stroke="black" points="253,-19.5 253,-38.5 322,-38.5 322,-19.5 253,-19.5"/>
<text text-anchor="middle" x="287.5" y="-26.5" font-family="FreeSans" font-size="10.00">CQBarChart</text>
</a>
</g>
</g>
<!-- Node0&#45;&gt;Node1 -->
<g id="edge2" class="edge">
<title>Node0&#45;&gt;Node1</title>
<path fill="none" stroke="midnightblue" d="M227.23,-29C235.92,-29 244.76,-29 252.86,-29"/>
<polygon fill="midnightblue" stroke="midnightblue" points="227.15,-25.5 217.15,-29 227.15,-32.5 227.15,-25.5"/>
</g>
<!-- Node802 -->
<g id="node4" class="node">
<title>Node802</title>
<g id="a_node4"><a xlink:title=" ">
<polygon fill="white" stroke="#bfbfbf" points="22,-0.5 22,-19.5 76,-19.5 76,-0.5 22,-0.5"/>
<text text-anchor="middle" x="49" y="-7.5" font-family="FreeSans" font-size="10.00">QWidget</text>
</a>
</g>
</g>
<!-- Node802&#45;&gt;Node0 -->
<g id="edge3" class="edge">
<title>Node802&#45;&gt;Node0</title>
<path fill="none" stroke="midnightblue" d="M85.99,-15.49C100.92,-17.77 118.33,-20.43 133.73,-22.78"/>
<polygon fill="midnightblue" stroke="midnightblue" points="86.51,-12.03 76.1,-13.98 85.46,-18.95 86.51,-12.03"/>
</g>
</g>
</svg>
