<?xml version="1.0" encoding="UTF-8" standalone="no"?>
<!DOCTYPE svg PUBLIC "-//W3C//DTD SVG 1.1//EN"
 "http://www.w3.org/Graphics/SVG/1.1/DTD/svg11.dtd">
<!-- Generated by graphviz version 2.43.0 (0)
 -->
<!-- Title: Graphical Class Hierarchy Pages: 1 -->
<svg width="180pt" height="66pt"
 viewBox="0.00 0.00 180.00 66.00" xmlns="http://www.w3.org/2000/svg" xmlns:xlink="http://www.w3.org/1999/xlink">
<g id="graph0" class="graph" transform="scale(1 1) rotate(0) translate(4 62)">
<title>Graphical Class Hierarchy</title>
<polygon fill="white" stroke="transparent" points="-4,4 -4,-62 176,-62 176,4 -4,4"/>
<!-- Node0 -->
<g id="node1" class="node">
<title>Node0</title>
<g id="a_node1"><a xlink:href="d1/d66/classCRaptorInit.html" target="_top" xlink:title=" ">
<polygon fill="white" stroke="black" points="0,-19.5 0,-38.5 65,-38.5 65,-19.5 0,-19.5"/>
<text text-anchor="middle" x="32.5" y="-26.5" font-family="FreeSans" font-size="10.00">CRaptorInit</text>
</a>
</g>
</g>
<!-- Node1 -->
<g id="node2" class="node">
<title>Node1</title>
<g id="a_node2"><a xlink:href="d7/d39/classCRDFParser.html" target="_top" xlink:title=" ">
<polygon fill="white" stroke="black" points="101,-38.5 101,-57.5 172,-57.5 172,-38.5 101,-38.5"/>
<text text-anchor="middle" x="136.5" y="-45.5" font-family="FreeSans" font-size="10.00">CRDFParser</text>
</a>
</g>
</g>
<!-- Node0&#45;&gt;Node1 -->
<g id="edge1" class="edge">
<title>Node0&#45;&gt;Node1</title>
<path fill="none" stroke="#8b1a1a" d="M75.08,-36.75C83.68,-38.35 92.65,-40.02 100.97,-41.57"/>
<polygon fill="#8b1a1a" stroke="#8b1a1a" points="75.69,-33.3 65.21,-34.91 74.4,-40.18 75.69,-33.3"/>
</g>
<!-- Node2 -->
<g id="node3" class="node">
<title>Node2</title>
<g id="a_node3"><a xlink:href="da/dd9/classCRDFWriter.html" target="_top" xlink:title=" ">
<polygon fill="white" stroke="black" points="102.5,-0.5 102.5,-19.5 170.5,-19.5 170.5,-0.5 102.5,-0.5"/>
<text text-anchor="middle" x="136.5" y="-7.5" font-family="FreeSans" font-size="10.00">CRDFWriter</text>
</a>
</g>
</g>
<!-- Node0&#45;&gt;Node2 -->
<g id="edge2" class="edge">
<title>Node0&#45;&gt;Node2</title>
<path fill="none" stroke="#8b1a1a" d="M75.2,-21.23C84.26,-19.54 93.72,-17.78 102.39,-16.17"/>
<polygon fill="#8b1a1a" stroke="#8b1a1a" points="74.4,-17.82 65.21,-23.09 75.69,-24.7 74.4,-17.82"/>
</g>
</g>
</svg>
