<?xml version="1.0" encoding="UTF-8" standalone="no"?>
<!DOCTYPE svg PUBLIC "-//W3C//DTD SVG 1.1//EN"
 "http://www.w3.org/Graphics/SVG/1.1/DTD/svg11.dtd">
<!-- Generated by graphviz version 2.43.0 (0)
 -->
<!-- Title: Graphical Class Hierarchy Pages: 1 -->
<svg width="275pt" height="66pt"
 viewBox="0.00 0.00 275.00 66.00" xmlns="http://www.w3.org/2000/svg" xmlns:xlink="http://www.w3.org/1999/xlink">
<g id="graph0" class="graph" transform="scale(1 1) rotate(0) translate(4 62)">
<title>Graphical Class Hierarchy</title>
<polygon fill="white" stroke="transparent" points="-4,4 -4,-62 271,-62 271,4 -4,4"/>
<!-- Node0 -->
<g id="node1" class="node">
<title>Node0</title>
<g id="a_node1"><a xlink:href="df/dcb/classCRandom.html" target="_top" xlink:title=" ">
<polygon fill="white" stroke="black" points="0,-19.5 0,-38.5 59,-38.5 59,-19.5 0,-19.5"/>
<text text-anchor="middle" x="29.5" y="-26.5" font-family="FreeSans" font-size="10.00">CRandom</text>
</a>
</g>
</g>
<!-- Node1 -->
<g id="node2" class="node">
<title>Node1</title>
<g id="a_node2"><a xlink:href="d5/d91/classCmt19937.html" target="_top" xlink:title=" ">
<polygon fill="white" stroke="black" points="95,-38.5 95,-57.5 156,-57.5 156,-38.5 95,-38.5"/>
<text text-anchor="middle" x="125.5" y="-45.5" font-family="FreeSans" font-size="10.00">Cmt19937</text>
</a>
</g>
</g>
<!-- Node0&#45;&gt;Node1 -->
<g id="edge1" class="edge">
<title>Node0&#45;&gt;Node1</title>
<path fill="none" stroke="midnightblue" d="M69.11,-36.8C77.75,-38.55 86.78,-40.38 94.99,-42.03"/>
<polygon fill="midnightblue" stroke="midnightblue" points="69.71,-33.35 59.21,-34.8 68.32,-40.22 69.71,-33.35"/>
</g>
<!-- Node3 -->
<g id="node4" class="node">
<title>Node3</title>
<g id="a_node4"><a xlink:href="d6/da2/classCr250.html" target="_top" xlink:title=" ">
<polygon fill="white" stroke="black" points="104.5,-0.5 104.5,-19.5 146.5,-19.5 146.5,-0.5 104.5,-0.5"/>
<text text-anchor="middle" x="125.5" y="-7.5" font-family="FreeSans" font-size="10.00">Cr250</text>
</a>
</g>
</g>
<!-- Node0&#45;&gt;Node3 -->
<g id="edge3" class="edge">
<title>Node0&#45;&gt;Node3</title>
<path fill="none" stroke="midnightblue" d="M69.11,-21.2C81.18,-18.76 94.03,-16.16 104.3,-14.08"/>
<polygon fill="midnightblue" stroke="midnightblue" points="68.32,-17.78 59.21,-23.2 69.71,-24.65 68.32,-17.78"/>
</g>
<!-- Node2 -->
<g id="node3" class="node">
<title>Node2</title>
<g id="a_node3"><a xlink:href="d0/df0/classCmt19937HR.html" target="_top" xlink:title=" ">
<polygon fill="white" stroke="black" points="192,-38.5 192,-57.5 267,-57.5 267,-38.5 192,-38.5"/>
<text text-anchor="middle" x="229.5" y="-45.5" font-family="FreeSans" font-size="10.00">Cmt19937HR</text>
</a>
</g>
</g>
<!-- Node1&#45;&gt;Node2 -->
<g id="edge2" class="edge">
<title>Node1&#45;&gt;Node2</title>
<path fill="none" stroke="midnightblue" d="M166.05,-48C174.53,-48 183.45,-48 191.81,-48"/>
<polygon fill="midnightblue" stroke="midnightblue" points="166,-44.5 156,-48 166,-51.5 166,-44.5"/>
</g>
</g>
</svg>
