<?xml version="1.0" encoding="UTF-8" standalone="no"?>
<!DOCTYPE svg PUBLIC "-//W3C//DTD SVG 1.1//EN"
 "http://www.w3.org/Graphics/SVG/1.1/DTD/svg11.dtd">
<!-- Generated by graphviz version 2.43.0 (0)
 -->
<!-- Title: Graphical Class Hierarchy Pages: 1 -->
<svg width="314pt" height="100pt"
 viewBox="0.00 0.00 314.00 99.50" xmlns="http://www.w3.org/2000/svg" xmlns:xlink="http://www.w3.org/1999/xlink">
<g id="graph0" class="graph" transform="scale(1 1) rotate(0) translate(4 95.5)">
<title>Graphical Class Hierarchy</title>
<polygon fill="white" stroke="transparent" points="-4,4 -4,-95.5 310,-95.5 310,4 -4,4"/>
<!-- Node0 -->
<g id="node1" class="node">
<title>Node0</title>
<g id="a_node1"><a xlink:href="d8/dbd/classCRegisteredCommonName_1_1RenameInterface.html" target="_top" xlink:title=" ">
<polygon fill="white" stroke="black" points="0,-27.5 0,-57.5 135,-57.5 135,-27.5 0,-27.5"/>
<text text-anchor="start" x="8" y="-45.5" font-family="FreeSans" font-size="10.00">CRegisteredCommonName</text>
<text text-anchor="middle" x="67.5" y="-34.5" font-family="FreeSans" font-size="10.00">::RenameInterface</text>
</a>
</g>
</g>
<!-- Node1 -->
<g id="node2" class="node">
<title>Node1</title>
<g id="a_node2"><a xlink:href="d9/d64/classCRegisteredCommonName_1_1ClassMemberRename.html" target="_top" xlink:title=" ">
<polygon fill="white" stroke="black" points="171,-50 171,-91 306,-91 306,-50 171,-50"/>
<text text-anchor="start" x="179" y="-79" font-family="FreeSans" font-size="10.00">CRegisteredCommonName</text>
<text text-anchor="start" x="179" y="-68" font-family="FreeSans" font-size="10.00">::ClassMemberRename&lt;</text>
<text text-anchor="middle" x="238.5" y="-57" font-family="FreeSans" font-size="10.00"> Renamer &gt;</text>
</a>
</g>
</g>
<!-- Node0&#45;&gt;Node1 -->
<g id="edge1" class="edge">
<title>Node0&#45;&gt;Node1</title>
<path fill="none" stroke="midnightblue" d="M145.27,-55.22C153.83,-56.64 162.5,-58.07 170.92,-59.47"/>
<polygon fill="midnightblue" stroke="midnightblue" points="145.73,-51.75 135.29,-53.57 144.59,-58.65 145.73,-51.75"/>
</g>
<!-- Node2 -->
<g id="node3" class="node">
<title>Node2</title>
<g id="a_node3"><a xlink:href="de/ddf/classCRegisteredCommonName_1_1Rename.html" target="_top" xlink:title=" ">
<polygon fill="white" stroke="black" points="171,-0.5 171,-30.5 306,-30.5 306,-0.5 171,-0.5"/>
<text text-anchor="start" x="179" y="-18.5" font-family="FreeSans" font-size="10.00">CRegisteredCommonName</text>
<text text-anchor="middle" x="238.5" y="-7.5" font-family="FreeSans" font-size="10.00">::Rename</text>
</a>
</g>
</g>
<!-- Node0&#45;&gt;Node2 -->
<g id="edge2" class="edge">
<title>Node0&#45;&gt;Node2</title>
<path fill="none" stroke="midnightblue" d="M145.27,-30.23C153.83,-28.87 162.5,-27.48 170.92,-26.14"/>
<polygon fill="midnightblue" stroke="midnightblue" points="144.62,-26.8 135.29,-31.83 145.72,-33.71 144.62,-26.8"/>
</g>
</g>
</svg>
