<?xml version="1.0" encoding="UTF-8" standalone="no"?>
<!DOCTYPE svg PUBLIC "-//W3C//DTD SVG 1.1//EN"
 "http://www.w3.org/Graphics/SVG/1.1/DTD/svg11.dtd">
<!-- Generated by graphviz version 2.43.0 (0)
 -->
<!-- Title: Graphical Class Hierarchy Pages: 1 -->
<svg width="204pt" height="66pt"
 viewBox="0.00 0.00 204.00 66.00" xmlns="http://www.w3.org/2000/svg" xmlns:xlink="http://www.w3.org/1999/xlink">
<g id="graph0" class="graph" transform="scale(1 1) rotate(0) translate(4 62)">
<title>Graphical Class Hierarchy</title>
<polygon fill="white" stroke="transparent" points="-4,4 -4,-62 200,-62 200,4 -4,4"/>
<!-- Node798 -->
<g id="node1" class="node">
<title>Node798</title>
<g id="a_node1"><a xlink:title=" ">
<polygon fill="white" stroke="#bfbfbf" points="18,-38.5 18,-57.5 69,-57.5 69,-38.5 18,-38.5"/>
<text text-anchor="middle" x="43.5" y="-45.5" font-family="FreeSans" font-size="10.00">QDialog</text>
</a>
</g>
</g>
<!-- Node0 -->
<g id="node2" class="node">
<title>Node0</title>
<g id="a_node2"><a xlink:href="dc/d3b/classWizardDialog.html" target="_top" xlink:title=" ">
<polygon fill="white" stroke="black" points="123,-19.5 123,-38.5 196,-38.5 196,-19.5 123,-19.5"/>
<text text-anchor="middle" x="159.5" y="-26.5" font-family="FreeSans" font-size="10.00">WizardDialog</text>
</a>
</g>
</g>
<!-- Node798&#45;&gt;Node0 -->
<g id="edge1" class="edge">
<title>Node798&#45;&gt;Node0</title>
<path fill="none" stroke="midnightblue" d="M79.35,-42.19C93.19,-39.89 109.09,-37.23 123,-34.92"/>
<polygon fill="midnightblue" stroke="midnightblue" points="78.52,-38.78 69.24,-43.88 79.68,-45.69 78.52,-38.78"/>
</g>
<!-- Node877 -->
<g id="node3" class="node">
<title>Node877</title>
<g id="a_node3"><a xlink:title=" ">
<polygon fill="white" stroke="#bfbfbf" points="0,-0.5 0,-19.5 87,-19.5 87,-0.5 0,-0.5"/>
<text text-anchor="middle" x="43.5" y="-7.5" font-family="FreeSans" font-size="10.00">Ui::WizardDialog</text>
</a>
</g>
</g>
<!-- Node877&#45;&gt;Node0 -->
<g id="edge2" class="edge">
<title>Node877&#45;&gt;Node0</title>
<path fill="none" stroke="midnightblue" d="M97.35,-18.81C106.02,-20.25 114.82,-21.72 122.94,-23.07"/>
<polygon fill="midnightblue" stroke="midnightblue" points="97.71,-15.32 87.27,-17.13 96.56,-22.23 97.71,-15.32"/>
</g>
</g>
</svg>
