<?xml version="1.0" encoding="UTF-8" standalone="no"?>
<!DOCTYPE svg PUBLIC "-//W3C//DTD SVG 1.1//EN"
 "http://www.w3.org/Graphics/SVG/1.1/DTD/svg11.dtd">
<!-- Generated by graphviz version 2.43.0 (0)
 -->
<!-- Title: Graphical Class Hierarchy Pages: 1 -->
<svg width="223pt" height="66pt"
 viewBox="0.00 0.00 223.00 66.00" xmlns="http://www.w3.org/2000/svg" xmlns:xlink="http://www.w3.org/1999/xlink">
<g id="graph0" class="graph" transform="scale(1 1) rotate(0) translate(4 62)">
<title>Graphical Class Hierarchy</title>
<polygon fill="white" stroke="transparent" points="-4,4 -4,-62 219,-62 219,4 -4,4"/>
<!-- Node779 -->
<g id="node1" class="node">
<title>Node779</title>
<g id="a_node1"><a xlink:title=" ">
<polygon fill="white" stroke="#bfbfbf" points="0,-19.5 0,-38.5 88,-38.5 88,-19.5 0,-19.5"/>
<text text-anchor="middle" x="44" y="-26.5" font-family="FreeSans" font-size="10.00">std::map&lt; K, T &gt;</text>
</a>
</g>
</g>
<!-- Node0 -->
<g id="node2" class="node">
<title>Node0</title>
<g id="a_node2"><a xlink:href="db/de2/classCData.html" target="_top" xlink:title=" ">
<polygon fill="white" stroke="black" points="147.5,-38.5 147.5,-57.5 191.5,-57.5 191.5,-38.5 147.5,-38.5"/>
<text text-anchor="middle" x="169.5" y="-45.5" font-family="FreeSans" font-size="10.00">CData</text>
</a>
</g>
</g>
<!-- Node779&#45;&gt;Node0 -->
<g id="edge1" class="edge">
<title>Node779&#45;&gt;Node0</title>
<path fill="none" stroke="#8b1a1a" d="M98.24,-37.19C115.56,-39.86 133.79,-42.66 147.34,-44.74"/>
<polygon fill="#8b1a1a" stroke="#8b1a1a" points="98.61,-33.71 88.19,-35.65 97.55,-40.63 98.61,-33.71"/>
</g>
<!-- Node781 -->
<g id="node3" class="node">
<title>Node781</title>
<g id="a_node3"><a xlink:href="d5/d2d/classCDataObjectMap.html" target="_top" xlink:title=" ">
<polygon fill="white" stroke="black" points="124,-0.5 124,-19.5 215,-19.5 215,-0.5 124,-0.5"/>
<text text-anchor="middle" x="169.5" y="-7.5" font-family="FreeSans" font-size="10.00">CDataObjectMap</text>
</a>
</g>
</g>
<!-- Node779&#45;&gt;Node781 -->
<g id="edge2" class="edge">
<title>Node779&#45;&gt;Node781</title>
<path fill="none" stroke="#8b1a1a" d="M98.12,-20.83C106.7,-19.51 115.51,-18.15 123.86,-16.87"/>
<polygon fill="#8b1a1a" stroke="#8b1a1a" points="97.55,-17.37 88.19,-22.35 98.61,-24.29 97.55,-17.37"/>
</g>
</g>
</svg>
