<?xml version="1.0" encoding="UTF-8" standalone="no"?>
<!DOCTYPE svg PUBLIC "-//W3C//DTD SVG 1.1//EN"
 "http://www.w3.org/Graphics/SVG/1.1/DTD/svg11.dtd">
<!-- Generated by graphviz version 2.43.0 (0)
 -->
<!-- Title: Graphical Class Hierarchy Pages: 1 -->
<svg width="252pt" height="78pt"
 viewBox="0.00 0.00 252.00 77.50" xmlns="http://www.w3.org/2000/svg" xmlns:xlink="http://www.w3.org/1999/xlink">
<g id="graph0" class="graph" transform="scale(1 1) rotate(0) translate(4 73.5)">
<title>Graphical Class Hierarchy</title>
<polygon fill="white" stroke="transparent" points="-4,4 -4,-73.5 248,-73.5 248,4 -4,4"/>
<!-- Node0 -->
<g id="node1" class="node">
<title>Node0</title>
<g id="a_node1"><a xlink:href="d2/d21/classCCopasiXMLInterface.html" target="_top" xlink:title=" ">
<polygon fill="white" stroke="black" points="0,-22.5 0,-41.5 113,-41.5 113,-22.5 0,-22.5"/>
<text text-anchor="middle" x="56.5" y="-29.5" font-family="FreeSans" font-size="10.00">CCopasiXMLInterface</text>
</a>
</g>
</g>
<!-- Node1 -->
<g id="node2" class="node">
<title>Node1</title>
<g id="a_node2"><a xlink:href="de/dc4/classCConfigurationFile_1_1CXML.html" target="_top" xlink:title=" ">
<polygon fill="white" stroke="black" points="149,-39 149,-69 244,-69 244,-39 149,-39"/>
<text text-anchor="start" x="157" y="-57" font-family="FreeSans" font-size="10.00">CConfigurationFile</text>
<text text-anchor="middle" x="196.5" y="-46" font-family="FreeSans" font-size="10.00">::CXML</text>
</a>
</g>
</g>
<!-- Node0&#45;&gt;Node1 -->
<g id="edge1" class="edge">
<title>Node0&#45;&gt;Node1</title>
<path fill="none" stroke="midnightblue" d="M123.3,-42.49C131.93,-43.87 140.63,-45.25 148.85,-46.56"/>
<polygon fill="midnightblue" stroke="midnightblue" points="123.66,-39 113.23,-40.88 122.56,-45.92 123.66,-39"/>
</g>
<!-- Node2 -->
<g id="node3" class="node">
<title>Node2</title>
<g id="a_node3"><a xlink:href="d8/d76/classCCopasiXML.html" target="_top" xlink:title=" ">
<polygon fill="white" stroke="black" points="159.5,-0.5 159.5,-19.5 233.5,-19.5 233.5,-0.5 159.5,-0.5"/>
<text text-anchor="middle" x="196.5" y="-7.5" font-family="FreeSans" font-size="10.00">CCopasiXML</text>
</a>
</g>
</g>
<!-- Node0&#45;&gt;Node2 -->
<g id="edge2" class="edge">
<title>Node0&#45;&gt;Node2</title>
<path fill="none" stroke="midnightblue" d="M123.17,-21.53C135.64,-19.54 148.26,-17.53 159.39,-15.76"/>
<polygon fill="midnightblue" stroke="midnightblue" points="122.56,-18.08 113.23,-23.12 123.66,-25 122.56,-18.08"/>
</g>
</g>
</svg>
