<?xml version="1.0" encoding="UTF-8" standalone="no"?>
<!DOCTYPE svg PUBLIC "-//W3C//DTD SVG 1.1//EN"
 "http://www.w3.org/Graphics/SVG/1.1/DTD/svg11.dtd">
<!-- Generated by graphviz version 2.43.0 (0)
 -->
<!-- Title: Graphical Class Hierarchy Pages: 1 -->
<svg width="490pt" height="997pt"
 viewBox="0.00 0.00 490.00 997.00" xmlns="http://www.w3.org/2000/svg" xmlns:xlink="http://www.w3.org/1999/xlink">
<g id="graph0" class="graph" transform="scale(1 1) rotate(0) translate(4 993)">
<title>Graphical Class Hierarchy</title>
<polygon fill="white" stroke="transparent" points="-4,4 -4,-993 486,-993 486,4 -4,4"/>
<!-- Node0 -->
<g id="node1" class="node">
<title>Node0</title>
<g id="a_node1"><a xlink:href="d5/d46/classCVectorCore.html" target="_top" xlink:title=" ">
<polygon fill="white" stroke="black" points="0,-490.5 0,-509.5 116,-509.5 116,-490.5 0,-490.5"/>
<text text-anchor="middle" x="58" y="-497.5" font-family="FreeSans" font-size="10.00">CVectorCore&lt; CType &gt;</text>
</a>
</g>
</g>
<!-- Node1 -->
<g id="node2" class="node">
<title>Node1</title>
<g id="a_node2"><a xlink:href="dd/de4/classCVector.html" target="_top" xlink:title=" ">
<polygon fill="white" stroke="black" points="161.5,-969.5 161.5,-988.5 316.5,-988.5 316.5,-969.5 161.5,-969.5"/>
<text text-anchor="middle" x="239" y="-976.5" font-family="FreeSans" font-size="10.00">CVector&lt; const C_FLOAT64 * &gt;</text>
</a>
</g>
</g>
<!-- Node0&#45;&gt;Node1 -->
<g id="edge1" class="edge">
<title>Node0&#45;&gt;Node1</title>
<path fill="none" stroke="midnightblue" d="M60.19,-519.71C65.41,-599.28 88.88,-895.73 152,-960 155.64,-963.71 159.84,-966.77 164.37,-969.28"/>
<polygon fill="midnightblue" stroke="midnightblue" points="63.68,-519.35 59.55,-509.59 56.69,-519.79 63.68,-519.35"/>
</g>
<!-- Node2 -->
<g id="node3" class="node">
<title>Node2</title>
<g id="a_node3"><a xlink:href="dd/de4/classCVector.html" target="_top" xlink:title=" ">
<polygon fill="white" stroke="black" points="165,-931.5 165,-950.5 313,-950.5 313,-931.5 165,-931.5"/>
<text text-anchor="middle" x="239" y="-938.5" font-family="FreeSans" font-size="10.00">CVector&lt; CObjectInterface * &gt;</text>
</a>
</g>
</g>
<!-- Node0&#45;&gt;Node2 -->
<g id="edge2" class="edge">
<title>Node0&#45;&gt;Node2</title>
<path fill="none" stroke="midnightblue" d="M60.56,-519.51C66.98,-594.61 93.74,-863.71 152,-922 155.78,-925.79 160.14,-928.89 164.84,-931.43"/>
<polygon fill="midnightblue" stroke="midnightblue" points="64.05,-519.21 59.74,-509.53 57.07,-519.79 64.05,-519.21"/>
</g>
<!-- Node4 -->
<g id="node5" class="node">
<title>Node4</title>
<g id="a_node5"><a xlink:href="dd/de4/classCVector.html" target="_top" xlink:title=" ">
<polygon fill="white" stroke="black" points="171,-893.5 171,-912.5 307,-912.5 307,-893.5 171,-893.5"/>
<text text-anchor="middle" x="239" y="-900.5" font-family="FreeSans" font-size="10.00">CVector&lt; CXMLHandler * &gt;</text>
</a>
</g>
</g>
<!-- Node0&#45;&gt;Node4 -->
<g id="edge4" class="edge">
<title>Node0&#45;&gt;Node4</title>
<path fill="none" stroke="midnightblue" d="M61.07,-520C68.87,-591.34 98.75,-831.81 152,-884 157.35,-889.24 163.8,-893.18 170.74,-896.11"/>
<polygon fill="midnightblue" stroke="midnightblue" points="64.52,-519.29 59.98,-509.72 57.56,-520.04 64.52,-519.29"/>
</g>
<!-- Node6 -->
<g id="node7" class="node">
<title>Node6</title>
<g id="a_node7"><a xlink:href="dd/de4/classCVector.html" target="_top" xlink:title=" ">
<polygon fill="white" stroke="black" points="182.5,-844 182.5,-874 295.5,-874 295.5,-844 182.5,-844"/>
<text text-anchor="start" x="190.5" y="-862" font-family="FreeSans" font-size="10.00">CVector&lt; CMathEvent</text>
<text text-anchor="middle" x="239" y="-851" font-family="FreeSans" font-size="10.00">::CAssignment &gt;</text>
</a>
</g>
</g>
<!-- Node0&#45;&gt;Node6 -->
<g id="edge6" class="edge">
<title>Node0&#45;&gt;Node6</title>
<path fill="none" stroke="midnightblue" d="M58.25,-519.85C57.23,-577.29 62.42,-745.3 152,-835 160.22,-843.23 171,-848.69 182.14,-852.31"/>
<polygon fill="midnightblue" stroke="midnightblue" points="61.76,-519.7 58.53,-509.61 54.76,-519.52 61.76,-519.7"/>
</g>
<!-- Node7 -->
<g id="node8" class="node">
<title>Node7</title>
<g id="a_node8"><a xlink:href="dd/de4/classCVector.html" target="_top" xlink:title=" ">
<polygon fill="white" stroke="black" points="168,-795 168,-825 310,-825 310,-795 168,-795"/>
<text text-anchor="start" x="176" y="-813" font-family="FreeSans" font-size="10.00">CVector&lt; CMathEvent</text>
<text text-anchor="middle" x="239" y="-802" font-family="FreeSans" font-size="10.00">::CTrigger::CRootProcessor &gt;</text>
</a>
</g>
</g>
<!-- Node0&#45;&gt;Node7 -->
<g id="edge7" class="edge">
<title>Node0&#45;&gt;Node7</title>
<path fill="none" stroke="midnightblue" d="M59.44,-519.89C61.7,-571.43 74.99,-710.46 152,-785 156.58,-789.43 161.9,-793.09 167.6,-796.1"/>
<polygon fill="midnightblue" stroke="midnightblue" points="62.94,-519.64 59.1,-509.76 55.94,-519.88 62.94,-519.64"/>
</g>
<!-- Node8 -->
<g id="node9" class="node">
<title>Node8</title>
<g id="a_node9"><a xlink:href="dd/de4/classCVector.html" target="_top" xlink:title=" ">
<polygon fill="white" stroke="black" points="153,-756.5 153,-775.5 325,-775.5 325,-756.5 153,-756.5"/>
<text text-anchor="middle" x="239" y="-763.5" font-family="FreeSans" font-size="10.00">CVector&lt; CMathUpdateSequence &gt;</text>
</a>
</g>
</g>
<!-- Node0&#45;&gt;Node8 -->
<g id="edge8" class="edge">
<title>Node0&#45;&gt;Node8</title>
<path fill="none" stroke="midnightblue" d="M60.28,-519.7C64.45,-566.72 81.78,-686.15 152,-747 156.39,-750.81 161.37,-753.9 166.67,-756.41"/>
<polygon fill="midnightblue" stroke="midnightblue" points="63.76,-519.31 59.5,-509.61 56.78,-519.86 63.76,-519.31"/>
</g>
<!-- Node9 -->
<g id="node10" class="node">
<title>Node9</title>
<g id="a_node10"><a xlink:href="dd/de4/classCVector.html" target="_top" xlink:title=" ">
<polygon fill="white" stroke="black" points="174.5,-718.5 174.5,-737.5 303.5,-737.5 303.5,-718.5 174.5,-718.5"/>
<text text-anchor="middle" x="239" y="-725.5" font-family="FreeSans" font-size="10.00">CVector&lt; C_FLOAT64 * &gt;</text>
</a>
</g>
</g>
<!-- Node0&#45;&gt;Node9 -->
<g id="edge9" class="edge">
<title>Node0&#45;&gt;Node9</title>
<path fill="none" stroke="midnightblue" d="M61.79,-519.75C68.8,-561.58 91.14,-659.3 152,-709 158.51,-714.32 166.2,-718.23 174.25,-721.09"/>
<polygon fill="midnightblue" stroke="midnightblue" points="65.23,-519.08 60.24,-509.74 58.31,-520.16 65.23,-519.08"/>
</g>
<!-- Node10 -->
<g id="node11" class="node">
<title>Node10</title>
<g id="a_node11"><a xlink:href="dd/de4/classCVector.html" target="_top" xlink:title=" ">
<polygon fill="white" stroke="black" points="175,-680.5 175,-699.5 303,-699.5 303,-680.5 175,-680.5"/>
<text text-anchor="middle" x="239" y="-687.5" font-family="FreeSans" font-size="10.00">CVector&lt; unsigned char &gt;</text>
</a>
</g>
</g>
<!-- Node0&#45;&gt;Node10 -->
<g id="edge10" class="edge">
<title>Node0&#45;&gt;Node10</title>
<path fill="none" stroke="midnightblue" d="M63.79,-519.33C73.73,-555.21 100.12,-631.96 152,-671 158.72,-676.06 166.52,-679.82 174.63,-682.61"/>
<polygon fill="midnightblue" stroke="midnightblue" points="67.16,-518.38 61.22,-509.6 60.39,-520.16 67.16,-518.38"/>
</g>
<!-- Node11 -->
<g id="node12" class="node">
<title>Node11</title>
<g id="a_node12"><a xlink:href="dd/de4/classCVector.html" target="_top" xlink:title=" ">
<polygon fill="white" stroke="black" points="161,-642.5 161,-661.5 317,-661.5 317,-642.5 161,-642.5"/>
<text text-anchor="middle" x="239" y="-649.5" font-family="FreeSans" font-size="10.00">CVector&lt; const CDataObject * &gt;</text>
</a>
</g>
</g>
<!-- Node0&#45;&gt;Node11 -->
<g id="edge11" class="edge">
<title>Node0&#45;&gt;Node11</title>
<path fill="none" stroke="midnightblue" d="M66.81,-519.06C79.88,-548.42 109.02,-604.28 152,-633 157.72,-636.82 164.09,-639.89 170.7,-642.35"/>
<polygon fill="midnightblue" stroke="midnightblue" points="69.89,-517.36 62.73,-509.55 63.46,-520.12 69.89,-517.36"/>
</g>
<!-- Node12 -->
<g id="node13" class="node">
<title>Node12</title>
<g id="a_node13"><a xlink:href="dd/de4/classCVector.html" target="_top" xlink:title=" ">
<polygon fill="white" stroke="black" points="192,-604.5 192,-623.5 286,-623.5 286,-604.5 192,-604.5"/>
<text text-anchor="middle" x="239" y="-611.5" font-family="FreeSans" font-size="10.00">CVector&lt; size_t &gt;</text>
</a>
</g>
</g>
<!-- Node0&#45;&gt;Node12 -->
<g id="edge12" class="edge">
<title>Node0&#45;&gt;Node12</title>
<path fill="none" stroke="midnightblue" d="M71.4,-517.94C87.41,-539.68 117.39,-575.79 152,-595 164.03,-601.68 178.23,-606.01 191.59,-608.82"/>
<polygon fill="midnightblue" stroke="midnightblue" points="74.08,-515.68 65.41,-509.59 68.39,-519.76 74.08,-515.68"/>
</g>
<!-- Node13 -->
<g id="node14" class="node">
<title>Node13</title>
<g id="a_node14"><a xlink:href="dd/de4/classCVector.html" target="_top" xlink:title=" ">
<polygon fill="white" stroke="black" points="174,-566.5 174,-585.5 304,-585.5 304,-566.5 174,-566.5"/>
<text text-anchor="middle" x="239" y="-573.5" font-family="FreeSans" font-size="10.00">CVector&lt; CDataObject * &gt;</text>
</a>
</g>
</g>
<!-- Node0&#45;&gt;Node13 -->
<g id="edge13" class="edge">
<title>Node0&#45;&gt;Node13</title>
<path fill="none" stroke="midnightblue" d="M79.63,-515.44C97.8,-528.33 125.44,-546.28 152,-557 161.5,-560.83 171.92,-563.96 182.12,-566.49"/>
<polygon fill="midnightblue" stroke="midnightblue" points="81.67,-512.59 71.52,-509.57 77.57,-518.26 81.67,-512.59"/>
</g>
<!-- Node14 -->
<g id="node15" class="node">
<title>Node14</title>
<g id="a_node15"><a xlink:href="dd/de4/classCVector.html" target="_top" xlink:title=" ">
<polygon fill="white" stroke="black" points="177,-528.5 177,-547.5 301,-547.5 301,-528.5 177,-528.5"/>
<text text-anchor="middle" x="239" y="-535.5" font-family="FreeSans" font-size="10.00">CVector&lt; metabStatus &gt;</text>
</a>
</g>
</g>
<!-- Node0&#45;&gt;Node14 -->
<g id="edge14" class="edge">
<title>Node0&#45;&gt;Node14</title>
<path fill="none" stroke="midnightblue" d="M114.02,-511.68C139.41,-517.07 169.16,-523.39 193.16,-528.48"/>
<polygon fill="midnightblue" stroke="midnightblue" points="114.68,-508.24 104.17,-509.59 113.22,-515.09 114.68,-508.24"/>
</g>
<!-- Node15 -->
<g id="node16" class="node">
<title>Node15</title>
<g id="a_node16"><a xlink:href="dd/de4/classCVector.html" target="_top" xlink:title=" ">
<polygon fill="white" stroke="black" points="168.5,-490.5 168.5,-509.5 309.5,-509.5 309.5,-490.5 168.5,-490.5"/>
<text text-anchor="middle" x="239" y="-497.5" font-family="FreeSans" font-size="10.00">CVector&lt; CMathReaction * &gt;</text>
</a>
</g>
</g>
<!-- Node0&#45;&gt;Node15 -->
<g id="edge15" class="edge">
<title>Node0&#45;&gt;Node15</title>
<path fill="none" stroke="midnightblue" d="M126.42,-500C140.09,-500 154.5,-500 168.25,-500"/>
<polygon fill="midnightblue" stroke="midnightblue" points="126.13,-496.5 116.13,-500 126.13,-503.5 126.13,-496.5"/>
</g>
<!-- Node16 -->
<g id="node17" class="node">
<title>Node16</title>
<g id="a_node17"><a xlink:href="dd/de4/classCVector.html" target="_top" xlink:title=" ">
<polygon fill="white" stroke="black" points="173.5,-452.5 173.5,-471.5 304.5,-471.5 304.5,-452.5 173.5,-452.5"/>
<text text-anchor="middle" x="239" y="-459.5" font-family="FreeSans" font-size="10.00">CVector&lt; CMathObject * &gt;</text>
</a>
</g>
</g>
<!-- Node0&#45;&gt;Node16 -->
<g id="edge16" class="edge">
<title>Node0&#45;&gt;Node16</title>
<path fill="none" stroke="midnightblue" d="M114.02,-488.32C139.41,-482.93 169.16,-476.61 193.16,-471.52"/>
<polygon fill="midnightblue" stroke="midnightblue" points="113.22,-484.91 104.17,-490.41 114.68,-491.76 113.22,-484.91"/>
</g>
<!-- Node17 -->
<g id="node18" class="node">
<title>Node17</title>
<g id="a_node18"><a xlink:href="dd/de4/classCVector.html" target="_top" xlink:title=" ">
<polygon fill="white" stroke="black" points="164.5,-414.5 164.5,-433.5 313.5,-433.5 313.5,-414.5 164.5,-414.5"/>
<text text-anchor="middle" x="239" y="-421.5" font-family="FreeSans" font-size="10.00">CVector&lt; CEvaluationNode * &gt;</text>
</a>
</g>
</g>
<!-- Node0&#45;&gt;Node17 -->
<g id="edge17" class="edge">
<title>Node0&#45;&gt;Node17</title>
<path fill="none" stroke="midnightblue" d="M79.63,-484.56C97.8,-471.67 125.44,-453.72 152,-443 161.5,-439.17 171.92,-436.04 182.12,-433.51"/>
<polygon fill="midnightblue" stroke="midnightblue" points="77.57,-481.74 71.52,-490.43 81.67,-487.41 77.57,-481.74"/>
</g>
<!-- Node18 -->
<g id="node19" class="node">
<title>Node18</title>
<g id="a_node19"><a xlink:href="dd/de4/classCVector.html" target="_top" xlink:title=" ">
<polygon fill="white" stroke="black" points="185,-365 185,-395 293,-395 293,-365 185,-365"/>
<text text-anchor="start" x="193" y="-383" font-family="FreeSans" font-size="10.00">CVector&lt; CMatrix&lt; C</text>
<text text-anchor="middle" x="239" y="-372" font-family="FreeSans" font-size="10.00">_FLOAT64 &gt; &gt;</text>
</a>
</g>
</g>
<!-- Node0&#45;&gt;Node18 -->
<g id="edge18" class="edge">
<title>Node0&#45;&gt;Node18</title>
<path fill="none" stroke="midnightblue" d="M71.86,-482.1C88.15,-460.69 118.21,-425.23 152,-405 162.01,-399.01 173.53,-394.38 184.82,-390.84"/>
<polygon fill="midnightblue" stroke="midnightblue" points="68.9,-480.21 65.75,-490.33 74.52,-484.39 68.9,-480.21"/>
</g>
<!-- Node19 -->
<g id="node20" class="node">
<title>Node19</title>
<g id="a_node20"><a xlink:href="dd/de4/classCVector.html" target="_top" xlink:title=" ">
<polygon fill="white" stroke="black" points="158,-316 158,-346 320,-346 320,-316 158,-316"/>
<text text-anchor="start" x="166" y="-334" font-family="FreeSans" font-size="10.00">CVector&lt; std::pair</text>
<text text-anchor="middle" x="239" y="-323" font-family="FreeSans" font-size="10.00">&lt; C_FLOAT64 *, C_FLOAT64 &gt; &gt;</text>
</a>
</g>
</g>
<!-- Node0&#45;&gt;Node19 -->
<g id="edge19" class="edge">
<title>Node0&#45;&gt;Node19</title>
<path fill="none" stroke="midnightblue" d="M66.27,-480.59C78.89,-449.55 107.8,-388.92 152,-356 157.24,-352.1 163.07,-348.81 169.16,-346.02"/>
<polygon fill="midnightblue" stroke="midnightblue" points="62.88,-479.65 62.49,-490.24 69.39,-482.2 62.88,-479.65"/>
</g>
<!-- Node20 -->
<g id="node21" class="node">
<title>Node20</title>
<g id="a_node21"><a xlink:href="dd/de4/classCVector.html" target="_top" xlink:title=" ">
<polygon fill="white" stroke="black" points="165,-267 165,-297 313,-297 313,-267 165,-267"/>
<text text-anchor="start" x="173" y="-285" font-family="FreeSans" font-size="10.00">CVector&lt; CMathEvent</text>
<text text-anchor="middle" x="239" y="-274" font-family="FreeSans" font-size="10.00">::CTrigger::CRootProcessor * &gt;</text>
</a>
</g>
</g>
<!-- Node0&#45;&gt;Node20 -->
<g id="edge20" class="edge">
<title>Node0&#45;&gt;Node20</title>
<path fill="none" stroke="midnightblue" d="M62.87,-480.44C71.61,-441.48 96.58,-353.9 152,-307 156.51,-303.18 161.58,-299.95 166.93,-297.21"/>
<polygon fill="midnightblue" stroke="midnightblue" points="59.44,-479.76 60.78,-490.27 66.28,-481.22 59.44,-479.76"/>
</g>
<!-- Node21 -->
<g id="node22" class="node">
<title>Node21</title>
<g id="a_node22"><a xlink:href="dd/de4/classCVector.html" target="_top" xlink:title=" ">
<polygon fill="white" stroke="black" points="158.5,-228.5 158.5,-247.5 319.5,-247.5 319.5,-228.5 158.5,-228.5"/>
<text text-anchor="middle" x="239" y="-235.5" font-family="FreeSans" font-size="10.00">CVector&lt; CStepMatrixColumn * &gt;</text>
</a>
</g>
</g>
<!-- Node0&#45;&gt;Node21 -->
<g id="edge21" class="edge">
<title>Node0&#45;&gt;Node21</title>
<path fill="none" stroke="midnightblue" d="M60.42,-480.3C64.88,-433.8 82.77,-316.67 152,-257 156.4,-253.21 161.39,-250.12 166.7,-247.62"/>
<polygon fill="midnightblue" stroke="midnightblue" points="56.93,-480.03 59.57,-490.29 63.91,-480.62 56.93,-480.03"/>
</g>
<!-- Node23 -->
<g id="node24" class="node">
<title>Node23</title>
<g id="a_node24"><a xlink:href="dd/de4/classCVector.html" target="_top" xlink:title=" ">
<polygon fill="white" stroke="black" points="160,-190.5 160,-209.5 318,-209.5 318,-190.5 160,-190.5"/>
<text text-anchor="middle" x="239" y="-197.5" font-family="FreeSans" font-size="10.00">CVector&lt; const CModelEntity * &gt;</text>
</a>
</g>
</g>
<!-- Node0&#45;&gt;Node23 -->
<g id="edge23" class="edge">
<title>Node0&#45;&gt;Node23</title>
<path fill="none" stroke="midnightblue" d="M59.25,-480.44C61.04,-429.19 73.27,-290.07 152,-219 156.2,-215.21 160.98,-212.12 166.09,-209.6"/>
<polygon fill="midnightblue" stroke="midnightblue" points="55.75,-480.41 59,-490.49 62.75,-480.58 55.75,-480.41"/>
</g>
<!-- Node24 -->
<g id="node25" class="node">
<title>Node24</title>
<g id="a_node25"><a xlink:href="dd/de4/classCVector.html" target="_top" xlink:title=" ">
<polygon fill="white" stroke="black" points="185.5,-152.5 185.5,-171.5 292.5,-171.5 292.5,-152.5 185.5,-152.5"/>
<text text-anchor="middle" x="239" y="-159.5" font-family="FreeSans" font-size="10.00">CVector&lt; C_INT32 &gt;</text>
</a>
</g>
</g>
<!-- Node0&#45;&gt;Node24 -->
<g id="edge24" class="edge">
<title>Node0&#45;&gt;Node24</title>
<path fill="none" stroke="midnightblue" d="M58.35,-480.12C57.68,-424.06 63.92,-263.43 152,-181 161.04,-172.54 172.97,-167.53 185.06,-164.63"/>
<polygon fill="midnightblue" stroke="midnightblue" points="54.86,-480.51 58.57,-490.43 61.86,-480.36 54.86,-480.51"/>
</g>
<!-- Node25 -->
<g id="node26" class="node">
<title>Node25</title>
<g id="a_node26"><a xlink:href="dd/de4/classCVector.html" target="_top" xlink:title=" ">
<polygon fill="white" stroke="black" points="155.5,-114.5 155.5,-133.5 322.5,-133.5 322.5,-114.5 155.5,-114.5"/>
<text text-anchor="middle" x="239" y="-121.5" font-family="FreeSans" font-size="10.00">CVector&lt; const CMathReaction * &gt;</text>
</a>
</g>
</g>
<!-- Node0&#45;&gt;Node25 -->
<g id="edge25" class="edge">
<title>Node0&#45;&gt;Node25</title>
<path fill="none" stroke="midnightblue" d="M61.45,-480.09C70.22,-412.16 102.18,-190.99 152,-143 155.96,-139.18 160.51,-136.06 165.41,-133.52"/>
<polygon fill="midnightblue" stroke="midnightblue" points="57.95,-479.92 60.16,-490.28 64.89,-480.8 57.95,-479.92"/>
</g>
<!-- Node26 -->
<g id="node27" class="node">
<title>Node26</title>
<g id="a_node27"><a xlink:href="dd/de4/classCVector.html" target="_top" xlink:title=" ">
<polygon fill="white" stroke="black" points="156.5,-76.5 156.5,-95.5 321.5,-95.5 321.5,-76.5 156.5,-76.5"/>
<text text-anchor="middle" x="239" y="-83.5" font-family="FreeSans" font-size="10.00">CVector&lt; CProcessReportItem * &gt;</text>
</a>
</g>
</g>
<!-- Node0&#45;&gt;Node26 -->
<g id="edge26" class="edge">
<title>Node0&#45;&gt;Node26</title>
<path fill="none" stroke="midnightblue" d="M60.89,-480.36C68.24,-408.18 97.25,-159 152,-105 155.81,-101.24 160.19,-98.16 164.9,-95.63"/>
<polygon fill="midnightblue" stroke="midnightblue" points="57.4,-480.07 59.9,-490.36 64.37,-480.76 57.4,-480.07"/>
</g>
<!-- Node27 -->
<g id="node28" class="node">
<title>Node27</title>
<g id="a_node28"><a xlink:href="dd/de4/classCVector.html" target="_top" xlink:title=" ">
<polygon fill="white" stroke="black" points="152,-38.5 152,-57.5 326,-57.5 326,-38.5 152,-38.5"/>
<text text-anchor="middle" x="239" y="-45.5" font-family="FreeSans" font-size="10.00">CVector&lt; const CObjectInterface * &gt;</text>
</a>
</g>
</g>
<!-- Node0&#45;&gt;Node27 -->
<g id="edge27" class="edge">
<title>Node0&#45;&gt;Node27</title>
<path fill="none" stroke="midnightblue" d="M60.49,-479.99C66.61,-402.95 92.45,-126.9 152,-67 155.77,-63.2 160.12,-60.09 164.82,-57.55"/>
<polygon fill="midnightblue" stroke="midnightblue" points="56.98,-479.98 59.7,-490.22 63.96,-480.52 56.98,-479.98"/>
</g>
<!-- Node28 -->
<g id="node29" class="node">
<title>Node28</title>
<g id="a_node29"><a xlink:href="dd/de4/classCVector.html" target="_top" xlink:title=" ">
<polygon fill="white" stroke="black" points="191,-0.5 191,-19.5 287,-19.5 287,-0.5 191,-0.5"/>
<text text-anchor="middle" x="239" y="-7.5" font-family="FreeSans" font-size="10.00">CVector&lt; CType &gt;</text>
</a>
</g>
</g>
<!-- Node0&#45;&gt;Node28 -->
<g id="edge28" class="edge">
<title>Node0&#45;&gt;Node28</title>
<path fill="none" stroke="midnightblue" d="M60.12,-479.83C65.06,-398.36 87.57,-94.89 152,-29 162.16,-18.61 176.62,-13.32 190.79,-10.77"/>
<polygon fill="midnightblue" stroke="midnightblue" points="56.61,-479.99 59.52,-490.18 63.59,-480.4 56.61,-479.99"/>
</g>
<!-- Node3 -->
<g id="node4" class="node">
<title>Node3</title>
<g id="a_node4"><a xlink:href="d5/dac/classCMathUpdateSequence.html" target="_top" xlink:title=" ">
<polygon fill="white" stroke="black" points="362,-931.5 362,-950.5 482,-950.5 482,-931.5 362,-931.5"/>
<text text-anchor="middle" x="422" y="-938.5" font-family="FreeSans" font-size="10.00">CMathUpdateSequence</text>
</a>
</g>
</g>
<!-- Node2&#45;&gt;Node3 -->
<g id="edge3" class="edge">
<title>Node2&#45;&gt;Node3</title>
<path fill="none" stroke="darkgreen" d="M323.42,-941C336.38,-941 349.53,-941 361.8,-941"/>
<polygon fill="darkgreen" stroke="darkgreen" points="323.1,-937.5 313.1,-941 323.1,-944.5 323.1,-937.5"/>
</g>
<!-- Node5 -->
<g id="node6" class="node">
<title>Node5</title>
<g id="a_node6"><a xlink:href="d6/d3c/classCXMLHandlerFactory.html" target="_top" xlink:title=" ">
<polygon fill="white" stroke="black" points="367,-893.5 367,-912.5 477,-912.5 477,-893.5 367,-893.5"/>
<text text-anchor="middle" x="422" y="-900.5" font-family="FreeSans" font-size="10.00">CXMLHandlerFactory</text>
</a>
</g>
</g>
<!-- Node4&#45;&gt;Node5 -->
<g id="edge5" class="edge">
<title>Node4&#45;&gt;Node5</title>
<path fill="none" stroke="#8b1a1a" d="M317.43,-903C334.11,-903 351.4,-903 366.96,-903"/>
<polygon fill="#8b1a1a" stroke="#8b1a1a" points="317.14,-899.5 307.14,-903 317.14,-906.5 317.14,-899.5"/>
</g>
<!-- Node22 -->
<g id="node23" class="node">
<title>Node22</title>
<g id="a_node23"><a xlink:href="d8/d4b/classCStepMatrix.html" target="_top" xlink:title=" ">
<polygon fill="white" stroke="black" points="387,-228.5 387,-247.5 457,-247.5 457,-228.5 387,-228.5"/>
<text text-anchor="middle" x="422" y="-235.5" font-family="FreeSans" font-size="10.00">CStepMatrix</text>
</a>
</g>
</g>
<!-- Node21&#45;&gt;Node22 -->
<g id="edge22" class="edge">
<title>Node21&#45;&gt;Node22</title>
<path fill="none" stroke="#8b1a1a" d="M329.89,-238C350.15,-238 370.44,-238 386.71,-238"/>
<polygon fill="#8b1a1a" stroke="#8b1a1a" points="329.65,-234.5 319.65,-238 329.65,-241.5 329.65,-234.5"/>
</g>
</g>
</svg>
