<?xml version="1.0" encoding="UTF-8" standalone="no"?>
<!DOCTYPE svg PUBLIC "-//W3C//DTD SVG 1.1//EN"
 "http://www.w3.org/Graphics/SVG/1.1/DTD/svg11.dtd">
<!-- Generated by graphviz version 2.43.0 (0)
 -->
<!-- Title: Graphical Class Hierarchy Pages: 1 -->
<svg width="191pt" height="104pt"
 viewBox="0.00 0.00 191.00 104.00" xmlns="http://www.w3.org/2000/svg" xmlns:xlink="http://www.w3.org/1999/xlink">
<g id="graph0" class="graph" transform="scale(1 1) rotate(0) translate(4 100)">
<title>Graphical Class Hierarchy</title>
<polygon fill="white" stroke="transparent" points="-4,4 -4,-100 187,-100 187,4 -4,4"/>
<!-- Node0 -->
<g id="node1" class="node">
<title>Node0</title>
<g id="a_node1"><a xlink:href="db/da7/classCInternalSolver.html" target="_top" xlink:title=" ">
<polygon fill="white" stroke="black" points="0,-38.5 0,-57.5 83,-57.5 83,-38.5 0,-38.5"/>
<text text-anchor="middle" x="41.5" y="-45.5" font-family="FreeSans" font-size="10.00">CInternalSolver</text>
</a>
</g>
</g>
<!-- Node1 -->
<g id="node2" class="node">
<title>Node1</title>
<g id="a_node2"><a xlink:href="de/dce/classCLSODA.html" target="_top" xlink:title=" ">
<polygon fill="white" stroke="black" points="122.5,-76.5 122.5,-95.5 179.5,-95.5 179.5,-76.5 122.5,-76.5"/>
<text text-anchor="middle" x="151" y="-83.5" font-family="FreeSans" font-size="10.00">CLSODA</text>
</a>
</g>
</g>
<!-- Node0&#45;&gt;Node1 -->
<g id="edge1" class="edge">
<title>Node0&#45;&gt;Node1</title>
<path fill="none" stroke="midnightblue" d="M79.2,-60.97C93.52,-66.03 109.64,-71.73 122.88,-76.41"/>
<polygon fill="midnightblue" stroke="midnightblue" points="80.22,-57.62 69.63,-57.59 77.89,-64.22 80.22,-57.62"/>
</g>
<!-- Node2 -->
<g id="node3" class="node">
<title>Node2</title>
<g id="a_node3"><a xlink:href="d3/daa/classCLSODAR.html" target="_top" xlink:title=" ">
<polygon fill="white" stroke="black" points="119,-38.5 119,-57.5 183,-57.5 183,-38.5 119,-38.5"/>
<text text-anchor="middle" x="151" y="-45.5" font-family="FreeSans" font-size="10.00">CLSODAR</text>
</a>
</g>
</g>
<!-- Node0&#45;&gt;Node2 -->
<g id="edge2" class="edge">
<title>Node0&#45;&gt;Node2</title>
<path fill="none" stroke="midnightblue" d="M93.23,-48C101.92,-48 110.7,-48 118.69,-48"/>
<polygon fill="midnightblue" stroke="midnightblue" points="93.14,-44.5 83.14,-48 93.14,-51.5 93.14,-44.5"/>
</g>
<!-- Node3 -->
<g id="node4" class="node">
<title>Node3</title>
<g id="a_node4"><a xlink:href="d0/d82/classCRadau5.html" target="_top" xlink:title=" ">
<polygon fill="white" stroke="black" points="123,-0.5 123,-19.5 179,-19.5 179,-0.5 123,-0.5"/>
<text text-anchor="middle" x="151" y="-7.5" font-family="FreeSans" font-size="10.00">CRadau5</text>
</a>
</g>
</g>
<!-- Node0&#45;&gt;Node3 -->
<g id="edge3" class="edge">
<title>Node0&#45;&gt;Node3</title>
<path fill="none" stroke="midnightblue" d="M79.2,-35.03C93.52,-29.97 109.64,-24.27 122.88,-19.59"/>
<polygon fill="midnightblue" stroke="midnightblue" points="77.89,-31.78 69.63,-38.41 80.22,-38.38 77.89,-31.78"/>
</g>
</g>
</svg>
