<?xml version="1.0" encoding="UTF-8" standalone="no"?>
<!DOCTYPE svg PUBLIC "-//W3C//DTD SVG 1.1//EN"
 "http://www.w3.org/Graphics/SVG/1.1/DTD/svg11.dtd">
<!-- Generated by graphviz version 2.43.0 (0)
 -->
<!-- Title: Graphical Class Hierarchy Pages: 1 -->
<svg width="422pt" height="66pt"
 viewBox="0.00 0.00 422.00 66.00" xmlns="http://www.w3.org/2000/svg" xmlns:xlink="http://www.w3.org/1999/xlink">
<g id="graph0" class="graph" transform="scale(1 1) rotate(0) translate(4 62)">
<title>Graphical Class Hierarchy</title>
<polygon fill="white" stroke="transparent" points="-4,4 -4,-62 418,-62 418,4 -4,4"/>
<!-- Node0 -->
<g id="node1" class="node">
<title>Node0</title>
<g id="a_node1"><a xlink:href="d5/d46/classCVectorCore.html" target="_top" xlink:title=" ">
<polygon fill="white" stroke="black" points="0,-19.5 0,-38.5 143,-38.5 143,-19.5 0,-19.5"/>
<text text-anchor="middle" x="71.5" y="-26.5" font-family="FreeSans" font-size="10.00">CVectorCore&lt; C_FLOAT64 &gt;</text>
</a>
</g>
</g>
<!-- Node1 -->
<g id="node2" class="node">
<title>Node1</title>
<g id="a_node2"><a xlink:href="dd/de4/classCVector.html" target="_top" xlink:title=" ">
<polygon fill="white" stroke="black" points="179,-38.5 179,-57.5 302,-57.5 302,-38.5 179,-38.5"/>
<text text-anchor="middle" x="240.5" y="-45.5" font-family="FreeSans" font-size="10.00">CVector&lt; C_FLOAT64 &gt;</text>
</a>
</g>
</g>
<!-- Node0&#45;&gt;Node1 -->
<g id="edge1" class="edge">
<title>Node0&#45;&gt;Node1</title>
<path fill="none" stroke="midnightblue" d="M153.36,-38.2C161.94,-39.18 170.56,-40.16 178.86,-41.1"/>
<polygon fill="midnightblue" stroke="midnightblue" points="153.65,-34.71 143.32,-37.06 152.86,-41.67 153.65,-34.71"/>
</g>
<!-- Node2 -->
<g id="node3" class="node">
<title>Node2</title>
<g id="a_node3"><a xlink:href="d8/dac/classCMathHistoryCore.html" target="_top" xlink:title=" ">
<polygon fill="white" stroke="black" points="192.5,-0.5 192.5,-19.5 288.5,-19.5 288.5,-0.5 192.5,-0.5"/>
<text text-anchor="middle" x="240.5" y="-7.5" font-family="FreeSans" font-size="10.00">CMathHistoryCore</text>
</a>
</g>
</g>
<!-- Node0&#45;&gt;Node2 -->
<g id="edge2" class="edge">
<title>Node0&#45;&gt;Node2</title>
<path fill="none" stroke="darkgreen" d="M153.46,-19.79C166.77,-18.27 180.16,-16.75 192.29,-15.37"/>
<polygon fill="darkgreen" stroke="darkgreen" points="152.86,-16.33 143.32,-20.94 153.65,-23.29 152.86,-16.33"/>
</g>
<!-- Node3 -->
<g id="node4" class="node">
<title>Node3</title>
<g id="a_node4"><a xlink:href="dc/d93/classCMathHistory.html" target="_top" xlink:title=" ">
<polygon fill="white" stroke="black" points="338,-0.5 338,-19.5 414,-19.5 414,-0.5 338,-0.5"/>
<text text-anchor="middle" x="376" y="-7.5" font-family="FreeSans" font-size="10.00">CMathHistory</text>
</a>
</g>
</g>
<!-- Node2&#45;&gt;Node3 -->
<g id="edge3" class="edge">
<title>Node2&#45;&gt;Node3</title>
<path fill="none" stroke="midnightblue" d="M298.62,-10C311.95,-10 325.81,-10 338,-10"/>
<polygon fill="midnightblue" stroke="midnightblue" points="298.57,-6.5 288.57,-10 298.57,-13.5 298.57,-6.5"/>
</g>
</g>
</svg>
