<?xml version="1.0" encoding="UTF-8" standalone="no"?>
<!DOCTYPE svg PUBLIC "-//W3C//DTD SVG 1.1//EN"
 "http://www.w3.org/Graphics/SVG/1.1/DTD/svg11.dtd">
<!-- Generated by graphviz version 2.43.0 (0)
 -->
<!-- Title: Graphical Class Hierarchy Pages: 1 -->
<svg width="555pt" height="104pt"
 viewBox="0.00 0.00 555.00 104.00" xmlns="http://www.w3.org/2000/svg" xmlns:xlink="http://www.w3.org/1999/xlink">
<g id="graph0" class="graph" transform="scale(1 1) rotate(0) translate(4 100)">
<title>Graphical Class Hierarchy</title>
<polygon fill="white" stroke="transparent" points="-4,4 -4,-100 551,-100 551,4 -4,4"/>
<!-- Node737 -->
<g id="node1" class="node">
<title>Node737</title>
<g id="a_node1"><a xlink:title=" ">
<polygon fill="white" stroke="#bfbfbf" points="0,-38.5 0,-57.5 76,-57.5 76,-38.5 0,-38.5"/>
<text text-anchor="middle" x="38" y="-45.5" font-family="FreeSans" font-size="10.00">std::exception</text>
</a>
</g>
</g>
<!-- Node0 -->
<g id="node2" class="node">
<title>Node0</title>
<g id="a_node2"><a xlink:href="d7/d49/classCLUnresolvedReferenceException.html" target="_top" xlink:title=" ">
<polygon fill="white" stroke="black" points="112,-76.5 112,-95.5 277,-95.5 277,-76.5 112,-76.5"/>
<text text-anchor="middle" x="194.5" y="-83.5" font-family="FreeSans" font-size="10.00">CLUnresolvedReferenceException</text>
</a>
</g>
</g>
<!-- Node737&#45;&gt;Node0 -->
<g id="edge1" class="edge">
<title>Node737&#45;&gt;Node0</title>
<path fill="none" stroke="#8b1a1a" d="M84.9,-60.14C93.87,-62.46 103.22,-64.84 112,-67 124.84,-70.17 138.85,-73.48 151.57,-76.44"/>
<polygon fill="#8b1a1a" stroke="#8b1a1a" points="85.53,-56.69 74.97,-57.56 83.77,-63.46 85.53,-56.69"/>
</g>
<!-- Node739 -->
<g id="node3" class="node">
<title>Node739</title>
<g id="a_node3"><a xlink:href="df/dd6/classStdException.html" target="_top" xlink:title=" ">
<polygon fill="white" stroke="black" points="157.5,-38.5 157.5,-57.5 231.5,-57.5 231.5,-38.5 157.5,-38.5"/>
<text text-anchor="middle" x="194.5" y="-45.5" font-family="FreeSans" font-size="10.00">StdException</text>
</a>
</g>
</g>
<!-- Node737&#45;&gt;Node739 -->
<g id="edge2" class="edge">
<title>Node737&#45;&gt;Node739</title>
<path fill="none" stroke="midnightblue" d="M86.19,-48C109.07,-48 136.11,-48 157.33,-48"/>
<polygon fill="midnightblue" stroke="midnightblue" points="86.01,-44.5 76.01,-48 86.01,-51.5 86.01,-44.5"/>
</g>
<!-- Node740 -->
<g id="node4" class="node">
<title>Node740</title>
<g id="a_node4"><a xlink:title=" ">
<polygon fill="white" stroke="#bfbfbf" points="148.5,-0.5 148.5,-19.5 240.5,-19.5 240.5,-0.5 148.5,-0.5"/>
<text text-anchor="middle" x="194.5" y="-7.5" font-family="FreeSans" font-size="10.00">std::runtime_error</text>
</a>
</g>
</g>
<!-- Node737&#45;&gt;Node740 -->
<g id="edge3" class="edge">
<title>Node737&#45;&gt;Node740</title>
<path fill="none" stroke="midnightblue" d="M84.9,-35.86C93.87,-33.54 103.22,-31.16 112,-29 124.84,-25.83 138.85,-22.52 151.57,-19.56"/>
<polygon fill="midnightblue" stroke="midnightblue" points="83.77,-32.54 74.97,-38.44 85.53,-39.31 83.77,-32.54"/>
</g>
<!-- Node741 -->
<g id="node5" class="node">
<title>Node741</title>
<g id="a_node5"><a xlink:href="d5/d67/classcopasi_1_1option__error.html" target="_top" xlink:title=" ">
<polygon fill="white" stroke="black" points="313,-0.5 313,-19.5 414,-19.5 414,-0.5 313,-0.5"/>
<text text-anchor="middle" x="363.5" y="-7.5" font-family="FreeSans" font-size="10.00">copasi::option_error</text>
</a>
</g>
</g>
<!-- Node740&#45;&gt;Node741 -->
<g id="edge4" class="edge">
<title>Node740&#45;&gt;Node741</title>
<path fill="none" stroke="midnightblue" d="M250.91,-10C270.92,-10 293.38,-10 312.87,-10"/>
<polygon fill="midnightblue" stroke="midnightblue" points="250.69,-6.5 240.69,-10 250.69,-13.5 250.69,-6.5"/>
</g>
<!-- Node742 -->
<g id="node6" class="node">
<title>Node742</title>
<g id="a_node6"><a xlink:href="d7/db5/classcopasi_1_1autoexcept.html" target="_top" xlink:title=" ">
<polygon fill="white" stroke="black" points="450,-0.5 450,-19.5 547,-19.5 547,-0.5 450,-0.5"/>
<text text-anchor="middle" x="498.5" y="-7.5" font-family="FreeSans" font-size="10.00">copasi::autoexcept</text>
</a>
</g>
</g>
<!-- Node741&#45;&gt;Node742 -->
<g id="edge5" class="edge">
<title>Node741&#45;&gt;Node742</title>
<path fill="none" stroke="midnightblue" d="M424.29,-10C432.8,-10 441.46,-10 449.7,-10"/>
<polygon fill="midnightblue" stroke="midnightblue" points="424.02,-6.5 414.02,-10 424.02,-13.5 424.02,-6.5"/>
</g>
</g>
</svg>
