<?xml version="1.0" encoding="UTF-8" standalone="no"?>
<!DOCTYPE svg PUBLIC "-//W3C//DTD SVG 1.1//EN"
 "http://www.w3.org/Graphics/SVG/1.1/DTD/svg11.dtd">
<!-- Generated by graphviz version 2.43.0 (0)
 -->
<!-- Title: Graphical Class Hierarchy Pages: 1 -->
<svg width="296pt" height="66pt"
 viewBox="0.00 0.00 296.00 66.00" xmlns="http://www.w3.org/2000/svg" xmlns:xlink="http://www.w3.org/1999/xlink">
<g id="graph0" class="graph" transform="scale(1 1) rotate(0) translate(4 62)">
<title>Graphical Class Hierarchy</title>
<polygon fill="white" stroke="transparent" points="-4,4 -4,-62 292,-62 292,4 -4,4"/>
<!-- Node823 -->
<g id="node1" class="node">
<title>Node823</title>
<g id="a_node1"><a xlink:title=" ">
<polygon fill="white" stroke="#bfbfbf" points="0,-19.5 0,-38.5 76,-38.5 76,-19.5 0,-19.5"/>
<text text-anchor="middle" x="38" y="-26.5" font-family="FreeSans" font-size="10.00">Qwt3D::Scale</text>
</a>
</g>
</g>
<!-- Node0 -->
<g id="node2" class="node">
<title>Node0</title>
<g id="a_node2"><a xlink:href="d5/d80/classValueScale.html" target="_top" xlink:title="The standard (1:1) mapping class for axis numbering.">
<polygon fill="white" stroke="black" points="112,-19.5 112,-38.5 178,-38.5 178,-19.5 112,-19.5"/>
<text text-anchor="middle" x="145" y="-26.5" font-family="FreeSans" font-size="10.00">ValueScale</text>
</a>
</g>
</g>
<!-- Node823&#45;&gt;Node0 -->
<g id="edge1" class="edge">
<title>Node823&#45;&gt;Node0</title>
<path fill="none" stroke="midnightblue" d="M86.09,-29C94.8,-29 103.71,-29 111.85,-29"/>
<polygon fill="midnightblue" stroke="midnightblue" points="86.02,-25.5 76.02,-29 86.02,-32.5 86.02,-25.5"/>
</g>
<!-- Node1 -->
<g id="node3" class="node">
<title>Node1</title>
<g id="a_node3"><a xlink:href="df/d67/classColumnScale.html" target="_top" xlink:title=" ">
<polygon fill="white" stroke="black" points="214,-38.5 214,-57.5 288,-57.5 288,-38.5 214,-38.5"/>
<text text-anchor="middle" x="251" y="-45.5" font-family="FreeSans" font-size="10.00">ColumnScale</text>
</a>
</g>
</g>
<!-- Node0&#45;&gt;Node1 -->
<g id="edge2" class="edge">
<title>Node0&#45;&gt;Node1</title>
<path fill="none" stroke="midnightblue" d="M187.91,-36.66C196.52,-38.23 205.5,-39.87 213.88,-41.4"/>
<polygon fill="midnightblue" stroke="midnightblue" points="188.52,-33.21 178.05,-34.86 187.26,-40.1 188.52,-33.21"/>
</g>
<!-- Node2 -->
<g id="node4" class="node">
<title>Node2</title>
<g id="a_node4"><a xlink:href="dd/d13/classRowScale.html" target="_top" xlink:title=" ">
<polygon fill="white" stroke="black" points="220.5,-0.5 220.5,-19.5 281.5,-19.5 281.5,-0.5 220.5,-0.5"/>
<text text-anchor="middle" x="251" y="-7.5" font-family="FreeSans" font-size="10.00">RowScale</text>
</a>
</g>
</g>
<!-- Node0&#45;&gt;Node2 -->
<g id="edge3" class="edge">
<title>Node0&#45;&gt;Node2</title>
<path fill="none" stroke="midnightblue" d="M188.16,-21.3C198.96,-19.33 210.34,-17.25 220.36,-15.42"/>
<polygon fill="midnightblue" stroke="midnightblue" points="187.26,-17.9 178.05,-23.14 188.52,-24.79 187.26,-17.9"/>
</g>
</g>
</svg>
