<?xml version="1.0" encoding="UTF-8" standalone="no"?>
<!DOCTYPE svg PUBLIC "-//W3C//DTD SVG 1.1//EN"
 "http://www.w3.org/Graphics/SVG/1.1/DTD/svg11.dtd">
<!-- Generated by graphviz version 2.43.0 (0)
 -->
<!-- Title: Graphical Class Hierarchy Pages: 1 -->
<svg width="289pt" height="1411pt"
 viewBox="0.00 0.00 289.00 1411.00" xmlns="http://www.w3.org/2000/svg" xmlns:xlink="http://www.w3.org/1999/xlink">
<g id="graph0" class="graph" transform="scale(1 1) rotate(0) translate(4 1407)">
<title>Graphical Class Hierarchy</title>
<polygon fill="white" stroke="transparent" points="-4,4 -4,-1407 285,-1407 285,4 -4,4"/>
<!-- Node2 -->
<g id="node1" class="node">
<title>Node2</title>
<g id="a_node1"><a xlink:title=" ">
<polygon fill="white" stroke="#bfbfbf" points="0,-692 0,-711 78,-711 78,-692 0,-692"/>
<text text-anchor="middle" x="39" y="-699" font-family="FreeSans" font-size="10.00">std::array&lt; T &gt;</text>
</a>
</g>
</g>
<!-- Node0 -->
<g id="node2" class="node">
<title>Node0</title>
<g id="a_node2"><a xlink:href="d8/db3/classCEnumAnnotation.html" target="_top" xlink:title=" ">
<polygon fill="white" stroke="black" points="133.5,-1372.5 133.5,-1402.5 261.5,-1402.5 261.5,-1372.5 133.5,-1372.5"/>
<text text-anchor="start" x="141.5" y="-1390.5" font-family="FreeSans" font-size="10.00">CEnumAnnotation&lt; std</text>
<text text-anchor="middle" x="197.5" y="-1379.5" font-family="FreeSans" font-size="10.00">::string, eTargetCriterion &gt;</text>
</a>
</g>
</g>
<!-- Node2&#45;&gt;Node0 -->
<g id="edge1" class="edge">
<title>Node2&#45;&gt;Node0</title>
<path fill="none" stroke="midnightblue" d="M40.91,-721.11C45.92,-825.5 71.48,-1312.97 114,-1363.5 119.19,-1369.66 125.86,-1374.29 133.15,-1377.77"/>
<polygon fill="midnightblue" stroke="midnightblue" points="44.4,-720.86 40.43,-711.03 37.41,-721.19 44.4,-720.86"/>
</g>
<!-- Node4 -->
<g id="node3" class="node">
<title>Node4</title>
<g id="a_node3"><a xlink:href="d8/db3/classCEnumAnnotation.html" target="_top" xlink:title=" ">
<polygon fill="white" stroke="black" points="139.5,-1323.5 139.5,-1353.5 255.5,-1353.5 255.5,-1323.5 139.5,-1323.5"/>
<text text-anchor="start" x="147.5" y="-1341.5" font-family="FreeSans" font-size="10.00">CEnumAnnotation&lt; std</text>
<text text-anchor="middle" x="197.5" y="-1330.5" font-family="FreeSans" font-size="10.00">::string, DataType &gt;</text>
</a>
</g>
</g>
<!-- Node2&#45;&gt;Node4 -->
<g id="edge2" class="edge">
<title>Node2&#45;&gt;Node4</title>
<path fill="none" stroke="midnightblue" d="M39.57,-721.49C37.94,-816.58 35.74,-1222.33 114,-1314.5 120.66,-1322.35 129.73,-1327.71 139.41,-1331.35"/>
<polygon fill="midnightblue" stroke="midnightblue" points="43.08,-721.32 39.77,-711.26 36.08,-721.19 43.08,-721.32"/>
</g>
<!-- Node5 -->
<g id="node4" class="node">
<title>Node5</title>
<g id="a_node4"><a xlink:href="d8/db3/classCEnumAnnotation.html" target="_top" xlink:title=" ">
<polygon fill="white" stroke="black" points="139.5,-1274.5 139.5,-1304.5 255.5,-1304.5 255.5,-1274.5 139.5,-1274.5"/>
<text text-anchor="start" x="147.5" y="-1292.5" font-family="FreeSans" font-size="10.00">CEnumAnnotation&lt; std</text>
<text text-anchor="middle" x="197.5" y="-1281.5" font-family="FreeSans" font-size="10.00">::string, Method &gt;</text>
</a>
</g>
</g>
<!-- Node2&#45;&gt;Node5 -->
<g id="edge3" class="edge">
<title>Node2&#45;&gt;Node5</title>
<path fill="none" stroke="midnightblue" d="M39.8,-721.59C39.33,-812.13 41.92,-1181.49 114,-1265.5 120.7,-1273.31 129.78,-1278.66 139.48,-1282.3"/>
<polygon fill="midnightblue" stroke="midnightblue" points="43.31,-721.36 39.88,-711.34 36.31,-721.31 43.31,-721.36"/>
</g>
<!-- Node6 -->
<g id="node5" class="node">
<title>Node6</title>
<g id="a_node5"><a xlink:href="d8/db3/classCEnumAnnotation.html" target="_top" xlink:title=" ">
<polygon fill="white" stroke="black" points="130.5,-1225.5 130.5,-1255.5 264.5,-1255.5 264.5,-1225.5 130.5,-1225.5"/>
<text text-anchor="start" x="138.5" y="-1243.5" font-family="FreeSans" font-size="10.00">CEnumAnnotation&lt; QStyle</text>
<text text-anchor="middle" x="197.5" y="-1232.5" font-family="FreeSans" font-size="10.00">::StandardPixmap, IconID &gt;</text>
</a>
</g>
</g>
<!-- Node2&#45;&gt;Node6 -->
<g id="edge4" class="edge">
<title>Node2&#45;&gt;Node6</title>
<path fill="none" stroke="midnightblue" d="M40.08,-721.45C40.84,-806.83 48.02,-1140.55 114,-1216.5 118.5,-1221.68 124.05,-1225.77 130.12,-1229"/>
<polygon fill="midnightblue" stroke="midnightblue" points="43.58,-721.28 40.01,-711.3 36.58,-721.32 43.58,-721.28"/>
</g>
<!-- Node7 -->
<g id="node6" class="node">
<title>Node7</title>
<g id="a_node6"><a xlink:href="d8/db3/classCEnumAnnotation.html" target="_top" xlink:title=" ">
<polygon fill="white" stroke="black" points="139.5,-1176.5 139.5,-1206.5 255.5,-1206.5 255.5,-1176.5 139.5,-1176.5"/>
<text text-anchor="start" x="147.5" y="-1194.5" font-family="FreeSans" font-size="10.00">CEnumAnnotation&lt; std</text>
<text text-anchor="middle" x="197.5" y="-1183.5" font-family="FreeSans" font-size="10.00">::string, Status &gt;</text>
</a>
</g>
</g>
<!-- Node2&#45;&gt;Node7 -->
<g id="edge5" class="edge">
<title>Node2&#45;&gt;Node7</title>
<path fill="none" stroke="midnightblue" d="M40.41,-721.31C42.47,-801.31 54.1,-1099.56 114,-1167.5 120.71,-1175.11 129.67,-1180.37 139.22,-1183.99"/>
<polygon fill="midnightblue" stroke="midnightblue" points="43.91,-721.05 40.17,-711.14 36.91,-721.22 43.91,-721.05"/>
</g>
<!-- Node8 -->
<g id="node7" class="node">
<title>Node8</title>
<g id="a_node7"><a xlink:href="d8/db3/classCEnumAnnotation.html" target="_top" xlink:title=" ">
<polygon fill="white" stroke="black" points="139.5,-1127.5 139.5,-1157.5 255.5,-1157.5 255.5,-1127.5 139.5,-1127.5"/>
<text text-anchor="start" x="147.5" y="-1145.5" font-family="FreeSans" font-size="10.00">CEnumAnnotation&lt; std</text>
<text text-anchor="middle" x="197.5" y="-1134.5" font-family="FreeSans" font-size="10.00">::string, Task &gt;</text>
</a>
</g>
</g>
<!-- Node2&#45;&gt;Node8 -->
<g id="edge6" class="edge">
<title>Node2&#45;&gt;Node8</title>
<path fill="none" stroke="midnightblue" d="M40.83,-721.57C44.33,-796.5 60.26,-1058.65 114,-1118.5 120.78,-1126.05 129.77,-1131.28 139.33,-1134.89"/>
<polygon fill="midnightblue" stroke="midnightblue" points="44.31,-721.05 40.37,-711.21 37.32,-721.36 44.31,-721.05"/>
</g>
<!-- Node9 -->
<g id="node8" class="node">
<title>Node9</title>
<g id="a_node8"><a xlink:href="d8/db3/classCEnumAnnotation.html" target="_top" xlink:title=" ">
<polygon fill="white" stroke="black" points="139.5,-1078.5 139.5,-1108.5 255.5,-1108.5 255.5,-1078.5 139.5,-1078.5"/>
<text text-anchor="start" x="147.5" y="-1096.5" font-family="FreeSans" font-size="10.00">CEnumAnnotation&lt; std</text>
<text text-anchor="middle" x="197.5" y="-1085.5" font-family="FreeSans" font-size="10.00">::string, ModelType &gt;</text>
</a>
</g>
</g>
<!-- Node2&#45;&gt;Node9 -->
<g id="edge7" class="edge">
<title>Node2&#45;&gt;Node9</title>
<path fill="none" stroke="midnightblue" d="M41.33,-721.39C46.35,-790.32 66.28,-1017.56 114,-1069.5 120.86,-1076.97 129.9,-1082.16 139.47,-1085.77"/>
<polygon fill="midnightblue" stroke="midnightblue" points="44.8,-720.81 40.61,-711.08 37.82,-721.3 44.8,-720.81"/>
</g>
<!-- Node10 -->
<g id="node9" class="node">
<title>Node10</title>
<g id="a_node9"><a xlink:href="d8/db3/classCEnumAnnotation.html" target="_top" xlink:title=" ">
<polygon fill="white" stroke="black" points="139.5,-1029.5 139.5,-1059.5 255.5,-1059.5 255.5,-1029.5 139.5,-1029.5"/>
<text text-anchor="start" x="147.5" y="-1047.5" font-family="FreeSans" font-size="10.00">CEnumAnnotation&lt; std</text>
<text text-anchor="middle" x="197.5" y="-1036.5" font-family="FreeSans" font-size="10.00">::string, EntityType &gt;</text>
</a>
</g>
</g>
<!-- Node2&#45;&gt;Node10 -->
<g id="edge8" class="edge">
<title>Node2&#45;&gt;Node10</title>
<path fill="none" stroke="midnightblue" d="M41.97,-721.14C48.64,-783.63 72.25,-976.38 114,-1020.5 120.87,-1027.76 129.79,-1032.86 139.23,-1036.44"/>
<polygon fill="midnightblue" stroke="midnightblue" points="45.44,-720.63 40.93,-711.05 38.48,-721.36 45.44,-720.63"/>
</g>
<!-- Node11 -->
<g id="node10" class="node">
<title>Node11</title>
<g id="a_node10"><a xlink:href="d8/db3/classCEnumAnnotation.html" target="_top" xlink:title=" ">
<polygon fill="white" stroke="black" points="114,-980.5 114,-1010.5 281,-1010.5 281,-980.5 114,-980.5"/>
<text text-anchor="start" x="122" y="-998.5" font-family="FreeSans" font-size="10.00">CEnumAnnotation&lt; CExpression</text>
<text text-anchor="middle" x="197.5" y="-987.5" font-family="FreeSans" font-size="10.00">Generator::sOperation, Operation &gt;</text>
</a>
</g>
</g>
<!-- Node2&#45;&gt;Node11 -->
<g id="edge9" class="edge">
<title>Node2&#45;&gt;Node11</title>
<path fill="none" stroke="midnightblue" d="M39.31,-721.24C38.72,-770.63 44.25,-900.65 114,-971.5 117.35,-974.9 121.15,-977.83 125.24,-980.34"/>
<polygon fill="midnightblue" stroke="midnightblue" points="42.81,-721.31 39.54,-711.23 35.81,-721.15 42.81,-721.31"/>
</g>
<!-- Node12 -->
<g id="node11" class="node">
<title>Node12</title>
<g id="a_node11"><a xlink:href="d8/db3/classCEnumAnnotation.html" target="_top" xlink:title=" ">
<polygon fill="white" stroke="black" points="139.5,-931.5 139.5,-961.5 255.5,-961.5 255.5,-931.5 139.5,-931.5"/>
<text text-anchor="start" x="147.5" y="-949.5" font-family="FreeSans" font-size="10.00">CEnumAnnotation&lt; std</text>
<text text-anchor="middle" x="197.5" y="-938.5" font-family="FreeSans" font-size="10.00">::string, LineType &gt;</text>
</a>
</g>
</g>
<!-- Node2&#45;&gt;Node12 -->
<g id="edge10" class="edge">
<title>Node2&#45;&gt;Node12</title>
<path fill="none" stroke="midnightblue" d="M40.75,-721.34C43.46,-764.35 56,-866.78 114,-922.5 121.1,-929.32 130.02,-934.22 139.36,-937.73"/>
<polygon fill="midnightblue" stroke="midnightblue" points="44.23,-720.9 40.22,-711.09 37.24,-721.26 44.23,-720.9"/>
</g>
<!-- Node13 -->
<g id="node12" class="node">
<title>Node13</title>
<g id="a_node12"><a xlink:href="d8/db3/classCEnumAnnotation.html" target="_top" xlink:title=" ">
<polygon fill="white" stroke="black" points="135,-882.5 135,-912.5 260,-912.5 260,-882.5 135,-882.5"/>
<text text-anchor="start" x="143" y="-900.5" font-family="FreeSans" font-size="10.00">CEnumAnnotation&lt; std</text>
<text text-anchor="middle" x="197.5" y="-889.5" font-family="FreeSans" font-size="10.00">::string, CompareResult &gt;</text>
</a>
</g>
</g>
<!-- Node2&#45;&gt;Node13 -->
<g id="edge11" class="edge">
<title>Node2&#45;&gt;Node13</title>
<path fill="none" stroke="midnightblue" d="M42.95,-721.52C49.3,-757.35 67.62,-832.51 114,-873.5 120.04,-878.83 127.2,-882.99 134.74,-886.22"/>
<polygon fill="midnightblue" stroke="midnightblue" points="46.36,-720.67 41.29,-711.36 39.45,-721.8 46.36,-720.67"/>
</g>
<!-- Node14 -->
<g id="node13" class="node">
<title>Node14</title>
<g id="a_node13"><a xlink:href="d8/db3/classCEnumAnnotation.html" target="_top" xlink:title=" ">
<polygon fill="white" stroke="black" points="130.5,-833.5 130.5,-863.5 264.5,-863.5 264.5,-833.5 130.5,-833.5"/>
<text text-anchor="start" x="138.5" y="-851.5" font-family="FreeSans" font-size="10.00">CEnumAnnotation&lt; std</text>
<text text-anchor="middle" x="197.5" y="-840.5" font-family="FreeSans" font-size="10.00">::string, CIssue::eSeverity &gt;</text>
</a>
</g>
</g>
<!-- Node2&#45;&gt;Node14 -->
<g id="edge12" class="edge">
<title>Node2&#45;&gt;Node14</title>
<path fill="none" stroke="midnightblue" d="M46.43,-720.71C56.51,-747.88 78.61,-797.25 114,-824.5 118.96,-828.32 124.52,-831.54 130.34,-834.24"/>
<polygon fill="midnightblue" stroke="midnightblue" points="49.69,-719.42 43.05,-711.16 43.09,-721.76 49.69,-719.42"/>
</g>
<!-- Node15 -->
<g id="node14" class="node">
<title>Node15</title>
<g id="a_node14"><a xlink:href="d8/db3/classCEnumAnnotation.html" target="_top" xlink:title=" ">
<polygon fill="white" stroke="black" points="139.5,-784.5 139.5,-814.5 255.5,-814.5 255.5,-784.5 139.5,-784.5"/>
<text text-anchor="start" x="147.5" y="-802.5" font-family="FreeSans" font-size="10.00">CEnumAnnotation&lt; std</text>
<text text-anchor="middle" x="197.5" y="-791.5" font-family="FreeSans" font-size="10.00">::string, Type &gt;</text>
</a>
</g>
</g>
<!-- Node2&#45;&gt;Node15 -->
<g id="edge13" class="edge">
<title>Node2&#45;&gt;Node15</title>
<path fill="none" stroke="midnightblue" d="M53.27,-719.18C66.79,-736 89.23,-760.85 114,-775.5 121.83,-780.13 130.61,-783.92 139.45,-787"/>
<polygon fill="midnightblue" stroke="midnightblue" points="55.96,-716.94 47.05,-711.21 50.44,-721.25 55.96,-716.94"/>
</g>
<!-- Node16 -->
<g id="node15" class="node">
<title>Node16</title>
<g id="a_node15"><a xlink:href="d8/db3/classCEnumAnnotation.html" target="_top" xlink:title=" ">
<polygon fill="white" stroke="black" points="135,-735.5 135,-765.5 260,-765.5 260,-735.5 135,-735.5"/>
<text text-anchor="start" x="143" y="-753.5" font-family="FreeSans" font-size="10.00">CEnumAnnotation&lt; std</text>
<text text-anchor="middle" x="197.5" y="-742.5" font-family="FreeSans" font-size="10.00">::string, KineticLawUnit &gt;</text>
</a>
</g>
</g>
<!-- Node2&#45;&gt;Node16 -->
<g id="edge14" class="edge">
<title>Node2&#45;&gt;Node16</title>
<path fill="none" stroke="midnightblue" d="M76.88,-714.3C88.7,-718.32 101.87,-722.69 114,-726.5 123.53,-729.5 133.73,-732.57 143.59,-735.47"/>
<polygon fill="midnightblue" stroke="midnightblue" points="77.91,-710.96 67.32,-711.04 75.65,-717.58 77.91,-710.96"/>
</g>
<!-- Node17 -->
<g id="node16" class="node">
<title>Node17</title>
<g id="a_node16"><a xlink:href="d8/db3/classCEnumAnnotation.html" target="_top" xlink:title=" ">
<polygon fill="white" stroke="black" points="139.5,-686.5 139.5,-716.5 255.5,-716.5 255.5,-686.5 139.5,-686.5"/>
<text text-anchor="start" x="147.5" y="-704.5" font-family="FreeSans" font-size="10.00">CEnumAnnotation&lt; std</text>
<text text-anchor="middle" x="197.5" y="-693.5" font-family="FreeSans" font-size="10.00">::string, Operation &gt;</text>
</a>
</g>
</g>
<!-- Node2&#45;&gt;Node17 -->
<g id="edge15" class="edge">
<title>Node2&#45;&gt;Node17</title>
<path fill="none" stroke="midnightblue" d="M88.54,-701.5C104.63,-701.5 122.69,-701.5 139.37,-701.5"/>
<polygon fill="midnightblue" stroke="midnightblue" points="88.28,-698 78.28,-701.5 88.28,-705 88.28,-698"/>
</g>
<!-- Node18 -->
<g id="node17" class="node">
<title>Node18</title>
<g id="a_node17"><a xlink:href="d8/db3/classCEnumAnnotation.html" target="_top" xlink:title=" ">
<polygon fill="white" stroke="black" points="138,-637.5 138,-667.5 257,-667.5 257,-637.5 138,-637.5"/>
<text text-anchor="start" x="146" y="-655.5" font-family="FreeSans" font-size="10.00">CEnumAnnotation&lt; std</text>
<text text-anchor="middle" x="197.5" y="-644.5" font-family="FreeSans" font-size="10.00">::string, CIssue::eKind &gt;</text>
</a>
</g>
</g>
<!-- Node2&#45;&gt;Node18 -->
<g id="edge16" class="edge">
<title>Node2&#45;&gt;Node18</title>
<path fill="none" stroke="midnightblue" d="M78.77,-688.77C90.11,-685.09 102.54,-681.1 114,-677.5 124.42,-674.23 135.61,-670.79 146.28,-667.55"/>
<polygon fill="midnightblue" stroke="midnightblue" points="77.55,-685.48 69.13,-691.91 79.72,-692.14 77.55,-685.48"/>
</g>
<!-- Node19 -->
<g id="node18" class="node">
<title>Node19</title>
<g id="a_node18"><a xlink:href="d8/db3/classCEnumAnnotation.html" target="_top" xlink:title=" ">
<polygon fill="white" stroke="black" points="135,-588.5 135,-618.5 260,-618.5 260,-588.5 135,-588.5"/>
<text text-anchor="start" x="143" y="-606.5" font-family="FreeSans" font-size="10.00">CEnumAnnotation&lt; std</text>
<text text-anchor="middle" x="197.5" y="-595.5" font-family="FreeSans" font-size="10.00">::string, SimulationType &gt;</text>
</a>
</g>
</g>
<!-- Node2&#45;&gt;Node19 -->
<g id="edge17" class="edge">
<title>Node2&#45;&gt;Node19</title>
<path fill="none" stroke="midnightblue" d="M53.35,-684.13C66.94,-667.58 89.43,-643.11 114,-628.5 120.43,-624.68 127.5,-621.39 134.71,-618.58"/>
<polygon fill="midnightblue" stroke="midnightblue" points="50.61,-681.96 47.1,-691.96 56.08,-686.33 50.61,-681.96"/>
</g>
<!-- Node20 -->
<g id="node19" class="node">
<title>Node20</title>
<g id="a_node19"><a xlink:href="d8/db3/classCEnumAnnotation.html" target="_top" xlink:title=" ">
<polygon fill="white" stroke="black" points="139.5,-539.5 139.5,-569.5 255.5,-569.5 255.5,-539.5 139.5,-539.5"/>
<text text-anchor="start" x="147.5" y="-557.5" font-family="FreeSans" font-size="10.00">CEnumAnnotation&lt; std</text>
<text text-anchor="middle" x="197.5" y="-546.5" font-family="FreeSans" font-size="10.00">::string, SubType &gt;</text>
</a>
</g>
</g>
<!-- Node2&#45;&gt;Node20 -->
<g id="edge18" class="edge">
<title>Node2&#45;&gt;Node20</title>
<path fill="none" stroke="midnightblue" d="M46.51,-682.5C56.69,-655.61 78.93,-606.72 114,-579.5 121.45,-573.72 130.23,-569.27 139.23,-565.85"/>
<polygon fill="midnightblue" stroke="midnightblue" points="43.21,-681.35 43.09,-691.94 49.79,-683.73 43.21,-681.35"/>
</g>
<!-- Node21 -->
<g id="node20" class="node">
<title>Node21</title>
<g id="a_node20"><a xlink:href="d8/db3/classCEnumAnnotation.html" target="_top" xlink:title=" ">
<polygon fill="white" stroke="black" points="139.5,-490.5 139.5,-520.5 255.5,-520.5 255.5,-490.5 139.5,-490.5"/>
<text text-anchor="start" x="147.5" y="-508.5" font-family="FreeSans" font-size="10.00">CEnumAnnotation&lt; std</text>
<text text-anchor="middle" x="197.5" y="-497.5" font-family="FreeSans" font-size="10.00">::string, ContentType &gt;</text>
</a>
</g>
</g>
<!-- Node2&#45;&gt;Node21 -->
<g id="edge19" class="edge">
<title>Node2&#45;&gt;Node21</title>
<path fill="none" stroke="midnightblue" d="M43.03,-681.64C49.51,-646.1 68.04,-571.49 114,-530.5 121.26,-524.02 130.15,-519.23 139.38,-515.67"/>
<polygon fill="midnightblue" stroke="midnightblue" points="39.55,-681.27 41.33,-691.72 46.45,-682.44 39.55,-681.27"/>
</g>
<!-- Node22 -->
<g id="node21" class="node">
<title>Node22</title>
<g id="a_node21"><a xlink:href="d8/db3/classCEnumAnnotation.html" target="_top" xlink:title=" ">
<polygon fill="white" stroke="black" points="139.5,-441.5 139.5,-471.5 255.5,-471.5 255.5,-441.5 139.5,-441.5"/>
<text text-anchor="start" x="147.5" y="-459.5" font-family="FreeSans" font-size="10.00">CEnumAnnotation&lt; std</text>
<text text-anchor="middle" x="197.5" y="-448.5" font-family="FreeSans" font-size="10.00">::string, Property &gt;</text>
</a>
</g>
</g>
<!-- Node2&#45;&gt;Node22 -->
<g id="edge20" class="edge">
<title>Node2&#45;&gt;Node22</title>
<path fill="none" stroke="midnightblue" d="M40.82,-681.8C43.68,-639.07 56.51,-537.28 114,-481.5 121.09,-474.62 130.01,-469.63 139.34,-466.01"/>
<polygon fill="midnightblue" stroke="midnightblue" points="37.32,-681.8 40.26,-691.98 44.31,-682.19 37.32,-681.8"/>
</g>
<!-- Node23 -->
<g id="node22" class="node">
<title>Node23</title>
<g id="a_node22"><a xlink:href="d8/db3/classCEnumAnnotation.html" target="_top" xlink:title=" ">
<polygon fill="white" stroke="black" points="139.5,-392.5 139.5,-422.5 255.5,-422.5 255.5,-392.5 139.5,-392.5"/>
<text text-anchor="start" x="147.5" y="-410.5" font-family="FreeSans" font-size="10.00">CEnumAnnotation&lt; std</text>
<text text-anchor="middle" x="197.5" y="-399.5" font-family="FreeSans" font-size="10.00">::string, SymbolType &gt;</text>
</a>
</g>
</g>
<!-- Node2&#45;&gt;Node23 -->
<g id="edge21" class="edge">
<title>Node2&#45;&gt;Node23</title>
<path fill="none" stroke="midnightblue" d="M39.38,-681.57C38.99,-632.24 44.99,-503.31 114,-432.5 121,-425.32 129.98,-420.18 139.44,-416.52"/>
<polygon fill="midnightblue" stroke="midnightblue" points="35.89,-681.9 39.57,-691.83 42.89,-681.77 35.89,-681.9"/>
</g>
<!-- Node24 -->
<g id="node23" class="node">
<title>Node24</title>
<g id="a_node23"><a xlink:href="d8/db3/classCEnumAnnotation.html" target="_top" xlink:title=" ">
<polygon fill="white" stroke="black" points="139.5,-343.5 139.5,-373.5 255.5,-373.5 255.5,-343.5 139.5,-343.5"/>
<text text-anchor="start" x="147.5" y="-361.5" font-family="FreeSans" font-size="10.00">CEnumAnnotation&lt; std</text>
<text text-anchor="middle" x="197.5" y="-350.5" font-family="FreeSans" font-size="10.00">::string, Role &gt;</text>
</a>
</g>
</g>
<!-- Node2&#45;&gt;Node24 -->
<g id="edge22" class="edge">
<title>Node2&#45;&gt;Node24</title>
<path fill="none" stroke="midnightblue" d="M42,-681.94C48.75,-619.7 72.6,-427.71 114,-383.5 120.85,-376.18 129.77,-370.98 139.2,-367.29"/>
<polygon fill="midnightblue" stroke="midnightblue" points="38.51,-681.68 40.94,-691.99 45.47,-682.41 38.51,-681.68"/>
</g>
<!-- Node25 -->
<g id="node24" class="node">
<title>Node25</title>
<g id="a_node24"><a xlink:href="d8/db3/classCEnumAnnotation.html" target="_top" xlink:title=" ">
<polygon fill="white" stroke="black" points="139.5,-294.5 139.5,-324.5 255.5,-324.5 255.5,-294.5 139.5,-294.5"/>
<text text-anchor="start" x="147.5" y="-312.5" font-family="FreeSans" font-size="10.00">CEnumAnnotation&lt; std</text>
<text text-anchor="middle" x="197.5" y="-301.5" font-family="FreeSans" font-size="10.00">::string, MainType &gt;</text>
</a>
</g>
</g>
<!-- Node2&#45;&gt;Node25 -->
<g id="edge23" class="edge">
<title>Node2&#45;&gt;Node25</title>
<path fill="none" stroke="midnightblue" d="M41.36,-681.68C46.47,-613 66.68,-386.56 114,-334.5 120.85,-326.97 129.88,-321.68 139.45,-317.96"/>
<polygon fill="midnightblue" stroke="midnightblue" points="37.85,-681.73 40.63,-691.95 44.83,-682.23 37.85,-681.73"/>
</g>
<!-- Node26 -->
<g id="node25" class="node">
<title>Node26</title>
<g id="a_node25"><a xlink:href="d8/db3/classCEnumAnnotation.html" target="_top" xlink:title=" ">
<polygon fill="white" stroke="black" points="139.5,-245.5 139.5,-275.5 255.5,-275.5 255.5,-245.5 139.5,-245.5"/>
<text text-anchor="start" x="147.5" y="-263.5" font-family="FreeSans" font-size="10.00">CEnumAnnotation&lt; std</text>
<text text-anchor="middle" x="197.5" y="-252.5" font-family="FreeSans" font-size="10.00">::string, IconID &gt;</text>
</a>
</g>
</g>
<!-- Node2&#45;&gt;Node26 -->
<g id="edge24" class="edge">
<title>Node2&#45;&gt;Node26</title>
<path fill="none" stroke="midnightblue" d="M40.86,-681.5C44.46,-606.81 60.71,-345.5 114,-285.5 120.76,-277.89 129.75,-272.56 139.31,-268.84"/>
<polygon fill="midnightblue" stroke="midnightblue" points="37.35,-681.67 40.39,-691.82 44.34,-681.99 37.35,-681.67"/>
</g>
<!-- Node27 -->
<g id="node26" class="node">
<title>Node27</title>
<g id="a_node26"><a xlink:href="d8/db3/classCEnumAnnotation.html" target="_top" xlink:title=" ">
<polygon fill="white" stroke="black" points="139.5,-196.5 139.5,-226.5 255.5,-226.5 255.5,-196.5 139.5,-196.5"/>
<text text-anchor="start" x="147.5" y="-214.5" font-family="FreeSans" font-size="10.00">CEnumAnnotation&lt; std</text>
<text text-anchor="middle" x="197.5" y="-203.5" font-family="FreeSans" font-size="10.00">::string, ValueType &gt;</text>
</a>
</g>
</g>
<!-- Node2&#45;&gt;Node27 -->
<g id="edge25" class="edge">
<title>Node2&#45;&gt;Node27</title>
<path fill="none" stroke="midnightblue" d="M40.44,-681.75C42.6,-601.99 54.6,-304.61 114,-236.5 120.69,-228.83 129.65,-223.47 139.19,-219.74"/>
<polygon fill="midnightblue" stroke="midnightblue" points="36.94,-681.81 40.19,-691.89 43.93,-681.98 36.94,-681.81"/>
</g>
<!-- Node28 -->
<g id="node27" class="node">
<title>Node28</title>
<g id="a_node27"><a xlink:href="d8/db3/classCEnumAnnotation.html" target="_top" xlink:title=" ">
<polygon fill="white" stroke="black" points="139.5,-147.5 139.5,-177.5 255.5,-177.5 255.5,-147.5 139.5,-147.5"/>
<text text-anchor="start" x="147.5" y="-165.5" font-family="FreeSans" font-size="10.00">CEnumAnnotation&lt; std</text>
<text text-anchor="middle" x="197.5" y="-154.5" font-family="FreeSans" font-size="10.00">::string, LineStyle &gt;</text>
</a>
</g>
</g>
<!-- Node2&#45;&gt;Node28 -->
<g id="edge26" class="edge">
<title>Node2&#45;&gt;Node28</title>
<path fill="none" stroke="midnightblue" d="M40.11,-681.61C40.98,-596.47 48.56,-263.67 114,-187.5 120.63,-179.78 129.56,-174.4 139.1,-170.66"/>
<polygon fill="midnightblue" stroke="midnightblue" points="36.61,-681.7 40.03,-691.73 43.61,-681.76 36.61,-681.7"/>
</g>
<!-- Node29 -->
<g id="node28" class="node">
<title>Node29</title>
<g id="a_node28"><a xlink:href="d8/db3/classCEnumAnnotation.html" target="_top" xlink:title=" ">
<polygon fill="white" stroke="black" points="139.5,-98.5 139.5,-128.5 255.5,-128.5 255.5,-98.5 139.5,-98.5"/>
<text text-anchor="start" x="147.5" y="-116.5" font-family="FreeSans" font-size="10.00">CEnumAnnotation&lt; std</text>
<text text-anchor="middle" x="197.5" y="-105.5" font-family="FreeSans" font-size="10.00">::string, Framework &gt;</text>
</a>
</g>
</g>
<!-- Node2&#45;&gt;Node29 -->
<g id="edge27" class="edge">
<title>Node2&#45;&gt;Node29</title>
<path fill="none" stroke="midnightblue" d="M39.83,-681.47C39.48,-591.17 42.51,-222.76 114,-138.5 120.68,-130.63 129.75,-125.18 139.44,-121.43"/>
<polygon fill="midnightblue" stroke="midnightblue" points="36.33,-681.71 39.89,-691.69 43.33,-681.67 36.33,-681.71"/>
</g>
<!-- Node30 -->
<g id="node29" class="node">
<title>Node30</title>
<g id="a_node29"><a xlink:href="d8/db3/classCEnumAnnotation.html" target="_top" xlink:title=" ">
<polygon fill="white" stroke="black" points="119.5,-49.5 119.5,-79.5 275.5,-79.5 275.5,-49.5 119.5,-49.5"/>
<text text-anchor="start" x="127.5" y="-67.5" font-family="FreeSans" font-size="10.00">CEnumAnnotation&lt; CTaskEnum</text>
<text text-anchor="middle" x="197.5" y="-56.5" font-family="FreeSans" font-size="10.00">::Task, SubTaskType &gt;</text>
</a>
</g>
</g>
<!-- Node2&#45;&gt;Node30 -->
<g id="edge28" class="edge">
<title>Node2&#45;&gt;Node30</title>
<path fill="none" stroke="midnightblue" d="M39.6,-681.56C38.09,-586.71 36.37,-181.95 114,-89.5 117.27,-85.6 121.13,-82.3 125.36,-79.5"/>
<polygon fill="midnightblue" stroke="midnightblue" points="36.1,-681.83 39.78,-691.77 43.1,-681.7 36.1,-681.83"/>
</g>
<!-- Node31 -->
<g id="node30" class="node">
<title>Node31</title>
<g id="a_node30"><a xlink:href="d8/db3/classCEnumAnnotation.html" target="_top" xlink:title=" ">
<polygon fill="white" stroke="black" points="134,-0.5 134,-30.5 261,-30.5 261,-0.5 134,-0.5"/>
<text text-anchor="start" x="142" y="-18.5" font-family="FreeSans" font-size="10.00">CEnumAnnotation&lt; Type,</text>
<text text-anchor="middle" x="197.5" y="-7.5" font-family="FreeSans" font-size="10.00"> Enum &gt;</text>
</a>
</g>
</g>
<!-- Node2&#45;&gt;Node31 -->
<g id="edge29" class="edge">
<title>Node2&#45;&gt;Node31</title>
<path fill="none" stroke="midnightblue" d="M40.92,-681.92C45.99,-577.74 71.82,-91.19 114,-40.5 119.36,-34.06 126.32,-29.24 133.93,-25.64"/>
<polygon fill="midnightblue" stroke="midnightblue" points="37.42,-681.83 40.44,-691.99 44.41,-682.17 37.42,-681.83"/>
</g>
</g>
</svg>
