<?xml version="1.0" encoding="UTF-8" standalone="no"?>
<!DOCTYPE svg PUBLIC "-//W3C//DTD SVG 1.1//EN"
 "http://www.w3.org/Graphics/SVG/1.1/DTD/svg11.dtd">
<!-- Generated by graphviz version 2.43.0 (0)
 -->
<!-- Title: Graphical Class Hierarchy Pages: 1 -->
<svg width="647pt" height="39pt"
 viewBox="0.00 0.00 647.00 39.00" xmlns="http://www.w3.org/2000/svg" xmlns:xlink="http://www.w3.org/1999/xlink">
<g id="graph0" class="graph" transform="scale(1 1) rotate(0) translate(4 35)">
<title>Graphical Class Hierarchy</title>
<polygon fill="white" stroke="transparent" points="-4,4 -4,-35 643,-35 643,4 -4,4"/>
<!-- Node34 -->
<g id="node1" class="node">
<title>Node34</title>
<g id="a_node1"><a xlink:title=" ">
<polygon fill="white" stroke="#bfbfbf" points="0,-0.5 0,-30.5 93,-30.5 93,-0.5 0,-0.5"/>
<text text-anchor="start" x="8" y="-18.5" font-family="FreeSans" font-size="10.00">std::basic_string&lt;</text>
<text text-anchor="middle" x="46.5" y="-7.5" font-family="FreeSans" font-size="10.00"> Char &gt;</text>
</a>
</g>
</g>
<!-- Node35 -->
<g id="node2" class="node">
<title>Node35</title>
<g id="a_node2"><a xlink:title=" ">
<polygon fill="white" stroke="#bfbfbf" points="129,-6 129,-25 188,-25 188,-6 129,-6"/>
<text text-anchor="middle" x="158.5" y="-13" font-family="FreeSans" font-size="10.00">std::string</text>
</a>
</g>
</g>
<!-- Node34&#45;&gt;Node35 -->
<g id="edge1" class="edge">
<title>Node34&#45;&gt;Node35</title>
<path fill="none" stroke="midnightblue" d="M103.45,-15.5C112.21,-15.5 120.95,-15.5 128.76,-15.5"/>
<polygon fill="midnightblue" stroke="midnightblue" points="103.19,-12 93.19,-15.5 103.19,-19 103.19,-12"/>
</g>
<!-- Node0 -->
<g id="node3" class="node">
<title>Node0</title>
<g id="a_node3"><a xlink:href="d9/d83/classCCommonName.html" target="_top" xlink:title=" ">
<polygon fill="white" stroke="black" points="224,-6 224,-25 313,-25 313,-6 224,-6"/>
<text text-anchor="middle" x="268.5" y="-13" font-family="FreeSans" font-size="10.00">CCommonName</text>
</a>
</g>
</g>
<!-- Node35&#45;&gt;Node0 -->
<g id="edge2" class="edge">
<title>Node35&#45;&gt;Node0</title>
<path fill="none" stroke="midnightblue" d="M198.25,-15.5C206.48,-15.5 215.23,-15.5 223.64,-15.5"/>
<polygon fill="midnightblue" stroke="midnightblue" points="198.16,-12 188.16,-15.5 198.16,-19 198.16,-12"/>
</g>
<!-- Node1 -->
<g id="node4" class="node">
<title>Node1</title>
<g id="a_node4"><a xlink:href="d7/d1b/classCRegisteredCommonName.html" target="_top" xlink:title=" ">
<polygon fill="white" stroke="black" points="349,-6 349,-25 484,-25 484,-6 349,-6"/>
<text text-anchor="middle" x="416.5" y="-13" font-family="FreeSans" font-size="10.00">CRegisteredCommonName</text>
</a>
</g>
</g>
<!-- Node0&#45;&gt;Node1 -->
<g id="edge3" class="edge">
<title>Node0&#45;&gt;Node1</title>
<path fill="none" stroke="midnightblue" d="M323.51,-15.5C331.74,-15.5 340.31,-15.5 348.77,-15.5"/>
<polygon fill="midnightblue" stroke="midnightblue" points="323.3,-12 313.3,-15.5 323.3,-19 323.3,-12"/>
</g>
<!-- Node2 -->
<g id="node5" class="node">
<title>Node2</title>
<g id="a_node5"><a xlink:href="d3/d3c/classCPlotDataChannelSpec.html" target="_top" xlink:title=" ">
<polygon fill="white" stroke="black" points="520,-6 520,-25 639,-25 639,-6 520,-6"/>
<text text-anchor="middle" x="579.5" y="-13" font-family="FreeSans" font-size="10.00">CPlotDataChannelSpec</text>
</a>
</g>
</g>
<!-- Node1&#45;&gt;Node2 -->
<g id="edge4" class="edge">
<title>Node1&#45;&gt;Node2</title>
<path fill="none" stroke="midnightblue" d="M494.64,-15.5C503.1,-15.5 511.6,-15.5 519.78,-15.5"/>
<polygon fill="midnightblue" stroke="midnightblue" points="494.38,-12 484.38,-15.5 494.38,-19 494.38,-12"/>
</g>
</g>
</svg>
