<?xml version="1.0" encoding="UTF-8" standalone="no"?>
<!DOCTYPE svg PUBLIC "-//W3C//DTD SVG 1.1//EN"
 "http://www.w3.org/Graphics/SVG/1.1/DTD/svg11.dtd">
<!-- Generated by graphviz version 2.43.0 (0)
 -->
<!-- Title: Graphical Class Hierarchy Pages: 1 -->
<svg width="283pt" height="256pt"
 viewBox="0.00 0.00 283.00 256.00" xmlns="http://www.w3.org/2000/svg" xmlns:xlink="http://www.w3.org/1999/xlink">
<g id="graph0" class="graph" transform="scale(1 1) rotate(0) translate(4 252)">
<title>Graphical Class Hierarchy</title>
<polygon fill="white" stroke="transparent" points="-4,4 -4,-252 279,-252 279,4 -4,4"/>
<!-- Node39 -->
<g id="node1" class="node">
<title>Node39</title>
<g id="a_node1"><a xlink:title=" ">
<polygon fill="white" stroke="#bfbfbf" points="0,-114.5 0,-133.5 92,-133.5 92,-114.5 0,-114.5"/>
<text text-anchor="middle" x="46" y="-121.5" font-family="FreeSans" font-size="10.00">std::bitset&lt; Bits &gt;</text>
</a>
</g>
</g>
<!-- Node0 -->
<g id="node2" class="node">
<title>Node0</title>
<g id="a_node2"><a xlink:href="d6/d11/classCFlags.html" target="_top" xlink:title=" ">
<polygon fill="white" stroke="black" points="139,-228.5 139,-247.5 264,-247.5 264,-228.5 139,-228.5"/>
<text text-anchor="middle" x="201.5" y="-235.5" font-family="FreeSans" font-size="10.00">CFlags&lt; eStateChange &gt;</text>
</a>
</g>
</g>
<!-- Node39&#45;&gt;Node0 -->
<g id="edge1" class="edge">
<title>Node39&#45;&gt;Node0</title>
<path fill="none" stroke="midnightblue" d="M57.75,-142.38C71.35,-164 96.82,-199.43 128,-219 134.17,-222.87 141.11,-225.96 148.19,-228.42"/>
<polygon fill="midnightblue" stroke="midnightblue" points="60.7,-140.5 52.51,-133.78 54.73,-144.14 60.7,-140.5"/>
</g>
<!-- Node41 -->
<g id="node3" class="node">
<title>Node41</title>
<g id="a_node3"><a xlink:href="d6/d11/classCFlags.html" target="_top" xlink:title=" ">
<polygon fill="white" stroke="black" points="128,-190.5 128,-209.5 275,-209.5 275,-190.5 128,-190.5"/>
<text text-anchor="middle" x="201.5" y="-197.5" font-family="FreeSans" font-size="10.00">CFlags&lt; eUserInterfaceFlag &gt;</text>
</a>
</g>
</g>
<!-- Node39&#45;&gt;Node41 -->
<g id="edge2" class="edge">
<title>Node39&#45;&gt;Node41</title>
<path fill="none" stroke="midnightblue" d="M65.87,-140.24C81.56,-152.99 104.97,-170.31 128,-181 136.14,-184.78 145.16,-187.9 154,-190.45"/>
<polygon fill="midnightblue" stroke="midnightblue" points="67.93,-137.4 58,-133.7 63.45,-142.78 67.93,-137.4"/>
</g>
<!-- Node42 -->
<g id="node4" class="node">
<title>Node42</title>
<g id="a_node4"><a xlink:href="d6/d11/classCFlags.html" target="_top" xlink:title=" ">
<polygon fill="white" stroke="black" points="139.5,-152.5 139.5,-171.5 263.5,-171.5 263.5,-152.5 139.5,-152.5"/>
<text text-anchor="middle" x="201.5" y="-159.5" font-family="FreeSans" font-size="10.00">CFlags&lt; CIssue::eKind &gt;</text>
</a>
</g>
</g>
<!-- Node39&#45;&gt;Node42 -->
<g id="edge3" class="edge">
<title>Node39&#45;&gt;Node42</title>
<path fill="none" stroke="midnightblue" d="M95.64,-136.04C117.08,-141.35 141.92,-147.5 162.04,-152.48"/>
<polygon fill="midnightblue" stroke="midnightblue" points="96.28,-132.59 85.73,-133.59 94.6,-139.39 96.28,-132.59"/>
</g>
<!-- Node43 -->
<g id="node5" class="node">
<title>Node43</title>
<g id="a_node5"><a xlink:href="d6/d11/classCFlags.html" target="_top" xlink:title=" ">
<polygon fill="white" stroke="black" points="150,-114.5 150,-133.5 253,-133.5 253,-114.5 150,-114.5"/>
<text text-anchor="middle" x="201.5" y="-121.5" font-family="FreeSans" font-size="10.00">CFlags&lt; UnitType &gt;</text>
</a>
</g>
</g>
<!-- Node39&#45;&gt;Node43 -->
<g id="edge4" class="edge">
<title>Node39&#45;&gt;Node43</title>
<path fill="none" stroke="midnightblue" d="M102.24,-124C117.81,-124 134.67,-124 149.95,-124"/>
<polygon fill="midnightblue" stroke="midnightblue" points="102.22,-120.5 92.22,-124 102.22,-127.5 102.22,-120.5"/>
</g>
<!-- Node44 -->
<g id="node6" class="node">
<title>Node44</title>
<g id="a_node6"><a xlink:href="d6/d11/classCFlags.html" target="_top" xlink:title=" ">
<polygon fill="white" stroke="black" points="160,-76.5 160,-95.5 243,-95.5 243,-76.5 160,-76.5"/>
<text text-anchor="middle" x="201.5" y="-83.5" font-family="FreeSans" font-size="10.00">CFlags&lt; Flag &gt;</text>
</a>
</g>
</g>
<!-- Node39&#45;&gt;Node44 -->
<g id="edge5" class="edge">
<title>Node39&#45;&gt;Node44</title>
<path fill="none" stroke="midnightblue" d="M95.64,-111.96C117.08,-106.65 141.92,-100.5 162.04,-95.52"/>
<polygon fill="midnightblue" stroke="midnightblue" points="94.6,-108.61 85.73,-114.41 96.28,-115.41 94.6,-108.61"/>
</g>
<!-- Node45 -->
<g id="node7" class="node">
<title>Node45</title>
<g id="a_node7"><a xlink:href="d6/d11/classCFlags.html" target="_top" xlink:title=" ">
<polygon fill="white" stroke="black" points="158,-38.5 158,-57.5 245,-57.5 245,-38.5 158,-38.5"/>
<text text-anchor="middle" x="201.5" y="-45.5" font-family="FreeSans" font-size="10.00">CFlags&lt; State &gt;</text>
</a>
</g>
</g>
<!-- Node39&#45;&gt;Node45 -->
<g id="edge6" class="edge">
<title>Node39&#45;&gt;Node45</title>
<path fill="none" stroke="midnightblue" d="M65.87,-107.76C81.56,-95.01 104.97,-77.69 128,-67 137.32,-62.67 147.8,-59.2 157.82,-56.48"/>
<polygon fill="midnightblue" stroke="midnightblue" points="63.45,-105.22 58,-114.3 67.93,-110.6 63.45,-105.22"/>
</g>
<!-- Node46 -->
<g id="node8" class="node">
<title>Node46</title>
<g id="a_node8"><a xlink:href="d6/d11/classCFlags.html" target="_top" xlink:title=" ">
<polygon fill="white" stroke="black" points="157,-0.5 157,-19.5 246,-19.5 246,-0.5 157,-0.5"/>
<text text-anchor="middle" x="201.5" y="-7.5" font-family="FreeSans" font-size="10.00">CFlags&lt; Enum &gt;</text>
</a>
</g>
</g>
<!-- Node39&#45;&gt;Node46 -->
<g id="edge7" class="edge">
<title>Node39&#45;&gt;Node46</title>
<path fill="none" stroke="midnightblue" d="M57.75,-105.62C71.35,-84 96.82,-48.57 128,-29 136.71,-23.54 146.94,-19.63 156.94,-16.85"/>
<polygon fill="midnightblue" stroke="midnightblue" points="54.73,-103.86 52.51,-114.22 60.7,-107.5 54.73,-103.86"/>
</g>
</g>
</svg>
