<?xml version="1.0" encoding="UTF-8" standalone="no"?>
<!DOCTYPE svg PUBLIC "-//W3C//DTD SVG 1.1//EN"
 "http://www.w3.org/Graphics/SVG/1.1/DTD/svg11.dtd">
<!-- Generated by graphviz version 2.43.0 (0)
 -->
<!-- Title: Graphical Class Hierarchy Pages: 1 -->
<svg width="265pt" height="39pt"
 viewBox="0.00 0.00 265.00 39.00" xmlns="http://www.w3.org/2000/svg" xmlns:xlink="http://www.w3.org/1999/xlink">
<g id="graph0" class="graph" transform="scale(1 1) rotate(0) translate(4 35)">
<title>Graphical Class Hierarchy</title>
<polygon fill="white" stroke="transparent" points="-4,4 -4,-35 261,-35 261,4 -4,4"/>
<!-- Node487 -->
<g id="node1" class="node">
<title>Node487</title>
<g id="a_node1"><a xlink:title=" ">
<polygon fill="white" stroke="#bfbfbf" points="0,-0.5 0,-30.5 113,-30.5 113,-0.5 0,-0.5"/>
<text text-anchor="start" x="8" y="-18.5" font-family="FreeSans" font-size="10.00">std::vector&lt; T &gt;::const</text>
<text text-anchor="middle" x="56.5" y="-7.5" font-family="FreeSans" font-size="10.00">_iterator</text>
</a>
</g>
</g>
<!-- Node0 -->
<g id="node2" class="node">
<title>Node0</title>
<g id="a_node2"><a xlink:href="d5/d53/classCDataVector_1_1const__iterator.html" target="_top" xlink:title=" ">
<polygon fill="white" stroke="black" points="149,-0.5 149,-30.5 257,-30.5 257,-0.5 149,-0.5"/>
<text text-anchor="start" x="157" y="-18.5" font-family="FreeSans" font-size="10.00">CDataVector&lt; CType</text>
<text text-anchor="middle" x="203" y="-7.5" font-family="FreeSans" font-size="10.00"> &gt;::const_iterator</text>
</a>
</g>
</g>
<!-- Node487&#45;&gt;Node0 -->
<g id="edge1" class="edge">
<title>Node487&#45;&gt;Node0</title>
<path fill="none" stroke="midnightblue" d="M123.54,-15.5C131.95,-15.5 140.48,-15.5 148.65,-15.5"/>
<polygon fill="midnightblue" stroke="midnightblue" points="123.37,-12 113.37,-15.5 123.37,-19 123.37,-12"/>
</g>
</g>
</svg>
