<?xml version="1.0" encoding="UTF-8" standalone="no"?>
<!DOCTYPE svg PUBLIC "-//W3C//DTD SVG 1.1//EN"
 "http://www.w3.org/Graphics/SVG/1.1/DTD/svg11.dtd">
<!-- Generated by graphviz version 2.43.0 (0)
 -->
<!-- Title: Graphical Class Hierarchy Pages: 1 -->
<svg width="251pt" height="137pt"
 viewBox="0.00 0.00 251.00 137.00" xmlns="http://www.w3.org/2000/svg" xmlns:xlink="http://www.w3.org/1999/xlink">
<g id="graph0" class="graph" transform="scale(1 1) rotate(0) translate(4 133)">
<title>Graphical Class Hierarchy</title>
<polygon fill="white" stroke="transparent" points="-4,4 -4,-133 247,-133 247,4 -4,4"/>
<!-- Node766 -->
<g id="node1" class="node">
<title>Node766</title>
<g id="a_node1"><a xlink:title=" ">
<polygon fill="white" stroke="#bfbfbf" points="0,-55 0,-74 65,-74 65,-55 0,-55"/>
<text text-anchor="middle" x="32.5" y="-62" font-family="FreeSans" font-size="10.00">std::iterator</text>
</a>
</g>
</g>
<!-- Node0 -->
<g id="node2" class="node">
<title>Node0</title>
<g id="a_node2"><a xlink:href="d7/d7c/classCCompressedColumnFormat_1_1const__row__iterator.html" target="_top" xlink:title=" ">
<polygon fill="white" stroke="black" points="101,-98.5 101,-128.5 243,-128.5 243,-98.5 101,-98.5"/>
<text text-anchor="start" x="109" y="-116.5" font-family="FreeSans" font-size="10.00">CCompressedColumnFormat</text>
<text text-anchor="middle" x="172" y="-105.5" font-family="FreeSans" font-size="10.00">::const_row_iterator</text>
</a>
</g>
</g>
<!-- Node766&#45;&gt;Node0 -->
<g id="edge1" class="edge">
<title>Node766&#45;&gt;Node0</title>
<path fill="none" stroke="midnightblue" d="M68.41,-77.62C78.87,-81.49 90.39,-85.72 101,-89.5 109.23,-92.43 118.02,-95.5 126.51,-98.43"/>
<polygon fill="midnightblue" stroke="midnightblue" points="69.36,-74.23 58.77,-74.03 66.92,-80.79 69.36,-74.23"/>
</g>
<!-- Node768 -->
<g id="node3" class="node">
<title>Node768</title>
<g id="a_node3"><a xlink:href="de/d6d/classCCopasiTree_1_1const__iterator.html" target="_top" xlink:title=" ">
<polygon fill="white" stroke="black" points="117,-49.5 117,-79.5 227,-79.5 227,-49.5 117,-49.5"/>
<text text-anchor="start" x="125" y="-67.5" font-family="FreeSans" font-size="10.00">CCopasiTree&lt; _Node</text>
<text text-anchor="middle" x="172" y="-56.5" font-family="FreeSans" font-size="10.00"> &gt;::const_iterator</text>
</a>
</g>
</g>
<!-- Node766&#45;&gt;Node768 -->
<g id="edge2" class="edge">
<title>Node766&#45;&gt;Node768</title>
<path fill="none" stroke="midnightblue" d="M75.21,-64.5C88.36,-64.5 103.07,-64.5 116.95,-64.5"/>
<polygon fill="midnightblue" stroke="midnightblue" points="75.05,-61 65.05,-64.5 75.05,-68 75.05,-61"/>
</g>
<!-- Node769 -->
<g id="node4" class="node">
<title>Node769</title>
<g id="a_node4"><a xlink:href="de/d73/classCCopasiTree_1_1iterator.html" target="_top" xlink:title=" ">
<polygon fill="white" stroke="black" points="117,-0.5 117,-30.5 227,-30.5 227,-0.5 117,-0.5"/>
<text text-anchor="start" x="125" y="-18.5" font-family="FreeSans" font-size="10.00">CCopasiTree&lt; _Node</text>
<text text-anchor="middle" x="172" y="-7.5" font-family="FreeSans" font-size="10.00"> &gt;::iterator</text>
</a>
</g>
</g>
<!-- Node766&#45;&gt;Node769 -->
<g id="edge3" class="edge">
<title>Node766&#45;&gt;Node769</title>
<path fill="none" stroke="midnightblue" d="M69.95,-51.51C88.04,-45.07 109.99,-37.24 128.8,-30.54"/>
<polygon fill="midnightblue" stroke="midnightblue" points="68.58,-48.28 60.34,-54.94 70.93,-54.88 68.58,-48.28"/>
</g>
</g>
</svg>
