<?xml version="1.0" encoding="UTF-8" standalone="no"?>
<!DOCTYPE svg PUBLIC "-//W3C//DTD SVG 1.1//EN"
 "http://www.w3.org/Graphics/SVG/1.1/DTD/svg11.dtd">
<!-- Generated by graphviz version 2.43.0 (0)
 -->
<!-- Title: Graphical Class Hierarchy Pages: 1 -->
<svg width="424pt" height="66pt"
 viewBox="0.00 0.00 424.00 66.00" xmlns="http://www.w3.org/2000/svg" xmlns:xlink="http://www.w3.org/1999/xlink">
<g id="graph0" class="graph" transform="scale(1 1) rotate(0) translate(4 62)">
<title>Graphical Class Hierarchy</title>
<polygon fill="white" stroke="transparent" points="-4,4 -4,-62 420,-62 420,4 -4,4"/>
<!-- Node0 -->
<g id="node1" class="node">
<title>Node0</title>
<g id="a_node1"><a xlink:href="d3/d56/classCContext.html" target="_top" xlink:title=" ">
<polygon fill="white" stroke="black" points="0,-19.5 0,-38.5 93,-38.5 93,-19.5 0,-19.5"/>
<text text-anchor="middle" x="46.5" y="-26.5" font-family="FreeSans" font-size="10.00">CContext&lt; Data &gt;</text>
</a>
</g>
</g>
<!-- Node1 -->
<g id="node2" class="node">
<title>Node1</title>
<g id="a_node2"><a xlink:href="d4/d52/classCPointerContext.html" target="_top" xlink:title=" ">
<polygon fill="white" stroke="black" points="129,-38.5 129,-57.5 302,-57.5 302,-38.5 129,-38.5"/>
<text text-anchor="middle" x="215.5" y="-45.5" font-family="FreeSans" font-size="10.00">CPointerContext&lt; CMathContainer &gt;</text>
</a>
</g>
</g>
<!-- Node0&#45;&gt;Node1 -->
<g id="edge1" class="edge">
<title>Node0&#45;&gt;Node1</title>
<path fill="none" stroke="midnightblue" d="M103.26,-35.34C112.1,-36.35 121.4,-37.41 130.71,-38.47"/>
<polygon fill="midnightblue" stroke="midnightblue" points="103.47,-31.84 93.13,-34.19 102.67,-38.8 103.47,-31.84"/>
</g>
<!-- Node3 -->
<g id="node4" class="node">
<title>Node3</title>
<g id="a_node4"><a xlink:href="d4/d52/classCPointerContext.html" target="_top" xlink:title=" ">
<polygon fill="white" stroke="black" points="142.5,-0.5 142.5,-19.5 288.5,-19.5 288.5,-0.5 142.5,-0.5"/>
<text text-anchor="middle" x="215.5" y="-7.5" font-family="FreeSans" font-size="10.00">CPointerContext&lt; CRandom &gt;</text>
</a>
</g>
</g>
<!-- Node0&#45;&gt;Node3 -->
<g id="edge3" class="edge">
<title>Node0&#45;&gt;Node3</title>
<path fill="none" stroke="midnightblue" d="M103.36,-22.64C115.82,-21.23 129.22,-19.7 142.24,-18.22"/>
<polygon fill="midnightblue" stroke="midnightblue" points="102.67,-19.2 93.13,-23.81 103.47,-26.16 102.67,-19.2"/>
</g>
<!-- Node2 -->
<g id="node3" class="node">
<title>Node2</title>
<g id="a_node3"><a xlink:href="d2/d0f/classCMathContext.html" target="_top" xlink:title=" ">
<polygon fill="white" stroke="black" points="338,-38.5 338,-57.5 416,-57.5 416,-38.5 338,-38.5"/>
<text text-anchor="middle" x="377" y="-45.5" font-family="FreeSans" font-size="10.00">CMathContext</text>
</a>
</g>
</g>
<!-- Node1&#45;&gt;Node2 -->
<g id="edge2" class="edge">
<title>Node1&#45;&gt;Node2</title>
<path fill="none" stroke="midnightblue" d="M312.41,-48C321.27,-48 329.85,-48 337.69,-48"/>
<polygon fill="midnightblue" stroke="midnightblue" points="312.32,-44.5 302.32,-48 312.32,-51.5 312.32,-44.5"/>
</g>
</g>
</svg>
