<?xml version="1.0" encoding="UTF-8" standalone="no"?>
<!DOCTYPE svg PUBLIC "-//W3C//DTD SVG 1.1//EN"
 "http://www.w3.org/Graphics/SVG/1.1/DTD/svg11.dtd">
<!-- Generated by graphviz version 2.43.0 (0)
 -->
<!-- Title: Graphical Class Hierarchy Pages: 1 -->
<svg width="255pt" height="142pt"
 viewBox="0.00 0.00 255.00 142.00" xmlns="http://www.w3.org/2000/svg" xmlns:xlink="http://www.w3.org/1999/xlink">
<g id="graph0" class="graph" transform="scale(1 1) rotate(0) translate(4 138)">
<title>Graphical Class Hierarchy</title>
<polygon fill="white" stroke="transparent" points="-4,4 -4,-138 251,-138 251,4 -4,4"/>
<!-- Node0 -->
<g id="node1" class="node">
<title>Node0</title>
<g id="a_node1"><a xlink:href="d9/d76/classCChemEqParserBase.html" target="_top" xlink:title=" ">
<polygon fill="white" stroke="black" points="4,-114.5 4,-133.5 115,-133.5 115,-114.5 4,-114.5"/>
<text text-anchor="middle" x="59.5" y="-121.5" font-family="FreeSans" font-size="10.00">CChemEqParserBase</text>
</a>
</g>
</g>
<!-- Node1 -->
<g id="node2" class="node">
<title>Node1</title>
<g id="a_node2"><a xlink:href="d2/d4f/classCChemEqParser.html" target="_top" xlink:title=" ">
<polygon fill="white" stroke="black" points="156.5,-114.5 156.5,-133.5 245.5,-133.5 245.5,-114.5 156.5,-114.5"/>
<text text-anchor="middle" x="201" y="-121.5" font-family="FreeSans" font-size="10.00">CChemEqParser</text>
</a>
</g>
</g>
<!-- Node0&#45;&gt;Node1 -->
<g id="edge1" class="edge">
<title>Node0&#45;&gt;Node1</title>
<path fill="none" stroke="midnightblue" d="M125.54,-124C135.93,-124 146.45,-124 156.19,-124"/>
<polygon fill="midnightblue" stroke="midnightblue" points="125.23,-120.5 115.23,-124 125.23,-127.5 125.23,-120.5"/>
</g>
<!-- Node128 -->
<g id="node3" class="node">
<title>Node128</title>
<g id="a_node3"><a xlink:href="d9/db1/classCEvaluationParserBase.html" target="_top" xlink:title=" ">
<polygon fill="white" stroke="black" points="0,-76.5 0,-95.5 119,-95.5 119,-76.5 0,-76.5"/>
<text text-anchor="middle" x="59.5" y="-83.5" font-family="FreeSans" font-size="10.00">CEvaluationParserBase</text>
</a>
</g>
</g>
<!-- Node129 -->
<g id="node4" class="node">
<title>Node129</title>
<g id="a_node4"><a xlink:href="d6/d8a/classCEvaluationLexer.html" target="_top" xlink:title=" ">
<polygon fill="white" stroke="black" points="155,-76.5 155,-95.5 247,-95.5 247,-76.5 155,-76.5"/>
<text text-anchor="middle" x="201" y="-83.5" font-family="FreeSans" font-size="10.00">CEvaluationLexer</text>
</a>
</g>
</g>
<!-- Node128&#45;&gt;Node129 -->
<g id="edge2" class="edge">
<title>Node128&#45;&gt;Node129</title>
<path fill="none" stroke="midnightblue" d="M129.38,-86C138.04,-86 146.72,-86 154.88,-86"/>
<polygon fill="midnightblue" stroke="midnightblue" points="129.26,-82.5 119.26,-86 129.26,-89.5 129.26,-82.5"/>
</g>
<!-- Node578 -->
<g id="node5" class="node">
<title>Node578</title>
<g id="a_node5"><a xlink:href="de/d2e/classCUnitParserBase.html" target="_top" xlink:title=" ">
<polygon fill="white" stroke="black" points="13.5,-0.5 13.5,-19.5 105.5,-19.5 105.5,-0.5 13.5,-0.5"/>
<text text-anchor="middle" x="59.5" y="-7.5" font-family="FreeSans" font-size="10.00">CUnitParserBase</text>
</a>
</g>
</g>
<!-- Node579 -->
<g id="node6" class="node">
<title>Node579</title>
<g id="a_node6"><a xlink:href="d5/d08/classCUnitParser.html" target="_top" xlink:title=" ">
<polygon fill="white" stroke="black" points="166,-0.5 166,-19.5 236,-19.5 236,-0.5 166,-0.5"/>
<text text-anchor="middle" x="201" y="-7.5" font-family="FreeSans" font-size="10.00">CUnitParser</text>
</a>
</g>
</g>
<!-- Node578&#45;&gt;Node579 -->
<g id="edge3" class="edge">
<title>Node578&#45;&gt;Node579</title>
<path fill="none" stroke="midnightblue" d="M116.11,-10C132.97,-10 150.99,-10 165.98,-10"/>
<polygon fill="midnightblue" stroke="midnightblue" points="115.79,-6.5 105.79,-10 115.79,-13.5 115.79,-6.5"/>
</g>
<!-- Node749 -->
<g id="node7" class="node">
<title>Node749</title>
<g id="a_node7"><a xlink:href="dc/d78/classFlexLexer.html" target="_top" xlink:title=" ">
<polygon fill="white" stroke="black" points="30,-38.5 30,-57.5 89,-57.5 89,-38.5 30,-38.5"/>
<text text-anchor="middle" x="59.5" y="-45.5" font-family="FreeSans" font-size="10.00">FlexLexer</text>
</a>
</g>
</g>
<!-- Node749&#45;&gt;Node1 -->
<g id="edge4" class="edge">
<title>Node749&#45;&gt;Node1</title>
<path fill="none" stroke="midnightblue" d="M98.65,-57.33C105.7,-59.9 112.79,-63.08 119,-67 138.67,-79.42 135.88,-91.75 155,-105 160.3,-108.67 166.42,-111.84 172.4,-114.47"/>
<polygon fill="midnightblue" stroke="midnightblue" points="99.73,-54.01 89.14,-54.22 97.55,-60.66 99.73,-54.01"/>
</g>
<!-- Node749&#45;&gt;Node129 -->
<g id="edge5" class="edge">
<title>Node749&#45;&gt;Node129</title>
<path fill="none" stroke="midnightblue" d="M98.81,-58.44C119.51,-64.07 144.88,-70.99 165.04,-76.48"/>
<polygon fill="midnightblue" stroke="midnightblue" points="99.63,-55.03 89.07,-55.78 97.8,-61.79 99.63,-55.03"/>
</g>
<!-- Node749&#45;&gt;Node579 -->
<g id="edge6" class="edge">
<title>Node749&#45;&gt;Node579</title>
<path fill="none" stroke="midnightblue" d="M98.92,-37.53C119.86,-31.83 145.56,-24.83 165.81,-19.31"/>
<polygon fill="midnightblue" stroke="midnightblue" points="97.8,-34.21 89.07,-40.22 99.63,-40.97 97.8,-34.21"/>
</g>
<!-- Node750 -->
<g id="node8" class="node">
<title>Node750</title>
<g id="a_node8"><a xlink:href="dc/d20/classyyFlexLexer.html" target="_top" xlink:title=" ">
<polygon fill="white" stroke="black" points="167,-38.5 167,-57.5 235,-57.5 235,-38.5 167,-38.5"/>
<text text-anchor="middle" x="201" y="-45.5" font-family="FreeSans" font-size="10.00">yyFlexLexer</text>
</a>
</g>
</g>
<!-- Node749&#45;&gt;Node750 -->
<g id="edge7" class="edge">
<title>Node749&#45;&gt;Node750</title>
<path fill="none" stroke="midnightblue" d="M99.07,-48C120.33,-48 146.47,-48 166.81,-48"/>
<polygon fill="midnightblue" stroke="midnightblue" points="99.07,-44.5 89.07,-48 99.07,-51.5 99.07,-44.5"/>
</g>
</g>
</svg>
