<?xml version="1.0" encoding="UTF-8" standalone="no"?>
<!DOCTYPE svg PUBLIC "-//W3C//DTD SVG 1.1//EN"
 "http://www.w3.org/Graphics/SVG/1.1/DTD/svg11.dtd">
<!-- Generated by graphviz version 2.43.0 (0)
 -->
<!-- Title: Graphical Class Hierarchy Pages: 1 -->
<svg width="257pt" height="176pt"
 viewBox="0.00 0.00 257.00 176.00" xmlns="http://www.w3.org/2000/svg" xmlns:xlink="http://www.w3.org/1999/xlink">
<g id="graph0" class="graph" transform="scale(1 1) rotate(0) translate(4 172)">
<title>Graphical Class Hierarchy</title>
<polygon fill="white" stroke="transparent" points="-4,4 -4,-172 253,-172 253,4 -4,4"/>
<!-- Node0 -->
<g id="node1" class="node">
<title>Node0</title>
<g id="a_node1"><a xlink:href="de/d80/classCArrayInterface.html" target="_top" xlink:title=" ">
<polygon fill="white" stroke="black" points="0,-77 0,-96 84,-96 84,-77 0,-77"/>
<text text-anchor="middle" x="42" y="-84" font-family="FreeSans" font-size="10.00">CArrayInterface</text>
</a>
</g>
</g>
<!-- Node1 -->
<g id="node2" class="node">
<title>Node1</title>
<g id="a_node2"><a xlink:href="de/d84/classCMatrixInterface.html" target="_top" xlink:title=" ">
<polygon fill="white" stroke="black" points="120,-137.5 120,-167.5 249,-167.5 249,-137.5 120,-137.5"/>
<text text-anchor="start" x="128" y="-155.5" font-family="FreeSans" font-size="10.00">CMatrixInterface&lt; CMatrix</text>
<text text-anchor="middle" x="184.5" y="-144.5" font-family="FreeSans" font-size="10.00">&lt; C_FLOAT64 &gt; &gt;</text>
</a>
</g>
</g>
<!-- Node0&#45;&gt;Node1 -->
<g id="edge1" class="edge">
<title>Node0&#45;&gt;Node1</title>
<path fill="none" stroke="midnightblue" d="M68.59,-101.07C83.4,-109.27 102.51,-119.43 120,-127.5 127.42,-130.92 135.46,-134.32 143.24,-137.45"/>
<polygon fill="midnightblue" stroke="midnightblue" points="69.98,-97.84 59.55,-96.02 66.57,-103.95 69.98,-97.84"/>
</g>
<!-- Node2 -->
<g id="node3" class="node">
<title>Node2</title>
<g id="a_node3"><a xlink:href="df/d47/classCArray.html" target="_top" xlink:title=" ">
<polygon fill="white" stroke="black" points="161.5,-99 161.5,-118 207.5,-118 207.5,-99 161.5,-99"/>
<text text-anchor="middle" x="184.5" y="-106" font-family="FreeSans" font-size="10.00">CArray</text>
</a>
</g>
</g>
<!-- Node0&#45;&gt;Node2 -->
<g id="edge2" class="edge">
<title>Node0&#45;&gt;Node2</title>
<path fill="none" stroke="midnightblue" d="M94.06,-94.5C117.21,-98.12 143.37,-102.22 161.39,-105.04"/>
<polygon fill="midnightblue" stroke="midnightblue" points="94.44,-91.01 84.02,-92.92 93.35,-97.93 94.44,-91.01"/>
</g>
<!-- Node3 -->
<g id="node4" class="node">
<title>Node3</title>
<g id="a_node4"><a xlink:href="de/d84/classCMatrixInterface.html" target="_top" xlink:title=" ">
<polygon fill="white" stroke="black" points="123.5,-49.5 123.5,-79.5 245.5,-79.5 245.5,-49.5 123.5,-49.5"/>
<text text-anchor="start" x="131.5" y="-67.5" font-family="FreeSans" font-size="10.00">CMatrixInterface&lt; Matrix</text>
<text text-anchor="middle" x="184.5" y="-56.5" font-family="FreeSans" font-size="10.00">Type &gt;</text>
</a>
</g>
</g>
<!-- Node0&#45;&gt;Node3 -->
<g id="edge3" class="edge">
<title>Node0&#45;&gt;Node3</title>
<path fill="none" stroke="midnightblue" d="M94.1,-78.5C103.61,-77.01 113.62,-75.44 123.37,-73.91"/>
<polygon fill="midnightblue" stroke="midnightblue" points="93.35,-75.07 84.02,-80.08 94.44,-81.99 93.35,-75.07"/>
</g>
<!-- Node4 -->
<g id="node5" class="node">
<title>Node4</title>
<g id="a_node5"><a xlink:href="d1/dfb/classCVectorInterface.html" target="_top" xlink:title=" ">
<polygon fill="white" stroke="black" points="121,-0.5 121,-30.5 248,-30.5 248,-0.5 121,-0.5"/>
<text text-anchor="start" x="129" y="-18.5" font-family="FreeSans" font-size="10.00">CVectorInterface&lt; Vector</text>
<text text-anchor="middle" x="184.5" y="-7.5" font-family="FreeSans" font-size="10.00">Type &gt;</text>
</a>
</g>
</g>
<!-- Node0&#45;&gt;Node4 -->
<g id="edge4" class="edge">
<title>Node0&#45;&gt;Node4</title>
<path fill="none" stroke="midnightblue" d="M65.98,-71.42C81.01,-61.9 101.25,-49.71 120,-40.5 127.12,-37 134.87,-33.62 142.42,-30.53"/>
<polygon fill="midnightblue" stroke="midnightblue" points="63.89,-68.6 57.36,-76.95 67.67,-74.5 63.89,-68.6"/>
</g>
</g>
</svg>
