<?xml version="1.0" encoding="UTF-8" standalone="no"?>
<!DOCTYPE svg PUBLIC "-//W3C//DTD SVG 1.1//EN"
 "http://www.w3.org/Graphics/SVG/1.1/DTD/svg11.dtd">
<!-- Generated by graphviz version 2.43.0 (0)
 -->
<!-- Title: Graphical Class Hierarchy Pages: 1 -->
<svg width="451pt" height="522pt"
 viewBox="0.00 0.00 451.00 522.00" xmlns="http://www.w3.org/2000/svg" xmlns:xlink="http://www.w3.org/1999/xlink">
<g id="graph0" class="graph" transform="scale(1 1) rotate(0) translate(4 518)">
<title>Graphical Class Hierarchy</title>
<polygon fill="white" stroke="transparent" points="-4,4 -4,-518 447,-518 447,4 -4,4"/>
<!-- Node0 -->
<g id="node1" class="node">
<title>Node0</title>
<g id="a_node1"><a xlink:href="d9/d9d/classCCopasiNode.html" target="_top" xlink:title=" ">
<polygon fill="white" stroke="black" points="0,-247.5 0,-266.5 135,-266.5 135,-247.5 0,-247.5"/>
<text text-anchor="middle" x="67.5" y="-254.5" font-family="FreeSans" font-size="10.00">CCopasiNode&lt; std::string &gt;</text>
</a>
</g>
</g>
<!-- Node1 -->
<g id="node2" class="node">
<title>Node1</title>
<g id="a_node2"><a xlink:href="d8/d9f/classCEvaluationNode.html" target="_top" xlink:title=" ">
<polygon fill="white" stroke="black" points="171,-247.5 171,-266.5 263,-266.5 263,-247.5 171,-247.5"/>
<text text-anchor="middle" x="217" y="-254.5" font-family="FreeSans" font-size="10.00">CEvaluationNode</text>
</a>
</g>
</g>
<!-- Node0&#45;&gt;Node1 -->
<g id="edge1" class="edge">
<title>Node0&#45;&gt;Node1</title>
<path fill="none" stroke="midnightblue" d="M145.54,-257C154.22,-257 162.84,-257 170.92,-257"/>
<polygon fill="midnightblue" stroke="midnightblue" points="145.34,-253.5 135.34,-257 145.34,-260.5 145.34,-253.5"/>
</g>
<!-- Node2 -->
<g id="node3" class="node">
<title>Node2</title>
<g id="a_node3"><a xlink:href="df/d44/classCEvaluationNodeCall.html" target="_top" xlink:title=" ">
<polygon fill="white" stroke="black" points="317,-494.5 317,-513.5 425,-513.5 425,-494.5 317,-494.5"/>
<text text-anchor="middle" x="371" y="-501.5" font-family="FreeSans" font-size="10.00">CEvaluationNodeCall</text>
</a>
</g>
</g>
<!-- Node1&#45;&gt;Node2 -->
<g id="edge2" class="edge">
<title>Node1&#45;&gt;Node2</title>
<path fill="none" stroke="midnightblue" d="M219.09,-277.03C222.61,-321.31 237.38,-428.12 299,-485 304.16,-489.76 310.37,-493.35 316.96,-496.06"/>
<polygon fill="midnightblue" stroke="midnightblue" points="222.58,-276.7 218.4,-266.96 215.59,-277.17 222.58,-276.7"/>
</g>
<!-- Node3 -->
<g id="node4" class="node">
<title>Node3</title>
<g id="a_node4"><a xlink:href="d7/ddb/classCEvaluationNodeChoice.html" target="_top" xlink:title=" ">
<polygon fill="white" stroke="black" points="310,-456.5 310,-475.5 432,-475.5 432,-456.5 310,-456.5"/>
<text text-anchor="middle" x="371" y="-463.5" font-family="FreeSans" font-size="10.00">CEvaluationNodeChoice</text>
</a>
</g>
</g>
<!-- Node1&#45;&gt;Node3 -->
<g id="edge3" class="edge">
<title>Node1&#45;&gt;Node3</title>
<path fill="none" stroke="midnightblue" d="M220.63,-276.55C226.88,-315.12 246.25,-401.23 299,-447 303.43,-450.85 308.57,-453.92 314,-456.39"/>
<polygon fill="midnightblue" stroke="midnightblue" points="224.08,-275.98 219.14,-266.6 217.16,-277.01 224.08,-275.98"/>
</g>
<!-- Node4 -->
<g id="node5" class="node">
<title>Node4</title>
<g id="a_node5"><a xlink:href="dd/d1f/classCEvaluationNodeConstant.html" target="_top" xlink:title=" ">
<polygon fill="white" stroke="black" points="305.5,-418.5 305.5,-437.5 436.5,-437.5 436.5,-418.5 305.5,-418.5"/>
<text text-anchor="middle" x="371" y="-425.5" font-family="FreeSans" font-size="10.00">CEvaluationNodeConstant</text>
</a>
</g>
</g>
<!-- Node1&#45;&gt;Node4 -->
<g id="edge4" class="edge">
<title>Node1&#45;&gt;Node4</title>
<path fill="none" stroke="midnightblue" d="M222.95,-276.62C232.19,-309.18 255.23,-374.23 299,-409 303.9,-412.89 309.52,-415.99 315.41,-418.45"/>
<polygon fill="midnightblue" stroke="midnightblue" points="226.22,-275.31 220.24,-266.56 219.46,-277.12 226.22,-275.31"/>
</g>
<!-- Node5 -->
<g id="node6" class="node">
<title>Node5</title>
<g id="a_node6"><a xlink:href="dd/d48/classCEvaluationNodeDelay.html" target="_top" xlink:title=" ">
<polygon fill="white" stroke="black" points="313,-380.5 313,-399.5 429,-399.5 429,-380.5 313,-380.5"/>
<text text-anchor="middle" x="371" y="-387.5" font-family="FreeSans" font-size="10.00">CEvaluationNodeDelay</text>
</a>
</g>
</g>
<!-- Node1&#45;&gt;Node5 -->
<g id="edge5" class="edge">
<title>Node1&#45;&gt;Node5</title>
<path fill="none" stroke="midnightblue" d="M226.37,-276.01C238.59,-301.54 263.78,-346.53 299,-371 304.55,-374.86 310.85,-377.93 317.35,-380.39"/>
<polygon fill="midnightblue" stroke="midnightblue" points="229.43,-274.28 222.06,-266.67 223.07,-277.22 229.43,-274.28"/>
</g>
<!-- Node6 -->
<g id="node7" class="node">
<title>Node6</title>
<g id="a_node7"><a xlink:href="d8/dcb/classCEvaluationNodeFunction.html" target="_top" xlink:title=" ">
<polygon fill="white" stroke="black" points="306.5,-342.5 306.5,-361.5 435.5,-361.5 435.5,-342.5 306.5,-342.5"/>
<text text-anchor="middle" x="371" y="-349.5" font-family="FreeSans" font-size="10.00">CEvaluationNodeFunction</text>
</a>
</g>
</g>
<!-- Node1&#45;&gt;Node6 -->
<g id="edge6" class="edge">
<title>Node1&#45;&gt;Node6</title>
<path fill="none" stroke="midnightblue" d="M231.82,-274.22C246.65,-291.56 271.77,-317.86 299,-333 305.91,-336.84 313.64,-339.94 321.39,-342.43"/>
<polygon fill="midnightblue" stroke="midnightblue" points="234.49,-271.95 225.4,-266.51 229.11,-276.43 234.49,-271.95"/>
</g>
<!-- Node7 -->
<g id="node8" class="node">
<title>Node7</title>
<g id="a_node8"><a xlink:href="de/d73/classCEvaluationNodeLogical.html" target="_top" xlink:title=" ">
<polygon fill="white" stroke="black" points="309.5,-304.5 309.5,-323.5 432.5,-323.5 432.5,-304.5 309.5,-304.5"/>
<text text-anchor="middle" x="371" y="-311.5" font-family="FreeSans" font-size="10.00">CEvaluationNodeLogical</text>
</a>
</g>
</g>
<!-- Node1&#45;&gt;Node7 -->
<g id="edge7" class="edge">
<title>Node1&#45;&gt;Node7</title>
<path fill="none" stroke="midnightblue" d="M244.97,-271.12C260.48,-278.87 280.51,-288.25 299,-295 308.71,-298.54 319.38,-301.75 329.44,-304.47"/>
<polygon fill="midnightblue" stroke="midnightblue" points="246.45,-267.95 235.94,-266.55 243.28,-274.19 246.45,-267.95"/>
</g>
<!-- Node8 -->
<g id="node9" class="node">
<title>Node8</title>
<g id="a_node9"><a xlink:href="d3/d2a/classCEvaluationNodeNumber.html" target="_top" xlink:title=" ">
<polygon fill="white" stroke="black" points="308,-266.5 308,-285.5 434,-285.5 434,-266.5 308,-266.5"/>
<text text-anchor="middle" x="371" y="-273.5" font-family="FreeSans" font-size="10.00">CEvaluationNodeNumber</text>
</a>
</g>
</g>
<!-- Node1&#45;&gt;Node8 -->
<g id="edge8" class="edge">
<title>Node1&#45;&gt;Node8</title>
<path fill="none" stroke="midnightblue" d="M273.28,-263.91C284.51,-265.31 296.38,-266.8 307.82,-268.23"/>
<polygon fill="midnightblue" stroke="midnightblue" points="273.55,-260.42 263.19,-262.65 272.68,-267.36 273.55,-260.42"/>
</g>
<!-- Node9 -->
<g id="node10" class="node">
<title>Node9</title>
<g id="a_node10"><a xlink:href="d8/d28/classCEvaluationNodeObject.html" target="_top" xlink:title=" ">
<polygon fill="white" stroke="black" points="311,-228.5 311,-247.5 431,-247.5 431,-228.5 311,-228.5"/>
<text text-anchor="middle" x="371" y="-235.5" font-family="FreeSans" font-size="10.00">CEvaluationNodeObject</text>
</a>
</g>
</g>
<!-- Node1&#45;&gt;Node9 -->
<g id="edge9" class="edge">
<title>Node1&#45;&gt;Node9</title>
<path fill="none" stroke="midnightblue" d="M273.26,-250.09C285.49,-248.56 298.51,-246.94 310.89,-245.39"/>
<polygon fill="midnightblue" stroke="midnightblue" points="272.68,-246.64 263.19,-251.35 273.55,-253.58 272.68,-246.64"/>
</g>
<!-- Node10 -->
<g id="node11" class="node">
<title>Node10</title>
<g id="a_node11"><a xlink:href="d5/de4/classCEvaluationNodeOperator.html" target="_top" xlink:title=" ">
<polygon fill="white" stroke="black" points="306.5,-190.5 306.5,-209.5 435.5,-209.5 435.5,-190.5 306.5,-190.5"/>
<text text-anchor="middle" x="371" y="-197.5" font-family="FreeSans" font-size="10.00">CEvaluationNodeOperator</text>
</a>
</g>
</g>
<!-- Node1&#45;&gt;Node10 -->
<g id="edge10" class="edge">
<title>Node1&#45;&gt;Node10</title>
<path fill="none" stroke="midnightblue" d="M244.97,-242.88C260.48,-235.13 280.51,-225.75 299,-219 308.71,-215.46 319.38,-212.25 329.44,-209.53"/>
<polygon fill="midnightblue" stroke="midnightblue" points="243.28,-239.81 235.94,-247.45 246.45,-246.05 243.28,-239.81"/>
</g>
<!-- Node11 -->
<g id="node12" class="node">
<title>Node11</title>
<g id="a_node12"><a xlink:href="d4/de7/classCEvaluationNodeStructure.html" target="_top" xlink:title=" ">
<polygon fill="white" stroke="black" points="305.5,-152.5 305.5,-171.5 436.5,-171.5 436.5,-152.5 305.5,-152.5"/>
<text text-anchor="middle" x="371" y="-159.5" font-family="FreeSans" font-size="10.00">CEvaluationNodeStructure</text>
</a>
</g>
</g>
<!-- Node1&#45;&gt;Node11 -->
<g id="edge11" class="edge">
<title>Node1&#45;&gt;Node11</title>
<path fill="none" stroke="midnightblue" d="M231.82,-239.78C246.65,-222.44 271.77,-196.14 299,-181 305.91,-177.16 313.64,-174.06 321.39,-171.57"/>
<polygon fill="midnightblue" stroke="midnightblue" points="229.11,-237.57 225.4,-247.49 234.49,-242.05 229.11,-237.57"/>
</g>
<!-- Node12 -->
<g id="node13" class="node">
<title>Node12</title>
<g id="a_node13"><a xlink:href="db/da7/classCEvaluationNodeUnit.html" target="_top" xlink:title=" ">
<polygon fill="white" stroke="black" points="316,-114.5 316,-133.5 426,-133.5 426,-114.5 316,-114.5"/>
<text text-anchor="middle" x="371" y="-121.5" font-family="FreeSans" font-size="10.00">CEvaluationNodeUnit</text>
</a>
</g>
</g>
<!-- Node1&#45;&gt;Node12 -->
<g id="edge12" class="edge">
<title>Node1&#45;&gt;Node12</title>
<path fill="none" stroke="midnightblue" d="M226.37,-237.99C238.59,-212.46 263.78,-167.47 299,-143 304.55,-139.14 310.85,-136.07 317.35,-133.61"/>
<polygon fill="midnightblue" stroke="midnightblue" points="223.07,-236.78 222.06,-247.33 229.43,-239.72 223.07,-236.78"/>
</g>
<!-- Node13 -->
<g id="node14" class="node">
<title>Node13</title>
<g id="a_node14"><a xlink:href="d3/d1b/classCEvaluationNodeVariable.html" target="_top" xlink:title=" ">
<polygon fill="white" stroke="black" points="307.5,-76.5 307.5,-95.5 434.5,-95.5 434.5,-76.5 307.5,-76.5"/>
<text text-anchor="middle" x="371" y="-83.5" font-family="FreeSans" font-size="10.00">CEvaluationNodeVariable</text>
</a>
</g>
</g>
<!-- Node1&#45;&gt;Node13 -->
<g id="edge13" class="edge">
<title>Node1&#45;&gt;Node13</title>
<path fill="none" stroke="midnightblue" d="M222.95,-237.38C232.19,-204.82 255.23,-139.77 299,-105 303.9,-101.11 309.52,-98.01 315.41,-95.55"/>
<polygon fill="midnightblue" stroke="midnightblue" points="219.46,-236.88 220.24,-247.44 226.22,-238.69 219.46,-236.88"/>
</g>
<!-- Node14 -->
<g id="node15" class="node">
<title>Node14</title>
<g id="a_node15"><a xlink:href="df/de0/classCEvaluationNodeVector.html" target="_top" xlink:title=" ">
<polygon fill="white" stroke="black" points="311,-38.5 311,-57.5 431,-57.5 431,-38.5 311,-38.5"/>
<text text-anchor="middle" x="371" y="-45.5" font-family="FreeSans" font-size="10.00">CEvaluationNodeVector</text>
</a>
</g>
</g>
<!-- Node1&#45;&gt;Node14 -->
<g id="edge14" class="edge">
<title>Node1&#45;&gt;Node14</title>
<path fill="none" stroke="midnightblue" d="M220.63,-237.45C226.88,-198.88 246.25,-112.77 299,-67 303.43,-63.15 308.57,-60.08 314,-57.61"/>
<polygon fill="midnightblue" stroke="midnightblue" points="217.16,-236.99 219.14,-247.4 224.08,-238.02 217.16,-236.99"/>
</g>
<!-- Node15 -->
<g id="node16" class="node">
<title>Node15</title>
<g id="a_node16"><a xlink:href="d7/d6b/classCEvaluationNodeWhiteSpace.html" target="_top" xlink:title=" ">
<polygon fill="white" stroke="black" points="299,-0.5 299,-19.5 443,-19.5 443,-0.5 299,-0.5"/>
<text text-anchor="middle" x="371" y="-7.5" font-family="FreeSans" font-size="10.00">CEvaluationNodeWhiteSpace</text>
</a>
</g>
</g>
<!-- Node1&#45;&gt;Node15 -->
<g id="edge15" class="edge">
<title>Node1&#45;&gt;Node15</title>
<path fill="none" stroke="midnightblue" d="M219.09,-236.97C222.61,-192.69 237.38,-85.88 299,-29 303.22,-25.11 308.15,-21.99 313.41,-19.51"/>
<polygon fill="midnightblue" stroke="midnightblue" points="215.59,-236.83 218.4,-247.04 222.58,-237.3 215.59,-236.83"/>
</g>
</g>
</svg>
