<?xml version="1.0" encoding="UTF-8" standalone="no"?>
<!DOCTYPE svg PUBLIC "-//W3C//DTD SVG 1.1//EN"
 "http://www.w3.org/Graphics/SVG/1.1/DTD/svg11.dtd">
<!-- Generated by graphviz version 2.43.0 (0)
 -->
<!-- Title: Graphical Class Hierarchy Pages: 1 -->
<svg width="242pt" height="104pt"
 viewBox="0.00 0.00 242.00 104.00" xmlns="http://www.w3.org/2000/svg" xmlns:xlink="http://www.w3.org/1999/xlink">
<g id="graph0" class="graph" transform="scale(1 1) rotate(0) translate(4 100)">
<title>Graphical Class Hierarchy</title>
<polygon fill="white" stroke="transparent" points="-4,4 -4,-100 238,-100 238,4 -4,4"/>
<!-- Node0 -->
<g id="node1" class="node">
<title>Node0</title>
<g id="a_node1"><a xlink:href="d4/de3/classCODEExporter.html" target="_top" xlink:title=" ">
<polygon fill="white" stroke="black" points="0,-38.5 0,-57.5 79,-57.5 79,-38.5 0,-38.5"/>
<text text-anchor="middle" x="39.5" y="-45.5" font-family="FreeSans" font-size="10.00">CODEExporter</text>
</a>
</g>
</g>
<!-- Node1 -->
<g id="node2" class="node">
<title>Node1</title>
<g id="a_node2"><a xlink:href="d7/d7c/classCODEExporterBM.html" target="_top" xlink:title=" ">
<polygon fill="white" stroke="black" points="127.5,-76.5 127.5,-95.5 221.5,-95.5 221.5,-76.5 127.5,-76.5"/>
<text text-anchor="middle" x="174.5" y="-83.5" font-family="FreeSans" font-size="10.00">CODEExporterBM</text>
</a>
</g>
</g>
<!-- Node0&#45;&gt;Node1 -->
<g id="edge1" class="edge">
<title>Node0&#45;&gt;Node1</title>
<path fill="none" stroke="midnightblue" d="M83.87,-60.39C102.08,-65.59 122.94,-71.55 139.95,-76.41"/>
<polygon fill="midnightblue" stroke="midnightblue" points="84.64,-56.97 74.06,-57.59 82.72,-63.7 84.64,-56.97"/>
</g>
<!-- Node2 -->
<g id="node3" class="node">
<title>Node2</title>
<g id="a_node3"><a xlink:href="da/d41/classCODEExporterC.html" target="_top" xlink:title=" ">
<polygon fill="white" stroke="black" points="131.5,-38.5 131.5,-57.5 217.5,-57.5 217.5,-38.5 131.5,-38.5"/>
<text text-anchor="middle" x="174.5" y="-45.5" font-family="FreeSans" font-size="10.00">CODEExporterC</text>
</a>
</g>
</g>
<!-- Node0&#45;&gt;Node2 -->
<g id="edge2" class="edge">
<title>Node0&#45;&gt;Node2</title>
<path fill="none" stroke="midnightblue" d="M89.52,-48C103.18,-48 117.9,-48 131.14,-48"/>
<polygon fill="midnightblue" stroke="midnightblue" points="89.33,-44.5 79.33,-48 89.33,-51.5 89.33,-44.5"/>
</g>
<!-- Node3 -->
<g id="node4" class="node">
<title>Node3</title>
<g id="a_node4"><a xlink:href="dc/d4e/classCODEExporterXPPAUT.html" target="_top" xlink:title=" ">
<polygon fill="white" stroke="black" points="115,-0.5 115,-19.5 234,-19.5 234,-0.5 115,-0.5"/>
<text text-anchor="middle" x="174.5" y="-7.5" font-family="FreeSans" font-size="10.00">CODEExporterXPPAUT</text>
</a>
</g>
</g>
<!-- Node0&#45;&gt;Node3 -->
<g id="edge3" class="edge">
<title>Node0&#45;&gt;Node3</title>
<path fill="none" stroke="midnightblue" d="M83.87,-35.61C102.08,-30.41 122.94,-24.45 139.95,-19.59"/>
<polygon fill="midnightblue" stroke="midnightblue" points="82.72,-32.3 74.06,-38.41 84.64,-39.03 82.72,-32.3"/>
</g>
</g>
</svg>
