<?xml version="1.0" encoding="UTF-8" standalone="no"?>
<!DOCTYPE svg PUBLIC "-//W3C//DTD SVG 1.1//EN"
 "http://www.w3.org/Graphics/SVG/1.1/DTD/svg11.dtd">
<!-- Generated by graphviz version 2.43.0 (0)
 -->
<!-- Title: CEvaluationLexer Pages: 1 -->
<svg width="204pt" height="84pt"
 viewBox="0.00 0.00 204.00 84.00" xmlns="http://www.w3.org/2000/svg" xmlns:xlink="http://www.w3.org/1999/xlink">
<g id="graph0" class="graph" transform="scale(1 1) rotate(0) translate(4 80)">
<title>CEvaluationLexer</title>
<polygon fill="white" stroke="transparent" points="-4,4 -4,-80 200,-80 200,4 -4,4"/>
<!-- Node1 -->
<g id="node1" class="node">
<title>Node1</title>
<g id="a_node1"><a xlink:title=" ">
<polygon fill="#bfbfbf" stroke="black" points="36.5,-0.5 36.5,-19.5 128.5,-19.5 128.5,-0.5 36.5,-0.5"/>
<text text-anchor="middle" x="82.5" y="-7.5" font-family="FreeSans" font-size="10.00">CEvaluationLexer</text>
</a>
</g>
</g>
<!-- Node2 -->
<g id="node2" class="node">
<title>Node2</title>
<g id="a_node2"><a xlink:href="../../dc/d78/classFlexLexer.html" target="_top" xlink:title=" ">
<polygon fill="white" stroke="black" points="0,-56.5 0,-75.5 59,-75.5 59,-56.5 0,-56.5"/>
<text text-anchor="middle" x="29.5" y="-63.5" font-family="FreeSans" font-size="10.00">FlexLexer</text>
</a>
</g>
</g>
<!-- Node2&#45;&gt;Node1 -->
<g id="edge1" class="edge">
<title>Node2&#45;&gt;Node1</title>
<path fill="none" stroke="midnightblue" d="M45.48,-48.72C54.82,-39.2 66.25,-27.56 73.91,-19.75"/>
<polygon fill="midnightblue" stroke="midnightblue" points="42.76,-46.49 38.25,-56.08 47.75,-51.4 42.76,-46.49"/>
</g>
<!-- Node3 -->
<g id="node3" class="node">
<title>Node3</title>
<g id="a_node3"><a xlink:href="../../d9/db1/classCEvaluationParserBase.html" target="_top" xlink:title=" ">
<polygon fill="white" stroke="black" points="77,-56.5 77,-75.5 196,-75.5 196,-56.5 77,-56.5"/>
<text text-anchor="middle" x="136.5" y="-63.5" font-family="FreeSans" font-size="10.00">CEvaluationParserBase</text>
</a>
</g>
</g>
<!-- Node3&#45;&gt;Node1 -->
<g id="edge2" class="edge">
<title>Node3&#45;&gt;Node1</title>
<path fill="none" stroke="midnightblue" d="M120.5,-49C110.93,-39.43 99.14,-27.64 91.25,-19.75"/>
<polygon fill="midnightblue" stroke="midnightblue" points="118.04,-51.49 127.58,-56.08 122.99,-46.54 118.04,-51.49"/>
</g>
</g>
</svg>
