<?xml version="1.0" encoding="UTF-8" standalone="no"?>
<!DOCTYPE svg PUBLIC "-//W3C//DTD SVG 1.1//EN"
 "http://www.w3.org/Graphics/SVG/1.1/DTD/svg11.dtd">
<!-- Generated by graphviz version 2.43.0 (0)
 -->
<!-- Title: CLRenderCurve Pages: 1 -->
<svg width="361pt" height="252pt"
 viewBox="0.00 0.00 361.00 252.00" xmlns="http://www.w3.org/2000/svg" xmlns:xlink="http://www.w3.org/1999/xlink">
<g id="graph0" class="graph" transform="scale(1 1) rotate(0) translate(4 248)">
<title>CLRenderCurve</title>
<polygon fill="white" stroke="transparent" points="-4,4 -4,-248 357,-248 357,4 -4,4"/>
<!-- Node1 -->
<g id="node1" class="node">
<title>Node1</title>
<g id="a_node1"><a xlink:title=" ">
<polygon fill="#bfbfbf" stroke="black" points="74.5,-0.5 74.5,-19.5 160.5,-19.5 160.5,-0.5 74.5,-0.5"/>
<text text-anchor="middle" x="117.5" y="-7.5" font-family="FreeSans" font-size="10.00">CLRenderCurve</text>
</a>
</g>
</g>
<!-- Node2 -->
<g id="node2" class="node">
<title>Node2</title>
<g id="a_node2"><a xlink:href="../../de/db3/classCLGraphicalPrimitive1D.html" target="_top" xlink:title=" ">
<polygon fill="white" stroke="black" points="0,-56.5 0,-75.5 121,-75.5 121,-56.5 0,-56.5"/>
<text text-anchor="middle" x="60.5" y="-63.5" font-family="FreeSans" font-size="10.00">CLGraphicalPrimitive1D</text>
</a>
</g>
</g>
<!-- Node2&#45;&gt;Node1 -->
<g id="edge1" class="edge">
<title>Node2&#45;&gt;Node1</title>
<path fill="none" stroke="midnightblue" d="M77.12,-49.25C87.23,-39.67 99.78,-27.79 108.18,-19.83"/>
<polygon fill="midnightblue" stroke="midnightblue" points="74.51,-46.91 69.66,-56.32 79.32,-51.99 74.51,-46.91"/>
</g>
<!-- Node3 -->
<g id="node3" class="node">
<title>Node3</title>
<g id="a_node3"><a xlink:href="../../d4/d0b/classCLTransformation2D.html" target="_top" xlink:title=" ">
<polygon fill="white" stroke="black" points="6,-112.5 6,-131.5 113,-131.5 113,-112.5 6,-112.5"/>
<text text-anchor="middle" x="59.5" y="-119.5" font-family="FreeSans" font-size="10.00">CLTransformation2D</text>
</a>
</g>
</g>
<!-- Node3&#45;&gt;Node2 -->
<g id="edge2" class="edge">
<title>Node3&#45;&gt;Node2</title>
<path fill="none" stroke="midnightblue" d="M59.86,-101.8C60.02,-92.91 60.21,-82.78 60.34,-75.75"/>
<polygon fill="midnightblue" stroke="midnightblue" points="56.35,-102.02 59.67,-112.08 63.35,-102.15 56.35,-102.02"/>
</g>
<!-- Node4 -->
<g id="node4" class="node">
<title>Node4</title>
<g id="a_node4"><a xlink:href="../../dd/d1f/classCLTransformation.html" target="_top" xlink:title=" ">
<polygon fill="white" stroke="black" points="12,-168.5 12,-187.5 107,-187.5 107,-168.5 12,-168.5"/>
<text text-anchor="middle" x="59.5" y="-175.5" font-family="FreeSans" font-size="10.00">CLTransformation</text>
</a>
</g>
</g>
<!-- Node4&#45;&gt;Node3 -->
<g id="edge3" class="edge">
<title>Node4&#45;&gt;Node3</title>
<path fill="none" stroke="midnightblue" d="M59.5,-157.8C59.5,-148.91 59.5,-138.78 59.5,-131.75"/>
<polygon fill="midnightblue" stroke="midnightblue" points="56,-158.08 59.5,-168.08 63,-158.08 56,-158.08"/>
</g>
<!-- Node5 -->
<g id="node5" class="node">
<title>Node5</title>
<g id="a_node5"><a xlink:href="../../d7/df9/classCLBase.html" target="_top" xlink:title=" ">
<polygon fill="white" stroke="black" points="33.5,-224.5 33.5,-243.5 85.5,-243.5 85.5,-224.5 33.5,-224.5"/>
<text text-anchor="middle" x="59.5" y="-231.5" font-family="FreeSans" font-size="10.00">CLBase</text>
</a>
</g>
</g>
<!-- Node5&#45;&gt;Node4 -->
<g id="edge4" class="edge">
<title>Node5&#45;&gt;Node4</title>
<path fill="none" stroke="midnightblue" d="M59.5,-213.8C59.5,-204.91 59.5,-194.78 59.5,-187.75"/>
<polygon fill="midnightblue" stroke="midnightblue" points="56,-214.08 59.5,-224.08 63,-214.08 56,-214.08"/>
</g>
<!-- Node6 -->
<g id="node6" class="node">
<title>Node6</title>
<g id="a_node6"><a xlink:href="../../d1/d6b/classCDataObject.html" target="_top" xlink:title=" ">
<polygon fill="white" stroke="black" points="140.5,-56.5 140.5,-75.5 212.5,-75.5 212.5,-56.5 140.5,-56.5"/>
<text text-anchor="middle" x="176.5" y="-63.5" font-family="FreeSans" font-size="10.00">CDataObject</text>
</a>
</g>
</g>
<!-- Node6&#45;&gt;Node1 -->
<g id="edge5" class="edge">
<title>Node6&#45;&gt;Node1</title>
<path fill="none" stroke="midnightblue" d="M159.61,-49.54C149.09,-39.91 135.93,-27.87 127.15,-19.83"/>
<polygon fill="midnightblue" stroke="midnightblue" points="157.28,-52.15 167.02,-56.32 162.01,-46.99 157.28,-52.15"/>
</g>
<!-- Node7 -->
<g id="node7" class="node">
<title>Node7</title>
<g id="a_node7"><a xlink:href="../../df/dfa/classCObjectInterface.html" target="_top" xlink:title=" ">
<polygon fill="white" stroke="black" points="131.5,-112.5 131.5,-131.5 221.5,-131.5 221.5,-112.5 131.5,-112.5"/>
<text text-anchor="middle" x="176.5" y="-119.5" font-family="FreeSans" font-size="10.00">CObjectInterface</text>
</a>
</g>
</g>
<!-- Node7&#45;&gt;Node6 -->
<g id="edge6" class="edge">
<title>Node7&#45;&gt;Node6</title>
<path fill="none" stroke="midnightblue" d="M176.5,-101.8C176.5,-92.91 176.5,-82.78 176.5,-75.75"/>
<polygon fill="midnightblue" stroke="midnightblue" points="173,-102.08 176.5,-112.08 180,-102.08 173,-102.08"/>
</g>
<!-- Node8 -->
<g id="node8" class="node">
<title>Node8</title>
<g id="a_node8"><a xlink:href="../../d8/d53/classCUndoObjectInterface.html" target="_top" xlink:title=" ">
<polygon fill="white" stroke="black" points="240,-112.5 240,-131.5 353,-131.5 353,-112.5 240,-112.5"/>
<text text-anchor="middle" x="296.5" y="-119.5" font-family="FreeSans" font-size="10.00">CUndoObjectInterface</text>
</a>
</g>
</g>
<!-- Node8&#45;&gt;Node6 -->
<g id="edge7" class="edge">
<title>Node8&#45;&gt;Node6</title>
<path fill="none" stroke="midnightblue" d="M268.13,-108.23C245.68,-98.13 214.96,-84.31 195.43,-75.52"/>
<polygon fill="midnightblue" stroke="midnightblue" points="266.93,-111.53 277.49,-112.44 269.8,-105.15 266.93,-111.53"/>
</g>
</g>
</svg>
