<?xml version="1.0" encoding="UTF-8" standalone="no"?>
<!DOCTYPE svg PUBLIC "-//W3C//DTD SVG 1.1//EN"
 "http://www.w3.org/Graphics/SVG/1.1/DTD/svg11.dtd">
<!-- Generated by graphviz version 2.43.0 (0)
 -->
<!-- Title: CLColorDefinition Pages: 1 -->
<svg width="231pt" height="140pt"
 viewBox="0.00 0.00 230.50 140.00" xmlns="http://www.w3.org/2000/svg" xmlns:xlink="http://www.w3.org/1999/xlink">
<g id="graph0" class="graph" transform="scale(1 1) rotate(0) translate(4 136)">
<title>CLColorDefinition</title>
<polygon fill="white" stroke="transparent" points="-4,4 -4,-136 226.5,-136 226.5,4 -4,4"/>
<!-- Node1 -->
<g id="node1" class="node">
<title>Node1</title>
<g id="a_node1"><a xlink:title=" ">
<polygon fill="#bfbfbf" stroke="black" points="20,-0.5 20,-19.5 112,-19.5 112,-0.5 20,-0.5"/>
<text text-anchor="middle" x="66" y="-7.5" font-family="FreeSans" font-size="10.00">CLColorDefinition</text>
</a>
</g>
</g>
<!-- Node2 -->
<g id="node2" class="node">
<title>Node2</title>
<g id="a_node2"><a xlink:href="../../d7/df9/classCLBase.html" target="_top" xlink:title=" ">
<polygon fill="white" stroke="black" points="0,-56.5 0,-75.5 52,-75.5 52,-56.5 0,-56.5"/>
<text text-anchor="middle" x="26" y="-63.5" font-family="FreeSans" font-size="10.00">CLBase</text>
</a>
</g>
</g>
<!-- Node2&#45;&gt;Node1 -->
<g id="edge1" class="edge">
<title>Node2&#45;&gt;Node1</title>
<path fill="none" stroke="midnightblue" d="M38.7,-47.86C45.63,-38.5 53.91,-27.33 59.52,-19.75"/>
<polygon fill="midnightblue" stroke="midnightblue" points="35.75,-45.96 32.61,-56.08 41.37,-50.13 35.75,-45.96"/>
</g>
<!-- Node3 -->
<g id="node3" class="node">
<title>Node3</title>
<g id="a_node3"><a xlink:href="../../d1/d6b/classCDataObject.html" target="_top" xlink:title=" ">
<polygon fill="white" stroke="black" points="70,-56.5 70,-75.5 142,-75.5 142,-56.5 70,-56.5"/>
<text text-anchor="middle" x="106" y="-63.5" font-family="FreeSans" font-size="10.00">CDataObject</text>
</a>
</g>
</g>
<!-- Node3&#45;&gt;Node1 -->
<g id="edge2" class="edge">
<title>Node3&#45;&gt;Node1</title>
<path fill="none" stroke="midnightblue" d="M93.3,-47.86C86.37,-38.5 78.09,-27.33 72.48,-19.75"/>
<polygon fill="midnightblue" stroke="midnightblue" points="90.63,-50.13 99.39,-56.08 96.25,-45.96 90.63,-50.13"/>
</g>
<!-- Node4 -->
<g id="node4" class="node">
<title>Node4</title>
<g id="a_node4"><a xlink:href="../../df/dfa/classCObjectInterface.html" target="_top" xlink:title=" ">
<polygon fill="white" stroke="black" points="1,-112.5 1,-131.5 91,-131.5 91,-112.5 1,-112.5"/>
<text text-anchor="middle" x="46" y="-119.5" font-family="FreeSans" font-size="10.00">CObjectInterface</text>
</a>
</g>
</g>
<!-- Node4&#45;&gt;Node3 -->
<g id="edge3" class="edge">
<title>Node4&#45;&gt;Node3</title>
<path fill="none" stroke="midnightblue" d="M63.18,-105.54C73.88,-95.91 87.26,-83.87 96.18,-75.83"/>
<polygon fill="midnightblue" stroke="midnightblue" points="60.73,-103.03 55.64,-112.32 65.41,-108.24 60.73,-103.03"/>
</g>
<!-- Node5 -->
<g id="node5" class="node">
<title>Node5</title>
<g id="a_node5"><a xlink:href="../../d8/d53/classCUndoObjectInterface.html" target="_top" xlink:title=" ">
<polygon fill="white" stroke="black" points="109.5,-112.5 109.5,-131.5 222.5,-131.5 222.5,-112.5 109.5,-112.5"/>
<text text-anchor="middle" x="166" y="-119.5" font-family="FreeSans" font-size="10.00">CUndoObjectInterface</text>
</a>
</g>
</g>
<!-- Node5&#45;&gt;Node3 -->
<g id="edge4" class="edge">
<title>Node5&#45;&gt;Node3</title>
<path fill="none" stroke="midnightblue" d="M148.82,-105.54C138.12,-95.91 124.74,-83.87 115.82,-75.83"/>
<polygon fill="midnightblue" stroke="midnightblue" points="146.59,-108.24 156.36,-112.32 151.27,-103.03 146.59,-108.24"/>
</g>
</g>
</svg>
