<?xml version="1.0" encoding="UTF-8" standalone="no"?>
<!DOCTYPE svg PUBLIC "-//W3C//DTD SVG 1.1//EN"
 "http://www.w3.org/Graphics/SVG/1.1/DTD/svg11.dtd">
<!-- Generated by graphviz version 2.43.0 (0)
 -->
<!-- Title: CLGraphicalPrimitive1D Pages: 1 -->
<svg width="428pt" height="308pt"
 viewBox="0.00 0.00 428.00 308.00" xmlns="http://www.w3.org/2000/svg" xmlns:xlink="http://www.w3.org/1999/xlink">
<g id="graph0" class="graph" transform="scale(1 1) rotate(0) translate(4 304)">
<title>CLGraphicalPrimitive1D</title>
<polygon fill="white" stroke="transparent" points="-4,4 -4,-304 424,-304 424,4 -4,4"/>
<!-- Node1 -->
<g id="node1" class="node">
<title>Node1</title>
<g id="a_node1"><a xlink:title=" ">
<polygon fill="#bfbfbf" stroke="black" points="250.5,-112.5 250.5,-131.5 371.5,-131.5 371.5,-112.5 250.5,-112.5"/>
<text text-anchor="middle" x="311" y="-119.5" font-family="FreeSans" font-size="10.00">CLGraphicalPrimitive1D</text>
</a>
</g>
</g>
<!-- Node5 -->
<g id="node5" class="node">
<title>Node5</title>
<g id="a_node5"><a xlink:href="../../dc/d2d/classCLGraphicalPrimitive2D.html" target="_top" xlink:title=" ">
<polygon fill="white" stroke="black" points="128.5,-56.5 128.5,-75.5 249.5,-75.5 249.5,-56.5 128.5,-56.5"/>
<text text-anchor="middle" x="189" y="-63.5" font-family="FreeSans" font-size="10.00">CLGraphicalPrimitive2D</text>
</a>
</g>
</g>
<!-- Node1&#45;&gt;Node5 -->
<g id="edge4" class="edge">
<title>Node1&#45;&gt;Node5</title>
<path fill="none" stroke="midnightblue" d="M282.46,-108.37C259.61,-98.26 228.19,-84.35 208.24,-75.52"/>
<polygon fill="midnightblue" stroke="midnightblue" points="281.11,-111.6 291.67,-112.44 283.94,-105.2 281.11,-111.6"/>
</g>
<!-- Node11 -->
<g id="node11" class="node">
<title>Node11</title>
<g id="a_node11"><a xlink:href="../../d6/d2b/classCLRenderCurve.html" target="_top" xlink:title=" ">
<polygon fill="white" stroke="black" points="268,-56.5 268,-75.5 354,-75.5 354,-56.5 268,-56.5"/>
<text text-anchor="middle" x="311" y="-63.5" font-family="FreeSans" font-size="10.00">CLRenderCurve</text>
</a>
</g>
</g>
<!-- Node1&#45;&gt;Node11 -->
<g id="edge10" class="edge">
<title>Node1&#45;&gt;Node11</title>
<path fill="none" stroke="midnightblue" d="M311,-101.8C311,-92.91 311,-82.78 311,-75.75"/>
<polygon fill="midnightblue" stroke="midnightblue" points="307.5,-102.08 311,-112.08 314.5,-102.08 307.5,-102.08"/>
</g>
<!-- Node12 -->
<g id="node12" class="node">
<title>Node12</title>
<g id="a_node12"><a xlink:href="../../d1/dd9/classCLText.html" target="_top" xlink:title=" ">
<polygon fill="white" stroke="black" points="372,-56.5 372,-75.5 420,-75.5 420,-56.5 372,-56.5"/>
<text text-anchor="middle" x="396" y="-63.5" font-family="FreeSans" font-size="10.00">CLText</text>
</a>
</g>
</g>
<!-- Node1&#45;&gt;Node12 -->
<g id="edge11" class="edge">
<title>Node1&#45;&gt;Node12</title>
<path fill="none" stroke="midnightblue" d="M333.19,-106.9C348.78,-97 369.13,-84.07 382.38,-75.65"/>
<polygon fill="midnightblue" stroke="midnightblue" points="331.22,-104.01 324.66,-112.32 334.97,-109.92 331.22,-104.01"/>
</g>
<!-- Node2 -->
<g id="node2" class="node">
<title>Node2</title>
<g id="a_node2"><a xlink:href="../../d4/d0b/classCLTransformation2D.html" target="_top" xlink:title=" ">
<polygon fill="white" stroke="black" points="257.5,-168.5 257.5,-187.5 364.5,-187.5 364.5,-168.5 257.5,-168.5"/>
<text text-anchor="middle" x="311" y="-175.5" font-family="FreeSans" font-size="10.00">CLTransformation2D</text>
</a>
</g>
</g>
<!-- Node2&#45;&gt;Node1 -->
<g id="edge1" class="edge">
<title>Node2&#45;&gt;Node1</title>
<path fill="none" stroke="midnightblue" d="M311,-157.8C311,-148.91 311,-138.78 311,-131.75"/>
<polygon fill="midnightblue" stroke="midnightblue" points="307.5,-158.08 311,-168.08 314.5,-158.08 307.5,-158.08"/>
</g>
<!-- Node3 -->
<g id="node3" class="node">
<title>Node3</title>
<g id="a_node3"><a xlink:href="../../dd/d1f/classCLTransformation.html" target="_top" xlink:title=" ">
<polygon fill="white" stroke="black" points="263.5,-224.5 263.5,-243.5 358.5,-243.5 358.5,-224.5 263.5,-224.5"/>
<text text-anchor="middle" x="311" y="-231.5" font-family="FreeSans" font-size="10.00">CLTransformation</text>
</a>
</g>
</g>
<!-- Node3&#45;&gt;Node2 -->
<g id="edge2" class="edge">
<title>Node3&#45;&gt;Node2</title>
<path fill="none" stroke="midnightblue" d="M311,-213.8C311,-204.91 311,-194.78 311,-187.75"/>
<polygon fill="midnightblue" stroke="midnightblue" points="307.5,-214.08 311,-224.08 314.5,-214.08 307.5,-214.08"/>
</g>
<!-- Node4 -->
<g id="node4" class="node">
<title>Node4</title>
<g id="a_node4"><a xlink:href="../../d7/df9/classCLBase.html" target="_top" xlink:title=" ">
<polygon fill="white" stroke="black" points="285,-280.5 285,-299.5 337,-299.5 337,-280.5 285,-280.5"/>
<text text-anchor="middle" x="311" y="-287.5" font-family="FreeSans" font-size="10.00">CLBase</text>
</a>
</g>
</g>
<!-- Node4&#45;&gt;Node3 -->
<g id="edge3" class="edge">
<title>Node4&#45;&gt;Node3</title>
<path fill="none" stroke="midnightblue" d="M311,-269.8C311,-260.91 311,-250.78 311,-243.75"/>
<polygon fill="midnightblue" stroke="midnightblue" points="307.5,-270.08 311,-280.08 314.5,-270.08 307.5,-270.08"/>
</g>
<!-- Node6 -->
<g id="node6" class="node">
<title>Node6</title>
<g id="a_node6"><a xlink:href="../../d2/d64/classCLEllipse.html" target="_top" xlink:title=" ">
<polygon fill="white" stroke="black" points="0,-0.5 0,-19.5 58,-19.5 58,-0.5 0,-0.5"/>
<text text-anchor="middle" x="29" y="-7.5" font-family="FreeSans" font-size="10.00">CLEllipse</text>
</a>
</g>
</g>
<!-- Node5&#45;&gt;Node6 -->
<g id="edge5" class="edge">
<title>Node5&#45;&gt;Node6</title>
<path fill="none" stroke="midnightblue" d="M153.95,-53.17C123.83,-43 81.1,-28.59 54.23,-19.52"/>
<polygon fill="midnightblue" stroke="midnightblue" points="153.05,-56.56 163.65,-56.44 155.29,-49.93 153.05,-56.56"/>
</g>
<!-- Node7 -->
<g id="node7" class="node">
<title>Node7</title>
<g id="a_node7"><a xlink:href="../../dd/da5/classCLGroup.html" target="_top" xlink:title=" ">
<polygon fill="white" stroke="black" points="76,-0.5 76,-19.5 132,-19.5 132,-0.5 76,-0.5"/>
<text text-anchor="middle" x="104" y="-7.5" font-family="FreeSans" font-size="10.00">CLGroup</text>
</a>
</g>
</g>
<!-- Node5&#45;&gt;Node7 -->
<g id="edge6" class="edge">
<title>Node5&#45;&gt;Node7</title>
<path fill="none" stroke="midnightblue" d="M166.81,-50.9C151.22,-41 130.87,-28.07 117.62,-19.65"/>
<polygon fill="midnightblue" stroke="midnightblue" points="165.03,-53.92 175.34,-56.32 168.78,-48.01 165.03,-53.92"/>
</g>
<!-- Node8 -->
<g id="node8" class="node">
<title>Node8</title>
<g id="a_node8"><a xlink:href="../../d2/d49/classCLLineEnding.html" target="_top" xlink:title=" ">
<polygon fill="white" stroke="black" points="150.5,-0.5 150.5,-19.5 227.5,-19.5 227.5,-0.5 150.5,-0.5"/>
<text text-anchor="middle" x="189" y="-7.5" font-family="FreeSans" font-size="10.00">CLLineEnding</text>
</a>
</g>
</g>
<!-- Node5&#45;&gt;Node8 -->
<g id="edge7" class="edge">
<title>Node5&#45;&gt;Node8</title>
<path fill="none" stroke="midnightblue" d="M189,-45.8C189,-36.91 189,-26.78 189,-19.75"/>
<polygon fill="midnightblue" stroke="midnightblue" points="185.5,-46.08 189,-56.08 192.5,-46.08 185.5,-46.08"/>
</g>
<!-- Node9 -->
<g id="node9" class="node">
<title>Node9</title>
<g id="a_node9"><a xlink:href="../../d9/dc2/classCLPolygon.html" target="_top" xlink:title=" ">
<polygon fill="white" stroke="black" points="246,-0.5 246,-19.5 310,-19.5 310,-0.5 246,-0.5"/>
<text text-anchor="middle" x="278" y="-7.5" font-family="FreeSans" font-size="10.00">CLPolygon</text>
</a>
</g>
</g>
<!-- Node5&#45;&gt;Node9 -->
<g id="edge8" class="edge">
<title>Node5&#45;&gt;Node9</title>
<path fill="none" stroke="midnightblue" d="M212.24,-50.9C228.56,-41 249.87,-28.07 263.74,-19.65"/>
<polygon fill="midnightblue" stroke="midnightblue" points="210.03,-48.14 203.3,-56.32 213.66,-54.13 210.03,-48.14"/>
</g>
<!-- Node10 -->
<g id="node10" class="node">
<title>Node10</title>
<g id="a_node10"><a xlink:href="../../da/d69/classCLRectangle.html" target="_top" xlink:title=" ">
<polygon fill="white" stroke="black" points="328.5,-0.5 328.5,-19.5 401.5,-19.5 401.5,-0.5 328.5,-0.5"/>
<text text-anchor="middle" x="365" y="-7.5" font-family="FreeSans" font-size="10.00">CLRectangle</text>
</a>
</g>
</g>
<!-- Node5&#45;&gt;Node10 -->
<g id="edge9" class="edge">
<title>Node5&#45;&gt;Node10</title>
<path fill="none" stroke="midnightblue" d="M226.69,-53.44C259.87,-43.26 307.43,-28.66 337.24,-19.52"/>
<polygon fill="midnightblue" stroke="midnightblue" points="225.42,-50.16 216.89,-56.44 227.47,-56.86 225.42,-50.16"/>
</g>
</g>
</svg>
