<?xml version="1.0" encoding="UTF-8" standalone="no"?>
<!DOCTYPE svg PUBLIC "-//W3C//DTD SVG 1.1//EN"
 "http://www.w3.org/Graphics/SVG/1.1/DTD/svg11.dtd">
<!-- Generated by graphviz version 2.43.0 (0)
 -->
<!-- Title: CReportDefinitionVector Pages: 1 -->
<svg width="297pt" height="380pt"
 viewBox="0.00 0.00 297.00 380.00" xmlns="http://www.w3.org/2000/svg" xmlns:xlink="http://www.w3.org/1999/xlink">
<g id="graph0" class="graph" transform="scale(1 1) rotate(0) translate(4 376)">
<title>CReportDefinitionVector</title>
<polygon fill="white" stroke="transparent" points="-4,4 -4,-376 293,-376 293,4 -4,4"/>
<!-- Node1 -->
<g id="node1" class="node">
<title>Node1</title>
<g id="a_node1"><a xlink:title=" ">
<polygon fill="#bfbfbf" stroke="black" points="25.5,-0.5 25.5,-19.5 145.5,-19.5 145.5,-0.5 25.5,-0.5"/>
<text text-anchor="middle" x="85.5" y="-7.5" font-family="FreeSans" font-size="10.00">CReportDefinitionVector</text>
</a>
</g>
</g>
<!-- Node2 -->
<g id="node2" class="node">
<title>Node2</title>
<g id="a_node2"><a xlink:href="../../dd/d24/classCDataVectorN.html" target="_top" xlink:title=" ">
<polygon fill="white" stroke="black" points="0,-57.5 0,-76.5 171,-76.5 171,-57.5 0,-57.5"/>
<text text-anchor="middle" x="85.5" y="-64.5" font-family="FreeSans" font-size="10.00">CDataVectorN&lt; CReportDefinition &gt;</text>
</a>
</g>
</g>
<!-- Node2&#45;&gt;Node1 -->
<g id="edge1" class="edge">
<title>Node2&#45;&gt;Node1</title>
<path fill="none" stroke="midnightblue" d="M85.5,-47.12C85.5,-37.82 85.5,-27.06 85.5,-19.71"/>
<polygon fill="midnightblue" stroke="midnightblue" points="82,-47.41 85.5,-57.41 89,-47.41 82,-47.41"/>
</g>
<!-- Node3 -->
<g id="node3" class="node">
<title>Node3</title>
<g id="a_node3"><a xlink:href="../../db/d30/classCDataVector.html" target="_top" xlink:title=" ">
<polygon fill="white" stroke="black" points="23.5,-181.5 23.5,-200.5 139.5,-200.5 139.5,-181.5 23.5,-181.5"/>
<text text-anchor="middle" x="81.5" y="-188.5" font-family="FreeSans" font-size="10.00">CDataVector&lt; CType &gt;</text>
</a>
</g>
</g>
<!-- Node3&#45;&gt;Node2 -->
<g id="edge2" class="edge">
<title>Node3&#45;&gt;Node2</title>
<path fill="none" stroke="midnightblue" d="M82.12,-171.19C83,-144.4 84.57,-96.31 85.21,-76.69"/>
<polygon fill="midnightblue" stroke="midnightblue" points="78.62,-171.12 81.79,-181.23 85.61,-171.35 78.62,-171.12"/>
</g>
<!-- Node9 -->
<g id="node9" class="node">
<title>Node9</title>
<g id="a_node9"><a xlink:href="../../dd/d24/classCDataVectorN.html" target="_top" xlink:title=" ">
<polygon fill="white" stroke="black" points="97.5,-124.5 97.5,-143.5 221.5,-143.5 221.5,-124.5 97.5,-124.5"/>
<text text-anchor="middle" x="159.5" y="-131.5" font-family="FreeSans" font-size="10.00">CDataVectorN&lt; CType &gt;</text>
</a>
</g>
</g>
<!-- Node3&#45;&gt;Node9 -->
<g id="edge9" class="edge">
<title>Node3&#45;&gt;Node9</title>
<path fill="none" stroke="midnightblue" d="M102.01,-175.54C116.45,-165.35 135.29,-152.07 147.4,-143.53"/>
<polygon fill="midnightblue" stroke="midnightblue" points="99.84,-172.78 93.69,-181.41 103.88,-178.5 99.84,-172.78"/>
</g>
<!-- Node4 -->
<g id="node4" class="node">
<title>Node4</title>
<g id="a_node4"><a xlink:title=" ">
<polygon fill="white" stroke="#bfbfbf" points="27.5,-238.5 27.5,-257.5 111.5,-257.5 111.5,-238.5 27.5,-238.5"/>
<text text-anchor="middle" x="69.5" y="-245.5" font-family="FreeSans" font-size="10.00">std::vector&lt; T &gt;</text>
</a>
</g>
</g>
<!-- Node4&#45;&gt;Node3 -->
<g id="edge3" class="edge">
<title>Node4&#45;&gt;Node3</title>
<path fill="none" stroke="darkgreen" d="M73.55,-228.42C75.6,-219.05 77.98,-208.14 79.6,-200.71"/>
<polygon fill="darkgreen" stroke="darkgreen" points="70.09,-227.89 71.38,-238.41 76.93,-229.38 70.09,-227.89"/>
</g>
<!-- Node5 -->
<g id="node5" class="node">
<title>Node5</title>
<g id="a_node5"><a xlink:href="../../d3/db9/classCDataContainer.html" target="_top" xlink:title=" ">
<polygon fill="white" stroke="black" points="130,-238.5 130,-257.5 215,-257.5 215,-238.5 130,-238.5"/>
<text text-anchor="middle" x="172.5" y="-245.5" font-family="FreeSans" font-size="10.00">CDataContainer</text>
</a>
</g>
</g>
<!-- Node5&#45;&gt;Node3 -->
<g id="edge4" class="edge">
<title>Node5&#45;&gt;Node3</title>
<path fill="none" stroke="midnightblue" d="M149.52,-233.11C132.55,-222.86 110.01,-209.23 95.62,-200.53"/>
<polygon fill="midnightblue" stroke="midnightblue" points="147.91,-236.23 158.28,-238.41 151.53,-230.24 147.91,-236.23"/>
</g>
<!-- Node6 -->
<g id="node6" class="node">
<title>Node6</title>
<g id="a_node6"><a xlink:href="../../d1/d6b/classCDataObject.html" target="_top" xlink:title=" ">
<polygon fill="white" stroke="black" points="136.5,-295.5 136.5,-314.5 208.5,-314.5 208.5,-295.5 136.5,-295.5"/>
<text text-anchor="middle" x="172.5" y="-302.5" font-family="FreeSans" font-size="10.00">CDataObject</text>
</a>
</g>
</g>
<!-- Node6&#45;&gt;Node5 -->
<g id="edge5" class="edge">
<title>Node6&#45;&gt;Node5</title>
<path fill="none" stroke="midnightblue" d="M172.5,-285.12C172.5,-275.82 172.5,-265.06 172.5,-257.71"/>
<polygon fill="midnightblue" stroke="midnightblue" points="169,-285.41 172.5,-295.41 176,-285.41 169,-285.41"/>
</g>
<!-- Node7 -->
<g id="node7" class="node">
<title>Node7</title>
<g id="a_node7"><a xlink:href="../../df/dfa/classCObjectInterface.html" target="_top" xlink:title=" ">
<polygon fill="white" stroke="black" points="67.5,-352.5 67.5,-371.5 157.5,-371.5 157.5,-352.5 67.5,-352.5"/>
<text text-anchor="middle" x="112.5" y="-359.5" font-family="FreeSans" font-size="10.00">CObjectInterface</text>
</a>
</g>
</g>
<!-- Node7&#45;&gt;Node6 -->
<g id="edge6" class="edge">
<title>Node7&#45;&gt;Node6</title>
<path fill="none" stroke="midnightblue" d="M129.5,-345.42C140.35,-335.47 154.02,-322.94 162.99,-314.71"/>
<polygon fill="midnightblue" stroke="midnightblue" points="126.88,-343.07 121.88,-352.41 131.61,-348.23 126.88,-343.07"/>
</g>
<!-- Node8 -->
<g id="node8" class="node">
<title>Node8</title>
<g id="a_node8"><a xlink:href="../../d8/d53/classCUndoObjectInterface.html" target="_top" xlink:title=" ">
<polygon fill="white" stroke="black" points="176,-352.5 176,-371.5 289,-371.5 289,-352.5 176,-352.5"/>
<text text-anchor="middle" x="232.5" y="-359.5" font-family="FreeSans" font-size="10.00">CUndoObjectInterface</text>
</a>
</g>
</g>
<!-- Node8&#45;&gt;Node6 -->
<g id="edge7" class="edge">
<title>Node8&#45;&gt;Node6</title>
<path fill="none" stroke="midnightblue" d="M215.5,-345.42C204.65,-335.47 190.98,-322.94 182.01,-314.71"/>
<polygon fill="midnightblue" stroke="midnightblue" points="213.39,-348.23 223.12,-352.41 218.12,-343.07 213.39,-348.23"/>
</g>
<!-- Node9&#45;&gt;Node2 -->
<g id="edge8" class="edge">
<title>Node9&#45;&gt;Node2</title>
<path fill="none" stroke="orange" stroke-dasharray="5,2" d="M141.69,-117.36C127.14,-104.58 107.12,-86.99 95.32,-76.63"/>
<polygon fill="orange" stroke="orange" points="139.7,-120.26 149.52,-124.23 144.32,-115 139.7,-120.26"/>
<text text-anchor="middle" x="174.5" y="-98" font-family="FreeSans" font-size="10.00"> &lt; CReportDefinition &gt;</text>
</g>
</g>
</svg>
