<?xml version="1.0" encoding="UTF-8" standalone="no"?>
<!DOCTYPE svg PUBLIC "-//W3C//DTD SVG 1.1//EN"
 "http://www.w3.org/Graphics/SVG/1.1/DTD/svg11.dtd">
<!-- Generated by graphviz version 2.43.0 (0)
 -->
<!-- Title: CLStyle Pages: 1 -->
<svg width="255pt" height="252pt"
 viewBox="0.00 0.00 255.00 252.00" xmlns="http://www.w3.org/2000/svg" xmlns:xlink="http://www.w3.org/1999/xlink">
<g id="graph0" class="graph" transform="scale(1 1) rotate(0) translate(4 248)">
<title>CLStyle</title>
<polygon fill="white" stroke="transparent" points="-4,4 -4,-248 251,-248 251,4 -4,4"/>
<!-- Node1 -->
<g id="node1" class="node">
<title>Node1</title>
<g id="a_node1"><a xlink:title=" ">
<polygon fill="#bfbfbf" stroke="black" points="61,-56.5 61,-75.5 112,-75.5 112,-56.5 61,-56.5"/>
<text text-anchor="middle" x="86.5" y="-63.5" font-family="FreeSans" font-size="10.00">CLStyle</text>
</a>
</g>
</g>
<!-- Node7 -->
<g id="node7" class="node">
<title>Node7</title>
<g id="a_node7"><a xlink:href="../../d0/dff/classCLGlobalStyle.html" target="_top" xlink:title=" ">
<polygon fill="white" stroke="black" points="0,-0.5 0,-19.5 79,-19.5 79,-0.5 0,-0.5"/>
<text text-anchor="middle" x="39.5" y="-7.5" font-family="FreeSans" font-size="10.00">CLGlobalStyle</text>
</a>
</g>
</g>
<!-- Node1&#45;&gt;Node7 -->
<g id="edge6" class="edge">
<title>Node1&#45;&gt;Node7</title>
<path fill="none" stroke="midnightblue" d="M72.08,-48.43C63.84,-38.97 53.85,-27.48 47.12,-19.75"/>
<polygon fill="midnightblue" stroke="midnightblue" points="69.53,-50.84 78.74,-56.08 74.81,-46.24 69.53,-50.84"/>
</g>
<!-- Node8 -->
<g id="node8" class="node">
<title>Node8</title>
<g id="a_node8"><a xlink:href="../../d5/d62/classCLLocalStyle.html" target="_top" xlink:title=" ">
<polygon fill="white" stroke="black" points="97,-0.5 97,-19.5 172,-19.5 172,-0.5 97,-0.5"/>
<text text-anchor="middle" x="134.5" y="-7.5" font-family="FreeSans" font-size="10.00">CLLocalStyle</text>
</a>
</g>
</g>
<!-- Node1&#45;&gt;Node8 -->
<g id="edge7" class="edge">
<title>Node1&#45;&gt;Node8</title>
<path fill="none" stroke="midnightblue" d="M101.23,-48.43C109.64,-38.97 119.85,-27.48 126.72,-19.75"/>
<polygon fill="midnightblue" stroke="midnightblue" points="98.45,-46.28 94.43,-56.08 103.69,-50.93 98.45,-46.28"/>
</g>
<!-- Node2 -->
<g id="node2" class="node">
<title>Node2</title>
<g id="a_node2"><a xlink:href="../../d7/df9/classCLBase.html" target="_top" xlink:title=" ">
<polygon fill="white" stroke="black" points="17.5,-112.5 17.5,-131.5 69.5,-131.5 69.5,-112.5 17.5,-112.5"/>
<text text-anchor="middle" x="43.5" y="-119.5" font-family="FreeSans" font-size="10.00">CLBase</text>
</a>
</g>
</g>
<!-- Node2&#45;&gt;Node1 -->
<g id="edge1" class="edge">
<title>Node2&#45;&gt;Node1</title>
<path fill="none" stroke="midnightblue" d="M56.92,-104.14C64.41,-94.74 73.44,-83.4 79.53,-75.75"/>
<polygon fill="midnightblue" stroke="midnightblue" points="54.09,-102.08 50.6,-112.08 59.57,-106.44 54.09,-102.08"/>
</g>
<!-- Node3 -->
<g id="node3" class="node">
<title>Node3</title>
<g id="a_node3"><a xlink:href="../../d3/db9/classCDataContainer.html" target="_top" xlink:title=" ">
<polygon fill="white" stroke="black" points="88,-112.5 88,-131.5 173,-131.5 173,-112.5 88,-112.5"/>
<text text-anchor="middle" x="130.5" y="-119.5" font-family="FreeSans" font-size="10.00">CDataContainer</text>
</a>
</g>
</g>
<!-- Node3&#45;&gt;Node1 -->
<g id="edge2" class="edge">
<title>Node3&#45;&gt;Node1</title>
<path fill="none" stroke="midnightblue" d="M116.77,-104.14C109.1,-94.74 99.87,-83.4 93.63,-75.75"/>
<polygon fill="midnightblue" stroke="midnightblue" points="114.2,-106.54 123.23,-112.08 119.63,-102.12 114.2,-106.54"/>
</g>
<!-- Node4 -->
<g id="node4" class="node">
<title>Node4</title>
<g id="a_node4"><a xlink:href="../../d1/d6b/classCDataObject.html" target="_top" xlink:title=" ">
<polygon fill="white" stroke="black" points="94.5,-168.5 94.5,-187.5 166.5,-187.5 166.5,-168.5 94.5,-168.5"/>
<text text-anchor="middle" x="130.5" y="-175.5" font-family="FreeSans" font-size="10.00">CDataObject</text>
</a>
</g>
</g>
<!-- Node4&#45;&gt;Node3 -->
<g id="edge3" class="edge">
<title>Node4&#45;&gt;Node3</title>
<path fill="none" stroke="midnightblue" d="M130.5,-157.8C130.5,-148.91 130.5,-138.78 130.5,-131.75"/>
<polygon fill="midnightblue" stroke="midnightblue" points="127,-158.08 130.5,-168.08 134,-158.08 127,-158.08"/>
</g>
<!-- Node5 -->
<g id="node5" class="node">
<title>Node5</title>
<g id="a_node5"><a xlink:href="../../df/dfa/classCObjectInterface.html" target="_top" xlink:title=" ">
<polygon fill="white" stroke="black" points="25.5,-224.5 25.5,-243.5 115.5,-243.5 115.5,-224.5 25.5,-224.5"/>
<text text-anchor="middle" x="70.5" y="-231.5" font-family="FreeSans" font-size="10.00">CObjectInterface</text>
</a>
</g>
</g>
<!-- Node5&#45;&gt;Node4 -->
<g id="edge4" class="edge">
<title>Node5&#45;&gt;Node4</title>
<path fill="none" stroke="midnightblue" d="M87.68,-217.54C98.38,-207.91 111.76,-195.87 120.68,-187.83"/>
<polygon fill="midnightblue" stroke="midnightblue" points="85.23,-215.03 80.14,-224.32 89.91,-220.24 85.23,-215.03"/>
</g>
<!-- Node6 -->
<g id="node6" class="node">
<title>Node6</title>
<g id="a_node6"><a xlink:href="../../d8/d53/classCUndoObjectInterface.html" target="_top" xlink:title=" ">
<polygon fill="white" stroke="black" points="134,-224.5 134,-243.5 247,-243.5 247,-224.5 134,-224.5"/>
<text text-anchor="middle" x="190.5" y="-231.5" font-family="FreeSans" font-size="10.00">CUndoObjectInterface</text>
</a>
</g>
</g>
<!-- Node6&#45;&gt;Node4 -->
<g id="edge5" class="edge">
<title>Node6&#45;&gt;Node4</title>
<path fill="none" stroke="midnightblue" d="M173.32,-217.54C162.62,-207.91 149.24,-195.87 140.32,-187.83"/>
<polygon fill="midnightblue" stroke="midnightblue" points="171.09,-220.24 180.86,-224.32 175.77,-215.03 171.09,-220.24"/>
</g>
</g>
</svg>
