<?xml version="1.0" encoding="UTF-8" standalone="no"?>
<!DOCTYPE svg PUBLIC "-//W3C//DTD SVG 1.1//EN"
 "http://www.w3.org/Graphics/SVG/1.1/DTD/svg11.dtd">
<!-- Generated by graphviz version 2.43.0 (0)
 -->
<!-- Title: CLGraphicalPrimitive2D Pages: 1 -->
<svg width="410pt" height="308pt"
 viewBox="0.00 0.00 409.50 308.00" xmlns="http://www.w3.org/2000/svg" xmlns:xlink="http://www.w3.org/1999/xlink">
<g id="graph0" class="graph" transform="scale(1 1) rotate(0) translate(4 304)">
<title>CLGraphicalPrimitive2D</title>
<polygon fill="white" stroke="transparent" points="-4,4 -4,-304 405.5,-304 405.5,4 -4,4"/>
<!-- Node1 -->
<g id="node1" class="node">
<title>Node1</title>
<g id="a_node1"><a xlink:title=" ">
<polygon fill="#bfbfbf" stroke="black" points="128.5,-56.5 128.5,-75.5 249.5,-75.5 249.5,-56.5 128.5,-56.5"/>
<text text-anchor="middle" x="189" y="-63.5" font-family="FreeSans" font-size="10.00">CLGraphicalPrimitive2D</text>
</a>
</g>
</g>
<!-- Node6 -->
<g id="node6" class="node">
<title>Node6</title>
<g id="a_node6"><a xlink:href="../../d2/d64/classCLEllipse.html" target="_top" xlink:title=" ">
<polygon fill="white" stroke="black" points="0,-0.5 0,-19.5 58,-19.5 58,-0.5 0,-0.5"/>
<text text-anchor="middle" x="29" y="-7.5" font-family="FreeSans" font-size="10.00">CLEllipse</text>
</a>
</g>
</g>
<!-- Node1&#45;&gt;Node6 -->
<g id="edge5" class="edge">
<title>Node1&#45;&gt;Node6</title>
<path fill="none" stroke="midnightblue" d="M153.95,-53.17C123.83,-43 81.1,-28.59 54.23,-19.52"/>
<polygon fill="midnightblue" stroke="midnightblue" points="153.05,-56.56 163.65,-56.44 155.29,-49.93 153.05,-56.56"/>
</g>
<!-- Node7 -->
<g id="node7" class="node">
<title>Node7</title>
<g id="a_node7"><a xlink:href="../../dd/da5/classCLGroup.html" target="_top" xlink:title=" ">
<polygon fill="white" stroke="black" points="76,-0.5 76,-19.5 132,-19.5 132,-0.5 76,-0.5"/>
<text text-anchor="middle" x="104" y="-7.5" font-family="FreeSans" font-size="10.00">CLGroup</text>
</a>
</g>
</g>
<!-- Node1&#45;&gt;Node7 -->
<g id="edge6" class="edge">
<title>Node1&#45;&gt;Node7</title>
<path fill="none" stroke="midnightblue" d="M166.81,-50.9C151.22,-41 130.87,-28.07 117.62,-19.65"/>
<polygon fill="midnightblue" stroke="midnightblue" points="165.03,-53.92 175.34,-56.32 168.78,-48.01 165.03,-53.92"/>
</g>
<!-- Node8 -->
<g id="node8" class="node">
<title>Node8</title>
<g id="a_node8"><a xlink:href="../../d2/d49/classCLLineEnding.html" target="_top" xlink:title=" ">
<polygon fill="white" stroke="black" points="150.5,-0.5 150.5,-19.5 227.5,-19.5 227.5,-0.5 150.5,-0.5"/>
<text text-anchor="middle" x="189" y="-7.5" font-family="FreeSans" font-size="10.00">CLLineEnding</text>
</a>
</g>
</g>
<!-- Node1&#45;&gt;Node8 -->
<g id="edge7" class="edge">
<title>Node1&#45;&gt;Node8</title>
<path fill="none" stroke="midnightblue" d="M189,-45.8C189,-36.91 189,-26.78 189,-19.75"/>
<polygon fill="midnightblue" stroke="midnightblue" points="185.5,-46.08 189,-56.08 192.5,-46.08 185.5,-46.08"/>
</g>
<!-- Node9 -->
<g id="node9" class="node">
<title>Node9</title>
<g id="a_node9"><a xlink:href="../../d9/dc2/classCLPolygon.html" target="_top" xlink:title=" ">
<polygon fill="white" stroke="black" points="246,-0.5 246,-19.5 310,-19.5 310,-0.5 246,-0.5"/>
<text text-anchor="middle" x="278" y="-7.5" font-family="FreeSans" font-size="10.00">CLPolygon</text>
</a>
</g>
</g>
<!-- Node1&#45;&gt;Node9 -->
<g id="edge8" class="edge">
<title>Node1&#45;&gt;Node9</title>
<path fill="none" stroke="midnightblue" d="M212.24,-50.9C228.56,-41 249.87,-28.07 263.74,-19.65"/>
<polygon fill="midnightblue" stroke="midnightblue" points="210.03,-48.14 203.3,-56.32 213.66,-54.13 210.03,-48.14"/>
</g>
<!-- Node10 -->
<g id="node10" class="node">
<title>Node10</title>
<g id="a_node10"><a xlink:href="../../da/d69/classCLRectangle.html" target="_top" xlink:title=" ">
<polygon fill="white" stroke="black" points="328.5,-0.5 328.5,-19.5 401.5,-19.5 401.5,-0.5 328.5,-0.5"/>
<text text-anchor="middle" x="365" y="-7.5" font-family="FreeSans" font-size="10.00">CLRectangle</text>
</a>
</g>
</g>
<!-- Node1&#45;&gt;Node10 -->
<g id="edge9" class="edge">
<title>Node1&#45;&gt;Node10</title>
<path fill="none" stroke="midnightblue" d="M226.69,-53.44C259.87,-43.26 307.43,-28.66 337.24,-19.52"/>
<polygon fill="midnightblue" stroke="midnightblue" points="225.42,-50.16 216.89,-56.44 227.47,-56.86 225.42,-50.16"/>
</g>
<!-- Node2 -->
<g id="node2" class="node">
<title>Node2</title>
<g id="a_node2"><a xlink:href="../../de/db3/classCLGraphicalPrimitive1D.html" target="_top" xlink:title=" ">
<polygon fill="white" stroke="black" points="128.5,-112.5 128.5,-131.5 249.5,-131.5 249.5,-112.5 128.5,-112.5"/>
<text text-anchor="middle" x="189" y="-119.5" font-family="FreeSans" font-size="10.00">CLGraphicalPrimitive1D</text>
</a>
</g>
</g>
<!-- Node2&#45;&gt;Node1 -->
<g id="edge1" class="edge">
<title>Node2&#45;&gt;Node1</title>
<path fill="none" stroke="midnightblue" d="M189,-101.8C189,-92.91 189,-82.78 189,-75.75"/>
<polygon fill="midnightblue" stroke="midnightblue" points="185.5,-102.08 189,-112.08 192.5,-102.08 185.5,-102.08"/>
</g>
<!-- Node3 -->
<g id="node3" class="node">
<title>Node3</title>
<g id="a_node3"><a xlink:href="../../d4/d0b/classCLTransformation2D.html" target="_top" xlink:title=" ">
<polygon fill="white" stroke="black" points="135.5,-168.5 135.5,-187.5 242.5,-187.5 242.5,-168.5 135.5,-168.5"/>
<text text-anchor="middle" x="189" y="-175.5" font-family="FreeSans" font-size="10.00">CLTransformation2D</text>
</a>
</g>
</g>
<!-- Node3&#45;&gt;Node2 -->
<g id="edge2" class="edge">
<title>Node3&#45;&gt;Node2</title>
<path fill="none" stroke="midnightblue" d="M189,-157.8C189,-148.91 189,-138.78 189,-131.75"/>
<polygon fill="midnightblue" stroke="midnightblue" points="185.5,-158.08 189,-168.08 192.5,-158.08 185.5,-158.08"/>
</g>
<!-- Node4 -->
<g id="node4" class="node">
<title>Node4</title>
<g id="a_node4"><a xlink:href="../../dd/d1f/classCLTransformation.html" target="_top" xlink:title=" ">
<polygon fill="white" stroke="black" points="141.5,-224.5 141.5,-243.5 236.5,-243.5 236.5,-224.5 141.5,-224.5"/>
<text text-anchor="middle" x="189" y="-231.5" font-family="FreeSans" font-size="10.00">CLTransformation</text>
</a>
</g>
</g>
<!-- Node4&#45;&gt;Node3 -->
<g id="edge3" class="edge">
<title>Node4&#45;&gt;Node3</title>
<path fill="none" stroke="midnightblue" d="M189,-213.8C189,-204.91 189,-194.78 189,-187.75"/>
<polygon fill="midnightblue" stroke="midnightblue" points="185.5,-214.08 189,-224.08 192.5,-214.08 185.5,-214.08"/>
</g>
<!-- Node5 -->
<g id="node5" class="node">
<title>Node5</title>
<g id="a_node5"><a xlink:href="../../d7/df9/classCLBase.html" target="_top" xlink:title=" ">
<polygon fill="white" stroke="black" points="163,-280.5 163,-299.5 215,-299.5 215,-280.5 163,-280.5"/>
<text text-anchor="middle" x="189" y="-287.5" font-family="FreeSans" font-size="10.00">CLBase</text>
</a>
</g>
</g>
<!-- Node5&#45;&gt;Node4 -->
<g id="edge4" class="edge">
<title>Node5&#45;&gt;Node4</title>
<path fill="none" stroke="midnightblue" d="M189,-269.8C189,-260.91 189,-250.78 189,-243.75"/>
<polygon fill="midnightblue" stroke="midnightblue" points="185.5,-270.08 189,-280.08 192.5,-270.08 185.5,-270.08"/>
</g>
</g>
</svg>
