<?xml version="1.0" encoding="UTF-8" standalone="no"?>
<!DOCTYPE svg PUBLIC "-//W3C//DTD SVG 1.1//EN"
 "http://www.w3.org/Graphics/SVG/1.1/DTD/svg11.dtd">
<!-- Generated by graphviz version 2.43.0 (0)
 -->
<!-- Title: CMathUpdateSequence Pages: 1 -->
<svg width="214pt" height="209pt"
 viewBox="0.00 0.00 214.00 209.00" xmlns="http://www.w3.org/2000/svg" xmlns:xlink="http://www.w3.org/1999/xlink">
<g id="graph0" class="graph" transform="scale(1 1) rotate(0) translate(4 205)">
<title>CMathUpdateSequence</title>
<polygon fill="white" stroke="transparent" points="-4,4 -4,-205 210,-205 210,4 -4,4"/>
<!-- Node1 -->
<g id="node1" class="node">
<title>Node1</title>
<g id="a_node1"><a xlink:title=" ">
<polygon fill="#bfbfbf" stroke="black" points="14,-0.5 14,-19.5 134,-19.5 134,-0.5 14,-0.5"/>
<text text-anchor="middle" x="74" y="-7.5" font-family="FreeSans" font-size="10.00">CMathUpdateSequence</text>
</a>
</g>
</g>
<!-- Node2 -->
<g id="node2" class="node">
<title>Node2</title>
<g id="a_node2"><a xlink:href="../../dd/de4/classCVector.html" target="_top" xlink:title=" ">
<polygon fill="white" stroke="black" points="0,-57.5 0,-76.5 148,-76.5 148,-57.5 0,-57.5"/>
<text text-anchor="middle" x="74" y="-64.5" font-family="FreeSans" font-size="10.00">CVector&lt; CObjectInterface * &gt;</text>
</a>
</g>
</g>
<!-- Node2&#45;&gt;Node1 -->
<g id="edge1" class="edge">
<title>Node2&#45;&gt;Node1</title>
<path fill="none" stroke="darkgreen" d="M74,-47.12C74,-37.82 74,-27.06 74,-19.71"/>
<polygon fill="darkgreen" stroke="darkgreen" points="70.5,-47.41 74,-57.41 77.5,-47.41 70.5,-47.41"/>
</g>
<!-- Node3 -->
<g id="node3" class="node">
<title>Node3</title>
<g id="a_node3"><a xlink:href="../../d5/d46/classCVectorCore.html" target="_top" xlink:title=" ">
<polygon fill="white" stroke="black" points="12,-181.5 12,-200.5 128,-200.5 128,-181.5 12,-181.5"/>
<text text-anchor="middle" x="70" y="-188.5" font-family="FreeSans" font-size="10.00">CVectorCore&lt; CType &gt;</text>
</a>
</g>
</g>
<!-- Node3&#45;&gt;Node2 -->
<g id="edge2" class="edge">
<title>Node3&#45;&gt;Node2</title>
<path fill="none" stroke="midnightblue" d="M70.62,-171.19C71.5,-144.4 73.07,-96.31 73.71,-76.69"/>
<polygon fill="midnightblue" stroke="midnightblue" points="67.12,-171.12 70.29,-181.23 74.11,-171.35 67.12,-171.12"/>
</g>
<!-- Node4 -->
<g id="node4" class="node">
<title>Node4</title>
<g id="a_node4"><a xlink:href="../../dd/de4/classCVector.html" target="_top" xlink:title=" ">
<polygon fill="white" stroke="black" points="86,-124.5 86,-143.5 182,-143.5 182,-124.5 86,-124.5"/>
<text text-anchor="middle" x="134" y="-131.5" font-family="FreeSans" font-size="10.00">CVector&lt; CType &gt;</text>
</a>
</g>
</g>
<!-- Node3&#45;&gt;Node4 -->
<g id="edge4" class="edge">
<title>Node3&#45;&gt;Node4</title>
<path fill="none" stroke="midnightblue" d="M87.79,-174.71C99.42,-164.72 114.19,-152.02 123.86,-143.71"/>
<polygon fill="midnightblue" stroke="midnightblue" points="85.3,-172.23 80,-181.41 89.87,-177.54 85.3,-172.23"/>
</g>
<!-- Node4&#45;&gt;Node2 -->
<g id="edge3" class="edge">
<title>Node4&#45;&gt;Node2</title>
<path fill="none" stroke="orange" stroke-dasharray="5,2" d="M118.89,-116.63C107.16,-103.92 91.35,-86.8 81.96,-76.63"/>
<polygon fill="orange" stroke="orange" points="116.55,-119.26 125.91,-124.23 121.7,-114.51 116.55,-119.26"/>
<text text-anchor="middle" x="156.5" y="-98" font-family="FreeSans" font-size="10.00"> &lt; CObjectInterface * &gt;</text>
</g>
</g>
</svg>
