<?xml version="1.0" encoding="UTF-8" standalone="no"?>
<!DOCTYPE svg PUBLIC "-//W3C//DTD SVG 1.1//EN"
 "http://www.w3.org/Graphics/SVG/1.1/DTD/svg11.dtd">
<!-- Generated by graphviz version 2.43.0 (0)
 -->
<!-- Title: CChemEqParser Pages: 1 -->
<svg width="196pt" height="84pt"
 viewBox="0.00 0.00 196.00 84.00" xmlns="http://www.w3.org/2000/svg" xmlns:xlink="http://www.w3.org/1999/xlink">
<g id="graph0" class="graph" transform="scale(1 1) rotate(0) translate(4 80)">
<title>CChemEqParser</title>
<polygon fill="white" stroke="transparent" points="-4,4 -4,-80 192,-80 192,4 -4,4"/>
<!-- Node1 -->
<g id="node1" class="node">
<title>Node1</title>
<g id="a_node1"><a xlink:title=" ">
<polygon fill="#bfbfbf" stroke="black" points="36,-0.5 36,-19.5 125,-19.5 125,-0.5 36,-0.5"/>
<text text-anchor="middle" x="80.5" y="-7.5" font-family="FreeSans" font-size="10.00">CChemEqParser</text>
</a>
</g>
</g>
<!-- Node2 -->
<g id="node2" class="node">
<title>Node2</title>
<g id="a_node2"><a xlink:href="../../dc/d78/classFlexLexer.html" target="_top" xlink:title=" ">
<polygon fill="white" stroke="black" points="0,-56.5 0,-75.5 59,-75.5 59,-56.5 0,-56.5"/>
<text text-anchor="middle" x="29.5" y="-63.5" font-family="FreeSans" font-size="10.00">FlexLexer</text>
</a>
</g>
</g>
<!-- Node2&#45;&gt;Node1 -->
<g id="edge1" class="edge">
<title>Node2&#45;&gt;Node1</title>
<path fill="none" stroke="midnightblue" d="M44.88,-48.72C53.87,-39.2 64.86,-27.56 72.24,-19.75"/>
<polygon fill="midnightblue" stroke="midnightblue" points="42.24,-46.41 37.92,-56.08 47.33,-51.22 42.24,-46.41"/>
</g>
<!-- Node3 -->
<g id="node3" class="node">
<title>Node3</title>
<g id="a_node3"><a xlink:href="../../d9/d76/classCChemEqParserBase.html" target="_top" xlink:title=" ">
<polygon fill="white" stroke="black" points="77,-56.5 77,-75.5 188,-75.5 188,-56.5 77,-56.5"/>
<text text-anchor="middle" x="132.5" y="-63.5" font-family="FreeSans" font-size="10.00">CChemEqParserBase</text>
</a>
</g>
</g>
<!-- Node3&#45;&gt;Node1 -->
<g id="edge2" class="edge">
<title>Node3&#45;&gt;Node1</title>
<path fill="none" stroke="midnightblue" d="M116.82,-48.72C107.66,-39.2 96.45,-27.56 88.93,-19.75"/>
<polygon fill="midnightblue" stroke="midnightblue" points="114.46,-51.31 123.91,-56.08 119.5,-46.45 114.46,-51.31"/>
</g>
</g>
</svg>
