<?xml version="1.0" encoding="UTF-8" standalone="no"?>
<!DOCTYPE svg PUBLIC "-//W3C//DTD SVG 1.1//EN"
 "http://www.w3.org/Graphics/SVG/1.1/DTD/svg11.dtd">
<!-- Generated by graphviz version 2.43.0 (0)
 -->
<!-- Title: CRaptorInit Pages: 1 -->
<svg width="166pt" height="84pt"
 viewBox="0.00 0.00 165.50 84.00" xmlns="http://www.w3.org/2000/svg" xmlns:xlink="http://www.w3.org/1999/xlink">
<g id="graph0" class="graph" transform="scale(1 1) rotate(0) translate(4 80)">
<title>CRaptorInit</title>
<polygon fill="white" stroke="transparent" points="-4,4 -4,-80 161.5,-80 161.5,4 -4,4"/>
<!-- Node1 -->
<g id="node1" class="node">
<title>Node1</title>
<g id="a_node1"><a xlink:title=" ">
<polygon fill="#bfbfbf" stroke="black" points="47,-56.5 47,-75.5 112,-75.5 112,-56.5 47,-56.5"/>
<text text-anchor="middle" x="79.5" y="-63.5" font-family="FreeSans" font-size="10.00">CRaptorInit</text>
</a>
</g>
</g>
<!-- Node2 -->
<g id="node2" class="node">
<title>Node2</title>
<g id="a_node2"><a xlink:href="../../d7/d39/classCRDFParser.html" target="_top" xlink:title=" ">
<polygon fill="white" stroke="black" points="0,-0.5 0,-19.5 71,-19.5 71,-0.5 0,-0.5"/>
<text text-anchor="middle" x="35.5" y="-7.5" font-family="FreeSans" font-size="10.00">CRDFParser</text>
</a>
</g>
</g>
<!-- Node1&#45;&gt;Node2 -->
<g id="edge1" class="edge">
<title>Node1&#45;&gt;Node2</title>
<path fill="none" stroke="#8b1a1a" d="M65.77,-48.14C58.1,-38.74 48.87,-27.4 42.63,-19.75"/>
<polygon fill="#8b1a1a" stroke="#8b1a1a" points="63.2,-50.54 72.23,-56.08 68.63,-46.12 63.2,-50.54"/>
</g>
<!-- Node3 -->
<g id="node3" class="node">
<title>Node3</title>
<g id="a_node3"><a xlink:href="../../da/dd9/classCRDFWriter.html" target="_top" xlink:title=" ">
<polygon fill="white" stroke="black" points="89.5,-0.5 89.5,-19.5 157.5,-19.5 157.5,-0.5 89.5,-0.5"/>
<text text-anchor="middle" x="123.5" y="-7.5" font-family="FreeSans" font-size="10.00">CRDFWriter</text>
</a>
</g>
</g>
<!-- Node1&#45;&gt;Node3 -->
<g id="edge2" class="edge">
<title>Node1&#45;&gt;Node3</title>
<path fill="none" stroke="#8b1a1a" d="M93.23,-48.14C100.9,-38.74 110.13,-27.4 116.37,-19.75"/>
<polygon fill="#8b1a1a" stroke="#8b1a1a" points="90.37,-46.12 86.77,-56.08 95.8,-50.54 90.37,-46.12"/>
</g>
</g>
</svg>
