<?xml version="1.0" encoding="UTF-8" standalone="no"?>
<!DOCTYPE svg PUBLIC "-//W3C//DTD SVG 1.1//EN"
 "http://www.w3.org/Graphics/SVG/1.1/DTD/svg11.dtd">
<!-- Generated by graphviz version 2.43.0 (0)
 -->
<!-- Title: CUnitDefinitionDB Pages: 1 -->
<svg width="292pt" height="380pt"
 viewBox="0.00 0.00 292.00 380.00" xmlns="http://www.w3.org/2000/svg" xmlns:xlink="http://www.w3.org/1999/xlink">
<g id="graph0" class="graph" transform="scale(1 1) rotate(0) translate(4 376)">
<title>CUnitDefinitionDB</title>
<polygon fill="white" stroke="transparent" points="-4,4 -4,-376 288,-376 288,4 -4,4"/>
<!-- Node1 -->
<g id="node1" class="node">
<title>Node1</title>
<g id="a_node1"><a xlink:title=" ">
<polygon fill="#bfbfbf" stroke="black" points="33,-0.5 33,-19.5 128,-19.5 128,-0.5 33,-0.5"/>
<text text-anchor="middle" x="80.5" y="-7.5" font-family="FreeSans" font-size="10.00">CUnitDefinitionDB</text>
</a>
</g>
</g>
<!-- Node2 -->
<g id="node2" class="node">
<title>Node2</title>
<g id="a_node2"><a xlink:href="../../dd/d24/classCDataVectorN.html" target="_top" xlink:title=" ">
<polygon fill="white" stroke="black" points="0,-57.5 0,-76.5 161,-76.5 161,-57.5 0,-57.5"/>
<text text-anchor="middle" x="80.5" y="-64.5" font-family="FreeSans" font-size="10.00">CDataVectorN&lt; CUnitDefinition &gt;</text>
</a>
</g>
</g>
<!-- Node2&#45;&gt;Node1 -->
<g id="edge1" class="edge">
<title>Node2&#45;&gt;Node1</title>
<path fill="none" stroke="midnightblue" d="M80.5,-47.12C80.5,-37.82 80.5,-27.06 80.5,-19.71"/>
<polygon fill="midnightblue" stroke="midnightblue" points="77,-47.41 80.5,-57.41 84,-47.41 77,-47.41"/>
</g>
<!-- Node3 -->
<g id="node3" class="node">
<title>Node3</title>
<g id="a_node3"><a xlink:href="../../db/d30/classCDataVector.html" target="_top" xlink:title=" ">
<polygon fill="white" stroke="black" points="18.5,-181.5 18.5,-200.5 134.5,-200.5 134.5,-181.5 18.5,-181.5"/>
<text text-anchor="middle" x="76.5" y="-188.5" font-family="FreeSans" font-size="10.00">CDataVector&lt; CType &gt;</text>
</a>
</g>
</g>
<!-- Node3&#45;&gt;Node2 -->
<g id="edge2" class="edge">
<title>Node3&#45;&gt;Node2</title>
<path fill="none" stroke="midnightblue" d="M77.12,-171.19C78,-144.4 79.57,-96.31 80.21,-76.69"/>
<polygon fill="midnightblue" stroke="midnightblue" points="73.62,-171.12 76.79,-181.23 80.61,-171.35 73.62,-171.12"/>
</g>
<!-- Node9 -->
<g id="node9" class="node">
<title>Node9</title>
<g id="a_node9"><a xlink:href="../../dd/d24/classCDataVectorN.html" target="_top" xlink:title=" ">
<polygon fill="white" stroke="black" points="92.5,-124.5 92.5,-143.5 216.5,-143.5 216.5,-124.5 92.5,-124.5"/>
<text text-anchor="middle" x="154.5" y="-131.5" font-family="FreeSans" font-size="10.00">CDataVectorN&lt; CType &gt;</text>
</a>
</g>
</g>
<!-- Node3&#45;&gt;Node9 -->
<g id="edge9" class="edge">
<title>Node3&#45;&gt;Node9</title>
<path fill="none" stroke="midnightblue" d="M97.01,-175.54C111.45,-165.35 130.29,-152.07 142.4,-143.53"/>
<polygon fill="midnightblue" stroke="midnightblue" points="94.84,-172.78 88.69,-181.41 98.88,-178.5 94.84,-172.78"/>
</g>
<!-- Node4 -->
<g id="node4" class="node">
<title>Node4</title>
<g id="a_node4"><a xlink:title=" ">
<polygon fill="white" stroke="#bfbfbf" points="22.5,-238.5 22.5,-257.5 106.5,-257.5 106.5,-238.5 22.5,-238.5"/>
<text text-anchor="middle" x="64.5" y="-245.5" font-family="FreeSans" font-size="10.00">std::vector&lt; T &gt;</text>
</a>
</g>
</g>
<!-- Node4&#45;&gt;Node3 -->
<g id="edge3" class="edge">
<title>Node4&#45;&gt;Node3</title>
<path fill="none" stroke="darkgreen" d="M68.55,-228.42C70.6,-219.05 72.98,-208.14 74.6,-200.71"/>
<polygon fill="darkgreen" stroke="darkgreen" points="65.09,-227.89 66.38,-238.41 71.93,-229.38 65.09,-227.89"/>
</g>
<!-- Node5 -->
<g id="node5" class="node">
<title>Node5</title>
<g id="a_node5"><a xlink:href="../../d3/db9/classCDataContainer.html" target="_top" xlink:title=" ">
<polygon fill="white" stroke="black" points="125,-238.5 125,-257.5 210,-257.5 210,-238.5 125,-238.5"/>
<text text-anchor="middle" x="167.5" y="-245.5" font-family="FreeSans" font-size="10.00">CDataContainer</text>
</a>
</g>
</g>
<!-- Node5&#45;&gt;Node3 -->
<g id="edge4" class="edge">
<title>Node5&#45;&gt;Node3</title>
<path fill="none" stroke="midnightblue" d="M144.52,-233.11C127.55,-222.86 105.01,-209.23 90.62,-200.53"/>
<polygon fill="midnightblue" stroke="midnightblue" points="142.91,-236.23 153.28,-238.41 146.53,-230.24 142.91,-236.23"/>
</g>
<!-- Node6 -->
<g id="node6" class="node">
<title>Node6</title>
<g id="a_node6"><a xlink:href="../../d1/d6b/classCDataObject.html" target="_top" xlink:title=" ">
<polygon fill="white" stroke="black" points="131.5,-295.5 131.5,-314.5 203.5,-314.5 203.5,-295.5 131.5,-295.5"/>
<text text-anchor="middle" x="167.5" y="-302.5" font-family="FreeSans" font-size="10.00">CDataObject</text>
</a>
</g>
</g>
<!-- Node6&#45;&gt;Node5 -->
<g id="edge5" class="edge">
<title>Node6&#45;&gt;Node5</title>
<path fill="none" stroke="midnightblue" d="M167.5,-285.12C167.5,-275.82 167.5,-265.06 167.5,-257.71"/>
<polygon fill="midnightblue" stroke="midnightblue" points="164,-285.41 167.5,-295.41 171,-285.41 164,-285.41"/>
</g>
<!-- Node7 -->
<g id="node7" class="node">
<title>Node7</title>
<g id="a_node7"><a xlink:href="../../df/dfa/classCObjectInterface.html" target="_top" xlink:title=" ">
<polygon fill="white" stroke="black" points="62.5,-352.5 62.5,-371.5 152.5,-371.5 152.5,-352.5 62.5,-352.5"/>
<text text-anchor="middle" x="107.5" y="-359.5" font-family="FreeSans" font-size="10.00">CObjectInterface</text>
</a>
</g>
</g>
<!-- Node7&#45;&gt;Node6 -->
<g id="edge6" class="edge">
<title>Node7&#45;&gt;Node6</title>
<path fill="none" stroke="midnightblue" d="M124.5,-345.42C135.35,-335.47 149.02,-322.94 157.99,-314.71"/>
<polygon fill="midnightblue" stroke="midnightblue" points="121.88,-343.07 116.88,-352.41 126.61,-348.23 121.88,-343.07"/>
</g>
<!-- Node8 -->
<g id="node8" class="node">
<title>Node8</title>
<g id="a_node8"><a xlink:href="../../d8/d53/classCUndoObjectInterface.html" target="_top" xlink:title=" ">
<polygon fill="white" stroke="black" points="171,-352.5 171,-371.5 284,-371.5 284,-352.5 171,-352.5"/>
<text text-anchor="middle" x="227.5" y="-359.5" font-family="FreeSans" font-size="10.00">CUndoObjectInterface</text>
</a>
</g>
</g>
<!-- Node8&#45;&gt;Node6 -->
<g id="edge7" class="edge">
<title>Node8&#45;&gt;Node6</title>
<path fill="none" stroke="midnightblue" d="M210.5,-345.42C199.65,-335.47 185.98,-322.94 177.01,-314.71"/>
<polygon fill="midnightblue" stroke="midnightblue" points="208.39,-348.23 218.12,-352.41 213.12,-343.07 208.39,-348.23"/>
</g>
<!-- Node9&#45;&gt;Node2 -->
<g id="edge8" class="edge">
<title>Node9&#45;&gt;Node2</title>
<path fill="none" stroke="orange" stroke-dasharray="5,2" d="M136.69,-117.36C122.14,-104.58 102.12,-86.99 90.32,-76.63"/>
<polygon fill="orange" stroke="orange" points="134.7,-120.26 144.52,-124.23 139.32,-115 134.7,-120.26"/>
<text text-anchor="middle" x="164.5" y="-98" font-family="FreeSans" font-size="10.00"> &lt; CUnitDefinition &gt;</text>
</g>
</g>
</svg>
