<?xml version="1.0" encoding="UTF-8" standalone="no"?>
<!DOCTYPE svg PUBLIC "-//W3C//DTD SVG 1.1//EN"
 "http://www.w3.org/Graphics/SVG/1.1/DTD/svg11.dtd">
<!-- Generated by graphviz version 2.43.0 (0)
 -->
<!-- Title: CMathContext Pages: 1 -->
<svg width="231pt" height="276pt"
 viewBox="0.00 0.00 230.50 276.00" xmlns="http://www.w3.org/2000/svg" xmlns:xlink="http://www.w3.org/1999/xlink">
<g id="graph0" class="graph" transform="scale(1 1) rotate(0) translate(4 272)">
<title>CMathContext</title>
<polygon fill="white" stroke="transparent" points="-4,4 -4,-272 226.5,-272 226.5,4 -4,4"/>
<!-- Node1 -->
<g id="node1" class="node">
<title>Node1</title>
<g id="a_node1"><a xlink:title=" ">
<polygon fill="#bfbfbf" stroke="black" points="47.5,-0.5 47.5,-19.5 125.5,-19.5 125.5,-0.5 47.5,-0.5"/>
<text text-anchor="middle" x="86.5" y="-7.5" font-family="FreeSans" font-size="10.00">CMathContext</text>
</a>
</g>
</g>
<!-- Node2 -->
<g id="node2" class="node">
<title>Node2</title>
<g id="a_node2"><a xlink:href="../../d4/d52/classCPointerContext.html" target="_top" xlink:title=" ">
<polygon fill="white" stroke="black" points="0,-57.5 0,-76.5 173,-76.5 173,-57.5 0,-57.5"/>
<text text-anchor="middle" x="86.5" y="-64.5" font-family="FreeSans" font-size="10.00">CPointerContext&lt; CMathContainer &gt;</text>
</a>
</g>
</g>
<!-- Node2&#45;&gt;Node1 -->
<g id="edge1" class="edge">
<title>Node2&#45;&gt;Node1</title>
<path fill="none" stroke="midnightblue" d="M86.5,-47.12C86.5,-37.82 86.5,-27.06 86.5,-19.71"/>
<polygon fill="midnightblue" stroke="midnightblue" points="83,-47.41 86.5,-57.41 90,-47.41 83,-47.41"/>
</g>
<!-- Node3 -->
<g id="node3" class="node">
<title>Node3</title>
<g id="a_node3"><a xlink:href="../../d3/d56/classCContext.html" target="_top" xlink:title=" ">
<polygon fill="white" stroke="black" points="40,-248.5 40,-267.5 133,-267.5 133,-248.5 40,-248.5"/>
<text text-anchor="middle" x="86.5" y="-255.5" font-family="FreeSans" font-size="10.00">CContext&lt; Data &gt;</text>
</a>
</g>
</g>
<!-- Node3&#45;&gt;Node2 -->
<g id="edge2" class="edge">
<title>Node3&#45;&gt;Node2</title>
<path fill="none" stroke="midnightblue" d="M86.5,-238.14C86.5,-198 86.5,-105.39 86.5,-76.66"/>
<polygon fill="midnightblue" stroke="midnightblue" points="83,-238.39 86.5,-248.39 90,-238.39 83,-238.39"/>
</g>
<!-- Node5 -->
<g id="node5" class="node">
<title>Node5</title>
<g id="a_node5"><a xlink:href="../../d3/d56/classCContext.html" target="_top" xlink:title=" ">
<polygon fill="white" stroke="black" points="105,-181.5 105,-200.5 204,-200.5 204,-181.5 105,-181.5"/>
<text text-anchor="middle" x="154.5" y="-188.5" font-family="FreeSans" font-size="10.00">CContext&lt; Data * &gt;</text>
</a>
</g>
</g>
<!-- Node3&#45;&gt;Node5 -->
<g id="edge5" class="edge">
<title>Node3&#45;&gt;Node5</title>
<path fill="none" stroke="orange" stroke-dasharray="5,2" d="M103.24,-241C116.58,-228.25 134.73,-210.89 145.47,-200.63"/>
<polygon fill="orange" stroke="orange" points="100.48,-238.79 95.67,-248.23 105.32,-243.85 100.48,-238.79"/>
<text text-anchor="middle" x="147.5" y="-222" font-family="FreeSans" font-size="10.00"> &lt; Data * &gt;</text>
</g>
<!-- Node4 -->
<g id="node4" class="node">
<title>Node4</title>
<g id="a_node4"><a xlink:href="../../d4/d52/classCPointerContext.html" target="_top" xlink:title=" ">
<polygon fill="white" stroke="black" points="98.5,-124.5 98.5,-143.5 222.5,-143.5 222.5,-124.5 98.5,-124.5"/>
<text text-anchor="middle" x="160.5" y="-131.5" font-family="FreeSans" font-size="10.00">CPointerContext&lt; Data &gt;</text>
</a>
</g>
</g>
<!-- Node4&#45;&gt;Node2 -->
<g id="edge3" class="edge">
<title>Node4&#45;&gt;Node2</title>
<path fill="none" stroke="orange" stroke-dasharray="5,2" d="M142.69,-117.36C128.14,-104.58 108.12,-86.99 96.32,-76.63"/>
<polygon fill="orange" stroke="orange" points="140.7,-120.26 150.52,-124.23 145.32,-115 140.7,-120.26"/>
<text text-anchor="middle" x="172" y="-98" font-family="FreeSans" font-size="10.00"> &lt; CMathContainer &gt;</text>
</g>
<!-- Node5&#45;&gt;Node4 -->
<g id="edge4" class="edge">
<title>Node5&#45;&gt;Node4</title>
<path fill="none" stroke="midnightblue" d="M156.53,-171.42C157.55,-162.05 158.74,-151.14 159.55,-143.71"/>
<polygon fill="midnightblue" stroke="midnightblue" points="153.04,-171.09 155.44,-181.41 160,-171.84 153.04,-171.09"/>
</g>
</g>
</svg>
