<?xml version="1.0" encoding="UTF-8" standalone="no"?>
<!DOCTYPE svg PUBLIC "-//W3C//DTD SVG 1.1//EN"
 "http://www.w3.org/Graphics/SVG/1.1/DTD/svg11.dtd">
<!-- Generated by graphviz version 2.43.0 (0)
 -->
<!-- Title: CMathHistory Pages: 1 -->
<svg width="154pt" height="209pt"
 viewBox="0.00 0.00 153.50 209.00" xmlns="http://www.w3.org/2000/svg" xmlns:xlink="http://www.w3.org/1999/xlink">
<g id="graph0" class="graph" transform="scale(1 1) rotate(0) translate(4 205)">
<title>CMathHistory</title>
<polygon fill="white" stroke="transparent" points="-4,4 -4,-205 149.5,-205 149.5,4 -4,4"/>
<!-- Node1 -->
<g id="node1" class="node">
<title>Node1</title>
<g id="a_node1"><a xlink:title=" ">
<polygon fill="#bfbfbf" stroke="black" points="33.5,-0.5 33.5,-19.5 109.5,-19.5 109.5,-0.5 33.5,-0.5"/>
<text text-anchor="middle" x="71.5" y="-7.5" font-family="FreeSans" font-size="10.00">CMathHistory</text>
</a>
</g>
</g>
<!-- Node2 -->
<g id="node2" class="node">
<title>Node2</title>
<g id="a_node2"><a xlink:href="../../d8/dac/classCMathHistoryCore.html" target="_top" xlink:title=" ">
<polygon fill="white" stroke="black" points="23.5,-57.5 23.5,-76.5 119.5,-76.5 119.5,-57.5 23.5,-57.5"/>
<text text-anchor="middle" x="71.5" y="-64.5" font-family="FreeSans" font-size="10.00">CMathHistoryCore</text>
</a>
</g>
</g>
<!-- Node2&#45;&gt;Node1 -->
<g id="edge1" class="edge">
<title>Node2&#45;&gt;Node1</title>
<path fill="none" stroke="midnightblue" d="M71.5,-47.12C71.5,-37.82 71.5,-27.06 71.5,-19.71"/>
<polygon fill="midnightblue" stroke="midnightblue" points="68,-47.41 71.5,-57.41 75,-47.41 68,-47.41"/>
</g>
<!-- Node3 -->
<g id="node3" class="node">
<title>Node3</title>
<g id="a_node3"><a xlink:href="../../d5/d46/classCVectorCore.html" target="_top" xlink:title=" ">
<polygon fill="white" stroke="black" points="0,-114.5 0,-133.5 143,-133.5 143,-114.5 0,-114.5"/>
<text text-anchor="middle" x="71.5" y="-121.5" font-family="FreeSans" font-size="10.00">CVectorCore&lt; C_FLOAT64 &gt;</text>
</a>
</g>
</g>
<!-- Node3&#45;&gt;Node2 -->
<g id="edge2" class="edge">
<title>Node3&#45;&gt;Node2</title>
<path fill="none" stroke="darkgreen" d="M71.5,-104.12C71.5,-94.82 71.5,-84.06 71.5,-76.71"/>
<polygon fill="darkgreen" stroke="darkgreen" points="68,-104.41 71.5,-114.41 75,-104.41 68,-104.41"/>
</g>
<!-- Node4 -->
<g id="node4" class="node">
<title>Node4</title>
<g id="a_node4"><a xlink:href="../../d5/d46/classCVectorCore.html" target="_top" xlink:title=" ">
<polygon fill="white" stroke="black" points="13.5,-181.5 13.5,-200.5 129.5,-200.5 129.5,-181.5 13.5,-181.5"/>
<text text-anchor="middle" x="71.5" y="-188.5" font-family="FreeSans" font-size="10.00">CVectorCore&lt; CType &gt;</text>
</a>
</g>
</g>
<!-- Node4&#45;&gt;Node3 -->
<g id="edge3" class="edge">
<title>Node4&#45;&gt;Node3</title>
<path fill="none" stroke="orange" stroke-dasharray="5,2" d="M71.5,-171.04C71.5,-158.67 71.5,-143.12 71.5,-133.63"/>
<polygon fill="orange" stroke="orange" points="68,-171.23 71.5,-181.23 75,-171.23 68,-171.23"/>
<text text-anchor="middle" x="108.5" y="-155" font-family="FreeSans" font-size="10.00"> &lt; C_FLOAT64 &gt;</text>
</g>
</g>
</svg>
