<?xml version="1.0" encoding="UTF-8" standalone="no"?>
<!DOCTYPE svg PUBLIC "-//W3C//DTD SVG 1.1//EN"
 "http://www.w3.org/Graphics/SVG/1.1/DTD/svg11.dtd">
<!-- Generated by graphviz version 2.43.0 (0)
 -->
<!-- Title: CLinkMatrix Pages: 1 -->
<svg width="143pt" height="152pt"
 viewBox="0.00 0.00 142.50 152.00" xmlns="http://www.w3.org/2000/svg" xmlns:xlink="http://www.w3.org/1999/xlink">
<g id="graph0" class="graph" transform="scale(1 1) rotate(0) translate(4 148)">
<title>CLinkMatrix</title>
<polygon fill="white" stroke="transparent" points="-4,4 -4,-148 138.5,-148 138.5,4 -4,4"/>
<!-- Node1 -->
<g id="node1" class="node">
<title>Node1</title>
<g id="a_node1"><a xlink:title=" ">
<polygon fill="#bfbfbf" stroke="black" points="26.5,-0.5 26.5,-19.5 94.5,-19.5 94.5,-0.5 26.5,-0.5"/>
<text text-anchor="middle" x="60.5" y="-7.5" font-family="FreeSans" font-size="10.00">CLinkMatrix</text>
</a>
</g>
</g>
<!-- Node2 -->
<g id="node2" class="node">
<title>Node2</title>
<g id="a_node2"><a xlink:href="../../d7/dd7/classCMatrix.html" target="_top" xlink:title=" ">
<polygon fill="white" stroke="black" points="0,-57.5 0,-76.5 121,-76.5 121,-57.5 0,-57.5"/>
<text text-anchor="middle" x="60.5" y="-64.5" font-family="FreeSans" font-size="10.00">CMatrix&lt; C_FLOAT64 &gt;</text>
</a>
</g>
</g>
<!-- Node2&#45;&gt;Node1 -->
<g id="edge1" class="edge">
<title>Node2&#45;&gt;Node1</title>
<path fill="none" stroke="midnightblue" d="M60.5,-47.12C60.5,-37.82 60.5,-27.06 60.5,-19.71"/>
<polygon fill="midnightblue" stroke="midnightblue" points="57,-47.41 60.5,-57.41 64,-47.41 57,-47.41"/>
</g>
<!-- Node3 -->
<g id="node3" class="node">
<title>Node3</title>
<g id="a_node3"><a xlink:href="../../d7/dd7/classCMatrix.html" target="_top" xlink:title=" ">
<polygon fill="white" stroke="black" points="13.5,-124.5 13.5,-143.5 107.5,-143.5 107.5,-124.5 13.5,-124.5"/>
<text text-anchor="middle" x="60.5" y="-131.5" font-family="FreeSans" font-size="10.00">CMatrix&lt; CType &gt;</text>
</a>
</g>
</g>
<!-- Node3&#45;&gt;Node2 -->
<g id="edge2" class="edge">
<title>Node3&#45;&gt;Node2</title>
<path fill="none" stroke="orange" stroke-dasharray="5,2" d="M60.5,-114.04C60.5,-101.67 60.5,-86.12 60.5,-76.63"/>
<polygon fill="orange" stroke="orange" points="57,-114.23 60.5,-124.23 64,-114.23 57,-114.23"/>
<text text-anchor="middle" x="97.5" y="-98" font-family="FreeSans" font-size="10.00"> &lt; C_FLOAT64 &gt;</text>
</g>
</g>
</svg>
