<?xml version="1.0" encoding="UTF-8" standalone="no"?>
<!DOCTYPE svg PUBLIC "-//W3C//DTD SVG 1.1//EN"
 "http://www.w3.org/Graphics/SVG/1.1/DTD/svg11.dtd">
<!-- Generated by graphviz version 2.43.0 (0)
 -->
<!-- Title: CMatrixInterface&lt; MatrixType &gt; Pages: 1 -->
<svg width="197pt" height="174pt"
 viewBox="0.00 0.00 196.50 174.00" xmlns="http://www.w3.org/2000/svg" xmlns:xlink="http://www.w3.org/1999/xlink">
<g id="graph0" class="graph" transform="scale(1 1) rotate(0) translate(4 170)">
<title>CMatrixInterface&lt; MatrixType &gt;</title>
<polygon fill="white" stroke="transparent" points="-4,4 -4,-170 192.5,-170 192.5,4 -4,4"/>
<!-- Node1 -->
<g id="node1" class="node">
<title>Node1</title>
<g id="a_node1"><a xlink:title=" ">
<polygon fill="#bfbfbf" stroke="black" points="3.5,-78.5 3.5,-108.5 125.5,-108.5 125.5,-78.5 3.5,-78.5"/>
<text text-anchor="start" x="11.5" y="-96.5" font-family="FreeSans" font-size="10.00">CMatrixInterface&lt; Matrix</text>
<text text-anchor="middle" x="64.5" y="-85.5" font-family="FreeSans" font-size="10.00">Type &gt;</text>
</a>
</g>
</g>
<!-- Node3 -->
<g id="node3" class="node">
<title>Node3</title>
<g id="a_node3"><a xlink:href="../../de/d84/classCMatrixInterface.html" target="_top" xlink:title=" ">
<polygon fill="white" stroke="black" points="0,-0.5 0,-30.5 129,-30.5 129,-0.5 0,-0.5"/>
<text text-anchor="start" x="8" y="-18.5" font-family="FreeSans" font-size="10.00">CMatrixInterface&lt; CMatrix</text>
<text text-anchor="middle" x="64.5" y="-7.5" font-family="FreeSans" font-size="10.00">&lt; C_FLOAT64 &gt; &gt;</text>
</a>
</g>
</g>
<!-- Node1&#45;&gt;Node3 -->
<g id="edge2" class="edge">
<title>Node1&#45;&gt;Node3</title>
<path fill="none" stroke="orange" stroke-dasharray="5,2" d="M64.5,-68.09C64.5,-55.76 64.5,-41.22 64.5,-30.73"/>
<polygon fill="orange" stroke="orange" points="61,-68.2 64.5,-78.2 68,-68.21 61,-68.2"/>
<text text-anchor="middle" x="126.5" y="-52" font-family="FreeSans" font-size="10.00"> &lt; CMatrix&lt; C_FLOAT64 &gt; &gt;</text>
</g>
<!-- Node2 -->
<g id="node2" class="node">
<title>Node2</title>
<g id="a_node2"><a xlink:href="../../de/d80/classCArrayInterface.html" target="_top" xlink:title=" ">
<polygon fill="white" stroke="black" points="22.5,-146.5 22.5,-165.5 106.5,-165.5 106.5,-146.5 22.5,-146.5"/>
<text text-anchor="middle" x="64.5" y="-153.5" font-family="FreeSans" font-size="10.00">CArrayInterface</text>
</a>
</g>
</g>
<!-- Node2&#45;&gt;Node1 -->
<g id="edge1" class="edge">
<title>Node2&#45;&gt;Node1</title>
<path fill="none" stroke="midnightblue" d="M64.5,-136.22C64.5,-127.36 64.5,-116.96 64.5,-108.76"/>
<polygon fill="midnightblue" stroke="midnightblue" points="61,-136.33 64.5,-146.33 68,-136.33 61,-136.33"/>
</g>
</g>
</svg>
