<?xml version="1.0" encoding="UTF-8" standalone="no"?>
<!DOCTYPE svg PUBLIC "-//W3C//DTD SVG 1.1//EN"
 "http://www.w3.org/Graphics/SVG/1.1/DTD/svg11.dtd">
<!-- Generated by graphviz version 2.43.0 (0)
 -->
<!-- Title: FlexLexer Pages: 1 -->
<svg width="382pt" height="84pt"
 viewBox="0.00 0.00 381.50 84.00" xmlns="http://www.w3.org/2000/svg" xmlns:xlink="http://www.w3.org/1999/xlink">
<g id="graph0" class="graph" transform="scale(1 1) rotate(0) translate(4 80)">
<title>FlexLexer</title>
<polygon fill="white" stroke="transparent" points="-4,4 -4,-80 377.5,-80 377.5,4 -4,4"/>
<!-- Node1 -->
<g id="node1" class="node">
<title>Node1</title>
<g id="a_node1"><a xlink:title=" ">
<polygon fill="#bfbfbf" stroke="black" points="173,-56.5 173,-75.5 232,-75.5 232,-56.5 173,-56.5"/>
<text text-anchor="middle" x="202.5" y="-63.5" font-family="FreeSans" font-size="10.00">FlexLexer</text>
</a>
</g>
</g>
<!-- Node2 -->
<g id="node2" class="node">
<title>Node2</title>
<g id="a_node2"><a xlink:href="../../d2/d4f/classCChemEqParser.html" target="_top" xlink:title=" ">
<polygon fill="white" stroke="black" points="0,-0.5 0,-19.5 89,-19.5 89,-0.5 0,-0.5"/>
<text text-anchor="middle" x="44.5" y="-7.5" font-family="FreeSans" font-size="10.00">CChemEqParser</text>
</a>
</g>
</g>
<!-- Node1&#45;&gt;Node2 -->
<g id="edge1" class="edge">
<title>Node1&#45;&gt;Node2</title>
<path fill="none" stroke="midnightblue" d="M167.89,-53.17C138.14,-43 95.95,-28.59 69.42,-19.52"/>
<polygon fill="midnightblue" stroke="midnightblue" points="166.87,-56.52 177.46,-56.44 169.13,-49.9 166.87,-56.52"/>
</g>
<!-- Node3 -->
<g id="node3" class="node">
<title>Node3</title>
<g id="a_node3"><a xlink:href="../../d6/d8a/classCEvaluationLexer.html" target="_top" xlink:title=" ">
<polygon fill="white" stroke="black" points="107.5,-0.5 107.5,-19.5 199.5,-19.5 199.5,-0.5 107.5,-0.5"/>
<text text-anchor="middle" x="153.5" y="-7.5" font-family="FreeSans" font-size="10.00">CEvaluationLexer</text>
</a>
</g>
</g>
<!-- Node1&#45;&gt;Node3 -->
<g id="edge2" class="edge">
<title>Node1&#45;&gt;Node3</title>
<path fill="none" stroke="midnightblue" d="M187.47,-48.43C178.88,-38.97 168.46,-27.48 161.44,-19.75"/>
<polygon fill="midnightblue" stroke="midnightblue" points="185.1,-51.03 194.41,-56.08 190.28,-46.33 185.1,-51.03"/>
</g>
<!-- Node4 -->
<g id="node4" class="node">
<title>Node4</title>
<g id="a_node4"><a xlink:href="../../d5/d08/classCUnitParser.html" target="_top" xlink:title=" ">
<polygon fill="white" stroke="black" points="217.5,-0.5 217.5,-19.5 287.5,-19.5 287.5,-0.5 217.5,-0.5"/>
<text text-anchor="middle" x="252.5" y="-7.5" font-family="FreeSans" font-size="10.00">CUnitParser</text>
</a>
</g>
</g>
<!-- Node1&#45;&gt;Node4 -->
<g id="edge3" class="edge">
<title>Node1&#45;&gt;Node4</title>
<path fill="none" stroke="midnightblue" d="M217.58,-48.72C226.39,-39.2 237.17,-27.56 244.4,-19.75"/>
<polygon fill="midnightblue" stroke="midnightblue" points="214.98,-46.37 210.76,-56.08 220.12,-51.12 214.98,-46.37"/>
</g>
<!-- Node5 -->
<g id="node5" class="node">
<title>Node5</title>
<g id="a_node5"><a xlink:href="../../dc/d20/classyyFlexLexer.html" target="_top" xlink:title=" ">
<polygon fill="white" stroke="black" points="305.5,-0.5 305.5,-19.5 373.5,-19.5 373.5,-0.5 305.5,-0.5"/>
<text text-anchor="middle" x="339.5" y="-7.5" font-family="FreeSans" font-size="10.00">yyFlexLexer</text>
</a>
</g>
</g>
<!-- Node1&#45;&gt;Node5 -->
<g id="edge4" class="edge">
<title>Node1&#45;&gt;Node5</title>
<path fill="none" stroke="midnightblue" d="M233.52,-52.77C259.26,-42.63 295.19,-28.47 317.89,-19.52"/>
<polygon fill="midnightblue" stroke="midnightblue" points="232.23,-49.52 224.21,-56.44 234.79,-56.03 232.23,-49.52"/>
</g>
</g>
</svg>
