<?xml version="1.0" encoding="UTF-8" standalone="no"?>
<!DOCTYPE svg PUBLIC "-//W3C//DTD SVG 1.1//EN"
 "http://www.w3.org/Graphics/SVG/1.1/DTD/svg11.dtd">
<!-- Generated by graphviz version 2.43.0 (0)
 -->
<!-- Title: CEvaluationNodeUnit Pages: 1 -->
<svg width="143pt" height="209pt"
 viewBox="0.00 0.00 143.00 209.00" xmlns="http://www.w3.org/2000/svg" xmlns:xlink="http://www.w3.org/1999/xlink">
<g id="graph0" class="graph" transform="scale(1 1) rotate(0) translate(4 205)">
<title>CEvaluationNodeUnit</title>
<polygon fill="white" stroke="transparent" points="-4,4 -4,-205 139,-205 139,4 -4,4"/>
<!-- Node1 -->
<g id="node1" class="node">
<title>Node1</title>
<g id="a_node1"><a xlink:title=" ">
<polygon fill="#bfbfbf" stroke="black" points="12.5,-0.5 12.5,-19.5 122.5,-19.5 122.5,-0.5 12.5,-0.5"/>
<text text-anchor="middle" x="67.5" y="-7.5" font-family="FreeSans" font-size="10.00">CEvaluationNodeUnit</text>
</a>
</g>
</g>
<!-- Node2 -->
<g id="node2" class="node">
<title>Node2</title>
<g id="a_node2"><a xlink:href="../../d8/d9f/classCEvaluationNode.html" target="_top" xlink:title=" ">
<polygon fill="white" stroke="black" points="21.5,-57.5 21.5,-76.5 113.5,-76.5 113.5,-57.5 21.5,-57.5"/>
<text text-anchor="middle" x="67.5" y="-64.5" font-family="FreeSans" font-size="10.00">CEvaluationNode</text>
</a>
</g>
</g>
<!-- Node2&#45;&gt;Node1 -->
<g id="edge1" class="edge">
<title>Node2&#45;&gt;Node1</title>
<path fill="none" stroke="midnightblue" d="M67.5,-47.12C67.5,-37.82 67.5,-27.06 67.5,-19.71"/>
<polygon fill="midnightblue" stroke="midnightblue" points="64,-47.41 67.5,-57.41 71,-47.41 64,-47.41"/>
</g>
<!-- Node3 -->
<g id="node3" class="node">
<title>Node3</title>
<g id="a_node3"><a xlink:href="../../d9/d9d/classCCopasiNode.html" target="_top" xlink:title=" ">
<polygon fill="white" stroke="black" points="0,-114.5 0,-133.5 135,-133.5 135,-114.5 0,-114.5"/>
<text text-anchor="middle" x="67.5" y="-121.5" font-family="FreeSans" font-size="10.00">CCopasiNode&lt; std::string &gt;</text>
</a>
</g>
</g>
<!-- Node3&#45;&gt;Node2 -->
<g id="edge2" class="edge">
<title>Node3&#45;&gt;Node2</title>
<path fill="none" stroke="midnightblue" d="M67.5,-104.12C67.5,-94.82 67.5,-84.06 67.5,-76.71"/>
<polygon fill="midnightblue" stroke="midnightblue" points="64,-104.41 67.5,-114.41 71,-104.41 64,-104.41"/>
</g>
<!-- Node4 -->
<g id="node4" class="node">
<title>Node4</title>
<g id="a_node4"><a xlink:href="../../d9/d9d/classCCopasiNode.html" target="_top" xlink:title=" ">
<polygon fill="white" stroke="black" points="8,-181.5 8,-200.5 127,-200.5 127,-181.5 8,-181.5"/>
<text text-anchor="middle" x="67.5" y="-188.5" font-family="FreeSans" font-size="10.00">CCopasiNode&lt; _Data &gt;</text>
</a>
</g>
</g>
<!-- Node4&#45;&gt;Node3 -->
<g id="edge3" class="edge">
<title>Node4&#45;&gt;Node3</title>
<path fill="none" stroke="orange" stroke-dasharray="5,2" d="M67.5,-171.04C67.5,-158.67 67.5,-143.12 67.5,-133.63"/>
<polygon fill="orange" stroke="orange" points="64,-171.23 67.5,-181.23 71,-171.23 64,-171.23"/>
<text text-anchor="middle" x="98" y="-155" font-family="FreeSans" font-size="10.00"> &lt; std::string &gt;</text>
</g>
</g>
</svg>
