<?xml version="1.0" encoding="UTF-8" standalone="no"?>
<!DOCTYPE svg PUBLIC "-//W3C//DTD SVG 1.1//EN"
 "http://www.w3.org/Graphics/SVG/1.1/DTD/svg11.dtd">
<!-- Generated by graphviz version 2.43.0 (0)
 -->
<!-- Title: CTotalNumberReference Pages: 1 -->
<svg width="245pt" height="288pt"
 viewBox="0.00 0.00 245.00 288.00" xmlns="http://www.w3.org/2000/svg" xmlns:xlink="http://www.w3.org/1999/xlink">
<g id="graph0" class="graph" transform="scale(1 1) rotate(0) translate(4 284)">
<title>CTotalNumberReference</title>
<polygon fill="white" stroke="transparent" points="-4,4 -4,-284 241,-284 241,4 -4,4"/>
<!-- Node1 -->
<g id="node1" class="node">
<title>Node1</title>
<g id="a_node1"><a xlink:title=" ">
<polygon fill="#bfbfbf" stroke="black" points="47,-0.5 47,-19.5 171,-19.5 171,-0.5 47,-0.5"/>
<text text-anchor="middle" x="109" y="-7.5" font-family="FreeSans" font-size="10.00">CTotalNumberReference</text>
</a>
</g>
</g>
<!-- Node2 -->
<g id="node2" class="node">
<title>Node2</title>
<g id="a_node2"><a xlink:href="../../d5/dff/classCDataObjectReference.html" target="_top" xlink:title=" ">
<polygon fill="white" stroke="black" points="51,-57.5 51,-87.5 167,-87.5 167,-57.5 51,-57.5"/>
<text text-anchor="start" x="59" y="-75.5" font-family="FreeSans" font-size="10.00">CDataObjectReference</text>
<text text-anchor="middle" x="109" y="-64.5" font-family="FreeSans" font-size="10.00">&lt; C_FLOAT64 &gt;</text>
</a>
</g>
</g>
<!-- Node2&#45;&gt;Node1 -->
<g id="edge1" class="edge">
<title>Node2&#45;&gt;Node1</title>
<path fill="none" stroke="midnightblue" d="M109,-47.35C109,-37.51 109,-26.78 109,-19.54"/>
<polygon fill="midnightblue" stroke="midnightblue" points="105.5,-47.47 109,-57.47 112.5,-47.47 105.5,-47.47"/>
</g>
<!-- Node3 -->
<g id="node3" class="node">
<title>Node3</title>
<g id="a_node3"><a xlink:href="../../d1/d6b/classCDataObject.html" target="_top" xlink:title=" ">
<polygon fill="white" stroke="black" points="69,-203.5 69,-222.5 141,-222.5 141,-203.5 69,-203.5"/>
<text text-anchor="middle" x="105" y="-210.5" font-family="FreeSans" font-size="10.00">CDataObject</text>
</a>
</g>
</g>
<!-- Node3&#45;&gt;Node2 -->
<g id="edge2" class="edge">
<title>Node3&#45;&gt;Node2</title>
<path fill="none" stroke="midnightblue" d="M105.54,-193.25C106.35,-165.19 107.86,-112.88 108.59,-87.73"/>
<polygon fill="midnightblue" stroke="midnightblue" points="102.04,-193.24 105.25,-203.34 109.04,-193.44 102.04,-193.24"/>
</g>
<!-- Node6 -->
<g id="node6" class="node">
<title>Node6</title>
<g id="a_node6"><a xlink:href="../../d5/dff/classCDataObjectReference.html" target="_top" xlink:title=" ">
<polygon fill="white" stroke="black" points="121,-135.5 121,-165.5 237,-165.5 237,-135.5 121,-135.5"/>
<text text-anchor="start" x="129" y="-153.5" font-family="FreeSans" font-size="10.00">CDataObjectReference</text>
<text text-anchor="middle" x="179" y="-142.5" font-family="FreeSans" font-size="10.00">&lt; CType &gt;</text>
</a>
</g>
</g>
<!-- Node3&#45;&gt;Node6 -->
<g id="edge6" class="edge">
<title>Node3&#45;&gt;Node6</title>
<path fill="none" stroke="midnightblue" d="M123.47,-196.9C135.23,-187.29 150.35,-174.92 161.84,-165.53"/>
<polygon fill="midnightblue" stroke="midnightblue" points="121.13,-194.29 115.6,-203.33 125.56,-199.71 121.13,-194.29"/>
</g>
<!-- Node4 -->
<g id="node4" class="node">
<title>Node4</title>
<g id="a_node4"><a xlink:href="../../df/dfa/classCObjectInterface.html" target="_top" xlink:title=" ">
<polygon fill="white" stroke="black" points="0,-260.5 0,-279.5 90,-279.5 90,-260.5 0,-260.5"/>
<text text-anchor="middle" x="45" y="-267.5" font-family="FreeSans" font-size="10.00">CObjectInterface</text>
</a>
</g>
</g>
<!-- Node4&#45;&gt;Node3 -->
<g id="edge3" class="edge">
<title>Node4&#45;&gt;Node3</title>
<path fill="none" stroke="midnightblue" d="M62,-253.42C72.85,-243.47 86.52,-230.94 95.49,-222.71"/>
<polygon fill="midnightblue" stroke="midnightblue" points="59.38,-251.07 54.38,-260.41 64.11,-256.23 59.38,-251.07"/>
</g>
<!-- Node5 -->
<g id="node5" class="node">
<title>Node5</title>
<g id="a_node5"><a xlink:href="../../d8/d53/classCUndoObjectInterface.html" target="_top" xlink:title=" ">
<polygon fill="white" stroke="black" points="108.5,-260.5 108.5,-279.5 221.5,-279.5 221.5,-260.5 108.5,-260.5"/>
<text text-anchor="middle" x="165" y="-267.5" font-family="FreeSans" font-size="10.00">CUndoObjectInterface</text>
</a>
</g>
</g>
<!-- Node5&#45;&gt;Node3 -->
<g id="edge4" class="edge">
<title>Node5&#45;&gt;Node3</title>
<path fill="none" stroke="midnightblue" d="M148,-253.42C137.15,-243.47 123.48,-230.94 114.51,-222.71"/>
<polygon fill="midnightblue" stroke="midnightblue" points="145.89,-256.23 155.62,-260.41 150.62,-251.07 145.89,-256.23"/>
</g>
<!-- Node6&#45;&gt;Node2 -->
<g id="edge5" class="edge">
<title>Node6&#45;&gt;Node2</title>
<path fill="none" stroke="orange" stroke-dasharray="5,2" d="M158.89,-127.67C147.07,-114.83 132.46,-98.97 122.11,-87.73"/>
<polygon fill="orange" stroke="orange" points="156.48,-130.22 165.83,-135.2 161.63,-125.48 156.48,-130.22"/>
<text text-anchor="middle" x="185" y="-109" font-family="FreeSans" font-size="10.00"> &lt; C_FLOAT64 &gt;</text>
</g>
</g>
</svg>
