<?xml version="1.0" encoding="UTF-8" standalone="no"?>
<!DOCTYPE svg PUBLIC "-//W3C//DTD SVG 1.1//EN"
 "http://www.w3.org/Graphics/SVG/1.1/DTD/svg11.dtd">
<!-- Generated by graphviz version 2.43.0 (0)
 -->
<!-- Title: CHybridNextReactionLSODAMethod::LSODA Pages: 1 -->
<svg width="230pt" height="487pt"
 viewBox="0.00 0.00 229.50 487.00" xmlns="http://www.w3.org/2000/svg" xmlns:xlink="http://www.w3.org/1999/xlink">
<g id="graph0" class="graph" transform="scale(1 1) rotate(0) translate(4 483)">
<title>CHybridNextReactionLSODAMethod::LSODA</title>
<polygon fill="white" stroke="transparent" points="-4,4 -4,-483 225.5,-483 225.5,4 -4,4"/>
<!-- Node1 -->
<g id="node1" class="node">
<title>Node1</title>
<g id="a_node1"><a xlink:title=" ">
<polygon fill="#bfbfbf" stroke="black" points="17,-0.5 17,-30.5 193,-30.5 193,-0.5 17,-0.5"/>
<text text-anchor="start" x="25" y="-18.5" font-family="FreeSans" font-size="10.00">CHybridNextReactionLSODAMethod</text>
<text text-anchor="middle" x="105" y="-7.5" font-family="FreeSans" font-size="10.00">::LSODA</text>
</a>
</g>
</g>
<!-- Node2 -->
<g id="node2" class="node">
<title>Node2</title>
<g id="a_node2"><a xlink:href="../../d4/dce/classCLsodaMethod.html" target="_top" xlink:title=" ">
<polygon fill="white" stroke="black" points="63.5,-67.5 63.5,-86.5 146.5,-86.5 146.5,-67.5 63.5,-67.5"/>
<text text-anchor="middle" x="105" y="-74.5" font-family="FreeSans" font-size="10.00">CLsodaMethod</text>
</a>
</g>
</g>
<!-- Node2&#45;&gt;Node1 -->
<g id="edge1" class="edge">
<title>Node2&#45;&gt;Node1</title>
<path fill="none" stroke="midnightblue" d="M105,-57.23C105,-48.59 105,-38.5 105,-30.52"/>
<polygon fill="midnightblue" stroke="midnightblue" points="101.5,-57.48 105,-67.48 108.5,-57.48 101.5,-57.48"/>
</g>
<!-- Node3 -->
<g id="node3" class="node">
<title>Node3</title>
<g id="a_node3"><a xlink:href="../../d0/dc9/classCTrajectoryMethod.html" target="_top" xlink:title=" ">
<polygon fill="white" stroke="black" points="56,-123.5 56,-142.5 154,-142.5 154,-123.5 56,-123.5"/>
<text text-anchor="middle" x="105" y="-130.5" font-family="FreeSans" font-size="10.00">CTrajectoryMethod</text>
</a>
</g>
</g>
<!-- Node3&#45;&gt;Node2 -->
<g id="edge2" class="edge">
<title>Node3&#45;&gt;Node2</title>
<path fill="none" stroke="midnightblue" d="M105,-112.8C105,-103.91 105,-93.78 105,-86.75"/>
<polygon fill="midnightblue" stroke="midnightblue" points="101.5,-113.08 105,-123.08 108.5,-113.08 101.5,-113.08"/>
</g>
<!-- Node4 -->
<g id="node4" class="node">
<title>Node4</title>
<g id="a_node4"><a xlink:href="../../df/d49/classCCopasiMethod.html" target="_top" xlink:title=" ">
<polygon fill="white" stroke="black" points="62,-179.5 62,-198.5 148,-198.5 148,-179.5 62,-179.5"/>
<text text-anchor="middle" x="105" y="-186.5" font-family="FreeSans" font-size="10.00">CCopasiMethod</text>
</a>
</g>
</g>
<!-- Node4&#45;&gt;Node3 -->
<g id="edge3" class="edge">
<title>Node4&#45;&gt;Node3</title>
<path fill="none" stroke="midnightblue" d="M105,-168.8C105,-159.91 105,-149.78 105,-142.75"/>
<polygon fill="midnightblue" stroke="midnightblue" points="101.5,-169.08 105,-179.08 108.5,-169.08 101.5,-169.08"/>
</g>
<!-- Node5 -->
<g id="node5" class="node">
<title>Node5</title>
<g id="a_node5"><a xlink:href="../../df/d89/classCCopasiParameterGroup.html" target="_top" xlink:title=" ">
<polygon fill="white" stroke="black" points="42.5,-235.5 42.5,-254.5 167.5,-254.5 167.5,-235.5 42.5,-235.5"/>
<text text-anchor="middle" x="105" y="-242.5" font-family="FreeSans" font-size="10.00">CCopasiParameterGroup</text>
</a>
</g>
</g>
<!-- Node5&#45;&gt;Node4 -->
<g id="edge4" class="edge">
<title>Node5&#45;&gt;Node4</title>
<path fill="none" stroke="midnightblue" d="M105,-224.8C105,-215.91 105,-205.78 105,-198.75"/>
<polygon fill="midnightblue" stroke="midnightblue" points="101.5,-225.08 105,-235.08 108.5,-225.08 101.5,-225.08"/>
</g>
<!-- Node6 -->
<g id="node6" class="node">
<title>Node6</title>
<g id="a_node6"><a xlink:href="../../d5/db6/classCCopasiParameter.html" target="_top" xlink:title=" ">
<polygon fill="white" stroke="black" points="56,-291.5 56,-310.5 154,-310.5 154,-291.5 56,-291.5"/>
<text text-anchor="middle" x="105" y="-298.5" font-family="FreeSans" font-size="10.00">CCopasiParameter</text>
</a>
</g>
</g>
<!-- Node6&#45;&gt;Node5 -->
<g id="edge5" class="edge">
<title>Node6&#45;&gt;Node5</title>
<path fill="none" stroke="midnightblue" d="M105,-280.8C105,-271.91 105,-261.78 105,-254.75"/>
<polygon fill="midnightblue" stroke="midnightblue" points="101.5,-281.08 105,-291.08 108.5,-281.08 101.5,-281.08"/>
</g>
<!-- Node7 -->
<g id="node7" class="node">
<title>Node7</title>
<g id="a_node7"><a xlink:href="../../d3/db9/classCDataContainer.html" target="_top" xlink:title=" ">
<polygon fill="white" stroke="black" points="62.5,-347.5 62.5,-366.5 147.5,-366.5 147.5,-347.5 62.5,-347.5"/>
<text text-anchor="middle" x="105" y="-354.5" font-family="FreeSans" font-size="10.00">CDataContainer</text>
</a>
</g>
</g>
<!-- Node7&#45;&gt;Node6 -->
<g id="edge6" class="edge">
<title>Node7&#45;&gt;Node6</title>
<path fill="none" stroke="midnightblue" d="M105,-336.8C105,-327.91 105,-317.78 105,-310.75"/>
<polygon fill="midnightblue" stroke="midnightblue" points="101.5,-337.08 105,-347.08 108.5,-337.08 101.5,-337.08"/>
</g>
<!-- Node8 -->
<g id="node8" class="node">
<title>Node8</title>
<g id="a_node8"><a xlink:href="../../d1/d6b/classCDataObject.html" target="_top" xlink:title=" ">
<polygon fill="white" stroke="black" points="69,-403.5 69,-422.5 141,-422.5 141,-403.5 69,-403.5"/>
<text text-anchor="middle" x="105" y="-410.5" font-family="FreeSans" font-size="10.00">CDataObject</text>
</a>
</g>
</g>
<!-- Node8&#45;&gt;Node7 -->
<g id="edge7" class="edge">
<title>Node8&#45;&gt;Node7</title>
<path fill="none" stroke="midnightblue" d="M105,-392.8C105,-383.91 105,-373.78 105,-366.75"/>
<polygon fill="midnightblue" stroke="midnightblue" points="101.5,-393.08 105,-403.08 108.5,-393.08 101.5,-393.08"/>
</g>
<!-- Node9 -->
<g id="node9" class="node">
<title>Node9</title>
<g id="a_node9"><a xlink:href="../../df/dfa/classCObjectInterface.html" target="_top" xlink:title=" ">
<polygon fill="white" stroke="black" points="0,-459.5 0,-478.5 90,-478.5 90,-459.5 0,-459.5"/>
<text text-anchor="middle" x="45" y="-466.5" font-family="FreeSans" font-size="10.00">CObjectInterface</text>
</a>
</g>
</g>
<!-- Node9&#45;&gt;Node8 -->
<g id="edge8" class="edge">
<title>Node9&#45;&gt;Node8</title>
<path fill="none" stroke="midnightblue" d="M62.18,-452.54C72.88,-442.91 86.26,-430.87 95.18,-422.83"/>
<polygon fill="midnightblue" stroke="midnightblue" points="59.73,-450.03 54.64,-459.32 64.41,-455.24 59.73,-450.03"/>
</g>
<!-- Node10 -->
<g id="node10" class="node">
<title>Node10</title>
<g id="a_node10"><a xlink:href="../../d8/d53/classCUndoObjectInterface.html" target="_top" xlink:title=" ">
<polygon fill="white" stroke="black" points="108.5,-459.5 108.5,-478.5 221.5,-478.5 221.5,-459.5 108.5,-459.5"/>
<text text-anchor="middle" x="165" y="-466.5" font-family="FreeSans" font-size="10.00">CUndoObjectInterface</text>
</a>
</g>
</g>
<!-- Node10&#45;&gt;Node8 -->
<g id="edge9" class="edge">
<title>Node10&#45;&gt;Node8</title>
<path fill="none" stroke="midnightblue" d="M147.82,-452.54C137.12,-442.91 123.74,-430.87 114.82,-422.83"/>
<polygon fill="midnightblue" stroke="midnightblue" points="145.59,-455.24 155.36,-459.32 150.27,-450.03 145.59,-455.24"/>
</g>
</g>
</svg>
