<?xml version="1.0" encoding="UTF-8" standalone="no"?>
<!DOCTYPE svg PUBLIC "-//W3C//DTD SVG 1.1//EN"
 "http://www.w3.org/Graphics/SVG/1.1/DTD/svg11.dtd">
<!-- Generated by graphviz version 2.43.0 (0)
 -->
<!-- Title: CXMLHandlerFactory Pages: 1 -->
<svg width="196pt" height="209pt"
 viewBox="0.00 0.00 196.00 209.00" xmlns="http://www.w3.org/2000/svg" xmlns:xlink="http://www.w3.org/1999/xlink">
<g id="graph0" class="graph" transform="scale(1 1) rotate(0) translate(4 205)">
<title>CXMLHandlerFactory</title>
<polygon fill="white" stroke="transparent" points="-4,4 -4,-205 192,-205 192,4 -4,4"/>
<!-- Node1 -->
<g id="node1" class="node">
<title>Node1</title>
<g id="a_node1"><a xlink:title=" ">
<polygon fill="#bfbfbf" stroke="black" points="13,-0.5 13,-19.5 123,-19.5 123,-0.5 13,-0.5"/>
<text text-anchor="middle" x="68" y="-7.5" font-family="FreeSans" font-size="10.00">CXMLHandlerFactory</text>
</a>
</g>
</g>
<!-- Node2 -->
<g id="node2" class="node">
<title>Node2</title>
<g id="a_node2"><a xlink:href="../../dd/de4/classCVector.html" target="_top" xlink:title=" ">
<polygon fill="white" stroke="black" points="0,-57.5 0,-76.5 136,-76.5 136,-57.5 0,-57.5"/>
<text text-anchor="middle" x="68" y="-64.5" font-family="FreeSans" font-size="10.00">CVector&lt; CXMLHandler * &gt;</text>
</a>
</g>
</g>
<!-- Node2&#45;&gt;Node1 -->
<g id="edge1" class="edge">
<title>Node2&#45;&gt;Node1</title>
<path fill="none" stroke="#8b1a1a" d="M68,-47.12C68,-37.82 68,-27.06 68,-19.71"/>
<polygon fill="#8b1a1a" stroke="#8b1a1a" points="64.5,-47.41 68,-57.41 71.5,-47.41 64.5,-47.41"/>
</g>
<!-- Node3 -->
<g id="node3" class="node">
<title>Node3</title>
<g id="a_node3"><a xlink:href="../../d5/d46/classCVectorCore.html" target="_top" xlink:title=" ">
<polygon fill="white" stroke="black" points="6,-181.5 6,-200.5 122,-200.5 122,-181.5 6,-181.5"/>
<text text-anchor="middle" x="64" y="-188.5" font-family="FreeSans" font-size="10.00">CVectorCore&lt; CType &gt;</text>
</a>
</g>
</g>
<!-- Node3&#45;&gt;Node2 -->
<g id="edge2" class="edge">
<title>Node3&#45;&gt;Node2</title>
<path fill="none" stroke="midnightblue" d="M64.62,-171.19C65.5,-144.4 67.07,-96.31 67.71,-76.69"/>
<polygon fill="midnightblue" stroke="midnightblue" points="61.12,-171.12 64.29,-181.23 68.11,-171.35 61.12,-171.12"/>
</g>
<!-- Node4 -->
<g id="node4" class="node">
<title>Node4</title>
<g id="a_node4"><a xlink:href="../../dd/de4/classCVector.html" target="_top" xlink:title=" ">
<polygon fill="white" stroke="black" points="80,-124.5 80,-143.5 176,-143.5 176,-124.5 80,-124.5"/>
<text text-anchor="middle" x="128" y="-131.5" font-family="FreeSans" font-size="10.00">CVector&lt; CType &gt;</text>
</a>
</g>
</g>
<!-- Node3&#45;&gt;Node4 -->
<g id="edge4" class="edge">
<title>Node3&#45;&gt;Node4</title>
<path fill="none" stroke="midnightblue" d="M81.79,-174.71C93.42,-164.72 108.19,-152.02 117.86,-143.71"/>
<polygon fill="midnightblue" stroke="midnightblue" points="79.3,-172.23 74,-181.41 83.87,-177.54 79.3,-172.23"/>
</g>
<!-- Node4&#45;&gt;Node2 -->
<g id="edge3" class="edge">
<title>Node4&#45;&gt;Node2</title>
<path fill="none" stroke="orange" stroke-dasharray="5,2" d="M112.89,-116.63C101.16,-103.92 85.35,-86.8 75.96,-76.63"/>
<polygon fill="orange" stroke="orange" points="110.55,-119.26 119.91,-124.23 115.7,-114.51 110.55,-119.26"/>
<text text-anchor="middle" x="144.5" y="-98" font-family="FreeSans" font-size="10.00"> &lt; CXMLHandler * &gt;</text>
</g>
</g>
</svg>
