<?xml version="1.0" encoding="UTF-8" standalone="no"?>
<!DOCTYPE svg PUBLIC "-//W3C//DTD SVG 1.1//EN"
 "http://www.w3.org/Graphics/SVG/1.1/DTD/svg11.dtd">
<!-- Generated by graphviz version 2.43.0 (0)
 -->
<!-- Title: CEvaluationNodeWhiteSpace Pages: 1 -->
<svg width="152pt" height="209pt"
 viewBox="0.00 0.00 152.00 209.00" xmlns="http://www.w3.org/2000/svg" xmlns:xlink="http://www.w3.org/1999/xlink">
<g id="graph0" class="graph" transform="scale(1 1) rotate(0) translate(4 205)">
<title>CEvaluationNodeWhiteSpace</title>
<polygon fill="white" stroke="transparent" points="-4,4 -4,-205 148,-205 148,4 -4,4"/>
<!-- Node1 -->
<g id="node1" class="node">
<title>Node1</title>
<g id="a_node1"><a xlink:title=" ">
<polygon fill="#bfbfbf" stroke="black" points="0,-0.5 0,-19.5 144,-19.5 144,-0.5 0,-0.5"/>
<text text-anchor="middle" x="72" y="-7.5" font-family="FreeSans" font-size="10.00">CEvaluationNodeWhiteSpace</text>
</a>
</g>
</g>
<!-- Node2 -->
<g id="node2" class="node">
<title>Node2</title>
<g id="a_node2"><a xlink:href="../../d8/d9f/classCEvaluationNode.html" target="_top" xlink:title=" ">
<polygon fill="white" stroke="black" points="26,-57.5 26,-76.5 118,-76.5 118,-57.5 26,-57.5"/>
<text text-anchor="middle" x="72" y="-64.5" font-family="FreeSans" font-size="10.00">CEvaluationNode</text>
</a>
</g>
</g>
<!-- Node2&#45;&gt;Node1 -->
<g id="edge1" class="edge">
<title>Node2&#45;&gt;Node1</title>
<path fill="none" stroke="midnightblue" d="M72,-47.12C72,-37.82 72,-27.06 72,-19.71"/>
<polygon fill="midnightblue" stroke="midnightblue" points="68.5,-47.41 72,-57.41 75.5,-47.41 68.5,-47.41"/>
</g>
<!-- Node3 -->
<g id="node3" class="node">
<title>Node3</title>
<g id="a_node3"><a xlink:href="../../d9/d9d/classCCopasiNode.html" target="_top" xlink:title=" ">
<polygon fill="white" stroke="black" points="4.5,-114.5 4.5,-133.5 139.5,-133.5 139.5,-114.5 4.5,-114.5"/>
<text text-anchor="middle" x="72" y="-121.5" font-family="FreeSans" font-size="10.00">CCopasiNode&lt; std::string &gt;</text>
</a>
</g>
</g>
<!-- Node3&#45;&gt;Node2 -->
<g id="edge2" class="edge">
<title>Node3&#45;&gt;Node2</title>
<path fill="none" stroke="midnightblue" d="M72,-104.12C72,-94.82 72,-84.06 72,-76.71"/>
<polygon fill="midnightblue" stroke="midnightblue" points="68.5,-104.41 72,-114.41 75.5,-104.41 68.5,-104.41"/>
</g>
<!-- Node4 -->
<g id="node4" class="node">
<title>Node4</title>
<g id="a_node4"><a xlink:href="../../d9/d9d/classCCopasiNode.html" target="_top" xlink:title=" ">
<polygon fill="white" stroke="black" points="12.5,-181.5 12.5,-200.5 131.5,-200.5 131.5,-181.5 12.5,-181.5"/>
<text text-anchor="middle" x="72" y="-188.5" font-family="FreeSans" font-size="10.00">CCopasiNode&lt; _Data &gt;</text>
</a>
</g>
</g>
<!-- Node4&#45;&gt;Node3 -->
<g id="edge3" class="edge">
<title>Node4&#45;&gt;Node3</title>
<path fill="none" stroke="orange" stroke-dasharray="5,2" d="M72,-171.04C72,-158.67 72,-143.12 72,-133.63"/>
<polygon fill="orange" stroke="orange" points="68.5,-171.23 72,-181.23 75.5,-171.23 68.5,-171.23"/>
<text text-anchor="middle" x="102.5" y="-155" font-family="FreeSans" font-size="10.00"> &lt; std::string &gt;</text>
</g>
</g>
</svg>
