<?xml version="1.0" encoding="UTF-8" standalone="no"?>
<!DOCTYPE svg PUBLIC "-//W3C//DTD SVG 1.1//EN"
 "http://www.w3.org/Graphics/SVG/1.1/DTD/svg11.dtd">
<!-- Generated by graphviz version 2.43.0 (0)
 -->
<!-- Title: CDataVector&lt; CType &gt; Pages: 1 -->
<svg width="1306pt" height="1811pt"
 viewBox="0.00 0.00 1306.00 1810.81" xmlns="http://www.w3.org/2000/svg" xmlns:xlink="http://www.w3.org/1999/xlink">
<g id="graph0" class="graph" transform="scale(1 1) rotate(0) translate(4 1806.81)">
<title>CDataVector&lt; CType &gt;</title>
<polygon fill="white" stroke="transparent" points="-4,4 -4,-1806.81 1302,-1806.81 1302,4 -4,4"/>
<!-- Node1 -->
<g id="node1" class="node">
<title>Node1</title>
<g id="a_node1"><a xlink:title=" ">
<polygon fill="#bfbfbf" stroke="black" points="381,-800.29 381,-819.29 497,-819.29 497,-800.29 381,-800.29"/>
<text text-anchor="middle" x="439" y="-807.29" font-family="FreeSans" font-size="10.00">CDataVector&lt; CType &gt;</text>
</a>
</g>
</g>
<!-- Node7 -->
<g id="node7" class="node">
<title>Node7</title>
<g id="a_node7"><a xlink:href="../../dd/d24/classCDataVectorN.html" target="_top" xlink:title=" ">
<polygon fill="white" stroke="black" points="987,-1696.29 987,-1715.29 1166,-1715.29 1166,-1696.29 987,-1696.29"/>
<text text-anchor="middle" x="1076.5" y="-1703.29" font-family="FreeSans" font-size="10.00">CDataVectorN&lt; CEventAssignment &gt;</text>
</a>
</g>
</g>
<!-- Node1&#45;&gt;Node7 -->
<g id="edge6" class="edge">
<title>Node1&#45;&gt;Node7</title>
<path fill="none" stroke="midnightblue" d="M440.5,-829.65C443.71,-950.85 462.98,-1588.13 515,-1655.79 577.49,-1737.07 869.76,-1763.51 969,-1737.79 977.86,-1735.5 978.49,-1731.15 987,-1727.79 999.81,-1722.74 1014.14,-1718.58 1027.47,-1715.29"/>
<polygon fill="midnightblue" stroke="midnightblue" points="444,-829.47 440.24,-819.56 437,-829.65 444,-829.47"/>
</g>
<!-- Node8 -->
<g id="node8" class="node">
<title>Node8</title>
<g id="a_node8"><a xlink:href="../../dd/d24/classCDataVectorN.html" target="_top" xlink:title=" ">
<polygon fill="white" stroke="black" points="999,-1652.29 999,-1671.29 1154,-1671.29 1154,-1652.29 999,-1652.29"/>
<text text-anchor="middle" x="1076.5" y="-1659.29" font-family="FreeSans" font-size="10.00">CDataVectorN&lt; CCopasiTask &gt;</text>
</a>
</g>
</g>
<!-- Node1&#45;&gt;Node8 -->
<g id="edge7" class="edge">
<title>Node1&#45;&gt;Node8</title>
<path fill="none" stroke="midnightblue" d="M440.61,-829.75C444.34,-946.38 465.57,-1536.76 515,-1598.79 644.23,-1760.95 943.15,-1697.95 1042.63,-1671.33"/>
<polygon fill="midnightblue" stroke="midnightblue" points="444.1,-829.33 440.29,-819.45 437.1,-829.55 444.1,-829.33"/>
</g>
<!-- Node9 -->
<g id="node9" class="node">
<title>Node9</title>
<g id="a_node9"><a xlink:href="../../dd/d24/classCDataVectorN.html" target="_top" xlink:title=" ">
<polygon fill="white" stroke="black" points="1010.5,-1737.29 1010.5,-1756.29 1142.5,-1756.29 1142.5,-1737.29 1010.5,-1737.29"/>
<text text-anchor="middle" x="1076.5" y="-1744.29" font-family="FreeSans" font-size="10.00">CDataVectorN&lt; CLayout &gt;</text>
</a>
</g>
</g>
<!-- Node1&#45;&gt;Node9 -->
<g id="edge8" class="edge">
<title>Node1&#45;&gt;Node9</title>
<path fill="none" stroke="midnightblue" d="M440.35,-829.61C442.75,-954.76 458.27,-1632.49 515,-1702.79 646.78,-1866.11 952.55,-1786.14 1047.12,-1756.33"/>
<polygon fill="midnightblue" stroke="midnightblue" points="443.85,-829.47 440.17,-819.54 436.85,-829.6 443.85,-829.47"/>
</g>
<!-- Node11 -->
<g id="node11" class="node">
<title>Node11</title>
<g id="a_node11"><a xlink:href="../../dd/d24/classCDataVectorN.html" target="_top" xlink:title=" ">
<polygon fill="white" stroke="black" points="996,-1602.29 996,-1621.29 1157,-1621.29 1157,-1602.29 996,-1602.29"/>
<text text-anchor="middle" x="1076.5" y="-1609.29" font-family="FreeSans" font-size="10.00">CDataVectorN&lt; CUnitDefinition &gt;</text>
</a>
</g>
</g>
<!-- Node1&#45;&gt;Node11 -->
<g id="edge10" class="edge">
<title>Node1&#45;&gt;Node11</title>
<path fill="none" stroke="midnightblue" d="M440.81,-829.51C445.52,-939.97 470.67,-1478.99 515,-1536.79 639.83,-1699.55 764.02,-1627.48 969,-1619.79 977.71,-1619.46 986.81,-1618.99 995.86,-1618.43"/>
<polygon fill="midnightblue" stroke="midnightblue" points="444.31,-829.28 440.39,-819.44 437.31,-829.57 444.31,-829.28"/>
</g>
<!-- Node13 -->
<g id="node13" class="node">
<title>Node13</title>
<g id="a_node13"><a xlink:href="../../dd/d24/classCDataVectorN.html" target="_top" xlink:title=" ">
<polygon fill="white" stroke="red" points="988.5,-1382.29 988.5,-1401.29 1164.5,-1401.29 1164.5,-1382.29 988.5,-1382.29"/>
<text text-anchor="middle" x="1076.5" y="-1389.29" font-family="FreeSans" font-size="10.00">CDataVectorN&lt; CPlotSpecification &gt;</text>
</a>
</g>
</g>
<!-- Node1&#45;&gt;Node13 -->
<g id="edge12" class="edge">
<title>Node1&#45;&gt;Node13</title>
<path fill="none" stroke="midnightblue" d="M440.14,-829.9C441.14,-912.44 449.3,-1224.06 515,-1290.79 658.65,-1436.68 768.01,-1329.84 969,-1368.79 990.26,-1372.91 1013.81,-1377.95 1033.35,-1382.26"/>
<polygon fill="midnightblue" stroke="midnightblue" points="443.64,-829.4 440.04,-819.44 436.64,-829.47 443.64,-829.4"/>
</g>
<!-- Node15 -->
<g id="node14" class="node">
<title>Node15</title>
<g id="a_node14"><a xlink:href="../../dd/d24/classCDataVectorN.html" target="_top" xlink:title=" ">
<polygon fill="white" stroke="black" points="993.5,-1448.79 993.5,-1478.79 1159.5,-1478.79 1159.5,-1448.79 993.5,-1448.79"/>
<text text-anchor="start" x="1001.5" y="-1466.79" font-family="FreeSans" font-size="10.00">CDataVectorN&lt; CModelParameter</text>
<text text-anchor="middle" x="1076.5" y="-1455.79" font-family="FreeSans" font-size="10.00">Set &gt;</text>
</a>
</g>
</g>
<!-- Node1&#45;&gt;Node15 -->
<g id="edge13" class="edge">
<title>Node1&#45;&gt;Node15</title>
<path fill="none" stroke="midnightblue" d="M439.91,-829.7C439.91,-917.1 444.4,-1265.87 515,-1342.79 563.41,-1395.53 601.76,-1364.96 672,-1378.79 803.26,-1404.64 839.2,-1395.37 969,-1427.79 991.53,-1433.42 1016.13,-1441.59 1036,-1448.73"/>
<polygon fill="midnightblue" stroke="midnightblue" points="443.41,-829.56 439.93,-819.56 436.41,-829.55 443.41,-829.56"/>
</g>
<!-- Node16 -->
<g id="node15" class="node">
<title>Node16</title>
<g id="a_node15"><a xlink:href="../../dd/d24/classCDataVectorN.html" target="_top" xlink:title=" ">
<polygon fill="white" stroke="black" points="1006.5,-1268.29 1006.5,-1287.29 1146.5,-1287.29 1146.5,-1268.29 1006.5,-1268.29"/>
<text text-anchor="middle" x="1076.5" y="-1275.29" font-family="FreeSans" font-size="10.00">CDataVectorN&lt; CFunction &gt;</text>
</a>
</g>
</g>
<!-- Node1&#45;&gt;Node16 -->
<g id="edge14" class="edge">
<title>Node1&#45;&gt;Node16</title>
<path fill="none" stroke="midnightblue" d="M440.53,-829.6C443,-905.85 455.89,-1178.97 515,-1236.79 549.44,-1270.48 864.34,-1276.59 1006.47,-1277.62"/>
<polygon fill="midnightblue" stroke="midnightblue" points="444.02,-829.36 440.23,-819.47 437.03,-829.57 444.02,-829.36"/>
</g>
<!-- Node17 -->
<g id="node16" class="node">
<title>Node17</title>
<g id="a_node16"><a xlink:href="../../dd/d24/classCDataVectorN.html" target="_top" xlink:title=" ">
<polygon fill="white" stroke="black" points="999.5,-1522.29 999.5,-1541.29 1153.5,-1541.29 1153.5,-1522.29 999.5,-1522.29"/>
<text text-anchor="middle" x="1076.5" y="-1529.29" font-family="FreeSans" font-size="10.00">CDataVectorN&lt; CModelValue &gt;</text>
</a>
</g>
</g>
<!-- Node1&#45;&gt;Node17 -->
<g id="edge15" class="edge">
<title>Node1&#45;&gt;Node17</title>
<path fill="none" stroke="midnightblue" d="M440.92,-829.48C446,-934.24 471.92,-1423.46 515,-1473.79 648.6,-1629.87 765.36,-1588.02 969,-1560.79 996.54,-1557.11 1027.05,-1548.29 1048.33,-1541.34"/>
<polygon fill="midnightblue" stroke="midnightblue" points="444.41,-829.18 440.44,-819.36 437.42,-829.51 444.41,-829.18"/>
</g>
<!-- Node18 -->
<g id="node17" class="node">
<title>Node18</title>
<g id="a_node17"><a xlink:href="../../dd/d24/classCDataVectorN.html" target="_top" xlink:title=" ">
<polygon fill="white" stroke="red" points="991,-1340.29 991,-1359.29 1162,-1359.29 1162,-1340.29 991,-1340.29"/>
<text text-anchor="middle" x="1076.5" y="-1347.29" font-family="FreeSans" font-size="10.00">CDataVectorN&lt; CReportDefinition &gt;</text>
</a>
</g>
</g>
<!-- Node1&#45;&gt;Node18 -->
<g id="edge16" class="edge">
<title>Node1&#45;&gt;Node18</title>
<path fill="none" stroke="midnightblue" d="M440.26,-829.36C441.71,-908.36 451.4,-1202.5 515,-1263.79 565.65,-1312.6 602.06,-1276.28 672,-1283.79 803.75,-1297.94 839.79,-1280.45 969,-1309.79 1000.01,-1316.83 1034.14,-1330.84 1055.2,-1340.26"/>
<polygon fill="midnightblue" stroke="midnightblue" points="443.75,-829.26 440.09,-819.32 436.76,-829.37 443.75,-829.26"/>
</g>
<!-- Node20 -->
<g id="node18" class="node">
<title>Node20</title>
<g id="a_node18"><a xlink:href="../../d2/d7f/classCDataVectorS.html" target="_top" xlink:title=" ">
<polygon fill="white" stroke="black" points="1004.5,-1219.29 1004.5,-1238.29 1148.5,-1238.29 1148.5,-1219.29 1004.5,-1219.29"/>
<text text-anchor="middle" x="1076.5" y="-1226.29" font-family="FreeSans" font-size="10.00">CDataVectorS&lt; CMetabOld &gt;</text>
</a>
</g>
</g>
<!-- Node1&#45;&gt;Node20 -->
<g id="edge17" class="edge">
<title>Node1&#45;&gt;Node20</title>
<path fill="none" stroke="midnightblue" d="M440.75,-829.51C443.95,-901.94 458.94,-1151.74 515,-1202.79 584.72,-1266.29 869.62,-1248.61 1004.31,-1236.22"/>
<polygon fill="midnightblue" stroke="midnightblue" points="444.25,-829.31 440.34,-819.46 437.25,-829.6 444.25,-829.31"/>
</g>
<!-- Node21 -->
<g id="node19" class="node">
<title>Node21</title>
<g id="a_node19"><a xlink:href="../../dd/d24/classCDataVectorN.html" target="_top" xlink:title=" ">
<polygon fill="white" stroke="red" points="693.5,-1488.29 693.5,-1507.29 817.5,-1507.29 817.5,-1488.29 693.5,-1488.29"/>
<text text-anchor="middle" x="755.5" y="-1495.29" font-family="FreeSans" font-size="10.00">CDataVectorN&lt; CType &gt;</text>
</a>
</g>
</g>
<!-- Node1&#45;&gt;Node21 -->
<g id="edge18" class="edge">
<title>Node1&#45;&gt;Node21</title>
<path fill="none" stroke="midnightblue" d="M439.59,-829.65C438.03,-924.97 436.05,-1334.74 515,-1427.79 558.72,-1479.32 638.09,-1494.04 693.43,-1497.68"/>
<polygon fill="midnightblue" stroke="midnightblue" points="443.09,-829.69 439.77,-819.63 436.09,-829.56 443.09,-829.69"/>
</g>
<!-- Node28 -->
<g id="node20" class="node">
<title>Node28</title>
<g id="a_node20"><a xlink:href="../../d2/d7f/classCDataVectorS.html" target="_top" xlink:title=" ">
<polygon fill="white" stroke="black" points="694,-1189.29 694,-1208.29 817,-1208.29 817,-1189.29 694,-1189.29"/>
<text text-anchor="middle" x="755.5" y="-1196.29" font-family="FreeSans" font-size="10.00">CDataVectorS&lt; CType &gt;</text>
</a>
</g>
</g>
<!-- Node1&#45;&gt;Node28 -->
<g id="edge28" class="edge">
<title>Node1&#45;&gt;Node28</title>
<path fill="none" stroke="midnightblue" d="M441.23,-829.87C445.87,-898.36 464.66,-1121.22 515,-1167.79 563.94,-1213.06 644.47,-1214.06 698.48,-1208.31"/>
<polygon fill="midnightblue" stroke="midnightblue" points="444.71,-829.34 440.57,-819.59 437.72,-829.8 444.71,-829.34"/>
</g>
<!-- Node29 -->
<g id="node21" class="node">
<title>Node29</title>
<g id="a_node21"><a xlink:href="../../db/d30/classCDataVector.html" target="_top" xlink:title=" ">
<polygon fill="white" stroke="black" points="679.5,-1139.79 679.5,-1169.79 831.5,-1169.79 831.5,-1139.79 679.5,-1139.79"/>
<text text-anchor="start" x="687.5" y="-1157.79" font-family="FreeSans" font-size="10.00">CDataVector&lt; CLGlobalRender</text>
<text text-anchor="middle" x="755.5" y="-1146.79" font-family="FreeSans" font-size="10.00">Information &gt;</text>
</a>
</g>
</g>
<!-- Node1&#45;&gt;Node29 -->
<g id="edge30" class="edge">
<title>Node1&#45;&gt;Node29</title>
<path fill="none" stroke="orange" stroke-dasharray="5,2" d="M441.79,-829.54C447.89,-892.33 470.07,-1085.65 515,-1125.79 538.7,-1146.96 618.46,-1153.22 679.49,-1154.81"/>
<polygon fill="orange" stroke="orange" points="445.25,-829.02 440.83,-819.4 438.28,-829.68 445.25,-829.02"/>
<text text-anchor="middle" x="584.5" y="-1155.79" font-family="FreeSans" font-size="10.00"> &lt; CLGlobalRenderInformation &gt;</text>
</g>
<!-- Node30 -->
<g id="node22" class="node">
<title>Node30</title>
<g id="a_node22"><a xlink:href="../../db/d30/classCDataVector.html" target="_top" xlink:title=" ">
<polygon fill="white" stroke="black" points="682,-1101.29 682,-1120.29 829,-1120.29 829,-1101.29 682,-1101.29"/>
<text text-anchor="middle" x="755.5" y="-1108.29" font-family="FreeSans" font-size="10.00">CDataVector&lt; CModification &gt;</text>
</a>
</g>
</g>
<!-- Node1&#45;&gt;Node30 -->
<g id="edge31" class="edge">
<title>Node1&#45;&gt;Node30</title>
<path fill="none" stroke="orange" stroke-dasharray="5,2" d="M442.45,-829.28C450.04,-886.46 475.11,-1051.86 515,-1085.79 539.44,-1106.58 620.68,-1111.42 681.82,-1111.97"/>
<polygon fill="orange" stroke="orange" points="445.92,-828.83 441.16,-819.36 438.97,-829.73 445.92,-828.83"/>
<text text-anchor="middle" x="584.5" y="-1113.79" font-family="FreeSans" font-size="10.00"> &lt; CModification &gt;</text>
</g>
<!-- Node31 -->
<g id="node23" class="node">
<title>Node31</title>
<g id="a_node23"><a xlink:href="../../db/d30/classCDataVector.html" target="_top" xlink:title=" ">
<polygon fill="white" stroke="black" points="679,-1063.29 679,-1082.29 832,-1082.29 832,-1063.29 679,-1063.29"/>
<text text-anchor="middle" x="755.5" y="-1070.29" font-family="FreeSans" font-size="10.00">CDataVector&lt; CLMetabGlyph &gt;</text>
</a>
</g>
</g>
<!-- Node1&#45;&gt;Node31 -->
<g id="edge32" class="edge">
<title>Node1&#45;&gt;Node31</title>
<path fill="none" stroke="orange" stroke-dasharray="5,2" d="M439.74,-829.38C440.29,-875.06 448.61,-988.93 515,-1043.79 539.38,-1063.93 618.32,-1070.4 678.98,-1072.32"/>
<polygon fill="orange" stroke="orange" points="443.24,-829.31 439.73,-819.31 436.24,-829.31 443.24,-829.31"/>
<text text-anchor="middle" x="584.5" y="-1073.79" font-family="FreeSans" font-size="10.00"> &lt; CLMetabGlyph &gt;</text>
</g>
<!-- Node32 -->
<g id="node24" class="node">
<title>Node32</title>
<g id="a_node24"><a xlink:href="../../db/d30/classCDataVector.html" target="_top" xlink:title=" ">
<polygon fill="white" stroke="black" points="679.5,-1013.79 679.5,-1043.79 831.5,-1043.79 831.5,-1013.79 679.5,-1013.79"/>
<text text-anchor="start" x="687.5" y="-1031.79" font-family="FreeSans" font-size="10.00">CDataVector&lt; CLCompartment</text>
<text text-anchor="middle" x="755.5" y="-1020.79" font-family="FreeSans" font-size="10.00">Glyph &gt;</text>
</a>
</g>
</g>
<!-- Node1&#45;&gt;Node32 -->
<g id="edge33" class="edge">
<title>Node1&#45;&gt;Node32</title>
<path fill="none" stroke="orange" stroke-dasharray="5,2" d="M441.04,-829.59C444.33,-870.14 458.02,-962.43 515,-1005.79 540.1,-1024.89 618.91,-1029.46 679.34,-1030"/>
<polygon fill="orange" stroke="orange" points="444.53,-829.35 440.36,-819.61 437.55,-829.83 444.53,-829.35"/>
<text text-anchor="middle" x="584.5" y="-1031.79" font-family="FreeSans" font-size="10.00"> &lt; CLCompartmentGlyph &gt;</text>
</g>
<!-- Node33 -->
<g id="node25" class="node">
<title>Node33</title>
<g id="a_node25"><a xlink:href="../../db/d30/classCDataVector.html" target="_top" xlink:title=" ">
<polygon fill="white" stroke="black" points="695.5,-975.29 695.5,-994.29 815.5,-994.29 815.5,-975.29 695.5,-975.29"/>
<text text-anchor="middle" x="755.5" y="-982.29" font-family="FreeSans" font-size="10.00">CDataVector&lt; CSlider &gt;</text>
</a>
</g>
</g>
<!-- Node1&#45;&gt;Node33 -->
<g id="edge34" class="edge">
<title>Node1&#45;&gt;Node33</title>
<path fill="none" stroke="orange" stroke-dasharray="5,2" d="M444.16,-829.28C452.03,-860.92 472.26,-922.9 515,-952.79 567.77,-989.69 643.36,-993.85 695.44,-991.26"/>
<polygon fill="orange" stroke="orange" points="447.55,-828.41 441.88,-819.46 440.74,-830 447.55,-828.41"/>
<text text-anchor="middle" x="584.5" y="-993.79" font-family="FreeSans" font-size="10.00"> &lt; CSlider &gt;</text>
</g>
<!-- Node34 -->
<g id="node26" class="node">
<title>Node34</title>
<g id="a_node26"><a xlink:href="../../db/d30/classCDataVector.html" target="_top" xlink:title=" ">
<polygon fill="white" stroke="black" points="687,-925.79 687,-955.79 824,-955.79 824,-925.79 687,-925.79"/>
<text text-anchor="start" x="695" y="-943.79" font-family="FreeSans" font-size="10.00">CDataVector&lt; CLReference</text>
<text text-anchor="middle" x="755.5" y="-932.79" font-family="FreeSans" font-size="10.00">Glyph &gt;</text>
</a>
</g>
</g>
<!-- Node1&#45;&gt;Node34 -->
<g id="edge35" class="edge">
<title>Node1&#45;&gt;Node34</title>
<path fill="none" stroke="orange" stroke-dasharray="5,2" d="M450.18,-828.3C462.62,-849.03 485.67,-881.92 515,-898.79 567.51,-929 636.4,-938.54 686.82,-941.09"/>
<polygon fill="orange" stroke="orange" points="453.12,-826.39 445.09,-819.48 447.06,-829.89 453.12,-826.39"/>
<text text-anchor="middle" x="584.5" y="-940.79" font-family="FreeSans" font-size="10.00"> &lt; CLReferenceGlyph &gt;</text>
</g>
<!-- Node35 -->
<g id="node27" class="node">
<title>Node35</title>
<g id="a_node27"><a xlink:href="../../db/d30/classCDataVector.html" target="_top" xlink:title=" ">
<polygon fill="white" stroke="black" points="691,-876.79 691,-906.79 820,-906.79 820,-876.79 691,-876.79"/>
<text text-anchor="start" x="699" y="-894.79" font-family="FreeSans" font-size="10.00">CDataVector&lt; CBiological</text>
<text text-anchor="middle" x="755.5" y="-883.79" font-family="FreeSans" font-size="10.00">Description &gt;</text>
</a>
</g>
</g>
<!-- Node1&#45;&gt;Node35 -->
<g id="edge36" class="edge">
<title>Node1&#45;&gt;Node35</title>
<path fill="none" stroke="orange" stroke-dasharray="5,2" d="M460.72,-825.24C475.19,-835.24 495.37,-847.7 515,-854.79 572.37,-875.53 641.59,-884.65 690.83,-888.65"/>
<polygon fill="orange" stroke="orange" points="462.68,-822.33 452.5,-819.39 458.62,-828.04 462.68,-822.33"/>
<text text-anchor="middle" x="584.5" y="-886.79" font-family="FreeSans" font-size="10.00"> &lt; CBiologicalDescription &gt;</text>
</g>
<!-- Node36 -->
<g id="node28" class="node">
<title>Node36</title>
<g id="a_node28"><a xlink:href="../../db/d30/classCDataVector.html" target="_top" xlink:title=" ">
<polygon fill="white" stroke="black" points="680,-838.29 680,-857.29 831,-857.29 831,-838.29 680,-838.29"/>
<text text-anchor="middle" x="755.5" y="-845.29" font-family="FreeSans" font-size="10.00">CDataVector&lt; CLGlobalStyle &gt;</text>
</a>
</g>
</g>
<!-- Node1&#45;&gt;Node36 -->
<g id="edge37" class="edge">
<title>Node1&#45;&gt;Node36</title>
<path fill="none" stroke="orange" stroke-dasharray="5,2" d="M494.07,-821.28C501.09,-822.58 508.2,-823.79 515,-824.79 569.96,-832.9 632.46,-838.8 679.83,-842.58"/>
<polygon fill="orange" stroke="orange" points="494.37,-817.78 483.89,-819.35 493.06,-824.66 494.37,-817.78"/>
<text text-anchor="middle" x="584.5" y="-842.79" font-family="FreeSans" font-size="10.00"> &lt; CLGlobalStyle &gt;</text>
</g>
<!-- Node37 -->
<g id="node29" class="node">
<title>Node37</title>
<g id="a_node29"><a xlink:href="../../db/d30/classCDataVector.html" target="_top" xlink:title=" ">
<polygon fill="white" stroke="black" points="685.5,-800.29 685.5,-819.29 825.5,-819.29 825.5,-800.29 685.5,-800.29"/>
<text text-anchor="middle" x="755.5" y="-807.29" font-family="FreeSans" font-size="10.00">CDataVector&lt; CReference &gt;</text>
</a>
</g>
</g>
<!-- Node1&#45;&gt;Node37 -->
<g id="edge38" class="edge">
<title>Node1&#45;&gt;Node37</title>
<path fill="none" stroke="orange" stroke-dasharray="5,2" d="M507.52,-809.79C559.95,-809.79 632.36,-809.79 685.23,-809.79"/>
<polygon fill="orange" stroke="orange" points="507.32,-806.29 497.32,-809.79 507.32,-813.29 507.32,-806.29"/>
<text text-anchor="middle" x="584.5" y="-812.79" font-family="FreeSans" font-size="10.00"> &lt; CReference &gt;</text>
</g>
<!-- Node38 -->
<g id="node30" class="node">
<title>Node38</title>
<g id="a_node30"><a xlink:href="../../db/d30/classCDataVector.html" target="_top" xlink:title=" ">
<polygon fill="white" stroke="black" points="676.5,-762.29 676.5,-781.29 834.5,-781.29 834.5,-762.29 676.5,-762.29"/>
<text text-anchor="middle" x="755.5" y="-769.29" font-family="FreeSans" font-size="10.00">CDataVector&lt; CLGradientStop &gt;</text>
</a>
</g>
</g>
<!-- Node1&#45;&gt;Node38 -->
<g id="edge39" class="edge">
<title>Node1&#45;&gt;Node38</title>
<path fill="none" stroke="orange" stroke-dasharray="5,2" d="M494.07,-798.3C501.09,-797 508.2,-795.79 515,-794.79 568.62,-786.88 629.41,-781.08 676.33,-777.28"/>
<polygon fill="orange" stroke="orange" points="493.06,-794.93 483.89,-800.24 494.37,-801.8 493.06,-794.93"/>
<text text-anchor="middle" x="584.5" y="-797.79" font-family="FreeSans" font-size="10.00"> &lt; CLGradientStop &gt;</text>
</g>
<!-- Node39 -->
<g id="node31" class="node">
<title>Node39</title>
<g id="a_node31"><a xlink:href="../../db/d30/classCDataVector.html" target="_top" xlink:title=" ">
<polygon fill="white" stroke="black" points="693.5,-724.29 693.5,-743.29 817.5,-743.29 817.5,-724.29 693.5,-724.29"/>
<text text-anchor="middle" x="755.5" y="-731.29" font-family="FreeSans" font-size="10.00">CDataVector&lt; CMoiety &gt;</text>
</a>
</g>
</g>
<!-- Node1&#45;&gt;Node39 -->
<g id="edge40" class="edge">
<title>Node1&#45;&gt;Node39</title>
<path fill="none" stroke="orange" stroke-dasharray="5,2" d="M460.41,-794.37C474.87,-784.27 495.16,-771.69 515,-764.79 573.41,-744.48 644.02,-737.29 693.38,-734.83"/>
<polygon fill="orange" stroke="orange" points="458.28,-791.59 452.21,-800.28 462.37,-797.27 458.28,-791.59"/>
<text text-anchor="middle" x="584.5" y="-767.79" font-family="FreeSans" font-size="10.00"> &lt; CMoiety &gt;</text>
</g>
<!-- Node40 -->
<g id="node32" class="node">
<title>Node40</title>
<g id="a_node32"><a xlink:href="../../db/d30/classCDataVector.html" target="_top" xlink:title=" ">
<polygon fill="white" stroke="black" points="673.5,-674.79 673.5,-704.79 837.5,-704.79 837.5,-674.79 673.5,-674.79"/>
<text text-anchor="start" x="681.5" y="-692.79" font-family="FreeSans" font-size="10.00">CDataVector&lt; CLMetabReference</text>
<text text-anchor="middle" x="755.5" y="-681.79" font-family="FreeSans" font-size="10.00">Glyph &gt;</text>
</a>
</g>
</g>
<!-- Node1&#45;&gt;Node40 -->
<g id="edge41" class="edge">
<title>Node1&#45;&gt;Node40</title>
<path fill="none" stroke="orange" stroke-dasharray="5,2" d="M450.44,-791.42C462.97,-771.22 485.99,-739.54 515,-723.79 563.26,-697.6 624.7,-689.29 673.26,-687.43"/>
<polygon fill="orange" stroke="orange" points="447.41,-789.66 445.29,-800.04 453.42,-793.25 447.41,-789.66"/>
<text text-anchor="middle" x="584.5" y="-726.79" font-family="FreeSans" font-size="10.00"> &lt; CLMetabReferenceGlyph &gt;</text>
</g>
<!-- Node41 -->
<g id="node33" class="node">
<title>Node41</title>
<g id="a_node33"><a xlink:href="../../db/d30/classCDataVector.html" target="_top" xlink:title=" ">
<polygon fill="white" stroke="black" points="684.5,-636.29 684.5,-655.29 826.5,-655.29 826.5,-636.29 684.5,-636.29"/>
<text text-anchor="middle" x="755.5" y="-643.29" font-family="FreeSans" font-size="10.00">CDataVector&lt; CDataModel &gt;</text>
</a>
</g>
</g>
<!-- Node1&#45;&gt;Node41 -->
<g id="edge42" class="edge">
<title>Node1&#45;&gt;Node41</title>
<path fill="none" stroke="orange" stroke-dasharray="5,2" d="M444.64,-790.31C453.01,-759.84 473.74,-701.51 515,-673.79 564.6,-640.46 633.36,-635.6 684.48,-637.82"/>
<polygon fill="orange" stroke="orange" points="441.2,-789.62 442.1,-800.17 447.98,-791.36 441.2,-789.62"/>
<text text-anchor="middle" x="584.5" y="-676.79" font-family="FreeSans" font-size="10.00"> &lt; CDataModel &gt;</text>
</g>
<!-- Node42 -->
<g id="node34" class="node">
<title>Node42</title>
<g id="a_node34"><a xlink:href="../../db/d30/classCDataVector.html" target="_top" xlink:title=" ">
<polygon fill="white" stroke="black" points="672,-598.29 672,-617.29 839,-617.29 839,-598.29 672,-598.29"/>
<text text-anchor="middle" x="755.5" y="-605.29" font-family="FreeSans" font-size="10.00">CDataVector&lt; CChemEqElement &gt;</text>
</a>
</g>
</g>
<!-- Node1&#45;&gt;Node42 -->
<g id="edge43" class="edge">
<title>Node1&#45;&gt;Node42</title>
<path fill="none" stroke="orange" stroke-dasharray="5,2" d="M441.34,-789.67C445.17,-750.13 459.79,-662.71 515,-622.79 573.58,-580.44 662.76,-588.61 714.16,-598.27"/>
<polygon fill="orange" stroke="orange" points="437.83,-789.63 440.5,-799.88 444.81,-790.21 437.83,-789.63"/>
<text text-anchor="middle" x="584.5" y="-625.79" font-family="FreeSans" font-size="10.00"> &lt; CChemEqElement &gt;</text>
</g>
<!-- Node43 -->
<g id="node35" class="node">
<title>Node43</title>
<g id="a_node35"><a xlink:href="../../db/d30/classCDataVector.html" target="_top" xlink:title=" ">
<polygon fill="white" stroke="red" points="695.5,-560.29 695.5,-579.29 815.5,-579.29 815.5,-560.29 695.5,-560.29"/>
<text text-anchor="middle" x="755.5" y="-567.29" font-family="FreeSans" font-size="10.00">CDataVector&lt; CEvent &gt;</text>
</a>
</g>
</g>
<!-- Node1&#45;&gt;Node43 -->
<g id="edge44" class="edge">
<title>Node1&#45;&gt;Node43</title>
<path fill="none" stroke="orange" stroke-dasharray="5,2" d="M439.4,-789.77C439.21,-743.15 446.06,-627.42 515,-575.79 542.42,-555.25 633.74,-558.66 695.36,-563.71"/>
<polygon fill="orange" stroke="orange" points="435.9,-790.11 439.56,-800.05 442.9,-789.99 435.9,-790.11"/>
<text text-anchor="middle" x="584.5" y="-578.79" font-family="FreeSans" font-size="10.00"> &lt; CEvent &gt;</text>
</g>
<!-- Node44 -->
<g id="node36" class="node">
<title>Node44</title>
<g id="a_node36"><a xlink:href="../../db/d30/classCDataVector.html" target="_top" xlink:title=" ">
<polygon fill="white" stroke="black" points="673.5,-522.29 673.5,-541.29 837.5,-541.29 837.5,-522.29 673.5,-522.29"/>
<text text-anchor="middle" x="755.5" y="-529.29" font-family="FreeSans" font-size="10.00">CDataVector&lt; CLReactionGlyph &gt;</text>
</a>
</g>
</g>
<!-- Node1&#45;&gt;Node44 -->
<g id="edge45" class="edge">
<title>Node1&#45;&gt;Node44</title>
<path fill="none" stroke="orange" stroke-dasharray="5,2" d="M442.66,-789.97C450.61,-734.04 476.06,-577.04 515,-545.79 573.31,-499 667.6,-510.94 718.74,-522.26"/>
<polygon fill="orange" stroke="orange" points="439.18,-789.63 441.27,-800.01 446.11,-790.59 439.18,-789.63"/>
<text text-anchor="middle" x="584.5" y="-548.79" font-family="FreeSans" font-size="10.00"> &lt; CLReactionGlyph &gt;</text>
</g>
<!-- Node45 -->
<g id="node37" class="node">
<title>Node45</title>
<g id="a_node37"><a xlink:href="../../db/d30/classCDataVector.html" target="_top" xlink:title=" ">
<polygon fill="white" stroke="black" points="673.5,-484.29 673.5,-503.29 837.5,-503.29 837.5,-484.29 673.5,-484.29"/>
<text text-anchor="middle" x="755.5" y="-491.29" font-family="FreeSans" font-size="10.00">CDataVector&lt; CLColorDefinition &gt;</text>
</a>
</g>
</g>
<!-- Node1&#45;&gt;Node45 -->
<g id="edge46" class="edge">
<title>Node1&#45;&gt;Node45</title>
<path fill="none" stroke="orange" stroke-dasharray="5,2" d="M441.66,-790.1C447.39,-727.51 468.56,-535.03 515,-497.79 538.73,-478.77 613.51,-480.18 673.27,-484.88"/>
<polygon fill="orange" stroke="orange" points="438.16,-789.94 440.77,-800.21 445.14,-790.56 438.16,-789.94"/>
<text text-anchor="middle" x="584.5" y="-500.79" font-family="FreeSans" font-size="10.00"> &lt; CLColorDefinition &gt;</text>
</g>
<!-- Node46 -->
<g id="node38" class="node">
<title>Node46</title>
<g id="a_node38"><a xlink:href="../../db/d30/classCDataVector.html" target="_top" xlink:title=" ">
<polygon fill="white" stroke="black" points="694.5,-446.29 694.5,-465.29 816.5,-465.29 816.5,-446.29 694.5,-446.29"/>
<text text-anchor="middle" x="755.5" y="-453.29" font-family="FreeSans" font-size="10.00">CDataVector&lt; CMetab &gt;</text>
</a>
</g>
</g>
<!-- Node1&#45;&gt;Node46 -->
<g id="edge47" class="edge">
<title>Node1&#45;&gt;Node46</title>
<path fill="none" stroke="orange" stroke-dasharray="5,2" d="M441.28,-790.03C446.03,-723.59 465,-510.12 515,-467.79 573.31,-418.43 671.08,-433.67 721.78,-446.26"/>
<polygon fill="orange" stroke="orange" points="437.79,-789.8 440.6,-800.02 444.77,-790.28 437.79,-789.8"/>
<text text-anchor="middle" x="584.5" y="-470.79" font-family="FreeSans" font-size="10.00"> &lt; CMetab &gt;</text>
</g>
<!-- Node47 -->
<g id="node39" class="node">
<title>Node47</title>
<g id="a_node39"><a xlink:href="../../db/d30/classCDataVector.html" target="_top" xlink:title=" ">
<polygon fill="white" stroke="black" points="681.5,-396.79 681.5,-426.79 829.5,-426.79 829.5,-396.79 681.5,-396.79"/>
<text text-anchor="start" x="689.5" y="-414.79" font-family="FreeSans" font-size="10.00">CDataVector&lt; CLLocalRender</text>
<text text-anchor="middle" x="755.5" y="-403.79" font-family="FreeSans" font-size="10.00">Information &gt;</text>
</a>
</g>
</g>
<!-- Node1&#45;&gt;Node47 -->
<g id="edge48" class="edge">
<title>Node1&#45;&gt;Node47</title>
<path fill="none" stroke="orange" stroke-dasharray="5,2" d="M440.66,-790.05C443.54,-717.56 457.55,-467.7 515,-418.79 566.95,-374.57 650.63,-384.13 704.06,-396.72"/>
<polygon fill="orange" stroke="orange" points="437.16,-789.98 440.29,-800.11 444.16,-790.24 437.16,-789.98"/>
<text text-anchor="middle" x="584.5" y="-421.79" font-family="FreeSans" font-size="10.00"> &lt; CLLocalRenderInformation &gt;</text>
</g>
<!-- Node48 -->
<g id="node40" class="node">
<title>Node48</title>
<g id="a_node40"><a xlink:href="../../db/d30/classCDataVector.html" target="_top" xlink:title=" ">
<polygon fill="white" stroke="black" points="675,-358.29 675,-377.29 836,-377.29 836,-358.29 675,-358.29"/>
<text text-anchor="middle" x="755.5" y="-365.29" font-family="FreeSans" font-size="10.00">CDataVector&lt; CLGradientBase &gt;</text>
</a>
</g>
</g>
<!-- Node1&#45;&gt;Node48 -->
<g id="edge49" class="edge">
<title>Node1&#45;&gt;Node48</title>
<path fill="none" stroke="orange" stroke-dasharray="5,2" d="M440.21,-789.73C441.48,-711.31 450.53,-427.09 515,-371.79 538.32,-351.79 614.5,-353.54 674.75,-358.6"/>
<polygon fill="orange" stroke="orange" points="436.7,-790.08 440.07,-800.12 443.7,-790.17 436.7,-790.08"/>
<text text-anchor="middle" x="584.5" y="-374.79" font-family="FreeSans" font-size="10.00"> &lt; CLGradientBase &gt;</text>
</g>
<!-- Node49 -->
<g id="node41" class="node">
<title>Node49</title>
<g id="a_node41"><a xlink:href="../../db/d30/classCDataVector.html" target="_top" xlink:title=" ">
<polygon fill="white" stroke="black" points="689.5,-320.29 689.5,-339.29 821.5,-339.29 821.5,-320.29 689.5,-320.29"/>
<text text-anchor="middle" x="755.5" y="-327.29" font-family="FreeSans" font-size="10.00">CDataVector&lt; CPlotItem &gt;</text>
</a>
</g>
</g>
<!-- Node1&#45;&gt;Node49 -->
<g id="edge50" class="edge">
<title>Node1&#45;&gt;Node49</title>
<path fill="none" stroke="orange" stroke-dasharray="5,2" d="M440.01,-789.96C440.49,-708.58 446.86,-401.66 515,-340.79 539.87,-318.57 627.45,-319.86 689.49,-323.93"/>
<polygon fill="orange" stroke="orange" points="436.51,-790.26 439.97,-800.27 443.51,-790.29 436.51,-790.26"/>
<text text-anchor="middle" x="584.5" y="-343.79" font-family="FreeSans" font-size="10.00"> &lt; CPlotItem &gt;</text>
</g>
<!-- Node50 -->
<g id="node42" class="node">
<title>Node50</title>
<g id="a_node42"><a xlink:href="../../db/d30/classCDataVector.html" target="_top" xlink:title=" ">
<polygon fill="white" stroke="black" points="683.5,-282.29 683.5,-301.29 827.5,-301.29 827.5,-282.29 683.5,-282.29"/>
<text text-anchor="middle" x="755.5" y="-289.29" font-family="FreeSans" font-size="10.00">CDataVector&lt; CDataObject &gt;</text>
</a>
</g>
</g>
<!-- Node1&#45;&gt;Node50 -->
<g id="edge51" class="edge">
<title>Node1&#45;&gt;Node50</title>
<path fill="none" stroke="orange" stroke-dasharray="5,2" d="M439.8,-789.92C439.4,-704.92 442.56,-373.29 515,-306.79 571.32,-255.09 669.95,-269.8 721.3,-282.28"/>
<polygon fill="orange" stroke="orange" points="436.3,-790.05 439.87,-800.02 443.3,-790 436.3,-790.05"/>
<text text-anchor="middle" x="584.5" y="-309.79" font-family="FreeSans" font-size="10.00"> &lt; CDataObject &gt;</text>
</g>
<!-- Node51 -->
<g id="node43" class="node">
<title>Node51</title>
<g id="a_node43"><a xlink:href="../../db/d30/classCDataVector.html" target="_top" xlink:title=" ">
<polygon fill="white" stroke="black" points="683,-244.29 683,-263.29 828,-263.29 828,-244.29 683,-244.29"/>
<text text-anchor="middle" x="755.5" y="-251.29" font-family="FreeSans" font-size="10.00">CDataVector&lt; CLTextGlyph &gt;</text>
</a>
</g>
</g>
<!-- Node1&#45;&gt;Node51 -->
<g id="edge52" class="edge">
<title>Node1&#45;&gt;Node51</title>
<path fill="none" stroke="orange" stroke-dasharray="5,2" d="M441.18,-789.73C447,-694.59 473.93,-291.98 515,-255.79 539.1,-234.56 621.34,-238.22 682.77,-244.47"/>
<polygon fill="orange" stroke="orange" points="437.68,-789.79 440.57,-799.98 444.66,-790.21 437.68,-789.79"/>
<text text-anchor="middle" x="584.5" y="-258.79" font-family="FreeSans" font-size="10.00"> &lt; CLTextGlyph &gt;</text>
</g>
<!-- Node52 -->
<g id="node44" class="node">
<title>Node52</title>
<g id="a_node44"><a xlink:href="../../db/d30/classCDataVector.html" target="_top" xlink:title=" ">
<polygon fill="white" stroke="black" points="681,-206.29 681,-225.29 830,-225.29 830,-206.29 681,-206.29"/>
<text text-anchor="middle" x="755.5" y="-213.29" font-family="FreeSans" font-size="10.00">CDataVector&lt; CLLineEnding &gt;</text>
</a>
</g>
</g>
<!-- Node1&#45;&gt;Node52 -->
<g id="edge53" class="edge">
<title>Node1&#45;&gt;Node52</title>
<path fill="none" stroke="orange" stroke-dasharray="5,2" d="M441.05,-789.88C446.42,-691.87 472.19,-263.91 515,-224.79 538.5,-203.32 619.46,-204.3 680.8,-208.56"/>
<polygon fill="orange" stroke="orange" points="437.55,-789.75 440.51,-799.92 444.54,-790.12 437.55,-789.75"/>
<text text-anchor="middle" x="584.5" y="-227.79" font-family="FreeSans" font-size="10.00"> &lt; CLLineEnding &gt;</text>
</g>
<!-- Node53 -->
<g id="node45" class="node">
<title>Node53</title>
<g id="a_node45"><a xlink:href="../../db/d30/classCDataVector.html" target="_top" xlink:title=" ">
<polygon fill="white" stroke="black" points="683,-168.29 683,-187.29 828,-187.29 828,-168.29 683,-168.29"/>
<text text-anchor="middle" x="755.5" y="-175.29" font-family="FreeSans" font-size="10.00">CDataVector&lt; CFittingPoint &gt;</text>
</a>
</g>
</g>
<!-- Node1&#45;&gt;Node53 -->
<g id="edge54" class="edge">
<title>Node1&#45;&gt;Node53</title>
<path fill="none" stroke="orange" stroke-dasharray="5,2" d="M440.93,-789.74C445.85,-688.19 470.25,-233.83 515,-191.79 538.49,-169.72 621.1,-169.22 682.76,-172.27"/>
<polygon fill="orange" stroke="orange" points="437.43,-789.71 440.45,-799.86 444.42,-790.04 437.43,-789.71"/>
<text text-anchor="middle" x="584.5" y="-194.79" font-family="FreeSans" font-size="10.00"> &lt; CFittingPoint &gt;</text>
</g>
<!-- Node54 -->
<g id="node46" class="node">
<title>Node54</title>
<g id="a_node46"><a xlink:href="../../db/d30/classCDataVector.html" target="_top" xlink:title=" ">
<polygon fill="white" stroke="black" points="682,-130.29 682,-149.29 829,-149.29 829,-130.29 682,-130.29"/>
<text text-anchor="middle" x="755.5" y="-137.29" font-family="FreeSans" font-size="10.00">CDataVector&lt; CLLocalStyle &gt;</text>
</a>
</g>
</g>
<!-- Node1&#45;&gt;Node54 -->
<g id="edge55" class="edge">
<title>Node1&#45;&gt;Node54</title>
<path fill="none" stroke="orange" stroke-dasharray="5,2" d="M440.81,-789.62C445.24,-684.41 468.03,-201.76 515,-156.79 570.1,-104.04 668.81,-118.02 720.62,-130.28"/>
<polygon fill="orange" stroke="orange" points="437.31,-789.68 440.39,-799.81 444.3,-789.97 437.31,-789.68"/>
<text text-anchor="middle" x="584.5" y="-159.79" font-family="FreeSans" font-size="10.00"> &lt; CLLocalStyle &gt;</text>
</g>
<!-- Node55 -->
<g id="node47" class="node">
<title>Node55</title>
<g id="a_node47"><a xlink:href="../../db/d30/classCDataVector.html" target="_top" xlink:title=" ">
<polygon fill="white" stroke="black" points="692,-92.29 692,-111.29 819,-111.29 819,-92.29 692,-92.29"/>
<text text-anchor="middle" x="755.5" y="-99.29" font-family="FreeSans" font-size="10.00">CDataVector&lt; CCreator &gt;</text>
</a>
</g>
</g>
<!-- Node1&#45;&gt;Node55 -->
<g id="edge56" class="edge">
<title>Node1&#45;&gt;Node55</title>
<path fill="none" stroke="orange" stroke-dasharray="5,2" d="M440.57,-790.05C443.93,-680.69 462.81,-152.32 515,-104.79 539.98,-82.04 629.75,-86.97 691.99,-93.6"/>
<polygon fill="orange" stroke="orange" points="437.07,-789.95 440.27,-800.05 444.07,-790.16 437.07,-789.95"/>
<text text-anchor="middle" x="584.5" y="-107.79" font-family="FreeSans" font-size="10.00"> &lt; CCreator &gt;</text>
</g>
<!-- Node56 -->
<g id="node48" class="node">
<title>Node56</title>
<g id="a_node48"><a xlink:href="../../db/d30/classCDataVector.html" target="_top" xlink:title=" ">
<polygon fill="white" stroke="black" points="675.5,-54.29 675.5,-73.29 835.5,-73.29 835.5,-54.29 675.5,-54.29"/>
<text text-anchor="middle" x="755.5" y="-61.29" font-family="FreeSans" font-size="10.00">CDataVector&lt; CLGeneralGlyph &gt;</text>
</a>
</g>
</g>
<!-- Node1&#45;&gt;Node56 -->
<g id="edge57" class="edge">
<title>Node1&#45;&gt;Node56</title>
<path fill="none" stroke="orange" stroke-dasharray="5,2" d="M440.51,-789.93C443.56,-677.52 461.27,-124.4 515,-73.79 537.53,-52.57 614.74,-52.63 675.48,-56.41"/>
<polygon fill="orange" stroke="orange" points="437,-790.08 440.24,-800.16 444,-790.26 437,-790.08"/>
<text text-anchor="middle" x="584.5" y="-76.79" font-family="FreeSans" font-size="10.00"> &lt; CLGeneralGlyph &gt;</text>
</g>
<!-- Node57 -->
<g id="node49" class="node">
<title>Node57</title>
<g id="a_node49"><a xlink:href="../../db/d30/classCDataVector.html" target="_top" xlink:title=" ">
<polygon fill="white" stroke="black" points="688.5,-4.79 688.5,-34.79 822.5,-34.79 822.5,-4.79 688.5,-4.79"/>
<text text-anchor="start" x="696.5" y="-22.79" font-family="FreeSans" font-size="10.00">CDataVector&lt; CLGraphical</text>
<text text-anchor="middle" x="755.5" y="-11.79" font-family="FreeSans" font-size="10.00">Object &gt;</text>
</a>
</g>
</g>
<!-- Node1&#45;&gt;Node57 -->
<g id="edge58" class="edge">
<title>Node1&#45;&gt;Node57</title>
<path fill="none" stroke="orange" stroke-dasharray="5,2" d="M440.44,-790.13C443.21,-675.27 459.88,-94.16 515,-39.79 559.78,4.38 634.87,3.46 689.05,-4.76"/>
<polygon fill="orange" stroke="orange" points="436.94,-790.2 440.2,-800.28 443.94,-790.36 436.94,-790.2"/>
<text text-anchor="middle" x="584.5" y="-42.79" font-family="FreeSans" font-size="10.00"> &lt; CLGraphicalObject &gt;</text>
</g>
<!-- Node2 -->
<g id="node2" class="node">
<title>Node2</title>
<g id="a_node2"><a xlink:title=" ">
<polygon fill="white" stroke="#bfbfbf" points="259.5,-816.29 259.5,-835.29 343.5,-835.29 343.5,-816.29 259.5,-816.29"/>
<text text-anchor="middle" x="301.5" y="-823.29" font-family="FreeSans" font-size="10.00">std::vector&lt; T &gt;</text>
</a>
</g>
</g>
<!-- Node2&#45;&gt;Node1 -->
<g id="edge1" class="edge">
<title>Node2&#45;&gt;Node1</title>
<path fill="none" stroke="darkgreen" d="M353.64,-819.75C362.45,-818.71 371.66,-817.62 380.62,-816.57"/>
<polygon fill="darkgreen" stroke="darkgreen" points="353.04,-816.3 343.52,-820.95 353.86,-823.25 353.04,-816.3"/>
</g>
<!-- Node3 -->
<g id="node3" class="node">
<title>Node3</title>
<g id="a_node3"><a xlink:href="../../d3/db9/classCDataContainer.html" target="_top" xlink:title=" ">
<polygon fill="white" stroke="black" points="259,-778.29 259,-797.29 344,-797.29 344,-778.29 259,-778.29"/>
<text text-anchor="middle" x="301.5" y="-785.29" font-family="FreeSans" font-size="10.00">CDataContainer</text>
</a>
</g>
</g>
<!-- Node3&#45;&gt;Node1 -->
<g id="edge2" class="edge">
<title>Node3&#45;&gt;Node1</title>
<path fill="none" stroke="midnightblue" d="M354.21,-796.19C362.87,-797.59 371.89,-799.06 380.68,-800.48"/>
<polygon fill="midnightblue" stroke="midnightblue" points="354.69,-792.72 344.26,-794.57 353.57,-799.63 354.69,-792.72"/>
</g>
<!-- Node4 -->
<g id="node4" class="node">
<title>Node4</title>
<g id="a_node4"><a xlink:href="../../d1/d6b/classCDataObject.html" target="_top" xlink:title=" ">
<polygon fill="white" stroke="black" points="150,-778.29 150,-797.29 222,-797.29 222,-778.29 150,-778.29"/>
<text text-anchor="middle" x="186" y="-785.29" font-family="FreeSans" font-size="10.00">CDataObject</text>
</a>
</g>
</g>
<!-- Node4&#45;&gt;Node3 -->
<g id="edge3" class="edge">
<title>Node4&#45;&gt;Node3</title>
<path fill="none" stroke="midnightblue" d="M232.34,-787.79C241.1,-787.79 250.23,-787.79 258.86,-787.79"/>
<polygon fill="midnightblue" stroke="midnightblue" points="232.29,-784.29 222.29,-787.79 232.29,-791.29 232.29,-784.29"/>
</g>
<!-- Node5 -->
<g id="node5" class="node">
<title>Node5</title>
<g id="a_node5"><a xlink:href="../../df/dfa/classCObjectInterface.html" target="_top" xlink:title=" ">
<polygon fill="white" stroke="black" points="11.5,-797.29 11.5,-816.29 101.5,-816.29 101.5,-797.29 11.5,-797.29"/>
<text text-anchor="middle" x="56.5" y="-804.29" font-family="FreeSans" font-size="10.00">CObjectInterface</text>
</a>
</g>
</g>
<!-- Node5&#45;&gt;Node4 -->
<g id="edge4" class="edge">
<title>Node5&#45;&gt;Node4</title>
<path fill="none" stroke="midnightblue" d="M111.85,-798.69C124.65,-796.78 137.97,-794.8 149.68,-793.06"/>
<polygon fill="midnightblue" stroke="midnightblue" points="111.11,-795.26 101.74,-800.2 112.14,-802.19 111.11,-795.26"/>
</g>
<!-- Node6 -->
<g id="node6" class="node">
<title>Node6</title>
<g id="a_node6"><a xlink:href="../../d8/d53/classCUndoObjectInterface.html" target="_top" xlink:title=" ">
<polygon fill="white" stroke="black" points="0,-759.29 0,-778.29 113,-778.29 113,-759.29 0,-759.29"/>
<text text-anchor="middle" x="56.5" y="-766.29" font-family="FreeSans" font-size="10.00">CUndoObjectInterface</text>
</a>
</g>
</g>
<!-- Node6&#45;&gt;Node4 -->
<g id="edge5" class="edge">
<title>Node6&#45;&gt;Node4</title>
<path fill="none" stroke="midnightblue" d="M123.05,-778.56C132.28,-779.94 141.46,-781.3 149.82,-782.55"/>
<polygon fill="midnightblue" stroke="midnightblue" points="123.46,-775.08 113.05,-777.07 122.43,-782.01 123.46,-775.08"/>
</g>
<!-- Node10 -->
<g id="node10" class="node">
<title>Node10</title>
<g id="a_node10"><a xlink:href="../../d0/d08/classCListOfLayouts.html" target="_top" xlink:title=" ">
<polygon fill="white" stroke="black" points="1208,-1737.29 1208,-1756.29 1293,-1756.29 1293,-1737.29 1208,-1737.29"/>
<text text-anchor="middle" x="1250.5" y="-1744.29" font-family="FreeSans" font-size="10.00">CListOfLayouts</text>
</a>
</g>
</g>
<!-- Node9&#45;&gt;Node10 -->
<g id="edge9" class="edge">
<title>Node9&#45;&gt;Node10</title>
<path fill="none" stroke="midnightblue" d="M1152.64,-1746.79C1171.56,-1746.79 1191.2,-1746.79 1207.81,-1746.79"/>
<polygon fill="midnightblue" stroke="midnightblue" points="1152.53,-1743.29 1142.53,-1746.79 1152.53,-1750.29 1152.53,-1743.29"/>
</g>
<!-- Node12 -->
<g id="node12" class="node">
<title>Node12</title>
<g id="a_node12"><a xlink:href="../../d4/d26/classCUnitDefinitionDB.html" target="_top" xlink:title=" ">
<polygon fill="white" stroke="black" points="1203,-1602.29 1203,-1621.29 1298,-1621.29 1298,-1602.29 1203,-1602.29"/>
<text text-anchor="middle" x="1250.5" y="-1609.29" font-family="FreeSans" font-size="10.00">CUnitDefinitionDB</text>
</a>
</g>
</g>
<!-- Node11&#45;&gt;Node12 -->
<g id="edge11" class="edge">
<title>Node11&#45;&gt;Node12</title>
<path fill="none" stroke="midnightblue" d="M1167.49,-1611.79C1179.73,-1611.79 1191.86,-1611.79 1202.88,-1611.79"/>
<polygon fill="midnightblue" stroke="midnightblue" points="1167.21,-1608.29 1157.21,-1611.79 1167.21,-1615.29 1167.21,-1608.29"/>
</g>
<!-- Node21&#45;&gt;Node7 -->
<g id="edge19" class="edge">
<title>Node21&#45;&gt;Node7</title>
<path fill="none" stroke="orange" stroke-dasharray="5,2" d="M764.63,-1516.76C778.83,-1547.61 811.07,-1608.55 857,-1641.79 898.39,-1671.74 953.68,-1687.77 998.29,-1696.29"/>
<polygon fill="orange" stroke="orange" points="767.79,-1515.24 760.52,-1507.53 761.4,-1518.09 767.79,-1515.24"/>
<text text-anchor="middle" x="913" y="-1690.79" font-family="FreeSans" font-size="10.00"> &lt; CEventAssignment &gt;</text>
</g>
<!-- Node21&#45;&gt;Node8 -->
<g id="edge20" class="edge">
<title>Node21&#45;&gt;Node8</title>
<path fill="none" stroke="orange" stroke-dasharray="5,2" d="M772.02,-1514.89C790.57,-1534.42 823.32,-1566.2 857,-1585.79 889.37,-1604.63 990.54,-1636.35 1043.09,-1652.19"/>
<polygon fill="orange" stroke="orange" points="774.37,-1512.27 764.99,-1507.34 769.25,-1517.04 774.37,-1512.27"/>
<text text-anchor="middle" x="913" y="-1629.79" font-family="FreeSans" font-size="10.00"> &lt; CCopasiTask &gt;</text>
</g>
<!-- Node21&#45;&gt;Node9 -->
<g id="edge21" class="edge">
<title>Node21&#45;&gt;Node9</title>
<path fill="none" stroke="orange" stroke-dasharray="5,2" d="M760.09,-1517.3C768.76,-1558.58 794.89,-1654.9 857,-1702.79 900.67,-1736.46 963.42,-1746.28 1010.49,-1748.37"/>
<polygon fill="orange" stroke="orange" points="763.5,-1516.54 758.13,-1507.41 756.64,-1517.9 763.5,-1516.54"/>
<text text-anchor="middle" x="913" y="-1746.79" font-family="FreeSans" font-size="10.00"> &lt; CLayout &gt;</text>
</g>
<!-- Node21&#45;&gt;Node11 -->
<g id="edge22" class="edge">
<title>Node21&#45;&gt;Node11</title>
<path fill="none" stroke="orange" stroke-dasharray="5,2" d="M792.93,-1510.81C857.74,-1533.97 991.57,-1581.8 1048.7,-1602.21"/>
<polygon fill="orange" stroke="orange" points="793.74,-1507.38 783.15,-1507.31 791.39,-1513.98 793.74,-1507.38"/>
<text text-anchor="middle" x="913" y="-1573.79" font-family="FreeSans" font-size="10.00"> &lt; CUnitDefinition &gt;</text>
</g>
<!-- Node21&#45;&gt;Node13 -->
<g id="edge23" class="edge">
<title>Node21&#45;&gt;Node13</title>
<path fill="none" stroke="orange" stroke-dasharray="5,2" d="M786.81,-1484.09C806.58,-1475.41 833.06,-1464.27 857,-1455.79 919.78,-1433.55 994.58,-1412.86 1038.37,-1401.32"/>
<polygon fill="orange" stroke="orange" points="785.14,-1481 777.41,-1488.25 787.97,-1487.4 785.14,-1481"/>
<text text-anchor="middle" x="913" y="-1458.79" font-family="FreeSans" font-size="10.00"> &lt; CPlotSpecification &gt;</text>
</g>
<!-- Node21&#45;&gt;Node15 -->
<g id="edge24" class="edge">
<title>Node21&#45;&gt;Node15</title>
<path fill="none" stroke="orange" stroke-dasharray="5,2" d="M821.62,-1486.69C833.38,-1484.89 845.54,-1483.17 857,-1481.79 901.97,-1476.37 952.34,-1472.1 993.38,-1469.08"/>
<polygon fill="orange" stroke="orange" points="820.77,-1483.28 811.42,-1488.28 821.84,-1490.2 820.77,-1483.28"/>
<text text-anchor="middle" x="913" y="-1484.79" font-family="FreeSans" font-size="10.00"> &lt; CModelParameterSet &gt;</text>
</g>
<!-- Node21&#45;&gt;Node16 -->
<g id="edge25" class="edge">
<title>Node21&#45;&gt;Node16</title>
<path fill="none" stroke="orange" stroke-dasharray="5,2" d="M764.7,-1478.74C778.98,-1447.72 811.35,-1386.3 857,-1351.79 903.97,-1316.29 969.04,-1297.16 1015.94,-1287.31"/>
<polygon fill="orange" stroke="orange" points="761.44,-1477.46 760.55,-1488.01 767.83,-1480.31 761.44,-1477.46"/>
<text text-anchor="middle" x="913" y="-1354.79" font-family="FreeSans" font-size="10.00"> &lt; CFunction &gt;</text>
</g>
<!-- Node21&#45;&gt;Node17 -->
<g id="edge26" class="edge">
<title>Node21&#45;&gt;Node17</title>
<path fill="none" stroke="orange" stroke-dasharray="5,2" d="M827.5,-1502.65C868.85,-1505.77 921.95,-1510.27 969,-1515.79 984.51,-1517.61 1001.23,-1519.95 1016.72,-1522.27"/>
<polygon fill="orange" stroke="orange" points="827.75,-1499.16 817.52,-1501.91 827.23,-1506.14 827.75,-1499.16"/>
<text text-anchor="middle" x="913" y="-1518.79" font-family="FreeSans" font-size="10.00"> &lt; CModelValue &gt;</text>
</g>
<!-- Node21&#45;&gt;Node18 -->
<g id="edge27" class="edge">
<title>Node21&#45;&gt;Node18</title>
<path fill="none" stroke="orange" stroke-dasharray="5,2" d="M770.83,-1480.51C788.84,-1459.91 821.7,-1425.88 857,-1406.79 903.03,-1381.89 960.48,-1367.46 1004.91,-1359.35"/>
<polygon fill="orange" stroke="orange" points="768.1,-1478.31 764.26,-1488.19 773.42,-1482.86 768.1,-1478.31"/>
<text text-anchor="middle" x="913" y="-1409.79" font-family="FreeSans" font-size="10.00"> &lt; CReportDefinition &gt;</text>
</g>
<!-- Node28&#45;&gt;Node20 -->
<g id="edge29" class="edge">
<title>Node28&#45;&gt;Node20</title>
<path fill="none" stroke="orange" stroke-dasharray="5,2" d="M827.08,-1201.39C868.51,-1203.34 921.82,-1206.6 969,-1211.79 986.4,-1213.71 1005.3,-1216.49 1022.28,-1219.25"/>
<polygon fill="orange" stroke="orange" points="827.24,-1197.89 817.09,-1200.93 826.92,-1204.88 827.24,-1197.89"/>
<text text-anchor="middle" x="913" y="-1214.79" font-family="FreeSans" font-size="10.00"> &lt; CMetabOld &gt;</text>
</g>
</g>
</svg>
