<?xml version="1.0" encoding="UTF-8" standalone="no"?>
<!DOCTYPE svg PUBLIC "-//W3C//DTD SVG 1.1//EN"
 "http://www.w3.org/Graphics/SVG/1.1/DTD/svg11.dtd">
<!-- Generated by graphviz version 2.43.0 (0)
 -->
<!-- Title: CCallParameters&lt; Type &gt; Pages: 1 -->
<svg width="294pt" height="163pt"
 viewBox="0.00 0.00 293.50 163.00" xmlns="http://www.w3.org/2000/svg" xmlns:xlink="http://www.w3.org/1999/xlink">
<g id="graph0" class="graph" transform="scale(1 1) rotate(0) translate(4 159)">
<title>CCallParameters&lt; Type &gt;</title>
<polygon fill="white" stroke="transparent" points="-4,4 -4,-159 289.5,-159 289.5,4 -4,4"/>
<!-- Node1 -->
<g id="node1" class="node">
<title>Node1</title>
<g id="a_node1"><a xlink:title=" ">
<polygon fill="#bfbfbf" stroke="black" points="64.5,-78.5 64.5,-97.5 192.5,-97.5 192.5,-78.5 64.5,-78.5"/>
<text text-anchor="middle" x="128.5" y="-85.5" font-family="FreeSans" font-size="10.00">CCallParameters&lt; Type &gt;</text>
</a>
</g>
</g>
<!-- Node3 -->
<g id="node3" class="node">
<title>Node3</title>
<g id="a_node3"><a xlink:href="../../dd/df3/classCCallParameters.html" target="_top" xlink:title=" ">
<polygon fill="white" stroke="black" points="0,-0.5 0,-30.5 105,-30.5 105,-0.5 0,-0.5"/>
<text text-anchor="start" x="8" y="-18.5" font-family="FreeSans" font-size="10.00">CCallParameters&lt; C</text>
<text text-anchor="middle" x="52.5" y="-7.5" font-family="FreeSans" font-size="10.00">_FLOAT64 &gt;</text>
</a>
</g>
</g>
<!-- Node1&#45;&gt;Node3 -->
<g id="edge2" class="edge">
<title>Node1&#45;&gt;Node3</title>
<path fill="none" stroke="orange" stroke-dasharray="5,2" d="M111.73,-71.44C98.57,-59.23 80.41,-42.39 67.67,-30.58"/>
<polygon fill="orange" stroke="orange" points="109.47,-74.12 119.18,-78.36 114.23,-68.99 109.47,-74.12"/>
<text text-anchor="middle" x="134.5" y="-52" font-family="FreeSans" font-size="10.00"> &lt; C_FLOAT64 &gt;</text>
</g>
<!-- Node4 -->
<g id="node4" class="node">
<title>Node4</title>
<g id="a_node4"><a xlink:href="../../dd/df3/classCCallParameters.html" target="_top" xlink:title=" ">
<polygon fill="white" stroke="black" points="123.5,-6 123.5,-25 285.5,-25 285.5,-6 123.5,-6"/>
<text text-anchor="middle" x="204.5" y="-13" font-family="FreeSans" font-size="10.00">CCallParameters&lt; CDataObject &gt;</text>
</a>
</g>
</g>
<!-- Node1&#45;&gt;Node4 -->
<g id="edge3" class="edge">
<title>Node1&#45;&gt;Node4</title>
<path fill="none" stroke="orange" stroke-dasharray="5,2" d="M157.31,-73.26C163.69,-69.47 170.14,-65.01 175.5,-60 186.5,-49.71 195.43,-34.47 200.35,-25.03"/>
<polygon fill="orange" stroke="orange" points="155.22,-70.41 148.14,-78.3 158.59,-76.55 155.22,-70.41"/>
<text text-anchor="middle" x="223" y="-52" font-family="FreeSans" font-size="10.00"> &lt; CDataObject &gt;</text>
</g>
<!-- Node2 -->
<g id="node2" class="node">
<title>Node2</title>
<g id="a_node2"><a xlink:title=" ">
<polygon fill="white" stroke="#bfbfbf" points="86.5,-135.5 86.5,-154.5 170.5,-154.5 170.5,-135.5 86.5,-135.5"/>
<text text-anchor="middle" x="128.5" y="-142.5" font-family="FreeSans" font-size="10.00">std::vector&lt; T &gt;</text>
</a>
</g>
</g>
<!-- Node2&#45;&gt;Node1 -->
<g id="edge1" class="edge">
<title>Node2&#45;&gt;Node1</title>
<path fill="none" stroke="#8b1a1a" d="M128.5,-125.12C128.5,-115.82 128.5,-105.06 128.5,-97.71"/>
<polygon fill="#8b1a1a" stroke="#8b1a1a" points="125,-125.41 128.5,-135.41 132,-125.41 125,-125.41"/>
</g>
</g>
</svg>
