<?xml version="1.0" encoding="UTF-8" standalone="no"?>
<!DOCTYPE svg PUBLIC "-//W3C//DTD SVG 1.1//EN"
 "http://www.w3.org/Graphics/SVG/1.1/DTD/svg11.dtd">
<!-- Generated by graphviz version 2.43.0 (0)
 -->
<!-- Title: CUnitDefinition Pages: 1 -->
<svg width="303pt" height="196pt"
 viewBox="0.00 0.00 303.00 196.00" xmlns="http://www.w3.org/2000/svg" xmlns:xlink="http://www.w3.org/1999/xlink">
<g id="graph0" class="graph" transform="scale(1 1) rotate(0) translate(4 192)">
<title>CUnitDefinition</title>
<polygon fill="white" stroke="transparent" points="-4,4 -4,-192 299,-192 299,4 -4,4"/>
<!-- Node1 -->
<g id="node1" class="node">
<title>Node1</title>
<g id="a_node1"><a xlink:title=" ">
<polygon fill="#bfbfbf" stroke="black" points="145.5,-0.5 145.5,-19.5 226.5,-19.5 226.5,-0.5 145.5,-0.5"/>
<text text-anchor="middle" x="186" y="-7.5" font-family="FreeSans" font-size="10.00">CUnitDefinition</text>
</a>
</g>
</g>
<!-- Node2 -->
<g id="node2" class="node">
<title>Node2</title>
<g id="a_node2"><a xlink:href="../../d3/db9/classCDataContainer.html" target="_top" xlink:title=" ">
<polygon fill="white" stroke="black" points="62.5,-56.5 62.5,-75.5 147.5,-75.5 147.5,-56.5 62.5,-56.5"/>
<text text-anchor="middle" x="105" y="-63.5" font-family="FreeSans" font-size="10.00">CDataContainer</text>
</a>
</g>
</g>
<!-- Node2&#45;&gt;Node1 -->
<g id="edge1" class="edge">
<title>Node2&#45;&gt;Node1</title>
<path fill="none" stroke="midnightblue" d="M126.57,-50.62C141.36,-40.76 160.51,-27.99 173.02,-19.65"/>
<polygon fill="midnightblue" stroke="midnightblue" points="124.39,-47.86 118.01,-56.32 128.28,-53.69 124.39,-47.86"/>
</g>
<!-- Node3 -->
<g id="node3" class="node">
<title>Node3</title>
<g id="a_node3"><a xlink:href="../../d1/d6b/classCDataObject.html" target="_top" xlink:title=" ">
<polygon fill="white" stroke="black" points="69,-112.5 69,-131.5 141,-131.5 141,-112.5 69,-112.5"/>
<text text-anchor="middle" x="105" y="-119.5" font-family="FreeSans" font-size="10.00">CDataObject</text>
</a>
</g>
</g>
<!-- Node3&#45;&gt;Node2 -->
<g id="edge2" class="edge">
<title>Node3&#45;&gt;Node2</title>
<path fill="none" stroke="midnightblue" d="M105,-101.8C105,-92.91 105,-82.78 105,-75.75"/>
<polygon fill="midnightblue" stroke="midnightblue" points="101.5,-102.08 105,-112.08 108.5,-102.08 101.5,-102.08"/>
</g>
<!-- Node4 -->
<g id="node4" class="node">
<title>Node4</title>
<g id="a_node4"><a xlink:href="../../df/dfa/classCObjectInterface.html" target="_top" xlink:title=" ">
<polygon fill="white" stroke="black" points="0,-168.5 0,-187.5 90,-187.5 90,-168.5 0,-168.5"/>
<text text-anchor="middle" x="45" y="-175.5" font-family="FreeSans" font-size="10.00">CObjectInterface</text>
</a>
</g>
</g>
<!-- Node4&#45;&gt;Node3 -->
<g id="edge3" class="edge">
<title>Node4&#45;&gt;Node3</title>
<path fill="none" stroke="midnightblue" d="M62.18,-161.54C72.88,-151.91 86.26,-139.87 95.18,-131.83"/>
<polygon fill="midnightblue" stroke="midnightblue" points="59.73,-159.03 54.64,-168.32 64.41,-164.24 59.73,-159.03"/>
</g>
<!-- Node5 -->
<g id="node5" class="node">
<title>Node5</title>
<g id="a_node5"><a xlink:href="../../d8/d53/classCUndoObjectInterface.html" target="_top" xlink:title=" ">
<polygon fill="white" stroke="black" points="108.5,-168.5 108.5,-187.5 221.5,-187.5 221.5,-168.5 108.5,-168.5"/>
<text text-anchor="middle" x="165" y="-175.5" font-family="FreeSans" font-size="10.00">CUndoObjectInterface</text>
</a>
</g>
</g>
<!-- Node5&#45;&gt;Node3 -->
<g id="edge4" class="edge">
<title>Node5&#45;&gt;Node3</title>
<path fill="none" stroke="midnightblue" d="M147.82,-161.54C137.12,-151.91 123.74,-139.87 114.82,-131.83"/>
<polygon fill="midnightblue" stroke="midnightblue" points="145.59,-164.24 155.36,-168.32 150.27,-159.03 145.59,-164.24"/>
</g>
<!-- Node6 -->
<g id="node6" class="node">
<title>Node6</title>
<g id="a_node6"><a xlink:href="../../da/daa/classCUnit.html" target="_top" xlink:title=" ">
<polygon fill="white" stroke="black" points="165.5,-56.5 165.5,-75.5 206.5,-75.5 206.5,-56.5 165.5,-56.5"/>
<text text-anchor="middle" x="186" y="-63.5" font-family="FreeSans" font-size="10.00">CUnit</text>
</a>
</g>
</g>
<!-- Node6&#45;&gt;Node1 -->
<g id="edge5" class="edge">
<title>Node6&#45;&gt;Node1</title>
<path fill="none" stroke="midnightblue" d="M186,-45.8C186,-36.91 186,-26.78 186,-19.75"/>
<polygon fill="midnightblue" stroke="midnightblue" points="182.5,-46.08 186,-56.08 189.5,-46.08 182.5,-46.08"/>
</g>
<!-- Node7 -->
<g id="node7" class="node">
<title>Node7</title>
<g id="a_node7"><a xlink:href="../../d8/dfc/classCAnnotation.html" target="_top" xlink:title=" ">
<polygon fill="white" stroke="black" points="225,-56.5 225,-75.5 295,-75.5 295,-56.5 225,-56.5"/>
<text text-anchor="middle" x="260" y="-63.5" font-family="FreeSans" font-size="10.00">CAnnotation</text>
</a>
</g>
</g>
<!-- Node7&#45;&gt;Node1 -->
<g id="edge6" class="edge">
<title>Node7&#45;&gt;Node1</title>
<path fill="none" stroke="midnightblue" d="M239.97,-50.38C226.59,-40.62 209.44,-28.11 198.11,-19.83"/>
<polygon fill="midnightblue" stroke="midnightblue" points="237.97,-53.26 248.11,-56.32 242.1,-47.6 237.97,-53.26"/>
</g>
</g>
</svg>
