<?xml version="1.0" encoding="UTF-8" standalone="no"?>
<!DOCTYPE svg PUBLIC "-//W3C//DTD SVG 1.1//EN"
 "http://www.w3.org/Graphics/SVG/1.1/DTD/svg11.dtd">
<!-- Generated by graphviz version 2.43.0 (0)
 -->
<!-- Title: COptPopulationMethod Pages: 1 -->
<svg width="1162pt" height="256pt"
 viewBox="0.00 0.00 1162.00 256.00" xmlns="http://www.w3.org/2000/svg" xmlns:xlink="http://www.w3.org/1999/xlink">
<g id="graph0" class="graph" transform="scale(1 1) rotate(0) translate(4 252)">
<title>COptPopulationMethod</title>
<polygon fill="white" stroke="transparent" points="-4,4 -4,-252 1158,-252 1158,4 -4,4"/>
<!-- Node1 -->
<g id="node1" class="node">
<title>Node1</title>
<g id="a_node1"><a xlink:title=" ">
<polygon fill="#bfbfbf" stroke="black" points="902,-114.5 902,-133.5 1019,-133.5 1019,-114.5 902,-114.5"/>
<text text-anchor="middle" x="960.5" y="-121.5" font-family="FreeSans" font-size="10.00">COptPopulationMethod</text>
</a>
</g>
</g>
<!-- Node10 -->
<g id="node10" class="node">
<title>Node10</title>
<g id="a_node10"><a xlink:href="../../d8/d76/classCOptMethodDE.html" target="_top" xlink:title=" ">
<polygon fill="white" stroke="black" points="1062.5,-228.5 1062.5,-247.5 1146.5,-247.5 1146.5,-228.5 1062.5,-228.5"/>
<text text-anchor="middle" x="1104.5" y="-235.5" font-family="FreeSans" font-size="10.00">COptMethodDE</text>
</a>
</g>
</g>
<!-- Node1&#45;&gt;Node10 -->
<g id="edge9" class="edge">
<title>Node1&#45;&gt;Node10</title>
<path fill="none" stroke="midnightblue" d="M975.02,-141.72C991.8,-162.65 1022.21,-197.36 1055,-219 1060.59,-222.69 1066.99,-225.83 1073.28,-228.43"/>
<polygon fill="midnightblue" stroke="midnightblue" points="977.63,-139.37 968.7,-133.67 972.13,-143.69 977.63,-139.37"/>
</g>
<!-- Node11 -->
<g id="node11" class="node">
<title>Node11</title>
<g id="a_node11"><a xlink:href="../../d6/d28/classCOptMethodEP.html" target="_top" xlink:title=" ">
<polygon fill="white" stroke="black" points="1062.5,-190.5 1062.5,-209.5 1146.5,-209.5 1146.5,-190.5 1062.5,-190.5"/>
<text text-anchor="middle" x="1104.5" y="-197.5" font-family="FreeSans" font-size="10.00">COptMethodEP</text>
</a>
</g>
</g>
<!-- Node1&#45;&gt;Node11 -->
<g id="edge10" class="edge">
<title>Node1&#45;&gt;Node11</title>
<path fill="none" stroke="midnightblue" d="M983.99,-139.25C1002.55,-151.44 1029.83,-168.51 1055,-181 1061.89,-184.42 1069.55,-187.66 1076.71,-190.46"/>
<polygon fill="midnightblue" stroke="midnightblue" points="985.9,-136.31 975.63,-133.69 982.02,-142.14 985.9,-136.31"/>
</g>
<!-- Node12 -->
<g id="node12" class="node">
<title>Node12</title>
<g id="a_node12"><a xlink:href="../../df/d4b/classCOptMethodGA.html" target="_top" xlink:title=" ">
<polygon fill="white" stroke="black" points="1061.5,-152.5 1061.5,-171.5 1147.5,-171.5 1147.5,-152.5 1061.5,-152.5"/>
<text text-anchor="middle" x="1104.5" y="-159.5" font-family="FreeSans" font-size="10.00">COptMethodGA</text>
</a>
</g>
</g>
<!-- Node1&#45;&gt;Node12 -->
<g id="edge11" class="edge">
<title>Node1&#45;&gt;Node12</title>
<path fill="none" stroke="midnightblue" d="M1006.99,-136.17C1026.63,-141.43 1049.27,-147.49 1067.68,-152.41"/>
<polygon fill="midnightblue" stroke="midnightblue" points="1007.9,-132.79 997.33,-133.59 1006.09,-139.56 1007.9,-132.79"/>
</g>
<!-- Node13 -->
<g id="node13" class="node">
<title>Node13</title>
<g id="a_node13"><a xlink:href="../../df/d09/classCOptMethodGASR.html" target="_top" xlink:title=" ">
<polygon fill="white" stroke="black" points="1055,-114.5 1055,-133.5 1154,-133.5 1154,-114.5 1055,-114.5"/>
<text text-anchor="middle" x="1104.5" y="-121.5" font-family="FreeSans" font-size="10.00">COptMethodGASR</text>
</a>
</g>
</g>
<!-- Node1&#45;&gt;Node13 -->
<g id="edge12" class="edge">
<title>Node1&#45;&gt;Node13</title>
<path fill="none" stroke="midnightblue" d="M1029.32,-124C1037.95,-124 1046.64,-124 1054.88,-124"/>
<polygon fill="midnightblue" stroke="midnightblue" points="1029.26,-120.5 1019.26,-124 1029.26,-127.5 1029.26,-120.5"/>
</g>
<!-- Node14 -->
<g id="node14" class="node">
<title>Node14</title>
<g id="a_node14"><a xlink:href="../../d6/dd4/classCOptMethodPS.html" target="_top" xlink:title=" ">
<polygon fill="white" stroke="black" points="1062,-76.5 1062,-95.5 1147,-95.5 1147,-76.5 1062,-76.5"/>
<text text-anchor="middle" x="1104.5" y="-83.5" font-family="FreeSans" font-size="10.00">COptMethodPS</text>
</a>
</g>
</g>
<!-- Node1&#45;&gt;Node14 -->
<g id="edge13" class="edge">
<title>Node1&#45;&gt;Node14</title>
<path fill="none" stroke="midnightblue" d="M1006.99,-111.83C1026.63,-106.57 1049.27,-100.51 1067.68,-95.59"/>
<polygon fill="midnightblue" stroke="midnightblue" points="1006.09,-108.44 997.33,-114.41 1007.9,-115.21 1006.09,-108.44"/>
</g>
<!-- Node15 -->
<g id="node15" class="node">
<title>Node15</title>
<g id="a_node15"><a xlink:href="../../da/d80/classCOptMethodSRES.html" target="_top" xlink:title=" ">
<polygon fill="white" stroke="black" points="1055.5,-38.5 1055.5,-57.5 1153.5,-57.5 1153.5,-38.5 1055.5,-38.5"/>
<text text-anchor="middle" x="1104.5" y="-45.5" font-family="FreeSans" font-size="10.00">COptMethodSRES</text>
</a>
</g>
</g>
<!-- Node1&#45;&gt;Node15 -->
<g id="edge14" class="edge">
<title>Node1&#45;&gt;Node15</title>
<path fill="none" stroke="midnightblue" d="M983.99,-108.75C1002.55,-96.56 1029.83,-79.49 1055,-67 1061.89,-63.58 1069.55,-60.34 1076.71,-57.54"/>
<polygon fill="midnightblue" stroke="midnightblue" points="982.02,-105.86 975.63,-114.31 985.9,-111.69 982.02,-105.86"/>
</g>
<!-- Node16 -->
<g id="node16" class="node">
<title>Node16</title>
<g id="a_node16"><a xlink:href="../../d3/da8/classCOptMethodSS.html" target="_top" xlink:title=" ">
<polygon fill="white" stroke="black" points="1062,-0.5 1062,-19.5 1147,-19.5 1147,-0.5 1062,-0.5"/>
<text text-anchor="middle" x="1104.5" y="-7.5" font-family="FreeSans" font-size="10.00">COptMethodSS</text>
</a>
</g>
</g>
<!-- Node1&#45;&gt;Node16 -->
<g id="edge15" class="edge">
<title>Node1&#45;&gt;Node16</title>
<path fill="none" stroke="midnightblue" d="M975.02,-106.28C991.8,-85.35 1022.21,-50.64 1055,-29 1060.59,-25.31 1066.99,-22.17 1073.28,-19.57"/>
<polygon fill="midnightblue" stroke="midnightblue" points="972.13,-104.31 968.7,-114.33 977.63,-108.63 972.13,-104.31"/>
</g>
<!-- Node2 -->
<g id="node2" class="node">
<title>Node2</title>
<g id="a_node2"><a xlink:href="../../dc/d24/classCOptMethod.html" target="_top" xlink:title=" ">
<polygon fill="white" stroke="black" points="795,-114.5 795,-133.5 866,-133.5 866,-114.5 795,-114.5"/>
<text text-anchor="middle" x="830.5" y="-121.5" font-family="FreeSans" font-size="10.00">COptMethod</text>
</a>
</g>
</g>
<!-- Node2&#45;&gt;Node1 -->
<g id="edge1" class="edge">
<title>Node2&#45;&gt;Node1</title>
<path fill="none" stroke="midnightblue" d="M876.24,-124C884.45,-124 893.12,-124 901.65,-124"/>
<polygon fill="midnightblue" stroke="midnightblue" points="876.14,-120.5 866.14,-124 876.14,-127.5 876.14,-120.5"/>
</g>
<!-- Node3 -->
<g id="node3" class="node">
<title>Node3</title>
<g id="a_node3"><a xlink:href="../../df/d49/classCCopasiMethod.html" target="_top" xlink:title=" ">
<polygon fill="white" stroke="black" points="673,-114.5 673,-133.5 759,-133.5 759,-114.5 673,-114.5"/>
<text text-anchor="middle" x="716" y="-121.5" font-family="FreeSans" font-size="10.00">CCopasiMethod</text>
</a>
</g>
</g>
<!-- Node3&#45;&gt;Node2 -->
<g id="edge2" class="edge">
<title>Node3&#45;&gt;Node2</title>
<path fill="none" stroke="midnightblue" d="M769.26,-124C777.91,-124 786.68,-124 794.76,-124"/>
<polygon fill="midnightblue" stroke="midnightblue" points="769.21,-120.5 759.21,-124 769.21,-127.5 769.21,-120.5"/>
</g>
<!-- Node4 -->
<g id="node4" class="node">
<title>Node4</title>
<g id="a_node4"><a xlink:href="../../df/d89/classCCopasiParameterGroup.html" target="_top" xlink:title=" ">
<polygon fill="white" stroke="black" points="512,-114.5 512,-133.5 637,-133.5 637,-114.5 512,-114.5"/>
<text text-anchor="middle" x="574.5" y="-121.5" font-family="FreeSans" font-size="10.00">CCopasiParameterGroup</text>
</a>
</g>
</g>
<!-- Node4&#45;&gt;Node3 -->
<g id="edge3" class="edge">
<title>Node4&#45;&gt;Node3</title>
<path fill="none" stroke="midnightblue" d="M647.36,-124C656.12,-124 664.83,-124 672.95,-124"/>
<polygon fill="midnightblue" stroke="midnightblue" points="647.09,-120.5 637.09,-124 647.09,-127.5 647.09,-120.5"/>
</g>
<!-- Node5 -->
<g id="node5" class="node">
<title>Node5</title>
<g id="a_node5"><a xlink:href="../../d5/db6/classCCopasiParameter.html" target="_top" xlink:title=" ">
<polygon fill="white" stroke="black" points="378,-114.5 378,-133.5 476,-133.5 476,-114.5 378,-114.5"/>
<text text-anchor="middle" x="427" y="-121.5" font-family="FreeSans" font-size="10.00">CCopasiParameter</text>
</a>
</g>
</g>
<!-- Node5&#45;&gt;Node4 -->
<g id="edge4" class="edge">
<title>Node5&#45;&gt;Node4</title>
<path fill="none" stroke="midnightblue" d="M486.15,-124C494.57,-124 503.26,-124 511.75,-124"/>
<polygon fill="midnightblue" stroke="midnightblue" points="486.05,-120.5 476.05,-124 486.05,-127.5 486.05,-120.5"/>
</g>
<!-- Node6 -->
<g id="node6" class="node">
<title>Node6</title>
<g id="a_node6"><a xlink:href="../../d3/db9/classCDataContainer.html" target="_top" xlink:title=" ">
<polygon fill="white" stroke="black" points="257,-114.5 257,-133.5 342,-133.5 342,-114.5 257,-114.5"/>
<text text-anchor="middle" x="299.5" y="-121.5" font-family="FreeSans" font-size="10.00">CDataContainer</text>
</a>
</g>
</g>
<!-- Node6&#45;&gt;Node5 -->
<g id="edge5" class="edge">
<title>Node6&#45;&gt;Node5</title>
<path fill="none" stroke="midnightblue" d="M352.4,-124C360.84,-124 369.54,-124 377.88,-124"/>
<polygon fill="midnightblue" stroke="midnightblue" points="352.29,-120.5 342.29,-124 352.29,-127.5 352.29,-120.5"/>
</g>
<!-- Node7 -->
<g id="node7" class="node">
<title>Node7</title>
<g id="a_node7"><a xlink:href="../../d1/d6b/classCDataObject.html" target="_top" xlink:title=" ">
<polygon fill="white" stroke="black" points="149,-114.5 149,-133.5 221,-133.5 221,-114.5 149,-114.5"/>
<text text-anchor="middle" x="185" y="-121.5" font-family="FreeSans" font-size="10.00">CDataObject</text>
</a>
</g>
</g>
<!-- Node7&#45;&gt;Node6 -->
<g id="edge6" class="edge">
<title>Node7&#45;&gt;Node6</title>
<path fill="none" stroke="midnightblue" d="M231.56,-124C239.85,-124 248.46,-124 256.64,-124"/>
<polygon fill="midnightblue" stroke="midnightblue" points="231.29,-120.5 221.29,-124 231.29,-127.5 231.29,-120.5"/>
</g>
<!-- Node8 -->
<g id="node8" class="node">
<title>Node8</title>
<g id="a_node8"><a xlink:href="../../df/dfa/classCObjectInterface.html" target="_top" xlink:title=" ">
<polygon fill="white" stroke="black" points="11.5,-133.5 11.5,-152.5 101.5,-152.5 101.5,-133.5 11.5,-133.5"/>
<text text-anchor="middle" x="56.5" y="-140.5" font-family="FreeSans" font-size="10.00">CObjectInterface</text>
</a>
</g>
</g>
<!-- Node8&#45;&gt;Node7 -->
<g id="edge7" class="edge">
<title>Node8&#45;&gt;Node7</title>
<path fill="none" stroke="midnightblue" d="M111.66,-134.86C124.21,-132.98 137.25,-131.02 148.74,-129.3"/>
<polygon fill="midnightblue" stroke="midnightblue" points="111.11,-131.41 101.74,-136.35 112.15,-138.33 111.11,-131.41"/>
</g>
<!-- Node9 -->
<g id="node9" class="node">
<title>Node9</title>
<g id="a_node9"><a xlink:href="../../d8/d53/classCUndoObjectInterface.html" target="_top" xlink:title=" ">
<polygon fill="white" stroke="black" points="0,-95.5 0,-114.5 113,-114.5 113,-95.5 0,-95.5"/>
<text text-anchor="middle" x="56.5" y="-102.5" font-family="FreeSans" font-size="10.00">CUndoObjectInterface</text>
</a>
</g>
</g>
<!-- Node9&#45;&gt;Node7 -->
<g id="edge8" class="edge">
<title>Node9&#45;&gt;Node7</title>
<path fill="none" stroke="midnightblue" d="M123.28,-114.88C132.08,-116.2 140.81,-117.51 148.8,-118.71"/>
<polygon fill="midnightblue" stroke="midnightblue" points="123.76,-111.41 113.35,-113.39 122.72,-118.34 123.76,-111.41"/>
</g>
</g>
</svg>
