<?xml version="1.0" encoding="UTF-8" standalone="no"?>
<!DOCTYPE svg PUBLIC "-//W3C//DTD SVG 1.1//EN"
 "http://www.w3.org/Graphics/SVG/1.1/DTD/svg11.dtd">
<!-- Generated by graphviz version 2.43.0 (0)
 -->
<!-- Title: CLsodaMethod Pages: 1 -->
<svg width="348pt" height="487pt"
 viewBox="0.00 0.00 348.00 487.00" xmlns="http://www.w3.org/2000/svg" xmlns:xlink="http://www.w3.org/1999/xlink">
<g id="graph0" class="graph" transform="scale(1 1) rotate(0) translate(4 483)">
<title>CLsodaMethod</title>
<polygon fill="white" stroke="transparent" points="-4,4 -4,-483 344,-483 344,4 -4,4"/>
<!-- Node1 -->
<g id="node1" class="node">
<title>Node1</title>
<g id="a_node1"><a xlink:title=" ">
<polygon fill="#bfbfbf" stroke="black" points="135.5,-67.5 135.5,-86.5 218.5,-86.5 218.5,-67.5 135.5,-67.5"/>
<text text-anchor="middle" x="177" y="-74.5" font-family="FreeSans" font-size="10.00">CLsodaMethod</text>
</a>
</g>
</g>
<!-- Node10 -->
<g id="node10" class="node">
<title>Node10</title>
<g id="a_node10"><a xlink:href="../../d4/d77/classCHybridNextReactionLSODAMethod_1_1LSODA.html" target="_top" xlink:title=" ">
<polygon fill="white" stroke="black" points="0,-0.5 0,-30.5 176,-30.5 176,-0.5 0,-0.5"/>
<text text-anchor="start" x="8" y="-18.5" font-family="FreeSans" font-size="10.00">CHybridNextReactionLSODAMethod</text>
<text text-anchor="middle" x="88" y="-7.5" font-family="FreeSans" font-size="10.00">::LSODA</text>
</a>
</g>
</g>
<!-- Node1&#45;&gt;Node10 -->
<g id="edge9" class="edge">
<title>Node1&#45;&gt;Node10</title>
<path fill="none" stroke="midnightblue" d="M155.67,-61.74C141.52,-52.28 123.05,-39.93 108.98,-30.52"/>
<polygon fill="midnightblue" stroke="midnightblue" points="153.99,-64.83 164.25,-67.48 157.88,-59.01 153.99,-64.83"/>
</g>
<!-- Node11 -->
<g id="node11" class="node">
<title>Node11</title>
<g id="a_node11"><a xlink:href="../../d2/dbc/classCTrajectoryMethodDsaLsodar.html" target="_top" xlink:title=" ">
<polygon fill="white" stroke="black" points="194,-6 194,-25 340,-25 340,-6 194,-6"/>
<text text-anchor="middle" x="267" y="-13" font-family="FreeSans" font-size="10.00">CTrajectoryMethodDsaLsodar</text>
</a>
</g>
</g>
<!-- Node1&#45;&gt;Node11 -->
<g id="edge10" class="edge">
<title>Node1&#45;&gt;Node11</title>
<path fill="none" stroke="midnightblue" d="M198.28,-61.93C215.63,-50.46 239.57,-34.63 254.13,-25.01"/>
<polygon fill="midnightblue" stroke="midnightblue" points="196.31,-59.04 189.89,-67.48 200.17,-64.88 196.31,-59.04"/>
</g>
<!-- Node2 -->
<g id="node2" class="node">
<title>Node2</title>
<g id="a_node2"><a xlink:href="../../d0/dc9/classCTrajectoryMethod.html" target="_top" xlink:title=" ">
<polygon fill="white" stroke="black" points="128,-123.5 128,-142.5 226,-142.5 226,-123.5 128,-123.5"/>
<text text-anchor="middle" x="177" y="-130.5" font-family="FreeSans" font-size="10.00">CTrajectoryMethod</text>
</a>
</g>
</g>
<!-- Node2&#45;&gt;Node1 -->
<g id="edge1" class="edge">
<title>Node2&#45;&gt;Node1</title>
<path fill="none" stroke="midnightblue" d="M177,-112.8C177,-103.91 177,-93.78 177,-86.75"/>
<polygon fill="midnightblue" stroke="midnightblue" points="173.5,-113.08 177,-123.08 180.5,-113.08 173.5,-113.08"/>
</g>
<!-- Node3 -->
<g id="node3" class="node">
<title>Node3</title>
<g id="a_node3"><a xlink:href="../../df/d49/classCCopasiMethod.html" target="_top" xlink:title=" ">
<polygon fill="white" stroke="black" points="134,-179.5 134,-198.5 220,-198.5 220,-179.5 134,-179.5"/>
<text text-anchor="middle" x="177" y="-186.5" font-family="FreeSans" font-size="10.00">CCopasiMethod</text>
</a>
</g>
</g>
<!-- Node3&#45;&gt;Node2 -->
<g id="edge2" class="edge">
<title>Node3&#45;&gt;Node2</title>
<path fill="none" stroke="midnightblue" d="M177,-168.8C177,-159.91 177,-149.78 177,-142.75"/>
<polygon fill="midnightblue" stroke="midnightblue" points="173.5,-169.08 177,-179.08 180.5,-169.08 173.5,-169.08"/>
</g>
<!-- Node4 -->
<g id="node4" class="node">
<title>Node4</title>
<g id="a_node4"><a xlink:href="../../df/d89/classCCopasiParameterGroup.html" target="_top" xlink:title=" ">
<polygon fill="white" stroke="black" points="114.5,-235.5 114.5,-254.5 239.5,-254.5 239.5,-235.5 114.5,-235.5"/>
<text text-anchor="middle" x="177" y="-242.5" font-family="FreeSans" font-size="10.00">CCopasiParameterGroup</text>
</a>
</g>
</g>
<!-- Node4&#45;&gt;Node3 -->
<g id="edge3" class="edge">
<title>Node4&#45;&gt;Node3</title>
<path fill="none" stroke="midnightblue" d="M177,-224.8C177,-215.91 177,-205.78 177,-198.75"/>
<polygon fill="midnightblue" stroke="midnightblue" points="173.5,-225.08 177,-235.08 180.5,-225.08 173.5,-225.08"/>
</g>
<!-- Node5 -->
<g id="node5" class="node">
<title>Node5</title>
<g id="a_node5"><a xlink:href="../../d5/db6/classCCopasiParameter.html" target="_top" xlink:title=" ">
<polygon fill="white" stroke="black" points="128,-291.5 128,-310.5 226,-310.5 226,-291.5 128,-291.5"/>
<text text-anchor="middle" x="177" y="-298.5" font-family="FreeSans" font-size="10.00">CCopasiParameter</text>
</a>
</g>
</g>
<!-- Node5&#45;&gt;Node4 -->
<g id="edge4" class="edge">
<title>Node5&#45;&gt;Node4</title>
<path fill="none" stroke="midnightblue" d="M177,-280.8C177,-271.91 177,-261.78 177,-254.75"/>
<polygon fill="midnightblue" stroke="midnightblue" points="173.5,-281.08 177,-291.08 180.5,-281.08 173.5,-281.08"/>
</g>
<!-- Node6 -->
<g id="node6" class="node">
<title>Node6</title>
<g id="a_node6"><a xlink:href="../../d3/db9/classCDataContainer.html" target="_top" xlink:title=" ">
<polygon fill="white" stroke="black" points="134.5,-347.5 134.5,-366.5 219.5,-366.5 219.5,-347.5 134.5,-347.5"/>
<text text-anchor="middle" x="177" y="-354.5" font-family="FreeSans" font-size="10.00">CDataContainer</text>
</a>
</g>
</g>
<!-- Node6&#45;&gt;Node5 -->
<g id="edge5" class="edge">
<title>Node6&#45;&gt;Node5</title>
<path fill="none" stroke="midnightblue" d="M177,-336.8C177,-327.91 177,-317.78 177,-310.75"/>
<polygon fill="midnightblue" stroke="midnightblue" points="173.5,-337.08 177,-347.08 180.5,-337.08 173.5,-337.08"/>
</g>
<!-- Node7 -->
<g id="node7" class="node">
<title>Node7</title>
<g id="a_node7"><a xlink:href="../../d1/d6b/classCDataObject.html" target="_top" xlink:title=" ">
<polygon fill="white" stroke="black" points="141,-403.5 141,-422.5 213,-422.5 213,-403.5 141,-403.5"/>
<text text-anchor="middle" x="177" y="-410.5" font-family="FreeSans" font-size="10.00">CDataObject</text>
</a>
</g>
</g>
<!-- Node7&#45;&gt;Node6 -->
<g id="edge6" class="edge">
<title>Node7&#45;&gt;Node6</title>
<path fill="none" stroke="midnightblue" d="M177,-392.8C177,-383.91 177,-373.78 177,-366.75"/>
<polygon fill="midnightblue" stroke="midnightblue" points="173.5,-393.08 177,-403.08 180.5,-393.08 173.5,-393.08"/>
</g>
<!-- Node8 -->
<g id="node8" class="node">
<title>Node8</title>
<g id="a_node8"><a xlink:href="../../df/dfa/classCObjectInterface.html" target="_top" xlink:title=" ">
<polygon fill="white" stroke="black" points="72,-459.5 72,-478.5 162,-478.5 162,-459.5 72,-459.5"/>
<text text-anchor="middle" x="117" y="-466.5" font-family="FreeSans" font-size="10.00">CObjectInterface</text>
</a>
</g>
</g>
<!-- Node8&#45;&gt;Node7 -->
<g id="edge7" class="edge">
<title>Node8&#45;&gt;Node7</title>
<path fill="none" stroke="midnightblue" d="M134.18,-452.54C144.88,-442.91 158.26,-430.87 167.18,-422.83"/>
<polygon fill="midnightblue" stroke="midnightblue" points="131.73,-450.03 126.64,-459.32 136.41,-455.24 131.73,-450.03"/>
</g>
<!-- Node9 -->
<g id="node9" class="node">
<title>Node9</title>
<g id="a_node9"><a xlink:href="../../d8/d53/classCUndoObjectInterface.html" target="_top" xlink:title=" ">
<polygon fill="white" stroke="black" points="180.5,-459.5 180.5,-478.5 293.5,-478.5 293.5,-459.5 180.5,-459.5"/>
<text text-anchor="middle" x="237" y="-466.5" font-family="FreeSans" font-size="10.00">CUndoObjectInterface</text>
</a>
</g>
</g>
<!-- Node9&#45;&gt;Node7 -->
<g id="edge8" class="edge">
<title>Node9&#45;&gt;Node7</title>
<path fill="none" stroke="midnightblue" d="M219.82,-452.54C209.12,-442.91 195.74,-430.87 186.82,-422.83"/>
<polygon fill="midnightblue" stroke="midnightblue" points="217.59,-455.24 227.36,-459.32 222.27,-450.03 217.59,-455.24"/>
</g>
</g>
</svg>
