<?xml version="1.0" encoding="UTF-8" standalone="no"?>
<!DOCTYPE svg PUBLIC "-//W3C//DTD SVG 1.1//EN"
 "http://www.w3.org/Graphics/SVG/1.1/DTD/svg11.dtd">
<!-- Generated by graphviz version 2.43.0 (0)
 -->
<!-- Title: CLBase Pages: 1 -->
<!--zoomable 541 -->
<svg id="main" version="1.1" xmlns="http://www.w3.org/2000/svg" xmlns:xlink="http://www.w3.org/1999/xlink" xml:space="preserve" onload="init(evt)">
<style type="text/css"><![CDATA[
.edge:hover path { stroke: red; }
.edge:hover polygon { stroke: red; fill: red; }
]]></style>
<script type="text/javascript"><![CDATA[
var edges = document.getElementsByTagName('g');
if (edges && edges.length) {
  for (var i=0;i<edges.length;i++) {
    if (edges[i].id.substr(0,4)=='edge') {
      edges[i].setAttribute('class','edge');
    }
  }
}
]]></script>
        <defs>
                <circle id="rim" cx="0" cy="0" r="7"/>
                <circle id="rim2" cx="0" cy="0" r="3.5"/>
                <g id="zoomPlus">
                        <use xlink:href="#rim" fill="#404040">
                                <set attributeName="fill" to="#808080" begin="zoomplus.mouseover" end="zoomplus.mouseout"/>
                        </use>
                        <path d="M-4,0h8M0,-4v8" fill="none" stroke="white" stroke-width="1.5" pointer-events="none"/>
                </g>
                <g id="zoomMin">
                        <use xlink:href="#rim" fill="#404040">
                                <set attributeName="fill" to="#808080" begin="zoomminus.mouseover" end="zoomminus.mouseout"/>
                        </use>
                        <path d="M-4,0h8" fill="none" stroke="white" stroke-width="1.5" pointer-events="none"/>
                </g>
                <g id="dirArrow">
                        <path fill="none" stroke="white" stroke-width="1.5" d="M0,-3.0v7 M-2.5,-0.5L0,-3.0L2.5,-0.5"/>
                </g>
               <g id="resetDef">
                       <use xlink:href="#rim2" fill="#404040">
                               <set attributeName="fill" to="#808080" begin="reset.mouseover" end="reset.mouseout"/>
                       </use>
               </g>
        </defs>

<script type="text/javascript">
var viewWidth = 831;
var viewHeight = 541;
var sectionId = 'dynsection-0';
</script>
<script xlink:href="../../svgpan.js"/>
<svg id="graph" class="graph">
<g id="viewport">
<title>CLBase</title>
<polygon fill="white" stroke="transparent" points="-4,4 -4,-537 827,-537 827,4 -4,4"/>
<!-- Node1 -->
<g id="node1" class="node">
<title>Node1</title>
<g id="a_node1"><a xlink:title=" ">
<polygon fill="#bfbfbf" stroke="black" points="0,-266.5 0,-285.5 52,-285.5 52,-266.5 0,-266.5"/>
<text text-anchor="middle" x="26" y="-273.5" font-family="FreeSans" font-size="10.00">CLBase</text>
</a>
</g>
</g>
<!-- Node2 -->
<g id="node2" class="node">
<title>Node2</title>
<g id="a_node2"><a xlink:href="../../d3/da7/classCLBoundingBox.html" target="_top" xlink:title=" ">
<polygon fill="white" stroke="black" points="110.5,-513.5 110.5,-532.5 196.5,-532.5 196.5,-513.5 110.5,-513.5"/>
<text text-anchor="middle" x="153.5" y="-520.5" font-family="FreeSans" font-size="10.00">CLBoundingBox</text>
</a>
</g>
</g>
<!-- Node1&#45;&gt;Node2 -->
<g id="edge1" class="edge">
<title>Node1&#45;&gt;Node2</title>
<path fill="none" stroke="midnightblue" d="M26.26,-296.06C25.78,-340.02 31.01,-445.57 88,-504 94.03,-510.18 101.97,-514.38 110.2,-517.22"/>
<polygon fill="midnightblue" stroke="midnightblue" points="29.76,-295.91 26.49,-285.83 22.77,-295.75 29.76,-295.91"/>
</g>
<!-- Node3 -->
<g id="node3" class="node">
<title>Node3</title>
<g id="a_node3"><a xlink:href="../../d0/dce/classCLColorDefinition.html" target="_top" xlink:title=" ">
<polygon fill="white" stroke="black" points="107.5,-475.5 107.5,-494.5 199.5,-494.5 199.5,-475.5 107.5,-475.5"/>
<text text-anchor="middle" x="153.5" y="-482.5" font-family="FreeSans" font-size="10.00">CLColorDefinition</text>
</a>
</g>
</g>
<!-- Node1&#45;&gt;Node3 -->
<g id="edge2" class="edge">
<title>Node1&#45;&gt;Node3</title>
<path fill="none" stroke="midnightblue" d="M27.57,-296.35C29.78,-334.99 40.14,-419.29 88,-466 93.43,-471.3 100.26,-475.13 107.43,-477.9"/>
<polygon fill="midnightblue" stroke="midnightblue" points="31.05,-295.76 27.12,-285.92 24.05,-296.06 31.05,-295.76"/>
</g>
<!-- Node4 -->
<g id="node4" class="node">
<title>Node4</title>
<g id="a_node4"><a xlink:href="../../d0/df9/classCLCurve.html" target="_top" xlink:title=" ">
<polygon fill="white" stroke="black" points="126,-437.5 126,-456.5 181,-456.5 181,-437.5 126,-437.5"/>
<text text-anchor="middle" x="153.5" y="-444.5" font-family="FreeSans" font-size="10.00">CLCurve</text>
</a>
</g>
</g>
<!-- Node1&#45;&gt;Node4 -->
<g id="edge3" class="edge">
<title>Node1&#45;&gt;Node4</title>
<path fill="none" stroke="midnightblue" d="M29.41,-295.87C34.39,-328.26 48.85,-392.41 88,-428 98.28,-437.34 112.94,-442.11 125.69,-444.53"/>
<polygon fill="midnightblue" stroke="midnightblue" points="32.85,-295.26 28.01,-285.83 25.92,-296.22 32.85,-295.26"/>
</g>
<!-- Node5 -->
<g id="node5" class="node">
<title>Node5</title>
<g id="a_node5"><a xlink:href="../../d0/dfa/classCLDimensions.html" target="_top" xlink:title=" ">
<polygon fill="white" stroke="black" points="113.5,-399.5 113.5,-418.5 193.5,-418.5 193.5,-399.5 113.5,-399.5"/>
<text text-anchor="middle" x="153.5" y="-406.5" font-family="FreeSans" font-size="10.00">CLDimensions</text>
</a>
</g>
</g>
<!-- Node1&#45;&gt;Node5 -->
<g id="edge4" class="edge">
<title>Node1&#45;&gt;Node5</title>
<path fill="none" stroke="midnightblue" d="M32.19,-295.19C40.04,-320.6 57.38,-365.09 88,-390 95.24,-395.89 104.26,-399.96 113.23,-402.76"/>
<polygon fill="midnightblue" stroke="midnightblue" points="35.55,-294.21 29.39,-285.58 28.82,-296.16 35.55,-294.21"/>
</g>
<!-- Node6 -->
<g id="node6" class="node">
<title>Node6</title>
<g id="a_node6"><a xlink:href="../../d1/d38/classCLGradientBase.html" target="_top" xlink:title=" ">
<polygon fill="white" stroke="black" points="109,-361.5 109,-380.5 198,-380.5 198,-361.5 109,-361.5"/>
<text text-anchor="middle" x="153.5" y="-368.5" font-family="FreeSans" font-size="10.00">CLGradientBase</text>
</a>
</g>
</g>
<!-- Node1&#45;&gt;Node6 -->
<g id="edge5" class="edge">
<title>Node1&#45;&gt;Node6</title>
<path fill="none" stroke="midnightblue" d="M37.26,-294.41C47.81,-311.73 65.83,-337.14 88,-352 94.3,-356.22 101.56,-359.53 108.89,-362.11"/>
<polygon fill="midnightblue" stroke="midnightblue" points="40.25,-292.61 32.18,-285.75 34.21,-296.15 40.25,-292.61"/>
</g>
<!-- Node9 -->
<g id="node9" class="node">
<title>Node9</title>
<g id="a_node9"><a xlink:href="../../d3/da5/classCLGradientStop.html" target="_top" xlink:title=" ">
<polygon fill="white" stroke="black" points="110.5,-323.5 110.5,-342.5 196.5,-342.5 196.5,-323.5 110.5,-323.5"/>
<text text-anchor="middle" x="153.5" y="-330.5" font-family="FreeSans" font-size="10.00">CLGradientStop</text>
</a>
</g>
</g>
<!-- Node1&#45;&gt;Node9 -->
<g id="edge8" class="edge">
<title>Node1&#45;&gt;Node9</title>
<path fill="none" stroke="midnightblue" d="M48.36,-291.3C59.72,-298.92 74.17,-307.79 88,-314 96.09,-317.63 105.07,-320.78 113.68,-323.42"/>
<polygon fill="midnightblue" stroke="midnightblue" points="50.21,-288.33 39.99,-285.54 46.24,-294.09 50.21,-288.33"/>
</g>
<!-- Node10 -->
<g id="node10" class="node">
<title>Node10</title>
<g id="a_node10"><a xlink:href="../../d8/d63/classCLGraphicalObject.html" target="_top" xlink:title=" ">
<polygon fill="white" stroke="black" points="104,-285.5 104,-304.5 203,-304.5 203,-285.5 104,-285.5"/>
<text text-anchor="middle" x="153.5" y="-292.5" font-family="FreeSans" font-size="10.00">CLGraphicalObject</text>
</a>
</g>
</g>
<!-- Node1&#45;&gt;Node10 -->
<g id="edge9" class="edge">
<title>Node1&#45;&gt;Node10</title>
<path fill="none" stroke="midnightblue" d="M62,-281.3C74.95,-283.26 89.88,-285.52 103.82,-287.63"/>
<polygon fill="midnightblue" stroke="midnightblue" points="62.51,-277.84 52.1,-279.8 61.46,-284.76 62.51,-277.84"/>
</g>
<!-- Node19 -->
<g id="node19" class="node">
<title>Node19</title>
<g id="a_node19"><a xlink:href="../../de/da1/classCLLineSegment.html" target="_top" xlink:title=" ">
<polygon fill="white" stroke="black" points="110,-247.5 110,-266.5 197,-266.5 197,-247.5 110,-247.5"/>
<text text-anchor="middle" x="153.5" y="-254.5" font-family="FreeSans" font-size="10.00">CLLineSegment</text>
</a>
</g>
</g>
<!-- Node1&#45;&gt;Node19 -->
<g id="edge18" class="edge">
<title>Node1&#45;&gt;Node19</title>
<path fill="none" stroke="midnightblue" d="M62.35,-270.65C77.13,-268.41 94.43,-265.79 109.9,-263.45"/>
<polygon fill="midnightblue" stroke="midnightblue" points="61.46,-267.24 52.1,-272.2 62.51,-274.16 61.46,-267.24"/>
</g>
<!-- Node20 -->
<g id="node20" class="node">
<title>Node20</title>
<g id="a_node20"><a xlink:href="../../db/d5d/classCLPoint.html" target="_top" xlink:title=" ">
<polygon fill="white" stroke="black" points="127.5,-209.5 127.5,-228.5 179.5,-228.5 179.5,-209.5 127.5,-209.5"/>
<text text-anchor="middle" x="153.5" y="-216.5" font-family="FreeSans" font-size="10.00">CLPoint</text>
</a>
</g>
</g>
<!-- Node1&#45;&gt;Node20 -->
<g id="edge19" class="edge">
<title>Node1&#45;&gt;Node20</title>
<path fill="none" stroke="midnightblue" d="M48.36,-260.7C59.72,-253.08 74.17,-244.21 88,-238 100.57,-232.36 115.25,-227.88 127.43,-224.69"/>
<polygon fill="midnightblue" stroke="midnightblue" points="46.24,-257.91 39.99,-266.46 50.21,-263.67 46.24,-257.91"/>
</g>
<!-- Node21 -->
<g id="node21" class="node">
<title>Node21</title>
<g id="a_node21"><a xlink:href="../../da/da6/classCLRenderInformationBase.html" target="_top" xlink:title=" ">
<polygon fill="white" stroke="black" points="88,-171.5 88,-190.5 219,-190.5 219,-171.5 88,-171.5"/>
<text text-anchor="middle" x="153.5" y="-178.5" font-family="FreeSans" font-size="10.00">CLRenderInformationBase</text>
</a>
</g>
</g>
<!-- Node1&#45;&gt;Node21 -->
<g id="edge20" class="edge">
<title>Node1&#45;&gt;Node21</title>
<path fill="none" stroke="midnightblue" d="M37.26,-257.59C47.81,-240.27 65.83,-214.86 88,-200 93.82,-196.1 100.45,-192.99 107.2,-190.5"/>
<polygon fill="midnightblue" stroke="midnightblue" points="34.21,-255.85 32.18,-266.25 40.25,-259.39 34.21,-255.85"/>
</g>
<!-- Node24 -->
<g id="node24" class="node">
<title>Node24</title>
<g id="a_node24"><a xlink:href="../../d7/de8/classCLRenderPoint.html" target="_top" xlink:title=" ">
<polygon fill="white" stroke="black" points="112,-133.5 112,-152.5 195,-152.5 195,-133.5 112,-133.5"/>
<text text-anchor="middle" x="153.5" y="-140.5" font-family="FreeSans" font-size="10.00">CLRenderPoint</text>
</a>
</g>
</g>
<!-- Node1&#45;&gt;Node24 -->
<g id="edge23" class="edge">
<title>Node1&#45;&gt;Node24</title>
<path fill="none" stroke="midnightblue" d="M32.19,-256.81C40.04,-231.4 57.38,-186.91 88,-162 94.88,-156.4 103.36,-152.45 111.89,-149.67"/>
<polygon fill="midnightblue" stroke="midnightblue" points="28.82,-255.84 29.39,-266.42 35.55,-257.79 28.82,-255.84"/>
</g>
<!-- Node26 -->
<g id="node26" class="node">
<title>Node26</title>
<g id="a_node26"><a xlink:href="../../d8/d1f/classCLStyle.html" target="_top" xlink:title=" ">
<polygon fill="white" stroke="black" points="128,-95.5 128,-114.5 179,-114.5 179,-95.5 128,-95.5"/>
<text text-anchor="middle" x="153.5" y="-102.5" font-family="FreeSans" font-size="10.00">CLStyle</text>
</a>
</g>
</g>
<!-- Node1&#45;&gt;Node26 -->
<g id="edge25" class="edge">
<title>Node1&#45;&gt;Node26</title>
<path fill="none" stroke="midnightblue" d="M29.41,-256.13C34.39,-223.74 48.85,-159.59 88,-124 98.88,-114.11 114.68,-109.35 127.91,-107.07"/>
<polygon fill="midnightblue" stroke="midnightblue" points="25.92,-255.78 28.01,-266.17 32.85,-256.74 25.92,-255.78"/>
</g>
<!-- Node29 -->
<g id="node29" class="node">
<title>Node29</title>
<g id="a_node29"><a xlink:href="../../dd/d1f/classCLTransformation.html" target="_top" xlink:title=" ">
<polygon fill="white" stroke="black" points="106,-57.5 106,-76.5 201,-76.5 201,-57.5 106,-57.5"/>
<text text-anchor="middle" x="153.5" y="-64.5" font-family="FreeSans" font-size="10.00">CLTransformation</text>
</a>
</g>
</g>
<!-- Node1&#45;&gt;Node29 -->
<g id="edge28" class="edge">
<title>Node1&#45;&gt;Node29</title>
<path fill="none" stroke="midnightblue" d="M27.57,-255.65C29.78,-217.01 40.14,-132.71 88,-86 93.01,-81.11 99.22,-77.46 105.78,-74.75"/>
<polygon fill="midnightblue" stroke="midnightblue" points="24.05,-255.94 27.12,-266.08 31.05,-256.24 24.05,-255.94"/>
</g>
<!-- Node41 -->
<g id="node41" class="node">
<title>Node41</title>
<g id="a_node41"><a xlink:href="../../da/d7e/classCLayout.html" target="_top" xlink:title=" ">
<polygon fill="white" stroke="black" points="127,-19.5 127,-38.5 180,-38.5 180,-19.5 127,-19.5"/>
<text text-anchor="middle" x="153.5" y="-26.5" font-family="FreeSans" font-size="10.00">CLayout</text>
</a>
</g>
</g>
<!-- Node1&#45;&gt;Node41 -->
<g id="edge40" class="edge">
<title>Node1&#45;&gt;Node41</title>
<path fill="none" stroke="midnightblue" d="M26.26,-255.94C25.78,-211.98 31.01,-106.43 88,-48 98.11,-37.64 113.56,-32.86 126.8,-30.68"/>
<polygon fill="midnightblue" stroke="midnightblue" points="22.77,-256.25 26.49,-266.17 29.76,-256.09 22.77,-256.25"/>
</g>
<!-- Node7 -->
<g id="node7" class="node">
<title>Node7</title>
<g id="a_node7"><a xlink:href="../../d0/d32/classCLLinearGradient.html" target="_top" xlink:title=" ">
<polygon fill="white" stroke="black" points="277,-437.5 277,-456.5 370,-456.5 370,-437.5 277,-437.5"/>
<text text-anchor="middle" x="323.5" y="-444.5" font-family="FreeSans" font-size="10.00">CLLinearGradient</text>
</a>
</g>
</g>
<!-- Node6&#45;&gt;Node7 -->
<g id="edge6" class="edge">
<title>Node6&#45;&gt;Node7</title>
<path fill="none" stroke="midnightblue" d="M207.59,-384.12C211.56,-385.85 215.42,-387.81 219,-390 238.84,-402.15 235.09,-415.97 255,-428 261.67,-432.03 269.22,-435.23 276.8,-437.77"/>
<polygon fill="midnightblue" stroke="midnightblue" points="208.76,-380.81 198.17,-380.45 206.22,-387.34 208.76,-380.81"/>
</g>
<!-- Node8 -->
<g id="node8" class="node">
<title>Node8</title>
<g id="a_node8"><a xlink:href="../../d7/d79/classCLRadialGradient.html" target="_top" xlink:title=" ">
<polygon fill="white" stroke="black" points="277,-399.5 277,-418.5 370,-418.5 370,-399.5 277,-399.5"/>
<text text-anchor="middle" x="323.5" y="-406.5" font-family="FreeSans" font-size="10.00">CLRadialGradient</text>
</a>
</g>
</g>
<!-- Node6&#45;&gt;Node8 -->
<g id="edge7" class="edge">
<title>Node6&#45;&gt;Node8</title>
<path fill="none" stroke="midnightblue" d="M206.78,-382.82C230.46,-388.18 258.09,-394.43 280.41,-399.48"/>
<polygon fill="midnightblue" stroke="midnightblue" points="207.42,-379.38 196.89,-380.59 205.87,-386.21 207.42,-379.38"/>
</g>
<!-- Node11 -->
<g id="node11" class="node">
<title>Node11</title>
<g id="a_node11"><a xlink:href="../../de/d28/classCLCompartmentGlyph.html" target="_top" xlink:title=" ">
<polygon fill="white" stroke="black" points="267,-361.5 267,-380.5 380,-380.5 380,-361.5 267,-361.5"/>
<text text-anchor="middle" x="323.5" y="-368.5" font-family="FreeSans" font-size="10.00">CLCompartmentGlyph</text>
</a>
</g>
</g>
<!-- Node10&#45;&gt;Node11 -->
<g id="edge10" class="edge">
<title>Node10&#45;&gt;Node11</title>
<path fill="none" stroke="midnightblue" d="M208.1,-308.34C211.9,-310.02 215.57,-311.9 219,-314 238.84,-326.15 235.09,-339.97 255,-352 261.36,-355.84 268.52,-358.93 275.74,-361.41"/>
<polygon fill="midnightblue" stroke="midnightblue" points="209.1,-304.97 198.51,-304.57 206.53,-311.48 209.1,-304.97"/>
</g>
<!-- Node12 -->
<g id="node12" class="node">
<title>Node12</title>
<g id="a_node12"><a xlink:href="../../dc/dac/classCLGlyphWithCurve.html" target="_top" xlink:title=" ">
<polygon fill="white" stroke="black" points="274,-323.5 274,-342.5 373,-342.5 373,-323.5 274,-323.5"/>
<text text-anchor="middle" x="323.5" y="-330.5" font-family="FreeSans" font-size="10.00">CLGlyphWithCurve</text>
</a>
</g>
</g>
<!-- Node10&#45;&gt;Node12 -->
<g id="edge11" class="edge">
<title>Node10&#45;&gt;Node12</title>
<path fill="none" stroke="midnightblue" d="M206.78,-306.82C230.46,-312.18 258.09,-318.43 280.41,-323.48"/>
<polygon fill="midnightblue" stroke="midnightblue" points="207.42,-303.38 196.89,-304.59 205.87,-310.21 207.42,-303.38"/>
</g>
<!-- Node17 -->
<g id="node17" class="node">
<title>Node17</title>
<g id="a_node17"><a xlink:href="../../dd/d45/classCLMetabGlyph.html" target="_top" xlink:title=" ">
<polygon fill="white" stroke="black" points="283,-285.5 283,-304.5 364,-304.5 364,-285.5 283,-285.5"/>
<text text-anchor="middle" x="323.5" y="-292.5" font-family="FreeSans" font-size="10.00">CLMetabGlyph</text>
</a>
</g>
</g>
<!-- Node10&#45;&gt;Node17 -->
<g id="edge16" class="edge">
<title>Node10&#45;&gt;Node17</title>
<path fill="none" stroke="midnightblue" d="M213.11,-295C236.15,-295 262,-295 282.78,-295"/>
<polygon fill="midnightblue" stroke="midnightblue" points="213.09,-291.5 203.09,-295 213.09,-298.5 213.09,-291.5"/>
</g>
<!-- Node18 -->
<g id="node18" class="node">
<title>Node18</title>
<g id="a_node18"><a xlink:href="../../d9/d9f/classCLTextGlyph.html" target="_top" xlink:title=" ">
<polygon fill="white" stroke="black" points="287,-247.5 287,-266.5 360,-266.5 360,-247.5 287,-247.5"/>
<text text-anchor="middle" x="323.5" y="-254.5" font-family="FreeSans" font-size="10.00">CLTextGlyph</text>
</a>
</g>
</g>
<!-- Node10&#45;&gt;Node18 -->
<g id="edge17" class="edge">
<title>Node10&#45;&gt;Node18</title>
<path fill="none" stroke="midnightblue" d="M206.97,-283.13C232.98,-277.25 263.71,-270.3 286.94,-265.04"/>
<polygon fill="midnightblue" stroke="midnightblue" points="205.87,-279.79 196.89,-285.41 207.42,-286.62 205.87,-279.79"/>
</g>
<!-- Node13 -->
<g id="node13" class="node">
<title>Node13</title>
<g id="a_node13"><a xlink:href="../../d8/dde/classCLGeneralGlyph.html" target="_top" xlink:title=" ">
<polygon fill="white" stroke="black" points="446.5,-380.5 446.5,-399.5 534.5,-399.5 534.5,-380.5 446.5,-380.5"/>
<text text-anchor="middle" x="490.5" y="-387.5" font-family="FreeSans" font-size="10.00">CLGeneralGlyph</text>
</a>
</g>
</g>
<!-- Node12&#45;&gt;Node13 -->
<g id="edge12" class="edge">
<title>Node12&#45;&gt;Node13</title>
<path fill="none" stroke="midnightblue" d="M373.63,-345.51C379.88,-347.49 386.14,-349.66 392,-352 408.8,-358.71 411.29,-364.08 428,-371 436.47,-374.51 445.82,-377.72 454.62,-380.46"/>
<polygon fill="midnightblue" stroke="midnightblue" points="374.46,-342.1 363.87,-342.57 372.44,-348.81 374.46,-342.1"/>
</g>
<!-- Node14 -->
<g id="node14" class="node">
<title>Node14</title>
<g id="a_node14"><a xlink:href="../../d6/d63/classCLMetabReferenceGlyph.html" target="_top" xlink:title=" ">
<polygon fill="white" stroke="black" points="428,-342.5 428,-361.5 553,-361.5 553,-342.5 428,-342.5"/>
<text text-anchor="middle" x="490.5" y="-349.5" font-family="FreeSans" font-size="10.00">CLMetabReferenceGlyph</text>
</a>
</g>
</g>
<!-- Node12&#45;&gt;Node14 -->
<g id="edge13" class="edge">
<title>Node12&#45;&gt;Node14</title>
<path fill="none" stroke="midnightblue" d="M383.38,-339.78C397.77,-341.44 413.21,-343.22 427.74,-344.89"/>
<polygon fill="midnightblue" stroke="midnightblue" points="383.45,-336.26 373.11,-338.6 382.65,-343.22 383.45,-336.26"/>
</g>
<!-- Node15 -->
<g id="node15" class="node">
<title>Node15</title>
<g id="a_node15"><a xlink:href="../../d8/d67/classCLReactionGlyph.html" target="_top" xlink:title=" ">
<polygon fill="white" stroke="black" points="444.5,-304.5 444.5,-323.5 536.5,-323.5 536.5,-304.5 444.5,-304.5"/>
<text text-anchor="middle" x="490.5" y="-311.5" font-family="FreeSans" font-size="10.00">CLReactionGlyph</text>
</a>
</g>
</g>
<!-- Node12&#45;&gt;Node15 -->
<g id="edge14" class="edge">
<title>Node12&#45;&gt;Node15</title>
<path fill="none" stroke="midnightblue" d="M383.11,-326.25C403.24,-323.93 425.44,-321.38 444.34,-319.2"/>
<polygon fill="midnightblue" stroke="midnightblue" points="382.65,-322.78 373.11,-327.4 383.45,-329.74 382.65,-322.78"/>
</g>
<!-- Node16 -->
<g id="node16" class="node">
<title>Node16</title>
<g id="a_node16"><a xlink:href="../../dd/de1/classCLReferenceGlyph.html" target="_top" xlink:title=" ">
<polygon fill="white" stroke="black" points="441.5,-266.5 441.5,-285.5 539.5,-285.5 539.5,-266.5 441.5,-266.5"/>
<text text-anchor="middle" x="490.5" y="-273.5" font-family="FreeSans" font-size="10.00">CLReferenceGlyph</text>
</a>
</g>
</g>
<!-- Node12&#45;&gt;Node16 -->
<g id="edge15" class="edge">
<title>Node12&#45;&gt;Node16</title>
<path fill="none" stroke="midnightblue" d="M373.63,-320.49C379.88,-318.51 386.14,-316.34 392,-314 408.8,-307.29 411.29,-301.92 428,-295 436.47,-291.49 445.82,-288.28 454.62,-285.54"/>
<polygon fill="midnightblue" stroke="midnightblue" points="372.44,-317.19 363.87,-323.43 374.46,-323.9 372.44,-317.19"/>
</g>
<!-- Node22 -->
<g id="node22" class="node">
<title>Node22</title>
<g id="a_node22"><a xlink:href="../../d7/d2b/classCLGlobalRenderInformation.html" target="_top" xlink:title=" ">
<polygon fill="white" stroke="black" points="255,-209.5 255,-228.5 392,-228.5 392,-209.5 255,-209.5"/>
<text text-anchor="middle" x="323.5" y="-216.5" font-family="FreeSans" font-size="10.00">CLGlobalRenderInformation</text>
</a>
</g>
</g>
<!-- Node21&#45;&gt;Node22 -->
<g id="edge21" class="edge">
<title>Node21&#45;&gt;Node22</title>
<path fill="none" stroke="midnightblue" d="M206.78,-192.82C230.46,-198.18 258.09,-204.43 280.41,-209.48"/>
<polygon fill="midnightblue" stroke="midnightblue" points="207.42,-189.38 196.89,-190.59 205.87,-196.21 207.42,-189.38"/>
</g>
<!-- Node23 -->
<g id="node23" class="node">
<title>Node23</title>
<g id="a_node23"><a xlink:href="../../d0/d13/classCLLocalRenderInformation.html" target="_top" xlink:title=" ">
<polygon fill="white" stroke="black" points="257,-171.5 257,-190.5 390,-190.5 390,-171.5 257,-171.5"/>
<text text-anchor="middle" x="323.5" y="-178.5" font-family="FreeSans" font-size="10.00">CLLocalRenderInformation</text>
</a>
</g>
</g>
<!-- Node21&#45;&gt;Node23 -->
<g id="edge22" class="edge">
<title>Node21&#45;&gt;Node23</title>
<path fill="none" stroke="midnightblue" d="M229.63,-181C238.72,-181 247.95,-181 256.89,-181"/>
<polygon fill="midnightblue" stroke="midnightblue" points="229.45,-177.5 219.45,-181 229.45,-184.5 229.45,-177.5"/>
</g>
<!-- Node25 -->
<g id="node25" class="node">
<title>Node25</title>
<g id="a_node25"><a xlink:href="../../d5/d17/classCLRenderCubicBezier.html" target="_top" xlink:title=" ">
<polygon fill="white" stroke="black" points="267.5,-133.5 267.5,-152.5 379.5,-152.5 379.5,-133.5 267.5,-133.5"/>
<text text-anchor="middle" x="323.5" y="-140.5" font-family="FreeSans" font-size="10.00">CLRenderCubicBezier</text>
</a>
</g>
</g>
<!-- Node24&#45;&gt;Node25 -->
<g id="edge24" class="edge">
<title>Node24&#45;&gt;Node25</title>
<path fill="none" stroke="midnightblue" d="M205.4,-143C224.95,-143 247.35,-143 267.29,-143"/>
<polygon fill="midnightblue" stroke="midnightblue" points="205.17,-139.5 195.17,-143 205.17,-146.5 205.17,-139.5"/>
</g>
<!-- Node27 -->
<g id="node27" class="node">
<title>Node27</title>
<g id="a_node27"><a xlink:href="../../d0/dff/classCLGlobalStyle.html" target="_top" xlink:title=" ">
<polygon fill="white" stroke="black" points="284,-95.5 284,-114.5 363,-114.5 363,-95.5 284,-95.5"/>
<text text-anchor="middle" x="323.5" y="-102.5" font-family="FreeSans" font-size="10.00">CLGlobalStyle</text>
</a>
</g>
</g>
<!-- Node26&#45;&gt;Node27 -->
<g id="edge26" class="edge">
<title>Node26&#45;&gt;Node27</title>
<path fill="none" stroke="midnightblue" d="M189.64,-105C217.2,-105 255.5,-105 283.9,-105"/>
<polygon fill="midnightblue" stroke="midnightblue" points="189.29,-101.5 179.29,-105 189.29,-108.5 189.29,-101.5"/>
</g>
<!-- Node28 -->
<g id="node28" class="node">
<title>Node28</title>
<g id="a_node28"><a xlink:href="../../d5/d62/classCLLocalStyle.html" target="_top" xlink:title=" ">
<polygon fill="white" stroke="black" points="286,-57.5 286,-76.5 361,-76.5 361,-57.5 286,-57.5"/>
<text text-anchor="middle" x="323.5" y="-64.5" font-family="FreeSans" font-size="10.00">CLLocalStyle</text>
</a>
</g>
</g>
<!-- Node26&#45;&gt;Node28 -->
<g id="edge27" class="edge">
<title>Node26&#45;&gt;Node28</title>
<path fill="none" stroke="midnightblue" d="M189.12,-97.17C217.32,-90.79 257.05,-81.8 285.8,-75.3"/>
<polygon fill="midnightblue" stroke="midnightblue" points="188.27,-93.77 179.29,-99.39 189.81,-100.6 188.27,-93.77"/>
</g>
<!-- Node30 -->
<g id="node30" class="node">
<title>Node30</title>
<g id="a_node30"><a xlink:href="../../d4/d0b/classCLTransformation2D.html" target="_top" xlink:title=" ">
<polygon fill="white" stroke="black" points="270,-19.5 270,-38.5 377,-38.5 377,-19.5 270,-19.5"/>
<text text-anchor="middle" x="323.5" y="-26.5" font-family="FreeSans" font-size="10.00">CLTransformation2D</text>
</a>
</g>
</g>
<!-- Node29&#45;&gt;Node30 -->
<g id="edge29" class="edge">
<title>Node29&#45;&gt;Node30</title>
<path fill="none" stroke="midnightblue" d="M206.78,-55.18C230.46,-49.82 258.09,-43.57 280.41,-38.52"/>
<polygon fill="midnightblue" stroke="midnightblue" points="205.87,-51.79 196.89,-57.41 207.42,-58.62 205.87,-51.79"/>
</g>
<!-- Node31 -->
<g id="node31" class="node">
<title>Node31</title>
<g id="a_node31"><a xlink:href="../../de/db3/classCLGraphicalPrimitive1D.html" target="_top" xlink:title=" ">
<polygon fill="white" stroke="black" points="430,-38.5 430,-57.5 551,-57.5 551,-38.5 430,-38.5"/>
<text text-anchor="middle" x="490.5" y="-45.5" font-family="FreeSans" font-size="10.00">CLGraphicalPrimitive1D</text>
</a>
</g>
</g>
<!-- Node30&#45;&gt;Node31 -->
<g id="edge30" class="edge">
<title>Node30&#45;&gt;Node31</title>
<path fill="none" stroke="midnightblue" d="M387.19,-36.22C401.2,-37.83 416.01,-39.54 429.89,-41.14"/>
<polygon fill="midnightblue" stroke="midnightblue" points="387.5,-32.73 377.16,-35.06 386.69,-39.69 387.5,-32.73"/>
</g>
<!-- Node40 -->
<g id="node40" class="node">
<title>Node40</title>
<g id="a_node40"><a xlink:href="../../da/d09/classCLImage.html" target="_top" xlink:title=" ">
<polygon fill="white" stroke="black" points="462.5,-0.5 462.5,-19.5 518.5,-19.5 518.5,-0.5 462.5,-0.5"/>
<text text-anchor="middle" x="490.5" y="-7.5" font-family="FreeSans" font-size="10.00">CLImage</text>
</a>
</g>
</g>
<!-- Node30&#45;&gt;Node40 -->
<g id="edge39" class="edge">
<title>Node30&#45;&gt;Node40</title>
<path fill="none" stroke="midnightblue" d="M387.3,-21.77C413.21,-18.79 441.86,-15.49 462.22,-13.14"/>
<polygon fill="midnightblue" stroke="midnightblue" points="386.69,-18.31 377.16,-22.94 387.5,-25.27 386.69,-18.31"/>
</g>
<!-- Node32 -->
<g id="node32" class="node">
<title>Node32</title>
<g id="a_node32"><a xlink:href="../../dc/d2d/classCLGraphicalPrimitive2D.html" target="_top" xlink:title=" ">
<polygon fill="white" stroke="black" points="589,-76.5 589,-95.5 710,-95.5 710,-76.5 589,-76.5"/>
<text text-anchor="middle" x="649.5" y="-83.5" font-family="FreeSans" font-size="10.00">CLGraphicalPrimitive2D</text>
</a>
</g>
</g>
<!-- Node31&#45;&gt;Node32 -->
<g id="edge31" class="edge">
<title>Node31&#45;&gt;Node32</title>
<path fill="none" stroke="midnightblue" d="M540.95,-59.97C562.95,-65.29 588.49,-71.48 609.17,-76.48"/>
<polygon fill="midnightblue" stroke="midnightblue" points="541.66,-56.54 531.12,-57.59 540.01,-63.34 541.66,-56.54"/>
</g>
<!-- Node38 -->
<g id="node38" class="node">
<title>Node38</title>
<g id="a_node38"><a xlink:href="../../d6/d2b/classCLRenderCurve.html" target="_top" xlink:title=" ">
<polygon fill="white" stroke="black" points="606.5,-38.5 606.5,-57.5 692.5,-57.5 692.5,-38.5 606.5,-38.5"/>
<text text-anchor="middle" x="649.5" y="-45.5" font-family="FreeSans" font-size="10.00">CLRenderCurve</text>
</a>
</g>
</g>
<!-- Node31&#45;&gt;Node38 -->
<g id="edge37" class="edge">
<title>Node31&#45;&gt;Node38</title>
<path fill="none" stroke="midnightblue" d="M561.32,-48C576.7,-48 592.54,-48 606.42,-48"/>
<polygon fill="midnightblue" stroke="midnightblue" points="561.3,-44.5 551.3,-48 561.3,-51.5 561.3,-44.5"/>
</g>
<!-- Node39 -->
<g id="node39" class="node">
<title>Node39</title>
<g id="a_node39"><a xlink:href="../../d1/dd9/classCLText.html" target="_top" xlink:title=" ">
<polygon fill="white" stroke="black" points="625.5,-0.5 625.5,-19.5 673.5,-19.5 673.5,-0.5 625.5,-0.5"/>
<text text-anchor="middle" x="649.5" y="-7.5" font-family="FreeSans" font-size="10.00">CLText</text>
</a>
</g>
</g>
<!-- Node31&#45;&gt;Node39 -->
<g id="edge38" class="edge">
<title>Node31&#45;&gt;Node39</title>
<path fill="none" stroke="midnightblue" d="M540.85,-36.06C569.14,-29.21 603.32,-20.94 625.46,-15.58"/>
<polygon fill="midnightblue" stroke="midnightblue" points="540.01,-32.66 531.12,-38.41 541.66,-39.46 540.01,-32.66"/>
</g>
<!-- Node33 -->
<g id="node33" class="node">
<title>Node33</title>
<g id="a_node33"><a xlink:href="../../d2/d64/classCLEllipse.html" target="_top" xlink:title=" ">
<polygon fill="white" stroke="black" points="755.5,-152.5 755.5,-171.5 813.5,-171.5 813.5,-152.5 755.5,-152.5"/>
<text text-anchor="middle" x="784.5" y="-159.5" font-family="FreeSans" font-size="10.00">CLEllipse</text>
</a>
</g>
</g>
<!-- Node32&#45;&gt;Node33 -->
<g id="edge32" class="edge">
<title>Node32&#45;&gt;Node33</title>
<path fill="none" stroke="midnightblue" d="M674.53,-100.97C693.68,-112.75 721.29,-129.39 746,-143 751.75,-146.17 758.1,-149.46 763.9,-152.39"/>
<polygon fill="midnightblue" stroke="midnightblue" points="676.2,-97.89 665.86,-95.61 672.53,-103.85 676.2,-97.89"/>
</g>
<!-- Node34 -->
<g id="node34" class="node">
<title>Node34</title>
<g id="a_node34"><a xlink:href="../../dd/da5/classCLGroup.html" target="_top" xlink:title=" ">
<polygon fill="white" stroke="black" points="756.5,-114.5 756.5,-133.5 812.5,-133.5 812.5,-114.5 756.5,-114.5"/>
<text text-anchor="middle" x="784.5" y="-121.5" font-family="FreeSans" font-size="10.00">CLGroup</text>
</a>
</g>
</g>
<!-- Node32&#45;&gt;Node34 -->
<g id="edge33" class="edge">
<title>Node32&#45;&gt;Node34</title>
<path fill="none" stroke="midnightblue" d="M693.83,-98.38C714.36,-104.25 738.25,-111.07 756.21,-116.2"/>
<polygon fill="midnightblue" stroke="midnightblue" points="694.64,-94.97 684.06,-95.59 692.72,-101.7 694.64,-94.97"/>
</g>
<!-- Node35 -->
<g id="node35" class="node">
<title>Node35</title>
<g id="a_node35"><a xlink:href="../../d2/d49/classCLLineEnding.html" target="_top" xlink:title=" ">
<polygon fill="white" stroke="black" points="746,-76.5 746,-95.5 823,-95.5 823,-76.5 746,-76.5"/>
<text text-anchor="middle" x="784.5" y="-83.5" font-family="FreeSans" font-size="10.00">CLLineEnding</text>
</a>
</g>
</g>
<!-- Node32&#45;&gt;Node35 -->
<g id="edge34" class="edge">
<title>Node32&#45;&gt;Node35</title>
<path fill="none" stroke="midnightblue" d="M720.54,-86C729.19,-86 737.76,-86 745.66,-86"/>
<polygon fill="midnightblue" stroke="midnightblue" points="720.39,-82.5 710.39,-86 720.39,-89.5 720.39,-82.5"/>
</g>
<!-- Node36 -->
<g id="node36" class="node">
<title>Node36</title>
<g id="a_node36"><a xlink:href="../../d9/dc2/classCLPolygon.html" target="_top" xlink:title=" ">
<polygon fill="white" stroke="black" points="752.5,-38.5 752.5,-57.5 816.5,-57.5 816.5,-38.5 752.5,-38.5"/>
<text text-anchor="middle" x="784.5" y="-45.5" font-family="FreeSans" font-size="10.00">CLPolygon</text>
</a>
</g>
</g>
<!-- Node32&#45;&gt;Node36 -->
<g id="edge35" class="edge">
<title>Node32&#45;&gt;Node36</title>
<path fill="none" stroke="midnightblue" d="M693.73,-73.65C712.8,-68.2 734.79,-61.92 752.23,-56.93"/>
<polygon fill="midnightblue" stroke="midnightblue" points="692.72,-70.3 684.06,-76.41 694.64,-77.03 692.72,-70.3"/>
</g>
<!-- Node37 -->
<g id="node37" class="node">
<title>Node37</title>
<g id="a_node37"><a xlink:href="../../da/d69/classCLRectangle.html" target="_top" xlink:title=" ">
<polygon fill="white" stroke="black" points="748,-0.5 748,-19.5 821,-19.5 821,-0.5 748,-0.5"/>
<text text-anchor="middle" x="784.5" y="-7.5" font-family="FreeSans" font-size="10.00">CLRectangle</text>
</a>
</g>
</g>
<!-- Node32&#45;&gt;Node37 -->
<g id="edge36" class="edge">
<title>Node32&#45;&gt;Node37</title>
<path fill="none" stroke="midnightblue" d="M699.45,-72.63C703.12,-70.95 706.69,-69.08 710,-67 729.7,-54.63 727.35,-42.91 746,-29 750.68,-25.51 756.1,-22.35 761.33,-19.64"/>
<polygon fill="midnightblue" stroke="midnightblue" points="698.09,-69.41 690.16,-76.43 700.74,-75.89 698.09,-69.41"/>
</g>
</g>
</svg>
        <g id="navigator" transform="translate(0 0)" fill="#404254">
                <rect fill="#f2f5e9" fill-opacity="0.5" stroke="#606060" stroke-width=".5" x="0" y="0" width="60" height="60"/>
                <use id="zoomplus" xlink:href="#zoomPlus" x="17" y="9" onmousedown="handleZoom(evt,'in')"/>
                <use id="zoomminus" xlink:href="#zoomMin" x="42" y="9" onmousedown="handleZoom(evt,'out')"/>
                <use id="reset" xlink:href="#resetDef" x="30" y="36" onmousedown="handleReset()"/>
                <g id="arrowUp" xlink:href="#dirArrow" transform="translate(30 24)" onmousedown="handlePan(0,-1)">
                  <use xlink:href="#rim" fill="#404040">
                        <set attributeName="fill" to="#808080" begin="arrowUp.mouseover" end="arrowUp.mouseout"/>
                  </use>
                  <path fill="none" stroke="white" stroke-width="1.5" d="M0,-3.0v7 M-2.5,-0.5L0,-3.0L2.5,-0.5"/>
                </g>
                <g id="arrowRight" xlink:href="#dirArrow" transform="rotate(90) translate(36 -43)" onmousedown="handlePan(1,0)">
                  <use xlink:href="#rim" fill="#404040">
                        <set attributeName="fill" to="#808080" begin="arrowRight.mouseover" end="arrowRight.mouseout"/>
                  </use>
                  <path fill="none" stroke="white" stroke-width="1.5" d="M0,-3.0v7 M-2.5,-0.5L0,-3.0L2.5,-0.5"/>
                </g>
                <g id="arrowDown" xlink:href="#dirArrow" transform="rotate(180) translate(-30 -48)" onmousedown="handlePan(0,1)">
                  <use xlink:href="#rim" fill="#404040">
                        <set attributeName="fill" to="#808080" begin="arrowDown.mouseover" end="arrowDown.mouseout"/>
                  </use>
                  <path fill="none" stroke="white" stroke-width="1.5" d="M0,-3.0v7 M-2.5,-0.5L0,-3.0L2.5,-0.5"/>
                </g>
                <g id="arrowLeft" xlink:href="#dirArrow" transform="rotate(270) translate(-36 17)" onmousedown="handlePan(-1,0)">
                  <use xlink:href="#rim" fill="#404040">
                        <set attributeName="fill" to="#808080" begin="arrowLeft.mouseover" end="arrowLeft.mouseout"/>
                  </use>
                  <path fill="none" stroke="white" stroke-width="1.5" d="M0,-3.0v7 M-2.5,-0.5L0,-3.0L2.5,-0.5"/>
                </g>
        </g>
        <svg viewBox="0 0 15 15" width="100%" height="30px" preserveAspectRatio="xMaxYMin meet">
         <g id="arrow_out" transform="scale(0.3 0.3)">
          <a xlink:href="classCLBase__inherit__graph_org.svg" target="_base">
           <rect id="button" ry="5" rx="5" y="6" x="6" height="38" width="38"
                fill="#f2f5e9" fill-opacity="0.5" stroke="#606060" stroke-width="1.0"/>
           <path id="arrow"
             d="M 11.500037,31.436501 C 11.940474,20.09759 22.043105,11.32322 32.158766,21.979434 L 37.068811,17.246167 C 37.068811,17.246167 37.088388,32 37.088388,32 L 22.160133,31.978069 C 22.160133,31.978069 26.997745,27.140456 26.997745,27.140456 C 18.528582,18.264221 13.291696,25.230495 11.500037,31.436501 z"
             style="fill:#404040;"/>
          </a>
         </g>
        </svg>
</svg>
