<?xml version="1.0" encoding="UTF-8" standalone="no"?>
<!DOCTYPE svg PUBLIC "-//W3C//DTD SVG 1.1//EN"
 "http://www.w3.org/Graphics/SVG/1.1/DTD/svg11.dtd">
<!-- Generated by graphviz version 2.43.0 (0)
 -->
<!-- Title: CModelParameterSet Pages: 1 -->
<svg width="323pt" height="196pt"
 viewBox="0.00 0.00 323.00 196.00" xmlns="http://www.w3.org/2000/svg" xmlns:xlink="http://www.w3.org/1999/xlink">
<g id="graph0" class="graph" transform="scale(1 1) rotate(0) translate(4 192)">
<title>CModelParameterSet</title>
<polygon fill="white" stroke="transparent" points="-4,4 -4,-192 319,-192 319,4 -4,4"/>
<!-- Node1 -->
<g id="node1" class="node">
<title>Node1</title>
<g id="a_node1"><a xlink:title=" ">
<polygon fill="#bfbfbf" stroke="black" points="111,-0.5 111,-19.5 221,-19.5 221,-0.5 111,-0.5"/>
<text text-anchor="middle" x="166" y="-7.5" font-family="FreeSans" font-size="10.00">CModelParameterSet</text>
</a>
</g>
</g>
<!-- Node2 -->
<g id="node2" class="node">
<title>Node2</title>
<g id="a_node2"><a xlink:href="../../d3/db9/classCDataContainer.html" target="_top" xlink:title=" ">
<polygon fill="white" stroke="black" points="2.5,-56.5 2.5,-75.5 87.5,-75.5 87.5,-56.5 2.5,-56.5"/>
<text text-anchor="middle" x="45" y="-63.5" font-family="FreeSans" font-size="10.00">CDataContainer</text>
</a>
</g>
</g>
<!-- Node2&#45;&gt;Node1 -->
<g id="edge1" class="edge">
<title>Node2&#45;&gt;Node1</title>
<path fill="none" stroke="midnightblue" d="M73.31,-52.37C95.97,-42.26 127.13,-28.35 146.92,-19.52"/>
<polygon fill="midnightblue" stroke="midnightblue" points="71.88,-49.17 64.17,-56.44 74.73,-55.56 71.88,-49.17"/>
</g>
<!-- Node3 -->
<g id="node3" class="node">
<title>Node3</title>
<g id="a_node3"><a xlink:href="../../d1/d6b/classCDataObject.html" target="_top" xlink:title=" ">
<polygon fill="white" stroke="black" points="9,-112.5 9,-131.5 81,-131.5 81,-112.5 9,-112.5"/>
<text text-anchor="middle" x="45" y="-119.5" font-family="FreeSans" font-size="10.00">CDataObject</text>
</a>
</g>
</g>
<!-- Node3&#45;&gt;Node2 -->
<g id="edge2" class="edge">
<title>Node3&#45;&gt;Node2</title>
<path fill="none" stroke="midnightblue" d="M45,-101.8C45,-92.91 45,-82.78 45,-75.75"/>
<polygon fill="midnightblue" stroke="midnightblue" points="41.5,-102.08 45,-112.08 48.5,-102.08 41.5,-102.08"/>
</g>
<!-- Node4 -->
<g id="node4" class="node">
<title>Node4</title>
<g id="a_node4"><a xlink:href="../../df/dfa/classCObjectInterface.html" target="_top" xlink:title=" ">
<polygon fill="white" stroke="black" points="0,-168.5 0,-187.5 90,-187.5 90,-168.5 0,-168.5"/>
<text text-anchor="middle" x="45" y="-175.5" font-family="FreeSans" font-size="10.00">CObjectInterface</text>
</a>
</g>
</g>
<!-- Node4&#45;&gt;Node3 -->
<g id="edge3" class="edge">
<title>Node4&#45;&gt;Node3</title>
<path fill="none" stroke="midnightblue" d="M45,-157.8C45,-148.91 45,-138.78 45,-131.75"/>
<polygon fill="midnightblue" stroke="midnightblue" points="41.5,-158.08 45,-168.08 48.5,-158.08 41.5,-158.08"/>
</g>
<!-- Node5 -->
<g id="node5" class="node">
<title>Node5</title>
<g id="a_node5"><a xlink:href="../../d8/d53/classCUndoObjectInterface.html" target="_top" xlink:title=" ">
<polygon fill="white" stroke="black" points="108.5,-168.5 108.5,-187.5 221.5,-187.5 221.5,-168.5 108.5,-168.5"/>
<text text-anchor="middle" x="165" y="-175.5" font-family="FreeSans" font-size="10.00">CUndoObjectInterface</text>
</a>
</g>
</g>
<!-- Node5&#45;&gt;Node3 -->
<g id="edge4" class="edge">
<title>Node5&#45;&gt;Node3</title>
<path fill="none" stroke="midnightblue" d="M136.63,-164.23C114.18,-154.13 83.46,-140.31 63.93,-131.52"/>
<polygon fill="midnightblue" stroke="midnightblue" points="135.43,-167.53 145.99,-168.44 138.3,-161.15 135.43,-167.53"/>
</g>
<!-- Node7 -->
<g id="node7" class="node">
<title>Node7</title>
<g id="a_node7"><a xlink:href="../../d2/df6/classCModelParameter.html" target="_top" xlink:title=" ">
<polygon fill="white" stroke="black" points="117.5,-112.5 117.5,-131.5 212.5,-131.5 212.5,-112.5 117.5,-112.5"/>
<text text-anchor="middle" x="165" y="-119.5" font-family="FreeSans" font-size="10.00">CModelParameter</text>
</a>
</g>
</g>
<!-- Node5&#45;&gt;Node7 -->
<g id="edge7" class="edge">
<title>Node5&#45;&gt;Node7</title>
<path fill="none" stroke="midnightblue" d="M165,-157.8C165,-148.91 165,-138.78 165,-131.75"/>
<polygon fill="midnightblue" stroke="midnightblue" points="161.5,-158.08 165,-168.08 168.5,-158.08 161.5,-158.08"/>
</g>
<!-- Node6 -->
<g id="node6" class="node">
<title>Node6</title>
<g id="a_node6"><a xlink:href="../../df/dd2/classCModelParameterGroup.html" target="_top" xlink:title=" ">
<polygon fill="white" stroke="black" points="105.5,-56.5 105.5,-75.5 226.5,-75.5 226.5,-56.5 105.5,-56.5"/>
<text text-anchor="middle" x="166" y="-63.5" font-family="FreeSans" font-size="10.00">CModelParameterGroup</text>
</a>
</g>
</g>
<!-- Node6&#45;&gt;Node1 -->
<g id="edge5" class="edge">
<title>Node6&#45;&gt;Node1</title>
<path fill="none" stroke="midnightblue" d="M166,-45.8C166,-36.91 166,-26.78 166,-19.75"/>
<polygon fill="midnightblue" stroke="midnightblue" points="162.5,-46.08 166,-56.08 169.5,-46.08 162.5,-46.08"/>
</g>
<!-- Node7&#45;&gt;Node6 -->
<g id="edge6" class="edge">
<title>Node7&#45;&gt;Node6</title>
<path fill="none" stroke="midnightblue" d="M165.36,-101.8C165.52,-92.91 165.71,-82.78 165.84,-75.75"/>
<polygon fill="midnightblue" stroke="midnightblue" points="161.85,-102.02 165.17,-112.08 168.85,-102.15 161.85,-102.02"/>
</g>
<!-- Node8 -->
<g id="node8" class="node">
<title>Node8</title>
<g id="a_node8"><a xlink:href="../../d8/dfc/classCAnnotation.html" target="_top" xlink:title=" ">
<polygon fill="white" stroke="black" points="245,-56.5 245,-75.5 315,-75.5 315,-56.5 245,-56.5"/>
<text text-anchor="middle" x="280" y="-63.5" font-family="FreeSans" font-size="10.00">CAnnotation</text>
</a>
</g>
</g>
<!-- Node8&#45;&gt;Node1 -->
<g id="edge8" class="edge">
<title>Node8&#45;&gt;Node1</title>
<path fill="none" stroke="midnightblue" d="M252.76,-52.1C231.46,-42.01 202.46,-28.27 183.98,-19.52"/>
<polygon fill="midnightblue" stroke="midnightblue" points="251.4,-55.33 261.94,-56.44 254.4,-49 251.4,-55.33"/>
</g>
</g>
</svg>
