<?xml version="1.0" encoding="UTF-8" standalone="no"?>
<!DOCTYPE svg PUBLIC "-//W3C//DTD SVG 1.1//EN"
 "http://www.w3.org/Graphics/SVG/1.1/DTD/svg11.dtd">
<!-- Generated by graphviz version 2.43.0 (0)
 -->
<!-- Title: CUndoObjectInterface Pages: 1 -->
<!--zoomable 1019 -->
<svg id="main" version="1.1" xmlns="http://www.w3.org/2000/svg" xmlns:xlink="http://www.w3.org/1999/xlink" xml:space="preserve" onload="init(evt)">
<style type="text/css"><![CDATA[
.edge:hover path { stroke: red; }
.edge:hover polygon { stroke: red; fill: red; }
]]></style>
<script type="text/javascript"><![CDATA[
var edges = document.getElementsByTagName('g');
if (edges && edges.length) {
  for (var i=0;i<edges.length;i++) {
    if (edges[i].id.substr(0,4)=='edge') {
      edges[i].setAttribute('class','edge');
    }
  }
}
]]></script>
        <defs>
                <circle id="rim" cx="0" cy="0" r="7"/>
                <circle id="rim2" cx="0" cy="0" r="3.5"/>
                <g id="zoomPlus">
                        <use xlink:href="#rim" fill="#404040">
                                <set attributeName="fill" to="#808080" begin="zoomplus.mouseover" end="zoomplus.mouseout"/>
                        </use>
                        <path d="M-4,0h8M0,-4v8" fill="none" stroke="white" stroke-width="1.5" pointer-events="none"/>
                </g>
                <g id="zoomMin">
                        <use xlink:href="#rim" fill="#404040">
                                <set attributeName="fill" to="#808080" begin="zoomminus.mouseover" end="zoomminus.mouseout"/>
                        </use>
                        <path d="M-4,0h8" fill="none" stroke="white" stroke-width="1.5" pointer-events="none"/>
                </g>
                <g id="dirArrow">
                        <path fill="none" stroke="white" stroke-width="1.5" d="M0,-3.0v7 M-2.5,-0.5L0,-3.0L2.5,-0.5"/>
                </g>
               <g id="resetDef">
                       <use xlink:href="#rim2" fill="#404040">
                               <set attributeName="fill" to="#808080" begin="reset.mouseover" end="reset.mouseout"/>
                       </use>
               </g>
        </defs>

<script type="text/javascript">
var viewWidth = 931;
var viewHeight = 1019;
var sectionId = 'dynsection-0';
</script>
<script xlink:href="../../svgpan.js"/>
<svg id="graph" class="graph">
<g id="viewport">
<title>CUndoObjectInterface</title>
<polygon fill="white" stroke="transparent" points="-4,4 -4,-1015 927,-1015 927,4 -4,4"/>
<!-- Node1 -->
<g id="node1" class="node">
<title>Node1</title>
<g id="a_node1"><a xlink:title=" ">
<polygon fill="#bfbfbf" stroke="black" points="0,-336.5 0,-355.5 113,-355.5 113,-336.5 0,-336.5"/>
<text text-anchor="middle" x="56.5" y="-343.5" font-family="FreeSans" font-size="10.00">CUndoObjectInterface</text>
</a>
</g>
</g>
<!-- Node2 -->
<g id="node2" class="node">
<title>Node2</title>
<g id="a_node2"><a xlink:href="../../d1/d6b/classCDataObject.html" target="_top" xlink:title=" ">
<polygon fill="white" stroke="black" points="161.5,-577.5 161.5,-596.5 233.5,-596.5 233.5,-577.5 161.5,-577.5"/>
<text text-anchor="middle" x="197.5" y="-584.5" font-family="FreeSans" font-size="10.00">CDataObject</text>
</a>
</g>
</g>
<!-- Node1&#45;&gt;Node2 -->
<g id="edge1" class="edge">
<title>Node1&#45;&gt;Node2</title>
<path fill="none" stroke="midnightblue" d="M68.19,-364.53C96.03,-412.8 170.1,-541.22 190.96,-577.4"/>
<polygon fill="midnightblue" stroke="midnightblue" points="71.15,-362.66 63.12,-355.75 65.09,-366.16 71.15,-362.66"/>
</g>
<!-- Node253 -->
<g id="node45" class="node">
<title>Node253</title>
<g id="a_node45"><a xlink:href="../../d2/df6/classCModelParameter.html" target="_top" xlink:title=" ">
<polygon fill="white" stroke="black" points="150,-119.5 150,-138.5 245,-138.5 245,-119.5 150,-119.5"/>
<text text-anchor="middle" x="197.5" y="-126.5" font-family="FreeSans" font-size="10.00">CModelParameter</text>
</a>
</g>
</g>
<!-- Node1&#45;&gt;Node253 -->
<g id="edge46" class="edge">
<title>Node1&#45;&gt;Node253</title>
<path fill="none" stroke="midnightblue" d="M69.12,-327.86C97.26,-283.92 168.38,-172.9 190.1,-138.99"/>
<polygon fill="midnightblue" stroke="midnightblue" points="66.1,-326.09 63.65,-336.4 71.99,-329.86 66.1,-326.09"/>
</g>
<!-- Node3 -->
<g id="node3" class="node">
<title>Node3</title>
<g id="a_node3"><a xlink:href="../../d5/dff/classCDataObjectReference.html" target="_top" xlink:title=" ">
<polygon fill="white" stroke="black" points="595.5,-842 595.5,-872 711.5,-872 711.5,-842 595.5,-842"/>
<text text-anchor="start" x="603.5" y="-860" font-family="FreeSans" font-size="10.00">CDataObjectReference</text>
<text text-anchor="middle" x="653.5" y="-849" font-family="FreeSans" font-size="10.00">&lt; C_FLOAT64 &gt;</text>
</a>
</g>
</g>
<!-- Node2&#45;&gt;Node3 -->
<g id="edge2" class="edge">
<title>Node2&#45;&gt;Node3</title>
<path fill="none" stroke="midnightblue" d="M198.53,-606.66C199.76,-654.04 210.17,-774.68 282,-830 329.52,-866.6 503.57,-864.27 595.2,-860.26"/>
<polygon fill="midnightblue" stroke="midnightblue" points="202.02,-606.46 198.38,-596.51 195.02,-606.56 202.02,-606.46"/>
</g>
<!-- Node6 -->
<g id="node6" class="node">
<title>Node6</title>
<g id="a_node6"><a xlink:href="../../d5/dff/classCDataObjectReference.html" target="_top" xlink:title=" ">
<polygon fill="white" stroke="black" points="595.5,-793 595.5,-823 711.5,-823 711.5,-793 595.5,-793"/>
<text text-anchor="start" x="603.5" y="-811" font-family="FreeSans" font-size="10.00">CDataObjectReference</text>
<text text-anchor="middle" x="653.5" y="-800" font-family="FreeSans" font-size="10.00">&lt; std::string &gt;</text>
</a>
</g>
</g>
<!-- Node2&#45;&gt;Node6 -->
<g id="edge5" class="edge">
<title>Node2&#45;&gt;Node6</title>
<path fill="none" stroke="midnightblue" d="M243.74,-591.24C314.46,-598.29 444.76,-613.12 460,-628 492.01,-659.24 452.68,-690.14 478,-727 504.86,-766.09 555.61,-786.74 595.48,-797.37"/>
<polygon fill="midnightblue" stroke="midnightblue" points="244.05,-587.76 233.76,-590.26 243.36,-594.72 244.05,-587.76"/>
</g>
<!-- Node7 -->
<g id="node7" class="node">
<title>Node7</title>
<g id="a_node7"><a xlink:href="../../d1/d26/classCArrayElementReference.html" target="_top" xlink:title=" ">
<polygon fill="white" stroke="black" points="308.5,-751.5 308.5,-770.5 433.5,-770.5 433.5,-751.5 308.5,-751.5"/>
<text text-anchor="middle" x="371" y="-758.5" font-family="FreeSans" font-size="10.00">CArrayElementReference</text>
</a>
</g>
</g>
<!-- Node2&#45;&gt;Node7 -->
<g id="edge6" class="edge">
<title>Node2&#45;&gt;Node7</title>
<path fill="none" stroke="midnightblue" d="M203.36,-606.81C212.62,-640.23 236.12,-707.51 282,-742 289.75,-747.82 298.9,-751.94 308.33,-754.84"/>
<polygon fill="midnightblue" stroke="midnightblue" points="206.67,-605.66 200.75,-596.87 199.9,-607.43 206.67,-605.66"/>
</g>
<!-- Node8 -->
<g id="node8" class="node">
<title>Node8</title>
<g id="a_node8"><a xlink:href="../../d1/d4d/classCCopasiTask_1_1CDescription.html" target="_top" xlink:title=" ">
<polygon fill="white" stroke="black" points="303.5,-713.5 303.5,-732.5 438.5,-732.5 438.5,-713.5 303.5,-713.5"/>
<text text-anchor="middle" x="371" y="-720.5" font-family="FreeSans" font-size="10.00">CCopasiTask::CDescription</text>
</a>
</g>
</g>
<!-- Node2&#45;&gt;Node8 -->
<g id="edge7" class="edge">
<title>Node2&#45;&gt;Node8</title>
<path fill="none" stroke="midnightblue" d="M206.63,-606.02C218.92,-632.39 244.82,-679.55 282,-704 288.53,-708.29 295.86,-711.64 303.44,-714.23"/>
<polygon fill="midnightblue" stroke="midnightblue" points="209.74,-604.42 202.46,-596.72 203.36,-607.28 209.74,-604.42"/>
</g>
<!-- Node9 -->
<g id="node9" class="node">
<title>Node9</title>
<g id="a_node9"><a xlink:href="../../df/d88/classCCopasiTask_1_1CResult.html" target="_top" xlink:title=" ">
<polygon fill="white" stroke="black" points="314,-675.5 314,-694.5 428,-694.5 428,-675.5 314,-675.5"/>
<text text-anchor="middle" x="371" y="-682.5" font-family="FreeSans" font-size="10.00">CCopasiTask::CResult</text>
</a>
</g>
</g>
<!-- Node2&#45;&gt;Node9 -->
<g id="edge8" class="edge">
<title>Node2&#45;&gt;Node9</title>
<path fill="none" stroke="midnightblue" d="M212.08,-604.6C227.15,-622.85 253.18,-650.8 282,-666 291.82,-671.18 302.96,-674.94 313.93,-677.68"/>
<polygon fill="midnightblue" stroke="midnightblue" points="214.59,-602.13 205.6,-596.52 209.13,-606.51 214.59,-602.13"/>
</g>
<!-- Node10 -->
<g id="node10" class="node">
<title>Node10</title>
<g id="a_node10"><a xlink:href="../../d1/db9/classCCopasiTimer.html" target="_top" xlink:title=" ">
<polygon fill="white" stroke="black" points="332,-637.5 332,-656.5 410,-656.5 410,-637.5 332,-637.5"/>
<text text-anchor="middle" x="371" y="-644.5" font-family="FreeSans" font-size="10.00">CCopasiTimer</text>
</a>
</g>
</g>
<!-- Node2&#45;&gt;Node10 -->
<g id="edge9" class="edge">
<title>Node2&#45;&gt;Node10</title>
<path fill="none" stroke="midnightblue" d="M221.62,-602.05C233.57,-609.26 248.63,-617.51 263,-623 285.05,-631.42 310.85,-637.32 331.58,-641.16"/>
<polygon fill="midnightblue" stroke="midnightblue" points="223.11,-598.86 212.77,-596.55 219.42,-604.8 223.11,-598.86"/>
</g>
<!-- Node11 -->
<g id="node11" class="node">
<title>Node11</title>
<g id="a_node11"><a xlink:href="../../d3/db9/classCDataContainer.html" target="_top" xlink:title=" ">
<polygon fill="white" stroke="red" points="328.5,-511.5 328.5,-530.5 413.5,-530.5 413.5,-511.5 328.5,-511.5"/>
<text text-anchor="middle" x="371" y="-518.5" font-family="FreeSans" font-size="10.00">CDataContainer</text>
</a>
</g>
</g>
<!-- Node2&#45;&gt;Node11 -->
<g id="edge10" class="edge">
<title>Node2&#45;&gt;Node11</title>
<path fill="none" stroke="midnightblue" d="M221.79,-571.85C238.08,-561.84 260.66,-549.12 282,-541 296.64,-535.43 313.27,-531.16 328.11,-528.02"/>
<polygon fill="midnightblue" stroke="midnightblue" points="219.59,-569.1 212.98,-577.38 223.31,-575.03 219.59,-569.1"/>
</g>
<!-- Node238 -->
<g id="node31" class="node">
<title>Node238</title>
<g id="a_node31"><a xlink:href="../../d7/db7/classCDataMatrixReference.html" target="_top" xlink:title=" ">
<polygon fill="white" stroke="black" points="314,-550 314,-580 428,-580 428,-550 314,-550"/>
<text text-anchor="start" x="322" y="-568" font-family="FreeSans" font-size="10.00">CDataMatrixReference</text>
<text text-anchor="middle" x="371" y="-557" font-family="FreeSans" font-size="10.00">&lt; CType &gt;</text>
</a>
</g>
</g>
<!-- Node2&#45;&gt;Node238 -->
<g id="edge30" class="edge">
<title>Node2&#45;&gt;Node238</title>
<path fill="none" stroke="midnightblue" d="M243.8,-581.19C265.32,-578.43 291.25,-575.1 314,-572.18"/>
<polygon fill="midnightblue" stroke="midnightblue" points="243.09,-577.75 233.62,-582.49 243.98,-584.69 243.09,-577.75"/>
</g>
<!-- Node239 -->
<g id="node32" class="node">
<title>Node239</title>
<g id="a_node32"><a xlink:href="../../d5/dff/classCDataObjectReference.html" target="_top" xlink:title=" ">
<polygon fill="white" stroke="black" points="313,-790 313,-820 429,-820 429,-790 313,-790"/>
<text text-anchor="start" x="321" y="-808" font-family="FreeSans" font-size="10.00">CDataObjectReference</text>
<text text-anchor="middle" x="371" y="-797" font-family="FreeSans" font-size="10.00">&lt; CType &gt;</text>
</a>
</g>
</g>
<!-- Node2&#45;&gt;Node239 -->
<g id="edge31" class="edge">
<title>Node2&#45;&gt;Node239</title>
<path fill="none" stroke="midnightblue" d="M201.27,-606.91C207.8,-646.19 227.93,-733.82 282,-780 290.82,-787.53 301.76,-792.8 312.9,-796.48"/>
<polygon fill="midnightblue" stroke="midnightblue" points="204.69,-606.14 199.71,-596.78 197.77,-607.2 204.69,-606.14"/>
</g>
<!-- Node240 -->
<g id="node33" class="node">
<title>Node240</title>
<g id="a_node33"><a xlink:href="../../db/dbd/classCDataString.html" target="_top" xlink:title=" ">
<polygon fill="white" stroke="red" points="336.5,-473.5 336.5,-492.5 405.5,-492.5 405.5,-473.5 336.5,-473.5"/>
<text text-anchor="middle" x="371" y="-480.5" font-family="FreeSans" font-size="10.00">CDataString</text>
</a>
</g>
</g>
<!-- Node2&#45;&gt;Node240 -->
<g id="edge34" class="edge">
<title>Node2&#45;&gt;Node240</title>
<path fill="none" stroke="midnightblue" d="M210.92,-569.19C225.58,-549.57 251.83,-518.62 282,-502 298.57,-492.88 319.13,-488.13 336.21,-485.67"/>
<polygon fill="midnightblue" stroke="midnightblue" points="208.07,-567.16 205.02,-577.31 213.73,-571.27 208.07,-567.16"/>
</g>
<!-- Node242 -->
<g id="node34" class="node">
<title>Node242</title>
<g id="a_node34"><a xlink:href="../../dd/d5a/classCDataVectorReference.html" target="_top" xlink:title=" ">
<polygon fill="white" stroke="black" points="313,-424 313,-454 429,-454 429,-424 313,-424"/>
<text text-anchor="start" x="321" y="-442" font-family="FreeSans" font-size="10.00">CDataVectorReference</text>
<text text-anchor="middle" x="371" y="-431" font-family="FreeSans" font-size="10.00">&lt; CType &gt;</text>
</a>
</g>
</g>
<!-- Node2&#45;&gt;Node242 -->
<g id="edge35" class="edge">
<title>Node2&#45;&gt;Node242</title>
<path fill="none" stroke="midnightblue" d="M206.25,-568.11C218.36,-540.96 244.34,-491.21 282,-464 291.14,-457.4 301.98,-452.53 312.87,-448.95"/>
<polygon fill="midnightblue" stroke="midnightblue" points="203.03,-566.74 202.29,-577.31 209.46,-569.51 203.03,-566.74"/>
</g>
<!-- Node243 -->
<g id="node35" class="node">
<title>Node243</title>
<g id="a_node35"><a xlink:href="../../d9/daa/classCExpressionGenerator.html" target="_top" xlink:title=" ">
<polygon fill="white" stroke="black" points="314.5,-385.5 314.5,-404.5 427.5,-404.5 427.5,-385.5 314.5,-385.5"/>
<text text-anchor="middle" x="371" y="-392.5" font-family="FreeSans" font-size="10.00">CExpressionGenerator</text>
</a>
</g>
</g>
<!-- Node2&#45;&gt;Node243 -->
<g id="edge36" class="edge">
<title>Node2&#45;&gt;Node243</title>
<path fill="none" stroke="midnightblue" d="M202.28,-567.16C210.24,-531 232.27,-454.49 282,-415 291.32,-407.59 302.87,-402.82 314.49,-399.78"/>
<polygon fill="midnightblue" stroke="midnightblue" points="198.76,-566.88 200.17,-577.38 205.62,-568.29 198.76,-566.88"/>
</g>
<!-- Node244 -->
<g id="node36" class="node">
<title>Node244</title>
<g id="a_node36"><a xlink:href="../../d0/dce/classCLColorDefinition.html" target="_top" xlink:title=" ">
<polygon fill="white" stroke="black" points="325,-347.5 325,-366.5 417,-366.5 417,-347.5 325,-347.5"/>
<text text-anchor="middle" x="371" y="-354.5" font-family="FreeSans" font-size="10.00">CLColorDefinition</text>
</a>
</g>
</g>
<!-- Node2&#45;&gt;Node244 -->
<g id="edge37" class="edge">
<title>Node2&#45;&gt;Node244</title>
<path fill="none" stroke="midnightblue" d="M200.26,-567.09C205.12,-524.94 222.55,-426.41 282,-376 293.8,-365.99 309.64,-360.88 324.62,-358.38"/>
<polygon fill="midnightblue" stroke="midnightblue" points="196.77,-566.88 199.23,-577.19 203.73,-567.6 196.77,-566.88"/>
</g>
<!-- Node245 -->
<g id="node37" class="node">
<title>Node245</title>
<g id="a_node37"><a xlink:href="../../d2/d64/classCLEllipse.html" target="_top" xlink:title=" ">
<polygon fill="white" stroke="black" points="342,-309.5 342,-328.5 400,-328.5 400,-309.5 342,-309.5"/>
<text text-anchor="middle" x="371" y="-316.5" font-family="FreeSans" font-size="10.00">CLEllipse</text>
</a>
</g>
</g>
<!-- Node2&#45;&gt;Node245 -->
<g id="edge38" class="edge">
<title>Node2&#45;&gt;Node245</title>
<path fill="none" stroke="midnightblue" d="M198.79,-567.06C200.62,-519.48 212.28,-398.73 282,-338 298.38,-323.73 322.92,-319.36 341.92,-318.34"/>
<polygon fill="midnightblue" stroke="midnightblue" points="195.28,-567.17 198.51,-577.27 202.28,-567.37 195.28,-567.17"/>
</g>
<!-- Node246 -->
<g id="node38" class="node">
<title>Node246</title>
<g id="a_node38"><a xlink:href="../../d3/da5/classCLGradientStop.html" target="_top" xlink:title=" ">
<polygon fill="white" stroke="black" points="328,-271.5 328,-290.5 414,-290.5 414,-271.5 328,-271.5"/>
<text text-anchor="middle" x="371" y="-278.5" font-family="FreeSans" font-size="10.00">CLGradientStop</text>
</a>
</g>
</g>
<!-- Node2&#45;&gt;Node246 -->
<g id="edge39" class="edge">
<title>Node2&#45;&gt;Node246</title>
<path fill="none" stroke="midnightblue" d="M201.45,-567.19C210.65,-508.27 240.64,-336.03 282,-300 294.49,-289.12 311.73,-283.99 327.64,-281.72"/>
<polygon fill="midnightblue" stroke="midnightblue" points="197.95,-566.97 199.89,-577.39 204.87,-568.03 197.95,-566.97"/>
</g>
<!-- Node247 -->
<g id="node39" class="node">
<title>Node247</title>
<g id="a_node39"><a xlink:href="../../da/d09/classCLImage.html" target="_top" xlink:title=" ">
<polygon fill="white" stroke="black" points="343,-233.5 343,-252.5 399,-252.5 399,-233.5 343,-233.5"/>
<text text-anchor="middle" x="371" y="-240.5" font-family="FreeSans" font-size="10.00">CLImage</text>
</a>
</g>
</g>
<!-- Node2&#45;&gt;Node247 -->
<g id="edge40" class="edge">
<title>Node2&#45;&gt;Node247</title>
<path fill="none" stroke="midnightblue" d="M200.76,-567.17C208.48,-503.19 235.86,-303.99 282,-262 298.41,-247.06 323.69,-242.85 342.95,-242.06"/>
<polygon fill="midnightblue" stroke="midnightblue" points="197.24,-567.13 199.55,-577.47 204.2,-567.95 197.24,-567.13"/>
</g>
<!-- Node248 -->
<g id="node40" class="node">
<title>Node248</title>
<g id="a_node40"><a xlink:href="../../d9/dc2/classCLPolygon.html" target="_top" xlink:title=" ">
<polygon fill="white" stroke="black" points="339,-195.5 339,-214.5 403,-214.5 403,-195.5 339,-195.5"/>
<text text-anchor="middle" x="371" y="-202.5" font-family="FreeSans" font-size="10.00">CLPolygon</text>
</a>
</g>
</g>
<!-- Node2&#45;&gt;Node248 -->
<g id="edge41" class="edge">
<title>Node2&#45;&gt;Node248</title>
<path fill="none" stroke="midnightblue" d="M200.15,-567.08C206.31,-498.11 230.24,-271.11 282,-224 297.26,-210.11 320.18,-205.5 338.8,-204.28"/>
<polygon fill="midnightblue" stroke="midnightblue" points="196.64,-567.14 199.26,-577.4 203.61,-567.74 196.64,-567.14"/>
</g>
<!-- Node249 -->
<g id="node41" class="node">
<title>Node249</title>
<g id="a_node41"><a xlink:href="../../da/d69/classCLRectangle.html" target="_top" xlink:title=" ">
<polygon fill="white" stroke="black" points="334.5,-991.5 334.5,-1010.5 407.5,-1010.5 407.5,-991.5 334.5,-991.5"/>
<text text-anchor="middle" x="371" y="-998.5" font-family="FreeSans" font-size="10.00">CLRectangle</text>
</a>
</g>
</g>
<!-- Node2&#45;&gt;Node249 -->
<g id="edge42" class="edge">
<title>Node2&#45;&gt;Node249</title>
<path fill="none" stroke="midnightblue" d="M199.63,-606.9C204.24,-679.98 224.15,-931.93 282,-982 296.3,-994.38 316.74,-999.3 334.32,-1001.05"/>
<polygon fill="midnightblue" stroke="midnightblue" points="203.12,-606.53 199.02,-596.76 196.13,-606.96 203.12,-606.53"/>
</g>
<!-- Node250 -->
<g id="node42" class="node">
<title>Node250</title>
<g id="a_node42"><a xlink:href="../../d6/d2b/classCLRenderCurve.html" target="_top" xlink:title=" ">
<polygon fill="white" stroke="black" points="328,-953.5 328,-972.5 414,-972.5 414,-953.5 328,-953.5"/>
<text text-anchor="middle" x="371" y="-960.5" font-family="FreeSans" font-size="10.00">CLRenderCurve</text>
</a>
</g>
</g>
<!-- Node2&#45;&gt;Node250 -->
<g id="edge43" class="edge">
<title>Node2&#45;&gt;Node250</title>
<path fill="none" stroke="midnightblue" d="M200.19,-607.1C206.4,-675.68 230.3,-898.69 282,-944 294.46,-954.92 311.69,-960.05 327.6,-962.32"/>
<polygon fill="midnightblue" stroke="midnightblue" points="203.65,-606.47 199.29,-596.81 196.68,-607.08 203.65,-606.47"/>
</g>
<!-- Node251 -->
<g id="node43" class="node">
<title>Node251</title>
<g id="a_node43"><a xlink:href="../../d1/dd9/classCLText.html" target="_top" xlink:title=" ">
<polygon fill="white" stroke="black" points="347,-915.5 347,-934.5 395,-934.5 395,-915.5 347,-915.5"/>
<text text-anchor="middle" x="371" y="-922.5" font-family="FreeSans" font-size="10.00">CLText</text>
</a>
</g>
</g>
<!-- Node2&#45;&gt;Node251 -->
<g id="edge44" class="edge">
<title>Node2&#45;&gt;Node251</title>
<path fill="none" stroke="midnightblue" d="M200.4,-606.59C205.55,-654.45 222.24,-780.44 263,-877 268.99,-891.2 269.3,-897.28 282,-906 301.2,-919.18 327.86,-923.46 346.79,-924.73"/>
<polygon fill="midnightblue" stroke="midnightblue" points="203.88,-606.23 199.37,-596.64 196.92,-606.95 203.88,-606.23"/>
</g>
<!-- Node252 -->
<g id="node44" class="node">
<title>Node252</title>
<g id="a_node44"><a xlink:href="../../da/dcc/classCReportDefinition.html" target="_top" xlink:title=" ">
<polygon fill="white" stroke="black" points="325,-877.5 325,-896.5 417,-896.5 417,-877.5 325,-877.5"/>
<text text-anchor="middle" x="371" y="-884.5" font-family="FreeSans" font-size="10.00">CReportDefinition</text>
</a>
</g>
</g>
<!-- Node2&#45;&gt;Node252 -->
<g id="edge45" class="edge">
<title>Node2&#45;&gt;Node252</title>
<path fill="none" stroke="midnightblue" d="M200.44,-606.98C206.4,-664.16 226.3,-826.62 263,-863 279.16,-879.01 303.55,-885.31 324.96,-887.47"/>
<polygon fill="midnightblue" stroke="midnightblue" points="203.89,-606.34 199.41,-596.74 196.93,-607.04 203.89,-606.34"/>
</g>
<!-- Node4 -->
<g id="node4" class="node">
<title>Node4</title>
<g id="a_node4"><a xlink:href="../../d8/d2c/classCDependentNumberReference.html" target="_top" xlink:title=" ">
<polygon fill="white" stroke="black" points="774,-866.5 774,-885.5 923,-885.5 923,-866.5 774,-866.5"/>
<text text-anchor="middle" x="848.5" y="-873.5" font-family="FreeSans" font-size="10.00">CDependentNumberReference</text>
</a>
</g>
</g>
<!-- Node3&#45;&gt;Node4 -->
<g id="edge3" class="edge">
<title>Node3&#45;&gt;Node4</title>
<path fill="none" stroke="midnightblue" d="M721.86,-863.63C738.6,-865.28 756.64,-867.06 773.67,-868.73"/>
<polygon fill="midnightblue" stroke="midnightblue" points="721.92,-860.12 711.62,-862.62 721.23,-867.09 721.92,-860.12"/>
</g>
<!-- Node5 -->
<g id="node5" class="node">
<title>Node5</title>
<g id="a_node5"><a xlink:href="../../d9/d77/classCTotalNumberReference.html" target="_top" xlink:title=" ">
<polygon fill="white" stroke="black" points="786.5,-828.5 786.5,-847.5 910.5,-847.5 910.5,-828.5 786.5,-828.5"/>
<text text-anchor="middle" x="848.5" y="-835.5" font-family="FreeSans" font-size="10.00">CTotalNumberReference</text>
</a>
</g>
</g>
<!-- Node3&#45;&gt;Node5 -->
<g id="edge4" class="edge">
<title>Node3&#45;&gt;Node5</title>
<path fill="none" stroke="midnightblue" d="M721.77,-850.38C742.81,-848.31 765.9,-846.03 786.49,-844.01"/>
<polygon fill="midnightblue" stroke="midnightblue" points="721.23,-846.91 711.62,-851.38 721.92,-853.88 721.23,-846.91"/>
</g>
<!-- Node12 -->
<g id="node12" class="node">
<title>Node12</title>
<g id="a_node12"><a xlink:href="../../db/d30/classCDataVector.html" target="_top" xlink:title=" ">
<polygon fill="white" stroke="red" points="577.5,-580 577.5,-610 729.5,-610 729.5,-580 577.5,-580"/>
<text text-anchor="start" x="585.5" y="-598" font-family="FreeSans" font-size="10.00">CDataVector&lt; CLGlobalRender</text>
<text text-anchor="middle" x="653.5" y="-587" font-family="FreeSans" font-size="10.00">Information &gt;</text>
</a>
</g>
</g>
<!-- Node11&#45;&gt;Node12 -->
<g id="edge11" class="edge">
<title>Node11&#45;&gt;Node12</title>
<path fill="none" stroke="midnightblue" d="M423.72,-530.58C435.79,-533.41 448.48,-536.88 460,-541 468.42,-544.01 469.62,-546.87 478,-550 510.82,-562.28 548.32,-572.43 580.13,-579.96"/>
<polygon fill="midnightblue" stroke="midnightblue" points="424.3,-527.12 413.77,-528.35 422.77,-533.95 424.3,-527.12"/>
</g>
<!-- Node13 -->
<g id="node13" class="node">
<title>Node13</title>
<g id="a_node13"><a xlink:href="../../db/d30/classCDataVector.html" target="_top" xlink:title=" ">
<polygon fill="white" stroke="red" points="580,-541.5 580,-560.5 727,-560.5 727,-541.5 580,-541.5"/>
<text text-anchor="middle" x="653.5" y="-548.5" font-family="FreeSans" font-size="10.00">CDataVector&lt; CModification &gt;</text>
</a>
</g>
</g>
<!-- Node11&#45;&gt;Node13 -->
<g id="edge12" class="edge">
<title>Node11&#45;&gt;Node13</title>
<path fill="none" stroke="midnightblue" d="M423.84,-526.54C467.65,-531.23 530.9,-537.99 579.78,-543.22"/>
<polygon fill="midnightblue" stroke="midnightblue" points="424.01,-523.04 413.69,-525.46 423.26,-530 424.01,-523.04"/>
</g>
<!-- Node14 -->
<g id="node14" class="node">
<title>Node14</title>
<g id="a_node14"><a xlink:href="../../db/d30/classCDataVector.html" target="_top" xlink:title=" ">
<polygon fill="white" stroke="red" points="577,-503.5 577,-522.5 730,-522.5 730,-503.5 577,-503.5"/>
<text text-anchor="middle" x="653.5" y="-510.5" font-family="FreeSans" font-size="10.00">CDataVector&lt; CLMetabGlyph &gt;</text>
</a>
</g>
</g>
<!-- Node11&#45;&gt;Node14 -->
<g id="edge13" class="edge">
<title>Node11&#45;&gt;Node14</title>
<path fill="none" stroke="midnightblue" d="M423.92,-519.52C466.91,-518.29 528.56,-516.53 577,-515.15"/>
<polygon fill="midnightblue" stroke="midnightblue" points="423.59,-516.03 413.69,-519.81 423.79,-523.02 423.59,-516.03"/>
</g>
<!-- Node15 -->
<g id="node15" class="node">
<title>Node15</title>
<g id="a_node15"><a xlink:href="../../db/d30/classCDataVector.html" target="_top" xlink:title=" ">
<polygon fill="white" stroke="red" points="577.5,-454 577.5,-484 729.5,-484 729.5,-454 577.5,-454"/>
<text text-anchor="start" x="585.5" y="-472" font-family="FreeSans" font-size="10.00">CDataVector&lt; CLCompartment</text>
<text text-anchor="middle" x="653.5" y="-461" font-family="FreeSans" font-size="10.00">Glyph &gt;</text>
</a>
</g>
</g>
<!-- Node11&#45;&gt;Node15 -->
<g id="edge14" class="edge">
<title>Node11&#45;&gt;Node15</title>
<path fill="none" stroke="midnightblue" d="M423.67,-511.42C466.75,-503.44 528.7,-491.95 577.28,-482.94"/>
<polygon fill="midnightblue" stroke="midnightblue" points="422.89,-508.01 413.69,-513.27 424.16,-514.89 422.89,-508.01"/>
</g>
<!-- Node16 -->
<g id="node16" class="node">
<title>Node16</title>
<g id="a_node16"><a xlink:href="../../db/d30/classCDataVector.html" target="_top" xlink:title=" ">
<polygon fill="white" stroke="red" points="593.5,-415.5 593.5,-434.5 713.5,-434.5 713.5,-415.5 593.5,-415.5"/>
<text text-anchor="middle" x="653.5" y="-422.5" font-family="FreeSans" font-size="10.00">CDataVector&lt; CSlider &gt;</text>
</a>
</g>
</g>
<!-- Node11&#45;&gt;Node16 -->
<g id="edge15" class="edge">
<title>Node11&#45;&gt;Node16</title>
<path fill="none" stroke="midnightblue" d="M423.44,-515.02C435.9,-512.21 448.85,-508.08 460,-502 469.93,-496.59 468.62,-490.32 478,-484 514.82,-459.17 527.83,-458.94 570,-445 581.89,-441.07 594.98,-437.54 607.17,-434.58"/>
<polygon fill="midnightblue" stroke="midnightblue" points="422.69,-511.6 413.58,-517.01 424.07,-518.47 422.69,-511.6"/>
</g>
<!-- Node17 -->
<g id="node17" class="node">
<title>Node17</title>
<g id="a_node17"><a xlink:href="../../db/d30/classCDataVector.html" target="_top" xlink:title=" ">
<polygon fill="white" stroke="red" points="585,-366 585,-396 722,-396 722,-366 585,-366"/>
<text text-anchor="start" x="593" y="-384" font-family="FreeSans" font-size="10.00">CDataVector&lt; CLReference</text>
<text text-anchor="middle" x="653.5" y="-373" font-family="FreeSans" font-size="10.00">Glyph &gt;</text>
</a>
</g>
</g>
<!-- Node11&#45;&gt;Node17 -->
<g id="edge16" class="edge">
<title>Node11&#45;&gt;Node17</title>
<path fill="none" stroke="midnightblue" d="M423.67,-518.94C436.82,-516.14 450.03,-511.03 460,-502 479.37,-484.45 460.45,-465.38 478,-446 505.45,-415.69 548.38,-399.46 584.79,-390.8"/>
<polygon fill="midnightblue" stroke="midnightblue" points="422.95,-515.51 413.69,-520.66 424.14,-522.41 422.95,-515.51"/>
</g>
<!-- Node18 -->
<g id="node18" class="node">
<title>Node18</title>
<g id="a_node18"><a xlink:href="../../db/d30/classCDataVector.html" target="_top" xlink:title=" ">
<polygon fill="white" stroke="red" points="589,-317 589,-347 718,-347 718,-317 589,-317"/>
<text text-anchor="start" x="597" y="-335" font-family="FreeSans" font-size="10.00">CDataVector&lt; CBiological</text>
<text text-anchor="middle" x="653.5" y="-324" font-family="FreeSans" font-size="10.00">Description &gt;</text>
</a>
</g>
</g>
<!-- Node11&#45;&gt;Node18 -->
<g id="edge17" class="edge">
<title>Node11&#45;&gt;Node18</title>
<path fill="none" stroke="midnightblue" d="M423.82,-519.99C437.22,-517.24 450.52,-511.89 460,-502 492.75,-467.81 448.78,-434.25 478,-397 504.54,-363.17 550.6,-346.95 588.74,-339.17"/>
<polygon fill="midnightblue" stroke="midnightblue" points="422.94,-516.59 413.61,-521.62 424.04,-523.5 422.94,-516.59"/>
</g>
<!-- Node19 -->
<g id="node19" class="node">
<title>Node19</title>
<g id="a_node19"><a xlink:href="../../db/d30/classCDataVector.html" target="_top" xlink:title=" ">
<polygon fill="white" stroke="red" points="578,-278.5 578,-297.5 729,-297.5 729,-278.5 578,-278.5"/>
<text text-anchor="middle" x="653.5" y="-285.5" font-family="FreeSans" font-size="10.00">CDataVector&lt; CLGlobalStyle &gt;</text>
</a>
</g>
</g>
<!-- Node11&#45;&gt;Node19 -->
<g id="edge18" class="edge">
<title>Node11&#45;&gt;Node19</title>
<path fill="none" stroke="midnightblue" d="M424.17,-520.32C437.58,-517.58 450.8,-512.15 460,-502 506.88,-450.3 435.93,-401.69 478,-346 501.38,-315.05 541.88,-300.41 577.97,-293.58"/>
<polygon fill="midnightblue" stroke="midnightblue" points="423.28,-516.92 413.95,-521.94 424.37,-523.84 423.28,-516.92"/>
</g>
<!-- Node20 -->
<g id="node20" class="node">
<title>Node20</title>
<g id="a_node20"><a xlink:href="../../db/d30/classCDataVector.html" target="_top" xlink:title=" ">
<polygon fill="white" stroke="red" points="583.5,-240.5 583.5,-259.5 723.5,-259.5 723.5,-240.5 583.5,-240.5"/>
<text text-anchor="middle" x="653.5" y="-247.5" font-family="FreeSans" font-size="10.00">CDataVector&lt; CReference &gt;</text>
</a>
</g>
</g>
<!-- Node11&#45;&gt;Node20 -->
<g id="edge19" class="edge">
<title>Node11&#45;&gt;Node20</title>
<path fill="none" stroke="midnightblue" d="M423.59,-520.64C437.26,-517.95 450.77,-512.47 460,-502 490.39,-467.53 448.88,-331.55 478,-296 503.21,-265.22 546.35,-253.66 583.43,-249.82"/>
<polygon fill="midnightblue" stroke="midnightblue" points="423.03,-517.19 413.67,-522.14 424.08,-524.11 423.03,-517.19"/>
</g>
<!-- Node21 -->
<g id="node21" class="node">
<title>Node21</title>
<g id="a_node21"><a xlink:href="../../db/d30/classCDataVector.html" target="_top" xlink:title=" ">
<polygon fill="white" stroke="red" points="574.5,-202.5 574.5,-221.5 732.5,-221.5 732.5,-202.5 574.5,-202.5"/>
<text text-anchor="middle" x="653.5" y="-209.5" font-family="FreeSans" font-size="10.00">CDataVector&lt; CLGradientStop &gt;</text>
</a>
</g>
</g>
<!-- Node11&#45;&gt;Node21 -->
<g id="edge20" class="edge">
<title>Node11&#45;&gt;Node21</title>
<path fill="none" stroke="midnightblue" d="M423.7,-520.73C437.37,-518.04 450.85,-512.54 460,-502 496.52,-459.94 441.75,-294.29 478,-252 501.46,-224.63 539.49,-213.85 574.07,-210.24"/>
<polygon fill="midnightblue" stroke="midnightblue" points="423.13,-517.28 413.77,-522.23 424.18,-524.2 423.13,-517.28"/>
</g>
<!-- Node22 -->
<g id="node22" class="node">
<title>Node22</title>
<g id="a_node22"><a xlink:href="../../db/d30/classCDataVector.html" target="_top" xlink:title=" ">
<polygon fill="white" stroke="red" points="591.5,-164.5 591.5,-183.5 715.5,-183.5 715.5,-164.5 591.5,-164.5"/>
<text text-anchor="middle" x="653.5" y="-171.5" font-family="FreeSans" font-size="10.00">CDataVector&lt; CMoiety &gt;</text>
</a>
</g>
</g>
<!-- Node11&#45;&gt;Node22 -->
<g id="edge21" class="edge">
<title>Node11&#45;&gt;Node22</title>
<path fill="none" stroke="midnightblue" d="M423.77,-520.79C437.44,-518.1 450.9,-512.59 460,-502 502.37,-452.69 435.4,-259.11 478,-210 505.46,-178.34 552.74,-170.11 591.16,-169.37"/>
<polygon fill="midnightblue" stroke="midnightblue" points="423.2,-517.34 413.83,-522.28 424.24,-524.26 423.2,-517.34"/>
</g>
<!-- Node23 -->
<g id="node23" class="node">
<title>Node23</title>
<g id="a_node23"><a xlink:href="../../db/d30/classCDataVector.html" target="_top" xlink:title=" ">
<polygon fill="white" stroke="red" points="571.5,-115 571.5,-145 735.5,-145 735.5,-115 571.5,-115"/>
<text text-anchor="start" x="579.5" y="-133" font-family="FreeSans" font-size="10.00">CDataVector&lt; CLMetabReference</text>
<text text-anchor="middle" x="653.5" y="-122" font-family="FreeSans" font-size="10.00">Glyph &gt;</text>
</a>
</g>
</g>
<!-- Node11&#45;&gt;Node23 -->
<g id="edge22" class="edge">
<title>Node11&#45;&gt;Node23</title>
<path fill="none" stroke="midnightblue" d="M423.82,-520.83C437.49,-518.15 450.94,-512.62 460,-502 508.09,-445.61 430.12,-225.56 478,-169 500.66,-142.23 537.32,-131.49 571.2,-127.85"/>
<polygon fill="midnightblue" stroke="midnightblue" points="423.25,-517.38 413.88,-522.32 424.29,-524.3 423.25,-517.38"/>
</g>
<!-- Node24 -->
<g id="node24" class="node">
<title>Node24</title>
<g id="a_node24"><a xlink:href="../../db/d30/classCDataVector.html" target="_top" xlink:title=" ">
<polygon fill="white" stroke="red" points="582.5,-76.5 582.5,-95.5 724.5,-95.5 724.5,-76.5 582.5,-76.5"/>
<text text-anchor="middle" x="653.5" y="-83.5" font-family="FreeSans" font-size="10.00">CDataVector&lt; CDataModel &gt;</text>
</a>
</g>
</g>
<!-- Node11&#45;&gt;Node24 -->
<g id="edge23" class="edge">
<title>Node11&#45;&gt;Node24</title>
<path fill="none" stroke="midnightblue" d="M423.86,-520.87C437.53,-518.18 450.97,-512.65 460,-502 486.97,-470.18 451.32,-159.07 478,-127 502.98,-96.98 545.41,-86.54 582.17,-83.7"/>
<polygon fill="midnightblue" stroke="midnightblue" points="423.29,-517.42 413.92,-522.36 424.33,-524.34 423.29,-517.42"/>
</g>
<!-- Node25 -->
<g id="node25" class="node">
<title>Node25</title>
<g id="a_node25"><a xlink:href="../../db/d30/classCDataVector.html" target="_top" xlink:title=" ">
<polygon fill="white" stroke="red" points="570,-38.5 570,-57.5 737,-57.5 737,-38.5 570,-38.5"/>
<text text-anchor="middle" x="653.5" y="-45.5" font-family="FreeSans" font-size="10.00">CDataVector&lt; CChemEqElement &gt;</text>
</a>
</g>
</g>
<!-- Node11&#45;&gt;Node25 -->
<g id="edge24" class="edge">
<title>Node11&#45;&gt;Node25</title>
<path fill="none" stroke="midnightblue" d="M423.89,-520.9C437.57,-518.21 451,-512.67 460,-502 489.9,-466.55 448.03,-120.4 478,-85 500.31,-58.65 536.29,-48.23 569.8,-44.87"/>
<polygon fill="midnightblue" stroke="midnightblue" points="423.32,-517.44 413.95,-522.38 424.36,-524.37 423.32,-517.44"/>
</g>
<!-- Node26 -->
<g id="node26" class="node">
<title>Node26</title>
<g id="a_node26"><a xlink:href="../../db/d30/classCDataVector.html" target="_top" xlink:title=" ">
<polygon fill="white" stroke="red" points="593.5,-0.5 593.5,-19.5 713.5,-19.5 713.5,-0.5 593.5,-0.5"/>
<text text-anchor="middle" x="653.5" y="-7.5" font-family="FreeSans" font-size="10.00">CDataVector&lt; CEvent &gt;</text>
</a>
</g>
</g>
<!-- Node11&#45;&gt;Node26 -->
<g id="edge25" class="edge">
<title>Node11&#45;&gt;Node26</title>
<path fill="none" stroke="midnightblue" d="M423.55,-520.99C437.35,-518.33 450.94,-512.79 460,-502 492.69,-463.09 445.03,-83.67 478,-45 505.67,-12.56 554.21,-4.92 593.09,-4.77"/>
<polygon fill="midnightblue" stroke="midnightblue" points="422.91,-517.55 413.52,-522.45 423.92,-524.47 422.91,-517.55"/>
</g>
<!-- Node28 -->
<g id="node27" class="node">
<title>Node28</title>
<g id="a_node27"><a xlink:href="../../db/d30/classCDataVector.html" target="_top" xlink:title=" ">
<polygon fill="white" stroke="red" points="571.5,-754.5 571.5,-773.5 735.5,-773.5 735.5,-754.5 571.5,-754.5"/>
<text text-anchor="middle" x="653.5" y="-761.5" font-family="FreeSans" font-size="10.00">CDataVector&lt; CLReactionGlyph &gt;</text>
</a>
</g>
</g>
<!-- Node11&#45;&gt;Node28 -->
<g id="edge26" class="edge">
<title>Node11&#45;&gt;Node28</title>
<path fill="none" stroke="midnightblue" d="M423.41,-522.18C437.08,-525.04 450.62,-530.61 460,-541 504.39,-590.19 442.1,-633.3 478,-689 503.93,-729.24 525.66,-726.95 570,-745 579.26,-748.77 589.42,-751.87 599.35,-754.41"/>
<polygon fill="midnightblue" stroke="midnightblue" points="423.94,-518.72 413.5,-520.55 422.8,-525.63 423.94,-518.72"/>
</g>
<!-- Node29 -->
<g id="node28" class="node">
<title>Node29</title>
<g id="a_node28"><a xlink:href="../../db/d30/classCDataVector.html" target="_top" xlink:title=" ">
<polygon fill="white" stroke="red" points="571.5,-716.5 571.5,-735.5 735.5,-735.5 735.5,-716.5 571.5,-716.5"/>
<text text-anchor="middle" x="653.5" y="-723.5" font-family="FreeSans" font-size="10.00">CDataVector&lt; CLColorDefinition &gt;</text>
</a>
</g>
</g>
<!-- Node11&#45;&gt;Node29 -->
<g id="edge27" class="edge">
<title>Node11&#45;&gt;Node29</title>
<path fill="none" stroke="midnightblue" d="M423.88,-522.62C437.28,-525.53 450.57,-531.02 460,-541 493.12,-576.05 451.43,-607.76 478,-648 503.69,-686.91 553.74,-706.6 593.68,-716.45"/>
<polygon fill="midnightblue" stroke="midnightblue" points="424.12,-519.11 413.67,-520.87 422.94,-526.01 424.12,-519.11"/>
</g>
<!-- Node30 -->
<g id="node29" class="node">
<title>Node30</title>
<g id="a_node29"><a xlink:href="../../db/d30/classCDataVector.html" target="_top" xlink:title=" ">
<polygon fill="white" stroke="red" points="592.5,-678.5 592.5,-697.5 714.5,-697.5 714.5,-678.5 592.5,-678.5"/>
<text text-anchor="middle" x="653.5" y="-685.5" font-family="FreeSans" font-size="10.00">CDataVector&lt; CMetab &gt;</text>
</a>
</g>
</g>
<!-- Node11&#45;&gt;Node30 -->
<g id="edge28" class="edge">
<title>Node11&#45;&gt;Node30</title>
<path fill="none" stroke="midnightblue" d="M423.64,-523.3C436.91,-526.23 450.19,-531.57 460,-541 482.22,-562.37 459.99,-582.97 478,-608 506.66,-647.82 524.93,-649.63 570,-669 578.91,-672.83 588.71,-675.95 598.35,-678.47"/>
<polygon fill="midnightblue" stroke="midnightblue" points="424.01,-519.81 413.55,-521.5 422.78,-526.7 424.01,-519.81"/>
</g>
<!-- Node31 -->
<g id="node30" class="node">
<title>Node31</title>
<g id="a_node30"><a xlink:href="../../db/d30/classCDataVector.html" target="_top" xlink:title=" ">
<polygon fill="white" stroke="red" points="579.5,-629 579.5,-659 727.5,-659 727.5,-629 579.5,-629"/>
<text text-anchor="start" x="587.5" y="-647" font-family="FreeSans" font-size="10.00">CDataVector&lt; CLLocalRender</text>
<text text-anchor="middle" x="653.5" y="-636" font-family="FreeSans" font-size="10.00">Information &gt;</text>
</a>
</g>
</g>
<!-- Node11&#45;&gt;Node31 -->
<g id="edge29" class="edge">
<title>Node11&#45;&gt;Node31</title>
<path fill="none" stroke="midnightblue" d="M423.81,-525.15C436.6,-528.13 449.6,-533.03 460,-541 473.57,-551.4 465.72,-563.1 478,-575 510.7,-606.67 527.55,-603.58 570,-620 578.21,-623.17 587.02,-626.16 595.71,-628.88"/>
<polygon fill="midnightblue" stroke="midnightblue" points="424.14,-521.65 413.65,-523.15 422.79,-528.52 424.14,-521.65"/>
</g>
<!-- Node239&#45;&gt;Node3 -->
<g id="edge32" class="edge">
<title>Node239&#45;&gt;Node3</title>
<path fill="none" stroke="orange" stroke-dasharray="5,2" d="M439.72,-806.43C473.94,-808.58 515.78,-813.41 552,-824 560.58,-826.51 561.67,-829.74 570,-833 578.19,-836.21 586.99,-839.22 595.68,-841.94"/>
<polygon fill="orange" stroke="orange" points="439.53,-802.91 429.35,-805.84 439.14,-809.9 439.53,-802.91"/>
<text text-anchor="middle" x="515" y="-827" font-family="FreeSans" font-size="10.00"> &lt; C_FLOAT64 &gt;</text>
</g>
<!-- Node239&#45;&gt;Node6 -->
<g id="edge33" class="edge">
<title>Node239&#45;&gt;Node6</title>
<path fill="none" stroke="orange" stroke-dasharray="5,2" d="M439.22,-794.04C452.06,-792.36 465.42,-790.89 478,-790 510.81,-787.69 519.24,-787.09 552,-790 566.12,-791.25 581.24,-793.48 595.34,-795.95"/>
<polygon fill="orange" stroke="orange" points="438.49,-790.61 429.06,-795.43 439.44,-797.54 438.49,-790.61"/>
<text text-anchor="middle" x="515" y="-793" font-family="FreeSans" font-size="10.00"> &lt; std::string &gt;</text>
</g>
<!-- Node254 -->
<g id="node46" class="node">
<title>Node254</title>
<g id="a_node46"><a xlink:href="../../d6/de2/classCModelParameterCompartment.html" target="_top" xlink:title=" ">
<polygon fill="white" stroke="black" points="294.5,-119.5 294.5,-138.5 447.5,-138.5 447.5,-119.5 294.5,-119.5"/>
<text text-anchor="middle" x="371" y="-126.5" font-family="FreeSans" font-size="10.00">CModelParameterCompartment</text>
</a>
</g>
</g>
<!-- Node253&#45;&gt;Node254 -->
<g id="edge47" class="edge">
<title>Node253&#45;&gt;Node254</title>
<path fill="none" stroke="midnightblue" d="M255.59,-129C268.05,-129 281.43,-129 294.48,-129"/>
<polygon fill="midnightblue" stroke="midnightblue" points="255.36,-125.5 245.36,-129 255.36,-132.5 255.36,-125.5"/>
</g>
<!-- Node255 -->
<g id="node47" class="node">
<title>Node255</title>
<g id="a_node47"><a xlink:href="../../df/dd2/classCModelParameterGroup.html" target="_top" xlink:title=" ">
<polygon fill="white" stroke="red" points="310.5,-81.5 310.5,-100.5 431.5,-100.5 431.5,-81.5 310.5,-81.5"/>
<text text-anchor="middle" x="371" y="-88.5" font-family="FreeSans" font-size="10.00">CModelParameterGroup</text>
</a>
</g>
</g>
<!-- Node253&#45;&gt;Node255 -->
<g id="edge48" class="edge">
<title>Node253&#45;&gt;Node255</title>
<path fill="none" stroke="midnightblue" d="M250.04,-117.18C260.61,-114.78 271.66,-112.29 282,-110 296.04,-106.89 311.35,-103.56 325.21,-100.57"/>
<polygon fill="midnightblue" stroke="midnightblue" points="249.08,-113.81 240.1,-119.44 250.63,-120.63 249.08,-113.81"/>
</g>
<!-- Node256 -->
<g id="node48" class="node">
<title>Node256</title>
<g id="a_node48"><a xlink:href="../../db/db5/classCModelParameterReactionParameter.html" target="_top" xlink:title=" ">
<polygon fill="white" stroke="black" points="282,-43.5 282,-62.5 460,-62.5 460,-43.5 282,-43.5"/>
<text text-anchor="middle" x="371" y="-50.5" font-family="FreeSans" font-size="10.00">CModelParameterReactionParameter</text>
</a>
</g>
</g>
<!-- Node253&#45;&gt;Node256 -->
<g id="edge49" class="edge">
<title>Node253&#45;&gt;Node256</title>
<path fill="none" stroke="midnightblue" d="M217.64,-112.73C233.79,-99.82 258.05,-82.29 282,-72 290.9,-68.17 300.66,-65.09 310.32,-62.61"/>
<polygon fill="midnightblue" stroke="midnightblue" points="215.07,-110.31 209.55,-119.35 219.51,-115.73 215.07,-110.31"/>
</g>
<!-- Node257 -->
<g id="node49" class="node">
<title>Node257</title>
<g id="a_node49"><a xlink:href="../../d2/d7a/classCModelParameterSpecies.html" target="_top" xlink:title=" ">
<polygon fill="white" stroke="black" points="306,-157.5 306,-176.5 436,-176.5 436,-157.5 306,-157.5"/>
<text text-anchor="middle" x="371" y="-164.5" font-family="FreeSans" font-size="10.00">CModelParameterSpecies</text>
</a>
</g>
</g>
<!-- Node253&#45;&gt;Node257 -->
<g id="edge50" class="edge">
<title>Node253&#45;&gt;Node257</title>
<path fill="none" stroke="midnightblue" d="M250.04,-140.82C260.61,-143.22 271.66,-145.71 282,-148 296.04,-151.11 311.35,-154.44 325.21,-157.43"/>
<polygon fill="midnightblue" stroke="midnightblue" points="250.63,-137.37 240.1,-138.56 249.08,-144.19 250.63,-137.37"/>
</g>
</g>
</svg>
        <g id="navigator" transform="translate(0 0)" fill="#404254">
                <rect fill="#f2f5e9" fill-opacity="0.5" stroke="#606060" stroke-width=".5" x="0" y="0" width="60" height="60"/>
                <use id="zoomplus" xlink:href="#zoomPlus" x="17" y="9" onmousedown="handleZoom(evt,'in')"/>
                <use id="zoomminus" xlink:href="#zoomMin" x="42" y="9" onmousedown="handleZoom(evt,'out')"/>
                <use id="reset" xlink:href="#resetDef" x="30" y="36" onmousedown="handleReset()"/>
                <g id="arrowUp" xlink:href="#dirArrow" transform="translate(30 24)" onmousedown="handlePan(0,-1)">
                  <use xlink:href="#rim" fill="#404040">
                        <set attributeName="fill" to="#808080" begin="arrowUp.mouseover" end="arrowUp.mouseout"/>
                  </use>
                  <path fill="none" stroke="white" stroke-width="1.5" d="M0,-3.0v7 M-2.5,-0.5L0,-3.0L2.5,-0.5"/>
                </g>
                <g id="arrowRight" xlink:href="#dirArrow" transform="rotate(90) translate(36 -43)" onmousedown="handlePan(1,0)">
                  <use xlink:href="#rim" fill="#404040">
                        <set attributeName="fill" to="#808080" begin="arrowRight.mouseover" end="arrowRight.mouseout"/>
                  </use>
                  <path fill="none" stroke="white" stroke-width="1.5" d="M0,-3.0v7 M-2.5,-0.5L0,-3.0L2.5,-0.5"/>
                </g>
                <g id="arrowDown" xlink:href="#dirArrow" transform="rotate(180) translate(-30 -48)" onmousedown="handlePan(0,1)">
                  <use xlink:href="#rim" fill="#404040">
                        <set attributeName="fill" to="#808080" begin="arrowDown.mouseover" end="arrowDown.mouseout"/>
                  </use>
                  <path fill="none" stroke="white" stroke-width="1.5" d="M0,-3.0v7 M-2.5,-0.5L0,-3.0L2.5,-0.5"/>
                </g>
                <g id="arrowLeft" xlink:href="#dirArrow" transform="rotate(270) translate(-36 17)" onmousedown="handlePan(-1,0)">
                  <use xlink:href="#rim" fill="#404040">
                        <set attributeName="fill" to="#808080" begin="arrowLeft.mouseover" end="arrowLeft.mouseout"/>
                  </use>
                  <path fill="none" stroke="white" stroke-width="1.5" d="M0,-3.0v7 M-2.5,-0.5L0,-3.0L2.5,-0.5"/>
                </g>
        </g>
        <svg viewBox="0 0 15 15" width="100%" height="30px" preserveAspectRatio="xMaxYMin meet">
         <g id="arrow_out" transform="scale(0.3 0.3)">
          <a xlink:href="classCUndoObjectInterface__inherit__graph_org.svg" target="_base">
           <rect id="button" ry="5" rx="5" y="6" x="6" height="38" width="38"
                fill="#f2f5e9" fill-opacity="0.5" stroke="#606060" stroke-width="1.0"/>
           <path id="arrow"
             d="M 11.500037,31.436501 C 11.940474,20.09759 22.043105,11.32322 32.158766,21.979434 L 37.068811,17.246167 C 37.068811,17.246167 37.088388,32 37.088388,32 L 22.160133,31.978069 C 22.160133,31.978069 26.997745,27.140456 26.997745,27.140456 C 18.528582,18.264221 13.291696,25.230495 11.500037,31.436501 z"
             style="fill:#404040;"/>
          </a>
         </g>
        </svg>
</svg>
