<?xml version="1.0" encoding="UTF-8" standalone="no"?>
<!DOCTYPE svg PUBLIC "-//W3C//DTD SVG 1.1//EN"
 "http://www.w3.org/Graphics/SVG/1.1/DTD/svg11.dtd">
<!-- Generated by graphviz version 2.43.0 (0)
 -->
<!-- Title: CLGeneralGlyph Pages: 1 -->
<svg width="238pt" height="308pt"
 viewBox="0.00 0.00 237.50 308.00" xmlns="http://www.w3.org/2000/svg" xmlns:xlink="http://www.w3.org/1999/xlink">
<g id="graph0" class="graph" transform="scale(1 1) rotate(0) translate(4 304)">
<title>CLGeneralGlyph</title>
<polygon fill="white" stroke="transparent" points="-4,4 -4,-304 233.5,-304 233.5,4 -4,4"/>
<!-- Node1 -->
<g id="node1" class="node">
<title>Node1</title>
<g id="a_node1"><a xlink:title=" ">
<polygon fill="#bfbfbf" stroke="black" points="25,-0.5 25,-19.5 113,-19.5 113,-0.5 25,-0.5"/>
<text text-anchor="middle" x="69" y="-7.5" font-family="FreeSans" font-size="10.00">CLGeneralGlyph</text>
</a>
</g>
</g>
<!-- Node2 -->
<g id="node2" class="node">
<title>Node2</title>
<g id="a_node2"><a xlink:href="../../dc/dac/classCLGlyphWithCurve.html" target="_top" xlink:title=" ">
<polygon fill="white" stroke="black" points="19.5,-56.5 19.5,-75.5 118.5,-75.5 118.5,-56.5 19.5,-56.5"/>
<text text-anchor="middle" x="69" y="-63.5" font-family="FreeSans" font-size="10.00">CLGlyphWithCurve</text>
</a>
</g>
</g>
<!-- Node2&#45;&gt;Node1 -->
<g id="edge1" class="edge">
<title>Node2&#45;&gt;Node1</title>
<path fill="none" stroke="midnightblue" d="M69,-45.8C69,-36.91 69,-26.78 69,-19.75"/>
<polygon fill="midnightblue" stroke="midnightblue" points="65.5,-46.08 69,-56.08 72.5,-46.08 65.5,-46.08"/>
</g>
<!-- Node3 -->
<g id="node3" class="node">
<title>Node3</title>
<g id="a_node3"><a xlink:href="../../d8/d63/classCLGraphicalObject.html" target="_top" xlink:title=" ">
<polygon fill="white" stroke="black" points="19.5,-112.5 19.5,-131.5 118.5,-131.5 118.5,-112.5 19.5,-112.5"/>
<text text-anchor="middle" x="69" y="-119.5" font-family="FreeSans" font-size="10.00">CLGraphicalObject</text>
</a>
</g>
</g>
<!-- Node3&#45;&gt;Node2 -->
<g id="edge2" class="edge">
<title>Node3&#45;&gt;Node2</title>
<path fill="none" stroke="midnightblue" d="M69,-101.8C69,-92.91 69,-82.78 69,-75.75"/>
<polygon fill="midnightblue" stroke="midnightblue" points="65.5,-102.08 69,-112.08 72.5,-102.08 65.5,-102.08"/>
</g>
<!-- Node4 -->
<g id="node4" class="node">
<title>Node4</title>
<g id="a_node4"><a xlink:href="../../d7/df9/classCLBase.html" target="_top" xlink:title=" ">
<polygon fill="white" stroke="black" points="0,-168.5 0,-187.5 52,-187.5 52,-168.5 0,-168.5"/>
<text text-anchor="middle" x="26" y="-175.5" font-family="FreeSans" font-size="10.00">CLBase</text>
</a>
</g>
</g>
<!-- Node4&#45;&gt;Node3 -->
<g id="edge3" class="edge">
<title>Node4&#45;&gt;Node3</title>
<path fill="none" stroke="midnightblue" d="M39.42,-160.14C46.91,-150.74 55.94,-139.4 62.03,-131.75"/>
<polygon fill="midnightblue" stroke="midnightblue" points="36.59,-158.08 33.1,-168.08 42.07,-162.44 36.59,-158.08"/>
</g>
<!-- Node5 -->
<g id="node5" class="node">
<title>Node5</title>
<g id="a_node5"><a xlink:href="../../d3/db9/classCDataContainer.html" target="_top" xlink:title=" ">
<polygon fill="white" stroke="black" points="70.5,-168.5 70.5,-187.5 155.5,-187.5 155.5,-168.5 70.5,-168.5"/>
<text text-anchor="middle" x="113" y="-175.5" font-family="FreeSans" font-size="10.00">CDataContainer</text>
</a>
</g>
</g>
<!-- Node5&#45;&gt;Node3 -->
<g id="edge4" class="edge">
<title>Node5&#45;&gt;Node3</title>
<path fill="none" stroke="midnightblue" d="M99.27,-160.14C91.6,-150.74 82.37,-139.4 76.13,-131.75"/>
<polygon fill="midnightblue" stroke="midnightblue" points="96.7,-162.54 105.73,-168.08 102.13,-158.12 96.7,-162.54"/>
</g>
<!-- Node6 -->
<g id="node6" class="node">
<title>Node6</title>
<g id="a_node6"><a xlink:href="../../d1/d6b/classCDataObject.html" target="_top" xlink:title=" ">
<polygon fill="white" stroke="black" points="77,-224.5 77,-243.5 149,-243.5 149,-224.5 77,-224.5"/>
<text text-anchor="middle" x="113" y="-231.5" font-family="FreeSans" font-size="10.00">CDataObject</text>
</a>
</g>
</g>
<!-- Node6&#45;&gt;Node5 -->
<g id="edge5" class="edge">
<title>Node6&#45;&gt;Node5</title>
<path fill="none" stroke="midnightblue" d="M113,-213.8C113,-204.91 113,-194.78 113,-187.75"/>
<polygon fill="midnightblue" stroke="midnightblue" points="109.5,-214.08 113,-224.08 116.5,-214.08 109.5,-214.08"/>
</g>
<!-- Node7 -->
<g id="node7" class="node">
<title>Node7</title>
<g id="a_node7"><a xlink:href="../../df/dfa/classCObjectInterface.html" target="_top" xlink:title=" ">
<polygon fill="white" stroke="black" points="8,-280.5 8,-299.5 98,-299.5 98,-280.5 8,-280.5"/>
<text text-anchor="middle" x="53" y="-287.5" font-family="FreeSans" font-size="10.00">CObjectInterface</text>
</a>
</g>
</g>
<!-- Node7&#45;&gt;Node6 -->
<g id="edge6" class="edge">
<title>Node7&#45;&gt;Node6</title>
<path fill="none" stroke="midnightblue" d="M70.18,-273.54C80.88,-263.91 94.26,-251.87 103.18,-243.83"/>
<polygon fill="midnightblue" stroke="midnightblue" points="67.73,-271.03 62.64,-280.32 72.41,-276.24 67.73,-271.03"/>
</g>
<!-- Node8 -->
<g id="node8" class="node">
<title>Node8</title>
<g id="a_node8"><a xlink:href="../../d8/d53/classCUndoObjectInterface.html" target="_top" xlink:title=" ">
<polygon fill="white" stroke="black" points="116.5,-280.5 116.5,-299.5 229.5,-299.5 229.5,-280.5 116.5,-280.5"/>
<text text-anchor="middle" x="173" y="-287.5" font-family="FreeSans" font-size="10.00">CUndoObjectInterface</text>
</a>
</g>
</g>
<!-- Node8&#45;&gt;Node6 -->
<g id="edge7" class="edge">
<title>Node8&#45;&gt;Node6</title>
<path fill="none" stroke="midnightblue" d="M155.82,-273.54C145.12,-263.91 131.74,-251.87 122.82,-243.83"/>
<polygon fill="midnightblue" stroke="midnightblue" points="153.59,-276.24 163.36,-280.32 158.27,-271.03 153.59,-276.24"/>
</g>
</g>
</svg>
