<?xml version="1.0" encoding="UTF-8" standalone="no"?>
<!DOCTYPE svg PUBLIC "-//W3C//DTD SVG 1.1//EN"
 "http://www.w3.org/Graphics/SVG/1.1/DTD/svg11.dtd">
<!-- Generated by graphviz version 2.43.0 (0)
 -->
<!-- Title: CRegisteredCommonName::RenameInterface Pages: 1 -->
<svg width="296pt" height="117pt"
 viewBox="0.00 0.00 296.00 117.00" xmlns="http://www.w3.org/2000/svg" xmlns:xlink="http://www.w3.org/1999/xlink">
<g id="graph0" class="graph" transform="scale(1 1) rotate(0) translate(4 113)">
<title>CRegisteredCommonName::RenameInterface</title>
<polygon fill="white" stroke="transparent" points="-4,4 -4,-113 292,-113 292,4 -4,4"/>
<!-- Node1 -->
<g id="node1" class="node">
<title>Node1</title>
<g id="a_node1"><a xlink:title=" ">
<polygon fill="#bfbfbf" stroke="black" points="76,-78.5 76,-108.5 211,-108.5 211,-78.5 76,-78.5"/>
<text text-anchor="start" x="84" y="-96.5" font-family="FreeSans" font-size="10.00">CRegisteredCommonName</text>
<text text-anchor="middle" x="143.5" y="-85.5" font-family="FreeSans" font-size="10.00">::RenameInterface</text>
</a>
</g>
</g>
<!-- Node2 -->
<g id="node2" class="node">
<title>Node2</title>
<g id="a_node2"><a xlink:href="../../d9/d64/classCRegisteredCommonName_1_1ClassMemberRename.html" target="_top" xlink:title=" ">
<polygon fill="white" stroke="black" points="0,-0.5 0,-41.5 135,-41.5 135,-0.5 0,-0.5"/>
<text text-anchor="start" x="8" y="-29.5" font-family="FreeSans" font-size="10.00">CRegisteredCommonName</text>
<text text-anchor="start" x="8" y="-18.5" font-family="FreeSans" font-size="10.00">::ClassMemberRename&lt;</text>
<text text-anchor="middle" x="67.5" y="-7.5" font-family="FreeSans" font-size="10.00"> Renamer &gt;</text>
</a>
</g>
</g>
<!-- Node1&#45;&gt;Node2 -->
<g id="edge1" class="edge">
<title>Node1&#45;&gt;Node2</title>
<path fill="none" stroke="midnightblue" d="M120.73,-71.38C110.54,-61.93 98.6,-50.85 88.62,-41.59"/>
<polygon fill="midnightblue" stroke="midnightblue" points="118.41,-74 128.12,-78.23 123.17,-68.87 118.41,-74"/>
</g>
<!-- Node3 -->
<g id="node3" class="node">
<title>Node3</title>
<g id="a_node3"><a xlink:href="../../de/ddf/classCRegisteredCommonName_1_1Rename.html" target="_top" xlink:title=" ">
<polygon fill="white" stroke="black" points="153,-6 153,-36 288,-36 288,-6 153,-6"/>
<text text-anchor="start" x="161" y="-24" font-family="FreeSans" font-size="10.00">CRegisteredCommonName</text>
<text text-anchor="middle" x="220.5" y="-13" font-family="FreeSans" font-size="10.00">::Rename</text>
</a>
</g>
</g>
<!-- Node1&#45;&gt;Node3 -->
<g id="edge2" class="edge">
<title>Node1&#45;&gt;Node3</title>
<path fill="none" stroke="midnightblue" d="M166.48,-71.46C178.99,-60 194.14,-46.14 205.2,-36"/>
<polygon fill="midnightblue" stroke="midnightblue" points="164.09,-68.9 159.08,-78.23 168.82,-74.06 164.09,-68.9"/>
</g>
</g>
</svg>
